%TF.GenerationSoftware,KiCad,Pcbnew,7.0.2*%
%TF.CreationDate,2024-03-07T16:31:08-05:00*%
%TF.ProjectId,rrc_pcb2,7272635f-7063-4623-922e-6b696361645f,3*%
%TF.SameCoordinates,Original*%
%TF.FileFunction,AssemblyDrawing,Top*%
%FSLAX46Y46*%
G04 Gerber Fmt 4.6, Leading zero omitted, Abs format (unit mm)*
G04 Created by KiCad (PCBNEW 7.0.2) date 2024-03-07 16:31:08*
%MOMM*%
%LPD*%
G01*
G04 APERTURE LIST*
%ADD10C,0.100000*%
%ADD11C,0.150000*%
%ADD12C,0.300000*%
%ADD13C,0.400000*%
G04 APERTURE END LIST*
D10*
D11*
X177002200Y-166007200D02*
X285002200Y-166007200D01*
X285002200Y-198007200D01*
X177002200Y-198007200D01*
X177002200Y-166007200D01*
D10*
D11*
X10000000Y-10000000D02*
X287002200Y-10000000D01*
X287002200Y-200007200D01*
X10000000Y-200007200D01*
X10000000Y-10000000D01*
D10*
D11*
X12000000Y-12000000D02*
X285002200Y-12000000D01*
X285002200Y-198007200D01*
X12000000Y-198007200D01*
X12000000Y-12000000D01*
D10*
D11*
X60000000Y-12000000D02*
X60000000Y-10000000D01*
D10*
D11*
X110000000Y-12000000D02*
X110000000Y-10000000D01*
D10*
D11*
X160000000Y-12000000D02*
X160000000Y-10000000D01*
D10*
D11*
X210000000Y-12000000D02*
X210000000Y-10000000D01*
D10*
D11*
X260000000Y-12000000D02*
X260000000Y-10000000D01*
D10*
D11*
X35990476Y-11601404D02*
X35247619Y-11601404D01*
X35619047Y-11601404D02*
X35619047Y-10301404D01*
X35619047Y-10301404D02*
X35495238Y-10487119D01*
X35495238Y-10487119D02*
X35371428Y-10610928D01*
X35371428Y-10610928D02*
X35247619Y-10672833D01*
D10*
D11*
X85247619Y-10425214D02*
X85309523Y-10363309D01*
X85309523Y-10363309D02*
X85433333Y-10301404D01*
X85433333Y-10301404D02*
X85742857Y-10301404D01*
X85742857Y-10301404D02*
X85866666Y-10363309D01*
X85866666Y-10363309D02*
X85928571Y-10425214D01*
X85928571Y-10425214D02*
X85990476Y-10549023D01*
X85990476Y-10549023D02*
X85990476Y-10672833D01*
X85990476Y-10672833D02*
X85928571Y-10858547D01*
X85928571Y-10858547D02*
X85185714Y-11601404D01*
X85185714Y-11601404D02*
X85990476Y-11601404D01*
D10*
D11*
X135185714Y-10301404D02*
X135990476Y-10301404D01*
X135990476Y-10301404D02*
X135557142Y-10796642D01*
X135557142Y-10796642D02*
X135742857Y-10796642D01*
X135742857Y-10796642D02*
X135866666Y-10858547D01*
X135866666Y-10858547D02*
X135928571Y-10920452D01*
X135928571Y-10920452D02*
X135990476Y-11044261D01*
X135990476Y-11044261D02*
X135990476Y-11353785D01*
X135990476Y-11353785D02*
X135928571Y-11477595D01*
X135928571Y-11477595D02*
X135866666Y-11539500D01*
X135866666Y-11539500D02*
X135742857Y-11601404D01*
X135742857Y-11601404D02*
X135371428Y-11601404D01*
X135371428Y-11601404D02*
X135247619Y-11539500D01*
X135247619Y-11539500D02*
X135185714Y-11477595D01*
D10*
D11*
X185866666Y-10734738D02*
X185866666Y-11601404D01*
X185557142Y-10239500D02*
X185247619Y-11168071D01*
X185247619Y-11168071D02*
X186052380Y-11168071D01*
D10*
D11*
X235928571Y-10301404D02*
X235309523Y-10301404D01*
X235309523Y-10301404D02*
X235247619Y-10920452D01*
X235247619Y-10920452D02*
X235309523Y-10858547D01*
X235309523Y-10858547D02*
X235433333Y-10796642D01*
X235433333Y-10796642D02*
X235742857Y-10796642D01*
X235742857Y-10796642D02*
X235866666Y-10858547D01*
X235866666Y-10858547D02*
X235928571Y-10920452D01*
X235928571Y-10920452D02*
X235990476Y-11044261D01*
X235990476Y-11044261D02*
X235990476Y-11353785D01*
X235990476Y-11353785D02*
X235928571Y-11477595D01*
X235928571Y-11477595D02*
X235866666Y-11539500D01*
X235866666Y-11539500D02*
X235742857Y-11601404D01*
X235742857Y-11601404D02*
X235433333Y-11601404D01*
X235433333Y-11601404D02*
X235309523Y-11539500D01*
X235309523Y-11539500D02*
X235247619Y-11477595D01*
D10*
D11*
X285866666Y-10301404D02*
X285619047Y-10301404D01*
X285619047Y-10301404D02*
X285495238Y-10363309D01*
X285495238Y-10363309D02*
X285433333Y-10425214D01*
X285433333Y-10425214D02*
X285309523Y-10610928D01*
X285309523Y-10610928D02*
X285247619Y-10858547D01*
X285247619Y-10858547D02*
X285247619Y-11353785D01*
X285247619Y-11353785D02*
X285309523Y-11477595D01*
X285309523Y-11477595D02*
X285371428Y-11539500D01*
X285371428Y-11539500D02*
X285495238Y-11601404D01*
X285495238Y-11601404D02*
X285742857Y-11601404D01*
X285742857Y-11601404D02*
X285866666Y-11539500D01*
X285866666Y-11539500D02*
X285928571Y-11477595D01*
X285928571Y-11477595D02*
X285990476Y-11353785D01*
X285990476Y-11353785D02*
X285990476Y-11044261D01*
X285990476Y-11044261D02*
X285928571Y-10920452D01*
X285928571Y-10920452D02*
X285866666Y-10858547D01*
X285866666Y-10858547D02*
X285742857Y-10796642D01*
X285742857Y-10796642D02*
X285495238Y-10796642D01*
X285495238Y-10796642D02*
X285371428Y-10858547D01*
X285371428Y-10858547D02*
X285309523Y-10920452D01*
X285309523Y-10920452D02*
X285247619Y-11044261D01*
D10*
D11*
X60000000Y-198007200D02*
X60000000Y-200007200D01*
D10*
D11*
X110000000Y-198007200D02*
X110000000Y-200007200D01*
D10*
D11*
X160000000Y-198007200D02*
X160000000Y-200007200D01*
D10*
D11*
X210000000Y-198007200D02*
X210000000Y-200007200D01*
D10*
D11*
X260000000Y-198007200D02*
X260000000Y-200007200D01*
D10*
D11*
X35990476Y-199608604D02*
X35247619Y-199608604D01*
X35619047Y-199608604D02*
X35619047Y-198308604D01*
X35619047Y-198308604D02*
X35495238Y-198494319D01*
X35495238Y-198494319D02*
X35371428Y-198618128D01*
X35371428Y-198618128D02*
X35247619Y-198680033D01*
D10*
D11*
X85247619Y-198432414D02*
X85309523Y-198370509D01*
X85309523Y-198370509D02*
X85433333Y-198308604D01*
X85433333Y-198308604D02*
X85742857Y-198308604D01*
X85742857Y-198308604D02*
X85866666Y-198370509D01*
X85866666Y-198370509D02*
X85928571Y-198432414D01*
X85928571Y-198432414D02*
X85990476Y-198556223D01*
X85990476Y-198556223D02*
X85990476Y-198680033D01*
X85990476Y-198680033D02*
X85928571Y-198865747D01*
X85928571Y-198865747D02*
X85185714Y-199608604D01*
X85185714Y-199608604D02*
X85990476Y-199608604D01*
D10*
D11*
X135185714Y-198308604D02*
X135990476Y-198308604D01*
X135990476Y-198308604D02*
X135557142Y-198803842D01*
X135557142Y-198803842D02*
X135742857Y-198803842D01*
X135742857Y-198803842D02*
X135866666Y-198865747D01*
X135866666Y-198865747D02*
X135928571Y-198927652D01*
X135928571Y-198927652D02*
X135990476Y-199051461D01*
X135990476Y-199051461D02*
X135990476Y-199360985D01*
X135990476Y-199360985D02*
X135928571Y-199484795D01*
X135928571Y-199484795D02*
X135866666Y-199546700D01*
X135866666Y-199546700D02*
X135742857Y-199608604D01*
X135742857Y-199608604D02*
X135371428Y-199608604D01*
X135371428Y-199608604D02*
X135247619Y-199546700D01*
X135247619Y-199546700D02*
X135185714Y-199484795D01*
D10*
D11*
X185866666Y-198741938D02*
X185866666Y-199608604D01*
X185557142Y-198246700D02*
X185247619Y-199175271D01*
X185247619Y-199175271D02*
X186052380Y-199175271D01*
D10*
D11*
X235928571Y-198308604D02*
X235309523Y-198308604D01*
X235309523Y-198308604D02*
X235247619Y-198927652D01*
X235247619Y-198927652D02*
X235309523Y-198865747D01*
X235309523Y-198865747D02*
X235433333Y-198803842D01*
X235433333Y-198803842D02*
X235742857Y-198803842D01*
X235742857Y-198803842D02*
X235866666Y-198865747D01*
X235866666Y-198865747D02*
X235928571Y-198927652D01*
X235928571Y-198927652D02*
X235990476Y-199051461D01*
X235990476Y-199051461D02*
X235990476Y-199360985D01*
X235990476Y-199360985D02*
X235928571Y-199484795D01*
X235928571Y-199484795D02*
X235866666Y-199546700D01*
X235866666Y-199546700D02*
X235742857Y-199608604D01*
X235742857Y-199608604D02*
X235433333Y-199608604D01*
X235433333Y-199608604D02*
X235309523Y-199546700D01*
X235309523Y-199546700D02*
X235247619Y-199484795D01*
D10*
D11*
X285866666Y-198308604D02*
X285619047Y-198308604D01*
X285619047Y-198308604D02*
X285495238Y-198370509D01*
X285495238Y-198370509D02*
X285433333Y-198432414D01*
X285433333Y-198432414D02*
X285309523Y-198618128D01*
X285309523Y-198618128D02*
X285247619Y-198865747D01*
X285247619Y-198865747D02*
X285247619Y-199360985D01*
X285247619Y-199360985D02*
X285309523Y-199484795D01*
X285309523Y-199484795D02*
X285371428Y-199546700D01*
X285371428Y-199546700D02*
X285495238Y-199608604D01*
X285495238Y-199608604D02*
X285742857Y-199608604D01*
X285742857Y-199608604D02*
X285866666Y-199546700D01*
X285866666Y-199546700D02*
X285928571Y-199484795D01*
X285928571Y-199484795D02*
X285990476Y-199360985D01*
X285990476Y-199360985D02*
X285990476Y-199051461D01*
X285990476Y-199051461D02*
X285928571Y-198927652D01*
X285928571Y-198927652D02*
X285866666Y-198865747D01*
X285866666Y-198865747D02*
X285742857Y-198803842D01*
X285742857Y-198803842D02*
X285495238Y-198803842D01*
X285495238Y-198803842D02*
X285371428Y-198865747D01*
X285371428Y-198865747D02*
X285309523Y-198927652D01*
X285309523Y-198927652D02*
X285247619Y-199051461D01*
D10*
D11*
X10000000Y-60000000D02*
X12000000Y-60000000D01*
D10*
D11*
X10000000Y-110000000D02*
X12000000Y-110000000D01*
D10*
D11*
X10000000Y-160000000D02*
X12000000Y-160000000D01*
D10*
D11*
X10690476Y-35229976D02*
X11309523Y-35229976D01*
X10566666Y-35601404D02*
X10999999Y-34301404D01*
X10999999Y-34301404D02*
X11433333Y-35601404D01*
D10*
D11*
X11092857Y-84920452D02*
X11278571Y-84982357D01*
X11278571Y-84982357D02*
X11340476Y-85044261D01*
X11340476Y-85044261D02*
X11402380Y-85168071D01*
X11402380Y-85168071D02*
X11402380Y-85353785D01*
X11402380Y-85353785D02*
X11340476Y-85477595D01*
X11340476Y-85477595D02*
X11278571Y-85539500D01*
X11278571Y-85539500D02*
X11154761Y-85601404D01*
X11154761Y-85601404D02*
X10659523Y-85601404D01*
X10659523Y-85601404D02*
X10659523Y-84301404D01*
X10659523Y-84301404D02*
X11092857Y-84301404D01*
X11092857Y-84301404D02*
X11216666Y-84363309D01*
X11216666Y-84363309D02*
X11278571Y-84425214D01*
X11278571Y-84425214D02*
X11340476Y-84549023D01*
X11340476Y-84549023D02*
X11340476Y-84672833D01*
X11340476Y-84672833D02*
X11278571Y-84796642D01*
X11278571Y-84796642D02*
X11216666Y-84858547D01*
X11216666Y-84858547D02*
X11092857Y-84920452D01*
X11092857Y-84920452D02*
X10659523Y-84920452D01*
D10*
D11*
X11402380Y-135477595D02*
X11340476Y-135539500D01*
X11340476Y-135539500D02*
X11154761Y-135601404D01*
X11154761Y-135601404D02*
X11030952Y-135601404D01*
X11030952Y-135601404D02*
X10845238Y-135539500D01*
X10845238Y-135539500D02*
X10721428Y-135415690D01*
X10721428Y-135415690D02*
X10659523Y-135291880D01*
X10659523Y-135291880D02*
X10597619Y-135044261D01*
X10597619Y-135044261D02*
X10597619Y-134858547D01*
X10597619Y-134858547D02*
X10659523Y-134610928D01*
X10659523Y-134610928D02*
X10721428Y-134487119D01*
X10721428Y-134487119D02*
X10845238Y-134363309D01*
X10845238Y-134363309D02*
X11030952Y-134301404D01*
X11030952Y-134301404D02*
X11154761Y-134301404D01*
X11154761Y-134301404D02*
X11340476Y-134363309D01*
X11340476Y-134363309D02*
X11402380Y-134425214D01*
D10*
D11*
X10659523Y-185601404D02*
X10659523Y-184301404D01*
X10659523Y-184301404D02*
X10969047Y-184301404D01*
X10969047Y-184301404D02*
X11154761Y-184363309D01*
X11154761Y-184363309D02*
X11278571Y-184487119D01*
X11278571Y-184487119D02*
X11340476Y-184610928D01*
X11340476Y-184610928D02*
X11402380Y-184858547D01*
X11402380Y-184858547D02*
X11402380Y-185044261D01*
X11402380Y-185044261D02*
X11340476Y-185291880D01*
X11340476Y-185291880D02*
X11278571Y-185415690D01*
X11278571Y-185415690D02*
X11154761Y-185539500D01*
X11154761Y-185539500D02*
X10969047Y-185601404D01*
X10969047Y-185601404D02*
X10659523Y-185601404D01*
D10*
D11*
X287002200Y-60000000D02*
X285002200Y-60000000D01*
D10*
D11*
X287002200Y-110000000D02*
X285002200Y-110000000D01*
D10*
D11*
X287002200Y-160000000D02*
X285002200Y-160000000D01*
D10*
D11*
X285692676Y-35229976D02*
X286311723Y-35229976D01*
X285568866Y-35601404D02*
X286002199Y-34301404D01*
X286002199Y-34301404D02*
X286435533Y-35601404D01*
D10*
D11*
X286095057Y-84920452D02*
X286280771Y-84982357D01*
X286280771Y-84982357D02*
X286342676Y-85044261D01*
X286342676Y-85044261D02*
X286404580Y-85168071D01*
X286404580Y-85168071D02*
X286404580Y-85353785D01*
X286404580Y-85353785D02*
X286342676Y-85477595D01*
X286342676Y-85477595D02*
X286280771Y-85539500D01*
X286280771Y-85539500D02*
X286156961Y-85601404D01*
X286156961Y-85601404D02*
X285661723Y-85601404D01*
X285661723Y-85601404D02*
X285661723Y-84301404D01*
X285661723Y-84301404D02*
X286095057Y-84301404D01*
X286095057Y-84301404D02*
X286218866Y-84363309D01*
X286218866Y-84363309D02*
X286280771Y-84425214D01*
X286280771Y-84425214D02*
X286342676Y-84549023D01*
X286342676Y-84549023D02*
X286342676Y-84672833D01*
X286342676Y-84672833D02*
X286280771Y-84796642D01*
X286280771Y-84796642D02*
X286218866Y-84858547D01*
X286218866Y-84858547D02*
X286095057Y-84920452D01*
X286095057Y-84920452D02*
X285661723Y-84920452D01*
D10*
D11*
X286404580Y-135477595D02*
X286342676Y-135539500D01*
X286342676Y-135539500D02*
X286156961Y-135601404D01*
X286156961Y-135601404D02*
X286033152Y-135601404D01*
X286033152Y-135601404D02*
X285847438Y-135539500D01*
X285847438Y-135539500D02*
X285723628Y-135415690D01*
X285723628Y-135415690D02*
X285661723Y-135291880D01*
X285661723Y-135291880D02*
X285599819Y-135044261D01*
X285599819Y-135044261D02*
X285599819Y-134858547D01*
X285599819Y-134858547D02*
X285661723Y-134610928D01*
X285661723Y-134610928D02*
X285723628Y-134487119D01*
X285723628Y-134487119D02*
X285847438Y-134363309D01*
X285847438Y-134363309D02*
X286033152Y-134301404D01*
X286033152Y-134301404D02*
X286156961Y-134301404D01*
X286156961Y-134301404D02*
X286342676Y-134363309D01*
X286342676Y-134363309D02*
X286404580Y-134425214D01*
D10*
D11*
X285661723Y-185601404D02*
X285661723Y-184301404D01*
X285661723Y-184301404D02*
X285971247Y-184301404D01*
X285971247Y-184301404D02*
X286156961Y-184363309D01*
X286156961Y-184363309D02*
X286280771Y-184487119D01*
X286280771Y-184487119D02*
X286342676Y-184610928D01*
X286342676Y-184610928D02*
X286404580Y-184858547D01*
X286404580Y-184858547D02*
X286404580Y-185044261D01*
X286404580Y-185044261D02*
X286342676Y-185291880D01*
X286342676Y-185291880D02*
X286280771Y-185415690D01*
X286280771Y-185415690D02*
X286156961Y-185539500D01*
X286156961Y-185539500D02*
X285971247Y-185601404D01*
X285971247Y-185601404D02*
X285661723Y-185601404D01*
D10*
D11*
X200359342Y-193801128D02*
X200359342Y-192301128D01*
X200359342Y-192301128D02*
X200716485Y-192301128D01*
X200716485Y-192301128D02*
X200930771Y-192372557D01*
X200930771Y-192372557D02*
X201073628Y-192515414D01*
X201073628Y-192515414D02*
X201145057Y-192658271D01*
X201145057Y-192658271D02*
X201216485Y-192943985D01*
X201216485Y-192943985D02*
X201216485Y-193158271D01*
X201216485Y-193158271D02*
X201145057Y-193443985D01*
X201145057Y-193443985D02*
X201073628Y-193586842D01*
X201073628Y-193586842D02*
X200930771Y-193729700D01*
X200930771Y-193729700D02*
X200716485Y-193801128D01*
X200716485Y-193801128D02*
X200359342Y-193801128D01*
X202502200Y-193801128D02*
X202502200Y-193015414D01*
X202502200Y-193015414D02*
X202430771Y-192872557D01*
X202430771Y-192872557D02*
X202287914Y-192801128D01*
X202287914Y-192801128D02*
X202002200Y-192801128D01*
X202002200Y-192801128D02*
X201859342Y-192872557D01*
X202502200Y-193729700D02*
X202359342Y-193801128D01*
X202359342Y-193801128D02*
X202002200Y-193801128D01*
X202002200Y-193801128D02*
X201859342Y-193729700D01*
X201859342Y-193729700D02*
X201787914Y-193586842D01*
X201787914Y-193586842D02*
X201787914Y-193443985D01*
X201787914Y-193443985D02*
X201859342Y-193301128D01*
X201859342Y-193301128D02*
X202002200Y-193229700D01*
X202002200Y-193229700D02*
X202359342Y-193229700D01*
X202359342Y-193229700D02*
X202502200Y-193158271D01*
X203002200Y-192801128D02*
X203573628Y-192801128D01*
X203216485Y-192301128D02*
X203216485Y-193586842D01*
X203216485Y-193586842D02*
X203287914Y-193729700D01*
X203287914Y-193729700D02*
X203430771Y-193801128D01*
X203430771Y-193801128D02*
X203573628Y-193801128D01*
X204645057Y-193729700D02*
X204502200Y-193801128D01*
X204502200Y-193801128D02*
X204216486Y-193801128D01*
X204216486Y-193801128D02*
X204073628Y-193729700D01*
X204073628Y-193729700D02*
X204002200Y-193586842D01*
X204002200Y-193586842D02*
X204002200Y-193015414D01*
X204002200Y-193015414D02*
X204073628Y-192872557D01*
X204073628Y-192872557D02*
X204216486Y-192801128D01*
X204216486Y-192801128D02*
X204502200Y-192801128D01*
X204502200Y-192801128D02*
X204645057Y-192872557D01*
X204645057Y-192872557D02*
X204716486Y-193015414D01*
X204716486Y-193015414D02*
X204716486Y-193158271D01*
X204716486Y-193158271D02*
X204002200Y-193301128D01*
X205359342Y-193658271D02*
X205430771Y-193729700D01*
X205430771Y-193729700D02*
X205359342Y-193801128D01*
X205359342Y-193801128D02*
X205287914Y-193729700D01*
X205287914Y-193729700D02*
X205359342Y-193658271D01*
X205359342Y-193658271D02*
X205359342Y-193801128D01*
X205359342Y-192872557D02*
X205430771Y-192943985D01*
X205430771Y-192943985D02*
X205359342Y-193015414D01*
X205359342Y-193015414D02*
X205287914Y-192943985D01*
X205287914Y-192943985D02*
X205359342Y-192872557D01*
X205359342Y-192872557D02*
X205359342Y-193015414D01*
X207145057Y-192443985D02*
X207216485Y-192372557D01*
X207216485Y-192372557D02*
X207359343Y-192301128D01*
X207359343Y-192301128D02*
X207716485Y-192301128D01*
X207716485Y-192301128D02*
X207859343Y-192372557D01*
X207859343Y-192372557D02*
X207930771Y-192443985D01*
X207930771Y-192443985D02*
X208002200Y-192586842D01*
X208002200Y-192586842D02*
X208002200Y-192729700D01*
X208002200Y-192729700D02*
X207930771Y-192943985D01*
X207930771Y-192943985D02*
X207073628Y-193801128D01*
X207073628Y-193801128D02*
X208002200Y-193801128D01*
X208930771Y-192301128D02*
X209073628Y-192301128D01*
X209073628Y-192301128D02*
X209216485Y-192372557D01*
X209216485Y-192372557D02*
X209287914Y-192443985D01*
X209287914Y-192443985D02*
X209359342Y-192586842D01*
X209359342Y-192586842D02*
X209430771Y-192872557D01*
X209430771Y-192872557D02*
X209430771Y-193229700D01*
X209430771Y-193229700D02*
X209359342Y-193515414D01*
X209359342Y-193515414D02*
X209287914Y-193658271D01*
X209287914Y-193658271D02*
X209216485Y-193729700D01*
X209216485Y-193729700D02*
X209073628Y-193801128D01*
X209073628Y-193801128D02*
X208930771Y-193801128D01*
X208930771Y-193801128D02*
X208787914Y-193729700D01*
X208787914Y-193729700D02*
X208716485Y-193658271D01*
X208716485Y-193658271D02*
X208645056Y-193515414D01*
X208645056Y-193515414D02*
X208573628Y-193229700D01*
X208573628Y-193229700D02*
X208573628Y-192872557D01*
X208573628Y-192872557D02*
X208645056Y-192586842D01*
X208645056Y-192586842D02*
X208716485Y-192443985D01*
X208716485Y-192443985D02*
X208787914Y-192372557D01*
X208787914Y-192372557D02*
X208930771Y-192301128D01*
X210002199Y-192443985D02*
X210073627Y-192372557D01*
X210073627Y-192372557D02*
X210216485Y-192301128D01*
X210216485Y-192301128D02*
X210573627Y-192301128D01*
X210573627Y-192301128D02*
X210716485Y-192372557D01*
X210716485Y-192372557D02*
X210787913Y-192443985D01*
X210787913Y-192443985D02*
X210859342Y-192586842D01*
X210859342Y-192586842D02*
X210859342Y-192729700D01*
X210859342Y-192729700D02*
X210787913Y-192943985D01*
X210787913Y-192943985D02*
X209930770Y-193801128D01*
X209930770Y-193801128D02*
X210859342Y-193801128D01*
X212145056Y-192801128D02*
X212145056Y-193801128D01*
X211787913Y-192229700D02*
X211430770Y-193301128D01*
X211430770Y-193301128D02*
X212359341Y-193301128D01*
X212930769Y-193229700D02*
X214073627Y-193229700D01*
X215073627Y-192301128D02*
X215216484Y-192301128D01*
X215216484Y-192301128D02*
X215359341Y-192372557D01*
X215359341Y-192372557D02*
X215430770Y-192443985D01*
X215430770Y-192443985D02*
X215502198Y-192586842D01*
X215502198Y-192586842D02*
X215573627Y-192872557D01*
X215573627Y-192872557D02*
X215573627Y-193229700D01*
X215573627Y-193229700D02*
X215502198Y-193515414D01*
X215502198Y-193515414D02*
X215430770Y-193658271D01*
X215430770Y-193658271D02*
X215359341Y-193729700D01*
X215359341Y-193729700D02*
X215216484Y-193801128D01*
X215216484Y-193801128D02*
X215073627Y-193801128D01*
X215073627Y-193801128D02*
X214930770Y-193729700D01*
X214930770Y-193729700D02*
X214859341Y-193658271D01*
X214859341Y-193658271D02*
X214787912Y-193515414D01*
X214787912Y-193515414D02*
X214716484Y-193229700D01*
X214716484Y-193229700D02*
X214716484Y-192872557D01*
X214716484Y-192872557D02*
X214787912Y-192586842D01*
X214787912Y-192586842D02*
X214859341Y-192443985D01*
X214859341Y-192443985D02*
X214930770Y-192372557D01*
X214930770Y-192372557D02*
X215073627Y-192301128D01*
X216145055Y-192443985D02*
X216216483Y-192372557D01*
X216216483Y-192372557D02*
X216359341Y-192301128D01*
X216359341Y-192301128D02*
X216716483Y-192301128D01*
X216716483Y-192301128D02*
X216859341Y-192372557D01*
X216859341Y-192372557D02*
X216930769Y-192443985D01*
X216930769Y-192443985D02*
X217002198Y-192586842D01*
X217002198Y-192586842D02*
X217002198Y-192729700D01*
X217002198Y-192729700D02*
X216930769Y-192943985D01*
X216930769Y-192943985D02*
X216073626Y-193801128D01*
X216073626Y-193801128D02*
X217002198Y-193801128D01*
X217645054Y-193229700D02*
X218787912Y-193229700D01*
X219430769Y-192443985D02*
X219502197Y-192372557D01*
X219502197Y-192372557D02*
X219645055Y-192301128D01*
X219645055Y-192301128D02*
X220002197Y-192301128D01*
X220002197Y-192301128D02*
X220145055Y-192372557D01*
X220145055Y-192372557D02*
X220216483Y-192443985D01*
X220216483Y-192443985D02*
X220287912Y-192586842D01*
X220287912Y-192586842D02*
X220287912Y-192729700D01*
X220287912Y-192729700D02*
X220216483Y-192943985D01*
X220216483Y-192943985D02*
X219359340Y-193801128D01*
X219359340Y-193801128D02*
X220287912Y-193801128D01*
X220859340Y-192443985D02*
X220930768Y-192372557D01*
X220930768Y-192372557D02*
X221073626Y-192301128D01*
X221073626Y-192301128D02*
X221430768Y-192301128D01*
X221430768Y-192301128D02*
X221573626Y-192372557D01*
X221573626Y-192372557D02*
X221645054Y-192443985D01*
X221645054Y-192443985D02*
X221716483Y-192586842D01*
X221716483Y-192586842D02*
X221716483Y-192729700D01*
X221716483Y-192729700D02*
X221645054Y-192943985D01*
X221645054Y-192943985D02*
X220787911Y-193801128D01*
X220787911Y-193801128D02*
X221716483Y-193801128D01*
D10*
D11*
X177002200Y-194507200D02*
X285002200Y-194507200D01*
D10*
D11*
X178359342Y-196601128D02*
X178359342Y-195101128D01*
X179216485Y-196601128D02*
X178573628Y-195743985D01*
X179216485Y-195101128D02*
X178359342Y-195958271D01*
X179859342Y-196601128D02*
X179859342Y-195601128D01*
X179859342Y-195101128D02*
X179787914Y-195172557D01*
X179787914Y-195172557D02*
X179859342Y-195243985D01*
X179859342Y-195243985D02*
X179930771Y-195172557D01*
X179930771Y-195172557D02*
X179859342Y-195101128D01*
X179859342Y-195101128D02*
X179859342Y-195243985D01*
X181430771Y-196458271D02*
X181359343Y-196529700D01*
X181359343Y-196529700D02*
X181145057Y-196601128D01*
X181145057Y-196601128D02*
X181002200Y-196601128D01*
X181002200Y-196601128D02*
X180787914Y-196529700D01*
X180787914Y-196529700D02*
X180645057Y-196386842D01*
X180645057Y-196386842D02*
X180573628Y-196243985D01*
X180573628Y-196243985D02*
X180502200Y-195958271D01*
X180502200Y-195958271D02*
X180502200Y-195743985D01*
X180502200Y-195743985D02*
X180573628Y-195458271D01*
X180573628Y-195458271D02*
X180645057Y-195315414D01*
X180645057Y-195315414D02*
X180787914Y-195172557D01*
X180787914Y-195172557D02*
X181002200Y-195101128D01*
X181002200Y-195101128D02*
X181145057Y-195101128D01*
X181145057Y-195101128D02*
X181359343Y-195172557D01*
X181359343Y-195172557D02*
X181430771Y-195243985D01*
X182716486Y-196601128D02*
X182716486Y-195815414D01*
X182716486Y-195815414D02*
X182645057Y-195672557D01*
X182645057Y-195672557D02*
X182502200Y-195601128D01*
X182502200Y-195601128D02*
X182216486Y-195601128D01*
X182216486Y-195601128D02*
X182073628Y-195672557D01*
X182716486Y-196529700D02*
X182573628Y-196601128D01*
X182573628Y-196601128D02*
X182216486Y-196601128D01*
X182216486Y-196601128D02*
X182073628Y-196529700D01*
X182073628Y-196529700D02*
X182002200Y-196386842D01*
X182002200Y-196386842D02*
X182002200Y-196243985D01*
X182002200Y-196243985D02*
X182073628Y-196101128D01*
X182073628Y-196101128D02*
X182216486Y-196029700D01*
X182216486Y-196029700D02*
X182573628Y-196029700D01*
X182573628Y-196029700D02*
X182716486Y-195958271D01*
X184073629Y-196601128D02*
X184073629Y-195101128D01*
X184073629Y-196529700D02*
X183930771Y-196601128D01*
X183930771Y-196601128D02*
X183645057Y-196601128D01*
X183645057Y-196601128D02*
X183502200Y-196529700D01*
X183502200Y-196529700D02*
X183430771Y-196458271D01*
X183430771Y-196458271D02*
X183359343Y-196315414D01*
X183359343Y-196315414D02*
X183359343Y-195886842D01*
X183359343Y-195886842D02*
X183430771Y-195743985D01*
X183430771Y-195743985D02*
X183502200Y-195672557D01*
X183502200Y-195672557D02*
X183645057Y-195601128D01*
X183645057Y-195601128D02*
X183930771Y-195601128D01*
X183930771Y-195601128D02*
X184073629Y-195672557D01*
X185930771Y-195815414D02*
X186430771Y-195815414D01*
X186645057Y-196601128D02*
X185930771Y-196601128D01*
X185930771Y-196601128D02*
X185930771Y-195101128D01*
X185930771Y-195101128D02*
X186645057Y-195101128D01*
X187287914Y-196458271D02*
X187359343Y-196529700D01*
X187359343Y-196529700D02*
X187287914Y-196601128D01*
X187287914Y-196601128D02*
X187216486Y-196529700D01*
X187216486Y-196529700D02*
X187287914Y-196458271D01*
X187287914Y-196458271D02*
X187287914Y-196601128D01*
X188002200Y-196601128D02*
X188002200Y-195101128D01*
X188002200Y-195101128D02*
X188359343Y-195101128D01*
X188359343Y-195101128D02*
X188573629Y-195172557D01*
X188573629Y-195172557D02*
X188716486Y-195315414D01*
X188716486Y-195315414D02*
X188787915Y-195458271D01*
X188787915Y-195458271D02*
X188859343Y-195743985D01*
X188859343Y-195743985D02*
X188859343Y-195958271D01*
X188859343Y-195958271D02*
X188787915Y-196243985D01*
X188787915Y-196243985D02*
X188716486Y-196386842D01*
X188716486Y-196386842D02*
X188573629Y-196529700D01*
X188573629Y-196529700D02*
X188359343Y-196601128D01*
X188359343Y-196601128D02*
X188002200Y-196601128D01*
X189502200Y-196458271D02*
X189573629Y-196529700D01*
X189573629Y-196529700D02*
X189502200Y-196601128D01*
X189502200Y-196601128D02*
X189430772Y-196529700D01*
X189430772Y-196529700D02*
X189502200Y-196458271D01*
X189502200Y-196458271D02*
X189502200Y-196601128D01*
X190145058Y-196172557D02*
X190859344Y-196172557D01*
X190002201Y-196601128D02*
X190502201Y-195101128D01*
X190502201Y-195101128D02*
X191002201Y-196601128D01*
X191502200Y-196458271D02*
X191573629Y-196529700D01*
X191573629Y-196529700D02*
X191502200Y-196601128D01*
X191502200Y-196601128D02*
X191430772Y-196529700D01*
X191430772Y-196529700D02*
X191502200Y-196458271D01*
X191502200Y-196458271D02*
X191502200Y-196601128D01*
X194502200Y-196601128D02*
X194502200Y-195101128D01*
X194645058Y-196029700D02*
X195073629Y-196601128D01*
X195073629Y-195601128D02*
X194502200Y-196172557D01*
X195716486Y-196601128D02*
X195716486Y-195601128D01*
X195716486Y-195101128D02*
X195645058Y-195172557D01*
X195645058Y-195172557D02*
X195716486Y-195243985D01*
X195716486Y-195243985D02*
X195787915Y-195172557D01*
X195787915Y-195172557D02*
X195716486Y-195101128D01*
X195716486Y-195101128D02*
X195716486Y-195243985D01*
X197073630Y-196529700D02*
X196930772Y-196601128D01*
X196930772Y-196601128D02*
X196645058Y-196601128D01*
X196645058Y-196601128D02*
X196502201Y-196529700D01*
X196502201Y-196529700D02*
X196430772Y-196458271D01*
X196430772Y-196458271D02*
X196359344Y-196315414D01*
X196359344Y-196315414D02*
X196359344Y-195886842D01*
X196359344Y-195886842D02*
X196430772Y-195743985D01*
X196430772Y-195743985D02*
X196502201Y-195672557D01*
X196502201Y-195672557D02*
X196645058Y-195601128D01*
X196645058Y-195601128D02*
X196930772Y-195601128D01*
X196930772Y-195601128D02*
X197073630Y-195672557D01*
X198359344Y-196601128D02*
X198359344Y-195815414D01*
X198359344Y-195815414D02*
X198287915Y-195672557D01*
X198287915Y-195672557D02*
X198145058Y-195601128D01*
X198145058Y-195601128D02*
X197859344Y-195601128D01*
X197859344Y-195601128D02*
X197716486Y-195672557D01*
X198359344Y-196529700D02*
X198216486Y-196601128D01*
X198216486Y-196601128D02*
X197859344Y-196601128D01*
X197859344Y-196601128D02*
X197716486Y-196529700D01*
X197716486Y-196529700D02*
X197645058Y-196386842D01*
X197645058Y-196386842D02*
X197645058Y-196243985D01*
X197645058Y-196243985D02*
X197716486Y-196101128D01*
X197716486Y-196101128D02*
X197859344Y-196029700D01*
X197859344Y-196029700D02*
X198216486Y-196029700D01*
X198216486Y-196029700D02*
X198359344Y-195958271D01*
X199716487Y-196601128D02*
X199716487Y-195101128D01*
X199716487Y-196529700D02*
X199573629Y-196601128D01*
X199573629Y-196601128D02*
X199287915Y-196601128D01*
X199287915Y-196601128D02*
X199145058Y-196529700D01*
X199145058Y-196529700D02*
X199073629Y-196458271D01*
X199073629Y-196458271D02*
X199002201Y-196315414D01*
X199002201Y-196315414D02*
X199002201Y-195886842D01*
X199002201Y-195886842D02*
X199073629Y-195743985D01*
X199073629Y-195743985D02*
X199145058Y-195672557D01*
X199145058Y-195672557D02*
X199287915Y-195601128D01*
X199287915Y-195601128D02*
X199573629Y-195601128D01*
X199573629Y-195601128D02*
X199716487Y-195672557D01*
X201430772Y-195101128D02*
X202430772Y-195101128D01*
X202430772Y-195101128D02*
X201787915Y-196601128D01*
X203002200Y-196458271D02*
X203073629Y-196529700D01*
X203073629Y-196529700D02*
X203002200Y-196601128D01*
X203002200Y-196601128D02*
X202930772Y-196529700D01*
X202930772Y-196529700D02*
X203002200Y-196458271D01*
X203002200Y-196458271D02*
X203002200Y-196601128D01*
X204002201Y-195101128D02*
X204145058Y-195101128D01*
X204145058Y-195101128D02*
X204287915Y-195172557D01*
X204287915Y-195172557D02*
X204359344Y-195243985D01*
X204359344Y-195243985D02*
X204430772Y-195386842D01*
X204430772Y-195386842D02*
X204502201Y-195672557D01*
X204502201Y-195672557D02*
X204502201Y-196029700D01*
X204502201Y-196029700D02*
X204430772Y-196315414D01*
X204430772Y-196315414D02*
X204359344Y-196458271D01*
X204359344Y-196458271D02*
X204287915Y-196529700D01*
X204287915Y-196529700D02*
X204145058Y-196601128D01*
X204145058Y-196601128D02*
X204002201Y-196601128D01*
X204002201Y-196601128D02*
X203859344Y-196529700D01*
X203859344Y-196529700D02*
X203787915Y-196458271D01*
X203787915Y-196458271D02*
X203716486Y-196315414D01*
X203716486Y-196315414D02*
X203645058Y-196029700D01*
X203645058Y-196029700D02*
X203645058Y-195672557D01*
X203645058Y-195672557D02*
X203716486Y-195386842D01*
X203716486Y-195386842D02*
X203787915Y-195243985D01*
X203787915Y-195243985D02*
X203859344Y-195172557D01*
X203859344Y-195172557D02*
X204002201Y-195101128D01*
X205145057Y-196458271D02*
X205216486Y-196529700D01*
X205216486Y-196529700D02*
X205145057Y-196601128D01*
X205145057Y-196601128D02*
X205073629Y-196529700D01*
X205073629Y-196529700D02*
X205145057Y-196458271D01*
X205145057Y-196458271D02*
X205145057Y-196601128D01*
X205787915Y-195243985D02*
X205859343Y-195172557D01*
X205859343Y-195172557D02*
X206002201Y-195101128D01*
X206002201Y-195101128D02*
X206359343Y-195101128D01*
X206359343Y-195101128D02*
X206502201Y-195172557D01*
X206502201Y-195172557D02*
X206573629Y-195243985D01*
X206573629Y-195243985D02*
X206645058Y-195386842D01*
X206645058Y-195386842D02*
X206645058Y-195529700D01*
X206645058Y-195529700D02*
X206573629Y-195743985D01*
X206573629Y-195743985D02*
X205716486Y-196601128D01*
X205716486Y-196601128D02*
X206645058Y-196601128D01*
D10*
D11*
X177002200Y-191507200D02*
X285002200Y-191507200D01*
D10*
D12*
X264216485Y-193801128D02*
X263716485Y-193086842D01*
X263359342Y-193801128D02*
X263359342Y-192301128D01*
X263359342Y-192301128D02*
X263930771Y-192301128D01*
X263930771Y-192301128D02*
X264073628Y-192372557D01*
X264073628Y-192372557D02*
X264145057Y-192443985D01*
X264145057Y-192443985D02*
X264216485Y-192586842D01*
X264216485Y-192586842D02*
X264216485Y-192801128D01*
X264216485Y-192801128D02*
X264145057Y-192943985D01*
X264145057Y-192943985D02*
X264073628Y-193015414D01*
X264073628Y-193015414D02*
X263930771Y-193086842D01*
X263930771Y-193086842D02*
X263359342Y-193086842D01*
X265430771Y-193729700D02*
X265287914Y-193801128D01*
X265287914Y-193801128D02*
X265002200Y-193801128D01*
X265002200Y-193801128D02*
X264859342Y-193729700D01*
X264859342Y-193729700D02*
X264787914Y-193586842D01*
X264787914Y-193586842D02*
X264787914Y-193015414D01*
X264787914Y-193015414D02*
X264859342Y-192872557D01*
X264859342Y-192872557D02*
X265002200Y-192801128D01*
X265002200Y-192801128D02*
X265287914Y-192801128D01*
X265287914Y-192801128D02*
X265430771Y-192872557D01*
X265430771Y-192872557D02*
X265502200Y-193015414D01*
X265502200Y-193015414D02*
X265502200Y-193158271D01*
X265502200Y-193158271D02*
X264787914Y-193301128D01*
X266002199Y-192801128D02*
X266359342Y-193801128D01*
X266359342Y-193801128D02*
X266716485Y-192801128D01*
X267287913Y-193658271D02*
X267359342Y-193729700D01*
X267359342Y-193729700D02*
X267287913Y-193801128D01*
X267287913Y-193801128D02*
X267216485Y-193729700D01*
X267216485Y-193729700D02*
X267287913Y-193658271D01*
X267287913Y-193658271D02*
X267287913Y-193801128D01*
X267287913Y-192872557D02*
X267359342Y-192943985D01*
X267359342Y-192943985D02*
X267287913Y-193015414D01*
X267287913Y-193015414D02*
X267216485Y-192943985D01*
X267216485Y-192943985D02*
X267287913Y-192872557D01*
X267287913Y-192872557D02*
X267287913Y-193015414D01*
X269002199Y-192301128D02*
X269930771Y-192301128D01*
X269930771Y-192301128D02*
X269430771Y-192872557D01*
X269430771Y-192872557D02*
X269645056Y-192872557D01*
X269645056Y-192872557D02*
X269787914Y-192943985D01*
X269787914Y-192943985D02*
X269859342Y-193015414D01*
X269859342Y-193015414D02*
X269930771Y-193158271D01*
X269930771Y-193158271D02*
X269930771Y-193515414D01*
X269930771Y-193515414D02*
X269859342Y-193658271D01*
X269859342Y-193658271D02*
X269787914Y-193729700D01*
X269787914Y-193729700D02*
X269645056Y-193801128D01*
X269645056Y-193801128D02*
X269216485Y-193801128D01*
X269216485Y-193801128D02*
X269073628Y-193729700D01*
X269073628Y-193729700D02*
X269002199Y-193658271D01*
D10*
D11*
X178287914Y-193729700D02*
X178502200Y-193801128D01*
X178502200Y-193801128D02*
X178859342Y-193801128D01*
X178859342Y-193801128D02*
X179002200Y-193729700D01*
X179002200Y-193729700D02*
X179073628Y-193658271D01*
X179073628Y-193658271D02*
X179145057Y-193515414D01*
X179145057Y-193515414D02*
X179145057Y-193372557D01*
X179145057Y-193372557D02*
X179073628Y-193229700D01*
X179073628Y-193229700D02*
X179002200Y-193158271D01*
X179002200Y-193158271D02*
X178859342Y-193086842D01*
X178859342Y-193086842D02*
X178573628Y-193015414D01*
X178573628Y-193015414D02*
X178430771Y-192943985D01*
X178430771Y-192943985D02*
X178359342Y-192872557D01*
X178359342Y-192872557D02*
X178287914Y-192729700D01*
X178287914Y-192729700D02*
X178287914Y-192586842D01*
X178287914Y-192586842D02*
X178359342Y-192443985D01*
X178359342Y-192443985D02*
X178430771Y-192372557D01*
X178430771Y-192372557D02*
X178573628Y-192301128D01*
X178573628Y-192301128D02*
X178930771Y-192301128D01*
X178930771Y-192301128D02*
X179145057Y-192372557D01*
X179787913Y-193801128D02*
X179787913Y-192801128D01*
X179787913Y-192301128D02*
X179716485Y-192372557D01*
X179716485Y-192372557D02*
X179787913Y-192443985D01*
X179787913Y-192443985D02*
X179859342Y-192372557D01*
X179859342Y-192372557D02*
X179787913Y-192301128D01*
X179787913Y-192301128D02*
X179787913Y-192443985D01*
X180359342Y-192801128D02*
X181145057Y-192801128D01*
X181145057Y-192801128D02*
X180359342Y-193801128D01*
X180359342Y-193801128D02*
X181145057Y-193801128D01*
X182287914Y-193729700D02*
X182145057Y-193801128D01*
X182145057Y-193801128D02*
X181859343Y-193801128D01*
X181859343Y-193801128D02*
X181716485Y-193729700D01*
X181716485Y-193729700D02*
X181645057Y-193586842D01*
X181645057Y-193586842D02*
X181645057Y-193015414D01*
X181645057Y-193015414D02*
X181716485Y-192872557D01*
X181716485Y-192872557D02*
X181859343Y-192801128D01*
X181859343Y-192801128D02*
X182145057Y-192801128D01*
X182145057Y-192801128D02*
X182287914Y-192872557D01*
X182287914Y-192872557D02*
X182359343Y-193015414D01*
X182359343Y-193015414D02*
X182359343Y-193158271D01*
X182359343Y-193158271D02*
X181645057Y-193301128D01*
X183002199Y-193658271D02*
X183073628Y-193729700D01*
X183073628Y-193729700D02*
X183002199Y-193801128D01*
X183002199Y-193801128D02*
X182930771Y-193729700D01*
X182930771Y-193729700D02*
X183002199Y-193658271D01*
X183002199Y-193658271D02*
X183002199Y-193801128D01*
X183002199Y-192872557D02*
X183073628Y-192943985D01*
X183073628Y-192943985D02*
X183002199Y-193015414D01*
X183002199Y-193015414D02*
X182930771Y-192943985D01*
X182930771Y-192943985D02*
X183002199Y-192872557D01*
X183002199Y-192872557D02*
X183002199Y-193015414D01*
X184787914Y-193372557D02*
X185502200Y-193372557D01*
X184645057Y-193801128D02*
X185145057Y-192301128D01*
X185145057Y-192301128D02*
X185645057Y-193801128D01*
X186787914Y-192801128D02*
X186787914Y-193801128D01*
X186430771Y-192229700D02*
X186073628Y-193301128D01*
X186073628Y-193301128D02*
X187002199Y-193301128D01*
D10*
D11*
X263359342Y-196601128D02*
X263359342Y-195101128D01*
X264716486Y-196601128D02*
X264716486Y-195101128D01*
X264716486Y-196529700D02*
X264573628Y-196601128D01*
X264573628Y-196601128D02*
X264287914Y-196601128D01*
X264287914Y-196601128D02*
X264145057Y-196529700D01*
X264145057Y-196529700D02*
X264073628Y-196458271D01*
X264073628Y-196458271D02*
X264002200Y-196315414D01*
X264002200Y-196315414D02*
X264002200Y-195886842D01*
X264002200Y-195886842D02*
X264073628Y-195743985D01*
X264073628Y-195743985D02*
X264145057Y-195672557D01*
X264145057Y-195672557D02*
X264287914Y-195601128D01*
X264287914Y-195601128D02*
X264573628Y-195601128D01*
X264573628Y-195601128D02*
X264716486Y-195672557D01*
X265430771Y-196458271D02*
X265502200Y-196529700D01*
X265502200Y-196529700D02*
X265430771Y-196601128D01*
X265430771Y-196601128D02*
X265359343Y-196529700D01*
X265359343Y-196529700D02*
X265430771Y-196458271D01*
X265430771Y-196458271D02*
X265430771Y-196601128D01*
X265430771Y-195672557D02*
X265502200Y-195743985D01*
X265502200Y-195743985D02*
X265430771Y-195815414D01*
X265430771Y-195815414D02*
X265359343Y-195743985D01*
X265359343Y-195743985D02*
X265430771Y-195672557D01*
X265430771Y-195672557D02*
X265430771Y-195815414D01*
X268073629Y-196601128D02*
X267216486Y-196601128D01*
X267645057Y-196601128D02*
X267645057Y-195101128D01*
X267645057Y-195101128D02*
X267502200Y-195315414D01*
X267502200Y-195315414D02*
X267359343Y-195458271D01*
X267359343Y-195458271D02*
X267216486Y-195529700D01*
X269787914Y-195029700D02*
X268502200Y-196958271D01*
X271073629Y-196601128D02*
X270216486Y-196601128D01*
X270645057Y-196601128D02*
X270645057Y-195101128D01*
X270645057Y-195101128D02*
X270502200Y-195315414D01*
X270502200Y-195315414D02*
X270359343Y-195458271D01*
X270359343Y-195458271D02*
X270216486Y-195529700D01*
D10*
D11*
X177002200Y-187507200D02*
X285002200Y-187507200D01*
D10*
D13*
X178430771Y-188232438D02*
X179573628Y-188232438D01*
X178752200Y-190232438D02*
X179002200Y-188232438D01*
X179978390Y-190232438D02*
X180145057Y-188899104D01*
X180228390Y-188232438D02*
X180121247Y-188327676D01*
X180121247Y-188327676D02*
X180204581Y-188422914D01*
X180204581Y-188422914D02*
X180311724Y-188327676D01*
X180311724Y-188327676D02*
X180228390Y-188232438D01*
X180228390Y-188232438D02*
X180204581Y-188422914D01*
X180799819Y-188899104D02*
X181561723Y-188899104D01*
X181168866Y-188232438D02*
X180954581Y-189946723D01*
X180954581Y-189946723D02*
X181026009Y-190137200D01*
X181026009Y-190137200D02*
X181204581Y-190232438D01*
X181204581Y-190232438D02*
X181395057Y-190232438D01*
X182335533Y-190232438D02*
X182156961Y-190137200D01*
X182156961Y-190137200D02*
X182085533Y-189946723D01*
X182085533Y-189946723D02*
X182299818Y-188232438D01*
X183859342Y-190137200D02*
X183656961Y-190232438D01*
X183656961Y-190232438D02*
X183276008Y-190232438D01*
X183276008Y-190232438D02*
X183097437Y-190137200D01*
X183097437Y-190137200D02*
X183026008Y-189946723D01*
X183026008Y-189946723D02*
X183121247Y-189184819D01*
X183121247Y-189184819D02*
X183240294Y-188994342D01*
X183240294Y-188994342D02*
X183442675Y-188899104D01*
X183442675Y-188899104D02*
X183823627Y-188899104D01*
X183823627Y-188899104D02*
X184002199Y-188994342D01*
X184002199Y-188994342D02*
X184073627Y-189184819D01*
X184073627Y-189184819D02*
X184049818Y-189375295D01*
X184049818Y-189375295D02*
X183073627Y-189565771D01*
X184811723Y-190041961D02*
X184895056Y-190137200D01*
X184895056Y-190137200D02*
X184787913Y-190232438D01*
X184787913Y-190232438D02*
X184704580Y-190137200D01*
X184704580Y-190137200D02*
X184811723Y-190041961D01*
X184811723Y-190041961D02*
X184787913Y-190232438D01*
X184942675Y-188994342D02*
X185026008Y-189089580D01*
X185026008Y-189089580D02*
X184918866Y-189184819D01*
X184918866Y-189184819D02*
X184835532Y-189089580D01*
X184835532Y-189089580D02*
X184942675Y-188994342D01*
X184942675Y-188994342D02*
X184918866Y-189184819D01*
X187252199Y-190232438D02*
X187502199Y-188232438D01*
X187502199Y-188232438D02*
X187990294Y-189661009D01*
X187990294Y-189661009D02*
X188835533Y-188232438D01*
X188835533Y-188232438D02*
X188585533Y-190232438D01*
X190299819Y-190137200D02*
X190097438Y-190232438D01*
X190097438Y-190232438D02*
X189716485Y-190232438D01*
X189716485Y-190232438D02*
X189537914Y-190137200D01*
X189537914Y-190137200D02*
X189466485Y-189946723D01*
X189466485Y-189946723D02*
X189561724Y-189184819D01*
X189561724Y-189184819D02*
X189680771Y-188994342D01*
X189680771Y-188994342D02*
X189883152Y-188899104D01*
X189883152Y-188899104D02*
X190264104Y-188899104D01*
X190264104Y-188899104D02*
X190442676Y-188994342D01*
X190442676Y-188994342D02*
X190514104Y-189184819D01*
X190514104Y-189184819D02*
X190490295Y-189375295D01*
X190490295Y-189375295D02*
X189514104Y-189565771D01*
X191109343Y-188899104D02*
X191871247Y-188899104D01*
X191478390Y-188232438D02*
X191264105Y-189946723D01*
X191264105Y-189946723D02*
X191335533Y-190137200D01*
X191335533Y-190137200D02*
X191514105Y-190232438D01*
X191514105Y-190232438D02*
X191704581Y-190232438D01*
X192359342Y-190232438D02*
X192526009Y-188899104D01*
X192478390Y-189280057D02*
X192597437Y-189089580D01*
X192597437Y-189089580D02*
X192704580Y-188994342D01*
X192704580Y-188994342D02*
X192906961Y-188899104D01*
X192906961Y-188899104D02*
X193097437Y-188899104D01*
X193871247Y-190232438D02*
X193692675Y-190137200D01*
X193692675Y-190137200D02*
X193609342Y-190041961D01*
X193609342Y-190041961D02*
X193537913Y-189851485D01*
X193537913Y-189851485D02*
X193609342Y-189280057D01*
X193609342Y-189280057D02*
X193728389Y-189089580D01*
X193728389Y-189089580D02*
X193835532Y-188994342D01*
X193835532Y-188994342D02*
X194037913Y-188899104D01*
X194037913Y-188899104D02*
X194323627Y-188899104D01*
X194323627Y-188899104D02*
X194502199Y-188994342D01*
X194502199Y-188994342D02*
X194585532Y-189089580D01*
X194585532Y-189089580D02*
X194656961Y-189280057D01*
X194656961Y-189280057D02*
X194585532Y-189851485D01*
X194585532Y-189851485D02*
X194466485Y-190041961D01*
X194466485Y-190041961D02*
X194359342Y-190137200D01*
X194359342Y-190137200D02*
X194156961Y-190232438D01*
X194156961Y-190232438D02*
X193871247Y-190232438D01*
X196252199Y-190137200D02*
X196049818Y-190232438D01*
X196049818Y-190232438D02*
X195668866Y-190232438D01*
X195668866Y-190232438D02*
X195490294Y-190137200D01*
X195490294Y-190137200D02*
X195406961Y-190041961D01*
X195406961Y-190041961D02*
X195335532Y-189851485D01*
X195335532Y-189851485D02*
X195406961Y-189280057D01*
X195406961Y-189280057D02*
X195526008Y-189089580D01*
X195526008Y-189089580D02*
X195633151Y-188994342D01*
X195633151Y-188994342D02*
X195835532Y-188899104D01*
X195835532Y-188899104D02*
X196216485Y-188899104D01*
X196216485Y-188899104D02*
X196395056Y-188994342D01*
X197085532Y-190232438D02*
X197335532Y-188232438D01*
X197371247Y-189470533D02*
X197847437Y-190232438D01*
X198014104Y-188899104D02*
X197156961Y-189661009D01*
X199466485Y-190137200D02*
X199264104Y-190232438D01*
X199264104Y-190232438D02*
X198883151Y-190232438D01*
X198883151Y-190232438D02*
X198704580Y-190137200D01*
X198704580Y-190137200D02*
X198633151Y-189946723D01*
X198633151Y-189946723D02*
X198728390Y-189184819D01*
X198728390Y-189184819D02*
X198847437Y-188994342D01*
X198847437Y-188994342D02*
X199049818Y-188899104D01*
X199049818Y-188899104D02*
X199430770Y-188899104D01*
X199430770Y-188899104D02*
X199609342Y-188994342D01*
X199609342Y-188994342D02*
X199680770Y-189184819D01*
X199680770Y-189184819D02*
X199656961Y-189375295D01*
X199656961Y-189375295D02*
X198680770Y-189565771D01*
X200276009Y-188899104D02*
X201037913Y-188899104D01*
X200645056Y-188232438D02*
X200430771Y-189946723D01*
X200430771Y-189946723D02*
X200502199Y-190137200D01*
X200502199Y-190137200D02*
X200680771Y-190232438D01*
X200680771Y-190232438D02*
X200871247Y-190232438D01*
X201526008Y-190232438D02*
X201692675Y-188899104D01*
X201645056Y-189280057D02*
X201764103Y-189089580D01*
X201764103Y-189089580D02*
X201871246Y-188994342D01*
X201871246Y-188994342D02*
X202073627Y-188899104D01*
X202073627Y-188899104D02*
X202264103Y-188899104D01*
X202728389Y-188899104D02*
X203037913Y-190232438D01*
X203680770Y-188899104D02*
X203037913Y-190232438D01*
X203037913Y-190232438D02*
X202787913Y-190708628D01*
X202787913Y-190708628D02*
X202680770Y-190803866D01*
X202680770Y-190803866D02*
X202478389Y-190899104D01*
X205704579Y-190232438D02*
X205954579Y-188232438D01*
X205954579Y-188232438D02*
X206716484Y-188232438D01*
X206716484Y-188232438D02*
X206895055Y-188327676D01*
X206895055Y-188327676D02*
X206978389Y-188422914D01*
X206978389Y-188422914D02*
X207049817Y-188613390D01*
X207049817Y-188613390D02*
X207014103Y-188899104D01*
X207014103Y-188899104D02*
X206895055Y-189089580D01*
X206895055Y-189089580D02*
X206787913Y-189184819D01*
X206787913Y-189184819D02*
X206585532Y-189280057D01*
X206585532Y-189280057D02*
X205823627Y-189280057D01*
X208859341Y-190041961D02*
X208752198Y-190137200D01*
X208752198Y-190137200D02*
X208454579Y-190232438D01*
X208454579Y-190232438D02*
X208264103Y-190232438D01*
X208264103Y-190232438D02*
X207990293Y-190137200D01*
X207990293Y-190137200D02*
X207823627Y-189946723D01*
X207823627Y-189946723D02*
X207752198Y-189756247D01*
X207752198Y-189756247D02*
X207704579Y-189375295D01*
X207704579Y-189375295D02*
X207740293Y-189089580D01*
X207740293Y-189089580D02*
X207883150Y-188708628D01*
X207883150Y-188708628D02*
X208002198Y-188518152D01*
X208002198Y-188518152D02*
X208216484Y-188327676D01*
X208216484Y-188327676D02*
X208514103Y-188232438D01*
X208514103Y-188232438D02*
X208704579Y-188232438D01*
X208704579Y-188232438D02*
X208978389Y-188327676D01*
X208978389Y-188327676D02*
X209061722Y-188422914D01*
X210478388Y-189184819D02*
X210752198Y-189280057D01*
X210752198Y-189280057D02*
X210835531Y-189375295D01*
X210835531Y-189375295D02*
X210906960Y-189565771D01*
X210906960Y-189565771D02*
X210871245Y-189851485D01*
X210871245Y-189851485D02*
X210752198Y-190041961D01*
X210752198Y-190041961D02*
X210645055Y-190137200D01*
X210645055Y-190137200D02*
X210442674Y-190232438D01*
X210442674Y-190232438D02*
X209680769Y-190232438D01*
X209680769Y-190232438D02*
X209930769Y-188232438D01*
X209930769Y-188232438D02*
X210597436Y-188232438D01*
X210597436Y-188232438D02*
X210776007Y-188327676D01*
X210776007Y-188327676D02*
X210859341Y-188422914D01*
X210859341Y-188422914D02*
X210930769Y-188613390D01*
X210930769Y-188613390D02*
X210906960Y-188803866D01*
X210906960Y-188803866D02*
X210787912Y-188994342D01*
X210787912Y-188994342D02*
X210680769Y-189089580D01*
X210680769Y-189089580D02*
X210478388Y-189184819D01*
X210478388Y-189184819D02*
X209811722Y-189184819D01*
D10*
D11*
X178859342Y-185615414D02*
X178359342Y-185615414D01*
X178359342Y-186401128D02*
X178359342Y-184901128D01*
X178359342Y-184901128D02*
X179073628Y-184901128D01*
X179645056Y-186401128D02*
X179645056Y-185401128D01*
X179645056Y-184901128D02*
X179573628Y-184972557D01*
X179573628Y-184972557D02*
X179645056Y-185043985D01*
X179645056Y-185043985D02*
X179716485Y-184972557D01*
X179716485Y-184972557D02*
X179645056Y-184901128D01*
X179645056Y-184901128D02*
X179645056Y-185043985D01*
X180573628Y-186401128D02*
X180430771Y-186329700D01*
X180430771Y-186329700D02*
X180359342Y-186186842D01*
X180359342Y-186186842D02*
X180359342Y-184901128D01*
X181716485Y-186329700D02*
X181573628Y-186401128D01*
X181573628Y-186401128D02*
X181287914Y-186401128D01*
X181287914Y-186401128D02*
X181145056Y-186329700D01*
X181145056Y-186329700D02*
X181073628Y-186186842D01*
X181073628Y-186186842D02*
X181073628Y-185615414D01*
X181073628Y-185615414D02*
X181145056Y-185472557D01*
X181145056Y-185472557D02*
X181287914Y-185401128D01*
X181287914Y-185401128D02*
X181573628Y-185401128D01*
X181573628Y-185401128D02*
X181716485Y-185472557D01*
X181716485Y-185472557D02*
X181787914Y-185615414D01*
X181787914Y-185615414D02*
X181787914Y-185758271D01*
X181787914Y-185758271D02*
X181073628Y-185901128D01*
X182430770Y-186258271D02*
X182502199Y-186329700D01*
X182502199Y-186329700D02*
X182430770Y-186401128D01*
X182430770Y-186401128D02*
X182359342Y-186329700D01*
X182359342Y-186329700D02*
X182430770Y-186258271D01*
X182430770Y-186258271D02*
X182430770Y-186401128D01*
X182430770Y-185472557D02*
X182502199Y-185543985D01*
X182502199Y-185543985D02*
X182430770Y-185615414D01*
X182430770Y-185615414D02*
X182359342Y-185543985D01*
X182359342Y-185543985D02*
X182430770Y-185472557D01*
X182430770Y-185472557D02*
X182430770Y-185615414D01*
X184287913Y-186401128D02*
X184287913Y-185401128D01*
X184287913Y-185686842D02*
X184359342Y-185543985D01*
X184359342Y-185543985D02*
X184430771Y-185472557D01*
X184430771Y-185472557D02*
X184573628Y-185401128D01*
X184573628Y-185401128D02*
X184716485Y-185401128D01*
X185216484Y-186401128D02*
X185216484Y-185401128D01*
X185216484Y-185686842D02*
X185287913Y-185543985D01*
X185287913Y-185543985D02*
X185359342Y-185472557D01*
X185359342Y-185472557D02*
X185502199Y-185401128D01*
X185502199Y-185401128D02*
X185645056Y-185401128D01*
X186787913Y-186329700D02*
X186645055Y-186401128D01*
X186645055Y-186401128D02*
X186359341Y-186401128D01*
X186359341Y-186401128D02*
X186216484Y-186329700D01*
X186216484Y-186329700D02*
X186145055Y-186258271D01*
X186145055Y-186258271D02*
X186073627Y-186115414D01*
X186073627Y-186115414D02*
X186073627Y-185686842D01*
X186073627Y-185686842D02*
X186145055Y-185543985D01*
X186145055Y-185543985D02*
X186216484Y-185472557D01*
X186216484Y-185472557D02*
X186359341Y-185401128D01*
X186359341Y-185401128D02*
X186645055Y-185401128D01*
X186645055Y-185401128D02*
X186787913Y-185472557D01*
X187073627Y-186543985D02*
X188216484Y-186543985D01*
X188573626Y-185401128D02*
X188573626Y-186901128D01*
X188573626Y-185472557D02*
X188716484Y-185401128D01*
X188716484Y-185401128D02*
X189002198Y-185401128D01*
X189002198Y-185401128D02*
X189145055Y-185472557D01*
X189145055Y-185472557D02*
X189216484Y-185543985D01*
X189216484Y-185543985D02*
X189287912Y-185686842D01*
X189287912Y-185686842D02*
X189287912Y-186115414D01*
X189287912Y-186115414D02*
X189216484Y-186258271D01*
X189216484Y-186258271D02*
X189145055Y-186329700D01*
X189145055Y-186329700D02*
X189002198Y-186401128D01*
X189002198Y-186401128D02*
X188716484Y-186401128D01*
X188716484Y-186401128D02*
X188573626Y-186329700D01*
X190573627Y-186329700D02*
X190430769Y-186401128D01*
X190430769Y-186401128D02*
X190145055Y-186401128D01*
X190145055Y-186401128D02*
X190002198Y-186329700D01*
X190002198Y-186329700D02*
X189930769Y-186258271D01*
X189930769Y-186258271D02*
X189859341Y-186115414D01*
X189859341Y-186115414D02*
X189859341Y-185686842D01*
X189859341Y-185686842D02*
X189930769Y-185543985D01*
X189930769Y-185543985D02*
X190002198Y-185472557D01*
X190002198Y-185472557D02*
X190145055Y-185401128D01*
X190145055Y-185401128D02*
X190430769Y-185401128D01*
X190430769Y-185401128D02*
X190573627Y-185472557D01*
X191216483Y-186401128D02*
X191216483Y-184901128D01*
X191216483Y-185472557D02*
X191359341Y-185401128D01*
X191359341Y-185401128D02*
X191645055Y-185401128D01*
X191645055Y-185401128D02*
X191787912Y-185472557D01*
X191787912Y-185472557D02*
X191859341Y-185543985D01*
X191859341Y-185543985D02*
X191930769Y-185686842D01*
X191930769Y-185686842D02*
X191930769Y-186115414D01*
X191930769Y-186115414D02*
X191859341Y-186258271D01*
X191859341Y-186258271D02*
X191787912Y-186329700D01*
X191787912Y-186329700D02*
X191645055Y-186401128D01*
X191645055Y-186401128D02*
X191359341Y-186401128D01*
X191359341Y-186401128D02*
X191216483Y-186329700D01*
X192502198Y-185043985D02*
X192573626Y-184972557D01*
X192573626Y-184972557D02*
X192716484Y-184901128D01*
X192716484Y-184901128D02*
X193073626Y-184901128D01*
X193073626Y-184901128D02*
X193216484Y-184972557D01*
X193216484Y-184972557D02*
X193287912Y-185043985D01*
X193287912Y-185043985D02*
X193359341Y-185186842D01*
X193359341Y-185186842D02*
X193359341Y-185329700D01*
X193359341Y-185329700D02*
X193287912Y-185543985D01*
X193287912Y-185543985D02*
X192430769Y-186401128D01*
X192430769Y-186401128D02*
X193359341Y-186401128D01*
X194002197Y-186258271D02*
X194073626Y-186329700D01*
X194073626Y-186329700D02*
X194002197Y-186401128D01*
X194002197Y-186401128D02*
X193930769Y-186329700D01*
X193930769Y-186329700D02*
X194002197Y-186258271D01*
X194002197Y-186258271D02*
X194002197Y-186401128D01*
X194716483Y-186401128D02*
X194716483Y-184901128D01*
X194859341Y-185829700D02*
X195287912Y-186401128D01*
X195287912Y-185401128D02*
X194716483Y-185972557D01*
X195930769Y-186401128D02*
X195930769Y-185401128D01*
X195930769Y-184901128D02*
X195859341Y-184972557D01*
X195859341Y-184972557D02*
X195930769Y-185043985D01*
X195930769Y-185043985D02*
X196002198Y-184972557D01*
X196002198Y-184972557D02*
X195930769Y-184901128D01*
X195930769Y-184901128D02*
X195930769Y-185043985D01*
X197287913Y-186329700D02*
X197145055Y-186401128D01*
X197145055Y-186401128D02*
X196859341Y-186401128D01*
X196859341Y-186401128D02*
X196716484Y-186329700D01*
X196716484Y-186329700D02*
X196645055Y-186258271D01*
X196645055Y-186258271D02*
X196573627Y-186115414D01*
X196573627Y-186115414D02*
X196573627Y-185686842D01*
X196573627Y-185686842D02*
X196645055Y-185543985D01*
X196645055Y-185543985D02*
X196716484Y-185472557D01*
X196716484Y-185472557D02*
X196859341Y-185401128D01*
X196859341Y-185401128D02*
X197145055Y-185401128D01*
X197145055Y-185401128D02*
X197287913Y-185472557D01*
X198573627Y-186401128D02*
X198573627Y-185615414D01*
X198573627Y-185615414D02*
X198502198Y-185472557D01*
X198502198Y-185472557D02*
X198359341Y-185401128D01*
X198359341Y-185401128D02*
X198073627Y-185401128D01*
X198073627Y-185401128D02*
X197930769Y-185472557D01*
X198573627Y-186329700D02*
X198430769Y-186401128D01*
X198430769Y-186401128D02*
X198073627Y-186401128D01*
X198073627Y-186401128D02*
X197930769Y-186329700D01*
X197930769Y-186329700D02*
X197859341Y-186186842D01*
X197859341Y-186186842D02*
X197859341Y-186043985D01*
X197859341Y-186043985D02*
X197930769Y-185901128D01*
X197930769Y-185901128D02*
X198073627Y-185829700D01*
X198073627Y-185829700D02*
X198430769Y-185829700D01*
X198430769Y-185829700D02*
X198573627Y-185758271D01*
X199930770Y-186401128D02*
X199930770Y-184901128D01*
X199930770Y-186329700D02*
X199787912Y-186401128D01*
X199787912Y-186401128D02*
X199502198Y-186401128D01*
X199502198Y-186401128D02*
X199359341Y-186329700D01*
X199359341Y-186329700D02*
X199287912Y-186258271D01*
X199287912Y-186258271D02*
X199216484Y-186115414D01*
X199216484Y-186115414D02*
X199216484Y-185686842D01*
X199216484Y-185686842D02*
X199287912Y-185543985D01*
X199287912Y-185543985D02*
X199359341Y-185472557D01*
X199359341Y-185472557D02*
X199502198Y-185401128D01*
X199502198Y-185401128D02*
X199787912Y-185401128D01*
X199787912Y-185401128D02*
X199930770Y-185472557D01*
X200287913Y-186543985D02*
X201430770Y-186543985D01*
X201787912Y-185401128D02*
X201787912Y-186901128D01*
X201787912Y-185472557D02*
X201930770Y-185401128D01*
X201930770Y-185401128D02*
X202216484Y-185401128D01*
X202216484Y-185401128D02*
X202359341Y-185472557D01*
X202359341Y-185472557D02*
X202430770Y-185543985D01*
X202430770Y-185543985D02*
X202502198Y-185686842D01*
X202502198Y-185686842D02*
X202502198Y-186115414D01*
X202502198Y-186115414D02*
X202430770Y-186258271D01*
X202430770Y-186258271D02*
X202359341Y-186329700D01*
X202359341Y-186329700D02*
X202216484Y-186401128D01*
X202216484Y-186401128D02*
X201930770Y-186401128D01*
X201930770Y-186401128D02*
X201787912Y-186329700D01*
X203787913Y-186329700D02*
X203645055Y-186401128D01*
X203645055Y-186401128D02*
X203359341Y-186401128D01*
X203359341Y-186401128D02*
X203216484Y-186329700D01*
X203216484Y-186329700D02*
X203145055Y-186258271D01*
X203145055Y-186258271D02*
X203073627Y-186115414D01*
X203073627Y-186115414D02*
X203073627Y-185686842D01*
X203073627Y-185686842D02*
X203145055Y-185543985D01*
X203145055Y-185543985D02*
X203216484Y-185472557D01*
X203216484Y-185472557D02*
X203359341Y-185401128D01*
X203359341Y-185401128D02*
X203645055Y-185401128D01*
X203645055Y-185401128D02*
X203787913Y-185472557D01*
X204430769Y-186401128D02*
X204430769Y-184901128D01*
X204430769Y-185472557D02*
X204573627Y-185401128D01*
X204573627Y-185401128D02*
X204859341Y-185401128D01*
X204859341Y-185401128D02*
X205002198Y-185472557D01*
X205002198Y-185472557D02*
X205073627Y-185543985D01*
X205073627Y-185543985D02*
X205145055Y-185686842D01*
X205145055Y-185686842D02*
X205145055Y-186115414D01*
X205145055Y-186115414D02*
X205073627Y-186258271D01*
X205073627Y-186258271D02*
X205002198Y-186329700D01*
X205002198Y-186329700D02*
X204859341Y-186401128D01*
X204859341Y-186401128D02*
X204573627Y-186401128D01*
X204573627Y-186401128D02*
X204430769Y-186329700D01*
D10*
D11*
X177002200Y-181507200D02*
X285002200Y-181507200D01*
D10*
D11*
X178287914Y-183629700D02*
X178502200Y-183701128D01*
X178502200Y-183701128D02*
X178859342Y-183701128D01*
X178859342Y-183701128D02*
X179002200Y-183629700D01*
X179002200Y-183629700D02*
X179073628Y-183558271D01*
X179073628Y-183558271D02*
X179145057Y-183415414D01*
X179145057Y-183415414D02*
X179145057Y-183272557D01*
X179145057Y-183272557D02*
X179073628Y-183129700D01*
X179073628Y-183129700D02*
X179002200Y-183058271D01*
X179002200Y-183058271D02*
X178859342Y-182986842D01*
X178859342Y-182986842D02*
X178573628Y-182915414D01*
X178573628Y-182915414D02*
X178430771Y-182843985D01*
X178430771Y-182843985D02*
X178359342Y-182772557D01*
X178359342Y-182772557D02*
X178287914Y-182629700D01*
X178287914Y-182629700D02*
X178287914Y-182486842D01*
X178287914Y-182486842D02*
X178359342Y-182343985D01*
X178359342Y-182343985D02*
X178430771Y-182272557D01*
X178430771Y-182272557D02*
X178573628Y-182201128D01*
X178573628Y-182201128D02*
X178930771Y-182201128D01*
X178930771Y-182201128D02*
X179145057Y-182272557D01*
X179787913Y-183701128D02*
X179787913Y-182201128D01*
X180430771Y-183701128D02*
X180430771Y-182915414D01*
X180430771Y-182915414D02*
X180359342Y-182772557D01*
X180359342Y-182772557D02*
X180216485Y-182701128D01*
X180216485Y-182701128D02*
X180002199Y-182701128D01*
X180002199Y-182701128D02*
X179859342Y-182772557D01*
X179859342Y-182772557D02*
X179787913Y-182843985D01*
X181716485Y-183629700D02*
X181573628Y-183701128D01*
X181573628Y-183701128D02*
X181287914Y-183701128D01*
X181287914Y-183701128D02*
X181145056Y-183629700D01*
X181145056Y-183629700D02*
X181073628Y-183486842D01*
X181073628Y-183486842D02*
X181073628Y-182915414D01*
X181073628Y-182915414D02*
X181145056Y-182772557D01*
X181145056Y-182772557D02*
X181287914Y-182701128D01*
X181287914Y-182701128D02*
X181573628Y-182701128D01*
X181573628Y-182701128D02*
X181716485Y-182772557D01*
X181716485Y-182772557D02*
X181787914Y-182915414D01*
X181787914Y-182915414D02*
X181787914Y-183058271D01*
X181787914Y-183058271D02*
X181073628Y-183201128D01*
X183002199Y-183629700D02*
X182859342Y-183701128D01*
X182859342Y-183701128D02*
X182573628Y-183701128D01*
X182573628Y-183701128D02*
X182430770Y-183629700D01*
X182430770Y-183629700D02*
X182359342Y-183486842D01*
X182359342Y-183486842D02*
X182359342Y-182915414D01*
X182359342Y-182915414D02*
X182430770Y-182772557D01*
X182430770Y-182772557D02*
X182573628Y-182701128D01*
X182573628Y-182701128D02*
X182859342Y-182701128D01*
X182859342Y-182701128D02*
X183002199Y-182772557D01*
X183002199Y-182772557D02*
X183073628Y-182915414D01*
X183073628Y-182915414D02*
X183073628Y-183058271D01*
X183073628Y-183058271D02*
X182359342Y-183201128D01*
X183502199Y-182701128D02*
X184073627Y-182701128D01*
X183716484Y-182201128D02*
X183716484Y-183486842D01*
X183716484Y-183486842D02*
X183787913Y-183629700D01*
X183787913Y-183629700D02*
X183930770Y-183701128D01*
X183930770Y-183701128D02*
X184073627Y-183701128D01*
X184573627Y-183558271D02*
X184645056Y-183629700D01*
X184645056Y-183629700D02*
X184573627Y-183701128D01*
X184573627Y-183701128D02*
X184502199Y-183629700D01*
X184502199Y-183629700D02*
X184573627Y-183558271D01*
X184573627Y-183558271D02*
X184573627Y-183701128D01*
X184573627Y-182772557D02*
X184645056Y-182843985D01*
X184645056Y-182843985D02*
X184573627Y-182915414D01*
X184573627Y-182915414D02*
X184502199Y-182843985D01*
X184502199Y-182843985D02*
X184573627Y-182772557D01*
X184573627Y-182772557D02*
X184573627Y-182915414D01*
D10*
D12*
X178145057Y-179201128D02*
X179002200Y-179201128D01*
X178573628Y-180701128D02*
X178573628Y-179201128D01*
X179716485Y-180701128D02*
X179573628Y-180629700D01*
X179573628Y-180629700D02*
X179502199Y-180558271D01*
X179502199Y-180558271D02*
X179430771Y-180415414D01*
X179430771Y-180415414D02*
X179430771Y-179986842D01*
X179430771Y-179986842D02*
X179502199Y-179843985D01*
X179502199Y-179843985D02*
X179573628Y-179772557D01*
X179573628Y-179772557D02*
X179716485Y-179701128D01*
X179716485Y-179701128D02*
X179930771Y-179701128D01*
X179930771Y-179701128D02*
X180073628Y-179772557D01*
X180073628Y-179772557D02*
X180145057Y-179843985D01*
X180145057Y-179843985D02*
X180216485Y-179986842D01*
X180216485Y-179986842D02*
X180216485Y-180415414D01*
X180216485Y-180415414D02*
X180145057Y-180558271D01*
X180145057Y-180558271D02*
X180073628Y-180629700D01*
X180073628Y-180629700D02*
X179930771Y-180701128D01*
X179930771Y-180701128D02*
X179716485Y-180701128D01*
X180859342Y-180701128D02*
X180859342Y-179701128D01*
X180859342Y-179986842D02*
X180930771Y-179843985D01*
X180930771Y-179843985D02*
X181002200Y-179772557D01*
X181002200Y-179772557D02*
X181145057Y-179701128D01*
X181145057Y-179701128D02*
X181287914Y-179701128D01*
X182002199Y-180701128D02*
X181859342Y-180629700D01*
X181859342Y-180629700D02*
X181787913Y-180558271D01*
X181787913Y-180558271D02*
X181716485Y-180415414D01*
X181716485Y-180415414D02*
X181716485Y-179986842D01*
X181716485Y-179986842D02*
X181787913Y-179843985D01*
X181787913Y-179843985D02*
X181859342Y-179772557D01*
X181859342Y-179772557D02*
X182002199Y-179701128D01*
X182002199Y-179701128D02*
X182216485Y-179701128D01*
X182216485Y-179701128D02*
X182359342Y-179772557D01*
X182359342Y-179772557D02*
X182430771Y-179843985D01*
X182430771Y-179843985D02*
X182502199Y-179986842D01*
X182502199Y-179986842D02*
X182502199Y-180415414D01*
X182502199Y-180415414D02*
X182430771Y-180558271D01*
X182430771Y-180558271D02*
X182359342Y-180629700D01*
X182359342Y-180629700D02*
X182216485Y-180701128D01*
X182216485Y-180701128D02*
X182002199Y-180701128D01*
X183145056Y-179701128D02*
X183145056Y-180701128D01*
X183145056Y-179843985D02*
X183216485Y-179772557D01*
X183216485Y-179772557D02*
X183359342Y-179701128D01*
X183359342Y-179701128D02*
X183573628Y-179701128D01*
X183573628Y-179701128D02*
X183716485Y-179772557D01*
X183716485Y-179772557D02*
X183787914Y-179915414D01*
X183787914Y-179915414D02*
X183787914Y-180701128D01*
X184287914Y-179701128D02*
X184859342Y-179701128D01*
X184502199Y-179201128D02*
X184502199Y-180486842D01*
X184502199Y-180486842D02*
X184573628Y-180629700D01*
X184573628Y-180629700D02*
X184716485Y-180701128D01*
X184716485Y-180701128D02*
X184859342Y-180701128D01*
X185573628Y-180701128D02*
X185430771Y-180629700D01*
X185430771Y-180629700D02*
X185359342Y-180558271D01*
X185359342Y-180558271D02*
X185287914Y-180415414D01*
X185287914Y-180415414D02*
X185287914Y-179986842D01*
X185287914Y-179986842D02*
X185359342Y-179843985D01*
X185359342Y-179843985D02*
X185430771Y-179772557D01*
X185430771Y-179772557D02*
X185573628Y-179701128D01*
X185573628Y-179701128D02*
X185787914Y-179701128D01*
X185787914Y-179701128D02*
X185930771Y-179772557D01*
X185930771Y-179772557D02*
X186002200Y-179843985D01*
X186002200Y-179843985D02*
X186073628Y-179986842D01*
X186073628Y-179986842D02*
X186073628Y-180415414D01*
X186073628Y-180415414D02*
X186002200Y-180558271D01*
X186002200Y-180558271D02*
X185930771Y-180629700D01*
X185930771Y-180629700D02*
X185787914Y-180701128D01*
X185787914Y-180701128D02*
X185573628Y-180701128D01*
X187859342Y-180701128D02*
X187859342Y-179201128D01*
X187859342Y-179201128D02*
X188359342Y-180272557D01*
X188359342Y-180272557D02*
X188859342Y-179201128D01*
X188859342Y-179201128D02*
X188859342Y-180701128D01*
X190145057Y-180629700D02*
X190002200Y-180701128D01*
X190002200Y-180701128D02*
X189716486Y-180701128D01*
X189716486Y-180701128D02*
X189573628Y-180629700D01*
X189573628Y-180629700D02*
X189502200Y-180486842D01*
X189502200Y-180486842D02*
X189502200Y-179915414D01*
X189502200Y-179915414D02*
X189573628Y-179772557D01*
X189573628Y-179772557D02*
X189716486Y-179701128D01*
X189716486Y-179701128D02*
X190002200Y-179701128D01*
X190002200Y-179701128D02*
X190145057Y-179772557D01*
X190145057Y-179772557D02*
X190216486Y-179915414D01*
X190216486Y-179915414D02*
X190216486Y-180058271D01*
X190216486Y-180058271D02*
X189502200Y-180201128D01*
X190645057Y-179701128D02*
X191216485Y-179701128D01*
X190859342Y-179201128D02*
X190859342Y-180486842D01*
X190859342Y-180486842D02*
X190930771Y-180629700D01*
X190930771Y-180629700D02*
X191073628Y-180701128D01*
X191073628Y-180701128D02*
X191216485Y-180701128D01*
X191716485Y-180701128D02*
X191716485Y-179701128D01*
X191716485Y-179986842D02*
X191787914Y-179843985D01*
X191787914Y-179843985D02*
X191859343Y-179772557D01*
X191859343Y-179772557D02*
X192002200Y-179701128D01*
X192002200Y-179701128D02*
X192145057Y-179701128D01*
X192859342Y-180701128D02*
X192716485Y-180629700D01*
X192716485Y-180629700D02*
X192645056Y-180558271D01*
X192645056Y-180558271D02*
X192573628Y-180415414D01*
X192573628Y-180415414D02*
X192573628Y-179986842D01*
X192573628Y-179986842D02*
X192645056Y-179843985D01*
X192645056Y-179843985D02*
X192716485Y-179772557D01*
X192716485Y-179772557D02*
X192859342Y-179701128D01*
X192859342Y-179701128D02*
X193073628Y-179701128D01*
X193073628Y-179701128D02*
X193216485Y-179772557D01*
X193216485Y-179772557D02*
X193287914Y-179843985D01*
X193287914Y-179843985D02*
X193359342Y-179986842D01*
X193359342Y-179986842D02*
X193359342Y-180415414D01*
X193359342Y-180415414D02*
X193287914Y-180558271D01*
X193287914Y-180558271D02*
X193216485Y-180629700D01*
X193216485Y-180629700D02*
X193073628Y-180701128D01*
X193073628Y-180701128D02*
X192859342Y-180701128D01*
X194002199Y-179701128D02*
X194002199Y-181201128D01*
X194002199Y-179772557D02*
X194145057Y-179701128D01*
X194145057Y-179701128D02*
X194430771Y-179701128D01*
X194430771Y-179701128D02*
X194573628Y-179772557D01*
X194573628Y-179772557D02*
X194645057Y-179843985D01*
X194645057Y-179843985D02*
X194716485Y-179986842D01*
X194716485Y-179986842D02*
X194716485Y-180415414D01*
X194716485Y-180415414D02*
X194645057Y-180558271D01*
X194645057Y-180558271D02*
X194573628Y-180629700D01*
X194573628Y-180629700D02*
X194430771Y-180701128D01*
X194430771Y-180701128D02*
X194145057Y-180701128D01*
X194145057Y-180701128D02*
X194002199Y-180629700D01*
X195573628Y-180701128D02*
X195430771Y-180629700D01*
X195430771Y-180629700D02*
X195359342Y-180558271D01*
X195359342Y-180558271D02*
X195287914Y-180415414D01*
X195287914Y-180415414D02*
X195287914Y-179986842D01*
X195287914Y-179986842D02*
X195359342Y-179843985D01*
X195359342Y-179843985D02*
X195430771Y-179772557D01*
X195430771Y-179772557D02*
X195573628Y-179701128D01*
X195573628Y-179701128D02*
X195787914Y-179701128D01*
X195787914Y-179701128D02*
X195930771Y-179772557D01*
X195930771Y-179772557D02*
X196002200Y-179843985D01*
X196002200Y-179843985D02*
X196073628Y-179986842D01*
X196073628Y-179986842D02*
X196073628Y-180415414D01*
X196073628Y-180415414D02*
X196002200Y-180558271D01*
X196002200Y-180558271D02*
X195930771Y-180629700D01*
X195930771Y-180629700D02*
X195787914Y-180701128D01*
X195787914Y-180701128D02*
X195573628Y-180701128D01*
X196930771Y-180701128D02*
X196787914Y-180629700D01*
X196787914Y-180629700D02*
X196716485Y-180486842D01*
X196716485Y-180486842D02*
X196716485Y-179201128D01*
X197502199Y-180701128D02*
X197502199Y-179701128D01*
X197502199Y-179201128D02*
X197430771Y-179272557D01*
X197430771Y-179272557D02*
X197502199Y-179343985D01*
X197502199Y-179343985D02*
X197573628Y-179272557D01*
X197573628Y-179272557D02*
X197502199Y-179201128D01*
X197502199Y-179201128D02*
X197502199Y-179343985D01*
X198002200Y-179701128D02*
X198573628Y-179701128D01*
X198216485Y-179201128D02*
X198216485Y-180486842D01*
X198216485Y-180486842D02*
X198287914Y-180629700D01*
X198287914Y-180629700D02*
X198430771Y-180701128D01*
X198430771Y-180701128D02*
X198573628Y-180701128D01*
X199716486Y-180701128D02*
X199716486Y-179915414D01*
X199716486Y-179915414D02*
X199645057Y-179772557D01*
X199645057Y-179772557D02*
X199502200Y-179701128D01*
X199502200Y-179701128D02*
X199216486Y-179701128D01*
X199216486Y-179701128D02*
X199073628Y-179772557D01*
X199716486Y-180629700D02*
X199573628Y-180701128D01*
X199573628Y-180701128D02*
X199216486Y-180701128D01*
X199216486Y-180701128D02*
X199073628Y-180629700D01*
X199073628Y-180629700D02*
X199002200Y-180486842D01*
X199002200Y-180486842D02*
X199002200Y-180343985D01*
X199002200Y-180343985D02*
X199073628Y-180201128D01*
X199073628Y-180201128D02*
X199216486Y-180129700D01*
X199216486Y-180129700D02*
X199573628Y-180129700D01*
X199573628Y-180129700D02*
X199716486Y-180058271D01*
X200430771Y-179701128D02*
X200430771Y-180701128D01*
X200430771Y-179843985D02*
X200502200Y-179772557D01*
X200502200Y-179772557D02*
X200645057Y-179701128D01*
X200645057Y-179701128D02*
X200859343Y-179701128D01*
X200859343Y-179701128D02*
X201002200Y-179772557D01*
X201002200Y-179772557D02*
X201073629Y-179915414D01*
X201073629Y-179915414D02*
X201073629Y-180701128D01*
X202930771Y-179201128D02*
X202930771Y-180415414D01*
X202930771Y-180415414D02*
X203002200Y-180558271D01*
X203002200Y-180558271D02*
X203073629Y-180629700D01*
X203073629Y-180629700D02*
X203216486Y-180701128D01*
X203216486Y-180701128D02*
X203502200Y-180701128D01*
X203502200Y-180701128D02*
X203645057Y-180629700D01*
X203645057Y-180629700D02*
X203716486Y-180558271D01*
X203716486Y-180558271D02*
X203787914Y-180415414D01*
X203787914Y-180415414D02*
X203787914Y-179201128D01*
X204502200Y-179701128D02*
X204502200Y-180701128D01*
X204502200Y-179843985D02*
X204573629Y-179772557D01*
X204573629Y-179772557D02*
X204716486Y-179701128D01*
X204716486Y-179701128D02*
X204930772Y-179701128D01*
X204930772Y-179701128D02*
X205073629Y-179772557D01*
X205073629Y-179772557D02*
X205145058Y-179915414D01*
X205145058Y-179915414D02*
X205145058Y-180701128D01*
X205859343Y-180701128D02*
X205859343Y-179701128D01*
X205859343Y-179201128D02*
X205787915Y-179272557D01*
X205787915Y-179272557D02*
X205859343Y-179343985D01*
X205859343Y-179343985D02*
X205930772Y-179272557D01*
X205930772Y-179272557D02*
X205859343Y-179201128D01*
X205859343Y-179201128D02*
X205859343Y-179343985D01*
X206430772Y-179701128D02*
X206787915Y-180701128D01*
X206787915Y-180701128D02*
X207145058Y-179701128D01*
X208287915Y-180629700D02*
X208145058Y-180701128D01*
X208145058Y-180701128D02*
X207859344Y-180701128D01*
X207859344Y-180701128D02*
X207716486Y-180629700D01*
X207716486Y-180629700D02*
X207645058Y-180486842D01*
X207645058Y-180486842D02*
X207645058Y-179915414D01*
X207645058Y-179915414D02*
X207716486Y-179772557D01*
X207716486Y-179772557D02*
X207859344Y-179701128D01*
X207859344Y-179701128D02*
X208145058Y-179701128D01*
X208145058Y-179701128D02*
X208287915Y-179772557D01*
X208287915Y-179772557D02*
X208359344Y-179915414D01*
X208359344Y-179915414D02*
X208359344Y-180058271D01*
X208359344Y-180058271D02*
X207645058Y-180201128D01*
X209002200Y-180701128D02*
X209002200Y-179701128D01*
X209002200Y-179986842D02*
X209073629Y-179843985D01*
X209073629Y-179843985D02*
X209145058Y-179772557D01*
X209145058Y-179772557D02*
X209287915Y-179701128D01*
X209287915Y-179701128D02*
X209430772Y-179701128D01*
X209859343Y-180629700D02*
X210002200Y-180701128D01*
X210002200Y-180701128D02*
X210287914Y-180701128D01*
X210287914Y-180701128D02*
X210430771Y-180629700D01*
X210430771Y-180629700D02*
X210502200Y-180486842D01*
X210502200Y-180486842D02*
X210502200Y-180415414D01*
X210502200Y-180415414D02*
X210430771Y-180272557D01*
X210430771Y-180272557D02*
X210287914Y-180201128D01*
X210287914Y-180201128D02*
X210073629Y-180201128D01*
X210073629Y-180201128D02*
X209930771Y-180129700D01*
X209930771Y-180129700D02*
X209859343Y-179986842D01*
X209859343Y-179986842D02*
X209859343Y-179915414D01*
X209859343Y-179915414D02*
X209930771Y-179772557D01*
X209930771Y-179772557D02*
X210073629Y-179701128D01*
X210073629Y-179701128D02*
X210287914Y-179701128D01*
X210287914Y-179701128D02*
X210430771Y-179772557D01*
X211145057Y-180701128D02*
X211145057Y-179701128D01*
X211145057Y-179201128D02*
X211073629Y-179272557D01*
X211073629Y-179272557D02*
X211145057Y-179343985D01*
X211145057Y-179343985D02*
X211216486Y-179272557D01*
X211216486Y-179272557D02*
X211145057Y-179201128D01*
X211145057Y-179201128D02*
X211145057Y-179343985D01*
X211645058Y-179701128D02*
X212216486Y-179701128D01*
X211859343Y-179201128D02*
X211859343Y-180486842D01*
X211859343Y-180486842D02*
X211930772Y-180629700D01*
X211930772Y-180629700D02*
X212073629Y-180701128D01*
X212073629Y-180701128D02*
X212216486Y-180701128D01*
X212573629Y-179701128D02*
X212930772Y-180701128D01*
X213287915Y-179701128D02*
X212930772Y-180701128D01*
X212930772Y-180701128D02*
X212787915Y-181058271D01*
X212787915Y-181058271D02*
X212716486Y-181129700D01*
X212716486Y-181129700D02*
X212573629Y-181201128D01*
D10*
D11*
D10*
D11*
D10*
D11*
D10*
D11*
D10*
D11*
X197002200Y-191507200D02*
X197002200Y-194507200D01*
D10*
D11*
X261002200Y-191507200D02*
X261002200Y-198007200D01*
%TO.C,U2*%
X120490818Y-37227037D02*
X120490818Y-38227037D01*
X120014628Y-37227037D02*
X120014628Y-38227037D01*
X120014628Y-38227037D02*
X119443200Y-37227037D01*
X119443200Y-37227037D02*
X119443200Y-38227037D01*
X119014628Y-37512752D02*
X118538438Y-37512752D01*
X119109866Y-37227037D02*
X118776533Y-38227037D01*
X118776533Y-38227037D02*
X118443200Y-37227037D01*
X118157485Y-38131799D02*
X118109866Y-38179418D01*
X118109866Y-38179418D02*
X118014628Y-38227037D01*
X118014628Y-38227037D02*
X117776533Y-38227037D01*
X117776533Y-38227037D02*
X117681295Y-38179418D01*
X117681295Y-38179418D02*
X117633676Y-38131799D01*
X117633676Y-38131799D02*
X117586057Y-38036561D01*
X117586057Y-38036561D02*
X117586057Y-37941323D01*
X117586057Y-37941323D02*
X117633676Y-37798466D01*
X117633676Y-37798466D02*
X118205104Y-37227037D01*
X118205104Y-37227037D02*
X117586057Y-37227037D01*
X116728914Y-38227037D02*
X116919390Y-38227037D01*
X116919390Y-38227037D02*
X117014628Y-38179418D01*
X117014628Y-38179418D02*
X117062247Y-38131799D01*
X117062247Y-38131799D02*
X117157485Y-37988942D01*
X117157485Y-37988942D02*
X117205104Y-37798466D01*
X117205104Y-37798466D02*
X117205104Y-37417514D01*
X117205104Y-37417514D02*
X117157485Y-37322276D01*
X117157485Y-37322276D02*
X117109866Y-37274657D01*
X117109866Y-37274657D02*
X117014628Y-37227037D01*
X117014628Y-37227037D02*
X116824152Y-37227037D01*
X116824152Y-37227037D02*
X116728914Y-37274657D01*
X116728914Y-37274657D02*
X116681295Y-37322276D01*
X116681295Y-37322276D02*
X116633676Y-37417514D01*
X116633676Y-37417514D02*
X116633676Y-37655609D01*
X116633676Y-37655609D02*
X116681295Y-37750847D01*
X116681295Y-37750847D02*
X116728914Y-37798466D01*
X116728914Y-37798466D02*
X116824152Y-37846085D01*
X116824152Y-37846085D02*
X117014628Y-37846085D01*
X117014628Y-37846085D02*
X117109866Y-37798466D01*
X117109866Y-37798466D02*
X117157485Y-37750847D01*
X117157485Y-37750847D02*
X117205104Y-37655609D01*
X116014628Y-38227037D02*
X115919390Y-38227037D01*
X115919390Y-38227037D02*
X115824152Y-38179418D01*
X115824152Y-38179418D02*
X115776533Y-38131799D01*
X115776533Y-38131799D02*
X115728914Y-38036561D01*
X115728914Y-38036561D02*
X115681295Y-37846085D01*
X115681295Y-37846085D02*
X115681295Y-37607990D01*
X115681295Y-37607990D02*
X115728914Y-37417514D01*
X115728914Y-37417514D02*
X115776533Y-37322276D01*
X115776533Y-37322276D02*
X115824152Y-37274657D01*
X115824152Y-37274657D02*
X115919390Y-37227037D01*
X115919390Y-37227037D02*
X116014628Y-37227037D01*
X116014628Y-37227037D02*
X116109866Y-37274657D01*
X116109866Y-37274657D02*
X116157485Y-37322276D01*
X116157485Y-37322276D02*
X116205104Y-37417514D01*
X116205104Y-37417514D02*
X116252723Y-37607990D01*
X116252723Y-37607990D02*
X116252723Y-37846085D01*
X116252723Y-37846085D02*
X116205104Y-38036561D01*
X116205104Y-38036561D02*
X116157485Y-38131799D01*
X116157485Y-38131799D02*
X116109866Y-38179418D01*
X116109866Y-38179418D02*
X116014628Y-38227037D01*
%TO.C,BZ1*%
X172445758Y-58282380D02*
X172493377Y-58139523D01*
X172493377Y-58139523D02*
X172540996Y-58091904D01*
X172540996Y-58091904D02*
X172636234Y-58044285D01*
X172636234Y-58044285D02*
X172779091Y-58044285D01*
X172779091Y-58044285D02*
X172874329Y-58091904D01*
X172874329Y-58091904D02*
X172921949Y-58139523D01*
X172921949Y-58139523D02*
X172969568Y-58234761D01*
X172969568Y-58234761D02*
X172969568Y-58615713D01*
X172969568Y-58615713D02*
X171969568Y-58615713D01*
X171969568Y-58615713D02*
X171969568Y-58282380D01*
X171969568Y-58282380D02*
X172017187Y-58187142D01*
X172017187Y-58187142D02*
X172064806Y-58139523D01*
X172064806Y-58139523D02*
X172160044Y-58091904D01*
X172160044Y-58091904D02*
X172255282Y-58091904D01*
X172255282Y-58091904D02*
X172350520Y-58139523D01*
X172350520Y-58139523D02*
X172398139Y-58187142D01*
X172398139Y-58187142D02*
X172445758Y-58282380D01*
X172445758Y-58282380D02*
X172445758Y-58615713D01*
X172302901Y-57187142D02*
X172969568Y-57187142D01*
X172302901Y-57615713D02*
X172826710Y-57615713D01*
X172826710Y-57615713D02*
X172921949Y-57568094D01*
X172921949Y-57568094D02*
X172969568Y-57472856D01*
X172969568Y-57472856D02*
X172969568Y-57329999D01*
X172969568Y-57329999D02*
X172921949Y-57234761D01*
X172921949Y-57234761D02*
X172874329Y-57187142D01*
X172302901Y-56806189D02*
X172302901Y-56282380D01*
X172302901Y-56282380D02*
X172969568Y-56806189D01*
X172969568Y-56806189D02*
X172969568Y-56282380D01*
X172302901Y-55996665D02*
X172302901Y-55472856D01*
X172302901Y-55472856D02*
X172969568Y-55996665D01*
X172969568Y-55996665D02*
X172969568Y-55472856D01*
X172921949Y-54710951D02*
X172969568Y-54806189D01*
X172969568Y-54806189D02*
X172969568Y-54996665D01*
X172969568Y-54996665D02*
X172921949Y-55091903D01*
X172921949Y-55091903D02*
X172826710Y-55139522D01*
X172826710Y-55139522D02*
X172445758Y-55139522D01*
X172445758Y-55139522D02*
X172350520Y-55091903D01*
X172350520Y-55091903D02*
X172302901Y-54996665D01*
X172302901Y-54996665D02*
X172302901Y-54806189D01*
X172302901Y-54806189D02*
X172350520Y-54710951D01*
X172350520Y-54710951D02*
X172445758Y-54663332D01*
X172445758Y-54663332D02*
X172540996Y-54663332D01*
X172540996Y-54663332D02*
X172636234Y-55139522D01*
X172969568Y-54234760D02*
X172302901Y-54234760D01*
X172493377Y-54234760D02*
X172398139Y-54187141D01*
X172398139Y-54187141D02*
X172350520Y-54139522D01*
X172350520Y-54139522D02*
X172302901Y-54044284D01*
X172302901Y-54044284D02*
X172302901Y-53949046D01*
X172588615Y-53615712D02*
X172588615Y-52853808D01*
X172969568Y-52377617D02*
X171969568Y-52377617D01*
X171969568Y-52377617D02*
X171969568Y-52139522D01*
X171969568Y-52139522D02*
X172017187Y-51996665D01*
X172017187Y-51996665D02*
X172112425Y-51901427D01*
X172112425Y-51901427D02*
X172207663Y-51853808D01*
X172207663Y-51853808D02*
X172398139Y-51806189D01*
X172398139Y-51806189D02*
X172540996Y-51806189D01*
X172540996Y-51806189D02*
X172731472Y-51853808D01*
X172731472Y-51853808D02*
X172826710Y-51901427D01*
X172826710Y-51901427D02*
X172921949Y-51996665D01*
X172921949Y-51996665D02*
X172969568Y-52139522D01*
X172969568Y-52139522D02*
X172969568Y-52377617D01*
X172921949Y-50996665D02*
X172969568Y-51091903D01*
X172969568Y-51091903D02*
X172969568Y-51282379D01*
X172969568Y-51282379D02*
X172921949Y-51377617D01*
X172921949Y-51377617D02*
X172826710Y-51425236D01*
X172826710Y-51425236D02*
X172445758Y-51425236D01*
X172445758Y-51425236D02*
X172350520Y-51377617D01*
X172350520Y-51377617D02*
X172302901Y-51282379D01*
X172302901Y-51282379D02*
X172302901Y-51091903D01*
X172302901Y-51091903D02*
X172350520Y-50996665D01*
X172350520Y-50996665D02*
X172445758Y-50949046D01*
X172445758Y-50949046D02*
X172540996Y-50949046D01*
X172540996Y-50949046D02*
X172636234Y-51425236D01*
X172302901Y-50615712D02*
X172969568Y-50377617D01*
X172969568Y-50377617D02*
X172302901Y-50139522D01*
X172969568Y-49758569D02*
X172302901Y-49758569D01*
X171969568Y-49758569D02*
X172017187Y-49806188D01*
X172017187Y-49806188D02*
X172064806Y-49758569D01*
X172064806Y-49758569D02*
X172017187Y-49710950D01*
X172017187Y-49710950D02*
X171969568Y-49758569D01*
X171969568Y-49758569D02*
X172064806Y-49758569D01*
X172921949Y-48853808D02*
X172969568Y-48949046D01*
X172969568Y-48949046D02*
X172969568Y-49139522D01*
X172969568Y-49139522D02*
X172921949Y-49234760D01*
X172921949Y-49234760D02*
X172874329Y-49282379D01*
X172874329Y-49282379D02*
X172779091Y-49329998D01*
X172779091Y-49329998D02*
X172493377Y-49329998D01*
X172493377Y-49329998D02*
X172398139Y-49282379D01*
X172398139Y-49282379D02*
X172350520Y-49234760D01*
X172350520Y-49234760D02*
X172302901Y-49139522D01*
X172302901Y-49139522D02*
X172302901Y-48949046D01*
X172302901Y-48949046D02*
X172350520Y-48853808D01*
X172921949Y-48044284D02*
X172969568Y-48139522D01*
X172969568Y-48139522D02*
X172969568Y-48329998D01*
X172969568Y-48329998D02*
X172921949Y-48425236D01*
X172921949Y-48425236D02*
X172826710Y-48472855D01*
X172826710Y-48472855D02*
X172445758Y-48472855D01*
X172445758Y-48472855D02*
X172350520Y-48425236D01*
X172350520Y-48425236D02*
X172302901Y-48329998D01*
X172302901Y-48329998D02*
X172302901Y-48139522D01*
X172302901Y-48139522D02*
X172350520Y-48044284D01*
X172350520Y-48044284D02*
X172445758Y-47996665D01*
X172445758Y-47996665D02*
X172540996Y-47996665D01*
X172540996Y-47996665D02*
X172636234Y-48472855D01*
X183845758Y-54210951D02*
X183893377Y-54068094D01*
X183893377Y-54068094D02*
X183940996Y-54020475D01*
X183940996Y-54020475D02*
X184036234Y-53972856D01*
X184036234Y-53972856D02*
X184179091Y-53972856D01*
X184179091Y-53972856D02*
X184274329Y-54020475D01*
X184274329Y-54020475D02*
X184321949Y-54068094D01*
X184321949Y-54068094D02*
X184369568Y-54163332D01*
X184369568Y-54163332D02*
X184369568Y-54544284D01*
X184369568Y-54544284D02*
X183369568Y-54544284D01*
X183369568Y-54544284D02*
X183369568Y-54210951D01*
X183369568Y-54210951D02*
X183417187Y-54115713D01*
X183417187Y-54115713D02*
X183464806Y-54068094D01*
X183464806Y-54068094D02*
X183560044Y-54020475D01*
X183560044Y-54020475D02*
X183655282Y-54020475D01*
X183655282Y-54020475D02*
X183750520Y-54068094D01*
X183750520Y-54068094D02*
X183798139Y-54115713D01*
X183798139Y-54115713D02*
X183845758Y-54210951D01*
X183845758Y-54210951D02*
X183845758Y-54544284D01*
X183369568Y-53639522D02*
X183369568Y-52972856D01*
X183369568Y-52972856D02*
X184369568Y-53639522D01*
X184369568Y-53639522D02*
X184369568Y-52972856D01*
X184369568Y-52068094D02*
X184369568Y-52639522D01*
X184369568Y-52353808D02*
X183369568Y-52353808D01*
X183369568Y-52353808D02*
X183512425Y-52449046D01*
X183512425Y-52449046D02*
X183607663Y-52544284D01*
X183607663Y-52544284D02*
X183655282Y-52639522D01*
X182528615Y-49900950D02*
X182528615Y-49139046D01*
X182909568Y-49519998D02*
X182147663Y-49519998D01*
%TO.C,J2*%
X51272619Y-78986905D02*
X50272619Y-78986905D01*
X50653571Y-78986905D02*
X50605952Y-78891667D01*
X50605952Y-78891667D02*
X50605952Y-78701191D01*
X50605952Y-78701191D02*
X50653571Y-78605953D01*
X50653571Y-78605953D02*
X50701190Y-78558334D01*
X50701190Y-78558334D02*
X50796428Y-78510715D01*
X50796428Y-78510715D02*
X51082142Y-78510715D01*
X51082142Y-78510715D02*
X51177380Y-78558334D01*
X51177380Y-78558334D02*
X51225000Y-78605953D01*
X51225000Y-78605953D02*
X51272619Y-78701191D01*
X51272619Y-78701191D02*
X51272619Y-78891667D01*
X51272619Y-78891667D02*
X51225000Y-78986905D01*
X51272619Y-77653572D02*
X50748809Y-77653572D01*
X50748809Y-77653572D02*
X50653571Y-77701191D01*
X50653571Y-77701191D02*
X50605952Y-77796429D01*
X50605952Y-77796429D02*
X50605952Y-77986905D01*
X50605952Y-77986905D02*
X50653571Y-78082143D01*
X51225000Y-77653572D02*
X51272619Y-77748810D01*
X51272619Y-77748810D02*
X51272619Y-77986905D01*
X51272619Y-77986905D02*
X51225000Y-78082143D01*
X51225000Y-78082143D02*
X51129761Y-78129762D01*
X51129761Y-78129762D02*
X51034523Y-78129762D01*
X51034523Y-78129762D02*
X50939285Y-78082143D01*
X50939285Y-78082143D02*
X50891666Y-77986905D01*
X50891666Y-77986905D02*
X50891666Y-77748810D01*
X50891666Y-77748810D02*
X50844047Y-77653572D01*
X50605952Y-77320238D02*
X50605952Y-76939286D01*
X50272619Y-77177381D02*
X51129761Y-77177381D01*
X51129761Y-77177381D02*
X51225000Y-77129762D01*
X51225000Y-77129762D02*
X51272619Y-77034524D01*
X51272619Y-77034524D02*
X51272619Y-76939286D01*
X50605952Y-76748809D02*
X50605952Y-76367857D01*
X50272619Y-76605952D02*
X51129761Y-76605952D01*
X51129761Y-76605952D02*
X51225000Y-76558333D01*
X51225000Y-76558333D02*
X51272619Y-76463095D01*
X51272619Y-76463095D02*
X51272619Y-76367857D01*
X51225000Y-75653571D02*
X51272619Y-75748809D01*
X51272619Y-75748809D02*
X51272619Y-75939285D01*
X51272619Y-75939285D02*
X51225000Y-76034523D01*
X51225000Y-76034523D02*
X51129761Y-76082142D01*
X51129761Y-76082142D02*
X50748809Y-76082142D01*
X50748809Y-76082142D02*
X50653571Y-76034523D01*
X50653571Y-76034523D02*
X50605952Y-75939285D01*
X50605952Y-75939285D02*
X50605952Y-75748809D01*
X50605952Y-75748809D02*
X50653571Y-75653571D01*
X50653571Y-75653571D02*
X50748809Y-75605952D01*
X50748809Y-75605952D02*
X50844047Y-75605952D01*
X50844047Y-75605952D02*
X50939285Y-76082142D01*
X51272619Y-75177380D02*
X50605952Y-75177380D01*
X50796428Y-75177380D02*
X50701190Y-75129761D01*
X50701190Y-75129761D02*
X50653571Y-75082142D01*
X50653571Y-75082142D02*
X50605952Y-74986904D01*
X50605952Y-74986904D02*
X50605952Y-74891666D01*
X50605952Y-74653570D02*
X51272619Y-74415475D01*
X50605952Y-74177380D02*
X51272619Y-74415475D01*
X51272619Y-74415475D02*
X51510714Y-74510713D01*
X51510714Y-74510713D02*
X51558333Y-74558332D01*
X51558333Y-74558332D02*
X51605952Y-74653570D01*
X51367857Y-74034523D02*
X51367857Y-73272618D01*
X51272619Y-73034522D02*
X50272619Y-73034522D01*
X51272619Y-72605951D02*
X50748809Y-72605951D01*
X50748809Y-72605951D02*
X50653571Y-72653570D01*
X50653571Y-72653570D02*
X50605952Y-72748808D01*
X50605952Y-72748808D02*
X50605952Y-72891665D01*
X50605952Y-72891665D02*
X50653571Y-72986903D01*
X50653571Y-72986903D02*
X50701190Y-73034522D01*
X51225000Y-71748808D02*
X51272619Y-71844046D01*
X51272619Y-71844046D02*
X51272619Y-72034522D01*
X51272619Y-72034522D02*
X51225000Y-72129760D01*
X51225000Y-72129760D02*
X51129761Y-72177379D01*
X51129761Y-72177379D02*
X50748809Y-72177379D01*
X50748809Y-72177379D02*
X50653571Y-72129760D01*
X50653571Y-72129760D02*
X50605952Y-72034522D01*
X50605952Y-72034522D02*
X50605952Y-71844046D01*
X50605952Y-71844046D02*
X50653571Y-71748808D01*
X50653571Y-71748808D02*
X50748809Y-71701189D01*
X50748809Y-71701189D02*
X50844047Y-71701189D01*
X50844047Y-71701189D02*
X50939285Y-72177379D01*
X51272619Y-70844046D02*
X50748809Y-70844046D01*
X50748809Y-70844046D02*
X50653571Y-70891665D01*
X50653571Y-70891665D02*
X50605952Y-70986903D01*
X50605952Y-70986903D02*
X50605952Y-71177379D01*
X50605952Y-71177379D02*
X50653571Y-71272617D01*
X51225000Y-70844046D02*
X51272619Y-70939284D01*
X51272619Y-70939284D02*
X51272619Y-71177379D01*
X51272619Y-71177379D02*
X51225000Y-71272617D01*
X51225000Y-71272617D02*
X51129761Y-71320236D01*
X51129761Y-71320236D02*
X51034523Y-71320236D01*
X51034523Y-71320236D02*
X50939285Y-71272617D01*
X50939285Y-71272617D02*
X50891666Y-71177379D01*
X50891666Y-71177379D02*
X50891666Y-70939284D01*
X50891666Y-70939284D02*
X50844047Y-70844046D01*
X51272619Y-69939284D02*
X50272619Y-69939284D01*
X51225000Y-69939284D02*
X51272619Y-70034522D01*
X51272619Y-70034522D02*
X51272619Y-70224998D01*
X51272619Y-70224998D02*
X51225000Y-70320236D01*
X51225000Y-70320236D02*
X51177380Y-70367855D01*
X51177380Y-70367855D02*
X51082142Y-70415474D01*
X51082142Y-70415474D02*
X50796428Y-70415474D01*
X50796428Y-70415474D02*
X50701190Y-70367855D01*
X50701190Y-70367855D02*
X50653571Y-70320236D01*
X50653571Y-70320236D02*
X50605952Y-70224998D01*
X50605952Y-70224998D02*
X50605952Y-70034522D01*
X50605952Y-70034522D02*
X50653571Y-69939284D01*
X51225000Y-69082141D02*
X51272619Y-69177379D01*
X51272619Y-69177379D02*
X51272619Y-69367855D01*
X51272619Y-69367855D02*
X51225000Y-69463093D01*
X51225000Y-69463093D02*
X51129761Y-69510712D01*
X51129761Y-69510712D02*
X50748809Y-69510712D01*
X50748809Y-69510712D02*
X50653571Y-69463093D01*
X50653571Y-69463093D02*
X50605952Y-69367855D01*
X50605952Y-69367855D02*
X50605952Y-69177379D01*
X50605952Y-69177379D02*
X50653571Y-69082141D01*
X50653571Y-69082141D02*
X50748809Y-69034522D01*
X50748809Y-69034522D02*
X50844047Y-69034522D01*
X50844047Y-69034522D02*
X50939285Y-69510712D01*
X51272619Y-68605950D02*
X50605952Y-68605950D01*
X50796428Y-68605950D02*
X50701190Y-68558331D01*
X50701190Y-68558331D02*
X50653571Y-68510712D01*
X50653571Y-68510712D02*
X50605952Y-68415474D01*
X50605952Y-68415474D02*
X50605952Y-68320236D01*
X46372619Y-74058333D02*
X47086904Y-74058333D01*
X47086904Y-74058333D02*
X47229761Y-74105952D01*
X47229761Y-74105952D02*
X47325000Y-74201190D01*
X47325000Y-74201190D02*
X47372619Y-74344047D01*
X47372619Y-74344047D02*
X47372619Y-74439285D01*
X46467857Y-73629761D02*
X46420238Y-73582142D01*
X46420238Y-73582142D02*
X46372619Y-73486904D01*
X46372619Y-73486904D02*
X46372619Y-73248809D01*
X46372619Y-73248809D02*
X46420238Y-73153571D01*
X46420238Y-73153571D02*
X46467857Y-73105952D01*
X46467857Y-73105952D02*
X46563095Y-73058333D01*
X46563095Y-73058333D02*
X46658333Y-73058333D01*
X46658333Y-73058333D02*
X46801190Y-73105952D01*
X46801190Y-73105952D02*
X47372619Y-73677380D01*
X47372619Y-73677380D02*
X47372619Y-73058333D01*
%TO.C,J1*%
X167834313Y-50287954D02*
X166834313Y-50287954D01*
X167215265Y-50287954D02*
X167167646Y-50192716D01*
X167167646Y-50192716D02*
X167167646Y-50002240D01*
X167167646Y-50002240D02*
X167215265Y-49907002D01*
X167215265Y-49907002D02*
X167262884Y-49859383D01*
X167262884Y-49859383D02*
X167358122Y-49811764D01*
X167358122Y-49811764D02*
X167643836Y-49811764D01*
X167643836Y-49811764D02*
X167739074Y-49859383D01*
X167739074Y-49859383D02*
X167786694Y-49907002D01*
X167786694Y-49907002D02*
X167834313Y-50002240D01*
X167834313Y-50002240D02*
X167834313Y-50192716D01*
X167834313Y-50192716D02*
X167786694Y-50287954D01*
X167167646Y-48954621D02*
X167834313Y-48954621D01*
X167167646Y-49383192D02*
X167691455Y-49383192D01*
X167691455Y-49383192D02*
X167786694Y-49335573D01*
X167786694Y-49335573D02*
X167834313Y-49240335D01*
X167834313Y-49240335D02*
X167834313Y-49097478D01*
X167834313Y-49097478D02*
X167786694Y-49002240D01*
X167786694Y-49002240D02*
X167739074Y-48954621D01*
X167167646Y-48573668D02*
X167167646Y-48049859D01*
X167167646Y-48049859D02*
X167834313Y-48573668D01*
X167834313Y-48573668D02*
X167834313Y-48049859D01*
X167167646Y-47764144D02*
X167167646Y-47240335D01*
X167167646Y-47240335D02*
X167834313Y-47764144D01*
X167834313Y-47764144D02*
X167834313Y-47240335D01*
X167786694Y-46478430D02*
X167834313Y-46573668D01*
X167834313Y-46573668D02*
X167834313Y-46764144D01*
X167834313Y-46764144D02*
X167786694Y-46859382D01*
X167786694Y-46859382D02*
X167691455Y-46907001D01*
X167691455Y-46907001D02*
X167310503Y-46907001D01*
X167310503Y-46907001D02*
X167215265Y-46859382D01*
X167215265Y-46859382D02*
X167167646Y-46764144D01*
X167167646Y-46764144D02*
X167167646Y-46573668D01*
X167167646Y-46573668D02*
X167215265Y-46478430D01*
X167215265Y-46478430D02*
X167310503Y-46430811D01*
X167310503Y-46430811D02*
X167405741Y-46430811D01*
X167405741Y-46430811D02*
X167500979Y-46907001D01*
X167834313Y-46002239D02*
X167167646Y-46002239D01*
X167358122Y-46002239D02*
X167262884Y-45954620D01*
X167262884Y-45954620D02*
X167215265Y-45907001D01*
X167215265Y-45907001D02*
X167167646Y-45811763D01*
X167167646Y-45811763D02*
X167167646Y-45716525D01*
X167929551Y-45621287D02*
X167929551Y-44859382D01*
X167167646Y-44764143D02*
X167167646Y-44383191D01*
X166834313Y-44621286D02*
X167691455Y-44621286D01*
X167691455Y-44621286D02*
X167786694Y-44573667D01*
X167786694Y-44573667D02*
X167834313Y-44478429D01*
X167834313Y-44478429D02*
X167834313Y-44383191D01*
X167834313Y-43907000D02*
X167786694Y-44002238D01*
X167786694Y-44002238D02*
X167739074Y-44049857D01*
X167739074Y-44049857D02*
X167643836Y-44097476D01*
X167643836Y-44097476D02*
X167358122Y-44097476D01*
X167358122Y-44097476D02*
X167262884Y-44049857D01*
X167262884Y-44049857D02*
X167215265Y-44002238D01*
X167215265Y-44002238D02*
X167167646Y-43907000D01*
X167167646Y-43907000D02*
X167167646Y-43764143D01*
X167167646Y-43764143D02*
X167215265Y-43668905D01*
X167215265Y-43668905D02*
X167262884Y-43621286D01*
X167262884Y-43621286D02*
X167358122Y-43573667D01*
X167358122Y-43573667D02*
X167643836Y-43573667D01*
X167643836Y-43573667D02*
X167739074Y-43621286D01*
X167739074Y-43621286D02*
X167786694Y-43668905D01*
X167786694Y-43668905D02*
X167834313Y-43764143D01*
X167834313Y-43764143D02*
X167834313Y-43907000D01*
X167167646Y-42716524D02*
X167977170Y-42716524D01*
X167977170Y-42716524D02*
X168072408Y-42764143D01*
X168072408Y-42764143D02*
X168120027Y-42811762D01*
X168120027Y-42811762D02*
X168167646Y-42907000D01*
X168167646Y-42907000D02*
X168167646Y-43049857D01*
X168167646Y-43049857D02*
X168120027Y-43145095D01*
X167786694Y-42716524D02*
X167834313Y-42811762D01*
X167834313Y-42811762D02*
X167834313Y-43002238D01*
X167834313Y-43002238D02*
X167786694Y-43097476D01*
X167786694Y-43097476D02*
X167739074Y-43145095D01*
X167739074Y-43145095D02*
X167643836Y-43192714D01*
X167643836Y-43192714D02*
X167358122Y-43192714D01*
X167358122Y-43192714D02*
X167262884Y-43145095D01*
X167262884Y-43145095D02*
X167215265Y-43097476D01*
X167215265Y-43097476D02*
X167167646Y-43002238D01*
X167167646Y-43002238D02*
X167167646Y-42811762D01*
X167167646Y-42811762D02*
X167215265Y-42716524D01*
X167167646Y-41811762D02*
X167977170Y-41811762D01*
X167977170Y-41811762D02*
X168072408Y-41859381D01*
X168072408Y-41859381D02*
X168120027Y-41907000D01*
X168120027Y-41907000D02*
X168167646Y-42002238D01*
X168167646Y-42002238D02*
X168167646Y-42145095D01*
X168167646Y-42145095D02*
X168120027Y-42240333D01*
X167786694Y-41811762D02*
X167834313Y-41907000D01*
X167834313Y-41907000D02*
X167834313Y-42097476D01*
X167834313Y-42097476D02*
X167786694Y-42192714D01*
X167786694Y-42192714D02*
X167739074Y-42240333D01*
X167739074Y-42240333D02*
X167643836Y-42287952D01*
X167643836Y-42287952D02*
X167358122Y-42287952D01*
X167358122Y-42287952D02*
X167262884Y-42240333D01*
X167262884Y-42240333D02*
X167215265Y-42192714D01*
X167215265Y-42192714D02*
X167167646Y-42097476D01*
X167167646Y-42097476D02*
X167167646Y-41907000D01*
X167167646Y-41907000D02*
X167215265Y-41811762D01*
X167834313Y-41192714D02*
X167786694Y-41287952D01*
X167786694Y-41287952D02*
X167691455Y-41335571D01*
X167691455Y-41335571D02*
X166834313Y-41335571D01*
X167786694Y-40430809D02*
X167834313Y-40526047D01*
X167834313Y-40526047D02*
X167834313Y-40716523D01*
X167834313Y-40716523D02*
X167786694Y-40811761D01*
X167786694Y-40811761D02*
X167691455Y-40859380D01*
X167691455Y-40859380D02*
X167310503Y-40859380D01*
X167310503Y-40859380D02*
X167215265Y-40811761D01*
X167215265Y-40811761D02*
X167167646Y-40716523D01*
X167167646Y-40716523D02*
X167167646Y-40526047D01*
X167167646Y-40526047D02*
X167215265Y-40430809D01*
X167215265Y-40430809D02*
X167310503Y-40383190D01*
X167310503Y-40383190D02*
X167405741Y-40383190D01*
X167405741Y-40383190D02*
X167500979Y-40859380D01*
X167929551Y-40192714D02*
X167929551Y-39430809D01*
X167167646Y-39192713D02*
X168167646Y-39192713D01*
X167215265Y-39192713D02*
X167167646Y-39097475D01*
X167167646Y-39097475D02*
X167167646Y-38906999D01*
X167167646Y-38906999D02*
X167215265Y-38811761D01*
X167215265Y-38811761D02*
X167262884Y-38764142D01*
X167262884Y-38764142D02*
X167358122Y-38716523D01*
X167358122Y-38716523D02*
X167643836Y-38716523D01*
X167643836Y-38716523D02*
X167739074Y-38764142D01*
X167739074Y-38764142D02*
X167786694Y-38811761D01*
X167786694Y-38811761D02*
X167834313Y-38906999D01*
X167834313Y-38906999D02*
X167834313Y-39097475D01*
X167834313Y-39097475D02*
X167786694Y-39192713D01*
X167834313Y-38287951D02*
X167167646Y-38287951D01*
X166834313Y-38287951D02*
X166881932Y-38335570D01*
X166881932Y-38335570D02*
X166929551Y-38287951D01*
X166929551Y-38287951D02*
X166881932Y-38240332D01*
X166881932Y-38240332D02*
X166834313Y-38287951D01*
X166834313Y-38287951D02*
X166929551Y-38287951D01*
X167167646Y-37811761D02*
X167834313Y-37811761D01*
X167262884Y-37811761D02*
X167215265Y-37764142D01*
X167215265Y-37764142D02*
X167167646Y-37668904D01*
X167167646Y-37668904D02*
X167167646Y-37526047D01*
X167167646Y-37526047D02*
X167215265Y-37430809D01*
X167215265Y-37430809D02*
X167310503Y-37383190D01*
X167310503Y-37383190D02*
X167834313Y-37383190D01*
X162168360Y-43298192D02*
X162168360Y-44012477D01*
X162168360Y-44012477D02*
X162120741Y-44155334D01*
X162120741Y-44155334D02*
X162025503Y-44250573D01*
X162025503Y-44250573D02*
X161882646Y-44298192D01*
X161882646Y-44298192D02*
X161787408Y-44298192D01*
X163168360Y-44298192D02*
X162596932Y-44298192D01*
X162882646Y-44298192D02*
X162882646Y-43298192D01*
X162882646Y-43298192D02*
X162787408Y-43441049D01*
X162787408Y-43441049D02*
X162692170Y-43536287D01*
X162692170Y-43536287D02*
X162596932Y-43583906D01*
%TO.C,U3*%
X137437445Y-58688711D02*
X137437445Y-58117283D01*
X138437445Y-58402997D02*
X137437445Y-58402997D01*
X138389826Y-57402997D02*
X138437445Y-57498235D01*
X138437445Y-57498235D02*
X138437445Y-57688711D01*
X138437445Y-57688711D02*
X138389826Y-57783949D01*
X138389826Y-57783949D02*
X138294587Y-57831568D01*
X138294587Y-57831568D02*
X137913635Y-57831568D01*
X137913635Y-57831568D02*
X137818397Y-57783949D01*
X137818397Y-57783949D02*
X137770778Y-57688711D01*
X137770778Y-57688711D02*
X137770778Y-57498235D01*
X137770778Y-57498235D02*
X137818397Y-57402997D01*
X137818397Y-57402997D02*
X137913635Y-57355378D01*
X137913635Y-57355378D02*
X138008873Y-57355378D01*
X138008873Y-57355378D02*
X138104111Y-57831568D01*
X138389826Y-56545854D02*
X138437445Y-56641092D01*
X138437445Y-56641092D02*
X138437445Y-56831568D01*
X138437445Y-56831568D02*
X138389826Y-56926806D01*
X138389826Y-56926806D02*
X138294587Y-56974425D01*
X138294587Y-56974425D02*
X137913635Y-56974425D01*
X137913635Y-56974425D02*
X137818397Y-56926806D01*
X137818397Y-56926806D02*
X137770778Y-56831568D01*
X137770778Y-56831568D02*
X137770778Y-56641092D01*
X137770778Y-56641092D02*
X137818397Y-56545854D01*
X137818397Y-56545854D02*
X137913635Y-56498235D01*
X137913635Y-56498235D02*
X138008873Y-56498235D01*
X138008873Y-56498235D02*
X138104111Y-56974425D01*
X137770778Y-56069663D02*
X138437445Y-56069663D01*
X137866016Y-56069663D02*
X137818397Y-56022044D01*
X137818397Y-56022044D02*
X137770778Y-55926806D01*
X137770778Y-55926806D02*
X137770778Y-55783949D01*
X137770778Y-55783949D02*
X137818397Y-55688711D01*
X137818397Y-55688711D02*
X137913635Y-55641092D01*
X137913635Y-55641092D02*
X138437445Y-55641092D01*
X138389826Y-55212520D02*
X138437445Y-55117282D01*
X138437445Y-55117282D02*
X138437445Y-54926806D01*
X138437445Y-54926806D02*
X138389826Y-54831568D01*
X138389826Y-54831568D02*
X138294587Y-54783949D01*
X138294587Y-54783949D02*
X138246968Y-54783949D01*
X138246968Y-54783949D02*
X138151730Y-54831568D01*
X138151730Y-54831568D02*
X138104111Y-54926806D01*
X138104111Y-54926806D02*
X138104111Y-55069663D01*
X138104111Y-55069663D02*
X138056492Y-55164901D01*
X138056492Y-55164901D02*
X137961254Y-55212520D01*
X137961254Y-55212520D02*
X137913635Y-55212520D01*
X137913635Y-55212520D02*
X137818397Y-55164901D01*
X137818397Y-55164901D02*
X137770778Y-55069663D01*
X137770778Y-55069663D02*
X137770778Y-54926806D01*
X137770778Y-54926806D02*
X137818397Y-54831568D01*
X137770778Y-54450615D02*
X138437445Y-54212520D01*
X137770778Y-53974425D02*
X138437445Y-54212520D01*
X138437445Y-54212520D02*
X138675540Y-54307758D01*
X138675540Y-54307758D02*
X138723159Y-54355377D01*
X138723159Y-54355377D02*
X138770778Y-54450615D01*
X137770778Y-53164901D02*
X138437445Y-53164901D01*
X137389826Y-53402996D02*
X138104111Y-53641091D01*
X138104111Y-53641091D02*
X138104111Y-53022044D01*
X138342206Y-52641091D02*
X138389826Y-52593472D01*
X138389826Y-52593472D02*
X138437445Y-52641091D01*
X138437445Y-52641091D02*
X138389826Y-52688710D01*
X138389826Y-52688710D02*
X138342206Y-52641091D01*
X138342206Y-52641091D02*
X138437445Y-52641091D01*
X138437445Y-51641092D02*
X138437445Y-52212520D01*
X138437445Y-51926806D02*
X137437445Y-51926806D01*
X137437445Y-51926806D02*
X137580302Y-52022044D01*
X137580302Y-52022044D02*
X137675540Y-52117282D01*
X137675540Y-52117282D02*
X137723159Y-52212520D01*
%TO.C,U1*%
X196861038Y-25118564D02*
X196718181Y-25070945D01*
X196718181Y-25070945D02*
X196670562Y-25023326D01*
X196670562Y-25023326D02*
X196622943Y-24928088D01*
X196622943Y-24928088D02*
X196622943Y-24785231D01*
X196622943Y-24785231D02*
X196670562Y-24689993D01*
X196670562Y-24689993D02*
X196718181Y-24642374D01*
X196718181Y-24642374D02*
X196813419Y-24594754D01*
X196813419Y-24594754D02*
X197194371Y-24594754D01*
X197194371Y-24594754D02*
X197194371Y-25594754D01*
X197194371Y-25594754D02*
X196861038Y-25594754D01*
X196861038Y-25594754D02*
X196765800Y-25547135D01*
X196765800Y-25547135D02*
X196718181Y-25499516D01*
X196718181Y-25499516D02*
X196670562Y-25404278D01*
X196670562Y-25404278D02*
X196670562Y-25309040D01*
X196670562Y-25309040D02*
X196718181Y-25213802D01*
X196718181Y-25213802D02*
X196765800Y-25166183D01*
X196765800Y-25166183D02*
X196861038Y-25118564D01*
X196861038Y-25118564D02*
X197194371Y-25118564D01*
X196194371Y-24594754D02*
X196194371Y-25594754D01*
X196194371Y-25594754D02*
X195622943Y-24594754D01*
X195622943Y-24594754D02*
X195622943Y-25594754D01*
X195194371Y-25499516D02*
X195146752Y-25547135D01*
X195146752Y-25547135D02*
X195051514Y-25594754D01*
X195051514Y-25594754D02*
X194813419Y-25594754D01*
X194813419Y-25594754D02*
X194718181Y-25547135D01*
X194718181Y-25547135D02*
X194670562Y-25499516D01*
X194670562Y-25499516D02*
X194622943Y-25404278D01*
X194622943Y-25404278D02*
X194622943Y-25309040D01*
X194622943Y-25309040D02*
X194670562Y-25166183D01*
X194670562Y-25166183D02*
X195241990Y-24594754D01*
X195241990Y-24594754D02*
X194622943Y-24594754D01*
X194241990Y-25499516D02*
X194194371Y-25547135D01*
X194194371Y-25547135D02*
X194099133Y-25594754D01*
X194099133Y-25594754D02*
X193861038Y-25594754D01*
X193861038Y-25594754D02*
X193765800Y-25547135D01*
X193765800Y-25547135D02*
X193718181Y-25499516D01*
X193718181Y-25499516D02*
X193670562Y-25404278D01*
X193670562Y-25404278D02*
X193670562Y-25309040D01*
X193670562Y-25309040D02*
X193718181Y-25166183D01*
X193718181Y-25166183D02*
X194289609Y-24594754D01*
X194289609Y-24594754D02*
X193670562Y-24594754D01*
X193051514Y-25594754D02*
X192956276Y-25594754D01*
X192956276Y-25594754D02*
X192861038Y-25547135D01*
X192861038Y-25547135D02*
X192813419Y-25499516D01*
X192813419Y-25499516D02*
X192765800Y-25404278D01*
X192765800Y-25404278D02*
X192718181Y-25213802D01*
X192718181Y-25213802D02*
X192718181Y-24975707D01*
X192718181Y-24975707D02*
X192765800Y-24785231D01*
X192765800Y-24785231D02*
X192813419Y-24689993D01*
X192813419Y-24689993D02*
X192861038Y-24642374D01*
X192861038Y-24642374D02*
X192956276Y-24594754D01*
X192956276Y-24594754D02*
X193051514Y-24594754D01*
X193051514Y-24594754D02*
X193146752Y-24642374D01*
X193146752Y-24642374D02*
X193194371Y-24689993D01*
X193194371Y-24689993D02*
X193241990Y-24785231D01*
X193241990Y-24785231D02*
X193289609Y-24975707D01*
X193289609Y-24975707D02*
X193289609Y-25213802D01*
X193289609Y-25213802D02*
X193241990Y-25404278D01*
X193241990Y-25404278D02*
X193194371Y-25499516D01*
X193194371Y-25499516D02*
X193146752Y-25547135D01*
X193146752Y-25547135D02*
X193051514Y-25594754D01*
X192289609Y-24975707D02*
X191527705Y-24975707D01*
X190527705Y-25547135D02*
X190622943Y-25594754D01*
X190622943Y-25594754D02*
X190765800Y-25594754D01*
X190765800Y-25594754D02*
X190908657Y-25547135D01*
X190908657Y-25547135D02*
X191003895Y-25451897D01*
X191003895Y-25451897D02*
X191051514Y-25356659D01*
X191051514Y-25356659D02*
X191099133Y-25166183D01*
X191099133Y-25166183D02*
X191099133Y-25023326D01*
X191099133Y-25023326D02*
X191051514Y-24832850D01*
X191051514Y-24832850D02*
X191003895Y-24737612D01*
X191003895Y-24737612D02*
X190908657Y-24642374D01*
X190908657Y-24642374D02*
X190765800Y-24594754D01*
X190765800Y-24594754D02*
X190670562Y-24594754D01*
X190670562Y-24594754D02*
X190527705Y-24642374D01*
X190527705Y-24642374D02*
X190480086Y-24689993D01*
X190480086Y-24689993D02*
X190480086Y-25023326D01*
X190480086Y-25023326D02*
X190670562Y-25023326D01*
X190051514Y-24594754D02*
X190051514Y-25594754D01*
X190051514Y-25594754D02*
X189670562Y-25594754D01*
X189670562Y-25594754D02*
X189575324Y-25547135D01*
X189575324Y-25547135D02*
X189527705Y-25499516D01*
X189527705Y-25499516D02*
X189480086Y-25404278D01*
X189480086Y-25404278D02*
X189480086Y-25261421D01*
X189480086Y-25261421D02*
X189527705Y-25166183D01*
X189527705Y-25166183D02*
X189575324Y-25118564D01*
X189575324Y-25118564D02*
X189670562Y-25070945D01*
X189670562Y-25070945D02*
X190051514Y-25070945D01*
X189099133Y-24642374D02*
X188956276Y-24594754D01*
X188956276Y-24594754D02*
X188718181Y-24594754D01*
X188718181Y-24594754D02*
X188622943Y-24642374D01*
X188622943Y-24642374D02*
X188575324Y-24689993D01*
X188575324Y-24689993D02*
X188527705Y-24785231D01*
X188527705Y-24785231D02*
X188527705Y-24880469D01*
X188527705Y-24880469D02*
X188575324Y-24975707D01*
X188575324Y-24975707D02*
X188622943Y-25023326D01*
X188622943Y-25023326D02*
X188718181Y-25070945D01*
X188718181Y-25070945D02*
X188908657Y-25118564D01*
X188908657Y-25118564D02*
X189003895Y-25166183D01*
X189003895Y-25166183D02*
X189051514Y-25213802D01*
X189051514Y-25213802D02*
X189099133Y-25309040D01*
X189099133Y-25309040D02*
X189099133Y-25404278D01*
X189099133Y-25404278D02*
X189051514Y-25499516D01*
X189051514Y-25499516D02*
X189003895Y-25547135D01*
X189003895Y-25547135D02*
X188908657Y-25594754D01*
X188908657Y-25594754D02*
X188670562Y-25594754D01*
X188670562Y-25594754D02*
X188527705Y-25547135D01*
X164927358Y-35078288D02*
X165736881Y-35078288D01*
X165736881Y-35078288D02*
X165832119Y-35030669D01*
X165832119Y-35030669D02*
X165879739Y-34983050D01*
X165879739Y-34983050D02*
X165927358Y-34887812D01*
X165927358Y-34887812D02*
X165927358Y-34697336D01*
X165927358Y-34697336D02*
X165879739Y-34602098D01*
X165879739Y-34602098D02*
X165832119Y-34554479D01*
X165832119Y-34554479D02*
X165736881Y-34506860D01*
X165736881Y-34506860D02*
X164927358Y-34506860D01*
X165927358Y-33506860D02*
X165927358Y-34078288D01*
X165927358Y-33792574D02*
X164927358Y-33792574D01*
X164927358Y-33792574D02*
X165070215Y-33887812D01*
X165070215Y-33887812D02*
X165165453Y-33983050D01*
X165165453Y-33983050D02*
X165213072Y-34078288D01*
%TO.C,U4*%
X51604600Y-59261626D02*
X51842695Y-59928293D01*
X51842695Y-59928293D02*
X52080790Y-59261626D01*
X52604600Y-59928293D02*
X52509362Y-59880674D01*
X52509362Y-59880674D02*
X52461743Y-59833054D01*
X52461743Y-59833054D02*
X52414124Y-59737816D01*
X52414124Y-59737816D02*
X52414124Y-59452102D01*
X52414124Y-59452102D02*
X52461743Y-59356864D01*
X52461743Y-59356864D02*
X52509362Y-59309245D01*
X52509362Y-59309245D02*
X52604600Y-59261626D01*
X52604600Y-59261626D02*
X52747457Y-59261626D01*
X52747457Y-59261626D02*
X52842695Y-59309245D01*
X52842695Y-59309245D02*
X52890314Y-59356864D01*
X52890314Y-59356864D02*
X52937933Y-59452102D01*
X52937933Y-59452102D02*
X52937933Y-59737816D01*
X52937933Y-59737816D02*
X52890314Y-59833054D01*
X52890314Y-59833054D02*
X52842695Y-59880674D01*
X52842695Y-59880674D02*
X52747457Y-59928293D01*
X52747457Y-59928293D02*
X52604600Y-59928293D01*
X53509362Y-59928293D02*
X53414124Y-59880674D01*
X53414124Y-59880674D02*
X53366505Y-59785435D01*
X53366505Y-59785435D02*
X53366505Y-58928293D01*
X53747458Y-59261626D02*
X54128410Y-59261626D01*
X53890315Y-58928293D02*
X53890315Y-59785435D01*
X53890315Y-59785435D02*
X53937934Y-59880674D01*
X53937934Y-59880674D02*
X54033172Y-59928293D01*
X54033172Y-59928293D02*
X54128410Y-59928293D01*
X55033172Y-59928293D02*
X54699839Y-59452102D01*
X54461744Y-59928293D02*
X54461744Y-58928293D01*
X54461744Y-58928293D02*
X54842696Y-58928293D01*
X54842696Y-58928293D02*
X54937934Y-58975912D01*
X54937934Y-58975912D02*
X54985553Y-59023531D01*
X54985553Y-59023531D02*
X55033172Y-59118769D01*
X55033172Y-59118769D02*
X55033172Y-59261626D01*
X55033172Y-59261626D02*
X54985553Y-59356864D01*
X54985553Y-59356864D02*
X54937934Y-59404483D01*
X54937934Y-59404483D02*
X54842696Y-59452102D01*
X54842696Y-59452102D02*
X54461744Y-59452102D01*
X55842696Y-59880674D02*
X55747458Y-59928293D01*
X55747458Y-59928293D02*
X55556982Y-59928293D01*
X55556982Y-59928293D02*
X55461744Y-59880674D01*
X55461744Y-59880674D02*
X55414125Y-59785435D01*
X55414125Y-59785435D02*
X55414125Y-59404483D01*
X55414125Y-59404483D02*
X55461744Y-59309245D01*
X55461744Y-59309245D02*
X55556982Y-59261626D01*
X55556982Y-59261626D02*
X55747458Y-59261626D01*
X55747458Y-59261626D02*
X55842696Y-59309245D01*
X55842696Y-59309245D02*
X55890315Y-59404483D01*
X55890315Y-59404483D02*
X55890315Y-59499721D01*
X55890315Y-59499721D02*
X55414125Y-59594959D01*
X56747458Y-59261626D02*
X56747458Y-60071150D01*
X56747458Y-60071150D02*
X56699839Y-60166388D01*
X56699839Y-60166388D02*
X56652220Y-60214007D01*
X56652220Y-60214007D02*
X56556982Y-60261626D01*
X56556982Y-60261626D02*
X56414125Y-60261626D01*
X56414125Y-60261626D02*
X56318887Y-60214007D01*
X56747458Y-59880674D02*
X56652220Y-59928293D01*
X56652220Y-59928293D02*
X56461744Y-59928293D01*
X56461744Y-59928293D02*
X56366506Y-59880674D01*
X56366506Y-59880674D02*
X56318887Y-59833054D01*
X56318887Y-59833054D02*
X56271268Y-59737816D01*
X56271268Y-59737816D02*
X56271268Y-59452102D01*
X56271268Y-59452102D02*
X56318887Y-59356864D01*
X56318887Y-59356864D02*
X56366506Y-59309245D01*
X56366506Y-59309245D02*
X56461744Y-59261626D01*
X56461744Y-59261626D02*
X56652220Y-59261626D01*
X56652220Y-59261626D02*
X56747458Y-59309245D01*
%TO.C,R3*%
X168735714Y-71752619D02*
X168402381Y-71276428D01*
X168164286Y-71752619D02*
X168164286Y-70752619D01*
X168164286Y-70752619D02*
X168545238Y-70752619D01*
X168545238Y-70752619D02*
X168640476Y-70800238D01*
X168640476Y-70800238D02*
X168688095Y-70847857D01*
X168688095Y-70847857D02*
X168735714Y-70943095D01*
X168735714Y-70943095D02*
X168735714Y-71085952D01*
X168735714Y-71085952D02*
X168688095Y-71181190D01*
X168688095Y-71181190D02*
X168640476Y-71228809D01*
X168640476Y-71228809D02*
X168545238Y-71276428D01*
X168545238Y-71276428D02*
X168164286Y-71276428D01*
X169164286Y-71371666D02*
X169926191Y-71371666D01*
X170402381Y-71752619D02*
X170402381Y-70752619D01*
X170402381Y-70752619D02*
X170640476Y-70752619D01*
X170640476Y-70752619D02*
X170783333Y-70800238D01*
X170783333Y-70800238D02*
X170878571Y-70895476D01*
X170878571Y-70895476D02*
X170926190Y-70990714D01*
X170926190Y-70990714D02*
X170973809Y-71181190D01*
X170973809Y-71181190D02*
X170973809Y-71324047D01*
X170973809Y-71324047D02*
X170926190Y-71514523D01*
X170926190Y-71514523D02*
X170878571Y-71609761D01*
X170878571Y-71609761D02*
X170783333Y-71705000D01*
X170783333Y-71705000D02*
X170640476Y-71752619D01*
X170640476Y-71752619D02*
X170402381Y-71752619D01*
X171783333Y-71705000D02*
X171688095Y-71752619D01*
X171688095Y-71752619D02*
X171497619Y-71752619D01*
X171497619Y-71752619D02*
X171402381Y-71705000D01*
X171402381Y-71705000D02*
X171354762Y-71609761D01*
X171354762Y-71609761D02*
X171354762Y-71228809D01*
X171354762Y-71228809D02*
X171402381Y-71133571D01*
X171402381Y-71133571D02*
X171497619Y-71085952D01*
X171497619Y-71085952D02*
X171688095Y-71085952D01*
X171688095Y-71085952D02*
X171783333Y-71133571D01*
X171783333Y-71133571D02*
X171830952Y-71228809D01*
X171830952Y-71228809D02*
X171830952Y-71324047D01*
X171830952Y-71324047D02*
X171354762Y-71419285D01*
X172164286Y-71085952D02*
X172402381Y-71752619D01*
X172402381Y-71752619D02*
X172640476Y-71085952D01*
X173021429Y-71752619D02*
X173021429Y-71085952D01*
X173021429Y-70752619D02*
X172973810Y-70800238D01*
X172973810Y-70800238D02*
X173021429Y-70847857D01*
X173021429Y-70847857D02*
X173069048Y-70800238D01*
X173069048Y-70800238D02*
X173021429Y-70752619D01*
X173021429Y-70752619D02*
X173021429Y-70847857D01*
X173926190Y-71705000D02*
X173830952Y-71752619D01*
X173830952Y-71752619D02*
X173640476Y-71752619D01*
X173640476Y-71752619D02*
X173545238Y-71705000D01*
X173545238Y-71705000D02*
X173497619Y-71657380D01*
X173497619Y-71657380D02*
X173450000Y-71562142D01*
X173450000Y-71562142D02*
X173450000Y-71276428D01*
X173450000Y-71276428D02*
X173497619Y-71181190D01*
X173497619Y-71181190D02*
X173545238Y-71133571D01*
X173545238Y-71133571D02*
X173640476Y-71085952D01*
X173640476Y-71085952D02*
X173830952Y-71085952D01*
X173830952Y-71085952D02*
X173926190Y-71133571D01*
X174735714Y-71705000D02*
X174640476Y-71752619D01*
X174640476Y-71752619D02*
X174450000Y-71752619D01*
X174450000Y-71752619D02*
X174354762Y-71705000D01*
X174354762Y-71705000D02*
X174307143Y-71609761D01*
X174307143Y-71609761D02*
X174307143Y-71228809D01*
X174307143Y-71228809D02*
X174354762Y-71133571D01*
X174354762Y-71133571D02*
X174450000Y-71085952D01*
X174450000Y-71085952D02*
X174640476Y-71085952D01*
X174640476Y-71085952D02*
X174735714Y-71133571D01*
X174735714Y-71133571D02*
X174783333Y-71228809D01*
X174783333Y-71228809D02*
X174783333Y-71324047D01*
X174783333Y-71324047D02*
X174307143Y-71419285D01*
X171283333Y-74122619D02*
X170950000Y-73646428D01*
X170711905Y-74122619D02*
X170711905Y-73122619D01*
X170711905Y-73122619D02*
X171092857Y-73122619D01*
X171092857Y-73122619D02*
X171188095Y-73170238D01*
X171188095Y-73170238D02*
X171235714Y-73217857D01*
X171235714Y-73217857D02*
X171283333Y-73313095D01*
X171283333Y-73313095D02*
X171283333Y-73455952D01*
X171283333Y-73455952D02*
X171235714Y-73551190D01*
X171235714Y-73551190D02*
X171188095Y-73598809D01*
X171188095Y-73598809D02*
X171092857Y-73646428D01*
X171092857Y-73646428D02*
X170711905Y-73646428D01*
X171616667Y-73122619D02*
X172235714Y-73122619D01*
X172235714Y-73122619D02*
X171902381Y-73503571D01*
X171902381Y-73503571D02*
X172045238Y-73503571D01*
X172045238Y-73503571D02*
X172140476Y-73551190D01*
X172140476Y-73551190D02*
X172188095Y-73598809D01*
X172188095Y-73598809D02*
X172235714Y-73694047D01*
X172235714Y-73694047D02*
X172235714Y-73932142D01*
X172235714Y-73932142D02*
X172188095Y-74027380D01*
X172188095Y-74027380D02*
X172140476Y-74075000D01*
X172140476Y-74075000D02*
X172045238Y-74122619D01*
X172045238Y-74122619D02*
X171759524Y-74122619D01*
X171759524Y-74122619D02*
X171664286Y-74075000D01*
X171664286Y-74075000D02*
X171616667Y-74027380D01*
%TO.C,R4*%
X161922619Y-71294285D02*
X161446428Y-71627618D01*
X161922619Y-71865713D02*
X160922619Y-71865713D01*
X160922619Y-71865713D02*
X160922619Y-71484761D01*
X160922619Y-71484761D02*
X160970238Y-71389523D01*
X160970238Y-71389523D02*
X161017857Y-71341904D01*
X161017857Y-71341904D02*
X161113095Y-71294285D01*
X161113095Y-71294285D02*
X161255952Y-71294285D01*
X161255952Y-71294285D02*
X161351190Y-71341904D01*
X161351190Y-71341904D02*
X161398809Y-71389523D01*
X161398809Y-71389523D02*
X161446428Y-71484761D01*
X161446428Y-71484761D02*
X161446428Y-71865713D01*
X161541666Y-70865713D02*
X161541666Y-70103809D01*
X161922619Y-69627618D02*
X160922619Y-69627618D01*
X160922619Y-69627618D02*
X160922619Y-69389523D01*
X160922619Y-69389523D02*
X160970238Y-69246666D01*
X160970238Y-69246666D02*
X161065476Y-69151428D01*
X161065476Y-69151428D02*
X161160714Y-69103809D01*
X161160714Y-69103809D02*
X161351190Y-69056190D01*
X161351190Y-69056190D02*
X161494047Y-69056190D01*
X161494047Y-69056190D02*
X161684523Y-69103809D01*
X161684523Y-69103809D02*
X161779761Y-69151428D01*
X161779761Y-69151428D02*
X161875000Y-69246666D01*
X161875000Y-69246666D02*
X161922619Y-69389523D01*
X161922619Y-69389523D02*
X161922619Y-69627618D01*
X161875000Y-68246666D02*
X161922619Y-68341904D01*
X161922619Y-68341904D02*
X161922619Y-68532380D01*
X161922619Y-68532380D02*
X161875000Y-68627618D01*
X161875000Y-68627618D02*
X161779761Y-68675237D01*
X161779761Y-68675237D02*
X161398809Y-68675237D01*
X161398809Y-68675237D02*
X161303571Y-68627618D01*
X161303571Y-68627618D02*
X161255952Y-68532380D01*
X161255952Y-68532380D02*
X161255952Y-68341904D01*
X161255952Y-68341904D02*
X161303571Y-68246666D01*
X161303571Y-68246666D02*
X161398809Y-68199047D01*
X161398809Y-68199047D02*
X161494047Y-68199047D01*
X161494047Y-68199047D02*
X161589285Y-68675237D01*
X161255952Y-67865713D02*
X161922619Y-67627618D01*
X161922619Y-67627618D02*
X161255952Y-67389523D01*
X161922619Y-67008570D02*
X161255952Y-67008570D01*
X160922619Y-67008570D02*
X160970238Y-67056189D01*
X160970238Y-67056189D02*
X161017857Y-67008570D01*
X161017857Y-67008570D02*
X160970238Y-66960951D01*
X160970238Y-66960951D02*
X160922619Y-67008570D01*
X160922619Y-67008570D02*
X161017857Y-67008570D01*
X161875000Y-66103809D02*
X161922619Y-66199047D01*
X161922619Y-66199047D02*
X161922619Y-66389523D01*
X161922619Y-66389523D02*
X161875000Y-66484761D01*
X161875000Y-66484761D02*
X161827380Y-66532380D01*
X161827380Y-66532380D02*
X161732142Y-66579999D01*
X161732142Y-66579999D02*
X161446428Y-66579999D01*
X161446428Y-66579999D02*
X161351190Y-66532380D01*
X161351190Y-66532380D02*
X161303571Y-66484761D01*
X161303571Y-66484761D02*
X161255952Y-66389523D01*
X161255952Y-66389523D02*
X161255952Y-66199047D01*
X161255952Y-66199047D02*
X161303571Y-66103809D01*
X161875000Y-65294285D02*
X161922619Y-65389523D01*
X161922619Y-65389523D02*
X161922619Y-65579999D01*
X161922619Y-65579999D02*
X161875000Y-65675237D01*
X161875000Y-65675237D02*
X161779761Y-65722856D01*
X161779761Y-65722856D02*
X161398809Y-65722856D01*
X161398809Y-65722856D02*
X161303571Y-65675237D01*
X161303571Y-65675237D02*
X161255952Y-65579999D01*
X161255952Y-65579999D02*
X161255952Y-65389523D01*
X161255952Y-65389523D02*
X161303571Y-65294285D01*
X161303571Y-65294285D02*
X161398809Y-65246666D01*
X161398809Y-65246666D02*
X161494047Y-65246666D01*
X161494047Y-65246666D02*
X161589285Y-65722856D01*
X164292619Y-68746666D02*
X163816428Y-69079999D01*
X164292619Y-69318094D02*
X163292619Y-69318094D01*
X163292619Y-69318094D02*
X163292619Y-68937142D01*
X163292619Y-68937142D02*
X163340238Y-68841904D01*
X163340238Y-68841904D02*
X163387857Y-68794285D01*
X163387857Y-68794285D02*
X163483095Y-68746666D01*
X163483095Y-68746666D02*
X163625952Y-68746666D01*
X163625952Y-68746666D02*
X163721190Y-68794285D01*
X163721190Y-68794285D02*
X163768809Y-68841904D01*
X163768809Y-68841904D02*
X163816428Y-68937142D01*
X163816428Y-68937142D02*
X163816428Y-69318094D01*
X163625952Y-67889523D02*
X164292619Y-67889523D01*
X163245000Y-68127618D02*
X163959285Y-68365713D01*
X163959285Y-68365713D02*
X163959285Y-67746666D01*
%TO.C,U5*%
X163974407Y-60600859D02*
X162974407Y-60600859D01*
X162974407Y-60600859D02*
X163688692Y-60267526D01*
X163688692Y-60267526D02*
X162974407Y-59934193D01*
X162974407Y-59934193D02*
X163974407Y-59934193D01*
X163926788Y-59505621D02*
X163974407Y-59362764D01*
X163974407Y-59362764D02*
X163974407Y-59124669D01*
X163974407Y-59124669D02*
X163926788Y-59029431D01*
X163926788Y-59029431D02*
X163879168Y-58981812D01*
X163879168Y-58981812D02*
X163783930Y-58934193D01*
X163783930Y-58934193D02*
X163688692Y-58934193D01*
X163688692Y-58934193D02*
X163593454Y-58981812D01*
X163593454Y-58981812D02*
X163545835Y-59029431D01*
X163545835Y-59029431D02*
X163498216Y-59124669D01*
X163498216Y-59124669D02*
X163450597Y-59315145D01*
X163450597Y-59315145D02*
X163402978Y-59410383D01*
X163402978Y-59410383D02*
X163355359Y-59458002D01*
X163355359Y-59458002D02*
X163260121Y-59505621D01*
X163260121Y-59505621D02*
X163164883Y-59505621D01*
X163164883Y-59505621D02*
X163069645Y-59458002D01*
X163069645Y-59458002D02*
X163022026Y-59410383D01*
X163022026Y-59410383D02*
X162974407Y-59315145D01*
X162974407Y-59315145D02*
X162974407Y-59077050D01*
X162974407Y-59077050D02*
X163022026Y-58934193D01*
X162974407Y-58029431D02*
X162974407Y-58505621D01*
X162974407Y-58505621D02*
X163450597Y-58553240D01*
X163450597Y-58553240D02*
X163402978Y-58505621D01*
X163402978Y-58505621D02*
X163355359Y-58410383D01*
X163355359Y-58410383D02*
X163355359Y-58172288D01*
X163355359Y-58172288D02*
X163402978Y-58077050D01*
X163402978Y-58077050D02*
X163450597Y-58029431D01*
X163450597Y-58029431D02*
X163545835Y-57981812D01*
X163545835Y-57981812D02*
X163783930Y-57981812D01*
X163783930Y-57981812D02*
X163879168Y-58029431D01*
X163879168Y-58029431D02*
X163926788Y-58077050D01*
X163926788Y-58077050D02*
X163974407Y-58172288D01*
X163974407Y-58172288D02*
X163974407Y-58410383D01*
X163974407Y-58410383D02*
X163926788Y-58505621D01*
X163926788Y-58505621D02*
X163879168Y-58553240D01*
X162974407Y-57124669D02*
X162974407Y-57315145D01*
X162974407Y-57315145D02*
X163022026Y-57410383D01*
X163022026Y-57410383D02*
X163069645Y-57458002D01*
X163069645Y-57458002D02*
X163212502Y-57553240D01*
X163212502Y-57553240D02*
X163402978Y-57600859D01*
X163402978Y-57600859D02*
X163783930Y-57600859D01*
X163783930Y-57600859D02*
X163879168Y-57553240D01*
X163879168Y-57553240D02*
X163926788Y-57505621D01*
X163926788Y-57505621D02*
X163974407Y-57410383D01*
X163974407Y-57410383D02*
X163974407Y-57219907D01*
X163974407Y-57219907D02*
X163926788Y-57124669D01*
X163926788Y-57124669D02*
X163879168Y-57077050D01*
X163879168Y-57077050D02*
X163783930Y-57029431D01*
X163783930Y-57029431D02*
X163545835Y-57029431D01*
X163545835Y-57029431D02*
X163450597Y-57077050D01*
X163450597Y-57077050D02*
X163402978Y-57124669D01*
X163402978Y-57124669D02*
X163355359Y-57219907D01*
X163355359Y-57219907D02*
X163355359Y-57410383D01*
X163355359Y-57410383D02*
X163402978Y-57505621D01*
X163402978Y-57505621D02*
X163450597Y-57553240D01*
X163450597Y-57553240D02*
X163545835Y-57600859D01*
X163974407Y-56077050D02*
X163974407Y-56648478D01*
X163974407Y-56362764D02*
X162974407Y-56362764D01*
X162974407Y-56362764D02*
X163117264Y-56458002D01*
X163117264Y-56458002D02*
X163212502Y-56553240D01*
X163212502Y-56553240D02*
X163260121Y-56648478D01*
X163974407Y-55124669D02*
X163974407Y-55696097D01*
X163974407Y-55410383D02*
X162974407Y-55410383D01*
X162974407Y-55410383D02*
X163117264Y-55505621D01*
X163117264Y-55505621D02*
X163212502Y-55600859D01*
X163212502Y-55600859D02*
X163260121Y-55696097D01*
%TO.C,R1*%
X162385714Y-80302619D02*
X162052381Y-79826428D01*
X161814286Y-80302619D02*
X161814286Y-79302619D01*
X161814286Y-79302619D02*
X162195238Y-79302619D01*
X162195238Y-79302619D02*
X162290476Y-79350238D01*
X162290476Y-79350238D02*
X162338095Y-79397857D01*
X162338095Y-79397857D02*
X162385714Y-79493095D01*
X162385714Y-79493095D02*
X162385714Y-79635952D01*
X162385714Y-79635952D02*
X162338095Y-79731190D01*
X162338095Y-79731190D02*
X162290476Y-79778809D01*
X162290476Y-79778809D02*
X162195238Y-79826428D01*
X162195238Y-79826428D02*
X161814286Y-79826428D01*
X162814286Y-79921666D02*
X163576191Y-79921666D01*
X164052381Y-80302619D02*
X164052381Y-79302619D01*
X164052381Y-79302619D02*
X164290476Y-79302619D01*
X164290476Y-79302619D02*
X164433333Y-79350238D01*
X164433333Y-79350238D02*
X164528571Y-79445476D01*
X164528571Y-79445476D02*
X164576190Y-79540714D01*
X164576190Y-79540714D02*
X164623809Y-79731190D01*
X164623809Y-79731190D02*
X164623809Y-79874047D01*
X164623809Y-79874047D02*
X164576190Y-80064523D01*
X164576190Y-80064523D02*
X164528571Y-80159761D01*
X164528571Y-80159761D02*
X164433333Y-80255000D01*
X164433333Y-80255000D02*
X164290476Y-80302619D01*
X164290476Y-80302619D02*
X164052381Y-80302619D01*
X165433333Y-80255000D02*
X165338095Y-80302619D01*
X165338095Y-80302619D02*
X165147619Y-80302619D01*
X165147619Y-80302619D02*
X165052381Y-80255000D01*
X165052381Y-80255000D02*
X165004762Y-80159761D01*
X165004762Y-80159761D02*
X165004762Y-79778809D01*
X165004762Y-79778809D02*
X165052381Y-79683571D01*
X165052381Y-79683571D02*
X165147619Y-79635952D01*
X165147619Y-79635952D02*
X165338095Y-79635952D01*
X165338095Y-79635952D02*
X165433333Y-79683571D01*
X165433333Y-79683571D02*
X165480952Y-79778809D01*
X165480952Y-79778809D02*
X165480952Y-79874047D01*
X165480952Y-79874047D02*
X165004762Y-79969285D01*
X165814286Y-79635952D02*
X166052381Y-80302619D01*
X166052381Y-80302619D02*
X166290476Y-79635952D01*
X166671429Y-80302619D02*
X166671429Y-79635952D01*
X166671429Y-79302619D02*
X166623810Y-79350238D01*
X166623810Y-79350238D02*
X166671429Y-79397857D01*
X166671429Y-79397857D02*
X166719048Y-79350238D01*
X166719048Y-79350238D02*
X166671429Y-79302619D01*
X166671429Y-79302619D02*
X166671429Y-79397857D01*
X167576190Y-80255000D02*
X167480952Y-80302619D01*
X167480952Y-80302619D02*
X167290476Y-80302619D01*
X167290476Y-80302619D02*
X167195238Y-80255000D01*
X167195238Y-80255000D02*
X167147619Y-80207380D01*
X167147619Y-80207380D02*
X167100000Y-80112142D01*
X167100000Y-80112142D02*
X167100000Y-79826428D01*
X167100000Y-79826428D02*
X167147619Y-79731190D01*
X167147619Y-79731190D02*
X167195238Y-79683571D01*
X167195238Y-79683571D02*
X167290476Y-79635952D01*
X167290476Y-79635952D02*
X167480952Y-79635952D01*
X167480952Y-79635952D02*
X167576190Y-79683571D01*
X168385714Y-80255000D02*
X168290476Y-80302619D01*
X168290476Y-80302619D02*
X168100000Y-80302619D01*
X168100000Y-80302619D02*
X168004762Y-80255000D01*
X168004762Y-80255000D02*
X167957143Y-80159761D01*
X167957143Y-80159761D02*
X167957143Y-79778809D01*
X167957143Y-79778809D02*
X168004762Y-79683571D01*
X168004762Y-79683571D02*
X168100000Y-79635952D01*
X168100000Y-79635952D02*
X168290476Y-79635952D01*
X168290476Y-79635952D02*
X168385714Y-79683571D01*
X168385714Y-79683571D02*
X168433333Y-79778809D01*
X168433333Y-79778809D02*
X168433333Y-79874047D01*
X168433333Y-79874047D02*
X167957143Y-79969285D01*
X164933333Y-77932619D02*
X164600000Y-77456428D01*
X164361905Y-77932619D02*
X164361905Y-76932619D01*
X164361905Y-76932619D02*
X164742857Y-76932619D01*
X164742857Y-76932619D02*
X164838095Y-76980238D01*
X164838095Y-76980238D02*
X164885714Y-77027857D01*
X164885714Y-77027857D02*
X164933333Y-77123095D01*
X164933333Y-77123095D02*
X164933333Y-77265952D01*
X164933333Y-77265952D02*
X164885714Y-77361190D01*
X164885714Y-77361190D02*
X164838095Y-77408809D01*
X164838095Y-77408809D02*
X164742857Y-77456428D01*
X164742857Y-77456428D02*
X164361905Y-77456428D01*
X165885714Y-77932619D02*
X165314286Y-77932619D01*
X165600000Y-77932619D02*
X165600000Y-76932619D01*
X165600000Y-76932619D02*
X165504762Y-77075476D01*
X165504762Y-77075476D02*
X165409524Y-77170714D01*
X165409524Y-77170714D02*
X165314286Y-77218333D01*
%TO.C,RF1*%
X88387160Y-44771433D02*
X87910969Y-45104766D01*
X88387160Y-45342861D02*
X87387160Y-45342861D01*
X87387160Y-45342861D02*
X87387160Y-44961909D01*
X87387160Y-44961909D02*
X87434779Y-44866671D01*
X87434779Y-44866671D02*
X87482398Y-44819052D01*
X87482398Y-44819052D02*
X87577636Y-44771433D01*
X87577636Y-44771433D02*
X87720493Y-44771433D01*
X87720493Y-44771433D02*
X87815731Y-44819052D01*
X87815731Y-44819052D02*
X87863350Y-44866671D01*
X87863350Y-44866671D02*
X87910969Y-44961909D01*
X87910969Y-44961909D02*
X87910969Y-45342861D01*
X87863350Y-44009528D02*
X87863350Y-44342861D01*
X88387160Y-44342861D02*
X87387160Y-44342861D01*
X87387160Y-44342861D02*
X87387160Y-43866671D01*
X88387160Y-43485718D02*
X87387160Y-43485718D01*
X87387160Y-43485718D02*
X87387160Y-43247623D01*
X87387160Y-43247623D02*
X87434779Y-43104766D01*
X87434779Y-43104766D02*
X87530017Y-43009528D01*
X87530017Y-43009528D02*
X87625255Y-42961909D01*
X87625255Y-42961909D02*
X87815731Y-42914290D01*
X87815731Y-42914290D02*
X87958588Y-42914290D01*
X87958588Y-42914290D02*
X88149064Y-42961909D01*
X88149064Y-42961909D02*
X88244302Y-43009528D01*
X88244302Y-43009528D02*
X88339541Y-43104766D01*
X88339541Y-43104766D02*
X88387160Y-43247623D01*
X88387160Y-43247623D02*
X88387160Y-43485718D01*
X88387160Y-42438099D02*
X88387160Y-42247623D01*
X88387160Y-42247623D02*
X88339541Y-42152385D01*
X88339541Y-42152385D02*
X88291921Y-42104766D01*
X88291921Y-42104766D02*
X88149064Y-42009528D01*
X88149064Y-42009528D02*
X87958588Y-41961909D01*
X87958588Y-41961909D02*
X87577636Y-41961909D01*
X87577636Y-41961909D02*
X87482398Y-42009528D01*
X87482398Y-42009528D02*
X87434779Y-42057147D01*
X87434779Y-42057147D02*
X87387160Y-42152385D01*
X87387160Y-42152385D02*
X87387160Y-42342861D01*
X87387160Y-42342861D02*
X87434779Y-42438099D01*
X87434779Y-42438099D02*
X87482398Y-42485718D01*
X87482398Y-42485718D02*
X87577636Y-42533337D01*
X87577636Y-42533337D02*
X87815731Y-42533337D01*
X87815731Y-42533337D02*
X87910969Y-42485718D01*
X87910969Y-42485718D02*
X87958588Y-42438099D01*
X87958588Y-42438099D02*
X88006207Y-42342861D01*
X88006207Y-42342861D02*
X88006207Y-42152385D01*
X88006207Y-42152385D02*
X87958588Y-42057147D01*
X87958588Y-42057147D02*
X87910969Y-42009528D01*
X87910969Y-42009528D02*
X87815731Y-41961909D01*
X87387160Y-41342861D02*
X87387160Y-41247623D01*
X87387160Y-41247623D02*
X87434779Y-41152385D01*
X87434779Y-41152385D02*
X87482398Y-41104766D01*
X87482398Y-41104766D02*
X87577636Y-41057147D01*
X87577636Y-41057147D02*
X87768112Y-41009528D01*
X87768112Y-41009528D02*
X88006207Y-41009528D01*
X88006207Y-41009528D02*
X88196683Y-41057147D01*
X88196683Y-41057147D02*
X88291921Y-41104766D01*
X88291921Y-41104766D02*
X88339541Y-41152385D01*
X88339541Y-41152385D02*
X88387160Y-41247623D01*
X88387160Y-41247623D02*
X88387160Y-41342861D01*
X88387160Y-41342861D02*
X88339541Y-41438099D01*
X88339541Y-41438099D02*
X88291921Y-41485718D01*
X88291921Y-41485718D02*
X88196683Y-41533337D01*
X88196683Y-41533337D02*
X88006207Y-41580956D01*
X88006207Y-41580956D02*
X87768112Y-41580956D01*
X87768112Y-41580956D02*
X87577636Y-41533337D01*
X87577636Y-41533337D02*
X87482398Y-41485718D01*
X87482398Y-41485718D02*
X87434779Y-41438099D01*
X87434779Y-41438099D02*
X87387160Y-41342861D01*
X87387160Y-40390480D02*
X87387160Y-40295242D01*
X87387160Y-40295242D02*
X87434779Y-40200004D01*
X87434779Y-40200004D02*
X87482398Y-40152385D01*
X87482398Y-40152385D02*
X87577636Y-40104766D01*
X87577636Y-40104766D02*
X87768112Y-40057147D01*
X87768112Y-40057147D02*
X88006207Y-40057147D01*
X88006207Y-40057147D02*
X88196683Y-40104766D01*
X88196683Y-40104766D02*
X88291921Y-40152385D01*
X88291921Y-40152385D02*
X88339541Y-40200004D01*
X88339541Y-40200004D02*
X88387160Y-40295242D01*
X88387160Y-40295242D02*
X88387160Y-40390480D01*
X88387160Y-40390480D02*
X88339541Y-40485718D01*
X88339541Y-40485718D02*
X88291921Y-40533337D01*
X88291921Y-40533337D02*
X88196683Y-40580956D01*
X88196683Y-40580956D02*
X88006207Y-40628575D01*
X88006207Y-40628575D02*
X87768112Y-40628575D01*
X87768112Y-40628575D02*
X87577636Y-40580956D01*
X87577636Y-40580956D02*
X87482398Y-40533337D01*
X87482398Y-40533337D02*
X87434779Y-40485718D01*
X87434779Y-40485718D02*
X87387160Y-40390480D01*
X88006207Y-39628575D02*
X88006207Y-38866671D01*
X88387160Y-39247623D02*
X87625255Y-39247623D01*
X88006207Y-38390480D02*
X88006207Y-37628576D01*
X88387160Y-36580957D02*
X87910969Y-36914290D01*
X88387160Y-37152385D02*
X87387160Y-37152385D01*
X87387160Y-37152385D02*
X87387160Y-36771433D01*
X87387160Y-36771433D02*
X87434779Y-36676195D01*
X87434779Y-36676195D02*
X87482398Y-36628576D01*
X87482398Y-36628576D02*
X87577636Y-36580957D01*
X87577636Y-36580957D02*
X87720493Y-36580957D01*
X87720493Y-36580957D02*
X87815731Y-36628576D01*
X87815731Y-36628576D02*
X87863350Y-36676195D01*
X87863350Y-36676195D02*
X87910969Y-36771433D01*
X87910969Y-36771433D02*
X87910969Y-37152385D01*
X87863350Y-35819052D02*
X87863350Y-36152385D01*
X88387160Y-36152385D02*
X87387160Y-36152385D01*
X87387160Y-36152385D02*
X87387160Y-35676195D01*
X88482398Y-35533338D02*
X88482398Y-34771433D01*
X88387160Y-34533337D02*
X87387160Y-34533337D01*
X87387160Y-34533337D02*
X88101445Y-34200004D01*
X88101445Y-34200004D02*
X87387160Y-33866671D01*
X87387160Y-33866671D02*
X88387160Y-33866671D01*
X88387160Y-33247623D02*
X88339541Y-33342861D01*
X88339541Y-33342861D02*
X88291921Y-33390480D01*
X88291921Y-33390480D02*
X88196683Y-33438099D01*
X88196683Y-33438099D02*
X87910969Y-33438099D01*
X87910969Y-33438099D02*
X87815731Y-33390480D01*
X87815731Y-33390480D02*
X87768112Y-33342861D01*
X87768112Y-33342861D02*
X87720493Y-33247623D01*
X87720493Y-33247623D02*
X87720493Y-33104766D01*
X87720493Y-33104766D02*
X87768112Y-33009528D01*
X87768112Y-33009528D02*
X87815731Y-32961909D01*
X87815731Y-32961909D02*
X87910969Y-32914290D01*
X87910969Y-32914290D02*
X88196683Y-32914290D01*
X88196683Y-32914290D02*
X88291921Y-32961909D01*
X88291921Y-32961909D02*
X88339541Y-33009528D01*
X88339541Y-33009528D02*
X88387160Y-33104766D01*
X88387160Y-33104766D02*
X88387160Y-33247623D01*
X88387160Y-32057147D02*
X87387160Y-32057147D01*
X88339541Y-32057147D02*
X88387160Y-32152385D01*
X88387160Y-32152385D02*
X88387160Y-32342861D01*
X88387160Y-32342861D02*
X88339541Y-32438099D01*
X88339541Y-32438099D02*
X88291921Y-32485718D01*
X88291921Y-32485718D02*
X88196683Y-32533337D01*
X88196683Y-32533337D02*
X87910969Y-32533337D01*
X87910969Y-32533337D02*
X87815731Y-32485718D01*
X87815731Y-32485718D02*
X87768112Y-32438099D01*
X87768112Y-32438099D02*
X87720493Y-32342861D01*
X87720493Y-32342861D02*
X87720493Y-32152385D01*
X87720493Y-32152385D02*
X87768112Y-32057147D01*
X87720493Y-31152385D02*
X88387160Y-31152385D01*
X87720493Y-31580956D02*
X88244302Y-31580956D01*
X88244302Y-31580956D02*
X88339541Y-31533337D01*
X88339541Y-31533337D02*
X88387160Y-31438099D01*
X88387160Y-31438099D02*
X88387160Y-31295242D01*
X88387160Y-31295242D02*
X88339541Y-31200004D01*
X88339541Y-31200004D02*
X88291921Y-31152385D01*
X88387160Y-30533337D02*
X88339541Y-30628575D01*
X88339541Y-30628575D02*
X88244302Y-30676194D01*
X88244302Y-30676194D02*
X87387160Y-30676194D01*
X88339541Y-29771432D02*
X88387160Y-29866670D01*
X88387160Y-29866670D02*
X88387160Y-30057146D01*
X88387160Y-30057146D02*
X88339541Y-30152384D01*
X88339541Y-30152384D02*
X88244302Y-30200003D01*
X88244302Y-30200003D02*
X87863350Y-30200003D01*
X87863350Y-30200003D02*
X87768112Y-30152384D01*
X87768112Y-30152384D02*
X87720493Y-30057146D01*
X87720493Y-30057146D02*
X87720493Y-29866670D01*
X87720493Y-29866670D02*
X87768112Y-29771432D01*
X87768112Y-29771432D02*
X87863350Y-29723813D01*
X87863350Y-29723813D02*
X87958588Y-29723813D01*
X87958588Y-29723813D02*
X88053826Y-30200003D01*
%TO.C,mpu1*%
X127261904Y-73578333D02*
X127214285Y-73625952D01*
X127214285Y-73625952D02*
X127119047Y-73673571D01*
X127119047Y-73673571D02*
X126928571Y-73578333D01*
X126928571Y-73578333D02*
X126833333Y-73625952D01*
X126833333Y-73625952D02*
X126785714Y-73673571D01*
X128809523Y-70657380D02*
X128809523Y-71324047D01*
X128809523Y-71228809D02*
X128761904Y-71276428D01*
X128761904Y-71276428D02*
X128666666Y-71324047D01*
X128666666Y-71324047D02*
X128523809Y-71324047D01*
X128523809Y-71324047D02*
X128428571Y-71276428D01*
X128428571Y-71276428D02*
X128380952Y-71181190D01*
X128380952Y-71181190D02*
X128380952Y-70657380D01*
X128380952Y-71181190D02*
X128333333Y-71276428D01*
X128333333Y-71276428D02*
X128238095Y-71324047D01*
X128238095Y-71324047D02*
X128095238Y-71324047D01*
X128095238Y-71324047D02*
X127999999Y-71276428D01*
X127999999Y-71276428D02*
X127952380Y-71181190D01*
X127952380Y-71181190D02*
X127952380Y-70657380D01*
X127476190Y-71324047D02*
X127476190Y-70324047D01*
X127476190Y-71276428D02*
X127380952Y-71324047D01*
X127380952Y-71324047D02*
X127190476Y-71324047D01*
X127190476Y-71324047D02*
X127095238Y-71276428D01*
X127095238Y-71276428D02*
X127047619Y-71228809D01*
X127047619Y-71228809D02*
X127000000Y-71133571D01*
X127000000Y-71133571D02*
X127000000Y-70847857D01*
X127000000Y-70847857D02*
X127047619Y-70752619D01*
X127047619Y-70752619D02*
X127095238Y-70705000D01*
X127095238Y-70705000D02*
X127190476Y-70657380D01*
X127190476Y-70657380D02*
X127380952Y-70657380D01*
X127380952Y-70657380D02*
X127476190Y-70705000D01*
X126142857Y-71324047D02*
X126142857Y-70657380D01*
X126571428Y-71324047D02*
X126571428Y-70800238D01*
X126571428Y-70800238D02*
X126523809Y-70705000D01*
X126523809Y-70705000D02*
X126428571Y-70657380D01*
X126428571Y-70657380D02*
X126285714Y-70657380D01*
X126285714Y-70657380D02*
X126190476Y-70705000D01*
X126190476Y-70705000D02*
X126142857Y-70752619D01*
X125142857Y-70657380D02*
X125714285Y-70657380D01*
X125428571Y-70657380D02*
X125428571Y-71657380D01*
X125428571Y-71657380D02*
X125523809Y-71514523D01*
X125523809Y-71514523D02*
X125619047Y-71419285D01*
X125619047Y-71419285D02*
X125714285Y-71371666D01*
X135655890Y-77757056D02*
X134989223Y-77757056D01*
X135084461Y-77757056D02*
X135036842Y-77709437D01*
X135036842Y-77709437D02*
X134989223Y-77614199D01*
X134989223Y-77614199D02*
X134989223Y-77471342D01*
X134989223Y-77471342D02*
X135036842Y-77376104D01*
X135036842Y-77376104D02*
X135132080Y-77328485D01*
X135132080Y-77328485D02*
X135655890Y-77328485D01*
X135132080Y-77328485D02*
X135036842Y-77280866D01*
X135036842Y-77280866D02*
X134989223Y-77185628D01*
X134989223Y-77185628D02*
X134989223Y-77042771D01*
X134989223Y-77042771D02*
X135036842Y-76947532D01*
X135036842Y-76947532D02*
X135132080Y-76899913D01*
X135132080Y-76899913D02*
X135655890Y-76899913D01*
X134989223Y-76423723D02*
X135989223Y-76423723D01*
X135036842Y-76423723D02*
X134989223Y-76328485D01*
X134989223Y-76328485D02*
X134989223Y-76138009D01*
X134989223Y-76138009D02*
X135036842Y-76042771D01*
X135036842Y-76042771D02*
X135084461Y-75995152D01*
X135084461Y-75995152D02*
X135179699Y-75947533D01*
X135179699Y-75947533D02*
X135465413Y-75947533D01*
X135465413Y-75947533D02*
X135560651Y-75995152D01*
X135560651Y-75995152D02*
X135608271Y-76042771D01*
X135608271Y-76042771D02*
X135655890Y-76138009D01*
X135655890Y-76138009D02*
X135655890Y-76328485D01*
X135655890Y-76328485D02*
X135608271Y-76423723D01*
X134989223Y-75090390D02*
X135655890Y-75090390D01*
X134989223Y-75518961D02*
X135513032Y-75518961D01*
X135513032Y-75518961D02*
X135608271Y-75471342D01*
X135608271Y-75471342D02*
X135655890Y-75376104D01*
X135655890Y-75376104D02*
X135655890Y-75233247D01*
X135655890Y-75233247D02*
X135608271Y-75138009D01*
X135608271Y-75138009D02*
X135560651Y-75090390D01*
X135655890Y-74090390D02*
X135655890Y-74661818D01*
X135655890Y-74376104D02*
X134655890Y-74376104D01*
X134655890Y-74376104D02*
X134798747Y-74471342D01*
X134798747Y-74471342D02*
X134893985Y-74566580D01*
X134893985Y-74566580D02*
X134941604Y-74661818D01*
%TO.C,R2*%
X162385714Y-85382619D02*
X162052381Y-84906428D01*
X161814286Y-85382619D02*
X161814286Y-84382619D01*
X161814286Y-84382619D02*
X162195238Y-84382619D01*
X162195238Y-84382619D02*
X162290476Y-84430238D01*
X162290476Y-84430238D02*
X162338095Y-84477857D01*
X162338095Y-84477857D02*
X162385714Y-84573095D01*
X162385714Y-84573095D02*
X162385714Y-84715952D01*
X162385714Y-84715952D02*
X162338095Y-84811190D01*
X162338095Y-84811190D02*
X162290476Y-84858809D01*
X162290476Y-84858809D02*
X162195238Y-84906428D01*
X162195238Y-84906428D02*
X161814286Y-84906428D01*
X162814286Y-85001666D02*
X163576191Y-85001666D01*
X164052381Y-85382619D02*
X164052381Y-84382619D01*
X164052381Y-84382619D02*
X164290476Y-84382619D01*
X164290476Y-84382619D02*
X164433333Y-84430238D01*
X164433333Y-84430238D02*
X164528571Y-84525476D01*
X164528571Y-84525476D02*
X164576190Y-84620714D01*
X164576190Y-84620714D02*
X164623809Y-84811190D01*
X164623809Y-84811190D02*
X164623809Y-84954047D01*
X164623809Y-84954047D02*
X164576190Y-85144523D01*
X164576190Y-85144523D02*
X164528571Y-85239761D01*
X164528571Y-85239761D02*
X164433333Y-85335000D01*
X164433333Y-85335000D02*
X164290476Y-85382619D01*
X164290476Y-85382619D02*
X164052381Y-85382619D01*
X165433333Y-85335000D02*
X165338095Y-85382619D01*
X165338095Y-85382619D02*
X165147619Y-85382619D01*
X165147619Y-85382619D02*
X165052381Y-85335000D01*
X165052381Y-85335000D02*
X165004762Y-85239761D01*
X165004762Y-85239761D02*
X165004762Y-84858809D01*
X165004762Y-84858809D02*
X165052381Y-84763571D01*
X165052381Y-84763571D02*
X165147619Y-84715952D01*
X165147619Y-84715952D02*
X165338095Y-84715952D01*
X165338095Y-84715952D02*
X165433333Y-84763571D01*
X165433333Y-84763571D02*
X165480952Y-84858809D01*
X165480952Y-84858809D02*
X165480952Y-84954047D01*
X165480952Y-84954047D02*
X165004762Y-85049285D01*
X165814286Y-84715952D02*
X166052381Y-85382619D01*
X166052381Y-85382619D02*
X166290476Y-84715952D01*
X166671429Y-85382619D02*
X166671429Y-84715952D01*
X166671429Y-84382619D02*
X166623810Y-84430238D01*
X166623810Y-84430238D02*
X166671429Y-84477857D01*
X166671429Y-84477857D02*
X166719048Y-84430238D01*
X166719048Y-84430238D02*
X166671429Y-84382619D01*
X166671429Y-84382619D02*
X166671429Y-84477857D01*
X167576190Y-85335000D02*
X167480952Y-85382619D01*
X167480952Y-85382619D02*
X167290476Y-85382619D01*
X167290476Y-85382619D02*
X167195238Y-85335000D01*
X167195238Y-85335000D02*
X167147619Y-85287380D01*
X167147619Y-85287380D02*
X167100000Y-85192142D01*
X167100000Y-85192142D02*
X167100000Y-84906428D01*
X167100000Y-84906428D02*
X167147619Y-84811190D01*
X167147619Y-84811190D02*
X167195238Y-84763571D01*
X167195238Y-84763571D02*
X167290476Y-84715952D01*
X167290476Y-84715952D02*
X167480952Y-84715952D01*
X167480952Y-84715952D02*
X167576190Y-84763571D01*
X168385714Y-85335000D02*
X168290476Y-85382619D01*
X168290476Y-85382619D02*
X168100000Y-85382619D01*
X168100000Y-85382619D02*
X168004762Y-85335000D01*
X168004762Y-85335000D02*
X167957143Y-85239761D01*
X167957143Y-85239761D02*
X167957143Y-84858809D01*
X167957143Y-84858809D02*
X168004762Y-84763571D01*
X168004762Y-84763571D02*
X168100000Y-84715952D01*
X168100000Y-84715952D02*
X168290476Y-84715952D01*
X168290476Y-84715952D02*
X168385714Y-84763571D01*
X168385714Y-84763571D02*
X168433333Y-84858809D01*
X168433333Y-84858809D02*
X168433333Y-84954047D01*
X168433333Y-84954047D02*
X167957143Y-85049285D01*
X164933333Y-83012619D02*
X164600000Y-82536428D01*
X164361905Y-83012619D02*
X164361905Y-82012619D01*
X164361905Y-82012619D02*
X164742857Y-82012619D01*
X164742857Y-82012619D02*
X164838095Y-82060238D01*
X164838095Y-82060238D02*
X164885714Y-82107857D01*
X164885714Y-82107857D02*
X164933333Y-82203095D01*
X164933333Y-82203095D02*
X164933333Y-82345952D01*
X164933333Y-82345952D02*
X164885714Y-82441190D01*
X164885714Y-82441190D02*
X164838095Y-82488809D01*
X164838095Y-82488809D02*
X164742857Y-82536428D01*
X164742857Y-82536428D02*
X164361905Y-82536428D01*
X165314286Y-82107857D02*
X165361905Y-82060238D01*
X165361905Y-82060238D02*
X165457143Y-82012619D01*
X165457143Y-82012619D02*
X165695238Y-82012619D01*
X165695238Y-82012619D02*
X165790476Y-82060238D01*
X165790476Y-82060238D02*
X165838095Y-82107857D01*
X165838095Y-82107857D02*
X165885714Y-82203095D01*
X165885714Y-82203095D02*
X165885714Y-82298333D01*
X165885714Y-82298333D02*
X165838095Y-82441190D01*
X165838095Y-82441190D02*
X165266667Y-83012619D01*
X165266667Y-83012619D02*
X165885714Y-83012619D01*
%TO.C,D1*%
X133021817Y-40856063D02*
X133021817Y-40379873D01*
X133307532Y-40951301D02*
X132307532Y-40617968D01*
X132307532Y-40617968D02*
X133307532Y-40284635D01*
X133259913Y-39998920D02*
X133307532Y-39856063D01*
X133307532Y-39856063D02*
X133307532Y-39617968D01*
X133307532Y-39617968D02*
X133259913Y-39522730D01*
X133259913Y-39522730D02*
X133212293Y-39475111D01*
X133212293Y-39475111D02*
X133117055Y-39427492D01*
X133117055Y-39427492D02*
X133021817Y-39427492D01*
X133021817Y-39427492D02*
X132926579Y-39475111D01*
X132926579Y-39475111D02*
X132878960Y-39522730D01*
X132878960Y-39522730D02*
X132831341Y-39617968D01*
X132831341Y-39617968D02*
X132783722Y-39808444D01*
X132783722Y-39808444D02*
X132736103Y-39903682D01*
X132736103Y-39903682D02*
X132688484Y-39951301D01*
X132688484Y-39951301D02*
X132593246Y-39998920D01*
X132593246Y-39998920D02*
X132498008Y-39998920D01*
X132498008Y-39998920D02*
X132402770Y-39951301D01*
X132402770Y-39951301D02*
X132355151Y-39903682D01*
X132355151Y-39903682D02*
X132307532Y-39808444D01*
X132307532Y-39808444D02*
X132307532Y-39570349D01*
X132307532Y-39570349D02*
X132355151Y-39427492D01*
X133307532Y-38998920D02*
X132307532Y-38998920D01*
X132307532Y-38998920D02*
X133021817Y-38665587D01*
X133021817Y-38665587D02*
X132307532Y-38332254D01*
X132307532Y-38332254D02*
X133307532Y-38332254D01*
X132783722Y-37522730D02*
X132831341Y-37379873D01*
X132831341Y-37379873D02*
X132878960Y-37332254D01*
X132878960Y-37332254D02*
X132974198Y-37284635D01*
X132974198Y-37284635D02*
X133117055Y-37284635D01*
X133117055Y-37284635D02*
X133212293Y-37332254D01*
X133212293Y-37332254D02*
X133259913Y-37379873D01*
X133259913Y-37379873D02*
X133307532Y-37475111D01*
X133307532Y-37475111D02*
X133307532Y-37856063D01*
X133307532Y-37856063D02*
X132307532Y-37856063D01*
X132307532Y-37856063D02*
X132307532Y-37522730D01*
X132307532Y-37522730D02*
X132355151Y-37427492D01*
X132355151Y-37427492D02*
X132402770Y-37379873D01*
X132402770Y-37379873D02*
X132498008Y-37332254D01*
X132498008Y-37332254D02*
X132593246Y-37332254D01*
X132593246Y-37332254D02*
X132688484Y-37379873D01*
X132688484Y-37379873D02*
X132736103Y-37427492D01*
X132736103Y-37427492D02*
X132783722Y-37522730D01*
X132783722Y-37522730D02*
X132783722Y-37856063D01*
X132926579Y-36856063D02*
X132926579Y-36094159D01*
X133307532Y-35617968D02*
X132307532Y-35617968D01*
X132307532Y-35617968D02*
X133021817Y-35284635D01*
X133021817Y-35284635D02*
X132307532Y-34951302D01*
X132307532Y-34951302D02*
X133307532Y-34951302D01*
X132307532Y-34617968D02*
X132307532Y-34046540D01*
X133307532Y-34332254D02*
X132307532Y-34332254D01*
X132783722Y-33379873D02*
X132831341Y-33237016D01*
X132831341Y-33237016D02*
X132878960Y-33189397D01*
X132878960Y-33189397D02*
X132974198Y-33141778D01*
X132974198Y-33141778D02*
X133117055Y-33141778D01*
X133117055Y-33141778D02*
X133212293Y-33189397D01*
X133212293Y-33189397D02*
X133259913Y-33237016D01*
X133259913Y-33237016D02*
X133307532Y-33332254D01*
X133307532Y-33332254D02*
X133307532Y-33713206D01*
X133307532Y-33713206D02*
X132307532Y-33713206D01*
X132307532Y-33713206D02*
X132307532Y-33379873D01*
X132307532Y-33379873D02*
X132355151Y-33284635D01*
X132355151Y-33284635D02*
X132402770Y-33237016D01*
X132402770Y-33237016D02*
X132498008Y-33189397D01*
X132498008Y-33189397D02*
X132593246Y-33189397D01*
X132593246Y-33189397D02*
X132688484Y-33237016D01*
X132688484Y-33237016D02*
X132736103Y-33284635D01*
X132736103Y-33284635D02*
X132783722Y-33379873D01*
X132783722Y-33379873D02*
X132783722Y-33713206D01*
X132307532Y-32522730D02*
X132307532Y-32427492D01*
X132307532Y-32427492D02*
X132355151Y-32332254D01*
X132355151Y-32332254D02*
X132402770Y-32284635D01*
X132402770Y-32284635D02*
X132498008Y-32237016D01*
X132498008Y-32237016D02*
X132688484Y-32189397D01*
X132688484Y-32189397D02*
X132926579Y-32189397D01*
X132926579Y-32189397D02*
X133117055Y-32237016D01*
X133117055Y-32237016D02*
X133212293Y-32284635D01*
X133212293Y-32284635D02*
X133259913Y-32332254D01*
X133259913Y-32332254D02*
X133307532Y-32427492D01*
X133307532Y-32427492D02*
X133307532Y-32522730D01*
X133307532Y-32522730D02*
X133259913Y-32617968D01*
X133259913Y-32617968D02*
X133212293Y-32665587D01*
X133212293Y-32665587D02*
X133117055Y-32713206D01*
X133117055Y-32713206D02*
X132926579Y-32760825D01*
X132926579Y-32760825D02*
X132688484Y-32760825D01*
X132688484Y-32760825D02*
X132498008Y-32713206D01*
X132498008Y-32713206D02*
X132402770Y-32665587D01*
X132402770Y-32665587D02*
X132355151Y-32617968D01*
X132355151Y-32617968D02*
X132307532Y-32522730D01*
X132926579Y-31760825D02*
X132926579Y-30998921D01*
X132307532Y-30332254D02*
X132307532Y-30237016D01*
X132307532Y-30237016D02*
X132355151Y-30141778D01*
X132355151Y-30141778D02*
X132402770Y-30094159D01*
X132402770Y-30094159D02*
X132498008Y-30046540D01*
X132498008Y-30046540D02*
X132688484Y-29998921D01*
X132688484Y-29998921D02*
X132926579Y-29998921D01*
X132926579Y-29998921D02*
X133117055Y-30046540D01*
X133117055Y-30046540D02*
X133212293Y-30094159D01*
X133212293Y-30094159D02*
X133259913Y-30141778D01*
X133259913Y-30141778D02*
X133307532Y-30237016D01*
X133307532Y-30237016D02*
X133307532Y-30332254D01*
X133307532Y-30332254D02*
X133259913Y-30427492D01*
X133259913Y-30427492D02*
X133212293Y-30475111D01*
X133212293Y-30475111D02*
X133117055Y-30522730D01*
X133117055Y-30522730D02*
X132926579Y-30570349D01*
X132926579Y-30570349D02*
X132688484Y-30570349D01*
X132688484Y-30570349D02*
X132498008Y-30522730D01*
X132498008Y-30522730D02*
X132402770Y-30475111D01*
X132402770Y-30475111D02*
X132355151Y-30427492D01*
X132355151Y-30427492D02*
X132307532Y-30332254D01*
X133021817Y-29617968D02*
X133021817Y-29141778D01*
X133307532Y-29713206D02*
X132307532Y-29379873D01*
X132307532Y-29379873D02*
X133307532Y-29046540D01*
X132307532Y-28808444D02*
X132307532Y-28189397D01*
X132307532Y-28189397D02*
X132688484Y-28522730D01*
X132688484Y-28522730D02*
X132688484Y-28379873D01*
X132688484Y-28379873D02*
X132736103Y-28284635D01*
X132736103Y-28284635D02*
X132783722Y-28237016D01*
X132783722Y-28237016D02*
X132878960Y-28189397D01*
X132878960Y-28189397D02*
X133117055Y-28189397D01*
X133117055Y-28189397D02*
X133212293Y-28237016D01*
X133212293Y-28237016D02*
X133259913Y-28284635D01*
X133259913Y-28284635D02*
X133307532Y-28379873D01*
X133307532Y-28379873D02*
X133307532Y-28665587D01*
X133307532Y-28665587D02*
X133259913Y-28760825D01*
X133259913Y-28760825D02*
X133212293Y-28808444D01*
X133021817Y-27808444D02*
X133021817Y-27332254D01*
X133307532Y-27903682D02*
X132307532Y-27570349D01*
X132307532Y-27570349D02*
X133307532Y-27237016D01*
X132402770Y-26951301D02*
X132355151Y-26903682D01*
X132355151Y-26903682D02*
X132307532Y-26808444D01*
X132307532Y-26808444D02*
X132307532Y-26570349D01*
X132307532Y-26570349D02*
X132355151Y-26475111D01*
X132355151Y-26475111D02*
X132402770Y-26427492D01*
X132402770Y-26427492D02*
X132498008Y-26379873D01*
X132498008Y-26379873D02*
X132593246Y-26379873D01*
X132593246Y-26379873D02*
X132736103Y-26427492D01*
X132736103Y-26427492D02*
X133307532Y-26998920D01*
X133307532Y-26998920D02*
X133307532Y-26379873D01*
X136823721Y-35214250D02*
X135823721Y-35214250D01*
X135823721Y-35214250D02*
X135823721Y-34976155D01*
X135823721Y-34976155D02*
X135871340Y-34833298D01*
X135871340Y-34833298D02*
X135966578Y-34738060D01*
X135966578Y-34738060D02*
X136061816Y-34690441D01*
X136061816Y-34690441D02*
X136252292Y-34642822D01*
X136252292Y-34642822D02*
X136395149Y-34642822D01*
X136395149Y-34642822D02*
X136585625Y-34690441D01*
X136585625Y-34690441D02*
X136680863Y-34738060D01*
X136680863Y-34738060D02*
X136776102Y-34833298D01*
X136776102Y-34833298D02*
X136823721Y-34976155D01*
X136823721Y-34976155D02*
X136823721Y-35214250D01*
X136823721Y-33690441D02*
X136823721Y-34261869D01*
X136823721Y-33976155D02*
X135823721Y-33976155D01*
X135823721Y-33976155D02*
X135966578Y-34071393D01*
X135966578Y-34071393D02*
X136061816Y-34166631D01*
X136061816Y-34166631D02*
X136109435Y-34261869D01*
X142771905Y-34712619D02*
X142771905Y-33712619D01*
X142771905Y-33712619D02*
X143010000Y-33712619D01*
X143010000Y-33712619D02*
X143152857Y-33760238D01*
X143152857Y-33760238D02*
X143248095Y-33855476D01*
X143248095Y-33855476D02*
X143295714Y-33950714D01*
X143295714Y-33950714D02*
X143343333Y-34141190D01*
X143343333Y-34141190D02*
X143343333Y-34284047D01*
X143343333Y-34284047D02*
X143295714Y-34474523D01*
X143295714Y-34474523D02*
X143248095Y-34569761D01*
X143248095Y-34569761D02*
X143152857Y-34665000D01*
X143152857Y-34665000D02*
X143010000Y-34712619D01*
X143010000Y-34712619D02*
X142771905Y-34712619D01*
X144295714Y-34712619D02*
X143724286Y-34712619D01*
X144010000Y-34712619D02*
X144010000Y-33712619D01*
X144010000Y-33712619D02*
X143914762Y-33855476D01*
X143914762Y-33855476D02*
X143819524Y-33950714D01*
X143819524Y-33950714D02*
X143724286Y-33998333D01*
D10*
%TO.C,BZ1*%
X185906949Y-53329999D02*
G75*
G03*
X185906949Y-53329999I-6000000J0D01*
G01*
X180906949Y-53329999D02*
G75*
G03*
X180906949Y-53329999I-1000000J0D01*
G01*
%TO.C,J2*%
X45310000Y-76600000D02*
X49360000Y-76600000D01*
X45310000Y-76600000D02*
X45310000Y-70850000D01*
X49360000Y-76600000D02*
X49360000Y-70850000D01*
X45310000Y-74850000D02*
X46017107Y-74350000D01*
X46017107Y-74350000D02*
X45310000Y-73850000D01*
X45310000Y-70850000D02*
X49360000Y-70850000D01*
%TO.C,J1*%
X159326694Y-45105573D02*
X158691694Y-44470573D01*
X166311694Y-45105573D02*
X159326694Y-45105573D01*
X158691694Y-44470573D02*
X158691694Y-42565573D01*
X158691694Y-42565573D02*
X166311694Y-42565573D01*
X166311694Y-42565573D02*
X166311694Y-45105573D01*
%TO.C,U1*%
X172734739Y-37806384D02*
X172734739Y-38446384D01*
X172734739Y-35266384D02*
X172734739Y-35906384D01*
X172734739Y-32726384D02*
X172734739Y-33366384D01*
X172734739Y-30186384D02*
X172734739Y-30826384D01*
X166734739Y-39396384D02*
X164194739Y-39396384D01*
X166734739Y-38446384D02*
X172734739Y-38446384D01*
X166734739Y-37806384D02*
X172734739Y-37806384D01*
X166734739Y-35906384D02*
X172734739Y-35906384D01*
X166734739Y-35266384D02*
X172734739Y-35266384D01*
X166734739Y-33366384D02*
X172734739Y-33366384D01*
X166734739Y-32726384D02*
X172734739Y-32726384D01*
X166734739Y-30826384D02*
X172734739Y-30826384D01*
X166734739Y-30186384D02*
X172734739Y-30186384D01*
X166734739Y-29236384D02*
X166734739Y-39396384D01*
X164829739Y-29236384D02*
X166734739Y-29236384D01*
X164194739Y-39396384D02*
X164194739Y-29871384D01*
X164194739Y-29871384D02*
X164829739Y-29236384D01*
X162374739Y-38446384D02*
X164194739Y-38446384D01*
X162374739Y-37806384D02*
X164194739Y-37806384D01*
X162374739Y-37806384D02*
X162374739Y-38446384D01*
X162374739Y-35906384D02*
X164194739Y-35906384D01*
X162374739Y-35266384D02*
X164194739Y-35266384D01*
X162374739Y-35266384D02*
X162374739Y-35906384D01*
X162374739Y-33366384D02*
X164194739Y-33366384D01*
X162374739Y-32726384D02*
X164194739Y-32726384D01*
X162374739Y-32726384D02*
X162374739Y-33366384D01*
X162374739Y-30826384D02*
X164194739Y-30826384D01*
X162374739Y-30186384D02*
X164194739Y-30186384D01*
X162374739Y-30186384D02*
X162374739Y-30826384D01*
%TO.C,R3*%
X176530000Y-73660000D02*
X174600000Y-73660000D01*
X174600000Y-74910000D02*
X174600000Y-72410000D01*
X174600000Y-72410000D02*
X168300000Y-72410000D01*
X168300000Y-74910000D02*
X174600000Y-74910000D01*
X168300000Y-72410000D02*
X168300000Y-74910000D01*
X166370000Y-73660000D02*
X168300000Y-73660000D01*
%TO.C,R4*%
X163830000Y-63500000D02*
X163830000Y-65430000D01*
X165080000Y-65430000D02*
X162580000Y-65430000D01*
X162580000Y-65430000D02*
X162580000Y-71730000D01*
X165080000Y-71730000D02*
X165080000Y-65430000D01*
X162580000Y-71730000D02*
X165080000Y-71730000D01*
X163830000Y-73660000D02*
X163830000Y-71730000D01*
%TO.C,R1*%
X170180000Y-77470000D02*
X168250000Y-77470000D01*
X168250000Y-78720000D02*
X168250000Y-76220000D01*
X168250000Y-76220000D02*
X161950000Y-76220000D01*
X161950000Y-78720000D02*
X168250000Y-78720000D01*
X161950000Y-76220000D02*
X161950000Y-78720000D01*
X160020000Y-77470000D02*
X161950000Y-77470000D01*
%TO.C,RF1*%
X50082661Y-47159407D02*
X49112661Y-46189407D01*
X57622661Y-47159407D02*
X50082661Y-47159407D01*
X45052661Y-46189407D02*
X49112661Y-46189407D01*
X49112661Y-46189407D02*
X49112661Y-26839407D01*
X45052661Y-45589407D02*
X45052661Y-46189407D01*
X49112661Y-45589407D02*
X45052661Y-45589407D01*
X45052661Y-43649407D02*
X49112661Y-43649407D01*
X45052661Y-43049407D02*
X45052661Y-43649407D01*
X49112661Y-43049407D02*
X45052661Y-43049407D01*
X45052661Y-41109407D02*
X49112661Y-41109407D01*
X45052661Y-40509407D02*
X45052661Y-41109407D01*
X49112661Y-40509407D02*
X45052661Y-40509407D01*
X45052661Y-38569407D02*
X49112661Y-38569407D01*
X45052661Y-37969407D02*
X45052661Y-38569407D01*
X49112661Y-37969407D02*
X45052661Y-37969407D01*
X45052661Y-36029407D02*
X49112661Y-36029407D01*
X45052661Y-35429407D02*
X45052661Y-36029407D01*
X49112661Y-35429407D02*
X45052661Y-35429407D01*
X45052661Y-33489407D02*
X49112661Y-33489407D01*
X45052661Y-32889407D02*
X45052661Y-33489407D01*
X49112661Y-32889407D02*
X45052661Y-32889407D01*
X45052661Y-30949407D02*
X49112661Y-30949407D01*
X45052661Y-30349407D02*
X45052661Y-30949407D01*
X49112661Y-30349407D02*
X45052661Y-30349407D01*
X45052661Y-28409407D02*
X49112661Y-28409407D01*
X45052661Y-27809407D02*
X45052661Y-28409407D01*
X49112661Y-27809407D02*
X45052661Y-27809407D01*
X49112661Y-26839407D02*
X57622661Y-26839407D01*
X57622661Y-26839407D02*
X57622661Y-47159407D01*
%TO.C,mpu1*%
X136463271Y-86107533D02*
X134558271Y-86107533D01*
X136463271Y-65787533D02*
X136463271Y-86107533D01*
X134558271Y-86107533D02*
X133923271Y-85472533D01*
X133923271Y-85472533D02*
X133923271Y-65787533D01*
X133923271Y-65787533D02*
X136463271Y-65787533D01*
%TO.C,R2*%
X170180000Y-82550000D02*
X168250000Y-82550000D01*
X168250000Y-83800000D02*
X168250000Y-81300000D01*
X168250000Y-81300000D02*
X161950000Y-81300000D01*
X161950000Y-83800000D02*
X168250000Y-83800000D01*
X161950000Y-81300000D02*
X161950000Y-83800000D01*
X160020000Y-82550000D02*
X161950000Y-82550000D01*
%TO.C,D1*%
X135091102Y-29396156D02*
X136996102Y-29396156D01*
X135091102Y-39556156D02*
X135091102Y-29396156D01*
X136996102Y-29396156D02*
X137631102Y-30031156D01*
X137631102Y-30031156D02*
X137631102Y-39556156D01*
X137631102Y-39556156D02*
X135091102Y-39556156D01*
%TD*%
M02*
