%TF.GenerationSoftware,KiCad,Pcbnew,(6.0.9)*%
%TF.CreationDate,2023-03-05T13:30:55-05:00*%
%TF.ProjectId,rrc_pcb,7272635f-7063-4622-9e6b-696361645f70,rev?*%
%TF.SameCoordinates,Original*%
%TF.FileFunction,Drillmap*%
%TF.FilePolarity,Positive*%
%FSLAX45Y45*%
G04 Gerber Fmt 4.5, Leading zero omitted, Abs format (unit mm)*
G04 Created by KiCad (PCBNEW (6.0.9)) date 2023-03-05 13:30:55*
%MOMM*%
%LPD*%
G01*
G04 APERTURE LIST*
%ADD10C,0.050000*%
%ADD11C,0.200000*%
%ADD12C,0.040000*%
%ADD13C,0.065000*%
%ADD14C,0.080000*%
%ADD15C,0.100000*%
%ADD16C,0.102000*%
%ADD17C,0.110000*%
%ADD18C,0.270000*%
%ADD19C,0.320000*%
G04 APERTURE END LIST*
D10*
X4191000Y-2065671D02*
X18034000Y-2065671D01*
X18034000Y-2065671D02*
X18034000Y-8890000D01*
X18034000Y-8890000D02*
X4191000Y-8890000D01*
X4191000Y-8890000D02*
X4191000Y-2065671D01*
D11*
D12*
X5441000Y-5822000D02*
X5481000Y-5862000D01*
X5481000Y-5822000D02*
X5441000Y-5862000D01*
X12680000Y-6330000D02*
X12720000Y-6370000D01*
X12720000Y-6330000D02*
X12680000Y-6370000D01*
X12743500Y-6584000D02*
X12783500Y-6624000D01*
X12783500Y-6584000D02*
X12743500Y-6624000D01*
X13061000Y-7727000D02*
X13101000Y-7767000D01*
X13101000Y-7727000D02*
X13061000Y-7767000D01*
D13*
X6019515Y-4105242D02*
G75*
G03*
X6019515Y-4105242I-32500J0D01*
G01*
X6019515Y-4232242D02*
G75*
G03*
X6019515Y-4232242I-32500J0D01*
G01*
X6019515Y-4359242D02*
G75*
G03*
X6019515Y-4359242I-32500J0D01*
G01*
X6019515Y-4486242D02*
G75*
G03*
X6019515Y-4486242I-32500J0D01*
G01*
X6019515Y-4613242D02*
G75*
G03*
X6019515Y-4613242I-32500J0D01*
G01*
X6019515Y-4740242D02*
G75*
G03*
X6019515Y-4740242I-32500J0D01*
G01*
X6019515Y-4867242D02*
G75*
G03*
X6019515Y-4867242I-32500J0D01*
G01*
X6019515Y-4994242D02*
G75*
G03*
X6019515Y-4994242I-32500J0D01*
G01*
X6019515Y-5121242D02*
G75*
G03*
X6019515Y-5121242I-32500J0D01*
G01*
X6019515Y-5248242D02*
G75*
G03*
X6019515Y-5248242I-32500J0D01*
G01*
X6146515Y-4105242D02*
G75*
G03*
X6146515Y-4105242I-32500J0D01*
G01*
X6146515Y-4232242D02*
G75*
G03*
X6146515Y-4232242I-32500J0D01*
G01*
X6146515Y-4359242D02*
G75*
G03*
X6146515Y-4359242I-32500J0D01*
G01*
X6146515Y-4486242D02*
G75*
G03*
X6146515Y-4486242I-32500J0D01*
G01*
X6146515Y-4613242D02*
G75*
G03*
X6146515Y-4613242I-32500J0D01*
G01*
X6146515Y-4740242D02*
G75*
G03*
X6146515Y-4740242I-32500J0D01*
G01*
X6146515Y-4867242D02*
G75*
G03*
X6146515Y-4867242I-32500J0D01*
G01*
X6146515Y-4994242D02*
G75*
G03*
X6146515Y-4994242I-32500J0D01*
G01*
X6146515Y-5121242D02*
G75*
G03*
X6146515Y-5121242I-32500J0D01*
G01*
X6146515Y-5248242D02*
G75*
G03*
X6146515Y-5248242I-32500J0D01*
G01*
D14*
X10795000Y-2446000D02*
X10795000Y-2526000D01*
X10755000Y-2486000D02*
X10835000Y-2486000D01*
X11040160Y-3670000D02*
X11040160Y-3750000D01*
X11000160Y-3710000D02*
X11080160Y-3710000D01*
X11040160Y-3870000D02*
X11040160Y-3950000D01*
X11000160Y-3910000D02*
X11080160Y-3910000D01*
X11049000Y-2446000D02*
X11049000Y-2526000D01*
X11009000Y-2486000D02*
X11089000Y-2486000D01*
X11240160Y-3670000D02*
X11240160Y-3750000D01*
X11200160Y-3710000D02*
X11280160Y-3710000D01*
X11240160Y-3870000D02*
X11240160Y-3950000D01*
X11200160Y-3910000D02*
X11280160Y-3910000D01*
X11440160Y-3670000D02*
X11440160Y-3750000D01*
X11400160Y-3710000D02*
X11480160Y-3710000D01*
X11440160Y-3870000D02*
X11440160Y-3950000D01*
X11400160Y-3910000D02*
X11480160Y-3910000D01*
X12652676Y-8666935D02*
X12652676Y-8746935D01*
X12612676Y-8706935D02*
X12692676Y-8706935D01*
X12656495Y-5355094D02*
X12656495Y-5435094D01*
X12616495Y-5395094D02*
X12696495Y-5395094D01*
X12664470Y-4956350D02*
X12664470Y-5036350D01*
X12624470Y-4996350D02*
X12704470Y-4996350D01*
X13668676Y-8666935D02*
X13668676Y-8746935D01*
X13628676Y-8706935D02*
X13708676Y-8706935D01*
X13672495Y-5355094D02*
X13672495Y-5435094D01*
X13632495Y-5395094D02*
X13712495Y-5395094D01*
X13680470Y-4956350D02*
X13680470Y-5036350D01*
X13640470Y-4996350D02*
X13720470Y-4996350D01*
X14228046Y-8697779D02*
X14228046Y-8777779D01*
X14188046Y-8737779D02*
X14268046Y-8737779D01*
X15244046Y-8697779D02*
X15244046Y-8777779D01*
X15204046Y-8737779D02*
X15284046Y-8737779D01*
D15*
X4670856Y-7337856D02*
X4670856Y-7267144D01*
X4600144Y-7267144D01*
X4600144Y-7337856D01*
X4670856Y-7337856D01*
X4924856Y-7337856D02*
X4924856Y-7267144D01*
X4854144Y-7267144D01*
X4854144Y-7337856D01*
X4924856Y-7337856D01*
X5002171Y-7847581D02*
X5002171Y-7776869D01*
X4931460Y-7776869D01*
X4931460Y-7847581D01*
X5002171Y-7847581D01*
X5002171Y-8607581D02*
X5002171Y-8536869D01*
X4931460Y-8536869D01*
X4931460Y-8607581D01*
X5002171Y-8607581D01*
X5178856Y-7337856D02*
X5178856Y-7267144D01*
X5108144Y-7267144D01*
X5108144Y-7337856D01*
X5178856Y-7337856D01*
X7085356Y-3972356D02*
X7085356Y-3901644D01*
X7014644Y-3901644D01*
X7014644Y-3972356D01*
X7085356Y-3972356D01*
X7339356Y-3972356D02*
X7339356Y-3901644D01*
X7268644Y-3901644D01*
X7268644Y-3972356D01*
X7339356Y-3972356D01*
X7593356Y-3972356D02*
X7593356Y-3901644D01*
X7522644Y-3901644D01*
X7522644Y-3972356D01*
X7593356Y-3972356D01*
X8213999Y-7369821D02*
X8213999Y-7299109D01*
X8143288Y-7299109D01*
X8143288Y-7369821D01*
X8213999Y-7369821D01*
X8213999Y-7623821D02*
X8213999Y-7553109D01*
X8143288Y-7553109D01*
X8143288Y-7623821D01*
X8213999Y-7623821D01*
X8213999Y-7877821D02*
X8213999Y-7807109D01*
X8143288Y-7807109D01*
X8143288Y-7877821D01*
X8213999Y-7877821D01*
X8213999Y-8131821D02*
X8213999Y-8061109D01*
X8143288Y-8061109D01*
X8143288Y-8131821D01*
X8213999Y-8131821D01*
X14204917Y-5178569D02*
X14204917Y-5107858D01*
X14134205Y-5107858D01*
X14134205Y-5178569D01*
X14204917Y-5178569D01*
X14204917Y-5432569D02*
X14204917Y-5361858D01*
X14134205Y-5361858D01*
X14134205Y-5432569D01*
X14204917Y-5432569D01*
X14204917Y-5686569D02*
X14204917Y-5615858D01*
X14134205Y-5615858D01*
X14134205Y-5686569D01*
X14204917Y-5686569D01*
X14204917Y-5940569D02*
X14204917Y-5869858D01*
X14134205Y-5869858D01*
X14134205Y-5940569D01*
X14204917Y-5940569D01*
X14204917Y-6194569D02*
X14204917Y-6123858D01*
X14134205Y-6123858D01*
X14134205Y-6194569D01*
X14204917Y-6194569D01*
X14204917Y-6448569D02*
X14204917Y-6377858D01*
X14134205Y-6377858D01*
X14134205Y-6448569D01*
X14204917Y-6448569D01*
X14204917Y-6702569D02*
X14204917Y-6631858D01*
X14134205Y-6631858D01*
X14134205Y-6702569D01*
X14204917Y-6702569D01*
X14204917Y-6956569D02*
X14204917Y-6885858D01*
X14134205Y-6885858D01*
X14134205Y-6956569D01*
X14204917Y-6956569D01*
X14204917Y-7210569D02*
X14204917Y-7139858D01*
X14134205Y-7139858D01*
X14134205Y-7210569D01*
X14204917Y-7210569D01*
X14204917Y-7464569D02*
X14204917Y-7393858D01*
X14134205Y-7393858D01*
X14134205Y-7464569D01*
X14204917Y-7464569D01*
X14204917Y-7718569D02*
X14204917Y-7647858D01*
X14134205Y-7647858D01*
X14134205Y-7718569D01*
X14204917Y-7718569D01*
X14204917Y-7972569D02*
X14204917Y-7901858D01*
X14134205Y-7901858D01*
X14134205Y-7972569D01*
X14204917Y-7972569D01*
X14458917Y-5178569D02*
X14458917Y-5107858D01*
X14388205Y-5107858D01*
X14388205Y-5178569D01*
X14458917Y-5178569D01*
X14458917Y-5432569D02*
X14458917Y-5361858D01*
X14388205Y-5361858D01*
X14388205Y-5432569D01*
X14458917Y-5432569D01*
X14458917Y-5686569D02*
X14458917Y-5615858D01*
X14388205Y-5615858D01*
X14388205Y-5686569D01*
X14458917Y-5686569D01*
X14458917Y-5940569D02*
X14458917Y-5869858D01*
X14388205Y-5869858D01*
X14388205Y-5940569D01*
X14458917Y-5940569D01*
X14458917Y-6194569D02*
X14458917Y-6123858D01*
X14388205Y-6123858D01*
X14388205Y-6194569D01*
X14458917Y-6194569D01*
X14458917Y-6448569D02*
X14458917Y-6377858D01*
X14388205Y-6377858D01*
X14388205Y-6448569D01*
X14458917Y-6448569D01*
X14458917Y-6702569D02*
X14458917Y-6631858D01*
X14388205Y-6631858D01*
X14388205Y-6702569D01*
X14458917Y-6702569D01*
X14458917Y-6956569D02*
X14458917Y-6885858D01*
X14388205Y-6885858D01*
X14388205Y-6956569D01*
X14458917Y-6956569D01*
X14458917Y-7210569D02*
X14458917Y-7139858D01*
X14388205Y-7139858D01*
X14388205Y-7210569D01*
X14458917Y-7210569D01*
X14458917Y-7464569D02*
X14458917Y-7393858D01*
X14388205Y-7393858D01*
X14388205Y-7464569D01*
X14458917Y-7464569D01*
X14458917Y-7718569D02*
X14458917Y-7647858D01*
X14388205Y-7647858D01*
X14388205Y-7718569D01*
X14458917Y-7718569D01*
X14458917Y-7972569D02*
X14458917Y-7901858D01*
X14388205Y-7901858D01*
X14388205Y-7972569D01*
X14458917Y-7972569D01*
D16*
X12096324Y-7359857D02*
X12147324Y-7308857D01*
X12096324Y-7257857D01*
X12045324Y-7308857D01*
X12096324Y-7359857D01*
X12350324Y-7359857D02*
X12401324Y-7308857D01*
X12350324Y-7257857D01*
X12299324Y-7308857D01*
X12350324Y-7359857D01*
X12604324Y-7359857D02*
X12655324Y-7308857D01*
X12604324Y-7257857D01*
X12553324Y-7308857D01*
X12604324Y-7359857D01*
X12858324Y-7359857D02*
X12909324Y-7308857D01*
X12858324Y-7257857D01*
X12807324Y-7308857D01*
X12858324Y-7359857D01*
X13112324Y-7359857D02*
X13163324Y-7308857D01*
X13112324Y-7257857D01*
X13061324Y-7308857D01*
X13112324Y-7359857D01*
X13366324Y-7359857D02*
X13417324Y-7308857D01*
X13366324Y-7257857D01*
X13315324Y-7308857D01*
X13366324Y-7359857D01*
X13620324Y-7359857D02*
X13671324Y-7308857D01*
X13620324Y-7257857D01*
X13569324Y-7308857D01*
X13620324Y-7359857D01*
D17*
X10105000Y-2358000D02*
X10215000Y-2468000D01*
X10215000Y-2358000D02*
X10105000Y-2468000D01*
X10215000Y-2413000D02*
G75*
G03*
X10215000Y-2413000I-55000J0D01*
G01*
X10105000Y-2612000D02*
X10215000Y-2722000D01*
X10215000Y-2612000D02*
X10105000Y-2722000D01*
X10215000Y-2667000D02*
G75*
G03*
X10215000Y-2667000I-55000J0D01*
G01*
X10105000Y-2866000D02*
X10215000Y-2976000D01*
X10215000Y-2866000D02*
X10105000Y-2976000D01*
X10215000Y-2921000D02*
G75*
G03*
X10215000Y-2921000I-55000J0D01*
G01*
X10105000Y-3120000D02*
X10215000Y-3230000D01*
X10215000Y-3120000D02*
X10105000Y-3230000D01*
X10215000Y-3175000D02*
G75*
G03*
X10215000Y-3175000I-55000J0D01*
G01*
X10105000Y-3374000D02*
X10215000Y-3484000D01*
X10215000Y-3374000D02*
X10105000Y-3484000D01*
X10215000Y-3429000D02*
G75*
G03*
X10215000Y-3429000I-55000J0D01*
G01*
X10105000Y-3628000D02*
X10215000Y-3738000D01*
X10215000Y-3628000D02*
X10105000Y-3738000D01*
X10215000Y-3683000D02*
G75*
G03*
X10215000Y-3683000I-55000J0D01*
G01*
X10105000Y-3882000D02*
X10215000Y-3992000D01*
X10215000Y-3882000D02*
X10105000Y-3992000D01*
X10215000Y-3937000D02*
G75*
G03*
X10215000Y-3937000I-55000J0D01*
G01*
X10105000Y-4136000D02*
X10215000Y-4246000D01*
X10215000Y-4136000D02*
X10105000Y-4246000D01*
X10215000Y-4191000D02*
G75*
G03*
X10215000Y-4191000I-55000J0D01*
G01*
X10105000Y-4390000D02*
X10215000Y-4500000D01*
X10215000Y-4390000D02*
X10105000Y-4500000D01*
X10215000Y-4445000D02*
G75*
G03*
X10215000Y-4445000I-55000J0D01*
G01*
X10105000Y-4644000D02*
X10215000Y-4754000D01*
X10215000Y-4644000D02*
X10105000Y-4754000D01*
X10215000Y-4699000D02*
G75*
G03*
X10215000Y-4699000I-55000J0D01*
G01*
X10105000Y-4898000D02*
X10215000Y-5008000D01*
X10215000Y-4898000D02*
X10105000Y-5008000D01*
X10215000Y-4953000D02*
G75*
G03*
X10215000Y-4953000I-55000J0D01*
G01*
X10105000Y-5152000D02*
X10215000Y-5262000D01*
X10215000Y-5152000D02*
X10105000Y-5262000D01*
X10215000Y-5207000D02*
G75*
G03*
X10215000Y-5207000I-55000J0D01*
G01*
X10105000Y-5406000D02*
X10215000Y-5516000D01*
X10215000Y-5406000D02*
X10105000Y-5516000D01*
X10215000Y-5461000D02*
G75*
G03*
X10215000Y-5461000I-55000J0D01*
G01*
X10105000Y-5660000D02*
X10215000Y-5770000D01*
X10215000Y-5660000D02*
X10105000Y-5770000D01*
X10215000Y-5715000D02*
G75*
G03*
X10215000Y-5715000I-55000J0D01*
G01*
X10105000Y-5914000D02*
X10215000Y-6024000D01*
X10215000Y-5914000D02*
X10105000Y-6024000D01*
X10215000Y-5969000D02*
G75*
G03*
X10215000Y-5969000I-55000J0D01*
G01*
X10105000Y-6168000D02*
X10215000Y-6278000D01*
X10215000Y-6168000D02*
X10105000Y-6278000D01*
X10215000Y-6223000D02*
G75*
G03*
X10215000Y-6223000I-55000J0D01*
G01*
X10105000Y-6422000D02*
X10215000Y-6532000D01*
X10215000Y-6422000D02*
X10105000Y-6532000D01*
X10215000Y-6477000D02*
G75*
G03*
X10215000Y-6477000I-55000J0D01*
G01*
X10105000Y-6676000D02*
X10215000Y-6786000D01*
X10215000Y-6676000D02*
X10105000Y-6786000D01*
X10215000Y-6731000D02*
G75*
G03*
X10215000Y-6731000I-55000J0D01*
G01*
X10105000Y-6930000D02*
X10215000Y-7040000D01*
X10215000Y-6930000D02*
X10105000Y-7040000D01*
X10215000Y-6985000D02*
G75*
G03*
X10215000Y-6985000I-55000J0D01*
G01*
X10105000Y-7184000D02*
X10215000Y-7294000D01*
X10215000Y-7184000D02*
X10105000Y-7294000D01*
X10215000Y-7239000D02*
G75*
G03*
X10215000Y-7239000I-55000J0D01*
G01*
X10105000Y-7438000D02*
X10215000Y-7548000D01*
X10215000Y-7438000D02*
X10105000Y-7548000D01*
X10215000Y-7493000D02*
G75*
G03*
X10215000Y-7493000I-55000J0D01*
G01*
X10105000Y-7692000D02*
X10215000Y-7802000D01*
X10215000Y-7692000D02*
X10105000Y-7802000D01*
X10215000Y-7747000D02*
G75*
G03*
X10215000Y-7747000I-55000J0D01*
G01*
X10105000Y-7946000D02*
X10215000Y-8056000D01*
X10215000Y-7946000D02*
X10105000Y-8056000D01*
X10215000Y-8001000D02*
G75*
G03*
X10215000Y-8001000I-55000J0D01*
G01*
X10105000Y-8200000D02*
X10215000Y-8310000D01*
X10215000Y-8200000D02*
X10105000Y-8310000D01*
X10215000Y-8255000D02*
G75*
G03*
X10215000Y-8255000I-55000J0D01*
G01*
X10359000Y-6930000D02*
X10469000Y-7040000D01*
X10469000Y-6930000D02*
X10359000Y-7040000D01*
X10469000Y-6985000D02*
G75*
G03*
X10469000Y-6985000I-55000J0D01*
G01*
X10410080Y-2987920D02*
X10520080Y-3097920D01*
X10520080Y-2987920D02*
X10410080Y-3097920D01*
X10520080Y-3042920D02*
G75*
G03*
X10520080Y-3042920I-55000J0D01*
G01*
X10410080Y-3241920D02*
X10520080Y-3351920D01*
X10520080Y-3241920D02*
X10410080Y-3351920D01*
X10520080Y-3296920D02*
G75*
G03*
X10520080Y-3296920I-55000J0D01*
G01*
X10410080Y-3495920D02*
X10520080Y-3605920D01*
X10520080Y-3495920D02*
X10410080Y-3605920D01*
X10520080Y-3550920D02*
G75*
G03*
X10520080Y-3550920I-55000J0D01*
G01*
X10410080Y-3749920D02*
X10520080Y-3859920D01*
X10520080Y-3749920D02*
X10410080Y-3859920D01*
X10520080Y-3804920D02*
G75*
G03*
X10520080Y-3804920I-55000J0D01*
G01*
X10410080Y-4003920D02*
X10520080Y-4113920D01*
X10520080Y-4003920D02*
X10410080Y-4113920D01*
X10520080Y-4058920D02*
G75*
G03*
X10520080Y-4058920I-55000J0D01*
G01*
X10613000Y-6930000D02*
X10723000Y-7040000D01*
X10723000Y-6930000D02*
X10613000Y-7040000D01*
X10723000Y-6985000D02*
G75*
G03*
X10723000Y-6985000I-55000J0D01*
G01*
X10867000Y-6930000D02*
X10977000Y-7040000D01*
X10977000Y-6930000D02*
X10867000Y-7040000D01*
X10977000Y-6985000D02*
G75*
G03*
X10977000Y-6985000I-55000J0D01*
G01*
X11121000Y-6930000D02*
X11231000Y-7040000D01*
X11231000Y-6930000D02*
X11121000Y-7040000D01*
X11231000Y-6985000D02*
G75*
G03*
X11231000Y-6985000I-55000J0D01*
G01*
X11375000Y-2612000D02*
X11485000Y-2722000D01*
X11485000Y-2612000D02*
X11375000Y-2722000D01*
X11485000Y-2667000D02*
G75*
G03*
X11485000Y-2667000I-55000J0D01*
G01*
X11375000Y-6930000D02*
X11485000Y-7040000D01*
X11485000Y-6930000D02*
X11375000Y-7040000D01*
X11485000Y-6985000D02*
G75*
G03*
X11485000Y-6985000I-55000J0D01*
G01*
X11629000Y-2358000D02*
X11739000Y-2468000D01*
X11739000Y-2358000D02*
X11629000Y-2468000D01*
X11739000Y-2413000D02*
G75*
G03*
X11739000Y-2413000I-55000J0D01*
G01*
X11629000Y-2612000D02*
X11739000Y-2722000D01*
X11739000Y-2612000D02*
X11629000Y-2722000D01*
X11739000Y-2667000D02*
G75*
G03*
X11739000Y-2667000I-55000J0D01*
G01*
X11629000Y-2866000D02*
X11739000Y-2976000D01*
X11739000Y-2866000D02*
X11629000Y-2976000D01*
X11739000Y-2921000D02*
G75*
G03*
X11739000Y-2921000I-55000J0D01*
G01*
X11629000Y-3120000D02*
X11739000Y-3230000D01*
X11739000Y-3120000D02*
X11629000Y-3230000D01*
X11739000Y-3175000D02*
G75*
G03*
X11739000Y-3175000I-55000J0D01*
G01*
X11629000Y-3374000D02*
X11739000Y-3484000D01*
X11739000Y-3374000D02*
X11629000Y-3484000D01*
X11739000Y-3429000D02*
G75*
G03*
X11739000Y-3429000I-55000J0D01*
G01*
X11629000Y-3628000D02*
X11739000Y-3738000D01*
X11739000Y-3628000D02*
X11629000Y-3738000D01*
X11739000Y-3683000D02*
G75*
G03*
X11739000Y-3683000I-55000J0D01*
G01*
X11629000Y-3882000D02*
X11739000Y-3992000D01*
X11739000Y-3882000D02*
X11629000Y-3992000D01*
X11739000Y-3937000D02*
G75*
G03*
X11739000Y-3937000I-55000J0D01*
G01*
X11629000Y-4136000D02*
X11739000Y-4246000D01*
X11739000Y-4136000D02*
X11629000Y-4246000D01*
X11739000Y-4191000D02*
G75*
G03*
X11739000Y-4191000I-55000J0D01*
G01*
X11629000Y-4390000D02*
X11739000Y-4500000D01*
X11739000Y-4390000D02*
X11629000Y-4500000D01*
X11739000Y-4445000D02*
G75*
G03*
X11739000Y-4445000I-55000J0D01*
G01*
X11629000Y-4644000D02*
X11739000Y-4754000D01*
X11739000Y-4644000D02*
X11629000Y-4754000D01*
X11739000Y-4699000D02*
G75*
G03*
X11739000Y-4699000I-55000J0D01*
G01*
X11629000Y-4898000D02*
X11739000Y-5008000D01*
X11739000Y-4898000D02*
X11629000Y-5008000D01*
X11739000Y-4953000D02*
G75*
G03*
X11739000Y-4953000I-55000J0D01*
G01*
X11629000Y-5152000D02*
X11739000Y-5262000D01*
X11739000Y-5152000D02*
X11629000Y-5262000D01*
X11739000Y-5207000D02*
G75*
G03*
X11739000Y-5207000I-55000J0D01*
G01*
X11629000Y-5406000D02*
X11739000Y-5516000D01*
X11739000Y-5406000D02*
X11629000Y-5516000D01*
X11739000Y-5461000D02*
G75*
G03*
X11739000Y-5461000I-55000J0D01*
G01*
X11629000Y-5660000D02*
X11739000Y-5770000D01*
X11739000Y-5660000D02*
X11629000Y-5770000D01*
X11739000Y-5715000D02*
G75*
G03*
X11739000Y-5715000I-55000J0D01*
G01*
X11629000Y-5914000D02*
X11739000Y-6024000D01*
X11739000Y-5914000D02*
X11629000Y-6024000D01*
X11739000Y-5969000D02*
G75*
G03*
X11739000Y-5969000I-55000J0D01*
G01*
X11629000Y-6168000D02*
X11739000Y-6278000D01*
X11739000Y-6168000D02*
X11629000Y-6278000D01*
X11739000Y-6223000D02*
G75*
G03*
X11739000Y-6223000I-55000J0D01*
G01*
X11629000Y-6422000D02*
X11739000Y-6532000D01*
X11739000Y-6422000D02*
X11629000Y-6532000D01*
X11739000Y-6477000D02*
G75*
G03*
X11739000Y-6477000I-55000J0D01*
G01*
X11629000Y-6676000D02*
X11739000Y-6786000D01*
X11739000Y-6676000D02*
X11629000Y-6786000D01*
X11739000Y-6731000D02*
G75*
G03*
X11739000Y-6731000I-55000J0D01*
G01*
X11629000Y-6930000D02*
X11739000Y-7040000D01*
X11739000Y-6930000D02*
X11629000Y-7040000D01*
X11739000Y-6985000D02*
G75*
G03*
X11739000Y-6985000I-55000J0D01*
G01*
X11629000Y-7184000D02*
X11739000Y-7294000D01*
X11739000Y-7184000D02*
X11629000Y-7294000D01*
X11739000Y-7239000D02*
G75*
G03*
X11739000Y-7239000I-55000J0D01*
G01*
X11629000Y-7438000D02*
X11739000Y-7548000D01*
X11739000Y-7438000D02*
X11629000Y-7548000D01*
X11739000Y-7493000D02*
G75*
G03*
X11739000Y-7493000I-55000J0D01*
G01*
X11629000Y-7692000D02*
X11739000Y-7802000D01*
X11739000Y-7692000D02*
X11629000Y-7802000D01*
X11739000Y-7747000D02*
G75*
G03*
X11739000Y-7747000I-55000J0D01*
G01*
X11629000Y-7946000D02*
X11739000Y-8056000D01*
X11739000Y-7946000D02*
X11629000Y-8056000D01*
X11739000Y-8001000D02*
G75*
G03*
X11739000Y-8001000I-55000J0D01*
G01*
X11629000Y-8200000D02*
X11739000Y-8310000D01*
X11739000Y-8200000D02*
X11629000Y-8310000D01*
X11739000Y-8255000D02*
G75*
G03*
X11739000Y-8255000I-55000J0D01*
G01*
D11*
X12357322Y-2523500D02*
X12557322Y-2723500D01*
X12557322Y-2523500D02*
X12357322Y-2723500D01*
X12457322Y-2523500D02*
X12457322Y-2723500D01*
X12357322Y-2623500D02*
X12557322Y-2623500D01*
X12365000Y-4115500D02*
X12565000Y-4315500D01*
X12565000Y-4115500D02*
X12365000Y-4315500D01*
X12465000Y-4115500D02*
X12465000Y-4315500D01*
X12365000Y-4215500D02*
X12565000Y-4215500D01*
X16201000Y-2523500D02*
X16401000Y-2723500D01*
X16401000Y-2523500D02*
X16201000Y-2723500D01*
X16301000Y-2523500D02*
X16301000Y-2723500D01*
X16201000Y-2623500D02*
X16401000Y-2623500D01*
X16201000Y-4115500D02*
X16401000Y-4315500D01*
X16401000Y-4115500D02*
X16201000Y-4315500D01*
X16301000Y-4115500D02*
X16301000Y-4315500D01*
X16201000Y-4215500D02*
X16401000Y-4215500D01*
D18*
X17200500Y-3103500D02*
X17470500Y-3373500D01*
X17470500Y-3103500D02*
X17200500Y-3373500D01*
X17430960Y-3333960D02*
X17430960Y-3143040D01*
X17240040Y-3143040D01*
X17240040Y-3333960D01*
X17430960Y-3333960D01*
X17200500Y-3603500D02*
X17470500Y-3873500D01*
X17470500Y-3603500D02*
X17200500Y-3873500D01*
X17430960Y-3833960D02*
X17430960Y-3643040D01*
X17240040Y-3643040D01*
X17240040Y-3833960D01*
X17430960Y-3833960D01*
D19*
X12063324Y-8099357D02*
X12383324Y-8419357D01*
X12383324Y-8099357D02*
X12063324Y-8419357D01*
X12223324Y-8419357D02*
X12383324Y-8259357D01*
X12223324Y-8099357D01*
X12063324Y-8259357D01*
X12223324Y-8419357D01*
D11*
X4446119Y-9202976D02*
X4446119Y-9002976D01*
X4493738Y-9002976D01*
X4522310Y-9012500D01*
X4541357Y-9031548D01*
X4550881Y-9050595D01*
X4560405Y-9088690D01*
X4560405Y-9117262D01*
X4550881Y-9155357D01*
X4541357Y-9174405D01*
X4522310Y-9193452D01*
X4493738Y-9202976D01*
X4446119Y-9202976D01*
X4646119Y-9202976D02*
X4646119Y-9069643D01*
X4646119Y-9107738D02*
X4655643Y-9088690D01*
X4665167Y-9079167D01*
X4684214Y-9069643D01*
X4703262Y-9069643D01*
X4769929Y-9202976D02*
X4769929Y-9069643D01*
X4769929Y-9002976D02*
X4760405Y-9012500D01*
X4769929Y-9022024D01*
X4779452Y-9012500D01*
X4769929Y-9002976D01*
X4769929Y-9022024D01*
X4893738Y-9202976D02*
X4874690Y-9193452D01*
X4865167Y-9174405D01*
X4865167Y-9002976D01*
X4998500Y-9202976D02*
X4979452Y-9193452D01*
X4969929Y-9174405D01*
X4969929Y-9002976D01*
X5227071Y-9202976D02*
X5227071Y-9002976D01*
X5293738Y-9145833D01*
X5360405Y-9002976D01*
X5360405Y-9202976D01*
X5541357Y-9202976D02*
X5541357Y-9098214D01*
X5531833Y-9079167D01*
X5512786Y-9069643D01*
X5474690Y-9069643D01*
X5455643Y-9079167D01*
X5541357Y-9193452D02*
X5522310Y-9202976D01*
X5474690Y-9202976D01*
X5455643Y-9193452D01*
X5446119Y-9174405D01*
X5446119Y-9155357D01*
X5455643Y-9136310D01*
X5474690Y-9126786D01*
X5522310Y-9126786D01*
X5541357Y-9117262D01*
X5636595Y-9069643D02*
X5636595Y-9269643D01*
X5636595Y-9079167D02*
X5655643Y-9069643D01*
X5693738Y-9069643D01*
X5712786Y-9079167D01*
X5722309Y-9088690D01*
X5731833Y-9107738D01*
X5731833Y-9164881D01*
X5722309Y-9183929D01*
X5712786Y-9193452D01*
X5693738Y-9202976D01*
X5655643Y-9202976D01*
X5636595Y-9193452D01*
X5817548Y-9183929D02*
X5827071Y-9193452D01*
X5817548Y-9202976D01*
X5808024Y-9193452D01*
X5817548Y-9183929D01*
X5817548Y-9202976D01*
X5817548Y-9079167D02*
X5827071Y-9088690D01*
X5817548Y-9098214D01*
X5808024Y-9088690D01*
X5817548Y-9079167D01*
X5817548Y-9098214D01*
D12*
X4148500Y-9512500D02*
X4188500Y-9552500D01*
X4188500Y-9512500D02*
X4148500Y-9552500D01*
D11*
X4484214Y-9422976D02*
X4503262Y-9422976D01*
X4522310Y-9432500D01*
X4531833Y-9442024D01*
X4541357Y-9461071D01*
X4550881Y-9499167D01*
X4550881Y-9546786D01*
X4541357Y-9584881D01*
X4531833Y-9603929D01*
X4522310Y-9613452D01*
X4503262Y-9622976D01*
X4484214Y-9622976D01*
X4465167Y-9613452D01*
X4455643Y-9603929D01*
X4446119Y-9584881D01*
X4436595Y-9546786D01*
X4436595Y-9499167D01*
X4446119Y-9461071D01*
X4455643Y-9442024D01*
X4465167Y-9432500D01*
X4484214Y-9422976D01*
X4636595Y-9603929D02*
X4646119Y-9613452D01*
X4636595Y-9622976D01*
X4627071Y-9613452D01*
X4636595Y-9603929D01*
X4636595Y-9622976D01*
X4817548Y-9489643D02*
X4817548Y-9622976D01*
X4769929Y-9413452D02*
X4722310Y-9556310D01*
X4846119Y-9556310D01*
X4960405Y-9422976D02*
X4979452Y-9422976D01*
X4998500Y-9432500D01*
X5008024Y-9442024D01*
X5017548Y-9461071D01*
X5027071Y-9499167D01*
X5027071Y-9546786D01*
X5017548Y-9584881D01*
X5008024Y-9603929D01*
X4998500Y-9613452D01*
X4979452Y-9622976D01*
X4960405Y-9622976D01*
X4941357Y-9613452D01*
X4931833Y-9603929D01*
X4922310Y-9584881D01*
X4912786Y-9546786D01*
X4912786Y-9499167D01*
X4922310Y-9461071D01*
X4931833Y-9442024D01*
X4941357Y-9432500D01*
X4960405Y-9422976D01*
X5150881Y-9422976D02*
X5169929Y-9422976D01*
X5188976Y-9432500D01*
X5198500Y-9442024D01*
X5208024Y-9461071D01*
X5217548Y-9499167D01*
X5217548Y-9546786D01*
X5208024Y-9584881D01*
X5198500Y-9603929D01*
X5188976Y-9613452D01*
X5169929Y-9622976D01*
X5150881Y-9622976D01*
X5131833Y-9613452D01*
X5122310Y-9603929D01*
X5112786Y-9584881D01*
X5103262Y-9546786D01*
X5103262Y-9499167D01*
X5112786Y-9461071D01*
X5122310Y-9442024D01*
X5131833Y-9432500D01*
X5150881Y-9422976D01*
X5303262Y-9622976D02*
X5303262Y-9489643D01*
X5303262Y-9508690D02*
X5312786Y-9499167D01*
X5331833Y-9489643D01*
X5360405Y-9489643D01*
X5379452Y-9499167D01*
X5388976Y-9518214D01*
X5388976Y-9622976D01*
X5388976Y-9518214D02*
X5398500Y-9499167D01*
X5417548Y-9489643D01*
X5446119Y-9489643D01*
X5465167Y-9499167D01*
X5474690Y-9518214D01*
X5474690Y-9622976D01*
X5569929Y-9622976D02*
X5569929Y-9489643D01*
X5569929Y-9508690D02*
X5579452Y-9499167D01*
X5598500Y-9489643D01*
X5627071Y-9489643D01*
X5646119Y-9499167D01*
X5655643Y-9518214D01*
X5655643Y-9622976D01*
X5655643Y-9518214D02*
X5665167Y-9499167D01*
X5684214Y-9489643D01*
X5712786Y-9489643D01*
X5731833Y-9499167D01*
X5741357Y-9518214D01*
X5741357Y-9622976D01*
X6131833Y-9413452D02*
X5960405Y-9670595D01*
X6388976Y-9422976D02*
X6408024Y-9422976D01*
X6427071Y-9432500D01*
X6436595Y-9442024D01*
X6446119Y-9461071D01*
X6455643Y-9499167D01*
X6455643Y-9546786D01*
X6446119Y-9584881D01*
X6436595Y-9603929D01*
X6427071Y-9613452D01*
X6408024Y-9622976D01*
X6388976Y-9622976D01*
X6369928Y-9613452D01*
X6360405Y-9603929D01*
X6350881Y-9584881D01*
X6341357Y-9546786D01*
X6341357Y-9499167D01*
X6350881Y-9461071D01*
X6360405Y-9442024D01*
X6369928Y-9432500D01*
X6388976Y-9422976D01*
X6541357Y-9603929D02*
X6550881Y-9613452D01*
X6541357Y-9622976D01*
X6531833Y-9613452D01*
X6541357Y-9603929D01*
X6541357Y-9622976D01*
X6674690Y-9422976D02*
X6693738Y-9422976D01*
X6712786Y-9432500D01*
X6722309Y-9442024D01*
X6731833Y-9461071D01*
X6741357Y-9499167D01*
X6741357Y-9546786D01*
X6731833Y-9584881D01*
X6722309Y-9603929D01*
X6712786Y-9613452D01*
X6693738Y-9622976D01*
X6674690Y-9622976D01*
X6655643Y-9613452D01*
X6646119Y-9603929D01*
X6636595Y-9584881D01*
X6627071Y-9546786D01*
X6627071Y-9499167D01*
X6636595Y-9461071D01*
X6646119Y-9442024D01*
X6655643Y-9432500D01*
X6674690Y-9422976D01*
X6931833Y-9622976D02*
X6817548Y-9622976D01*
X6874690Y-9622976D02*
X6874690Y-9422976D01*
X6855643Y-9451548D01*
X6836595Y-9470595D01*
X6817548Y-9480119D01*
X7112786Y-9422976D02*
X7017548Y-9422976D01*
X7008024Y-9518214D01*
X7017548Y-9508690D01*
X7036595Y-9499167D01*
X7084214Y-9499167D01*
X7103262Y-9508690D01*
X7112786Y-9518214D01*
X7122309Y-9537262D01*
X7122309Y-9584881D01*
X7112786Y-9603929D01*
X7103262Y-9613452D01*
X7084214Y-9622976D01*
X7036595Y-9622976D01*
X7017548Y-9613452D01*
X7008024Y-9603929D01*
X7188976Y-9422976D02*
X7322309Y-9422976D01*
X7236595Y-9622976D01*
X7388976Y-9422976D02*
X7388976Y-9461071D01*
X7465167Y-9422976D02*
X7465167Y-9461071D01*
X7760405Y-9699167D02*
X7750881Y-9689643D01*
X7731833Y-9661071D01*
X7722309Y-9642024D01*
X7712786Y-9613452D01*
X7703262Y-9565833D01*
X7703262Y-9527738D01*
X7712786Y-9480119D01*
X7722309Y-9451548D01*
X7731833Y-9432500D01*
X7750881Y-9403929D01*
X7760405Y-9394405D01*
X7922309Y-9489643D02*
X7922309Y-9622976D01*
X7874690Y-9413452D02*
X7827071Y-9556310D01*
X7950881Y-9556310D01*
X8179452Y-9622976D02*
X8179452Y-9422976D01*
X8265167Y-9622976D02*
X8265167Y-9518214D01*
X8255643Y-9499167D01*
X8236595Y-9489643D01*
X8208024Y-9489643D01*
X8188976Y-9499167D01*
X8179452Y-9508690D01*
X8388976Y-9622976D02*
X8369928Y-9613452D01*
X8360405Y-9603929D01*
X8350881Y-9584881D01*
X8350881Y-9527738D01*
X8360405Y-9508690D01*
X8369928Y-9499167D01*
X8388976Y-9489643D01*
X8417548Y-9489643D01*
X8436595Y-9499167D01*
X8446119Y-9508690D01*
X8455643Y-9527738D01*
X8455643Y-9584881D01*
X8446119Y-9603929D01*
X8436595Y-9613452D01*
X8417548Y-9622976D01*
X8388976Y-9622976D01*
X8569929Y-9622976D02*
X8550881Y-9613452D01*
X8541357Y-9594405D01*
X8541357Y-9422976D01*
X8722310Y-9613452D02*
X8703262Y-9622976D01*
X8665167Y-9622976D01*
X8646119Y-9613452D01*
X8636595Y-9594405D01*
X8636595Y-9518214D01*
X8646119Y-9499167D01*
X8665167Y-9489643D01*
X8703262Y-9489643D01*
X8722310Y-9499167D01*
X8731833Y-9518214D01*
X8731833Y-9537262D01*
X8636595Y-9556310D01*
X8808024Y-9613452D02*
X8827071Y-9622976D01*
X8865167Y-9622976D01*
X8884214Y-9613452D01*
X8893738Y-9594405D01*
X8893738Y-9584881D01*
X8884214Y-9565833D01*
X8865167Y-9556310D01*
X8836595Y-9556310D01*
X8817548Y-9546786D01*
X8808024Y-9527738D01*
X8808024Y-9518214D01*
X8817548Y-9499167D01*
X8836595Y-9489643D01*
X8865167Y-9489643D01*
X8884214Y-9499167D01*
X8960405Y-9699167D02*
X8969929Y-9689643D01*
X8988976Y-9661071D01*
X8998500Y-9642024D01*
X9008024Y-9613452D01*
X9017548Y-9565833D01*
X9017548Y-9527738D01*
X9008024Y-9480119D01*
X8998500Y-9451548D01*
X8988976Y-9432500D01*
X8969929Y-9403929D01*
X8960405Y-9394405D01*
D13*
X4188500Y-9796500D02*
G75*
G03*
X4188500Y-9796500I-32500J0D01*
G01*
D11*
X4484214Y-9686976D02*
X4503262Y-9686976D01*
X4522310Y-9696500D01*
X4531833Y-9706024D01*
X4541357Y-9725071D01*
X4550881Y-9763167D01*
X4550881Y-9810786D01*
X4541357Y-9848881D01*
X4531833Y-9867929D01*
X4522310Y-9877452D01*
X4503262Y-9886976D01*
X4484214Y-9886976D01*
X4465167Y-9877452D01*
X4455643Y-9867929D01*
X4446119Y-9848881D01*
X4436595Y-9810786D01*
X4436595Y-9763167D01*
X4446119Y-9725071D01*
X4455643Y-9706024D01*
X4465167Y-9696500D01*
X4484214Y-9686976D01*
X4636595Y-9867929D02*
X4646119Y-9877452D01*
X4636595Y-9886976D01*
X4627071Y-9877452D01*
X4636595Y-9867929D01*
X4636595Y-9886976D01*
X4817548Y-9686976D02*
X4779452Y-9686976D01*
X4760405Y-9696500D01*
X4750881Y-9706024D01*
X4731833Y-9734595D01*
X4722310Y-9772690D01*
X4722310Y-9848881D01*
X4731833Y-9867929D01*
X4741357Y-9877452D01*
X4760405Y-9886976D01*
X4798500Y-9886976D01*
X4817548Y-9877452D01*
X4827071Y-9867929D01*
X4836595Y-9848881D01*
X4836595Y-9801262D01*
X4827071Y-9782214D01*
X4817548Y-9772690D01*
X4798500Y-9763167D01*
X4760405Y-9763167D01*
X4741357Y-9772690D01*
X4731833Y-9782214D01*
X4722310Y-9801262D01*
X5017548Y-9686976D02*
X4922310Y-9686976D01*
X4912786Y-9782214D01*
X4922310Y-9772690D01*
X4941357Y-9763167D01*
X4988976Y-9763167D01*
X5008024Y-9772690D01*
X5017548Y-9782214D01*
X5027071Y-9801262D01*
X5027071Y-9848881D01*
X5017548Y-9867929D01*
X5008024Y-9877452D01*
X4988976Y-9886976D01*
X4941357Y-9886976D01*
X4922310Y-9877452D01*
X4912786Y-9867929D01*
X5150881Y-9686976D02*
X5169929Y-9686976D01*
X5188976Y-9696500D01*
X5198500Y-9706024D01*
X5208024Y-9725071D01*
X5217548Y-9763167D01*
X5217548Y-9810786D01*
X5208024Y-9848881D01*
X5198500Y-9867929D01*
X5188976Y-9877452D01*
X5169929Y-9886976D01*
X5150881Y-9886976D01*
X5131833Y-9877452D01*
X5122310Y-9867929D01*
X5112786Y-9848881D01*
X5103262Y-9810786D01*
X5103262Y-9763167D01*
X5112786Y-9725071D01*
X5122310Y-9706024D01*
X5131833Y-9696500D01*
X5150881Y-9686976D01*
X5303262Y-9886976D02*
X5303262Y-9753643D01*
X5303262Y-9772690D02*
X5312786Y-9763167D01*
X5331833Y-9753643D01*
X5360405Y-9753643D01*
X5379452Y-9763167D01*
X5388976Y-9782214D01*
X5388976Y-9886976D01*
X5388976Y-9782214D02*
X5398500Y-9763167D01*
X5417548Y-9753643D01*
X5446119Y-9753643D01*
X5465167Y-9763167D01*
X5474690Y-9782214D01*
X5474690Y-9886976D01*
X5569929Y-9886976D02*
X5569929Y-9753643D01*
X5569929Y-9772690D02*
X5579452Y-9763167D01*
X5598500Y-9753643D01*
X5627071Y-9753643D01*
X5646119Y-9763167D01*
X5655643Y-9782214D01*
X5655643Y-9886976D01*
X5655643Y-9782214D02*
X5665167Y-9763167D01*
X5684214Y-9753643D01*
X5712786Y-9753643D01*
X5731833Y-9763167D01*
X5741357Y-9782214D01*
X5741357Y-9886976D01*
X6131833Y-9677452D02*
X5960405Y-9934595D01*
X6388976Y-9686976D02*
X6408024Y-9686976D01*
X6427071Y-9696500D01*
X6436595Y-9706024D01*
X6446119Y-9725071D01*
X6455643Y-9763167D01*
X6455643Y-9810786D01*
X6446119Y-9848881D01*
X6436595Y-9867929D01*
X6427071Y-9877452D01*
X6408024Y-9886976D01*
X6388976Y-9886976D01*
X6369928Y-9877452D01*
X6360405Y-9867929D01*
X6350881Y-9848881D01*
X6341357Y-9810786D01*
X6341357Y-9763167D01*
X6350881Y-9725071D01*
X6360405Y-9706024D01*
X6369928Y-9696500D01*
X6388976Y-9686976D01*
X6541357Y-9867929D02*
X6550881Y-9877452D01*
X6541357Y-9886976D01*
X6531833Y-9877452D01*
X6541357Y-9867929D01*
X6541357Y-9886976D01*
X6674690Y-9686976D02*
X6693738Y-9686976D01*
X6712786Y-9696500D01*
X6722309Y-9706024D01*
X6731833Y-9725071D01*
X6741357Y-9763167D01*
X6741357Y-9810786D01*
X6731833Y-9848881D01*
X6722309Y-9867929D01*
X6712786Y-9877452D01*
X6693738Y-9886976D01*
X6674690Y-9886976D01*
X6655643Y-9877452D01*
X6646119Y-9867929D01*
X6636595Y-9848881D01*
X6627071Y-9810786D01*
X6627071Y-9763167D01*
X6636595Y-9725071D01*
X6646119Y-9706024D01*
X6655643Y-9696500D01*
X6674690Y-9686976D01*
X6817548Y-9706024D02*
X6827071Y-9696500D01*
X6846119Y-9686976D01*
X6893738Y-9686976D01*
X6912786Y-9696500D01*
X6922309Y-9706024D01*
X6931833Y-9725071D01*
X6931833Y-9744119D01*
X6922309Y-9772690D01*
X6808024Y-9886976D01*
X6931833Y-9886976D01*
X7112786Y-9686976D02*
X7017548Y-9686976D01*
X7008024Y-9782214D01*
X7017548Y-9772690D01*
X7036595Y-9763167D01*
X7084214Y-9763167D01*
X7103262Y-9772690D01*
X7112786Y-9782214D01*
X7122309Y-9801262D01*
X7122309Y-9848881D01*
X7112786Y-9867929D01*
X7103262Y-9877452D01*
X7084214Y-9886976D01*
X7036595Y-9886976D01*
X7017548Y-9877452D01*
X7008024Y-9867929D01*
X7293738Y-9686976D02*
X7255643Y-9686976D01*
X7236595Y-9696500D01*
X7227071Y-9706024D01*
X7208024Y-9734595D01*
X7198500Y-9772690D01*
X7198500Y-9848881D01*
X7208024Y-9867929D01*
X7217548Y-9877452D01*
X7236595Y-9886976D01*
X7274690Y-9886976D01*
X7293738Y-9877452D01*
X7303262Y-9867929D01*
X7312786Y-9848881D01*
X7312786Y-9801262D01*
X7303262Y-9782214D01*
X7293738Y-9772690D01*
X7274690Y-9763167D01*
X7236595Y-9763167D01*
X7217548Y-9772690D01*
X7208024Y-9782214D01*
X7198500Y-9801262D01*
X7388976Y-9686976D02*
X7388976Y-9725071D01*
X7465167Y-9686976D02*
X7465167Y-9725071D01*
X7760405Y-9963167D02*
X7750881Y-9953643D01*
X7731833Y-9925071D01*
X7722309Y-9906024D01*
X7712786Y-9877452D01*
X7703262Y-9829833D01*
X7703262Y-9791738D01*
X7712786Y-9744119D01*
X7722309Y-9715548D01*
X7731833Y-9696500D01*
X7750881Y-9667929D01*
X7760405Y-9658405D01*
X7827071Y-9706024D02*
X7836595Y-9696500D01*
X7855643Y-9686976D01*
X7903262Y-9686976D01*
X7922309Y-9696500D01*
X7931833Y-9706024D01*
X7941357Y-9725071D01*
X7941357Y-9744119D01*
X7931833Y-9772690D01*
X7817548Y-9886976D01*
X7941357Y-9886976D01*
X8065167Y-9686976D02*
X8084214Y-9686976D01*
X8103262Y-9696500D01*
X8112786Y-9706024D01*
X8122309Y-9725071D01*
X8131833Y-9763167D01*
X8131833Y-9810786D01*
X8122309Y-9848881D01*
X8112786Y-9867929D01*
X8103262Y-9877452D01*
X8084214Y-9886976D01*
X8065167Y-9886976D01*
X8046119Y-9877452D01*
X8036595Y-9867929D01*
X8027071Y-9848881D01*
X8017548Y-9810786D01*
X8017548Y-9763167D01*
X8027071Y-9725071D01*
X8036595Y-9706024D01*
X8046119Y-9696500D01*
X8065167Y-9686976D01*
X8369928Y-9886976D02*
X8369928Y-9686976D01*
X8455643Y-9886976D02*
X8455643Y-9782214D01*
X8446119Y-9763167D01*
X8427071Y-9753643D01*
X8398500Y-9753643D01*
X8379452Y-9763167D01*
X8369928Y-9772690D01*
X8579452Y-9886976D02*
X8560405Y-9877452D01*
X8550881Y-9867929D01*
X8541357Y-9848881D01*
X8541357Y-9791738D01*
X8550881Y-9772690D01*
X8560405Y-9763167D01*
X8579452Y-9753643D01*
X8608024Y-9753643D01*
X8627071Y-9763167D01*
X8636595Y-9772690D01*
X8646119Y-9791738D01*
X8646119Y-9848881D01*
X8636595Y-9867929D01*
X8627071Y-9877452D01*
X8608024Y-9886976D01*
X8579452Y-9886976D01*
X8760405Y-9886976D02*
X8741357Y-9877452D01*
X8731833Y-9858405D01*
X8731833Y-9686976D01*
X8912786Y-9877452D02*
X8893738Y-9886976D01*
X8855643Y-9886976D01*
X8836595Y-9877452D01*
X8827071Y-9858405D01*
X8827071Y-9782214D01*
X8836595Y-9763167D01*
X8855643Y-9753643D01*
X8893738Y-9753643D01*
X8912786Y-9763167D01*
X8922310Y-9782214D01*
X8922310Y-9801262D01*
X8827071Y-9820310D01*
X8998500Y-9877452D02*
X9017548Y-9886976D01*
X9055643Y-9886976D01*
X9074690Y-9877452D01*
X9084214Y-9858405D01*
X9084214Y-9848881D01*
X9074690Y-9829833D01*
X9055643Y-9820310D01*
X9027071Y-9820310D01*
X9008024Y-9810786D01*
X8998500Y-9791738D01*
X8998500Y-9782214D01*
X9008024Y-9763167D01*
X9027071Y-9753643D01*
X9055643Y-9753643D01*
X9074690Y-9763167D01*
X9150881Y-9963167D02*
X9160405Y-9953643D01*
X9179452Y-9925071D01*
X9188976Y-9906024D01*
X9198500Y-9877452D01*
X9208024Y-9829833D01*
X9208024Y-9791738D01*
X9198500Y-9744119D01*
X9188976Y-9715548D01*
X9179452Y-9696500D01*
X9160405Y-9667929D01*
X9150881Y-9658405D01*
D14*
X4148500Y-10020500D02*
X4148500Y-10100500D01*
X4108500Y-10060500D02*
X4188500Y-10060500D01*
D11*
X4484214Y-9950976D02*
X4503262Y-9950976D01*
X4522310Y-9960500D01*
X4531833Y-9970024D01*
X4541357Y-9989071D01*
X4550881Y-10027167D01*
X4550881Y-10074786D01*
X4541357Y-10112881D01*
X4531833Y-10131929D01*
X4522310Y-10141452D01*
X4503262Y-10150976D01*
X4484214Y-10150976D01*
X4465167Y-10141452D01*
X4455643Y-10131929D01*
X4446119Y-10112881D01*
X4436595Y-10074786D01*
X4436595Y-10027167D01*
X4446119Y-9989071D01*
X4455643Y-9970024D01*
X4465167Y-9960500D01*
X4484214Y-9950976D01*
X4636595Y-10131929D02*
X4646119Y-10141452D01*
X4636595Y-10150976D01*
X4627071Y-10141452D01*
X4636595Y-10131929D01*
X4636595Y-10150976D01*
X4760405Y-10036690D02*
X4741357Y-10027167D01*
X4731833Y-10017643D01*
X4722310Y-9998595D01*
X4722310Y-9989071D01*
X4731833Y-9970024D01*
X4741357Y-9960500D01*
X4760405Y-9950976D01*
X4798500Y-9950976D01*
X4817548Y-9960500D01*
X4827071Y-9970024D01*
X4836595Y-9989071D01*
X4836595Y-9998595D01*
X4827071Y-10017643D01*
X4817548Y-10027167D01*
X4798500Y-10036690D01*
X4760405Y-10036690D01*
X4741357Y-10046214D01*
X4731833Y-10055738D01*
X4722310Y-10074786D01*
X4722310Y-10112881D01*
X4731833Y-10131929D01*
X4741357Y-10141452D01*
X4760405Y-10150976D01*
X4798500Y-10150976D01*
X4817548Y-10141452D01*
X4827071Y-10131929D01*
X4836595Y-10112881D01*
X4836595Y-10074786D01*
X4827071Y-10055738D01*
X4817548Y-10046214D01*
X4798500Y-10036690D01*
X4960405Y-9950976D02*
X4979452Y-9950976D01*
X4998500Y-9960500D01*
X5008024Y-9970024D01*
X5017548Y-9989071D01*
X5027071Y-10027167D01*
X5027071Y-10074786D01*
X5017548Y-10112881D01*
X5008024Y-10131929D01*
X4998500Y-10141452D01*
X4979452Y-10150976D01*
X4960405Y-10150976D01*
X4941357Y-10141452D01*
X4931833Y-10131929D01*
X4922310Y-10112881D01*
X4912786Y-10074786D01*
X4912786Y-10027167D01*
X4922310Y-9989071D01*
X4931833Y-9970024D01*
X4941357Y-9960500D01*
X4960405Y-9950976D01*
X5150881Y-9950976D02*
X5169929Y-9950976D01*
X5188976Y-9960500D01*
X5198500Y-9970024D01*
X5208024Y-9989071D01*
X5217548Y-10027167D01*
X5217548Y-10074786D01*
X5208024Y-10112881D01*
X5198500Y-10131929D01*
X5188976Y-10141452D01*
X5169929Y-10150976D01*
X5150881Y-10150976D01*
X5131833Y-10141452D01*
X5122310Y-10131929D01*
X5112786Y-10112881D01*
X5103262Y-10074786D01*
X5103262Y-10027167D01*
X5112786Y-9989071D01*
X5122310Y-9970024D01*
X5131833Y-9960500D01*
X5150881Y-9950976D01*
X5303262Y-10150976D02*
X5303262Y-10017643D01*
X5303262Y-10036690D02*
X5312786Y-10027167D01*
X5331833Y-10017643D01*
X5360405Y-10017643D01*
X5379452Y-10027167D01*
X5388976Y-10046214D01*
X5388976Y-10150976D01*
X5388976Y-10046214D02*
X5398500Y-10027167D01*
X5417548Y-10017643D01*
X5446119Y-10017643D01*
X5465167Y-10027167D01*
X5474690Y-10046214D01*
X5474690Y-10150976D01*
X5569929Y-10150976D02*
X5569929Y-10017643D01*
X5569929Y-10036690D02*
X5579452Y-10027167D01*
X5598500Y-10017643D01*
X5627071Y-10017643D01*
X5646119Y-10027167D01*
X5655643Y-10046214D01*
X5655643Y-10150976D01*
X5655643Y-10046214D02*
X5665167Y-10027167D01*
X5684214Y-10017643D01*
X5712786Y-10017643D01*
X5731833Y-10027167D01*
X5741357Y-10046214D01*
X5741357Y-10150976D01*
X6131833Y-9941452D02*
X5960405Y-10198595D01*
X6388976Y-9950976D02*
X6408024Y-9950976D01*
X6427071Y-9960500D01*
X6436595Y-9970024D01*
X6446119Y-9989071D01*
X6455643Y-10027167D01*
X6455643Y-10074786D01*
X6446119Y-10112881D01*
X6436595Y-10131929D01*
X6427071Y-10141452D01*
X6408024Y-10150976D01*
X6388976Y-10150976D01*
X6369928Y-10141452D01*
X6360405Y-10131929D01*
X6350881Y-10112881D01*
X6341357Y-10074786D01*
X6341357Y-10027167D01*
X6350881Y-9989071D01*
X6360405Y-9970024D01*
X6369928Y-9960500D01*
X6388976Y-9950976D01*
X6541357Y-10131929D02*
X6550881Y-10141452D01*
X6541357Y-10150976D01*
X6531833Y-10141452D01*
X6541357Y-10131929D01*
X6541357Y-10150976D01*
X6674690Y-9950976D02*
X6693738Y-9950976D01*
X6712786Y-9960500D01*
X6722309Y-9970024D01*
X6731833Y-9989071D01*
X6741357Y-10027167D01*
X6741357Y-10074786D01*
X6731833Y-10112881D01*
X6722309Y-10131929D01*
X6712786Y-10141452D01*
X6693738Y-10150976D01*
X6674690Y-10150976D01*
X6655643Y-10141452D01*
X6646119Y-10131929D01*
X6636595Y-10112881D01*
X6627071Y-10074786D01*
X6627071Y-10027167D01*
X6636595Y-9989071D01*
X6646119Y-9970024D01*
X6655643Y-9960500D01*
X6674690Y-9950976D01*
X6808024Y-9950976D02*
X6931833Y-9950976D01*
X6865167Y-10027167D01*
X6893738Y-10027167D01*
X6912786Y-10036690D01*
X6922309Y-10046214D01*
X6931833Y-10065262D01*
X6931833Y-10112881D01*
X6922309Y-10131929D01*
X6912786Y-10141452D01*
X6893738Y-10150976D01*
X6836595Y-10150976D01*
X6817548Y-10141452D01*
X6808024Y-10131929D01*
X7122309Y-10150976D02*
X7008024Y-10150976D01*
X7065167Y-10150976D02*
X7065167Y-9950976D01*
X7046119Y-9979548D01*
X7027071Y-9998595D01*
X7008024Y-10008119D01*
X7303262Y-9950976D02*
X7208024Y-9950976D01*
X7198500Y-10046214D01*
X7208024Y-10036690D01*
X7227071Y-10027167D01*
X7274690Y-10027167D01*
X7293738Y-10036690D01*
X7303262Y-10046214D01*
X7312786Y-10065262D01*
X7312786Y-10112881D01*
X7303262Y-10131929D01*
X7293738Y-10141452D01*
X7274690Y-10150976D01*
X7227071Y-10150976D01*
X7208024Y-10141452D01*
X7198500Y-10131929D01*
X7388976Y-9950976D02*
X7388976Y-9989071D01*
X7465167Y-9950976D02*
X7465167Y-9989071D01*
X7760405Y-10227167D02*
X7750881Y-10217643D01*
X7731833Y-10189071D01*
X7722309Y-10170024D01*
X7712786Y-10141452D01*
X7703262Y-10093833D01*
X7703262Y-10055738D01*
X7712786Y-10008119D01*
X7722309Y-9979548D01*
X7731833Y-9960500D01*
X7750881Y-9931929D01*
X7760405Y-9922405D01*
X7941357Y-10150976D02*
X7827071Y-10150976D01*
X7884214Y-10150976D02*
X7884214Y-9950976D01*
X7865167Y-9979548D01*
X7846119Y-9998595D01*
X7827071Y-10008119D01*
X8112786Y-9950976D02*
X8074690Y-9950976D01*
X8055643Y-9960500D01*
X8046119Y-9970024D01*
X8027071Y-9998595D01*
X8017548Y-10036690D01*
X8017548Y-10112881D01*
X8027071Y-10131929D01*
X8036595Y-10141452D01*
X8055643Y-10150976D01*
X8093738Y-10150976D01*
X8112786Y-10141452D01*
X8122309Y-10131929D01*
X8131833Y-10112881D01*
X8131833Y-10065262D01*
X8122309Y-10046214D01*
X8112786Y-10036690D01*
X8093738Y-10027167D01*
X8055643Y-10027167D01*
X8036595Y-10036690D01*
X8027071Y-10046214D01*
X8017548Y-10065262D01*
X8369928Y-10150976D02*
X8369928Y-9950976D01*
X8455643Y-10150976D02*
X8455643Y-10046214D01*
X8446119Y-10027167D01*
X8427071Y-10017643D01*
X8398500Y-10017643D01*
X8379452Y-10027167D01*
X8369928Y-10036690D01*
X8579452Y-10150976D02*
X8560405Y-10141452D01*
X8550881Y-10131929D01*
X8541357Y-10112881D01*
X8541357Y-10055738D01*
X8550881Y-10036690D01*
X8560405Y-10027167D01*
X8579452Y-10017643D01*
X8608024Y-10017643D01*
X8627071Y-10027167D01*
X8636595Y-10036690D01*
X8646119Y-10055738D01*
X8646119Y-10112881D01*
X8636595Y-10131929D01*
X8627071Y-10141452D01*
X8608024Y-10150976D01*
X8579452Y-10150976D01*
X8760405Y-10150976D02*
X8741357Y-10141452D01*
X8731833Y-10122405D01*
X8731833Y-9950976D01*
X8912786Y-10141452D02*
X8893738Y-10150976D01*
X8855643Y-10150976D01*
X8836595Y-10141452D01*
X8827071Y-10122405D01*
X8827071Y-10046214D01*
X8836595Y-10027167D01*
X8855643Y-10017643D01*
X8893738Y-10017643D01*
X8912786Y-10027167D01*
X8922310Y-10046214D01*
X8922310Y-10065262D01*
X8827071Y-10084310D01*
X8998500Y-10141452D02*
X9017548Y-10150976D01*
X9055643Y-10150976D01*
X9074690Y-10141452D01*
X9084214Y-10122405D01*
X9084214Y-10112881D01*
X9074690Y-10093833D01*
X9055643Y-10084310D01*
X9027071Y-10084310D01*
X9008024Y-10074786D01*
X8998500Y-10055738D01*
X8998500Y-10046214D01*
X9008024Y-10027167D01*
X9027071Y-10017643D01*
X9055643Y-10017643D01*
X9074690Y-10027167D01*
X9150881Y-10227167D02*
X9160405Y-10217643D01*
X9179452Y-10189071D01*
X9188976Y-10170024D01*
X9198500Y-10141452D01*
X9208024Y-10093833D01*
X9208024Y-10055738D01*
X9198500Y-10008119D01*
X9188976Y-9979548D01*
X9179452Y-9960500D01*
X9160405Y-9931929D01*
X9150881Y-9922405D01*
D15*
X4173856Y-10359856D02*
X4173856Y-10289144D01*
X4103144Y-10289144D01*
X4103144Y-10359856D01*
X4173856Y-10359856D01*
D11*
X4550881Y-10414976D02*
X4436595Y-10414976D01*
X4493738Y-10414976D02*
X4493738Y-10214976D01*
X4474690Y-10243548D01*
X4455643Y-10262595D01*
X4436595Y-10272119D01*
X4636595Y-10395929D02*
X4646119Y-10405452D01*
X4636595Y-10414976D01*
X4627071Y-10405452D01*
X4636595Y-10395929D01*
X4636595Y-10414976D01*
X4769929Y-10214976D02*
X4788976Y-10214976D01*
X4808024Y-10224500D01*
X4817548Y-10234024D01*
X4827071Y-10253071D01*
X4836595Y-10291167D01*
X4836595Y-10338786D01*
X4827071Y-10376881D01*
X4817548Y-10395929D01*
X4808024Y-10405452D01*
X4788976Y-10414976D01*
X4769929Y-10414976D01*
X4750881Y-10405452D01*
X4741357Y-10395929D01*
X4731833Y-10376881D01*
X4722310Y-10338786D01*
X4722310Y-10291167D01*
X4731833Y-10253071D01*
X4741357Y-10234024D01*
X4750881Y-10224500D01*
X4769929Y-10214976D01*
X4960405Y-10214976D02*
X4979452Y-10214976D01*
X4998500Y-10224500D01*
X5008024Y-10234024D01*
X5017548Y-10253071D01*
X5027071Y-10291167D01*
X5027071Y-10338786D01*
X5017548Y-10376881D01*
X5008024Y-10395929D01*
X4998500Y-10405452D01*
X4979452Y-10414976D01*
X4960405Y-10414976D01*
X4941357Y-10405452D01*
X4931833Y-10395929D01*
X4922310Y-10376881D01*
X4912786Y-10338786D01*
X4912786Y-10291167D01*
X4922310Y-10253071D01*
X4931833Y-10234024D01*
X4941357Y-10224500D01*
X4960405Y-10214976D01*
X5150881Y-10214976D02*
X5169929Y-10214976D01*
X5188976Y-10224500D01*
X5198500Y-10234024D01*
X5208024Y-10253071D01*
X5217548Y-10291167D01*
X5217548Y-10338786D01*
X5208024Y-10376881D01*
X5198500Y-10395929D01*
X5188976Y-10405452D01*
X5169929Y-10414976D01*
X5150881Y-10414976D01*
X5131833Y-10405452D01*
X5122310Y-10395929D01*
X5112786Y-10376881D01*
X5103262Y-10338786D01*
X5103262Y-10291167D01*
X5112786Y-10253071D01*
X5122310Y-10234024D01*
X5131833Y-10224500D01*
X5150881Y-10214976D01*
X5303262Y-10414976D02*
X5303262Y-10281643D01*
X5303262Y-10300690D02*
X5312786Y-10291167D01*
X5331833Y-10281643D01*
X5360405Y-10281643D01*
X5379452Y-10291167D01*
X5388976Y-10310214D01*
X5388976Y-10414976D01*
X5388976Y-10310214D02*
X5398500Y-10291167D01*
X5417548Y-10281643D01*
X5446119Y-10281643D01*
X5465167Y-10291167D01*
X5474690Y-10310214D01*
X5474690Y-10414976D01*
X5569929Y-10414976D02*
X5569929Y-10281643D01*
X5569929Y-10300690D02*
X5579452Y-10291167D01*
X5598500Y-10281643D01*
X5627071Y-10281643D01*
X5646119Y-10291167D01*
X5655643Y-10310214D01*
X5655643Y-10414976D01*
X5655643Y-10310214D02*
X5665167Y-10291167D01*
X5684214Y-10281643D01*
X5712786Y-10281643D01*
X5731833Y-10291167D01*
X5741357Y-10310214D01*
X5741357Y-10414976D01*
X6131833Y-10205452D02*
X5960405Y-10462595D01*
X6388976Y-10214976D02*
X6408024Y-10214976D01*
X6427071Y-10224500D01*
X6436595Y-10234024D01*
X6446119Y-10253071D01*
X6455643Y-10291167D01*
X6455643Y-10338786D01*
X6446119Y-10376881D01*
X6436595Y-10395929D01*
X6427071Y-10405452D01*
X6408024Y-10414976D01*
X6388976Y-10414976D01*
X6369928Y-10405452D01*
X6360405Y-10395929D01*
X6350881Y-10376881D01*
X6341357Y-10338786D01*
X6341357Y-10291167D01*
X6350881Y-10253071D01*
X6360405Y-10234024D01*
X6369928Y-10224500D01*
X6388976Y-10214976D01*
X6541357Y-10395929D02*
X6550881Y-10405452D01*
X6541357Y-10414976D01*
X6531833Y-10405452D01*
X6541357Y-10395929D01*
X6541357Y-10414976D01*
X6674690Y-10214976D02*
X6693738Y-10214976D01*
X6712786Y-10224500D01*
X6722309Y-10234024D01*
X6731833Y-10253071D01*
X6741357Y-10291167D01*
X6741357Y-10338786D01*
X6731833Y-10376881D01*
X6722309Y-10395929D01*
X6712786Y-10405452D01*
X6693738Y-10414976D01*
X6674690Y-10414976D01*
X6655643Y-10405452D01*
X6646119Y-10395929D01*
X6636595Y-10376881D01*
X6627071Y-10338786D01*
X6627071Y-10291167D01*
X6636595Y-10253071D01*
X6646119Y-10234024D01*
X6655643Y-10224500D01*
X6674690Y-10214976D01*
X6808024Y-10214976D02*
X6931833Y-10214976D01*
X6865167Y-10291167D01*
X6893738Y-10291167D01*
X6912786Y-10300690D01*
X6922309Y-10310214D01*
X6931833Y-10329262D01*
X6931833Y-10376881D01*
X6922309Y-10395929D01*
X6912786Y-10405452D01*
X6893738Y-10414976D01*
X6836595Y-10414976D01*
X6817548Y-10405452D01*
X6808024Y-10395929D01*
X7027071Y-10414976D02*
X7065167Y-10414976D01*
X7084214Y-10405452D01*
X7093738Y-10395929D01*
X7112786Y-10367357D01*
X7122309Y-10329262D01*
X7122309Y-10253071D01*
X7112786Y-10234024D01*
X7103262Y-10224500D01*
X7084214Y-10214976D01*
X7046119Y-10214976D01*
X7027071Y-10224500D01*
X7017548Y-10234024D01*
X7008024Y-10253071D01*
X7008024Y-10300690D01*
X7017548Y-10319738D01*
X7027071Y-10329262D01*
X7046119Y-10338786D01*
X7084214Y-10338786D01*
X7103262Y-10329262D01*
X7112786Y-10319738D01*
X7122309Y-10300690D01*
X7293738Y-10281643D02*
X7293738Y-10414976D01*
X7246119Y-10205452D02*
X7198500Y-10348310D01*
X7322309Y-10348310D01*
X7388976Y-10214976D02*
X7388976Y-10253071D01*
X7465167Y-10214976D02*
X7465167Y-10253071D01*
X7760405Y-10491167D02*
X7750881Y-10481643D01*
X7731833Y-10453071D01*
X7722309Y-10434024D01*
X7712786Y-10405452D01*
X7703262Y-10357833D01*
X7703262Y-10319738D01*
X7712786Y-10272119D01*
X7722309Y-10243548D01*
X7731833Y-10224500D01*
X7750881Y-10195929D01*
X7760405Y-10186405D01*
X7817548Y-10214976D02*
X7941357Y-10214976D01*
X7874690Y-10291167D01*
X7903262Y-10291167D01*
X7922309Y-10300690D01*
X7931833Y-10310214D01*
X7941357Y-10329262D01*
X7941357Y-10376881D01*
X7931833Y-10395929D01*
X7922309Y-10405452D01*
X7903262Y-10414976D01*
X7846119Y-10414976D01*
X7827071Y-10405452D01*
X7817548Y-10395929D01*
X8112786Y-10214976D02*
X8074690Y-10214976D01*
X8055643Y-10224500D01*
X8046119Y-10234024D01*
X8027071Y-10262595D01*
X8017548Y-10300690D01*
X8017548Y-10376881D01*
X8027071Y-10395929D01*
X8036595Y-10405452D01*
X8055643Y-10414976D01*
X8093738Y-10414976D01*
X8112786Y-10405452D01*
X8122309Y-10395929D01*
X8131833Y-10376881D01*
X8131833Y-10329262D01*
X8122309Y-10310214D01*
X8112786Y-10300690D01*
X8093738Y-10291167D01*
X8055643Y-10291167D01*
X8036595Y-10300690D01*
X8027071Y-10310214D01*
X8017548Y-10329262D01*
X8369928Y-10414976D02*
X8369928Y-10214976D01*
X8455643Y-10414976D02*
X8455643Y-10310214D01*
X8446119Y-10291167D01*
X8427071Y-10281643D01*
X8398500Y-10281643D01*
X8379452Y-10291167D01*
X8369928Y-10300690D01*
X8579452Y-10414976D02*
X8560405Y-10405452D01*
X8550881Y-10395929D01*
X8541357Y-10376881D01*
X8541357Y-10319738D01*
X8550881Y-10300690D01*
X8560405Y-10291167D01*
X8579452Y-10281643D01*
X8608024Y-10281643D01*
X8627071Y-10291167D01*
X8636595Y-10300690D01*
X8646119Y-10319738D01*
X8646119Y-10376881D01*
X8636595Y-10395929D01*
X8627071Y-10405452D01*
X8608024Y-10414976D01*
X8579452Y-10414976D01*
X8760405Y-10414976D02*
X8741357Y-10405452D01*
X8731833Y-10386405D01*
X8731833Y-10214976D01*
X8912786Y-10405452D02*
X8893738Y-10414976D01*
X8855643Y-10414976D01*
X8836595Y-10405452D01*
X8827071Y-10386405D01*
X8827071Y-10310214D01*
X8836595Y-10291167D01*
X8855643Y-10281643D01*
X8893738Y-10281643D01*
X8912786Y-10291167D01*
X8922310Y-10310214D01*
X8922310Y-10329262D01*
X8827071Y-10348310D01*
X8998500Y-10405452D02*
X9017548Y-10414976D01*
X9055643Y-10414976D01*
X9074690Y-10405452D01*
X9084214Y-10386405D01*
X9084214Y-10376881D01*
X9074690Y-10357833D01*
X9055643Y-10348310D01*
X9027071Y-10348310D01*
X9008024Y-10338786D01*
X8998500Y-10319738D01*
X8998500Y-10310214D01*
X9008024Y-10291167D01*
X9027071Y-10281643D01*
X9055643Y-10281643D01*
X9074690Y-10291167D01*
X9150881Y-10491167D02*
X9160405Y-10481643D01*
X9179452Y-10453071D01*
X9188976Y-10434024D01*
X9198500Y-10405452D01*
X9208024Y-10357833D01*
X9208024Y-10319738D01*
X9198500Y-10272119D01*
X9188976Y-10243548D01*
X9179452Y-10224500D01*
X9160405Y-10195929D01*
X9150881Y-10186405D01*
D16*
X4137500Y-10639500D02*
X4188500Y-10588500D01*
X4137500Y-10537500D01*
X4086500Y-10588500D01*
X4137500Y-10639500D01*
D11*
X4550881Y-10678976D02*
X4436595Y-10678976D01*
X4493738Y-10678976D02*
X4493738Y-10478976D01*
X4474690Y-10507548D01*
X4455643Y-10526595D01*
X4436595Y-10536119D01*
X4636595Y-10659929D02*
X4646119Y-10669452D01*
X4636595Y-10678976D01*
X4627071Y-10669452D01*
X4636595Y-10659929D01*
X4636595Y-10678976D01*
X4769929Y-10478976D02*
X4788976Y-10478976D01*
X4808024Y-10488500D01*
X4817548Y-10498024D01*
X4827071Y-10517071D01*
X4836595Y-10555167D01*
X4836595Y-10602786D01*
X4827071Y-10640881D01*
X4817548Y-10659929D01*
X4808024Y-10669452D01*
X4788976Y-10678976D01*
X4769929Y-10678976D01*
X4750881Y-10669452D01*
X4741357Y-10659929D01*
X4731833Y-10640881D01*
X4722310Y-10602786D01*
X4722310Y-10555167D01*
X4731833Y-10517071D01*
X4741357Y-10498024D01*
X4750881Y-10488500D01*
X4769929Y-10478976D01*
X4912786Y-10498024D02*
X4922310Y-10488500D01*
X4941357Y-10478976D01*
X4988976Y-10478976D01*
X5008024Y-10488500D01*
X5017548Y-10498024D01*
X5027071Y-10517071D01*
X5027071Y-10536119D01*
X5017548Y-10564690D01*
X4903262Y-10678976D01*
X5027071Y-10678976D01*
X5150881Y-10478976D02*
X5169929Y-10478976D01*
X5188976Y-10488500D01*
X5198500Y-10498024D01*
X5208024Y-10517071D01*
X5217548Y-10555167D01*
X5217548Y-10602786D01*
X5208024Y-10640881D01*
X5198500Y-10659929D01*
X5188976Y-10669452D01*
X5169929Y-10678976D01*
X5150881Y-10678976D01*
X5131833Y-10669452D01*
X5122310Y-10659929D01*
X5112786Y-10640881D01*
X5103262Y-10602786D01*
X5103262Y-10555167D01*
X5112786Y-10517071D01*
X5122310Y-10498024D01*
X5131833Y-10488500D01*
X5150881Y-10478976D01*
X5303262Y-10678976D02*
X5303262Y-10545643D01*
X5303262Y-10564690D02*
X5312786Y-10555167D01*
X5331833Y-10545643D01*
X5360405Y-10545643D01*
X5379452Y-10555167D01*
X5388976Y-10574214D01*
X5388976Y-10678976D01*
X5388976Y-10574214D02*
X5398500Y-10555167D01*
X5417548Y-10545643D01*
X5446119Y-10545643D01*
X5465167Y-10555167D01*
X5474690Y-10574214D01*
X5474690Y-10678976D01*
X5569929Y-10678976D02*
X5569929Y-10545643D01*
X5569929Y-10564690D02*
X5579452Y-10555167D01*
X5598500Y-10545643D01*
X5627071Y-10545643D01*
X5646119Y-10555167D01*
X5655643Y-10574214D01*
X5655643Y-10678976D01*
X5655643Y-10574214D02*
X5665167Y-10555167D01*
X5684214Y-10545643D01*
X5712786Y-10545643D01*
X5731833Y-10555167D01*
X5741357Y-10574214D01*
X5741357Y-10678976D01*
X6131833Y-10469452D02*
X5960405Y-10726595D01*
X6388976Y-10478976D02*
X6408024Y-10478976D01*
X6427071Y-10488500D01*
X6436595Y-10498024D01*
X6446119Y-10517071D01*
X6455643Y-10555167D01*
X6455643Y-10602786D01*
X6446119Y-10640881D01*
X6436595Y-10659929D01*
X6427071Y-10669452D01*
X6408024Y-10678976D01*
X6388976Y-10678976D01*
X6369928Y-10669452D01*
X6360405Y-10659929D01*
X6350881Y-10640881D01*
X6341357Y-10602786D01*
X6341357Y-10555167D01*
X6350881Y-10517071D01*
X6360405Y-10498024D01*
X6369928Y-10488500D01*
X6388976Y-10478976D01*
X6541357Y-10659929D02*
X6550881Y-10669452D01*
X6541357Y-10678976D01*
X6531833Y-10669452D01*
X6541357Y-10659929D01*
X6541357Y-10678976D01*
X6674690Y-10478976D02*
X6693738Y-10478976D01*
X6712786Y-10488500D01*
X6722309Y-10498024D01*
X6731833Y-10517071D01*
X6741357Y-10555167D01*
X6741357Y-10602786D01*
X6731833Y-10640881D01*
X6722309Y-10659929D01*
X6712786Y-10669452D01*
X6693738Y-10678976D01*
X6674690Y-10678976D01*
X6655643Y-10669452D01*
X6646119Y-10659929D01*
X6636595Y-10640881D01*
X6627071Y-10602786D01*
X6627071Y-10555167D01*
X6636595Y-10517071D01*
X6646119Y-10498024D01*
X6655643Y-10488500D01*
X6674690Y-10478976D01*
X6912786Y-10545643D02*
X6912786Y-10678976D01*
X6865167Y-10469452D02*
X6817548Y-10612310D01*
X6941357Y-10612310D01*
X7055643Y-10478976D02*
X7074690Y-10478976D01*
X7093738Y-10488500D01*
X7103262Y-10498024D01*
X7112786Y-10517071D01*
X7122309Y-10555167D01*
X7122309Y-10602786D01*
X7112786Y-10640881D01*
X7103262Y-10659929D01*
X7093738Y-10669452D01*
X7074690Y-10678976D01*
X7055643Y-10678976D01*
X7036595Y-10669452D01*
X7027071Y-10659929D01*
X7017548Y-10640881D01*
X7008024Y-10602786D01*
X7008024Y-10555167D01*
X7017548Y-10517071D01*
X7027071Y-10498024D01*
X7036595Y-10488500D01*
X7055643Y-10478976D01*
X7198500Y-10498024D02*
X7208024Y-10488500D01*
X7227071Y-10478976D01*
X7274690Y-10478976D01*
X7293738Y-10488500D01*
X7303262Y-10498024D01*
X7312786Y-10517071D01*
X7312786Y-10536119D01*
X7303262Y-10564690D01*
X7188976Y-10678976D01*
X7312786Y-10678976D01*
X7388976Y-10478976D02*
X7388976Y-10517071D01*
X7465167Y-10478976D02*
X7465167Y-10517071D01*
X7760405Y-10755167D02*
X7750881Y-10745643D01*
X7731833Y-10717071D01*
X7722309Y-10698024D01*
X7712786Y-10669452D01*
X7703262Y-10621833D01*
X7703262Y-10583738D01*
X7712786Y-10536119D01*
X7722309Y-10507548D01*
X7731833Y-10488500D01*
X7750881Y-10459929D01*
X7760405Y-10450405D01*
X7817548Y-10478976D02*
X7950881Y-10478976D01*
X7865167Y-10678976D01*
X8179452Y-10678976D02*
X8179452Y-10478976D01*
X8265167Y-10678976D02*
X8265167Y-10574214D01*
X8255643Y-10555167D01*
X8236595Y-10545643D01*
X8208024Y-10545643D01*
X8188976Y-10555167D01*
X8179452Y-10564690D01*
X8388976Y-10678976D02*
X8369928Y-10669452D01*
X8360405Y-10659929D01*
X8350881Y-10640881D01*
X8350881Y-10583738D01*
X8360405Y-10564690D01*
X8369928Y-10555167D01*
X8388976Y-10545643D01*
X8417548Y-10545643D01*
X8436595Y-10555167D01*
X8446119Y-10564690D01*
X8455643Y-10583738D01*
X8455643Y-10640881D01*
X8446119Y-10659929D01*
X8436595Y-10669452D01*
X8417548Y-10678976D01*
X8388976Y-10678976D01*
X8569929Y-10678976D02*
X8550881Y-10669452D01*
X8541357Y-10650405D01*
X8541357Y-10478976D01*
X8722310Y-10669452D02*
X8703262Y-10678976D01*
X8665167Y-10678976D01*
X8646119Y-10669452D01*
X8636595Y-10650405D01*
X8636595Y-10574214D01*
X8646119Y-10555167D01*
X8665167Y-10545643D01*
X8703262Y-10545643D01*
X8722310Y-10555167D01*
X8731833Y-10574214D01*
X8731833Y-10593262D01*
X8636595Y-10612310D01*
X8808024Y-10669452D02*
X8827071Y-10678976D01*
X8865167Y-10678976D01*
X8884214Y-10669452D01*
X8893738Y-10650405D01*
X8893738Y-10640881D01*
X8884214Y-10621833D01*
X8865167Y-10612310D01*
X8836595Y-10612310D01*
X8817548Y-10602786D01*
X8808024Y-10583738D01*
X8808024Y-10574214D01*
X8817548Y-10555167D01*
X8836595Y-10545643D01*
X8865167Y-10545643D01*
X8884214Y-10555167D01*
X8960405Y-10755167D02*
X8969929Y-10745643D01*
X8988976Y-10717071D01*
X8998500Y-10698024D01*
X9008024Y-10669452D01*
X9017548Y-10621833D01*
X9017548Y-10583738D01*
X9008024Y-10536119D01*
X8998500Y-10507548D01*
X8988976Y-10488500D01*
X8969929Y-10459929D01*
X8960405Y-10450405D01*
D17*
X4078500Y-10797500D02*
X4188500Y-10907500D01*
X4188500Y-10797500D02*
X4078500Y-10907500D01*
X4188500Y-10852500D02*
G75*
G03*
X4188500Y-10852500I-55000J0D01*
G01*
D11*
X4550881Y-10942976D02*
X4436595Y-10942976D01*
X4493738Y-10942976D02*
X4493738Y-10742976D01*
X4474690Y-10771548D01*
X4455643Y-10790595D01*
X4436595Y-10800119D01*
X4636595Y-10923929D02*
X4646119Y-10933452D01*
X4636595Y-10942976D01*
X4627071Y-10933452D01*
X4636595Y-10923929D01*
X4636595Y-10942976D01*
X4836595Y-10942976D02*
X4722310Y-10942976D01*
X4779452Y-10942976D02*
X4779452Y-10742976D01*
X4760405Y-10771548D01*
X4741357Y-10790595D01*
X4722310Y-10800119D01*
X4960405Y-10742976D02*
X4979452Y-10742976D01*
X4998500Y-10752500D01*
X5008024Y-10762024D01*
X5017548Y-10781071D01*
X5027071Y-10819167D01*
X5027071Y-10866786D01*
X5017548Y-10904881D01*
X5008024Y-10923929D01*
X4998500Y-10933452D01*
X4979452Y-10942976D01*
X4960405Y-10942976D01*
X4941357Y-10933452D01*
X4931833Y-10923929D01*
X4922310Y-10904881D01*
X4912786Y-10866786D01*
X4912786Y-10819167D01*
X4922310Y-10781071D01*
X4931833Y-10762024D01*
X4941357Y-10752500D01*
X4960405Y-10742976D01*
X5150881Y-10742976D02*
X5169929Y-10742976D01*
X5188976Y-10752500D01*
X5198500Y-10762024D01*
X5208024Y-10781071D01*
X5217548Y-10819167D01*
X5217548Y-10866786D01*
X5208024Y-10904881D01*
X5198500Y-10923929D01*
X5188976Y-10933452D01*
X5169929Y-10942976D01*
X5150881Y-10942976D01*
X5131833Y-10933452D01*
X5122310Y-10923929D01*
X5112786Y-10904881D01*
X5103262Y-10866786D01*
X5103262Y-10819167D01*
X5112786Y-10781071D01*
X5122310Y-10762024D01*
X5131833Y-10752500D01*
X5150881Y-10742976D01*
X5303262Y-10942976D02*
X5303262Y-10809643D01*
X5303262Y-10828690D02*
X5312786Y-10819167D01*
X5331833Y-10809643D01*
X5360405Y-10809643D01*
X5379452Y-10819167D01*
X5388976Y-10838214D01*
X5388976Y-10942976D01*
X5388976Y-10838214D02*
X5398500Y-10819167D01*
X5417548Y-10809643D01*
X5446119Y-10809643D01*
X5465167Y-10819167D01*
X5474690Y-10838214D01*
X5474690Y-10942976D01*
X5569929Y-10942976D02*
X5569929Y-10809643D01*
X5569929Y-10828690D02*
X5579452Y-10819167D01*
X5598500Y-10809643D01*
X5627071Y-10809643D01*
X5646119Y-10819167D01*
X5655643Y-10838214D01*
X5655643Y-10942976D01*
X5655643Y-10838214D02*
X5665167Y-10819167D01*
X5684214Y-10809643D01*
X5712786Y-10809643D01*
X5731833Y-10819167D01*
X5741357Y-10838214D01*
X5741357Y-10942976D01*
X6131833Y-10733452D02*
X5960405Y-10990595D01*
X6388976Y-10742976D02*
X6408024Y-10742976D01*
X6427071Y-10752500D01*
X6436595Y-10762024D01*
X6446119Y-10781071D01*
X6455643Y-10819167D01*
X6455643Y-10866786D01*
X6446119Y-10904881D01*
X6436595Y-10923929D01*
X6427071Y-10933452D01*
X6408024Y-10942976D01*
X6388976Y-10942976D01*
X6369928Y-10933452D01*
X6360405Y-10923929D01*
X6350881Y-10904881D01*
X6341357Y-10866786D01*
X6341357Y-10819167D01*
X6350881Y-10781071D01*
X6360405Y-10762024D01*
X6369928Y-10752500D01*
X6388976Y-10742976D01*
X6541357Y-10923929D02*
X6550881Y-10933452D01*
X6541357Y-10942976D01*
X6531833Y-10933452D01*
X6541357Y-10923929D01*
X6541357Y-10942976D01*
X6674690Y-10742976D02*
X6693738Y-10742976D01*
X6712786Y-10752500D01*
X6722309Y-10762024D01*
X6731833Y-10781071D01*
X6741357Y-10819167D01*
X6741357Y-10866786D01*
X6731833Y-10904881D01*
X6722309Y-10923929D01*
X6712786Y-10933452D01*
X6693738Y-10942976D01*
X6674690Y-10942976D01*
X6655643Y-10933452D01*
X6646119Y-10923929D01*
X6636595Y-10904881D01*
X6627071Y-10866786D01*
X6627071Y-10819167D01*
X6636595Y-10781071D01*
X6646119Y-10762024D01*
X6655643Y-10752500D01*
X6674690Y-10742976D01*
X6912786Y-10809643D02*
X6912786Y-10942976D01*
X6865167Y-10733452D02*
X6817548Y-10876310D01*
X6941357Y-10876310D01*
X6998500Y-10742976D02*
X7122309Y-10742976D01*
X7055643Y-10819167D01*
X7084214Y-10819167D01*
X7103262Y-10828690D01*
X7112786Y-10838214D01*
X7122309Y-10857262D01*
X7122309Y-10904881D01*
X7112786Y-10923929D01*
X7103262Y-10933452D01*
X7084214Y-10942976D01*
X7027071Y-10942976D01*
X7008024Y-10933452D01*
X6998500Y-10923929D01*
X7188976Y-10742976D02*
X7312786Y-10742976D01*
X7246119Y-10819167D01*
X7274690Y-10819167D01*
X7293738Y-10828690D01*
X7303262Y-10838214D01*
X7312786Y-10857262D01*
X7312786Y-10904881D01*
X7303262Y-10923929D01*
X7293738Y-10933452D01*
X7274690Y-10942976D01*
X7217548Y-10942976D01*
X7198500Y-10933452D01*
X7188976Y-10923929D01*
X7388976Y-10742976D02*
X7388976Y-10781071D01*
X7465167Y-10742976D02*
X7465167Y-10781071D01*
X7760405Y-11019167D02*
X7750881Y-11009643D01*
X7731833Y-10981071D01*
X7722309Y-10962024D01*
X7712786Y-10933452D01*
X7703262Y-10885833D01*
X7703262Y-10847738D01*
X7712786Y-10800119D01*
X7722309Y-10771548D01*
X7731833Y-10752500D01*
X7750881Y-10723929D01*
X7760405Y-10714405D01*
X7931833Y-10742976D02*
X7836595Y-10742976D01*
X7827071Y-10838214D01*
X7836595Y-10828690D01*
X7855643Y-10819167D01*
X7903262Y-10819167D01*
X7922309Y-10828690D01*
X7931833Y-10838214D01*
X7941357Y-10857262D01*
X7941357Y-10904881D01*
X7931833Y-10923929D01*
X7922309Y-10933452D01*
X7903262Y-10942976D01*
X7855643Y-10942976D01*
X7836595Y-10933452D01*
X7827071Y-10923929D01*
X8036595Y-10942976D02*
X8074690Y-10942976D01*
X8093738Y-10933452D01*
X8103262Y-10923929D01*
X8122309Y-10895357D01*
X8131833Y-10857262D01*
X8131833Y-10781071D01*
X8122309Y-10762024D01*
X8112786Y-10752500D01*
X8093738Y-10742976D01*
X8055643Y-10742976D01*
X8036595Y-10752500D01*
X8027071Y-10762024D01*
X8017548Y-10781071D01*
X8017548Y-10828690D01*
X8027071Y-10847738D01*
X8036595Y-10857262D01*
X8055643Y-10866786D01*
X8093738Y-10866786D01*
X8112786Y-10857262D01*
X8122309Y-10847738D01*
X8131833Y-10828690D01*
X8369928Y-10942976D02*
X8369928Y-10742976D01*
X8455643Y-10942976D02*
X8455643Y-10838214D01*
X8446119Y-10819167D01*
X8427071Y-10809643D01*
X8398500Y-10809643D01*
X8379452Y-10819167D01*
X8369928Y-10828690D01*
X8579452Y-10942976D02*
X8560405Y-10933452D01*
X8550881Y-10923929D01*
X8541357Y-10904881D01*
X8541357Y-10847738D01*
X8550881Y-10828690D01*
X8560405Y-10819167D01*
X8579452Y-10809643D01*
X8608024Y-10809643D01*
X8627071Y-10819167D01*
X8636595Y-10828690D01*
X8646119Y-10847738D01*
X8646119Y-10904881D01*
X8636595Y-10923929D01*
X8627071Y-10933452D01*
X8608024Y-10942976D01*
X8579452Y-10942976D01*
X8760405Y-10942976D02*
X8741357Y-10933452D01*
X8731833Y-10914405D01*
X8731833Y-10742976D01*
X8912786Y-10933452D02*
X8893738Y-10942976D01*
X8855643Y-10942976D01*
X8836595Y-10933452D01*
X8827071Y-10914405D01*
X8827071Y-10838214D01*
X8836595Y-10819167D01*
X8855643Y-10809643D01*
X8893738Y-10809643D01*
X8912786Y-10819167D01*
X8922310Y-10838214D01*
X8922310Y-10857262D01*
X8827071Y-10876310D01*
X8998500Y-10933452D02*
X9017548Y-10942976D01*
X9055643Y-10942976D01*
X9074690Y-10933452D01*
X9084214Y-10914405D01*
X9084214Y-10904881D01*
X9074690Y-10885833D01*
X9055643Y-10876310D01*
X9027071Y-10876310D01*
X9008024Y-10866786D01*
X8998500Y-10847738D01*
X8998500Y-10838214D01*
X9008024Y-10819167D01*
X9027071Y-10809643D01*
X9055643Y-10809643D01*
X9074690Y-10819167D01*
X9150881Y-11019167D02*
X9160405Y-11009643D01*
X9179452Y-10981071D01*
X9188976Y-10962024D01*
X9198500Y-10933452D01*
X9208024Y-10885833D01*
X9208024Y-10847738D01*
X9198500Y-10800119D01*
X9188976Y-10771548D01*
X9179452Y-10752500D01*
X9160405Y-10723929D01*
X9150881Y-10714405D01*
X3988500Y-11016500D02*
X4188500Y-11216500D01*
X4188500Y-11016500D02*
X3988500Y-11216500D01*
X4088500Y-11016500D02*
X4088500Y-11216500D01*
X3988500Y-11116500D02*
X4188500Y-11116500D01*
X4436595Y-11026024D02*
X4446119Y-11016500D01*
X4465167Y-11006976D01*
X4512786Y-11006976D01*
X4531833Y-11016500D01*
X4541357Y-11026024D01*
X4550881Y-11045071D01*
X4550881Y-11064119D01*
X4541357Y-11092690D01*
X4427071Y-11206976D01*
X4550881Y-11206976D01*
X4636595Y-11187928D02*
X4646119Y-11197452D01*
X4636595Y-11206976D01*
X4627071Y-11197452D01*
X4636595Y-11187928D01*
X4636595Y-11206976D01*
X4769929Y-11006976D02*
X4788976Y-11006976D01*
X4808024Y-11016500D01*
X4817548Y-11026024D01*
X4827071Y-11045071D01*
X4836595Y-11083167D01*
X4836595Y-11130786D01*
X4827071Y-11168881D01*
X4817548Y-11187928D01*
X4808024Y-11197452D01*
X4788976Y-11206976D01*
X4769929Y-11206976D01*
X4750881Y-11197452D01*
X4741357Y-11187928D01*
X4731833Y-11168881D01*
X4722310Y-11130786D01*
X4722310Y-11083167D01*
X4731833Y-11045071D01*
X4741357Y-11026024D01*
X4750881Y-11016500D01*
X4769929Y-11006976D01*
X4960405Y-11006976D02*
X4979452Y-11006976D01*
X4998500Y-11016500D01*
X5008024Y-11026024D01*
X5017548Y-11045071D01*
X5027071Y-11083167D01*
X5027071Y-11130786D01*
X5017548Y-11168881D01*
X5008024Y-11187928D01*
X4998500Y-11197452D01*
X4979452Y-11206976D01*
X4960405Y-11206976D01*
X4941357Y-11197452D01*
X4931833Y-11187928D01*
X4922310Y-11168881D01*
X4912786Y-11130786D01*
X4912786Y-11083167D01*
X4922310Y-11045071D01*
X4931833Y-11026024D01*
X4941357Y-11016500D01*
X4960405Y-11006976D01*
X5150881Y-11006976D02*
X5169929Y-11006976D01*
X5188976Y-11016500D01*
X5198500Y-11026024D01*
X5208024Y-11045071D01*
X5217548Y-11083167D01*
X5217548Y-11130786D01*
X5208024Y-11168881D01*
X5198500Y-11187928D01*
X5188976Y-11197452D01*
X5169929Y-11206976D01*
X5150881Y-11206976D01*
X5131833Y-11197452D01*
X5122310Y-11187928D01*
X5112786Y-11168881D01*
X5103262Y-11130786D01*
X5103262Y-11083167D01*
X5112786Y-11045071D01*
X5122310Y-11026024D01*
X5131833Y-11016500D01*
X5150881Y-11006976D01*
X5303262Y-11206976D02*
X5303262Y-11073643D01*
X5303262Y-11092690D02*
X5312786Y-11083167D01*
X5331833Y-11073643D01*
X5360405Y-11073643D01*
X5379452Y-11083167D01*
X5388976Y-11102214D01*
X5388976Y-11206976D01*
X5388976Y-11102214D02*
X5398500Y-11083167D01*
X5417548Y-11073643D01*
X5446119Y-11073643D01*
X5465167Y-11083167D01*
X5474690Y-11102214D01*
X5474690Y-11206976D01*
X5569929Y-11206976D02*
X5569929Y-11073643D01*
X5569929Y-11092690D02*
X5579452Y-11083167D01*
X5598500Y-11073643D01*
X5627071Y-11073643D01*
X5646119Y-11083167D01*
X5655643Y-11102214D01*
X5655643Y-11206976D01*
X5655643Y-11102214D02*
X5665167Y-11083167D01*
X5684214Y-11073643D01*
X5712786Y-11073643D01*
X5731833Y-11083167D01*
X5741357Y-11102214D01*
X5741357Y-11206976D01*
X6131833Y-10997452D02*
X5960405Y-11254595D01*
X6388976Y-11006976D02*
X6408024Y-11006976D01*
X6427071Y-11016500D01*
X6436595Y-11026024D01*
X6446119Y-11045071D01*
X6455643Y-11083167D01*
X6455643Y-11130786D01*
X6446119Y-11168881D01*
X6436595Y-11187928D01*
X6427071Y-11197452D01*
X6408024Y-11206976D01*
X6388976Y-11206976D01*
X6369928Y-11197452D01*
X6360405Y-11187928D01*
X6350881Y-11168881D01*
X6341357Y-11130786D01*
X6341357Y-11083167D01*
X6350881Y-11045071D01*
X6360405Y-11026024D01*
X6369928Y-11016500D01*
X6388976Y-11006976D01*
X6541357Y-11187928D02*
X6550881Y-11197452D01*
X6541357Y-11206976D01*
X6531833Y-11197452D01*
X6541357Y-11187928D01*
X6541357Y-11206976D01*
X6674690Y-11006976D02*
X6693738Y-11006976D01*
X6712786Y-11016500D01*
X6722309Y-11026024D01*
X6731833Y-11045071D01*
X6741357Y-11083167D01*
X6741357Y-11130786D01*
X6731833Y-11168881D01*
X6722309Y-11187928D01*
X6712786Y-11197452D01*
X6693738Y-11206976D01*
X6674690Y-11206976D01*
X6655643Y-11197452D01*
X6646119Y-11187928D01*
X6636595Y-11168881D01*
X6627071Y-11130786D01*
X6627071Y-11083167D01*
X6636595Y-11045071D01*
X6646119Y-11026024D01*
X6655643Y-11016500D01*
X6674690Y-11006976D01*
X6808024Y-11006976D02*
X6941357Y-11006976D01*
X6855643Y-11206976D01*
X7046119Y-11092690D02*
X7027071Y-11083167D01*
X7017548Y-11073643D01*
X7008024Y-11054595D01*
X7008024Y-11045071D01*
X7017548Y-11026024D01*
X7027071Y-11016500D01*
X7046119Y-11006976D01*
X7084214Y-11006976D01*
X7103262Y-11016500D01*
X7112786Y-11026024D01*
X7122309Y-11045071D01*
X7122309Y-11054595D01*
X7112786Y-11073643D01*
X7103262Y-11083167D01*
X7084214Y-11092690D01*
X7046119Y-11092690D01*
X7027071Y-11102214D01*
X7017548Y-11111738D01*
X7008024Y-11130786D01*
X7008024Y-11168881D01*
X7017548Y-11187928D01*
X7027071Y-11197452D01*
X7046119Y-11206976D01*
X7084214Y-11206976D01*
X7103262Y-11197452D01*
X7112786Y-11187928D01*
X7122309Y-11168881D01*
X7122309Y-11130786D01*
X7112786Y-11111738D01*
X7103262Y-11102214D01*
X7084214Y-11092690D01*
X7188976Y-11006976D02*
X7322309Y-11006976D01*
X7236595Y-11206976D01*
X7388976Y-11006976D02*
X7388976Y-11045071D01*
X7465167Y-11006976D02*
X7465167Y-11045071D01*
X7760405Y-11283167D02*
X7750881Y-11273643D01*
X7731833Y-11245071D01*
X7722309Y-11226024D01*
X7712786Y-11197452D01*
X7703262Y-11149833D01*
X7703262Y-11111738D01*
X7712786Y-11064119D01*
X7722309Y-11035548D01*
X7731833Y-11016500D01*
X7750881Y-10987929D01*
X7760405Y-10978405D01*
X7922309Y-11073643D02*
X7922309Y-11206976D01*
X7874690Y-10997452D02*
X7827071Y-11140310D01*
X7950881Y-11140310D01*
X8179452Y-11206976D02*
X8179452Y-11006976D01*
X8265167Y-11206976D02*
X8265167Y-11102214D01*
X8255643Y-11083167D01*
X8236595Y-11073643D01*
X8208024Y-11073643D01*
X8188976Y-11083167D01*
X8179452Y-11092690D01*
X8388976Y-11206976D02*
X8369928Y-11197452D01*
X8360405Y-11187928D01*
X8350881Y-11168881D01*
X8350881Y-11111738D01*
X8360405Y-11092690D01*
X8369928Y-11083167D01*
X8388976Y-11073643D01*
X8417548Y-11073643D01*
X8436595Y-11083167D01*
X8446119Y-11092690D01*
X8455643Y-11111738D01*
X8455643Y-11168881D01*
X8446119Y-11187928D01*
X8436595Y-11197452D01*
X8417548Y-11206976D01*
X8388976Y-11206976D01*
X8569929Y-11206976D02*
X8550881Y-11197452D01*
X8541357Y-11178405D01*
X8541357Y-11006976D01*
X8722310Y-11197452D02*
X8703262Y-11206976D01*
X8665167Y-11206976D01*
X8646119Y-11197452D01*
X8636595Y-11178405D01*
X8636595Y-11102214D01*
X8646119Y-11083167D01*
X8665167Y-11073643D01*
X8703262Y-11073643D01*
X8722310Y-11083167D01*
X8731833Y-11102214D01*
X8731833Y-11121262D01*
X8636595Y-11140310D01*
X8808024Y-11197452D02*
X8827071Y-11206976D01*
X8865167Y-11206976D01*
X8884214Y-11197452D01*
X8893738Y-11178405D01*
X8893738Y-11168881D01*
X8884214Y-11149833D01*
X8865167Y-11140310D01*
X8836595Y-11140310D01*
X8817548Y-11130786D01*
X8808024Y-11111738D01*
X8808024Y-11102214D01*
X8817548Y-11083167D01*
X8836595Y-11073643D01*
X8865167Y-11073643D01*
X8884214Y-11083167D01*
X8960405Y-11283167D02*
X8969929Y-11273643D01*
X8988976Y-11245071D01*
X8998500Y-11226024D01*
X9008024Y-11197452D01*
X9017548Y-11149833D01*
X9017548Y-11111738D01*
X9008024Y-11064119D01*
X8998500Y-11035548D01*
X8988976Y-11016500D01*
X8969929Y-10987929D01*
X8960405Y-10978405D01*
X3988500Y-11336500D02*
X4188500Y-11536500D01*
X4188500Y-11336500D02*
X3988500Y-11536500D01*
X4159211Y-11507211D02*
X4159211Y-11365789D01*
X4017789Y-11365789D01*
X4017789Y-11507211D01*
X4159211Y-11507211D01*
X4436595Y-11346024D02*
X4446119Y-11336500D01*
X4465167Y-11326976D01*
X4512786Y-11326976D01*
X4531833Y-11336500D01*
X4541357Y-11346024D01*
X4550881Y-11365071D01*
X4550881Y-11384119D01*
X4541357Y-11412690D01*
X4427071Y-11526976D01*
X4550881Y-11526976D01*
X4636595Y-11507928D02*
X4646119Y-11517452D01*
X4636595Y-11526976D01*
X4627071Y-11517452D01*
X4636595Y-11507928D01*
X4636595Y-11526976D01*
X4712786Y-11326976D02*
X4846119Y-11326976D01*
X4760405Y-11526976D01*
X4960405Y-11326976D02*
X4979452Y-11326976D01*
X4998500Y-11336500D01*
X5008024Y-11346024D01*
X5017548Y-11365071D01*
X5027071Y-11403167D01*
X5027071Y-11450786D01*
X5017548Y-11488881D01*
X5008024Y-11507928D01*
X4998500Y-11517452D01*
X4979452Y-11526976D01*
X4960405Y-11526976D01*
X4941357Y-11517452D01*
X4931833Y-11507928D01*
X4922310Y-11488881D01*
X4912786Y-11450786D01*
X4912786Y-11403167D01*
X4922310Y-11365071D01*
X4931833Y-11346024D01*
X4941357Y-11336500D01*
X4960405Y-11326976D01*
X5150881Y-11326976D02*
X5169929Y-11326976D01*
X5188976Y-11336500D01*
X5198500Y-11346024D01*
X5208024Y-11365071D01*
X5217548Y-11403167D01*
X5217548Y-11450786D01*
X5208024Y-11488881D01*
X5198500Y-11507928D01*
X5188976Y-11517452D01*
X5169929Y-11526976D01*
X5150881Y-11526976D01*
X5131833Y-11517452D01*
X5122310Y-11507928D01*
X5112786Y-11488881D01*
X5103262Y-11450786D01*
X5103262Y-11403167D01*
X5112786Y-11365071D01*
X5122310Y-11346024D01*
X5131833Y-11336500D01*
X5150881Y-11326976D01*
X5303262Y-11526976D02*
X5303262Y-11393643D01*
X5303262Y-11412690D02*
X5312786Y-11403167D01*
X5331833Y-11393643D01*
X5360405Y-11393643D01*
X5379452Y-11403167D01*
X5388976Y-11422214D01*
X5388976Y-11526976D01*
X5388976Y-11422214D02*
X5398500Y-11403167D01*
X5417548Y-11393643D01*
X5446119Y-11393643D01*
X5465167Y-11403167D01*
X5474690Y-11422214D01*
X5474690Y-11526976D01*
X5569929Y-11526976D02*
X5569929Y-11393643D01*
X5569929Y-11412690D02*
X5579452Y-11403167D01*
X5598500Y-11393643D01*
X5627071Y-11393643D01*
X5646119Y-11403167D01*
X5655643Y-11422214D01*
X5655643Y-11526976D01*
X5655643Y-11422214D02*
X5665167Y-11403167D01*
X5684214Y-11393643D01*
X5712786Y-11393643D01*
X5731833Y-11403167D01*
X5741357Y-11422214D01*
X5741357Y-11526976D01*
X6131833Y-11317452D02*
X5960405Y-11574595D01*
X6388976Y-11326976D02*
X6408024Y-11326976D01*
X6427071Y-11336500D01*
X6436595Y-11346024D01*
X6446119Y-11365071D01*
X6455643Y-11403167D01*
X6455643Y-11450786D01*
X6446119Y-11488881D01*
X6436595Y-11507928D01*
X6427071Y-11517452D01*
X6408024Y-11526976D01*
X6388976Y-11526976D01*
X6369928Y-11517452D01*
X6360405Y-11507928D01*
X6350881Y-11488881D01*
X6341357Y-11450786D01*
X6341357Y-11403167D01*
X6350881Y-11365071D01*
X6360405Y-11346024D01*
X6369928Y-11336500D01*
X6388976Y-11326976D01*
X6541357Y-11507928D02*
X6550881Y-11517452D01*
X6541357Y-11526976D01*
X6531833Y-11517452D01*
X6541357Y-11507928D01*
X6541357Y-11526976D01*
X6741357Y-11526976D02*
X6627071Y-11526976D01*
X6684214Y-11526976D02*
X6684214Y-11326976D01*
X6665167Y-11355548D01*
X6646119Y-11374595D01*
X6627071Y-11384119D01*
X6865167Y-11326976D02*
X6884214Y-11326976D01*
X6903262Y-11336500D01*
X6912786Y-11346024D01*
X6922309Y-11365071D01*
X6931833Y-11403167D01*
X6931833Y-11450786D01*
X6922309Y-11488881D01*
X6912786Y-11507928D01*
X6903262Y-11517452D01*
X6884214Y-11526976D01*
X6865167Y-11526976D01*
X6846119Y-11517452D01*
X6836595Y-11507928D01*
X6827071Y-11488881D01*
X6817548Y-11450786D01*
X6817548Y-11403167D01*
X6827071Y-11365071D01*
X6836595Y-11346024D01*
X6846119Y-11336500D01*
X6865167Y-11326976D01*
X7103262Y-11326976D02*
X7065167Y-11326976D01*
X7046119Y-11336500D01*
X7036595Y-11346024D01*
X7017548Y-11374595D01*
X7008024Y-11412690D01*
X7008024Y-11488881D01*
X7017548Y-11507928D01*
X7027071Y-11517452D01*
X7046119Y-11526976D01*
X7084214Y-11526976D01*
X7103262Y-11517452D01*
X7112786Y-11507928D01*
X7122309Y-11488881D01*
X7122309Y-11441262D01*
X7112786Y-11422214D01*
X7103262Y-11412690D01*
X7084214Y-11403167D01*
X7046119Y-11403167D01*
X7027071Y-11412690D01*
X7017548Y-11422214D01*
X7008024Y-11441262D01*
X7188976Y-11326976D02*
X7312786Y-11326976D01*
X7246119Y-11403167D01*
X7274690Y-11403167D01*
X7293738Y-11412690D01*
X7303262Y-11422214D01*
X7312786Y-11441262D01*
X7312786Y-11488881D01*
X7303262Y-11507928D01*
X7293738Y-11517452D01*
X7274690Y-11526976D01*
X7217548Y-11526976D01*
X7198500Y-11517452D01*
X7188976Y-11507928D01*
X7388976Y-11326976D02*
X7388976Y-11365071D01*
X7465167Y-11326976D02*
X7465167Y-11365071D01*
X7760405Y-11603167D02*
X7750881Y-11593643D01*
X7731833Y-11565071D01*
X7722309Y-11546024D01*
X7712786Y-11517452D01*
X7703262Y-11469833D01*
X7703262Y-11431738D01*
X7712786Y-11384119D01*
X7722309Y-11355548D01*
X7731833Y-11336500D01*
X7750881Y-11307928D01*
X7760405Y-11298405D01*
X7827071Y-11346024D02*
X7836595Y-11336500D01*
X7855643Y-11326976D01*
X7903262Y-11326976D01*
X7922309Y-11336500D01*
X7931833Y-11346024D01*
X7941357Y-11365071D01*
X7941357Y-11384119D01*
X7931833Y-11412690D01*
X7817548Y-11526976D01*
X7941357Y-11526976D01*
X8179452Y-11526976D02*
X8179452Y-11326976D01*
X8265167Y-11526976D02*
X8265167Y-11422214D01*
X8255643Y-11403167D01*
X8236595Y-11393643D01*
X8208024Y-11393643D01*
X8188976Y-11403167D01*
X8179452Y-11412690D01*
X8388976Y-11526976D02*
X8369928Y-11517452D01*
X8360405Y-11507928D01*
X8350881Y-11488881D01*
X8350881Y-11431738D01*
X8360405Y-11412690D01*
X8369928Y-11403167D01*
X8388976Y-11393643D01*
X8417548Y-11393643D01*
X8436595Y-11403167D01*
X8446119Y-11412690D01*
X8455643Y-11431738D01*
X8455643Y-11488881D01*
X8446119Y-11507928D01*
X8436595Y-11517452D01*
X8417548Y-11526976D01*
X8388976Y-11526976D01*
X8569929Y-11526976D02*
X8550881Y-11517452D01*
X8541357Y-11498405D01*
X8541357Y-11326976D01*
X8722310Y-11517452D02*
X8703262Y-11526976D01*
X8665167Y-11526976D01*
X8646119Y-11517452D01*
X8636595Y-11498405D01*
X8636595Y-11422214D01*
X8646119Y-11403167D01*
X8665167Y-11393643D01*
X8703262Y-11393643D01*
X8722310Y-11403167D01*
X8731833Y-11422214D01*
X8731833Y-11441262D01*
X8636595Y-11460309D01*
X8808024Y-11517452D02*
X8827071Y-11526976D01*
X8865167Y-11526976D01*
X8884214Y-11517452D01*
X8893738Y-11498405D01*
X8893738Y-11488881D01*
X8884214Y-11469833D01*
X8865167Y-11460309D01*
X8836595Y-11460309D01*
X8817548Y-11450786D01*
X8808024Y-11431738D01*
X8808024Y-11422214D01*
X8817548Y-11403167D01*
X8836595Y-11393643D01*
X8865167Y-11393643D01*
X8884214Y-11403167D01*
X8960405Y-11603167D02*
X8969929Y-11593643D01*
X8988976Y-11565071D01*
X8998500Y-11546024D01*
X9008024Y-11517452D01*
X9017548Y-11469833D01*
X9017548Y-11431738D01*
X9008024Y-11384119D01*
X8998500Y-11355548D01*
X8988976Y-11336500D01*
X8969929Y-11307928D01*
X8960405Y-11298405D01*
X3988500Y-11656500D02*
X4188500Y-11856500D01*
X4188500Y-11656500D02*
X3988500Y-11856500D01*
X4088500Y-11856500D02*
X4188500Y-11756500D01*
X4088500Y-11656500D01*
X3988500Y-11756500D01*
X4088500Y-11856500D01*
X4427071Y-11646976D02*
X4550881Y-11646976D01*
X4484214Y-11723167D01*
X4512786Y-11723167D01*
X4531833Y-11732690D01*
X4541357Y-11742214D01*
X4550881Y-11761262D01*
X4550881Y-11808881D01*
X4541357Y-11827928D01*
X4531833Y-11837452D01*
X4512786Y-11846976D01*
X4455643Y-11846976D01*
X4436595Y-11837452D01*
X4427071Y-11827928D01*
X4636595Y-11827928D02*
X4646119Y-11837452D01*
X4636595Y-11846976D01*
X4627071Y-11837452D01*
X4636595Y-11827928D01*
X4636595Y-11846976D01*
X4722310Y-11666024D02*
X4731833Y-11656500D01*
X4750881Y-11646976D01*
X4798500Y-11646976D01*
X4817548Y-11656500D01*
X4827071Y-11666024D01*
X4836595Y-11685071D01*
X4836595Y-11704119D01*
X4827071Y-11732690D01*
X4712786Y-11846976D01*
X4836595Y-11846976D01*
X4960405Y-11646976D02*
X4979452Y-11646976D01*
X4998500Y-11656500D01*
X5008024Y-11666024D01*
X5017548Y-11685071D01*
X5027071Y-11723167D01*
X5027071Y-11770786D01*
X5017548Y-11808881D01*
X5008024Y-11827928D01*
X4998500Y-11837452D01*
X4979452Y-11846976D01*
X4960405Y-11846976D01*
X4941357Y-11837452D01*
X4931833Y-11827928D01*
X4922310Y-11808881D01*
X4912786Y-11770786D01*
X4912786Y-11723167D01*
X4922310Y-11685071D01*
X4931833Y-11666024D01*
X4941357Y-11656500D01*
X4960405Y-11646976D01*
X5150881Y-11646976D02*
X5169929Y-11646976D01*
X5188976Y-11656500D01*
X5198500Y-11666024D01*
X5208024Y-11685071D01*
X5217548Y-11723167D01*
X5217548Y-11770786D01*
X5208024Y-11808881D01*
X5198500Y-11827928D01*
X5188976Y-11837452D01*
X5169929Y-11846976D01*
X5150881Y-11846976D01*
X5131833Y-11837452D01*
X5122310Y-11827928D01*
X5112786Y-11808881D01*
X5103262Y-11770786D01*
X5103262Y-11723167D01*
X5112786Y-11685071D01*
X5122310Y-11666024D01*
X5131833Y-11656500D01*
X5150881Y-11646976D01*
X5303262Y-11846976D02*
X5303262Y-11713643D01*
X5303262Y-11732690D02*
X5312786Y-11723167D01*
X5331833Y-11713643D01*
X5360405Y-11713643D01*
X5379452Y-11723167D01*
X5388976Y-11742214D01*
X5388976Y-11846976D01*
X5388976Y-11742214D02*
X5398500Y-11723167D01*
X5417548Y-11713643D01*
X5446119Y-11713643D01*
X5465167Y-11723167D01*
X5474690Y-11742214D01*
X5474690Y-11846976D01*
X5569929Y-11846976D02*
X5569929Y-11713643D01*
X5569929Y-11732690D02*
X5579452Y-11723167D01*
X5598500Y-11713643D01*
X5627071Y-11713643D01*
X5646119Y-11723167D01*
X5655643Y-11742214D01*
X5655643Y-11846976D01*
X5655643Y-11742214D02*
X5665167Y-11723167D01*
X5684214Y-11713643D01*
X5712786Y-11713643D01*
X5731833Y-11723167D01*
X5741357Y-11742214D01*
X5741357Y-11846976D01*
X6131833Y-11637452D02*
X5960405Y-11894595D01*
X6388976Y-11646976D02*
X6408024Y-11646976D01*
X6427071Y-11656500D01*
X6436595Y-11666024D01*
X6446119Y-11685071D01*
X6455643Y-11723167D01*
X6455643Y-11770786D01*
X6446119Y-11808881D01*
X6436595Y-11827928D01*
X6427071Y-11837452D01*
X6408024Y-11846976D01*
X6388976Y-11846976D01*
X6369928Y-11837452D01*
X6360405Y-11827928D01*
X6350881Y-11808881D01*
X6341357Y-11770786D01*
X6341357Y-11723167D01*
X6350881Y-11685071D01*
X6360405Y-11666024D01*
X6369928Y-11656500D01*
X6388976Y-11646976D01*
X6541357Y-11827928D02*
X6550881Y-11837452D01*
X6541357Y-11846976D01*
X6531833Y-11837452D01*
X6541357Y-11827928D01*
X6541357Y-11846976D01*
X6741357Y-11846976D02*
X6627071Y-11846976D01*
X6684214Y-11846976D02*
X6684214Y-11646976D01*
X6665167Y-11675548D01*
X6646119Y-11694595D01*
X6627071Y-11704119D01*
X6817548Y-11666024D02*
X6827071Y-11656500D01*
X6846119Y-11646976D01*
X6893738Y-11646976D01*
X6912786Y-11656500D01*
X6922309Y-11666024D01*
X6931833Y-11685071D01*
X6931833Y-11704119D01*
X6922309Y-11732690D01*
X6808024Y-11846976D01*
X6931833Y-11846976D01*
X7103262Y-11646976D02*
X7065167Y-11646976D01*
X7046119Y-11656500D01*
X7036595Y-11666024D01*
X7017548Y-11694595D01*
X7008024Y-11732690D01*
X7008024Y-11808881D01*
X7017548Y-11827928D01*
X7027071Y-11837452D01*
X7046119Y-11846976D01*
X7084214Y-11846976D01*
X7103262Y-11837452D01*
X7112786Y-11827928D01*
X7122309Y-11808881D01*
X7122309Y-11761262D01*
X7112786Y-11742214D01*
X7103262Y-11732690D01*
X7084214Y-11723167D01*
X7046119Y-11723167D01*
X7027071Y-11732690D01*
X7017548Y-11742214D01*
X7008024Y-11761262D01*
X7246119Y-11646976D02*
X7265167Y-11646976D01*
X7284214Y-11656500D01*
X7293738Y-11666024D01*
X7303262Y-11685071D01*
X7312786Y-11723167D01*
X7312786Y-11770786D01*
X7303262Y-11808881D01*
X7293738Y-11827928D01*
X7284214Y-11837452D01*
X7265167Y-11846976D01*
X7246119Y-11846976D01*
X7227071Y-11837452D01*
X7217548Y-11827928D01*
X7208024Y-11808881D01*
X7198500Y-11770786D01*
X7198500Y-11723167D01*
X7208024Y-11685071D01*
X7217548Y-11666024D01*
X7227071Y-11656500D01*
X7246119Y-11646976D01*
X7388976Y-11646976D02*
X7388976Y-11685071D01*
X7465167Y-11646976D02*
X7465167Y-11685071D01*
X7760405Y-11923167D02*
X7750881Y-11913643D01*
X7731833Y-11885071D01*
X7722309Y-11866024D01*
X7712786Y-11837452D01*
X7703262Y-11789833D01*
X7703262Y-11751738D01*
X7712786Y-11704119D01*
X7722309Y-11675548D01*
X7731833Y-11656500D01*
X7750881Y-11627928D01*
X7760405Y-11618405D01*
X7941357Y-11846976D02*
X7827071Y-11846976D01*
X7884214Y-11846976D02*
X7884214Y-11646976D01*
X7865167Y-11675548D01*
X7846119Y-11694595D01*
X7827071Y-11704119D01*
X8179452Y-11846976D02*
X8179452Y-11646976D01*
X8265167Y-11846976D02*
X8265167Y-11742214D01*
X8255643Y-11723167D01*
X8236595Y-11713643D01*
X8208024Y-11713643D01*
X8188976Y-11723167D01*
X8179452Y-11732690D01*
X8388976Y-11846976D02*
X8369928Y-11837452D01*
X8360405Y-11827928D01*
X8350881Y-11808881D01*
X8350881Y-11751738D01*
X8360405Y-11732690D01*
X8369928Y-11723167D01*
X8388976Y-11713643D01*
X8417548Y-11713643D01*
X8436595Y-11723167D01*
X8446119Y-11732690D01*
X8455643Y-11751738D01*
X8455643Y-11808881D01*
X8446119Y-11827928D01*
X8436595Y-11837452D01*
X8417548Y-11846976D01*
X8388976Y-11846976D01*
X8569929Y-11846976D02*
X8550881Y-11837452D01*
X8541357Y-11818405D01*
X8541357Y-11646976D01*
X8722310Y-11837452D02*
X8703262Y-11846976D01*
X8665167Y-11846976D01*
X8646119Y-11837452D01*
X8636595Y-11818405D01*
X8636595Y-11742214D01*
X8646119Y-11723167D01*
X8665167Y-11713643D01*
X8703262Y-11713643D01*
X8722310Y-11723167D01*
X8731833Y-11742214D01*
X8731833Y-11761262D01*
X8636595Y-11780309D01*
X8798500Y-11923167D02*
X8808024Y-11913643D01*
X8827071Y-11885071D01*
X8836595Y-11866024D01*
X8846119Y-11837452D01*
X8855643Y-11789833D01*
X8855643Y-11751738D01*
X8846119Y-11704119D01*
X8836595Y-11675548D01*
X8827071Y-11656500D01*
X8808024Y-11627928D01*
X8798500Y-11618405D01*
M02*
