%TF.GenerationSoftware,KiCad,Pcbnew,7.0.6*%
%TF.CreationDate,2023-08-10T16:49:52-04:00*%
%TF.ProjectId,rrc_pcb2,7272635f-7063-4623-922e-6b696361645f,rev?*%
%TF.SameCoordinates,Original*%
%TF.FileFunction,AssemblyDrawing,Top*%
%FSLAX46Y46*%
G04 Gerber Fmt 4.6, Leading zero omitted, Abs format (unit mm)*
G04 Created by KiCad (PCBNEW 7.0.6) date 2023-08-10 16:49:52*
%MOMM*%
%LPD*%
G01*
G04 APERTURE LIST*
%ADD10C,0.100000*%
%ADD11C,0.150000*%
%ADD12C,0.300000*%
%ADD13C,0.400000*%
G04 APERTURE END LIST*
D10*
D11*
X177002200Y-166007200D02*
X285002200Y-166007200D01*
X285002200Y-198007200D01*
X177002200Y-198007200D01*
X177002200Y-166007200D01*
D10*
D11*
X10000000Y-10000000D02*
X287002200Y-10000000D01*
X287002200Y-200007200D01*
X10000000Y-200007200D01*
X10000000Y-10000000D01*
D10*
D11*
X12000000Y-12000000D02*
X285002200Y-12000000D01*
X285002200Y-198007200D01*
X12000000Y-198007200D01*
X12000000Y-12000000D01*
D10*
D11*
X60000000Y-12000000D02*
X60000000Y-10000000D01*
D10*
D11*
X110000000Y-12000000D02*
X110000000Y-10000000D01*
D10*
D11*
X160000000Y-12000000D02*
X160000000Y-10000000D01*
D10*
D11*
X210000000Y-12000000D02*
X210000000Y-10000000D01*
D10*
D11*
X260000000Y-12000000D02*
X260000000Y-10000000D01*
D10*
D11*
X36089160Y-11593604D02*
X35346303Y-11593604D01*
X35717731Y-11593604D02*
X35717731Y-10293604D01*
X35717731Y-10293604D02*
X35593922Y-10479319D01*
X35593922Y-10479319D02*
X35470112Y-10603128D01*
X35470112Y-10603128D02*
X35346303Y-10665033D01*
D10*
D11*
X85346303Y-10417414D02*
X85408207Y-10355509D01*
X85408207Y-10355509D02*
X85532017Y-10293604D01*
X85532017Y-10293604D02*
X85841541Y-10293604D01*
X85841541Y-10293604D02*
X85965350Y-10355509D01*
X85965350Y-10355509D02*
X86027255Y-10417414D01*
X86027255Y-10417414D02*
X86089160Y-10541223D01*
X86089160Y-10541223D02*
X86089160Y-10665033D01*
X86089160Y-10665033D02*
X86027255Y-10850747D01*
X86027255Y-10850747D02*
X85284398Y-11593604D01*
X85284398Y-11593604D02*
X86089160Y-11593604D01*
D10*
D11*
X135284398Y-10293604D02*
X136089160Y-10293604D01*
X136089160Y-10293604D02*
X135655826Y-10788842D01*
X135655826Y-10788842D02*
X135841541Y-10788842D01*
X135841541Y-10788842D02*
X135965350Y-10850747D01*
X135965350Y-10850747D02*
X136027255Y-10912652D01*
X136027255Y-10912652D02*
X136089160Y-11036461D01*
X136089160Y-11036461D02*
X136089160Y-11345985D01*
X136089160Y-11345985D02*
X136027255Y-11469795D01*
X136027255Y-11469795D02*
X135965350Y-11531700D01*
X135965350Y-11531700D02*
X135841541Y-11593604D01*
X135841541Y-11593604D02*
X135470112Y-11593604D01*
X135470112Y-11593604D02*
X135346303Y-11531700D01*
X135346303Y-11531700D02*
X135284398Y-11469795D01*
D10*
D11*
X185965350Y-10726938D02*
X185965350Y-11593604D01*
X185655826Y-10231700D02*
X185346303Y-11160271D01*
X185346303Y-11160271D02*
X186151064Y-11160271D01*
D10*
D11*
X236027255Y-10293604D02*
X235408207Y-10293604D01*
X235408207Y-10293604D02*
X235346303Y-10912652D01*
X235346303Y-10912652D02*
X235408207Y-10850747D01*
X235408207Y-10850747D02*
X235532017Y-10788842D01*
X235532017Y-10788842D02*
X235841541Y-10788842D01*
X235841541Y-10788842D02*
X235965350Y-10850747D01*
X235965350Y-10850747D02*
X236027255Y-10912652D01*
X236027255Y-10912652D02*
X236089160Y-11036461D01*
X236089160Y-11036461D02*
X236089160Y-11345985D01*
X236089160Y-11345985D02*
X236027255Y-11469795D01*
X236027255Y-11469795D02*
X235965350Y-11531700D01*
X235965350Y-11531700D02*
X235841541Y-11593604D01*
X235841541Y-11593604D02*
X235532017Y-11593604D01*
X235532017Y-11593604D02*
X235408207Y-11531700D01*
X235408207Y-11531700D02*
X235346303Y-11469795D01*
D10*
D11*
X285965350Y-10293604D02*
X285717731Y-10293604D01*
X285717731Y-10293604D02*
X285593922Y-10355509D01*
X285593922Y-10355509D02*
X285532017Y-10417414D01*
X285532017Y-10417414D02*
X285408207Y-10603128D01*
X285408207Y-10603128D02*
X285346303Y-10850747D01*
X285346303Y-10850747D02*
X285346303Y-11345985D01*
X285346303Y-11345985D02*
X285408207Y-11469795D01*
X285408207Y-11469795D02*
X285470112Y-11531700D01*
X285470112Y-11531700D02*
X285593922Y-11593604D01*
X285593922Y-11593604D02*
X285841541Y-11593604D01*
X285841541Y-11593604D02*
X285965350Y-11531700D01*
X285965350Y-11531700D02*
X286027255Y-11469795D01*
X286027255Y-11469795D02*
X286089160Y-11345985D01*
X286089160Y-11345985D02*
X286089160Y-11036461D01*
X286089160Y-11036461D02*
X286027255Y-10912652D01*
X286027255Y-10912652D02*
X285965350Y-10850747D01*
X285965350Y-10850747D02*
X285841541Y-10788842D01*
X285841541Y-10788842D02*
X285593922Y-10788842D01*
X285593922Y-10788842D02*
X285470112Y-10850747D01*
X285470112Y-10850747D02*
X285408207Y-10912652D01*
X285408207Y-10912652D02*
X285346303Y-11036461D01*
D10*
D11*
X60000000Y-198007200D02*
X60000000Y-200007200D01*
D10*
D11*
X110000000Y-198007200D02*
X110000000Y-200007200D01*
D10*
D11*
X160000000Y-198007200D02*
X160000000Y-200007200D01*
D10*
D11*
X210000000Y-198007200D02*
X210000000Y-200007200D01*
D10*
D11*
X260000000Y-198007200D02*
X260000000Y-200007200D01*
D10*
D11*
X36089160Y-199600804D02*
X35346303Y-199600804D01*
X35717731Y-199600804D02*
X35717731Y-198300804D01*
X35717731Y-198300804D02*
X35593922Y-198486519D01*
X35593922Y-198486519D02*
X35470112Y-198610328D01*
X35470112Y-198610328D02*
X35346303Y-198672233D01*
D10*
D11*
X85346303Y-198424614D02*
X85408207Y-198362709D01*
X85408207Y-198362709D02*
X85532017Y-198300804D01*
X85532017Y-198300804D02*
X85841541Y-198300804D01*
X85841541Y-198300804D02*
X85965350Y-198362709D01*
X85965350Y-198362709D02*
X86027255Y-198424614D01*
X86027255Y-198424614D02*
X86089160Y-198548423D01*
X86089160Y-198548423D02*
X86089160Y-198672233D01*
X86089160Y-198672233D02*
X86027255Y-198857947D01*
X86027255Y-198857947D02*
X85284398Y-199600804D01*
X85284398Y-199600804D02*
X86089160Y-199600804D01*
D10*
D11*
X135284398Y-198300804D02*
X136089160Y-198300804D01*
X136089160Y-198300804D02*
X135655826Y-198796042D01*
X135655826Y-198796042D02*
X135841541Y-198796042D01*
X135841541Y-198796042D02*
X135965350Y-198857947D01*
X135965350Y-198857947D02*
X136027255Y-198919852D01*
X136027255Y-198919852D02*
X136089160Y-199043661D01*
X136089160Y-199043661D02*
X136089160Y-199353185D01*
X136089160Y-199353185D02*
X136027255Y-199476995D01*
X136027255Y-199476995D02*
X135965350Y-199538900D01*
X135965350Y-199538900D02*
X135841541Y-199600804D01*
X135841541Y-199600804D02*
X135470112Y-199600804D01*
X135470112Y-199600804D02*
X135346303Y-199538900D01*
X135346303Y-199538900D02*
X135284398Y-199476995D01*
D10*
D11*
X185965350Y-198734138D02*
X185965350Y-199600804D01*
X185655826Y-198238900D02*
X185346303Y-199167471D01*
X185346303Y-199167471D02*
X186151064Y-199167471D01*
D10*
D11*
X236027255Y-198300804D02*
X235408207Y-198300804D01*
X235408207Y-198300804D02*
X235346303Y-198919852D01*
X235346303Y-198919852D02*
X235408207Y-198857947D01*
X235408207Y-198857947D02*
X235532017Y-198796042D01*
X235532017Y-198796042D02*
X235841541Y-198796042D01*
X235841541Y-198796042D02*
X235965350Y-198857947D01*
X235965350Y-198857947D02*
X236027255Y-198919852D01*
X236027255Y-198919852D02*
X236089160Y-199043661D01*
X236089160Y-199043661D02*
X236089160Y-199353185D01*
X236089160Y-199353185D02*
X236027255Y-199476995D01*
X236027255Y-199476995D02*
X235965350Y-199538900D01*
X235965350Y-199538900D02*
X235841541Y-199600804D01*
X235841541Y-199600804D02*
X235532017Y-199600804D01*
X235532017Y-199600804D02*
X235408207Y-199538900D01*
X235408207Y-199538900D02*
X235346303Y-199476995D01*
D10*
D11*
X285965350Y-198300804D02*
X285717731Y-198300804D01*
X285717731Y-198300804D02*
X285593922Y-198362709D01*
X285593922Y-198362709D02*
X285532017Y-198424614D01*
X285532017Y-198424614D02*
X285408207Y-198610328D01*
X285408207Y-198610328D02*
X285346303Y-198857947D01*
X285346303Y-198857947D02*
X285346303Y-199353185D01*
X285346303Y-199353185D02*
X285408207Y-199476995D01*
X285408207Y-199476995D02*
X285470112Y-199538900D01*
X285470112Y-199538900D02*
X285593922Y-199600804D01*
X285593922Y-199600804D02*
X285841541Y-199600804D01*
X285841541Y-199600804D02*
X285965350Y-199538900D01*
X285965350Y-199538900D02*
X286027255Y-199476995D01*
X286027255Y-199476995D02*
X286089160Y-199353185D01*
X286089160Y-199353185D02*
X286089160Y-199043661D01*
X286089160Y-199043661D02*
X286027255Y-198919852D01*
X286027255Y-198919852D02*
X285965350Y-198857947D01*
X285965350Y-198857947D02*
X285841541Y-198796042D01*
X285841541Y-198796042D02*
X285593922Y-198796042D01*
X285593922Y-198796042D02*
X285470112Y-198857947D01*
X285470112Y-198857947D02*
X285408207Y-198919852D01*
X285408207Y-198919852D02*
X285346303Y-199043661D01*
D10*
D11*
X10000000Y-60000000D02*
X12000000Y-60000000D01*
D10*
D11*
X10000000Y-110000000D02*
X12000000Y-110000000D01*
D10*
D11*
X10000000Y-160000000D02*
X12000000Y-160000000D01*
D10*
D11*
X10690476Y-35222176D02*
X11309523Y-35222176D01*
X10566666Y-35593604D02*
X10999999Y-34293604D01*
X10999999Y-34293604D02*
X11433333Y-35593604D01*
D10*
D11*
X11092857Y-84912652D02*
X11278571Y-84974557D01*
X11278571Y-84974557D02*
X11340476Y-85036461D01*
X11340476Y-85036461D02*
X11402380Y-85160271D01*
X11402380Y-85160271D02*
X11402380Y-85345985D01*
X11402380Y-85345985D02*
X11340476Y-85469795D01*
X11340476Y-85469795D02*
X11278571Y-85531700D01*
X11278571Y-85531700D02*
X11154761Y-85593604D01*
X11154761Y-85593604D02*
X10659523Y-85593604D01*
X10659523Y-85593604D02*
X10659523Y-84293604D01*
X10659523Y-84293604D02*
X11092857Y-84293604D01*
X11092857Y-84293604D02*
X11216666Y-84355509D01*
X11216666Y-84355509D02*
X11278571Y-84417414D01*
X11278571Y-84417414D02*
X11340476Y-84541223D01*
X11340476Y-84541223D02*
X11340476Y-84665033D01*
X11340476Y-84665033D02*
X11278571Y-84788842D01*
X11278571Y-84788842D02*
X11216666Y-84850747D01*
X11216666Y-84850747D02*
X11092857Y-84912652D01*
X11092857Y-84912652D02*
X10659523Y-84912652D01*
D10*
D11*
X11402380Y-135469795D02*
X11340476Y-135531700D01*
X11340476Y-135531700D02*
X11154761Y-135593604D01*
X11154761Y-135593604D02*
X11030952Y-135593604D01*
X11030952Y-135593604D02*
X10845238Y-135531700D01*
X10845238Y-135531700D02*
X10721428Y-135407890D01*
X10721428Y-135407890D02*
X10659523Y-135284080D01*
X10659523Y-135284080D02*
X10597619Y-135036461D01*
X10597619Y-135036461D02*
X10597619Y-134850747D01*
X10597619Y-134850747D02*
X10659523Y-134603128D01*
X10659523Y-134603128D02*
X10721428Y-134479319D01*
X10721428Y-134479319D02*
X10845238Y-134355509D01*
X10845238Y-134355509D02*
X11030952Y-134293604D01*
X11030952Y-134293604D02*
X11154761Y-134293604D01*
X11154761Y-134293604D02*
X11340476Y-134355509D01*
X11340476Y-134355509D02*
X11402380Y-134417414D01*
D10*
D11*
X10659523Y-185593604D02*
X10659523Y-184293604D01*
X10659523Y-184293604D02*
X10969047Y-184293604D01*
X10969047Y-184293604D02*
X11154761Y-184355509D01*
X11154761Y-184355509D02*
X11278571Y-184479319D01*
X11278571Y-184479319D02*
X11340476Y-184603128D01*
X11340476Y-184603128D02*
X11402380Y-184850747D01*
X11402380Y-184850747D02*
X11402380Y-185036461D01*
X11402380Y-185036461D02*
X11340476Y-185284080D01*
X11340476Y-185284080D02*
X11278571Y-185407890D01*
X11278571Y-185407890D02*
X11154761Y-185531700D01*
X11154761Y-185531700D02*
X10969047Y-185593604D01*
X10969047Y-185593604D02*
X10659523Y-185593604D01*
D10*
D11*
X287002200Y-60000000D02*
X285002200Y-60000000D01*
D10*
D11*
X287002200Y-110000000D02*
X285002200Y-110000000D01*
D10*
D11*
X287002200Y-160000000D02*
X285002200Y-160000000D01*
D10*
D11*
X285692676Y-35222176D02*
X286311723Y-35222176D01*
X285568866Y-35593604D02*
X286002199Y-34293604D01*
X286002199Y-34293604D02*
X286435533Y-35593604D01*
D10*
D11*
X286095057Y-84912652D02*
X286280771Y-84974557D01*
X286280771Y-84974557D02*
X286342676Y-85036461D01*
X286342676Y-85036461D02*
X286404580Y-85160271D01*
X286404580Y-85160271D02*
X286404580Y-85345985D01*
X286404580Y-85345985D02*
X286342676Y-85469795D01*
X286342676Y-85469795D02*
X286280771Y-85531700D01*
X286280771Y-85531700D02*
X286156961Y-85593604D01*
X286156961Y-85593604D02*
X285661723Y-85593604D01*
X285661723Y-85593604D02*
X285661723Y-84293604D01*
X285661723Y-84293604D02*
X286095057Y-84293604D01*
X286095057Y-84293604D02*
X286218866Y-84355509D01*
X286218866Y-84355509D02*
X286280771Y-84417414D01*
X286280771Y-84417414D02*
X286342676Y-84541223D01*
X286342676Y-84541223D02*
X286342676Y-84665033D01*
X286342676Y-84665033D02*
X286280771Y-84788842D01*
X286280771Y-84788842D02*
X286218866Y-84850747D01*
X286218866Y-84850747D02*
X286095057Y-84912652D01*
X286095057Y-84912652D02*
X285661723Y-84912652D01*
D10*
D11*
X286404580Y-135469795D02*
X286342676Y-135531700D01*
X286342676Y-135531700D02*
X286156961Y-135593604D01*
X286156961Y-135593604D02*
X286033152Y-135593604D01*
X286033152Y-135593604D02*
X285847438Y-135531700D01*
X285847438Y-135531700D02*
X285723628Y-135407890D01*
X285723628Y-135407890D02*
X285661723Y-135284080D01*
X285661723Y-135284080D02*
X285599819Y-135036461D01*
X285599819Y-135036461D02*
X285599819Y-134850747D01*
X285599819Y-134850747D02*
X285661723Y-134603128D01*
X285661723Y-134603128D02*
X285723628Y-134479319D01*
X285723628Y-134479319D02*
X285847438Y-134355509D01*
X285847438Y-134355509D02*
X286033152Y-134293604D01*
X286033152Y-134293604D02*
X286156961Y-134293604D01*
X286156961Y-134293604D02*
X286342676Y-134355509D01*
X286342676Y-134355509D02*
X286404580Y-134417414D01*
D10*
D11*
X285661723Y-185593604D02*
X285661723Y-184293604D01*
X285661723Y-184293604D02*
X285971247Y-184293604D01*
X285971247Y-184293604D02*
X286156961Y-184355509D01*
X286156961Y-184355509D02*
X286280771Y-184479319D01*
X286280771Y-184479319D02*
X286342676Y-184603128D01*
X286342676Y-184603128D02*
X286404580Y-184850747D01*
X286404580Y-184850747D02*
X286404580Y-185036461D01*
X286404580Y-185036461D02*
X286342676Y-185284080D01*
X286342676Y-185284080D02*
X286280771Y-185407890D01*
X286280771Y-185407890D02*
X286156961Y-185531700D01*
X286156961Y-185531700D02*
X285971247Y-185593604D01*
X285971247Y-185593604D02*
X285661723Y-185593604D01*
D10*
D11*
X200458026Y-193793328D02*
X200458026Y-192293328D01*
X200458026Y-192293328D02*
X200815169Y-192293328D01*
X200815169Y-192293328D02*
X201029455Y-192364757D01*
X201029455Y-192364757D02*
X201172312Y-192507614D01*
X201172312Y-192507614D02*
X201243741Y-192650471D01*
X201243741Y-192650471D02*
X201315169Y-192936185D01*
X201315169Y-192936185D02*
X201315169Y-193150471D01*
X201315169Y-193150471D02*
X201243741Y-193436185D01*
X201243741Y-193436185D02*
X201172312Y-193579042D01*
X201172312Y-193579042D02*
X201029455Y-193721900D01*
X201029455Y-193721900D02*
X200815169Y-193793328D01*
X200815169Y-193793328D02*
X200458026Y-193793328D01*
X202600884Y-193793328D02*
X202600884Y-193007614D01*
X202600884Y-193007614D02*
X202529455Y-192864757D01*
X202529455Y-192864757D02*
X202386598Y-192793328D01*
X202386598Y-192793328D02*
X202100884Y-192793328D01*
X202100884Y-192793328D02*
X201958026Y-192864757D01*
X202600884Y-193721900D02*
X202458026Y-193793328D01*
X202458026Y-193793328D02*
X202100884Y-193793328D01*
X202100884Y-193793328D02*
X201958026Y-193721900D01*
X201958026Y-193721900D02*
X201886598Y-193579042D01*
X201886598Y-193579042D02*
X201886598Y-193436185D01*
X201886598Y-193436185D02*
X201958026Y-193293328D01*
X201958026Y-193293328D02*
X202100884Y-193221900D01*
X202100884Y-193221900D02*
X202458026Y-193221900D01*
X202458026Y-193221900D02*
X202600884Y-193150471D01*
X203100884Y-192793328D02*
X203672312Y-192793328D01*
X203315169Y-192293328D02*
X203315169Y-193579042D01*
X203315169Y-193579042D02*
X203386598Y-193721900D01*
X203386598Y-193721900D02*
X203529455Y-193793328D01*
X203529455Y-193793328D02*
X203672312Y-193793328D01*
X204743741Y-193721900D02*
X204600884Y-193793328D01*
X204600884Y-193793328D02*
X204315170Y-193793328D01*
X204315170Y-193793328D02*
X204172312Y-193721900D01*
X204172312Y-193721900D02*
X204100884Y-193579042D01*
X204100884Y-193579042D02*
X204100884Y-193007614D01*
X204100884Y-193007614D02*
X204172312Y-192864757D01*
X204172312Y-192864757D02*
X204315170Y-192793328D01*
X204315170Y-192793328D02*
X204600884Y-192793328D01*
X204600884Y-192793328D02*
X204743741Y-192864757D01*
X204743741Y-192864757D02*
X204815170Y-193007614D01*
X204815170Y-193007614D02*
X204815170Y-193150471D01*
X204815170Y-193150471D02*
X204100884Y-193293328D01*
X205458026Y-193650471D02*
X205529455Y-193721900D01*
X205529455Y-193721900D02*
X205458026Y-193793328D01*
X205458026Y-193793328D02*
X205386598Y-193721900D01*
X205386598Y-193721900D02*
X205458026Y-193650471D01*
X205458026Y-193650471D02*
X205458026Y-193793328D01*
X205458026Y-192864757D02*
X205529455Y-192936185D01*
X205529455Y-192936185D02*
X205458026Y-193007614D01*
X205458026Y-193007614D02*
X205386598Y-192936185D01*
X205386598Y-192936185D02*
X205458026Y-192864757D01*
X205458026Y-192864757D02*
X205458026Y-193007614D01*
D10*
D11*
X177002200Y-194507200D02*
X285002200Y-194507200D01*
D10*
D11*
X178458026Y-196593328D02*
X178458026Y-195093328D01*
X179315169Y-196593328D02*
X178672312Y-195736185D01*
X179315169Y-195093328D02*
X178458026Y-195950471D01*
X179958026Y-196593328D02*
X179958026Y-195593328D01*
X179958026Y-195093328D02*
X179886598Y-195164757D01*
X179886598Y-195164757D02*
X179958026Y-195236185D01*
X179958026Y-195236185D02*
X180029455Y-195164757D01*
X180029455Y-195164757D02*
X179958026Y-195093328D01*
X179958026Y-195093328D02*
X179958026Y-195236185D01*
X181529455Y-196450471D02*
X181458027Y-196521900D01*
X181458027Y-196521900D02*
X181243741Y-196593328D01*
X181243741Y-196593328D02*
X181100884Y-196593328D01*
X181100884Y-196593328D02*
X180886598Y-196521900D01*
X180886598Y-196521900D02*
X180743741Y-196379042D01*
X180743741Y-196379042D02*
X180672312Y-196236185D01*
X180672312Y-196236185D02*
X180600884Y-195950471D01*
X180600884Y-195950471D02*
X180600884Y-195736185D01*
X180600884Y-195736185D02*
X180672312Y-195450471D01*
X180672312Y-195450471D02*
X180743741Y-195307614D01*
X180743741Y-195307614D02*
X180886598Y-195164757D01*
X180886598Y-195164757D02*
X181100884Y-195093328D01*
X181100884Y-195093328D02*
X181243741Y-195093328D01*
X181243741Y-195093328D02*
X181458027Y-195164757D01*
X181458027Y-195164757D02*
X181529455Y-195236185D01*
X182815170Y-196593328D02*
X182815170Y-195807614D01*
X182815170Y-195807614D02*
X182743741Y-195664757D01*
X182743741Y-195664757D02*
X182600884Y-195593328D01*
X182600884Y-195593328D02*
X182315170Y-195593328D01*
X182315170Y-195593328D02*
X182172312Y-195664757D01*
X182815170Y-196521900D02*
X182672312Y-196593328D01*
X182672312Y-196593328D02*
X182315170Y-196593328D01*
X182315170Y-196593328D02*
X182172312Y-196521900D01*
X182172312Y-196521900D02*
X182100884Y-196379042D01*
X182100884Y-196379042D02*
X182100884Y-196236185D01*
X182100884Y-196236185D02*
X182172312Y-196093328D01*
X182172312Y-196093328D02*
X182315170Y-196021900D01*
X182315170Y-196021900D02*
X182672312Y-196021900D01*
X182672312Y-196021900D02*
X182815170Y-195950471D01*
X184172313Y-196593328D02*
X184172313Y-195093328D01*
X184172313Y-196521900D02*
X184029455Y-196593328D01*
X184029455Y-196593328D02*
X183743741Y-196593328D01*
X183743741Y-196593328D02*
X183600884Y-196521900D01*
X183600884Y-196521900D02*
X183529455Y-196450471D01*
X183529455Y-196450471D02*
X183458027Y-196307614D01*
X183458027Y-196307614D02*
X183458027Y-195879042D01*
X183458027Y-195879042D02*
X183529455Y-195736185D01*
X183529455Y-195736185D02*
X183600884Y-195664757D01*
X183600884Y-195664757D02*
X183743741Y-195593328D01*
X183743741Y-195593328D02*
X184029455Y-195593328D01*
X184029455Y-195593328D02*
X184172313Y-195664757D01*
X186029455Y-195807614D02*
X186529455Y-195807614D01*
X186743741Y-196593328D02*
X186029455Y-196593328D01*
X186029455Y-196593328D02*
X186029455Y-195093328D01*
X186029455Y-195093328D02*
X186743741Y-195093328D01*
X187386598Y-196450471D02*
X187458027Y-196521900D01*
X187458027Y-196521900D02*
X187386598Y-196593328D01*
X187386598Y-196593328D02*
X187315170Y-196521900D01*
X187315170Y-196521900D02*
X187386598Y-196450471D01*
X187386598Y-196450471D02*
X187386598Y-196593328D01*
X188100884Y-196593328D02*
X188100884Y-195093328D01*
X188100884Y-195093328D02*
X188458027Y-195093328D01*
X188458027Y-195093328D02*
X188672313Y-195164757D01*
X188672313Y-195164757D02*
X188815170Y-195307614D01*
X188815170Y-195307614D02*
X188886599Y-195450471D01*
X188886599Y-195450471D02*
X188958027Y-195736185D01*
X188958027Y-195736185D02*
X188958027Y-195950471D01*
X188958027Y-195950471D02*
X188886599Y-196236185D01*
X188886599Y-196236185D02*
X188815170Y-196379042D01*
X188815170Y-196379042D02*
X188672313Y-196521900D01*
X188672313Y-196521900D02*
X188458027Y-196593328D01*
X188458027Y-196593328D02*
X188100884Y-196593328D01*
X189600884Y-196450471D02*
X189672313Y-196521900D01*
X189672313Y-196521900D02*
X189600884Y-196593328D01*
X189600884Y-196593328D02*
X189529456Y-196521900D01*
X189529456Y-196521900D02*
X189600884Y-196450471D01*
X189600884Y-196450471D02*
X189600884Y-196593328D01*
X190243742Y-196164757D02*
X190958028Y-196164757D01*
X190100885Y-196593328D02*
X190600885Y-195093328D01*
X190600885Y-195093328D02*
X191100885Y-196593328D01*
X191600884Y-196450471D02*
X191672313Y-196521900D01*
X191672313Y-196521900D02*
X191600884Y-196593328D01*
X191600884Y-196593328D02*
X191529456Y-196521900D01*
X191529456Y-196521900D02*
X191600884Y-196450471D01*
X191600884Y-196450471D02*
X191600884Y-196593328D01*
X194600884Y-196593328D02*
X194600884Y-195093328D01*
X194743742Y-196021900D02*
X195172313Y-196593328D01*
X195172313Y-195593328D02*
X194600884Y-196164757D01*
X195815170Y-196593328D02*
X195815170Y-195593328D01*
X195815170Y-195093328D02*
X195743742Y-195164757D01*
X195743742Y-195164757D02*
X195815170Y-195236185D01*
X195815170Y-195236185D02*
X195886599Y-195164757D01*
X195886599Y-195164757D02*
X195815170Y-195093328D01*
X195815170Y-195093328D02*
X195815170Y-195236185D01*
X197172314Y-196521900D02*
X197029456Y-196593328D01*
X197029456Y-196593328D02*
X196743742Y-196593328D01*
X196743742Y-196593328D02*
X196600885Y-196521900D01*
X196600885Y-196521900D02*
X196529456Y-196450471D01*
X196529456Y-196450471D02*
X196458028Y-196307614D01*
X196458028Y-196307614D02*
X196458028Y-195879042D01*
X196458028Y-195879042D02*
X196529456Y-195736185D01*
X196529456Y-195736185D02*
X196600885Y-195664757D01*
X196600885Y-195664757D02*
X196743742Y-195593328D01*
X196743742Y-195593328D02*
X197029456Y-195593328D01*
X197029456Y-195593328D02*
X197172314Y-195664757D01*
X198458028Y-196593328D02*
X198458028Y-195807614D01*
X198458028Y-195807614D02*
X198386599Y-195664757D01*
X198386599Y-195664757D02*
X198243742Y-195593328D01*
X198243742Y-195593328D02*
X197958028Y-195593328D01*
X197958028Y-195593328D02*
X197815170Y-195664757D01*
X198458028Y-196521900D02*
X198315170Y-196593328D01*
X198315170Y-196593328D02*
X197958028Y-196593328D01*
X197958028Y-196593328D02*
X197815170Y-196521900D01*
X197815170Y-196521900D02*
X197743742Y-196379042D01*
X197743742Y-196379042D02*
X197743742Y-196236185D01*
X197743742Y-196236185D02*
X197815170Y-196093328D01*
X197815170Y-196093328D02*
X197958028Y-196021900D01*
X197958028Y-196021900D02*
X198315170Y-196021900D01*
X198315170Y-196021900D02*
X198458028Y-195950471D01*
X199815171Y-196593328D02*
X199815171Y-195093328D01*
X199815171Y-196521900D02*
X199672313Y-196593328D01*
X199672313Y-196593328D02*
X199386599Y-196593328D01*
X199386599Y-196593328D02*
X199243742Y-196521900D01*
X199243742Y-196521900D02*
X199172313Y-196450471D01*
X199172313Y-196450471D02*
X199100885Y-196307614D01*
X199100885Y-196307614D02*
X199100885Y-195879042D01*
X199100885Y-195879042D02*
X199172313Y-195736185D01*
X199172313Y-195736185D02*
X199243742Y-195664757D01*
X199243742Y-195664757D02*
X199386599Y-195593328D01*
X199386599Y-195593328D02*
X199672313Y-195593328D01*
X199672313Y-195593328D02*
X199815171Y-195664757D01*
X201529456Y-195093328D02*
X202529456Y-195093328D01*
X202529456Y-195093328D02*
X201886599Y-196593328D01*
X203100884Y-196450471D02*
X203172313Y-196521900D01*
X203172313Y-196521900D02*
X203100884Y-196593328D01*
X203100884Y-196593328D02*
X203029456Y-196521900D01*
X203029456Y-196521900D02*
X203100884Y-196450471D01*
X203100884Y-196450471D02*
X203100884Y-196593328D01*
X204100885Y-195093328D02*
X204243742Y-195093328D01*
X204243742Y-195093328D02*
X204386599Y-195164757D01*
X204386599Y-195164757D02*
X204458028Y-195236185D01*
X204458028Y-195236185D02*
X204529456Y-195379042D01*
X204529456Y-195379042D02*
X204600885Y-195664757D01*
X204600885Y-195664757D02*
X204600885Y-196021900D01*
X204600885Y-196021900D02*
X204529456Y-196307614D01*
X204529456Y-196307614D02*
X204458028Y-196450471D01*
X204458028Y-196450471D02*
X204386599Y-196521900D01*
X204386599Y-196521900D02*
X204243742Y-196593328D01*
X204243742Y-196593328D02*
X204100885Y-196593328D01*
X204100885Y-196593328D02*
X203958028Y-196521900D01*
X203958028Y-196521900D02*
X203886599Y-196450471D01*
X203886599Y-196450471D02*
X203815170Y-196307614D01*
X203815170Y-196307614D02*
X203743742Y-196021900D01*
X203743742Y-196021900D02*
X203743742Y-195664757D01*
X203743742Y-195664757D02*
X203815170Y-195379042D01*
X203815170Y-195379042D02*
X203886599Y-195236185D01*
X203886599Y-195236185D02*
X203958028Y-195164757D01*
X203958028Y-195164757D02*
X204100885Y-195093328D01*
X205243741Y-196450471D02*
X205315170Y-196521900D01*
X205315170Y-196521900D02*
X205243741Y-196593328D01*
X205243741Y-196593328D02*
X205172313Y-196521900D01*
X205172313Y-196521900D02*
X205243741Y-196450471D01*
X205243741Y-196450471D02*
X205243741Y-196593328D01*
X206600885Y-195093328D02*
X206315170Y-195093328D01*
X206315170Y-195093328D02*
X206172313Y-195164757D01*
X206172313Y-195164757D02*
X206100885Y-195236185D01*
X206100885Y-195236185D02*
X205958027Y-195450471D01*
X205958027Y-195450471D02*
X205886599Y-195736185D01*
X205886599Y-195736185D02*
X205886599Y-196307614D01*
X205886599Y-196307614D02*
X205958027Y-196450471D01*
X205958027Y-196450471D02*
X206029456Y-196521900D01*
X206029456Y-196521900D02*
X206172313Y-196593328D01*
X206172313Y-196593328D02*
X206458027Y-196593328D01*
X206458027Y-196593328D02*
X206600885Y-196521900D01*
X206600885Y-196521900D02*
X206672313Y-196450471D01*
X206672313Y-196450471D02*
X206743742Y-196307614D01*
X206743742Y-196307614D02*
X206743742Y-195950471D01*
X206743742Y-195950471D02*
X206672313Y-195807614D01*
X206672313Y-195807614D02*
X206600885Y-195736185D01*
X206600885Y-195736185D02*
X206458027Y-195664757D01*
X206458027Y-195664757D02*
X206172313Y-195664757D01*
X206172313Y-195664757D02*
X206029456Y-195736185D01*
X206029456Y-195736185D02*
X205958027Y-195807614D01*
X205958027Y-195807614D02*
X205886599Y-195950471D01*
D10*
D11*
X177002200Y-191507200D02*
X285002200Y-191507200D01*
D10*
D12*
X264413853Y-193785528D02*
X263913853Y-193071242D01*
X263556710Y-193785528D02*
X263556710Y-192285528D01*
X263556710Y-192285528D02*
X264128139Y-192285528D01*
X264128139Y-192285528D02*
X264270996Y-192356957D01*
X264270996Y-192356957D02*
X264342425Y-192428385D01*
X264342425Y-192428385D02*
X264413853Y-192571242D01*
X264413853Y-192571242D02*
X264413853Y-192785528D01*
X264413853Y-192785528D02*
X264342425Y-192928385D01*
X264342425Y-192928385D02*
X264270996Y-192999814D01*
X264270996Y-192999814D02*
X264128139Y-193071242D01*
X264128139Y-193071242D02*
X263556710Y-193071242D01*
X265628139Y-193714100D02*
X265485282Y-193785528D01*
X265485282Y-193785528D02*
X265199568Y-193785528D01*
X265199568Y-193785528D02*
X265056710Y-193714100D01*
X265056710Y-193714100D02*
X264985282Y-193571242D01*
X264985282Y-193571242D02*
X264985282Y-192999814D01*
X264985282Y-192999814D02*
X265056710Y-192856957D01*
X265056710Y-192856957D02*
X265199568Y-192785528D01*
X265199568Y-192785528D02*
X265485282Y-192785528D01*
X265485282Y-192785528D02*
X265628139Y-192856957D01*
X265628139Y-192856957D02*
X265699568Y-192999814D01*
X265699568Y-192999814D02*
X265699568Y-193142671D01*
X265699568Y-193142671D02*
X264985282Y-193285528D01*
X266199567Y-192785528D02*
X266556710Y-193785528D01*
X266556710Y-193785528D02*
X266913853Y-192785528D01*
X267485281Y-193642671D02*
X267556710Y-193714100D01*
X267556710Y-193714100D02*
X267485281Y-193785528D01*
X267485281Y-193785528D02*
X267413853Y-193714100D01*
X267413853Y-193714100D02*
X267485281Y-193642671D01*
X267485281Y-193642671D02*
X267485281Y-193785528D01*
X267485281Y-192856957D02*
X267556710Y-192928385D01*
X267556710Y-192928385D02*
X267485281Y-192999814D01*
X267485281Y-192999814D02*
X267413853Y-192928385D01*
X267413853Y-192928385D02*
X267485281Y-192856957D01*
X267485281Y-192856957D02*
X267485281Y-192999814D01*
D10*
D11*
X178386598Y-193721900D02*
X178600884Y-193793328D01*
X178600884Y-193793328D02*
X178958026Y-193793328D01*
X178958026Y-193793328D02*
X179100884Y-193721900D01*
X179100884Y-193721900D02*
X179172312Y-193650471D01*
X179172312Y-193650471D02*
X179243741Y-193507614D01*
X179243741Y-193507614D02*
X179243741Y-193364757D01*
X179243741Y-193364757D02*
X179172312Y-193221900D01*
X179172312Y-193221900D02*
X179100884Y-193150471D01*
X179100884Y-193150471D02*
X178958026Y-193079042D01*
X178958026Y-193079042D02*
X178672312Y-193007614D01*
X178672312Y-193007614D02*
X178529455Y-192936185D01*
X178529455Y-192936185D02*
X178458026Y-192864757D01*
X178458026Y-192864757D02*
X178386598Y-192721900D01*
X178386598Y-192721900D02*
X178386598Y-192579042D01*
X178386598Y-192579042D02*
X178458026Y-192436185D01*
X178458026Y-192436185D02*
X178529455Y-192364757D01*
X178529455Y-192364757D02*
X178672312Y-192293328D01*
X178672312Y-192293328D02*
X179029455Y-192293328D01*
X179029455Y-192293328D02*
X179243741Y-192364757D01*
X179886597Y-193793328D02*
X179886597Y-192793328D01*
X179886597Y-192293328D02*
X179815169Y-192364757D01*
X179815169Y-192364757D02*
X179886597Y-192436185D01*
X179886597Y-192436185D02*
X179958026Y-192364757D01*
X179958026Y-192364757D02*
X179886597Y-192293328D01*
X179886597Y-192293328D02*
X179886597Y-192436185D01*
X180458026Y-192793328D02*
X181243741Y-192793328D01*
X181243741Y-192793328D02*
X180458026Y-193793328D01*
X180458026Y-193793328D02*
X181243741Y-193793328D01*
X182386598Y-193721900D02*
X182243741Y-193793328D01*
X182243741Y-193793328D02*
X181958027Y-193793328D01*
X181958027Y-193793328D02*
X181815169Y-193721900D01*
X181815169Y-193721900D02*
X181743741Y-193579042D01*
X181743741Y-193579042D02*
X181743741Y-193007614D01*
X181743741Y-193007614D02*
X181815169Y-192864757D01*
X181815169Y-192864757D02*
X181958027Y-192793328D01*
X181958027Y-192793328D02*
X182243741Y-192793328D01*
X182243741Y-192793328D02*
X182386598Y-192864757D01*
X182386598Y-192864757D02*
X182458027Y-193007614D01*
X182458027Y-193007614D02*
X182458027Y-193150471D01*
X182458027Y-193150471D02*
X181743741Y-193293328D01*
X183100883Y-193650471D02*
X183172312Y-193721900D01*
X183172312Y-193721900D02*
X183100883Y-193793328D01*
X183100883Y-193793328D02*
X183029455Y-193721900D01*
X183029455Y-193721900D02*
X183100883Y-193650471D01*
X183100883Y-193650471D02*
X183100883Y-193793328D01*
X183100883Y-192864757D02*
X183172312Y-192936185D01*
X183172312Y-192936185D02*
X183100883Y-193007614D01*
X183100883Y-193007614D02*
X183029455Y-192936185D01*
X183029455Y-192936185D02*
X183100883Y-192864757D01*
X183100883Y-192864757D02*
X183100883Y-193007614D01*
X184886598Y-193364757D02*
X185600884Y-193364757D01*
X184743741Y-193793328D02*
X185243741Y-192293328D01*
X185243741Y-192293328D02*
X185743741Y-193793328D01*
X186886598Y-192793328D02*
X186886598Y-193793328D01*
X186529455Y-192221900D02*
X186172312Y-193293328D01*
X186172312Y-193293328D02*
X187100883Y-193293328D01*
D10*
D11*
X263458026Y-196593328D02*
X263458026Y-195093328D01*
X264815170Y-196593328D02*
X264815170Y-195093328D01*
X264815170Y-196521900D02*
X264672312Y-196593328D01*
X264672312Y-196593328D02*
X264386598Y-196593328D01*
X264386598Y-196593328D02*
X264243741Y-196521900D01*
X264243741Y-196521900D02*
X264172312Y-196450471D01*
X264172312Y-196450471D02*
X264100884Y-196307614D01*
X264100884Y-196307614D02*
X264100884Y-195879042D01*
X264100884Y-195879042D02*
X264172312Y-195736185D01*
X264172312Y-195736185D02*
X264243741Y-195664757D01*
X264243741Y-195664757D02*
X264386598Y-195593328D01*
X264386598Y-195593328D02*
X264672312Y-195593328D01*
X264672312Y-195593328D02*
X264815170Y-195664757D01*
X265529455Y-196450471D02*
X265600884Y-196521900D01*
X265600884Y-196521900D02*
X265529455Y-196593328D01*
X265529455Y-196593328D02*
X265458027Y-196521900D01*
X265458027Y-196521900D02*
X265529455Y-196450471D01*
X265529455Y-196450471D02*
X265529455Y-196593328D01*
X265529455Y-195664757D02*
X265600884Y-195736185D01*
X265600884Y-195736185D02*
X265529455Y-195807614D01*
X265529455Y-195807614D02*
X265458027Y-195736185D01*
X265458027Y-195736185D02*
X265529455Y-195664757D01*
X265529455Y-195664757D02*
X265529455Y-195807614D01*
X268172313Y-196593328D02*
X267315170Y-196593328D01*
X267743741Y-196593328D02*
X267743741Y-195093328D01*
X267743741Y-195093328D02*
X267600884Y-195307614D01*
X267600884Y-195307614D02*
X267458027Y-195450471D01*
X267458027Y-195450471D02*
X267315170Y-195521900D01*
X269886598Y-195021900D02*
X268600884Y-196950471D01*
X271172313Y-196593328D02*
X270315170Y-196593328D01*
X270743741Y-196593328D02*
X270743741Y-195093328D01*
X270743741Y-195093328D02*
X270600884Y-195307614D01*
X270600884Y-195307614D02*
X270458027Y-195450471D01*
X270458027Y-195450471D02*
X270315170Y-195521900D01*
D10*
D11*
X177002200Y-187507200D02*
X285002200Y-187507200D01*
D10*
D13*
X178693928Y-188211638D02*
X179836785Y-188211638D01*
X179015357Y-190211638D02*
X179265357Y-188211638D01*
X180253452Y-190211638D02*
X180420119Y-188878304D01*
X180503452Y-188211638D02*
X180396309Y-188306876D01*
X180396309Y-188306876D02*
X180479643Y-188402114D01*
X180479643Y-188402114D02*
X180586786Y-188306876D01*
X180586786Y-188306876D02*
X180503452Y-188211638D01*
X180503452Y-188211638D02*
X180479643Y-188402114D01*
X181086786Y-188878304D02*
X181848690Y-188878304D01*
X181455833Y-188211638D02*
X181241548Y-189925923D01*
X181241548Y-189925923D02*
X181312976Y-190116400D01*
X181312976Y-190116400D02*
X181491548Y-190211638D01*
X181491548Y-190211638D02*
X181682024Y-190211638D01*
X182634405Y-190211638D02*
X182455833Y-190116400D01*
X182455833Y-190116400D02*
X182384405Y-189925923D01*
X182384405Y-189925923D02*
X182598690Y-188211638D01*
X184170119Y-190116400D02*
X183967738Y-190211638D01*
X183967738Y-190211638D02*
X183586785Y-190211638D01*
X183586785Y-190211638D02*
X183408214Y-190116400D01*
X183408214Y-190116400D02*
X183336785Y-189925923D01*
X183336785Y-189925923D02*
X183432024Y-189164019D01*
X183432024Y-189164019D02*
X183551071Y-188973542D01*
X183551071Y-188973542D02*
X183753452Y-188878304D01*
X183753452Y-188878304D02*
X184134404Y-188878304D01*
X184134404Y-188878304D02*
X184312976Y-188973542D01*
X184312976Y-188973542D02*
X184384404Y-189164019D01*
X184384404Y-189164019D02*
X184360595Y-189354495D01*
X184360595Y-189354495D02*
X183384404Y-189544971D01*
X185134405Y-190021161D02*
X185217738Y-190116400D01*
X185217738Y-190116400D02*
X185110595Y-190211638D01*
X185110595Y-190211638D02*
X185027262Y-190116400D01*
X185027262Y-190116400D02*
X185134405Y-190021161D01*
X185134405Y-190021161D02*
X185110595Y-190211638D01*
X185265357Y-188973542D02*
X185348690Y-189068780D01*
X185348690Y-189068780D02*
X185241548Y-189164019D01*
X185241548Y-189164019D02*
X185158214Y-189068780D01*
X185158214Y-189068780D02*
X185265357Y-188973542D01*
X185265357Y-188973542D02*
X185241548Y-189164019D01*
D10*
D11*
X178958026Y-185607614D02*
X178458026Y-185607614D01*
X178458026Y-186393328D02*
X178458026Y-184893328D01*
X178458026Y-184893328D02*
X179172312Y-184893328D01*
X179743740Y-186393328D02*
X179743740Y-185393328D01*
X179743740Y-184893328D02*
X179672312Y-184964757D01*
X179672312Y-184964757D02*
X179743740Y-185036185D01*
X179743740Y-185036185D02*
X179815169Y-184964757D01*
X179815169Y-184964757D02*
X179743740Y-184893328D01*
X179743740Y-184893328D02*
X179743740Y-185036185D01*
X180672312Y-186393328D02*
X180529455Y-186321900D01*
X180529455Y-186321900D02*
X180458026Y-186179042D01*
X180458026Y-186179042D02*
X180458026Y-184893328D01*
X181815169Y-186321900D02*
X181672312Y-186393328D01*
X181672312Y-186393328D02*
X181386598Y-186393328D01*
X181386598Y-186393328D02*
X181243740Y-186321900D01*
X181243740Y-186321900D02*
X181172312Y-186179042D01*
X181172312Y-186179042D02*
X181172312Y-185607614D01*
X181172312Y-185607614D02*
X181243740Y-185464757D01*
X181243740Y-185464757D02*
X181386598Y-185393328D01*
X181386598Y-185393328D02*
X181672312Y-185393328D01*
X181672312Y-185393328D02*
X181815169Y-185464757D01*
X181815169Y-185464757D02*
X181886598Y-185607614D01*
X181886598Y-185607614D02*
X181886598Y-185750471D01*
X181886598Y-185750471D02*
X181172312Y-185893328D01*
X182529454Y-186250471D02*
X182600883Y-186321900D01*
X182600883Y-186321900D02*
X182529454Y-186393328D01*
X182529454Y-186393328D02*
X182458026Y-186321900D01*
X182458026Y-186321900D02*
X182529454Y-186250471D01*
X182529454Y-186250471D02*
X182529454Y-186393328D01*
X182529454Y-185464757D02*
X182600883Y-185536185D01*
X182600883Y-185536185D02*
X182529454Y-185607614D01*
X182529454Y-185607614D02*
X182458026Y-185536185D01*
X182458026Y-185536185D02*
X182529454Y-185464757D01*
X182529454Y-185464757D02*
X182529454Y-185607614D01*
X184386597Y-186393328D02*
X184386597Y-185393328D01*
X184386597Y-185679042D02*
X184458026Y-185536185D01*
X184458026Y-185536185D02*
X184529455Y-185464757D01*
X184529455Y-185464757D02*
X184672312Y-185393328D01*
X184672312Y-185393328D02*
X184815169Y-185393328D01*
X185315168Y-186393328D02*
X185315168Y-185393328D01*
X185315168Y-185679042D02*
X185386597Y-185536185D01*
X185386597Y-185536185D02*
X185458026Y-185464757D01*
X185458026Y-185464757D02*
X185600883Y-185393328D01*
X185600883Y-185393328D02*
X185743740Y-185393328D01*
X186886597Y-186321900D02*
X186743739Y-186393328D01*
X186743739Y-186393328D02*
X186458025Y-186393328D01*
X186458025Y-186393328D02*
X186315168Y-186321900D01*
X186315168Y-186321900D02*
X186243739Y-186250471D01*
X186243739Y-186250471D02*
X186172311Y-186107614D01*
X186172311Y-186107614D02*
X186172311Y-185679042D01*
X186172311Y-185679042D02*
X186243739Y-185536185D01*
X186243739Y-185536185D02*
X186315168Y-185464757D01*
X186315168Y-185464757D02*
X186458025Y-185393328D01*
X186458025Y-185393328D02*
X186743739Y-185393328D01*
X186743739Y-185393328D02*
X186886597Y-185464757D01*
X187172311Y-186536185D02*
X188315168Y-186536185D01*
X188672310Y-185393328D02*
X188672310Y-186893328D01*
X188672310Y-185464757D02*
X188815168Y-185393328D01*
X188815168Y-185393328D02*
X189100882Y-185393328D01*
X189100882Y-185393328D02*
X189243739Y-185464757D01*
X189243739Y-185464757D02*
X189315168Y-185536185D01*
X189315168Y-185536185D02*
X189386596Y-185679042D01*
X189386596Y-185679042D02*
X189386596Y-186107614D01*
X189386596Y-186107614D02*
X189315168Y-186250471D01*
X189315168Y-186250471D02*
X189243739Y-186321900D01*
X189243739Y-186321900D02*
X189100882Y-186393328D01*
X189100882Y-186393328D02*
X188815168Y-186393328D01*
X188815168Y-186393328D02*
X188672310Y-186321900D01*
X190672311Y-186321900D02*
X190529453Y-186393328D01*
X190529453Y-186393328D02*
X190243739Y-186393328D01*
X190243739Y-186393328D02*
X190100882Y-186321900D01*
X190100882Y-186321900D02*
X190029453Y-186250471D01*
X190029453Y-186250471D02*
X189958025Y-186107614D01*
X189958025Y-186107614D02*
X189958025Y-185679042D01*
X189958025Y-185679042D02*
X190029453Y-185536185D01*
X190029453Y-185536185D02*
X190100882Y-185464757D01*
X190100882Y-185464757D02*
X190243739Y-185393328D01*
X190243739Y-185393328D02*
X190529453Y-185393328D01*
X190529453Y-185393328D02*
X190672311Y-185464757D01*
X191315167Y-186393328D02*
X191315167Y-184893328D01*
X191315167Y-185464757D02*
X191458025Y-185393328D01*
X191458025Y-185393328D02*
X191743739Y-185393328D01*
X191743739Y-185393328D02*
X191886596Y-185464757D01*
X191886596Y-185464757D02*
X191958025Y-185536185D01*
X191958025Y-185536185D02*
X192029453Y-185679042D01*
X192029453Y-185679042D02*
X192029453Y-186107614D01*
X192029453Y-186107614D02*
X191958025Y-186250471D01*
X191958025Y-186250471D02*
X191886596Y-186321900D01*
X191886596Y-186321900D02*
X191743739Y-186393328D01*
X191743739Y-186393328D02*
X191458025Y-186393328D01*
X191458025Y-186393328D02*
X191315167Y-186321900D01*
X192600882Y-185036185D02*
X192672310Y-184964757D01*
X192672310Y-184964757D02*
X192815168Y-184893328D01*
X192815168Y-184893328D02*
X193172310Y-184893328D01*
X193172310Y-184893328D02*
X193315168Y-184964757D01*
X193315168Y-184964757D02*
X193386596Y-185036185D01*
X193386596Y-185036185D02*
X193458025Y-185179042D01*
X193458025Y-185179042D02*
X193458025Y-185321900D01*
X193458025Y-185321900D02*
X193386596Y-185536185D01*
X193386596Y-185536185D02*
X192529453Y-186393328D01*
X192529453Y-186393328D02*
X193458025Y-186393328D01*
X194100881Y-186250471D02*
X194172310Y-186321900D01*
X194172310Y-186321900D02*
X194100881Y-186393328D01*
X194100881Y-186393328D02*
X194029453Y-186321900D01*
X194029453Y-186321900D02*
X194100881Y-186250471D01*
X194100881Y-186250471D02*
X194100881Y-186393328D01*
X194815167Y-186393328D02*
X194815167Y-184893328D01*
X194958025Y-185821900D02*
X195386596Y-186393328D01*
X195386596Y-185393328D02*
X194815167Y-185964757D01*
X196029453Y-186393328D02*
X196029453Y-185393328D01*
X196029453Y-184893328D02*
X195958025Y-184964757D01*
X195958025Y-184964757D02*
X196029453Y-185036185D01*
X196029453Y-185036185D02*
X196100882Y-184964757D01*
X196100882Y-184964757D02*
X196029453Y-184893328D01*
X196029453Y-184893328D02*
X196029453Y-185036185D01*
X197386597Y-186321900D02*
X197243739Y-186393328D01*
X197243739Y-186393328D02*
X196958025Y-186393328D01*
X196958025Y-186393328D02*
X196815168Y-186321900D01*
X196815168Y-186321900D02*
X196743739Y-186250471D01*
X196743739Y-186250471D02*
X196672311Y-186107614D01*
X196672311Y-186107614D02*
X196672311Y-185679042D01*
X196672311Y-185679042D02*
X196743739Y-185536185D01*
X196743739Y-185536185D02*
X196815168Y-185464757D01*
X196815168Y-185464757D02*
X196958025Y-185393328D01*
X196958025Y-185393328D02*
X197243739Y-185393328D01*
X197243739Y-185393328D02*
X197386597Y-185464757D01*
X198672311Y-186393328D02*
X198672311Y-185607614D01*
X198672311Y-185607614D02*
X198600882Y-185464757D01*
X198600882Y-185464757D02*
X198458025Y-185393328D01*
X198458025Y-185393328D02*
X198172311Y-185393328D01*
X198172311Y-185393328D02*
X198029453Y-185464757D01*
X198672311Y-186321900D02*
X198529453Y-186393328D01*
X198529453Y-186393328D02*
X198172311Y-186393328D01*
X198172311Y-186393328D02*
X198029453Y-186321900D01*
X198029453Y-186321900D02*
X197958025Y-186179042D01*
X197958025Y-186179042D02*
X197958025Y-186036185D01*
X197958025Y-186036185D02*
X198029453Y-185893328D01*
X198029453Y-185893328D02*
X198172311Y-185821900D01*
X198172311Y-185821900D02*
X198529453Y-185821900D01*
X198529453Y-185821900D02*
X198672311Y-185750471D01*
X200029454Y-186393328D02*
X200029454Y-184893328D01*
X200029454Y-186321900D02*
X199886596Y-186393328D01*
X199886596Y-186393328D02*
X199600882Y-186393328D01*
X199600882Y-186393328D02*
X199458025Y-186321900D01*
X199458025Y-186321900D02*
X199386596Y-186250471D01*
X199386596Y-186250471D02*
X199315168Y-186107614D01*
X199315168Y-186107614D02*
X199315168Y-185679042D01*
X199315168Y-185679042D02*
X199386596Y-185536185D01*
X199386596Y-185536185D02*
X199458025Y-185464757D01*
X199458025Y-185464757D02*
X199600882Y-185393328D01*
X199600882Y-185393328D02*
X199886596Y-185393328D01*
X199886596Y-185393328D02*
X200029454Y-185464757D01*
X200386597Y-186536185D02*
X201529454Y-186536185D01*
X201886596Y-185393328D02*
X201886596Y-186893328D01*
X201886596Y-185464757D02*
X202029454Y-185393328D01*
X202029454Y-185393328D02*
X202315168Y-185393328D01*
X202315168Y-185393328D02*
X202458025Y-185464757D01*
X202458025Y-185464757D02*
X202529454Y-185536185D01*
X202529454Y-185536185D02*
X202600882Y-185679042D01*
X202600882Y-185679042D02*
X202600882Y-186107614D01*
X202600882Y-186107614D02*
X202529454Y-186250471D01*
X202529454Y-186250471D02*
X202458025Y-186321900D01*
X202458025Y-186321900D02*
X202315168Y-186393328D01*
X202315168Y-186393328D02*
X202029454Y-186393328D01*
X202029454Y-186393328D02*
X201886596Y-186321900D01*
X203886597Y-186321900D02*
X203743739Y-186393328D01*
X203743739Y-186393328D02*
X203458025Y-186393328D01*
X203458025Y-186393328D02*
X203315168Y-186321900D01*
X203315168Y-186321900D02*
X203243739Y-186250471D01*
X203243739Y-186250471D02*
X203172311Y-186107614D01*
X203172311Y-186107614D02*
X203172311Y-185679042D01*
X203172311Y-185679042D02*
X203243739Y-185536185D01*
X203243739Y-185536185D02*
X203315168Y-185464757D01*
X203315168Y-185464757D02*
X203458025Y-185393328D01*
X203458025Y-185393328D02*
X203743739Y-185393328D01*
X203743739Y-185393328D02*
X203886597Y-185464757D01*
X204529453Y-186393328D02*
X204529453Y-184893328D01*
X204529453Y-185464757D02*
X204672311Y-185393328D01*
X204672311Y-185393328D02*
X204958025Y-185393328D01*
X204958025Y-185393328D02*
X205100882Y-185464757D01*
X205100882Y-185464757D02*
X205172311Y-185536185D01*
X205172311Y-185536185D02*
X205243739Y-185679042D01*
X205243739Y-185679042D02*
X205243739Y-186107614D01*
X205243739Y-186107614D02*
X205172311Y-186250471D01*
X205172311Y-186250471D02*
X205100882Y-186321900D01*
X205100882Y-186321900D02*
X204958025Y-186393328D01*
X204958025Y-186393328D02*
X204672311Y-186393328D01*
X204672311Y-186393328D02*
X204529453Y-186321900D01*
D10*
D11*
X177002200Y-181507200D02*
X285002200Y-181507200D01*
D10*
D11*
X178386598Y-183621900D02*
X178600884Y-183693328D01*
X178600884Y-183693328D02*
X178958026Y-183693328D01*
X178958026Y-183693328D02*
X179100884Y-183621900D01*
X179100884Y-183621900D02*
X179172312Y-183550471D01*
X179172312Y-183550471D02*
X179243741Y-183407614D01*
X179243741Y-183407614D02*
X179243741Y-183264757D01*
X179243741Y-183264757D02*
X179172312Y-183121900D01*
X179172312Y-183121900D02*
X179100884Y-183050471D01*
X179100884Y-183050471D02*
X178958026Y-182979042D01*
X178958026Y-182979042D02*
X178672312Y-182907614D01*
X178672312Y-182907614D02*
X178529455Y-182836185D01*
X178529455Y-182836185D02*
X178458026Y-182764757D01*
X178458026Y-182764757D02*
X178386598Y-182621900D01*
X178386598Y-182621900D02*
X178386598Y-182479042D01*
X178386598Y-182479042D02*
X178458026Y-182336185D01*
X178458026Y-182336185D02*
X178529455Y-182264757D01*
X178529455Y-182264757D02*
X178672312Y-182193328D01*
X178672312Y-182193328D02*
X179029455Y-182193328D01*
X179029455Y-182193328D02*
X179243741Y-182264757D01*
X179886597Y-183693328D02*
X179886597Y-182193328D01*
X180529455Y-183693328D02*
X180529455Y-182907614D01*
X180529455Y-182907614D02*
X180458026Y-182764757D01*
X180458026Y-182764757D02*
X180315169Y-182693328D01*
X180315169Y-182693328D02*
X180100883Y-182693328D01*
X180100883Y-182693328D02*
X179958026Y-182764757D01*
X179958026Y-182764757D02*
X179886597Y-182836185D01*
X181815169Y-183621900D02*
X181672312Y-183693328D01*
X181672312Y-183693328D02*
X181386598Y-183693328D01*
X181386598Y-183693328D02*
X181243740Y-183621900D01*
X181243740Y-183621900D02*
X181172312Y-183479042D01*
X181172312Y-183479042D02*
X181172312Y-182907614D01*
X181172312Y-182907614D02*
X181243740Y-182764757D01*
X181243740Y-182764757D02*
X181386598Y-182693328D01*
X181386598Y-182693328D02*
X181672312Y-182693328D01*
X181672312Y-182693328D02*
X181815169Y-182764757D01*
X181815169Y-182764757D02*
X181886598Y-182907614D01*
X181886598Y-182907614D02*
X181886598Y-183050471D01*
X181886598Y-183050471D02*
X181172312Y-183193328D01*
X183100883Y-183621900D02*
X182958026Y-183693328D01*
X182958026Y-183693328D02*
X182672312Y-183693328D01*
X182672312Y-183693328D02*
X182529454Y-183621900D01*
X182529454Y-183621900D02*
X182458026Y-183479042D01*
X182458026Y-183479042D02*
X182458026Y-182907614D01*
X182458026Y-182907614D02*
X182529454Y-182764757D01*
X182529454Y-182764757D02*
X182672312Y-182693328D01*
X182672312Y-182693328D02*
X182958026Y-182693328D01*
X182958026Y-182693328D02*
X183100883Y-182764757D01*
X183100883Y-182764757D02*
X183172312Y-182907614D01*
X183172312Y-182907614D02*
X183172312Y-183050471D01*
X183172312Y-183050471D02*
X182458026Y-183193328D01*
X183600883Y-182693328D02*
X184172311Y-182693328D01*
X183815168Y-182193328D02*
X183815168Y-183479042D01*
X183815168Y-183479042D02*
X183886597Y-183621900D01*
X183886597Y-183621900D02*
X184029454Y-183693328D01*
X184029454Y-183693328D02*
X184172311Y-183693328D01*
X184672311Y-183550471D02*
X184743740Y-183621900D01*
X184743740Y-183621900D02*
X184672311Y-183693328D01*
X184672311Y-183693328D02*
X184600883Y-183621900D01*
X184600883Y-183621900D02*
X184672311Y-183550471D01*
X184672311Y-183550471D02*
X184672311Y-183693328D01*
X184672311Y-182764757D02*
X184743740Y-182836185D01*
X184743740Y-182836185D02*
X184672311Y-182907614D01*
X184672311Y-182907614D02*
X184600883Y-182836185D01*
X184600883Y-182836185D02*
X184672311Y-182764757D01*
X184672311Y-182764757D02*
X184672311Y-182907614D01*
D10*
D12*
D10*
D11*
D10*
D11*
D10*
D11*
D10*
D11*
D10*
D11*
X197002200Y-191507200D02*
X197002200Y-194507200D01*
D10*
D11*
X261002200Y-191507200D02*
X261002200Y-198007200D01*
X131818809Y-45651009D02*
X131961666Y-45698628D01*
X131961666Y-45698628D02*
X132009285Y-45746247D01*
X132009285Y-45746247D02*
X132056904Y-45841485D01*
X132056904Y-45841485D02*
X132056904Y-45984342D01*
X132056904Y-45984342D02*
X132009285Y-46079580D01*
X132009285Y-46079580D02*
X131961666Y-46127200D01*
X131961666Y-46127200D02*
X131866428Y-46174819D01*
X131866428Y-46174819D02*
X131485476Y-46174819D01*
X131485476Y-46174819D02*
X131485476Y-45174819D01*
X131485476Y-45174819D02*
X131818809Y-45174819D01*
X131818809Y-45174819D02*
X131914047Y-45222438D01*
X131914047Y-45222438D02*
X131961666Y-45270057D01*
X131961666Y-45270057D02*
X132009285Y-45365295D01*
X132009285Y-45365295D02*
X132009285Y-45460533D01*
X132009285Y-45460533D02*
X131961666Y-45555771D01*
X131961666Y-45555771D02*
X131914047Y-45603390D01*
X131914047Y-45603390D02*
X131818809Y-45651009D01*
X131818809Y-45651009D02*
X131485476Y-45651009D01*
X132485476Y-46174819D02*
X132485476Y-45174819D01*
X132485476Y-45174819D02*
X133056904Y-46174819D01*
X133056904Y-46174819D02*
X133056904Y-45174819D01*
X133485476Y-45270057D02*
X133533095Y-45222438D01*
X133533095Y-45222438D02*
X133628333Y-45174819D01*
X133628333Y-45174819D02*
X133866428Y-45174819D01*
X133866428Y-45174819D02*
X133961666Y-45222438D01*
X133961666Y-45222438D02*
X134009285Y-45270057D01*
X134009285Y-45270057D02*
X134056904Y-45365295D01*
X134056904Y-45365295D02*
X134056904Y-45460533D01*
X134056904Y-45460533D02*
X134009285Y-45603390D01*
X134009285Y-45603390D02*
X133437857Y-46174819D01*
X133437857Y-46174819D02*
X134056904Y-46174819D01*
X134437857Y-45270057D02*
X134485476Y-45222438D01*
X134485476Y-45222438D02*
X134580714Y-45174819D01*
X134580714Y-45174819D02*
X134818809Y-45174819D01*
X134818809Y-45174819D02*
X134914047Y-45222438D01*
X134914047Y-45222438D02*
X134961666Y-45270057D01*
X134961666Y-45270057D02*
X135009285Y-45365295D01*
X135009285Y-45365295D02*
X135009285Y-45460533D01*
X135009285Y-45460533D02*
X134961666Y-45603390D01*
X134961666Y-45603390D02*
X134390238Y-46174819D01*
X134390238Y-46174819D02*
X135009285Y-46174819D01*
X135628333Y-45174819D02*
X135723571Y-45174819D01*
X135723571Y-45174819D02*
X135818809Y-45222438D01*
X135818809Y-45222438D02*
X135866428Y-45270057D01*
X135866428Y-45270057D02*
X135914047Y-45365295D01*
X135914047Y-45365295D02*
X135961666Y-45555771D01*
X135961666Y-45555771D02*
X135961666Y-45793866D01*
X135961666Y-45793866D02*
X135914047Y-45984342D01*
X135914047Y-45984342D02*
X135866428Y-46079580D01*
X135866428Y-46079580D02*
X135818809Y-46127200D01*
X135818809Y-46127200D02*
X135723571Y-46174819D01*
X135723571Y-46174819D02*
X135628333Y-46174819D01*
X135628333Y-46174819D02*
X135533095Y-46127200D01*
X135533095Y-46127200D02*
X135485476Y-46079580D01*
X135485476Y-46079580D02*
X135437857Y-45984342D01*
X135437857Y-45984342D02*
X135390238Y-45793866D01*
X135390238Y-45793866D02*
X135390238Y-45555771D01*
X135390238Y-45555771D02*
X135437857Y-45365295D01*
X135437857Y-45365295D02*
X135485476Y-45270057D01*
X135485476Y-45270057D02*
X135533095Y-45222438D01*
X135533095Y-45222438D02*
X135628333Y-45174819D01*
X136390238Y-45793866D02*
X137152143Y-45793866D01*
X138152142Y-45222438D02*
X138056904Y-45174819D01*
X138056904Y-45174819D02*
X137914047Y-45174819D01*
X137914047Y-45174819D02*
X137771190Y-45222438D01*
X137771190Y-45222438D02*
X137675952Y-45317676D01*
X137675952Y-45317676D02*
X137628333Y-45412914D01*
X137628333Y-45412914D02*
X137580714Y-45603390D01*
X137580714Y-45603390D02*
X137580714Y-45746247D01*
X137580714Y-45746247D02*
X137628333Y-45936723D01*
X137628333Y-45936723D02*
X137675952Y-46031961D01*
X137675952Y-46031961D02*
X137771190Y-46127200D01*
X137771190Y-46127200D02*
X137914047Y-46174819D01*
X137914047Y-46174819D02*
X138009285Y-46174819D01*
X138009285Y-46174819D02*
X138152142Y-46127200D01*
X138152142Y-46127200D02*
X138199761Y-46079580D01*
X138199761Y-46079580D02*
X138199761Y-45746247D01*
X138199761Y-45746247D02*
X138009285Y-45746247D01*
X138628333Y-46174819D02*
X138628333Y-45174819D01*
X138628333Y-45174819D02*
X139009285Y-45174819D01*
X139009285Y-45174819D02*
X139104523Y-45222438D01*
X139104523Y-45222438D02*
X139152142Y-45270057D01*
X139152142Y-45270057D02*
X139199761Y-45365295D01*
X139199761Y-45365295D02*
X139199761Y-45508152D01*
X139199761Y-45508152D02*
X139152142Y-45603390D01*
X139152142Y-45603390D02*
X139104523Y-45651009D01*
X139104523Y-45651009D02*
X139009285Y-45698628D01*
X139009285Y-45698628D02*
X138628333Y-45698628D01*
X139580714Y-46127200D02*
X139723571Y-46174819D01*
X139723571Y-46174819D02*
X139961666Y-46174819D01*
X139961666Y-46174819D02*
X140056904Y-46127200D01*
X140056904Y-46127200D02*
X140104523Y-46079580D01*
X140104523Y-46079580D02*
X140152142Y-45984342D01*
X140152142Y-45984342D02*
X140152142Y-45889104D01*
X140152142Y-45889104D02*
X140104523Y-45793866D01*
X140104523Y-45793866D02*
X140056904Y-45746247D01*
X140056904Y-45746247D02*
X139961666Y-45698628D01*
X139961666Y-45698628D02*
X139771190Y-45651009D01*
X139771190Y-45651009D02*
X139675952Y-45603390D01*
X139675952Y-45603390D02*
X139628333Y-45555771D01*
X139628333Y-45555771D02*
X139580714Y-45460533D01*
X139580714Y-45460533D02*
X139580714Y-45365295D01*
X139580714Y-45365295D02*
X139628333Y-45270057D01*
X139628333Y-45270057D02*
X139675952Y-45222438D01*
X139675952Y-45222438D02*
X139771190Y-45174819D01*
X139771190Y-45174819D02*
X140009285Y-45174819D01*
X140009285Y-45174819D02*
X140152142Y-45222438D01*
X141174928Y-37222894D02*
X141984451Y-37222894D01*
X141984451Y-37222894D02*
X142079689Y-37175275D01*
X142079689Y-37175275D02*
X142127309Y-37127656D01*
X142127309Y-37127656D02*
X142174928Y-37032418D01*
X142174928Y-37032418D02*
X142174928Y-36841942D01*
X142174928Y-36841942D02*
X142127309Y-36746704D01*
X142127309Y-36746704D02*
X142079689Y-36699085D01*
X142079689Y-36699085D02*
X141984451Y-36651466D01*
X141984451Y-36651466D02*
X141174928Y-36651466D01*
X141174928Y-36270513D02*
X141174928Y-35651466D01*
X141174928Y-35651466D02*
X141555880Y-35984799D01*
X141555880Y-35984799D02*
X141555880Y-35841942D01*
X141555880Y-35841942D02*
X141603499Y-35746704D01*
X141603499Y-35746704D02*
X141651118Y-35699085D01*
X141651118Y-35699085D02*
X141746356Y-35651466D01*
X141746356Y-35651466D02*
X141984451Y-35651466D01*
X141984451Y-35651466D02*
X142079689Y-35699085D01*
X142079689Y-35699085D02*
X142127309Y-35746704D01*
X142127309Y-35746704D02*
X142174928Y-35841942D01*
X142174928Y-35841942D02*
X142174928Y-36127656D01*
X142174928Y-36127656D02*
X142127309Y-36222894D01*
X142127309Y-36222894D02*
X142079689Y-36270513D01*
X124405712Y-63859580D02*
X124358093Y-63907200D01*
X124358093Y-63907200D02*
X124215236Y-63954819D01*
X124215236Y-63954819D02*
X124119998Y-63954819D01*
X124119998Y-63954819D02*
X123977141Y-63907200D01*
X123977141Y-63907200D02*
X123881903Y-63811961D01*
X123881903Y-63811961D02*
X123834284Y-63716723D01*
X123834284Y-63716723D02*
X123786665Y-63526247D01*
X123786665Y-63526247D02*
X123786665Y-63383390D01*
X123786665Y-63383390D02*
X123834284Y-63192914D01*
X123834284Y-63192914D02*
X123881903Y-63097676D01*
X123881903Y-63097676D02*
X123977141Y-63002438D01*
X123977141Y-63002438D02*
X124119998Y-62954819D01*
X124119998Y-62954819D02*
X124215236Y-62954819D01*
X124215236Y-62954819D02*
X124358093Y-63002438D01*
X124358093Y-63002438D02*
X124405712Y-63050057D01*
X124977141Y-63954819D02*
X124881903Y-63907200D01*
X124881903Y-63907200D02*
X124834284Y-63859580D01*
X124834284Y-63859580D02*
X124786665Y-63764342D01*
X124786665Y-63764342D02*
X124786665Y-63478628D01*
X124786665Y-63478628D02*
X124834284Y-63383390D01*
X124834284Y-63383390D02*
X124881903Y-63335771D01*
X124881903Y-63335771D02*
X124977141Y-63288152D01*
X124977141Y-63288152D02*
X125119998Y-63288152D01*
X125119998Y-63288152D02*
X125215236Y-63335771D01*
X125215236Y-63335771D02*
X125262855Y-63383390D01*
X125262855Y-63383390D02*
X125310474Y-63478628D01*
X125310474Y-63478628D02*
X125310474Y-63764342D01*
X125310474Y-63764342D02*
X125262855Y-63859580D01*
X125262855Y-63859580D02*
X125215236Y-63907200D01*
X125215236Y-63907200D02*
X125119998Y-63954819D01*
X125119998Y-63954819D02*
X124977141Y-63954819D01*
X125739046Y-63288152D02*
X125739046Y-63954819D01*
X125739046Y-63383390D02*
X125786665Y-63335771D01*
X125786665Y-63335771D02*
X125881903Y-63288152D01*
X125881903Y-63288152D02*
X126024760Y-63288152D01*
X126024760Y-63288152D02*
X126119998Y-63335771D01*
X126119998Y-63335771D02*
X126167617Y-63431009D01*
X126167617Y-63431009D02*
X126167617Y-63954819D01*
X126643808Y-63288152D02*
X126643808Y-63954819D01*
X126643808Y-63383390D02*
X126691427Y-63335771D01*
X126691427Y-63335771D02*
X126786665Y-63288152D01*
X126786665Y-63288152D02*
X126929522Y-63288152D01*
X126929522Y-63288152D02*
X127024760Y-63335771D01*
X127024760Y-63335771D02*
X127072379Y-63431009D01*
X127072379Y-63431009D02*
X127072379Y-63954819D01*
X127310475Y-64050057D02*
X128072379Y-64050057D01*
X128500951Y-62954819D02*
X128596189Y-62954819D01*
X128596189Y-62954819D02*
X128691427Y-63002438D01*
X128691427Y-63002438D02*
X128739046Y-63050057D01*
X128739046Y-63050057D02*
X128786665Y-63145295D01*
X128786665Y-63145295D02*
X128834284Y-63335771D01*
X128834284Y-63335771D02*
X128834284Y-63573866D01*
X128834284Y-63573866D02*
X128786665Y-63764342D01*
X128786665Y-63764342D02*
X128739046Y-63859580D01*
X128739046Y-63859580D02*
X128691427Y-63907200D01*
X128691427Y-63907200D02*
X128596189Y-63954819D01*
X128596189Y-63954819D02*
X128500951Y-63954819D01*
X128500951Y-63954819D02*
X128405713Y-63907200D01*
X128405713Y-63907200D02*
X128358094Y-63859580D01*
X128358094Y-63859580D02*
X128310475Y-63764342D01*
X128310475Y-63764342D02*
X128262856Y-63573866D01*
X128262856Y-63573866D02*
X128262856Y-63335771D01*
X128262856Y-63335771D02*
X128310475Y-63145295D01*
X128310475Y-63145295D02*
X128358094Y-63050057D01*
X128358094Y-63050057D02*
X128405713Y-63002438D01*
X128405713Y-63002438D02*
X128500951Y-62954819D01*
X129786665Y-63954819D02*
X129215237Y-63954819D01*
X129500951Y-63954819D02*
X129500951Y-62954819D01*
X129500951Y-62954819D02*
X129405713Y-63097676D01*
X129405713Y-63097676D02*
X129310475Y-63192914D01*
X129310475Y-63192914D02*
X129215237Y-63240533D01*
X130119999Y-63954819D02*
X130643808Y-63288152D01*
X130119999Y-63288152D02*
X130643808Y-63954819D01*
X131215237Y-62954819D02*
X131310475Y-62954819D01*
X131310475Y-62954819D02*
X131405713Y-63002438D01*
X131405713Y-63002438D02*
X131453332Y-63050057D01*
X131453332Y-63050057D02*
X131500951Y-63145295D01*
X131500951Y-63145295D02*
X131548570Y-63335771D01*
X131548570Y-63335771D02*
X131548570Y-63573866D01*
X131548570Y-63573866D02*
X131500951Y-63764342D01*
X131500951Y-63764342D02*
X131453332Y-63859580D01*
X131453332Y-63859580D02*
X131405713Y-63907200D01*
X131405713Y-63907200D02*
X131310475Y-63954819D01*
X131310475Y-63954819D02*
X131215237Y-63954819D01*
X131215237Y-63954819D02*
X131119999Y-63907200D01*
X131119999Y-63907200D02*
X131072380Y-63859580D01*
X131072380Y-63859580D02*
X131024761Y-63764342D01*
X131024761Y-63764342D02*
X130977142Y-63573866D01*
X130977142Y-63573866D02*
X130977142Y-63335771D01*
X130977142Y-63335771D02*
X131024761Y-63145295D01*
X131024761Y-63145295D02*
X131072380Y-63050057D01*
X131072380Y-63050057D02*
X131119999Y-63002438D01*
X131119999Y-63002438D02*
X131215237Y-62954819D01*
X131929523Y-63050057D02*
X131977142Y-63002438D01*
X131977142Y-63002438D02*
X132072380Y-62954819D01*
X132072380Y-62954819D02*
X132310475Y-62954819D01*
X132310475Y-62954819D02*
X132405713Y-63002438D01*
X132405713Y-63002438D02*
X132453332Y-63050057D01*
X132453332Y-63050057D02*
X132500951Y-63145295D01*
X132500951Y-63145295D02*
X132500951Y-63240533D01*
X132500951Y-63240533D02*
X132453332Y-63383390D01*
X132453332Y-63383390D02*
X131881904Y-63954819D01*
X131881904Y-63954819D02*
X132500951Y-63954819D01*
X132691428Y-64050057D02*
X133453332Y-64050057D01*
X133691428Y-63954819D02*
X133691428Y-62954819D01*
X133691428Y-62954819D02*
X134024761Y-63669104D01*
X134024761Y-63669104D02*
X134358094Y-62954819D01*
X134358094Y-62954819D02*
X134358094Y-63954819D01*
X135262856Y-63954819D02*
X135262856Y-63431009D01*
X135262856Y-63431009D02*
X135215237Y-63335771D01*
X135215237Y-63335771D02*
X135119999Y-63288152D01*
X135119999Y-63288152D02*
X134929523Y-63288152D01*
X134929523Y-63288152D02*
X134834285Y-63335771D01*
X135262856Y-63907200D02*
X135167618Y-63954819D01*
X135167618Y-63954819D02*
X134929523Y-63954819D01*
X134929523Y-63954819D02*
X134834285Y-63907200D01*
X134834285Y-63907200D02*
X134786666Y-63811961D01*
X134786666Y-63811961D02*
X134786666Y-63716723D01*
X134786666Y-63716723D02*
X134834285Y-63621485D01*
X134834285Y-63621485D02*
X134929523Y-63573866D01*
X134929523Y-63573866D02*
X135167618Y-63573866D01*
X135167618Y-63573866D02*
X135262856Y-63526247D01*
X135881904Y-63954819D02*
X135786666Y-63907200D01*
X135786666Y-63907200D02*
X135739047Y-63811961D01*
X135739047Y-63811961D02*
X135739047Y-62954819D01*
X136643809Y-63907200D02*
X136548571Y-63954819D01*
X136548571Y-63954819D02*
X136358095Y-63954819D01*
X136358095Y-63954819D02*
X136262857Y-63907200D01*
X136262857Y-63907200D02*
X136215238Y-63811961D01*
X136215238Y-63811961D02*
X136215238Y-63431009D01*
X136215238Y-63431009D02*
X136262857Y-63335771D01*
X136262857Y-63335771D02*
X136358095Y-63288152D01*
X136358095Y-63288152D02*
X136548571Y-63288152D01*
X136548571Y-63288152D02*
X136643809Y-63335771D01*
X136643809Y-63335771D02*
X136691428Y-63431009D01*
X136691428Y-63431009D02*
X136691428Y-63526247D01*
X136691428Y-63526247D02*
X136215238Y-63621485D01*
X137120000Y-63573866D02*
X137881905Y-63573866D01*
X138929523Y-63859580D02*
X138881904Y-63907200D01*
X138881904Y-63907200D02*
X138739047Y-63954819D01*
X138739047Y-63954819D02*
X138643809Y-63954819D01*
X138643809Y-63954819D02*
X138500952Y-63907200D01*
X138500952Y-63907200D02*
X138405714Y-63811961D01*
X138405714Y-63811961D02*
X138358095Y-63716723D01*
X138358095Y-63716723D02*
X138310476Y-63526247D01*
X138310476Y-63526247D02*
X138310476Y-63383390D01*
X138310476Y-63383390D02*
X138358095Y-63192914D01*
X138358095Y-63192914D02*
X138405714Y-63097676D01*
X138405714Y-63097676D02*
X138500952Y-63002438D01*
X138500952Y-63002438D02*
X138643809Y-62954819D01*
X138643809Y-62954819D02*
X138739047Y-62954819D01*
X138739047Y-62954819D02*
X138881904Y-63002438D01*
X138881904Y-63002438D02*
X138929523Y-63050057D01*
X139500952Y-63954819D02*
X139405714Y-63907200D01*
X139405714Y-63907200D02*
X139358095Y-63859580D01*
X139358095Y-63859580D02*
X139310476Y-63764342D01*
X139310476Y-63764342D02*
X139310476Y-63478628D01*
X139310476Y-63478628D02*
X139358095Y-63383390D01*
X139358095Y-63383390D02*
X139405714Y-63335771D01*
X139405714Y-63335771D02*
X139500952Y-63288152D01*
X139500952Y-63288152D02*
X139643809Y-63288152D01*
X139643809Y-63288152D02*
X139739047Y-63335771D01*
X139739047Y-63335771D02*
X139786666Y-63383390D01*
X139786666Y-63383390D02*
X139834285Y-63478628D01*
X139834285Y-63478628D02*
X139834285Y-63764342D01*
X139834285Y-63764342D02*
X139786666Y-63859580D01*
X139786666Y-63859580D02*
X139739047Y-63907200D01*
X139739047Y-63907200D02*
X139643809Y-63954819D01*
X139643809Y-63954819D02*
X139500952Y-63954819D01*
X140262857Y-63288152D02*
X140262857Y-63954819D01*
X140262857Y-63383390D02*
X140310476Y-63335771D01*
X140310476Y-63335771D02*
X140405714Y-63288152D01*
X140405714Y-63288152D02*
X140548571Y-63288152D01*
X140548571Y-63288152D02*
X140643809Y-63335771D01*
X140643809Y-63335771D02*
X140691428Y-63431009D01*
X140691428Y-63431009D02*
X140691428Y-63954819D01*
X141167619Y-63288152D02*
X141167619Y-63954819D01*
X141167619Y-63383390D02*
X141215238Y-63335771D01*
X141215238Y-63335771D02*
X141310476Y-63288152D01*
X141310476Y-63288152D02*
X141453333Y-63288152D01*
X141453333Y-63288152D02*
X141548571Y-63335771D01*
X141548571Y-63335771D02*
X141596190Y-63431009D01*
X141596190Y-63431009D02*
X141596190Y-63954819D01*
X142453333Y-63907200D02*
X142358095Y-63954819D01*
X142358095Y-63954819D02*
X142167619Y-63954819D01*
X142167619Y-63954819D02*
X142072381Y-63907200D01*
X142072381Y-63907200D02*
X142024762Y-63811961D01*
X142024762Y-63811961D02*
X142024762Y-63431009D01*
X142024762Y-63431009D02*
X142072381Y-63335771D01*
X142072381Y-63335771D02*
X142167619Y-63288152D01*
X142167619Y-63288152D02*
X142358095Y-63288152D01*
X142358095Y-63288152D02*
X142453333Y-63335771D01*
X142453333Y-63335771D02*
X142500952Y-63431009D01*
X142500952Y-63431009D02*
X142500952Y-63526247D01*
X142500952Y-63526247D02*
X142024762Y-63621485D01*
X143358095Y-63907200D02*
X143262857Y-63954819D01*
X143262857Y-63954819D02*
X143072381Y-63954819D01*
X143072381Y-63954819D02*
X142977143Y-63907200D01*
X142977143Y-63907200D02*
X142929524Y-63859580D01*
X142929524Y-63859580D02*
X142881905Y-63764342D01*
X142881905Y-63764342D02*
X142881905Y-63478628D01*
X142881905Y-63478628D02*
X142929524Y-63383390D01*
X142929524Y-63383390D02*
X142977143Y-63335771D01*
X142977143Y-63335771D02*
X143072381Y-63288152D01*
X143072381Y-63288152D02*
X143262857Y-63288152D01*
X143262857Y-63288152D02*
X143358095Y-63335771D01*
X143643810Y-63288152D02*
X144024762Y-63288152D01*
X143786667Y-62954819D02*
X143786667Y-63811961D01*
X143786667Y-63811961D02*
X143834286Y-63907200D01*
X143834286Y-63907200D02*
X143929524Y-63954819D01*
X143929524Y-63954819D02*
X144024762Y-63954819D01*
X144500953Y-63954819D02*
X144405715Y-63907200D01*
X144405715Y-63907200D02*
X144358096Y-63859580D01*
X144358096Y-63859580D02*
X144310477Y-63764342D01*
X144310477Y-63764342D02*
X144310477Y-63478628D01*
X144310477Y-63478628D02*
X144358096Y-63383390D01*
X144358096Y-63383390D02*
X144405715Y-63335771D01*
X144405715Y-63335771D02*
X144500953Y-63288152D01*
X144500953Y-63288152D02*
X144643810Y-63288152D01*
X144643810Y-63288152D02*
X144739048Y-63335771D01*
X144739048Y-63335771D02*
X144786667Y-63383390D01*
X144786667Y-63383390D02*
X144834286Y-63478628D01*
X144834286Y-63478628D02*
X144834286Y-63764342D01*
X144834286Y-63764342D02*
X144786667Y-63859580D01*
X144786667Y-63859580D02*
X144739048Y-63907200D01*
X144739048Y-63907200D02*
X144643810Y-63954819D01*
X144643810Y-63954819D02*
X144500953Y-63954819D01*
X145262858Y-63954819D02*
X145262858Y-63288152D01*
X145262858Y-63478628D02*
X145310477Y-63383390D01*
X145310477Y-63383390D02*
X145358096Y-63335771D01*
X145358096Y-63335771D02*
X145453334Y-63288152D01*
X145453334Y-63288152D02*
X145548572Y-63288152D01*
X68210979Y-73169411D02*
X68210979Y-74169411D01*
X67163361Y-73264650D02*
X67210980Y-73217031D01*
X67210980Y-73217031D02*
X67353837Y-73169411D01*
X67353837Y-73169411D02*
X67449075Y-73169411D01*
X67449075Y-73169411D02*
X67591932Y-73217031D01*
X67591932Y-73217031D02*
X67687170Y-73312269D01*
X67687170Y-73312269D02*
X67734789Y-73407507D01*
X67734789Y-73407507D02*
X67782408Y-73597983D01*
X67782408Y-73597983D02*
X67782408Y-73740840D01*
X67782408Y-73740840D02*
X67734789Y-73931316D01*
X67734789Y-73931316D02*
X67687170Y-74026554D01*
X67687170Y-74026554D02*
X67591932Y-74121792D01*
X67591932Y-74121792D02*
X67449075Y-74169411D01*
X67449075Y-74169411D02*
X67353837Y-74169411D01*
X67353837Y-74169411D02*
X67210980Y-74121792D01*
X67210980Y-74121792D02*
X67163361Y-74074173D01*
X66734789Y-73169411D02*
X66734789Y-74169411D01*
X66734789Y-74169411D02*
X66401456Y-73455126D01*
X66401456Y-73455126D02*
X66068123Y-74169411D01*
X66068123Y-74169411D02*
X66068123Y-73169411D01*
X65591932Y-73550364D02*
X64830028Y-73550364D01*
X64401456Y-74074173D02*
X64353837Y-74121792D01*
X64353837Y-74121792D02*
X64258599Y-74169411D01*
X64258599Y-74169411D02*
X64020504Y-74169411D01*
X64020504Y-74169411D02*
X63925266Y-74121792D01*
X63925266Y-74121792D02*
X63877647Y-74074173D01*
X63877647Y-74074173D02*
X63830028Y-73978935D01*
X63830028Y-73978935D02*
X63830028Y-73883697D01*
X63830028Y-73883697D02*
X63877647Y-73740840D01*
X63877647Y-73740840D02*
X64449075Y-73169411D01*
X64449075Y-73169411D02*
X63830028Y-73169411D01*
X63210980Y-74169411D02*
X63115742Y-74169411D01*
X63115742Y-74169411D02*
X63020504Y-74121792D01*
X63020504Y-74121792D02*
X62972885Y-74074173D01*
X62972885Y-74074173D02*
X62925266Y-73978935D01*
X62925266Y-73978935D02*
X62877647Y-73788459D01*
X62877647Y-73788459D02*
X62877647Y-73550364D01*
X62877647Y-73550364D02*
X62925266Y-73359888D01*
X62925266Y-73359888D02*
X62972885Y-73264650D01*
X62972885Y-73264650D02*
X63020504Y-73217031D01*
X63020504Y-73217031D02*
X63115742Y-73169411D01*
X63115742Y-73169411D02*
X63210980Y-73169411D01*
X63210980Y-73169411D02*
X63306218Y-73217031D01*
X63306218Y-73217031D02*
X63353837Y-73264650D01*
X63353837Y-73264650D02*
X63401456Y-73359888D01*
X63401456Y-73359888D02*
X63449075Y-73550364D01*
X63449075Y-73550364D02*
X63449075Y-73788459D01*
X63449075Y-73788459D02*
X63401456Y-73978935D01*
X63401456Y-73978935D02*
X63353837Y-74074173D01*
X63353837Y-74074173D02*
X63306218Y-74121792D01*
X63306218Y-74121792D02*
X63210980Y-74169411D01*
X62401456Y-73169411D02*
X62210980Y-73169411D01*
X62210980Y-73169411D02*
X62115742Y-73217031D01*
X62115742Y-73217031D02*
X62068123Y-73264650D01*
X62068123Y-73264650D02*
X61972885Y-73407507D01*
X61972885Y-73407507D02*
X61925266Y-73597983D01*
X61925266Y-73597983D02*
X61925266Y-73978935D01*
X61925266Y-73978935D02*
X61972885Y-74074173D01*
X61972885Y-74074173D02*
X62020504Y-74121792D01*
X62020504Y-74121792D02*
X62115742Y-74169411D01*
X62115742Y-74169411D02*
X62306218Y-74169411D01*
X62306218Y-74169411D02*
X62401456Y-74121792D01*
X62401456Y-74121792D02*
X62449075Y-74074173D01*
X62449075Y-74074173D02*
X62496694Y-73978935D01*
X62496694Y-73978935D02*
X62496694Y-73740840D01*
X62496694Y-73740840D02*
X62449075Y-73645602D01*
X62449075Y-73645602D02*
X62401456Y-73597983D01*
X62401456Y-73597983D02*
X62306218Y-73550364D01*
X62306218Y-73550364D02*
X62115742Y-73550364D01*
X62115742Y-73550364D02*
X62020504Y-73597983D01*
X62020504Y-73597983D02*
X61972885Y-73645602D01*
X61972885Y-73645602D02*
X61925266Y-73740840D01*
X61068123Y-73836078D02*
X61068123Y-73169411D01*
X61306218Y-74217031D02*
X61544313Y-73502745D01*
X61544313Y-73502745D02*
X60925266Y-73502745D01*
X60401456Y-73740840D02*
X60496694Y-73788459D01*
X60496694Y-73788459D02*
X60544313Y-73836078D01*
X60544313Y-73836078D02*
X60591932Y-73931316D01*
X60591932Y-73931316D02*
X60591932Y-73978935D01*
X60591932Y-73978935D02*
X60544313Y-74074173D01*
X60544313Y-74074173D02*
X60496694Y-74121792D01*
X60496694Y-74121792D02*
X60401456Y-74169411D01*
X60401456Y-74169411D02*
X60210980Y-74169411D01*
X60210980Y-74169411D02*
X60115742Y-74121792D01*
X60115742Y-74121792D02*
X60068123Y-74074173D01*
X60068123Y-74074173D02*
X60020504Y-73978935D01*
X60020504Y-73978935D02*
X60020504Y-73931316D01*
X60020504Y-73931316D02*
X60068123Y-73836078D01*
X60068123Y-73836078D02*
X60115742Y-73788459D01*
X60115742Y-73788459D02*
X60210980Y-73740840D01*
X60210980Y-73740840D02*
X60401456Y-73740840D01*
X60401456Y-73740840D02*
X60496694Y-73693221D01*
X60496694Y-73693221D02*
X60544313Y-73645602D01*
X60544313Y-73645602D02*
X60591932Y-73550364D01*
X60591932Y-73550364D02*
X60591932Y-73359888D01*
X60591932Y-73359888D02*
X60544313Y-73264650D01*
X60544313Y-73264650D02*
X60496694Y-73217031D01*
X60496694Y-73217031D02*
X60401456Y-73169411D01*
X60401456Y-73169411D02*
X60210980Y-73169411D01*
X60210980Y-73169411D02*
X60115742Y-73217031D01*
X60115742Y-73217031D02*
X60068123Y-73264650D01*
X60068123Y-73264650D02*
X60020504Y-73359888D01*
X60020504Y-73359888D02*
X60020504Y-73550364D01*
X60020504Y-73550364D02*
X60068123Y-73645602D01*
X60068123Y-73645602D02*
X60115742Y-73693221D01*
X60115742Y-73693221D02*
X60210980Y-73740840D01*
X76453418Y-70846135D02*
X77262941Y-70846135D01*
X77262941Y-70846135D02*
X77358179Y-70798516D01*
X77358179Y-70798516D02*
X77405799Y-70750897D01*
X77405799Y-70750897D02*
X77453418Y-70655659D01*
X77453418Y-70655659D02*
X77453418Y-70465183D01*
X77453418Y-70465183D02*
X77405799Y-70369945D01*
X77405799Y-70369945D02*
X77358179Y-70322326D01*
X77358179Y-70322326D02*
X77262941Y-70274707D01*
X77262941Y-70274707D02*
X76453418Y-70274707D01*
X76786751Y-69369945D02*
X77453418Y-69369945D01*
X76405799Y-69608040D02*
X77120084Y-69846135D01*
X77120084Y-69846135D02*
X77120084Y-69227088D01*
X68293418Y-69156846D02*
X69102941Y-69156846D01*
X69102941Y-69156846D02*
X69198179Y-69109227D01*
X69198179Y-69109227D02*
X69245799Y-69061608D01*
X69245799Y-69061608D02*
X69293418Y-68966370D01*
X69293418Y-68966370D02*
X69293418Y-68775894D01*
X69293418Y-68775894D02*
X69245799Y-68680656D01*
X69245799Y-68680656D02*
X69198179Y-68633037D01*
X69198179Y-68633037D02*
X69102941Y-68585418D01*
X69102941Y-68585418D02*
X68293418Y-68585418D01*
X68626751Y-67680656D02*
X69293418Y-67680656D01*
X68245799Y-67918751D02*
X68960084Y-68156846D01*
X68960084Y-68156846D02*
X68960084Y-67537799D01*
X77553418Y-70846135D02*
X78362941Y-70846135D01*
X78362941Y-70846135D02*
X78458179Y-70798516D01*
X78458179Y-70798516D02*
X78505799Y-70750897D01*
X78505799Y-70750897D02*
X78553418Y-70655659D01*
X78553418Y-70655659D02*
X78553418Y-70465183D01*
X78553418Y-70465183D02*
X78505799Y-70369945D01*
X78505799Y-70369945D02*
X78458179Y-70322326D01*
X78458179Y-70322326D02*
X78362941Y-70274707D01*
X78362941Y-70274707D02*
X77553418Y-70274707D01*
X77886751Y-69369945D02*
X78553418Y-69369945D01*
X77505799Y-69608040D02*
X78220084Y-69846135D01*
X78220084Y-69846135D02*
X78220084Y-69227088D01*
X147145714Y-61244819D02*
X146812381Y-60768628D01*
X146574286Y-61244819D02*
X146574286Y-60244819D01*
X146574286Y-60244819D02*
X146955238Y-60244819D01*
X146955238Y-60244819D02*
X147050476Y-60292438D01*
X147050476Y-60292438D02*
X147098095Y-60340057D01*
X147098095Y-60340057D02*
X147145714Y-60435295D01*
X147145714Y-60435295D02*
X147145714Y-60578152D01*
X147145714Y-60578152D02*
X147098095Y-60673390D01*
X147098095Y-60673390D02*
X147050476Y-60721009D01*
X147050476Y-60721009D02*
X146955238Y-60768628D01*
X146955238Y-60768628D02*
X146574286Y-60768628D01*
X147574286Y-60863866D02*
X148336191Y-60863866D01*
X148812381Y-61244819D02*
X148812381Y-60244819D01*
X148812381Y-60244819D02*
X149050476Y-60244819D01*
X149050476Y-60244819D02*
X149193333Y-60292438D01*
X149193333Y-60292438D02*
X149288571Y-60387676D01*
X149288571Y-60387676D02*
X149336190Y-60482914D01*
X149336190Y-60482914D02*
X149383809Y-60673390D01*
X149383809Y-60673390D02*
X149383809Y-60816247D01*
X149383809Y-60816247D02*
X149336190Y-61006723D01*
X149336190Y-61006723D02*
X149288571Y-61101961D01*
X149288571Y-61101961D02*
X149193333Y-61197200D01*
X149193333Y-61197200D02*
X149050476Y-61244819D01*
X149050476Y-61244819D02*
X148812381Y-61244819D01*
X150193333Y-61197200D02*
X150098095Y-61244819D01*
X150098095Y-61244819D02*
X149907619Y-61244819D01*
X149907619Y-61244819D02*
X149812381Y-61197200D01*
X149812381Y-61197200D02*
X149764762Y-61101961D01*
X149764762Y-61101961D02*
X149764762Y-60721009D01*
X149764762Y-60721009D02*
X149812381Y-60625771D01*
X149812381Y-60625771D02*
X149907619Y-60578152D01*
X149907619Y-60578152D02*
X150098095Y-60578152D01*
X150098095Y-60578152D02*
X150193333Y-60625771D01*
X150193333Y-60625771D02*
X150240952Y-60721009D01*
X150240952Y-60721009D02*
X150240952Y-60816247D01*
X150240952Y-60816247D02*
X149764762Y-60911485D01*
X150574286Y-60578152D02*
X150812381Y-61244819D01*
X150812381Y-61244819D02*
X151050476Y-60578152D01*
X151431429Y-61244819D02*
X151431429Y-60578152D01*
X151431429Y-60244819D02*
X151383810Y-60292438D01*
X151383810Y-60292438D02*
X151431429Y-60340057D01*
X151431429Y-60340057D02*
X151479048Y-60292438D01*
X151479048Y-60292438D02*
X151431429Y-60244819D01*
X151431429Y-60244819D02*
X151431429Y-60340057D01*
X152336190Y-61197200D02*
X152240952Y-61244819D01*
X152240952Y-61244819D02*
X152050476Y-61244819D01*
X152050476Y-61244819D02*
X151955238Y-61197200D01*
X151955238Y-61197200D02*
X151907619Y-61149580D01*
X151907619Y-61149580D02*
X151860000Y-61054342D01*
X151860000Y-61054342D02*
X151860000Y-60768628D01*
X151860000Y-60768628D02*
X151907619Y-60673390D01*
X151907619Y-60673390D02*
X151955238Y-60625771D01*
X151955238Y-60625771D02*
X152050476Y-60578152D01*
X152050476Y-60578152D02*
X152240952Y-60578152D01*
X152240952Y-60578152D02*
X152336190Y-60625771D01*
X153145714Y-61197200D02*
X153050476Y-61244819D01*
X153050476Y-61244819D02*
X152860000Y-61244819D01*
X152860000Y-61244819D02*
X152764762Y-61197200D01*
X152764762Y-61197200D02*
X152717143Y-61101961D01*
X152717143Y-61101961D02*
X152717143Y-60721009D01*
X152717143Y-60721009D02*
X152764762Y-60625771D01*
X152764762Y-60625771D02*
X152860000Y-60578152D01*
X152860000Y-60578152D02*
X153050476Y-60578152D01*
X153050476Y-60578152D02*
X153145714Y-60625771D01*
X153145714Y-60625771D02*
X153193333Y-60721009D01*
X153193333Y-60721009D02*
X153193333Y-60816247D01*
X153193333Y-60816247D02*
X152717143Y-60911485D01*
X149693333Y-58874819D02*
X149360000Y-58398628D01*
X149121905Y-58874819D02*
X149121905Y-57874819D01*
X149121905Y-57874819D02*
X149502857Y-57874819D01*
X149502857Y-57874819D02*
X149598095Y-57922438D01*
X149598095Y-57922438D02*
X149645714Y-57970057D01*
X149645714Y-57970057D02*
X149693333Y-58065295D01*
X149693333Y-58065295D02*
X149693333Y-58208152D01*
X149693333Y-58208152D02*
X149645714Y-58303390D01*
X149645714Y-58303390D02*
X149598095Y-58351009D01*
X149598095Y-58351009D02*
X149502857Y-58398628D01*
X149502857Y-58398628D02*
X149121905Y-58398628D01*
X150074286Y-57970057D02*
X150121905Y-57922438D01*
X150121905Y-57922438D02*
X150217143Y-57874819D01*
X150217143Y-57874819D02*
X150455238Y-57874819D01*
X150455238Y-57874819D02*
X150550476Y-57922438D01*
X150550476Y-57922438D02*
X150598095Y-57970057D01*
X150598095Y-57970057D02*
X150645714Y-58065295D01*
X150645714Y-58065295D02*
X150645714Y-58160533D01*
X150645714Y-58160533D02*
X150598095Y-58303390D01*
X150598095Y-58303390D02*
X150026667Y-58874819D01*
X150026667Y-58874819D02*
X150645714Y-58874819D01*
X112430335Y-39440041D02*
X111954144Y-39773374D01*
X112430335Y-40011469D02*
X111430335Y-40011469D01*
X111430335Y-40011469D02*
X111430335Y-39630517D01*
X111430335Y-39630517D02*
X111477954Y-39535279D01*
X111477954Y-39535279D02*
X111525573Y-39487660D01*
X111525573Y-39487660D02*
X111620811Y-39440041D01*
X111620811Y-39440041D02*
X111763668Y-39440041D01*
X111763668Y-39440041D02*
X111858906Y-39487660D01*
X111858906Y-39487660D02*
X111906525Y-39535279D01*
X111906525Y-39535279D02*
X111954144Y-39630517D01*
X111954144Y-39630517D02*
X111954144Y-40011469D01*
X111906525Y-38678136D02*
X111906525Y-39011469D01*
X112430335Y-39011469D02*
X111430335Y-39011469D01*
X111430335Y-39011469D02*
X111430335Y-38535279D01*
X112430335Y-38154326D02*
X111430335Y-38154326D01*
X111430335Y-38154326D02*
X111430335Y-37916231D01*
X111430335Y-37916231D02*
X111477954Y-37773374D01*
X111477954Y-37773374D02*
X111573192Y-37678136D01*
X111573192Y-37678136D02*
X111668430Y-37630517D01*
X111668430Y-37630517D02*
X111858906Y-37582898D01*
X111858906Y-37582898D02*
X112001763Y-37582898D01*
X112001763Y-37582898D02*
X112192239Y-37630517D01*
X112192239Y-37630517D02*
X112287477Y-37678136D01*
X112287477Y-37678136D02*
X112382716Y-37773374D01*
X112382716Y-37773374D02*
X112430335Y-37916231D01*
X112430335Y-37916231D02*
X112430335Y-38154326D01*
X112430335Y-37106707D02*
X112430335Y-36916231D01*
X112430335Y-36916231D02*
X112382716Y-36820993D01*
X112382716Y-36820993D02*
X112335096Y-36773374D01*
X112335096Y-36773374D02*
X112192239Y-36678136D01*
X112192239Y-36678136D02*
X112001763Y-36630517D01*
X112001763Y-36630517D02*
X111620811Y-36630517D01*
X111620811Y-36630517D02*
X111525573Y-36678136D01*
X111525573Y-36678136D02*
X111477954Y-36725755D01*
X111477954Y-36725755D02*
X111430335Y-36820993D01*
X111430335Y-36820993D02*
X111430335Y-37011469D01*
X111430335Y-37011469D02*
X111477954Y-37106707D01*
X111477954Y-37106707D02*
X111525573Y-37154326D01*
X111525573Y-37154326D02*
X111620811Y-37201945D01*
X111620811Y-37201945D02*
X111858906Y-37201945D01*
X111858906Y-37201945D02*
X111954144Y-37154326D01*
X111954144Y-37154326D02*
X112001763Y-37106707D01*
X112001763Y-37106707D02*
X112049382Y-37011469D01*
X112049382Y-37011469D02*
X112049382Y-36820993D01*
X112049382Y-36820993D02*
X112001763Y-36725755D01*
X112001763Y-36725755D02*
X111954144Y-36678136D01*
X111954144Y-36678136D02*
X111858906Y-36630517D01*
X111430335Y-36011469D02*
X111430335Y-35916231D01*
X111430335Y-35916231D02*
X111477954Y-35820993D01*
X111477954Y-35820993D02*
X111525573Y-35773374D01*
X111525573Y-35773374D02*
X111620811Y-35725755D01*
X111620811Y-35725755D02*
X111811287Y-35678136D01*
X111811287Y-35678136D02*
X112049382Y-35678136D01*
X112049382Y-35678136D02*
X112239858Y-35725755D01*
X112239858Y-35725755D02*
X112335096Y-35773374D01*
X112335096Y-35773374D02*
X112382716Y-35820993D01*
X112382716Y-35820993D02*
X112430335Y-35916231D01*
X112430335Y-35916231D02*
X112430335Y-36011469D01*
X112430335Y-36011469D02*
X112382716Y-36106707D01*
X112382716Y-36106707D02*
X112335096Y-36154326D01*
X112335096Y-36154326D02*
X112239858Y-36201945D01*
X112239858Y-36201945D02*
X112049382Y-36249564D01*
X112049382Y-36249564D02*
X111811287Y-36249564D01*
X111811287Y-36249564D02*
X111620811Y-36201945D01*
X111620811Y-36201945D02*
X111525573Y-36154326D01*
X111525573Y-36154326D02*
X111477954Y-36106707D01*
X111477954Y-36106707D02*
X111430335Y-36011469D01*
X111430335Y-35059088D02*
X111430335Y-34963850D01*
X111430335Y-34963850D02*
X111477954Y-34868612D01*
X111477954Y-34868612D02*
X111525573Y-34820993D01*
X111525573Y-34820993D02*
X111620811Y-34773374D01*
X111620811Y-34773374D02*
X111811287Y-34725755D01*
X111811287Y-34725755D02*
X112049382Y-34725755D01*
X112049382Y-34725755D02*
X112239858Y-34773374D01*
X112239858Y-34773374D02*
X112335096Y-34820993D01*
X112335096Y-34820993D02*
X112382716Y-34868612D01*
X112382716Y-34868612D02*
X112430335Y-34963850D01*
X112430335Y-34963850D02*
X112430335Y-35059088D01*
X112430335Y-35059088D02*
X112382716Y-35154326D01*
X112382716Y-35154326D02*
X112335096Y-35201945D01*
X112335096Y-35201945D02*
X112239858Y-35249564D01*
X112239858Y-35249564D02*
X112049382Y-35297183D01*
X112049382Y-35297183D02*
X111811287Y-35297183D01*
X111811287Y-35297183D02*
X111620811Y-35249564D01*
X111620811Y-35249564D02*
X111525573Y-35201945D01*
X111525573Y-35201945D02*
X111477954Y-35154326D01*
X111477954Y-35154326D02*
X111430335Y-35059088D01*
X112049382Y-34297183D02*
X112049382Y-33535279D01*
X112430335Y-33916231D02*
X111668430Y-33916231D01*
X68178611Y-28063194D02*
X68178611Y-28872717D01*
X68178611Y-28872717D02*
X68226230Y-28967955D01*
X68226230Y-28967955D02*
X68273849Y-29015575D01*
X68273849Y-29015575D02*
X68369087Y-29063194D01*
X68369087Y-29063194D02*
X68559563Y-29063194D01*
X68559563Y-29063194D02*
X68654801Y-29015575D01*
X68654801Y-29015575D02*
X68702420Y-28967955D01*
X68702420Y-28967955D02*
X68750039Y-28872717D01*
X68750039Y-28872717D02*
X68750039Y-28063194D01*
X69750039Y-29063194D02*
X69178611Y-29063194D01*
X69464325Y-29063194D02*
X69464325Y-28063194D01*
X69464325Y-28063194D02*
X69369087Y-28206051D01*
X69369087Y-28206051D02*
X69273849Y-28301289D01*
X69273849Y-28301289D02*
X69178611Y-28348908D01*
X147145714Y-81564819D02*
X146812381Y-81088628D01*
X146574286Y-81564819D02*
X146574286Y-80564819D01*
X146574286Y-80564819D02*
X146955238Y-80564819D01*
X146955238Y-80564819D02*
X147050476Y-80612438D01*
X147050476Y-80612438D02*
X147098095Y-80660057D01*
X147098095Y-80660057D02*
X147145714Y-80755295D01*
X147145714Y-80755295D02*
X147145714Y-80898152D01*
X147145714Y-80898152D02*
X147098095Y-80993390D01*
X147098095Y-80993390D02*
X147050476Y-81041009D01*
X147050476Y-81041009D02*
X146955238Y-81088628D01*
X146955238Y-81088628D02*
X146574286Y-81088628D01*
X147574286Y-81183866D02*
X148336191Y-81183866D01*
X148812381Y-81564819D02*
X148812381Y-80564819D01*
X148812381Y-80564819D02*
X149050476Y-80564819D01*
X149050476Y-80564819D02*
X149193333Y-80612438D01*
X149193333Y-80612438D02*
X149288571Y-80707676D01*
X149288571Y-80707676D02*
X149336190Y-80802914D01*
X149336190Y-80802914D02*
X149383809Y-80993390D01*
X149383809Y-80993390D02*
X149383809Y-81136247D01*
X149383809Y-81136247D02*
X149336190Y-81326723D01*
X149336190Y-81326723D02*
X149288571Y-81421961D01*
X149288571Y-81421961D02*
X149193333Y-81517200D01*
X149193333Y-81517200D02*
X149050476Y-81564819D01*
X149050476Y-81564819D02*
X148812381Y-81564819D01*
X150193333Y-81517200D02*
X150098095Y-81564819D01*
X150098095Y-81564819D02*
X149907619Y-81564819D01*
X149907619Y-81564819D02*
X149812381Y-81517200D01*
X149812381Y-81517200D02*
X149764762Y-81421961D01*
X149764762Y-81421961D02*
X149764762Y-81041009D01*
X149764762Y-81041009D02*
X149812381Y-80945771D01*
X149812381Y-80945771D02*
X149907619Y-80898152D01*
X149907619Y-80898152D02*
X150098095Y-80898152D01*
X150098095Y-80898152D02*
X150193333Y-80945771D01*
X150193333Y-80945771D02*
X150240952Y-81041009D01*
X150240952Y-81041009D02*
X150240952Y-81136247D01*
X150240952Y-81136247D02*
X149764762Y-81231485D01*
X150574286Y-80898152D02*
X150812381Y-81564819D01*
X150812381Y-81564819D02*
X151050476Y-80898152D01*
X151431429Y-81564819D02*
X151431429Y-80898152D01*
X151431429Y-80564819D02*
X151383810Y-80612438D01*
X151383810Y-80612438D02*
X151431429Y-80660057D01*
X151431429Y-80660057D02*
X151479048Y-80612438D01*
X151479048Y-80612438D02*
X151431429Y-80564819D01*
X151431429Y-80564819D02*
X151431429Y-80660057D01*
X152336190Y-81517200D02*
X152240952Y-81564819D01*
X152240952Y-81564819D02*
X152050476Y-81564819D01*
X152050476Y-81564819D02*
X151955238Y-81517200D01*
X151955238Y-81517200D02*
X151907619Y-81469580D01*
X151907619Y-81469580D02*
X151860000Y-81374342D01*
X151860000Y-81374342D02*
X151860000Y-81088628D01*
X151860000Y-81088628D02*
X151907619Y-80993390D01*
X151907619Y-80993390D02*
X151955238Y-80945771D01*
X151955238Y-80945771D02*
X152050476Y-80898152D01*
X152050476Y-80898152D02*
X152240952Y-80898152D01*
X152240952Y-80898152D02*
X152336190Y-80945771D01*
X153145714Y-81517200D02*
X153050476Y-81564819D01*
X153050476Y-81564819D02*
X152860000Y-81564819D01*
X152860000Y-81564819D02*
X152764762Y-81517200D01*
X152764762Y-81517200D02*
X152717143Y-81421961D01*
X152717143Y-81421961D02*
X152717143Y-81041009D01*
X152717143Y-81041009D02*
X152764762Y-80945771D01*
X152764762Y-80945771D02*
X152860000Y-80898152D01*
X152860000Y-80898152D02*
X153050476Y-80898152D01*
X153050476Y-80898152D02*
X153145714Y-80945771D01*
X153145714Y-80945771D02*
X153193333Y-81041009D01*
X153193333Y-81041009D02*
X153193333Y-81136247D01*
X153193333Y-81136247D02*
X152717143Y-81231485D01*
X149693333Y-79194819D02*
X149360000Y-78718628D01*
X149121905Y-79194819D02*
X149121905Y-78194819D01*
X149121905Y-78194819D02*
X149502857Y-78194819D01*
X149502857Y-78194819D02*
X149598095Y-78242438D01*
X149598095Y-78242438D02*
X149645714Y-78290057D01*
X149645714Y-78290057D02*
X149693333Y-78385295D01*
X149693333Y-78385295D02*
X149693333Y-78528152D01*
X149693333Y-78528152D02*
X149645714Y-78623390D01*
X149645714Y-78623390D02*
X149598095Y-78671009D01*
X149598095Y-78671009D02*
X149502857Y-78718628D01*
X149502857Y-78718628D02*
X149121905Y-78718628D01*
X150026667Y-78194819D02*
X150645714Y-78194819D01*
X150645714Y-78194819D02*
X150312381Y-78575771D01*
X150312381Y-78575771D02*
X150455238Y-78575771D01*
X150455238Y-78575771D02*
X150550476Y-78623390D01*
X150550476Y-78623390D02*
X150598095Y-78671009D01*
X150598095Y-78671009D02*
X150645714Y-78766247D01*
X150645714Y-78766247D02*
X150645714Y-79004342D01*
X150645714Y-79004342D02*
X150598095Y-79099580D01*
X150598095Y-79099580D02*
X150550476Y-79147200D01*
X150550476Y-79147200D02*
X150455238Y-79194819D01*
X150455238Y-79194819D02*
X150169524Y-79194819D01*
X150169524Y-79194819D02*
X150074286Y-79147200D01*
X150074286Y-79147200D02*
X150026667Y-79099580D01*
X147145714Y-86814819D02*
X146812381Y-86338628D01*
X146574286Y-86814819D02*
X146574286Y-85814819D01*
X146574286Y-85814819D02*
X146955238Y-85814819D01*
X146955238Y-85814819D02*
X147050476Y-85862438D01*
X147050476Y-85862438D02*
X147098095Y-85910057D01*
X147098095Y-85910057D02*
X147145714Y-86005295D01*
X147145714Y-86005295D02*
X147145714Y-86148152D01*
X147145714Y-86148152D02*
X147098095Y-86243390D01*
X147098095Y-86243390D02*
X147050476Y-86291009D01*
X147050476Y-86291009D02*
X146955238Y-86338628D01*
X146955238Y-86338628D02*
X146574286Y-86338628D01*
X147574286Y-86433866D02*
X148336191Y-86433866D01*
X148812381Y-86814819D02*
X148812381Y-85814819D01*
X148812381Y-85814819D02*
X149050476Y-85814819D01*
X149050476Y-85814819D02*
X149193333Y-85862438D01*
X149193333Y-85862438D02*
X149288571Y-85957676D01*
X149288571Y-85957676D02*
X149336190Y-86052914D01*
X149336190Y-86052914D02*
X149383809Y-86243390D01*
X149383809Y-86243390D02*
X149383809Y-86386247D01*
X149383809Y-86386247D02*
X149336190Y-86576723D01*
X149336190Y-86576723D02*
X149288571Y-86671961D01*
X149288571Y-86671961D02*
X149193333Y-86767200D01*
X149193333Y-86767200D02*
X149050476Y-86814819D01*
X149050476Y-86814819D02*
X148812381Y-86814819D01*
X150193333Y-86767200D02*
X150098095Y-86814819D01*
X150098095Y-86814819D02*
X149907619Y-86814819D01*
X149907619Y-86814819D02*
X149812381Y-86767200D01*
X149812381Y-86767200D02*
X149764762Y-86671961D01*
X149764762Y-86671961D02*
X149764762Y-86291009D01*
X149764762Y-86291009D02*
X149812381Y-86195771D01*
X149812381Y-86195771D02*
X149907619Y-86148152D01*
X149907619Y-86148152D02*
X150098095Y-86148152D01*
X150098095Y-86148152D02*
X150193333Y-86195771D01*
X150193333Y-86195771D02*
X150240952Y-86291009D01*
X150240952Y-86291009D02*
X150240952Y-86386247D01*
X150240952Y-86386247D02*
X149764762Y-86481485D01*
X150574286Y-86148152D02*
X150812381Y-86814819D01*
X150812381Y-86814819D02*
X151050476Y-86148152D01*
X151431429Y-86814819D02*
X151431429Y-86148152D01*
X151431429Y-85814819D02*
X151383810Y-85862438D01*
X151383810Y-85862438D02*
X151431429Y-85910057D01*
X151431429Y-85910057D02*
X151479048Y-85862438D01*
X151479048Y-85862438D02*
X151431429Y-85814819D01*
X151431429Y-85814819D02*
X151431429Y-85910057D01*
X152336190Y-86767200D02*
X152240952Y-86814819D01*
X152240952Y-86814819D02*
X152050476Y-86814819D01*
X152050476Y-86814819D02*
X151955238Y-86767200D01*
X151955238Y-86767200D02*
X151907619Y-86719580D01*
X151907619Y-86719580D02*
X151860000Y-86624342D01*
X151860000Y-86624342D02*
X151860000Y-86338628D01*
X151860000Y-86338628D02*
X151907619Y-86243390D01*
X151907619Y-86243390D02*
X151955238Y-86195771D01*
X151955238Y-86195771D02*
X152050476Y-86148152D01*
X152050476Y-86148152D02*
X152240952Y-86148152D01*
X152240952Y-86148152D02*
X152336190Y-86195771D01*
X153145714Y-86767200D02*
X153050476Y-86814819D01*
X153050476Y-86814819D02*
X152860000Y-86814819D01*
X152860000Y-86814819D02*
X152764762Y-86767200D01*
X152764762Y-86767200D02*
X152717143Y-86671961D01*
X152717143Y-86671961D02*
X152717143Y-86291009D01*
X152717143Y-86291009D02*
X152764762Y-86195771D01*
X152764762Y-86195771D02*
X152860000Y-86148152D01*
X152860000Y-86148152D02*
X153050476Y-86148152D01*
X153050476Y-86148152D02*
X153145714Y-86195771D01*
X153145714Y-86195771D02*
X153193333Y-86291009D01*
X153193333Y-86291009D02*
X153193333Y-86386247D01*
X153193333Y-86386247D02*
X152717143Y-86481485D01*
X149693333Y-85524819D02*
X149360000Y-85048628D01*
X149121905Y-85524819D02*
X149121905Y-84524819D01*
X149121905Y-84524819D02*
X149502857Y-84524819D01*
X149502857Y-84524819D02*
X149598095Y-84572438D01*
X149598095Y-84572438D02*
X149645714Y-84620057D01*
X149645714Y-84620057D02*
X149693333Y-84715295D01*
X149693333Y-84715295D02*
X149693333Y-84858152D01*
X149693333Y-84858152D02*
X149645714Y-84953390D01*
X149645714Y-84953390D02*
X149598095Y-85001009D01*
X149598095Y-85001009D02*
X149502857Y-85048628D01*
X149502857Y-85048628D02*
X149121905Y-85048628D01*
X150550476Y-84858152D02*
X150550476Y-85524819D01*
X150312381Y-84477200D02*
X150074286Y-85191485D01*
X150074286Y-85191485D02*
X150693333Y-85191485D01*
X147406015Y-56164819D02*
X147072682Y-55688628D01*
X146834587Y-56164819D02*
X146834587Y-55164819D01*
X146834587Y-55164819D02*
X147215539Y-55164819D01*
X147215539Y-55164819D02*
X147310777Y-55212438D01*
X147310777Y-55212438D02*
X147358396Y-55260057D01*
X147358396Y-55260057D02*
X147406015Y-55355295D01*
X147406015Y-55355295D02*
X147406015Y-55498152D01*
X147406015Y-55498152D02*
X147358396Y-55593390D01*
X147358396Y-55593390D02*
X147310777Y-55641009D01*
X147310777Y-55641009D02*
X147215539Y-55688628D01*
X147215539Y-55688628D02*
X146834587Y-55688628D01*
X147834587Y-55783866D02*
X148596492Y-55783866D01*
X149072682Y-56164819D02*
X149072682Y-55164819D01*
X149072682Y-55164819D02*
X149310777Y-55164819D01*
X149310777Y-55164819D02*
X149453634Y-55212438D01*
X149453634Y-55212438D02*
X149548872Y-55307676D01*
X149548872Y-55307676D02*
X149596491Y-55402914D01*
X149596491Y-55402914D02*
X149644110Y-55593390D01*
X149644110Y-55593390D02*
X149644110Y-55736247D01*
X149644110Y-55736247D02*
X149596491Y-55926723D01*
X149596491Y-55926723D02*
X149548872Y-56021961D01*
X149548872Y-56021961D02*
X149453634Y-56117200D01*
X149453634Y-56117200D02*
X149310777Y-56164819D01*
X149310777Y-56164819D02*
X149072682Y-56164819D01*
X150453634Y-56117200D02*
X150358396Y-56164819D01*
X150358396Y-56164819D02*
X150167920Y-56164819D01*
X150167920Y-56164819D02*
X150072682Y-56117200D01*
X150072682Y-56117200D02*
X150025063Y-56021961D01*
X150025063Y-56021961D02*
X150025063Y-55641009D01*
X150025063Y-55641009D02*
X150072682Y-55545771D01*
X150072682Y-55545771D02*
X150167920Y-55498152D01*
X150167920Y-55498152D02*
X150358396Y-55498152D01*
X150358396Y-55498152D02*
X150453634Y-55545771D01*
X150453634Y-55545771D02*
X150501253Y-55641009D01*
X150501253Y-55641009D02*
X150501253Y-55736247D01*
X150501253Y-55736247D02*
X150025063Y-55831485D01*
X150834587Y-55498152D02*
X151072682Y-56164819D01*
X151072682Y-56164819D02*
X151310777Y-55498152D01*
X151691730Y-56164819D02*
X151691730Y-55498152D01*
X151691730Y-55164819D02*
X151644111Y-55212438D01*
X151644111Y-55212438D02*
X151691730Y-55260057D01*
X151691730Y-55260057D02*
X151739349Y-55212438D01*
X151739349Y-55212438D02*
X151691730Y-55164819D01*
X151691730Y-55164819D02*
X151691730Y-55260057D01*
X152596491Y-56117200D02*
X152501253Y-56164819D01*
X152501253Y-56164819D02*
X152310777Y-56164819D01*
X152310777Y-56164819D02*
X152215539Y-56117200D01*
X152215539Y-56117200D02*
X152167920Y-56069580D01*
X152167920Y-56069580D02*
X152120301Y-55974342D01*
X152120301Y-55974342D02*
X152120301Y-55688628D01*
X152120301Y-55688628D02*
X152167920Y-55593390D01*
X152167920Y-55593390D02*
X152215539Y-55545771D01*
X152215539Y-55545771D02*
X152310777Y-55498152D01*
X152310777Y-55498152D02*
X152501253Y-55498152D01*
X152501253Y-55498152D02*
X152596491Y-55545771D01*
X153406015Y-56117200D02*
X153310777Y-56164819D01*
X153310777Y-56164819D02*
X153120301Y-56164819D01*
X153120301Y-56164819D02*
X153025063Y-56117200D01*
X153025063Y-56117200D02*
X152977444Y-56021961D01*
X152977444Y-56021961D02*
X152977444Y-55641009D01*
X152977444Y-55641009D02*
X153025063Y-55545771D01*
X153025063Y-55545771D02*
X153120301Y-55498152D01*
X153120301Y-55498152D02*
X153310777Y-55498152D01*
X153310777Y-55498152D02*
X153406015Y-55545771D01*
X153406015Y-55545771D02*
X153453634Y-55641009D01*
X153453634Y-55641009D02*
X153453634Y-55736247D01*
X153453634Y-55736247D02*
X152977444Y-55831485D01*
X149953634Y-53794819D02*
X149620301Y-53318628D01*
X149382206Y-53794819D02*
X149382206Y-52794819D01*
X149382206Y-52794819D02*
X149763158Y-52794819D01*
X149763158Y-52794819D02*
X149858396Y-52842438D01*
X149858396Y-52842438D02*
X149906015Y-52890057D01*
X149906015Y-52890057D02*
X149953634Y-52985295D01*
X149953634Y-52985295D02*
X149953634Y-53128152D01*
X149953634Y-53128152D02*
X149906015Y-53223390D01*
X149906015Y-53223390D02*
X149858396Y-53271009D01*
X149858396Y-53271009D02*
X149763158Y-53318628D01*
X149763158Y-53318628D02*
X149382206Y-53318628D01*
X150906015Y-53794819D02*
X150334587Y-53794819D01*
X150620301Y-53794819D02*
X150620301Y-52794819D01*
X150620301Y-52794819D02*
X150525063Y-52937676D01*
X150525063Y-52937676D02*
X150429825Y-53032914D01*
X150429825Y-53032914D02*
X150334587Y-53080533D01*
X138696825Y-50314748D02*
X138744445Y-50362367D01*
X138744445Y-50362367D02*
X138792064Y-50505224D01*
X138792064Y-50505224D02*
X138792064Y-50600462D01*
X138792064Y-50600462D02*
X138744445Y-50743319D01*
X138744445Y-50743319D02*
X138649206Y-50838557D01*
X138649206Y-50838557D02*
X138553968Y-50886176D01*
X138553968Y-50886176D02*
X138363492Y-50933795D01*
X138363492Y-50933795D02*
X138220635Y-50933795D01*
X138220635Y-50933795D02*
X138030159Y-50886176D01*
X138030159Y-50886176D02*
X137934921Y-50838557D01*
X137934921Y-50838557D02*
X137839683Y-50743319D01*
X137839683Y-50743319D02*
X137792064Y-50600462D01*
X137792064Y-50600462D02*
X137792064Y-50505224D01*
X137792064Y-50505224D02*
X137839683Y-50362367D01*
X137839683Y-50362367D02*
X137887302Y-50314748D01*
X138792064Y-49743319D02*
X138744445Y-49838557D01*
X138744445Y-49838557D02*
X138696825Y-49886176D01*
X138696825Y-49886176D02*
X138601587Y-49933795D01*
X138601587Y-49933795D02*
X138315873Y-49933795D01*
X138315873Y-49933795D02*
X138220635Y-49886176D01*
X138220635Y-49886176D02*
X138173016Y-49838557D01*
X138173016Y-49838557D02*
X138125397Y-49743319D01*
X138125397Y-49743319D02*
X138125397Y-49600462D01*
X138125397Y-49600462D02*
X138173016Y-49505224D01*
X138173016Y-49505224D02*
X138220635Y-49457605D01*
X138220635Y-49457605D02*
X138315873Y-49409986D01*
X138315873Y-49409986D02*
X138601587Y-49409986D01*
X138601587Y-49409986D02*
X138696825Y-49457605D01*
X138696825Y-49457605D02*
X138744445Y-49505224D01*
X138744445Y-49505224D02*
X138792064Y-49600462D01*
X138792064Y-49600462D02*
X138792064Y-49743319D01*
X138125397Y-48981414D02*
X138792064Y-48981414D01*
X138220635Y-48981414D02*
X138173016Y-48933795D01*
X138173016Y-48933795D02*
X138125397Y-48838557D01*
X138125397Y-48838557D02*
X138125397Y-48695700D01*
X138125397Y-48695700D02*
X138173016Y-48600462D01*
X138173016Y-48600462D02*
X138268254Y-48552843D01*
X138268254Y-48552843D02*
X138792064Y-48552843D01*
X138125397Y-48076652D02*
X138792064Y-48076652D01*
X138220635Y-48076652D02*
X138173016Y-48029033D01*
X138173016Y-48029033D02*
X138125397Y-47933795D01*
X138125397Y-47933795D02*
X138125397Y-47790938D01*
X138125397Y-47790938D02*
X138173016Y-47695700D01*
X138173016Y-47695700D02*
X138268254Y-47648081D01*
X138268254Y-47648081D02*
X138792064Y-47648081D01*
X138887302Y-47409986D02*
X138887302Y-46648081D01*
X137792064Y-46219509D02*
X137792064Y-46124271D01*
X137792064Y-46124271D02*
X137839683Y-46029033D01*
X137839683Y-46029033D02*
X137887302Y-45981414D01*
X137887302Y-45981414D02*
X137982540Y-45933795D01*
X137982540Y-45933795D02*
X138173016Y-45886176D01*
X138173016Y-45886176D02*
X138411111Y-45886176D01*
X138411111Y-45886176D02*
X138601587Y-45933795D01*
X138601587Y-45933795D02*
X138696825Y-45981414D01*
X138696825Y-45981414D02*
X138744445Y-46029033D01*
X138744445Y-46029033D02*
X138792064Y-46124271D01*
X138792064Y-46124271D02*
X138792064Y-46219509D01*
X138792064Y-46219509D02*
X138744445Y-46314747D01*
X138744445Y-46314747D02*
X138696825Y-46362366D01*
X138696825Y-46362366D02*
X138601587Y-46409985D01*
X138601587Y-46409985D02*
X138411111Y-46457604D01*
X138411111Y-46457604D02*
X138173016Y-46457604D01*
X138173016Y-46457604D02*
X137982540Y-46409985D01*
X137982540Y-46409985D02*
X137887302Y-46362366D01*
X137887302Y-46362366D02*
X137839683Y-46314747D01*
X137839683Y-46314747D02*
X137792064Y-46219509D01*
X138792064Y-44933795D02*
X138792064Y-45505223D01*
X138792064Y-45219509D02*
X137792064Y-45219509D01*
X137792064Y-45219509D02*
X137934921Y-45314747D01*
X137934921Y-45314747D02*
X138030159Y-45409985D01*
X138030159Y-45409985D02*
X138077778Y-45505223D01*
X138792064Y-44600461D02*
X138125397Y-44076652D01*
X138125397Y-44600461D02*
X138792064Y-44076652D01*
X137792064Y-43505223D02*
X137792064Y-43409985D01*
X137792064Y-43409985D02*
X137839683Y-43314747D01*
X137839683Y-43314747D02*
X137887302Y-43267128D01*
X137887302Y-43267128D02*
X137982540Y-43219509D01*
X137982540Y-43219509D02*
X138173016Y-43171890D01*
X138173016Y-43171890D02*
X138411111Y-43171890D01*
X138411111Y-43171890D02*
X138601587Y-43219509D01*
X138601587Y-43219509D02*
X138696825Y-43267128D01*
X138696825Y-43267128D02*
X138744445Y-43314747D01*
X138744445Y-43314747D02*
X138792064Y-43409985D01*
X138792064Y-43409985D02*
X138792064Y-43505223D01*
X138792064Y-43505223D02*
X138744445Y-43600461D01*
X138744445Y-43600461D02*
X138696825Y-43648080D01*
X138696825Y-43648080D02*
X138601587Y-43695699D01*
X138601587Y-43695699D02*
X138411111Y-43743318D01*
X138411111Y-43743318D02*
X138173016Y-43743318D01*
X138173016Y-43743318D02*
X137982540Y-43695699D01*
X137982540Y-43695699D02*
X137887302Y-43648080D01*
X137887302Y-43648080D02*
X137839683Y-43600461D01*
X137839683Y-43600461D02*
X137792064Y-43505223D01*
X137887302Y-42790937D02*
X137839683Y-42743318D01*
X137839683Y-42743318D02*
X137792064Y-42648080D01*
X137792064Y-42648080D02*
X137792064Y-42409985D01*
X137792064Y-42409985D02*
X137839683Y-42314747D01*
X137839683Y-42314747D02*
X137887302Y-42267128D01*
X137887302Y-42267128D02*
X137982540Y-42219509D01*
X137982540Y-42219509D02*
X138077778Y-42219509D01*
X138077778Y-42219509D02*
X138220635Y-42267128D01*
X138220635Y-42267128D02*
X138792064Y-42838556D01*
X138792064Y-42838556D02*
X138792064Y-42219509D01*
X138887302Y-42029033D02*
X138887302Y-41267128D01*
X138792064Y-41029032D02*
X137792064Y-41029032D01*
X137792064Y-41029032D02*
X138506349Y-40695699D01*
X138506349Y-40695699D02*
X137792064Y-40362366D01*
X137792064Y-40362366D02*
X138792064Y-40362366D01*
X138792064Y-39457604D02*
X138268254Y-39457604D01*
X138268254Y-39457604D02*
X138173016Y-39505223D01*
X138173016Y-39505223D02*
X138125397Y-39600461D01*
X138125397Y-39600461D02*
X138125397Y-39790937D01*
X138125397Y-39790937D02*
X138173016Y-39886175D01*
X138744445Y-39457604D02*
X138792064Y-39552842D01*
X138792064Y-39552842D02*
X138792064Y-39790937D01*
X138792064Y-39790937D02*
X138744445Y-39886175D01*
X138744445Y-39886175D02*
X138649206Y-39933794D01*
X138649206Y-39933794D02*
X138553968Y-39933794D01*
X138553968Y-39933794D02*
X138458730Y-39886175D01*
X138458730Y-39886175D02*
X138411111Y-39790937D01*
X138411111Y-39790937D02*
X138411111Y-39552842D01*
X138411111Y-39552842D02*
X138363492Y-39457604D01*
X138792064Y-38838556D02*
X138744445Y-38933794D01*
X138744445Y-38933794D02*
X138649206Y-38981413D01*
X138649206Y-38981413D02*
X137792064Y-38981413D01*
X138744445Y-38076651D02*
X138792064Y-38171889D01*
X138792064Y-38171889D02*
X138792064Y-38362365D01*
X138792064Y-38362365D02*
X138744445Y-38457603D01*
X138744445Y-38457603D02*
X138649206Y-38505222D01*
X138649206Y-38505222D02*
X138268254Y-38505222D01*
X138268254Y-38505222D02*
X138173016Y-38457603D01*
X138173016Y-38457603D02*
X138125397Y-38362365D01*
X138125397Y-38362365D02*
X138125397Y-38171889D01*
X138125397Y-38171889D02*
X138173016Y-38076651D01*
X138173016Y-38076651D02*
X138268254Y-38029032D01*
X138268254Y-38029032D02*
X138363492Y-38029032D01*
X138363492Y-38029032D02*
X138458730Y-38505222D01*
X138411111Y-37600460D02*
X138411111Y-36838556D01*
X138696825Y-35790937D02*
X138744445Y-35838556D01*
X138744445Y-35838556D02*
X138792064Y-35981413D01*
X138792064Y-35981413D02*
X138792064Y-36076651D01*
X138792064Y-36076651D02*
X138744445Y-36219508D01*
X138744445Y-36219508D02*
X138649206Y-36314746D01*
X138649206Y-36314746D02*
X138553968Y-36362365D01*
X138553968Y-36362365D02*
X138363492Y-36409984D01*
X138363492Y-36409984D02*
X138220635Y-36409984D01*
X138220635Y-36409984D02*
X138030159Y-36362365D01*
X138030159Y-36362365D02*
X137934921Y-36314746D01*
X137934921Y-36314746D02*
X137839683Y-36219508D01*
X137839683Y-36219508D02*
X137792064Y-36076651D01*
X137792064Y-36076651D02*
X137792064Y-35981413D01*
X137792064Y-35981413D02*
X137839683Y-35838556D01*
X137839683Y-35838556D02*
X137887302Y-35790937D01*
X138792064Y-35219508D02*
X138744445Y-35314746D01*
X138744445Y-35314746D02*
X138696825Y-35362365D01*
X138696825Y-35362365D02*
X138601587Y-35409984D01*
X138601587Y-35409984D02*
X138315873Y-35409984D01*
X138315873Y-35409984D02*
X138220635Y-35362365D01*
X138220635Y-35362365D02*
X138173016Y-35314746D01*
X138173016Y-35314746D02*
X138125397Y-35219508D01*
X138125397Y-35219508D02*
X138125397Y-35076651D01*
X138125397Y-35076651D02*
X138173016Y-34981413D01*
X138173016Y-34981413D02*
X138220635Y-34933794D01*
X138220635Y-34933794D02*
X138315873Y-34886175D01*
X138315873Y-34886175D02*
X138601587Y-34886175D01*
X138601587Y-34886175D02*
X138696825Y-34933794D01*
X138696825Y-34933794D02*
X138744445Y-34981413D01*
X138744445Y-34981413D02*
X138792064Y-35076651D01*
X138792064Y-35076651D02*
X138792064Y-35219508D01*
X138125397Y-34457603D02*
X138792064Y-34457603D01*
X138220635Y-34457603D02*
X138173016Y-34409984D01*
X138173016Y-34409984D02*
X138125397Y-34314746D01*
X138125397Y-34314746D02*
X138125397Y-34171889D01*
X138125397Y-34171889D02*
X138173016Y-34076651D01*
X138173016Y-34076651D02*
X138268254Y-34029032D01*
X138268254Y-34029032D02*
X138792064Y-34029032D01*
X138125397Y-33552841D02*
X138792064Y-33552841D01*
X138220635Y-33552841D02*
X138173016Y-33505222D01*
X138173016Y-33505222D02*
X138125397Y-33409984D01*
X138125397Y-33409984D02*
X138125397Y-33267127D01*
X138125397Y-33267127D02*
X138173016Y-33171889D01*
X138173016Y-33171889D02*
X138268254Y-33124270D01*
X138268254Y-33124270D02*
X138792064Y-33124270D01*
X138744445Y-32267127D02*
X138792064Y-32362365D01*
X138792064Y-32362365D02*
X138792064Y-32552841D01*
X138792064Y-32552841D02*
X138744445Y-32648079D01*
X138744445Y-32648079D02*
X138649206Y-32695698D01*
X138649206Y-32695698D02*
X138268254Y-32695698D01*
X138268254Y-32695698D02*
X138173016Y-32648079D01*
X138173016Y-32648079D02*
X138125397Y-32552841D01*
X138125397Y-32552841D02*
X138125397Y-32362365D01*
X138125397Y-32362365D02*
X138173016Y-32267127D01*
X138173016Y-32267127D02*
X138268254Y-32219508D01*
X138268254Y-32219508D02*
X138363492Y-32219508D01*
X138363492Y-32219508D02*
X138458730Y-32695698D01*
X138744445Y-31362365D02*
X138792064Y-31457603D01*
X138792064Y-31457603D02*
X138792064Y-31648079D01*
X138792064Y-31648079D02*
X138744445Y-31743317D01*
X138744445Y-31743317D02*
X138696825Y-31790936D01*
X138696825Y-31790936D02*
X138601587Y-31838555D01*
X138601587Y-31838555D02*
X138315873Y-31838555D01*
X138315873Y-31838555D02*
X138220635Y-31790936D01*
X138220635Y-31790936D02*
X138173016Y-31743317D01*
X138173016Y-31743317D02*
X138125397Y-31648079D01*
X138125397Y-31648079D02*
X138125397Y-31457603D01*
X138125397Y-31457603D02*
X138173016Y-31362365D01*
X138125397Y-31076650D02*
X138125397Y-30695698D01*
X137792064Y-30933793D02*
X138649206Y-30933793D01*
X138649206Y-30933793D02*
X138744445Y-30886174D01*
X138744445Y-30886174D02*
X138792064Y-30790936D01*
X138792064Y-30790936D02*
X138792064Y-30695698D01*
X138792064Y-30219507D02*
X138744445Y-30314745D01*
X138744445Y-30314745D02*
X138696825Y-30362364D01*
X138696825Y-30362364D02*
X138601587Y-30409983D01*
X138601587Y-30409983D02*
X138315873Y-30409983D01*
X138315873Y-30409983D02*
X138220635Y-30362364D01*
X138220635Y-30362364D02*
X138173016Y-30314745D01*
X138173016Y-30314745D02*
X138125397Y-30219507D01*
X138125397Y-30219507D02*
X138125397Y-30076650D01*
X138125397Y-30076650D02*
X138173016Y-29981412D01*
X138173016Y-29981412D02*
X138220635Y-29933793D01*
X138220635Y-29933793D02*
X138315873Y-29886174D01*
X138315873Y-29886174D02*
X138601587Y-29886174D01*
X138601587Y-29886174D02*
X138696825Y-29933793D01*
X138696825Y-29933793D02*
X138744445Y-29981412D01*
X138744445Y-29981412D02*
X138792064Y-30076650D01*
X138792064Y-30076650D02*
X138792064Y-30219507D01*
X138792064Y-29457602D02*
X138125397Y-29457602D01*
X138315873Y-29457602D02*
X138220635Y-29409983D01*
X138220635Y-29409983D02*
X138173016Y-29362364D01*
X138173016Y-29362364D02*
X138125397Y-29267126D01*
X138125397Y-29267126D02*
X138125397Y-29171888D01*
X149314819Y-68953333D02*
X150029104Y-68953333D01*
X150029104Y-68953333D02*
X150171961Y-69000952D01*
X150171961Y-69000952D02*
X150267200Y-69096190D01*
X150267200Y-69096190D02*
X150314819Y-69239047D01*
X150314819Y-69239047D02*
X150314819Y-69334285D01*
X150314819Y-67953333D02*
X150314819Y-68524761D01*
X150314819Y-68239047D02*
X149314819Y-68239047D01*
X149314819Y-68239047D02*
X149457676Y-68334285D01*
X149457676Y-68334285D02*
X149552914Y-68429523D01*
X149552914Y-68429523D02*
X149600533Y-68524761D01*
X156934819Y-58181428D02*
X156934819Y-57610000D01*
X157934819Y-57895714D02*
X156934819Y-57895714D01*
X157887200Y-56895714D02*
X157934819Y-56990952D01*
X157934819Y-56990952D02*
X157934819Y-57181428D01*
X157934819Y-57181428D02*
X157887200Y-57276666D01*
X157887200Y-57276666D02*
X157791961Y-57324285D01*
X157791961Y-57324285D02*
X157411009Y-57324285D01*
X157411009Y-57324285D02*
X157315771Y-57276666D01*
X157315771Y-57276666D02*
X157268152Y-57181428D01*
X157268152Y-57181428D02*
X157268152Y-56990952D01*
X157268152Y-56990952D02*
X157315771Y-56895714D01*
X157315771Y-56895714D02*
X157411009Y-56848095D01*
X157411009Y-56848095D02*
X157506247Y-56848095D01*
X157506247Y-56848095D02*
X157601485Y-57324285D01*
X157887200Y-56038571D02*
X157934819Y-56133809D01*
X157934819Y-56133809D02*
X157934819Y-56324285D01*
X157934819Y-56324285D02*
X157887200Y-56419523D01*
X157887200Y-56419523D02*
X157791961Y-56467142D01*
X157791961Y-56467142D02*
X157411009Y-56467142D01*
X157411009Y-56467142D02*
X157315771Y-56419523D01*
X157315771Y-56419523D02*
X157268152Y-56324285D01*
X157268152Y-56324285D02*
X157268152Y-56133809D01*
X157268152Y-56133809D02*
X157315771Y-56038571D01*
X157315771Y-56038571D02*
X157411009Y-55990952D01*
X157411009Y-55990952D02*
X157506247Y-55990952D01*
X157506247Y-55990952D02*
X157601485Y-56467142D01*
X157268152Y-55562380D02*
X157934819Y-55562380D01*
X157363390Y-55562380D02*
X157315771Y-55514761D01*
X157315771Y-55514761D02*
X157268152Y-55419523D01*
X157268152Y-55419523D02*
X157268152Y-55276666D01*
X157268152Y-55276666D02*
X157315771Y-55181428D01*
X157315771Y-55181428D02*
X157411009Y-55133809D01*
X157411009Y-55133809D02*
X157934819Y-55133809D01*
X157887200Y-54705237D02*
X157934819Y-54609999D01*
X157934819Y-54609999D02*
X157934819Y-54419523D01*
X157934819Y-54419523D02*
X157887200Y-54324285D01*
X157887200Y-54324285D02*
X157791961Y-54276666D01*
X157791961Y-54276666D02*
X157744342Y-54276666D01*
X157744342Y-54276666D02*
X157649104Y-54324285D01*
X157649104Y-54324285D02*
X157601485Y-54419523D01*
X157601485Y-54419523D02*
X157601485Y-54562380D01*
X157601485Y-54562380D02*
X157553866Y-54657618D01*
X157553866Y-54657618D02*
X157458628Y-54705237D01*
X157458628Y-54705237D02*
X157411009Y-54705237D01*
X157411009Y-54705237D02*
X157315771Y-54657618D01*
X157315771Y-54657618D02*
X157268152Y-54562380D01*
X157268152Y-54562380D02*
X157268152Y-54419523D01*
X157268152Y-54419523D02*
X157315771Y-54324285D01*
X157268152Y-53943332D02*
X157934819Y-53705237D01*
X157268152Y-53467142D02*
X157934819Y-53705237D01*
X157934819Y-53705237D02*
X158172914Y-53800475D01*
X158172914Y-53800475D02*
X158220533Y-53848094D01*
X158220533Y-53848094D02*
X158268152Y-53943332D01*
X157268152Y-52657618D02*
X157934819Y-52657618D01*
X156887200Y-52895713D02*
X157601485Y-53133808D01*
X157601485Y-53133808D02*
X157601485Y-52514761D01*
X157839580Y-52133808D02*
X157887200Y-52086189D01*
X157887200Y-52086189D02*
X157934819Y-52133808D01*
X157934819Y-52133808D02*
X157887200Y-52181427D01*
X157887200Y-52181427D02*
X157839580Y-52133808D01*
X157839580Y-52133808D02*
X157934819Y-52133808D01*
X157934819Y-51133809D02*
X157934819Y-51705237D01*
X157934819Y-51419523D02*
X156934819Y-51419523D01*
X156934819Y-51419523D02*
X157077676Y-51514761D01*
X157077676Y-51514761D02*
X157172914Y-51609999D01*
X157172914Y-51609999D02*
X157220533Y-51705237D01*
X50428212Y-33379580D02*
X50380593Y-33427200D01*
X50380593Y-33427200D02*
X50237736Y-33474819D01*
X50237736Y-33474819D02*
X50142498Y-33474819D01*
X50142498Y-33474819D02*
X49999641Y-33427200D01*
X49999641Y-33427200D02*
X49904403Y-33331961D01*
X49904403Y-33331961D02*
X49856784Y-33236723D01*
X49856784Y-33236723D02*
X49809165Y-33046247D01*
X49809165Y-33046247D02*
X49809165Y-32903390D01*
X49809165Y-32903390D02*
X49856784Y-32712914D01*
X49856784Y-32712914D02*
X49904403Y-32617676D01*
X49904403Y-32617676D02*
X49999641Y-32522438D01*
X49999641Y-32522438D02*
X50142498Y-32474819D01*
X50142498Y-32474819D02*
X50237736Y-32474819D01*
X50237736Y-32474819D02*
X50380593Y-32522438D01*
X50380593Y-32522438D02*
X50428212Y-32570057D01*
X50999641Y-33474819D02*
X50904403Y-33427200D01*
X50904403Y-33427200D02*
X50856784Y-33379580D01*
X50856784Y-33379580D02*
X50809165Y-33284342D01*
X50809165Y-33284342D02*
X50809165Y-32998628D01*
X50809165Y-32998628D02*
X50856784Y-32903390D01*
X50856784Y-32903390D02*
X50904403Y-32855771D01*
X50904403Y-32855771D02*
X50999641Y-32808152D01*
X50999641Y-32808152D02*
X51142498Y-32808152D01*
X51142498Y-32808152D02*
X51237736Y-32855771D01*
X51237736Y-32855771D02*
X51285355Y-32903390D01*
X51285355Y-32903390D02*
X51332974Y-32998628D01*
X51332974Y-32998628D02*
X51332974Y-33284342D01*
X51332974Y-33284342D02*
X51285355Y-33379580D01*
X51285355Y-33379580D02*
X51237736Y-33427200D01*
X51237736Y-33427200D02*
X51142498Y-33474819D01*
X51142498Y-33474819D02*
X50999641Y-33474819D01*
X51761546Y-32808152D02*
X51761546Y-33474819D01*
X51761546Y-32903390D02*
X51809165Y-32855771D01*
X51809165Y-32855771D02*
X51904403Y-32808152D01*
X51904403Y-32808152D02*
X52047260Y-32808152D01*
X52047260Y-32808152D02*
X52142498Y-32855771D01*
X52142498Y-32855771D02*
X52190117Y-32951009D01*
X52190117Y-32951009D02*
X52190117Y-33474819D01*
X52666308Y-32808152D02*
X52666308Y-33474819D01*
X52666308Y-32903390D02*
X52713927Y-32855771D01*
X52713927Y-32855771D02*
X52809165Y-32808152D01*
X52809165Y-32808152D02*
X52952022Y-32808152D01*
X52952022Y-32808152D02*
X53047260Y-32855771D01*
X53047260Y-32855771D02*
X53094879Y-32951009D01*
X53094879Y-32951009D02*
X53094879Y-33474819D01*
X53332975Y-33570057D02*
X54094879Y-33570057D01*
X54523451Y-32474819D02*
X54618689Y-32474819D01*
X54618689Y-32474819D02*
X54713927Y-32522438D01*
X54713927Y-32522438D02*
X54761546Y-32570057D01*
X54761546Y-32570057D02*
X54809165Y-32665295D01*
X54809165Y-32665295D02*
X54856784Y-32855771D01*
X54856784Y-32855771D02*
X54856784Y-33093866D01*
X54856784Y-33093866D02*
X54809165Y-33284342D01*
X54809165Y-33284342D02*
X54761546Y-33379580D01*
X54761546Y-33379580D02*
X54713927Y-33427200D01*
X54713927Y-33427200D02*
X54618689Y-33474819D01*
X54618689Y-33474819D02*
X54523451Y-33474819D01*
X54523451Y-33474819D02*
X54428213Y-33427200D01*
X54428213Y-33427200D02*
X54380594Y-33379580D01*
X54380594Y-33379580D02*
X54332975Y-33284342D01*
X54332975Y-33284342D02*
X54285356Y-33093866D01*
X54285356Y-33093866D02*
X54285356Y-32855771D01*
X54285356Y-32855771D02*
X54332975Y-32665295D01*
X54332975Y-32665295D02*
X54380594Y-32570057D01*
X54380594Y-32570057D02*
X54428213Y-32522438D01*
X54428213Y-32522438D02*
X54523451Y-32474819D01*
X55809165Y-33474819D02*
X55237737Y-33474819D01*
X55523451Y-33474819D02*
X55523451Y-32474819D01*
X55523451Y-32474819D02*
X55428213Y-32617676D01*
X55428213Y-32617676D02*
X55332975Y-32712914D01*
X55332975Y-32712914D02*
X55237737Y-32760533D01*
X56142499Y-33474819D02*
X56666308Y-32808152D01*
X56142499Y-32808152D02*
X56666308Y-33474819D01*
X57237737Y-32474819D02*
X57332975Y-32474819D01*
X57332975Y-32474819D02*
X57428213Y-32522438D01*
X57428213Y-32522438D02*
X57475832Y-32570057D01*
X57475832Y-32570057D02*
X57523451Y-32665295D01*
X57523451Y-32665295D02*
X57571070Y-32855771D01*
X57571070Y-32855771D02*
X57571070Y-33093866D01*
X57571070Y-33093866D02*
X57523451Y-33284342D01*
X57523451Y-33284342D02*
X57475832Y-33379580D01*
X57475832Y-33379580D02*
X57428213Y-33427200D01*
X57428213Y-33427200D02*
X57332975Y-33474819D01*
X57332975Y-33474819D02*
X57237737Y-33474819D01*
X57237737Y-33474819D02*
X57142499Y-33427200D01*
X57142499Y-33427200D02*
X57094880Y-33379580D01*
X57094880Y-33379580D02*
X57047261Y-33284342D01*
X57047261Y-33284342D02*
X56999642Y-33093866D01*
X56999642Y-33093866D02*
X56999642Y-32855771D01*
X56999642Y-32855771D02*
X57047261Y-32665295D01*
X57047261Y-32665295D02*
X57094880Y-32570057D01*
X57094880Y-32570057D02*
X57142499Y-32522438D01*
X57142499Y-32522438D02*
X57237737Y-32474819D01*
X57904404Y-32474819D02*
X58523451Y-32474819D01*
X58523451Y-32474819D02*
X58190118Y-32855771D01*
X58190118Y-32855771D02*
X58332975Y-32855771D01*
X58332975Y-32855771D02*
X58428213Y-32903390D01*
X58428213Y-32903390D02*
X58475832Y-32951009D01*
X58475832Y-32951009D02*
X58523451Y-33046247D01*
X58523451Y-33046247D02*
X58523451Y-33284342D01*
X58523451Y-33284342D02*
X58475832Y-33379580D01*
X58475832Y-33379580D02*
X58428213Y-33427200D01*
X58428213Y-33427200D02*
X58332975Y-33474819D01*
X58332975Y-33474819D02*
X58047261Y-33474819D01*
X58047261Y-33474819D02*
X57952023Y-33427200D01*
X57952023Y-33427200D02*
X57904404Y-33379580D01*
X58713928Y-33570057D02*
X59475832Y-33570057D01*
X59713928Y-33474819D02*
X59713928Y-32474819D01*
X59713928Y-32474819D02*
X60047261Y-33189104D01*
X60047261Y-33189104D02*
X60380594Y-32474819D01*
X60380594Y-32474819D02*
X60380594Y-33474819D01*
X61285356Y-33474819D02*
X61285356Y-32951009D01*
X61285356Y-32951009D02*
X61237737Y-32855771D01*
X61237737Y-32855771D02*
X61142499Y-32808152D01*
X61142499Y-32808152D02*
X60952023Y-32808152D01*
X60952023Y-32808152D02*
X60856785Y-32855771D01*
X61285356Y-33427200D02*
X61190118Y-33474819D01*
X61190118Y-33474819D02*
X60952023Y-33474819D01*
X60952023Y-33474819D02*
X60856785Y-33427200D01*
X60856785Y-33427200D02*
X60809166Y-33331961D01*
X60809166Y-33331961D02*
X60809166Y-33236723D01*
X60809166Y-33236723D02*
X60856785Y-33141485D01*
X60856785Y-33141485D02*
X60952023Y-33093866D01*
X60952023Y-33093866D02*
X61190118Y-33093866D01*
X61190118Y-33093866D02*
X61285356Y-33046247D01*
X61904404Y-33474819D02*
X61809166Y-33427200D01*
X61809166Y-33427200D02*
X61761547Y-33331961D01*
X61761547Y-33331961D02*
X61761547Y-32474819D01*
X62666309Y-33427200D02*
X62571071Y-33474819D01*
X62571071Y-33474819D02*
X62380595Y-33474819D01*
X62380595Y-33474819D02*
X62285357Y-33427200D01*
X62285357Y-33427200D02*
X62237738Y-33331961D01*
X62237738Y-33331961D02*
X62237738Y-32951009D01*
X62237738Y-32951009D02*
X62285357Y-32855771D01*
X62285357Y-32855771D02*
X62380595Y-32808152D01*
X62380595Y-32808152D02*
X62571071Y-32808152D01*
X62571071Y-32808152D02*
X62666309Y-32855771D01*
X62666309Y-32855771D02*
X62713928Y-32951009D01*
X62713928Y-32951009D02*
X62713928Y-33046247D01*
X62713928Y-33046247D02*
X62237738Y-33141485D01*
X63142500Y-33093866D02*
X63904405Y-33093866D01*
X64952023Y-33379580D02*
X64904404Y-33427200D01*
X64904404Y-33427200D02*
X64761547Y-33474819D01*
X64761547Y-33474819D02*
X64666309Y-33474819D01*
X64666309Y-33474819D02*
X64523452Y-33427200D01*
X64523452Y-33427200D02*
X64428214Y-33331961D01*
X64428214Y-33331961D02*
X64380595Y-33236723D01*
X64380595Y-33236723D02*
X64332976Y-33046247D01*
X64332976Y-33046247D02*
X64332976Y-32903390D01*
X64332976Y-32903390D02*
X64380595Y-32712914D01*
X64380595Y-32712914D02*
X64428214Y-32617676D01*
X64428214Y-32617676D02*
X64523452Y-32522438D01*
X64523452Y-32522438D02*
X64666309Y-32474819D01*
X64666309Y-32474819D02*
X64761547Y-32474819D01*
X64761547Y-32474819D02*
X64904404Y-32522438D01*
X64904404Y-32522438D02*
X64952023Y-32570057D01*
X65523452Y-33474819D02*
X65428214Y-33427200D01*
X65428214Y-33427200D02*
X65380595Y-33379580D01*
X65380595Y-33379580D02*
X65332976Y-33284342D01*
X65332976Y-33284342D02*
X65332976Y-32998628D01*
X65332976Y-32998628D02*
X65380595Y-32903390D01*
X65380595Y-32903390D02*
X65428214Y-32855771D01*
X65428214Y-32855771D02*
X65523452Y-32808152D01*
X65523452Y-32808152D02*
X65666309Y-32808152D01*
X65666309Y-32808152D02*
X65761547Y-32855771D01*
X65761547Y-32855771D02*
X65809166Y-32903390D01*
X65809166Y-32903390D02*
X65856785Y-32998628D01*
X65856785Y-32998628D02*
X65856785Y-33284342D01*
X65856785Y-33284342D02*
X65809166Y-33379580D01*
X65809166Y-33379580D02*
X65761547Y-33427200D01*
X65761547Y-33427200D02*
X65666309Y-33474819D01*
X65666309Y-33474819D02*
X65523452Y-33474819D01*
X66285357Y-32808152D02*
X66285357Y-33474819D01*
X66285357Y-32903390D02*
X66332976Y-32855771D01*
X66332976Y-32855771D02*
X66428214Y-32808152D01*
X66428214Y-32808152D02*
X66571071Y-32808152D01*
X66571071Y-32808152D02*
X66666309Y-32855771D01*
X66666309Y-32855771D02*
X66713928Y-32951009D01*
X66713928Y-32951009D02*
X66713928Y-33474819D01*
X67190119Y-32808152D02*
X67190119Y-33474819D01*
X67190119Y-32903390D02*
X67237738Y-32855771D01*
X67237738Y-32855771D02*
X67332976Y-32808152D01*
X67332976Y-32808152D02*
X67475833Y-32808152D01*
X67475833Y-32808152D02*
X67571071Y-32855771D01*
X67571071Y-32855771D02*
X67618690Y-32951009D01*
X67618690Y-32951009D02*
X67618690Y-33474819D01*
X68475833Y-33427200D02*
X68380595Y-33474819D01*
X68380595Y-33474819D02*
X68190119Y-33474819D01*
X68190119Y-33474819D02*
X68094881Y-33427200D01*
X68094881Y-33427200D02*
X68047262Y-33331961D01*
X68047262Y-33331961D02*
X68047262Y-32951009D01*
X68047262Y-32951009D02*
X68094881Y-32855771D01*
X68094881Y-32855771D02*
X68190119Y-32808152D01*
X68190119Y-32808152D02*
X68380595Y-32808152D01*
X68380595Y-32808152D02*
X68475833Y-32855771D01*
X68475833Y-32855771D02*
X68523452Y-32951009D01*
X68523452Y-32951009D02*
X68523452Y-33046247D01*
X68523452Y-33046247D02*
X68047262Y-33141485D01*
X69380595Y-33427200D02*
X69285357Y-33474819D01*
X69285357Y-33474819D02*
X69094881Y-33474819D01*
X69094881Y-33474819D02*
X68999643Y-33427200D01*
X68999643Y-33427200D02*
X68952024Y-33379580D01*
X68952024Y-33379580D02*
X68904405Y-33284342D01*
X68904405Y-33284342D02*
X68904405Y-32998628D01*
X68904405Y-32998628D02*
X68952024Y-32903390D01*
X68952024Y-32903390D02*
X68999643Y-32855771D01*
X68999643Y-32855771D02*
X69094881Y-32808152D01*
X69094881Y-32808152D02*
X69285357Y-32808152D01*
X69285357Y-32808152D02*
X69380595Y-32855771D01*
X69666310Y-32808152D02*
X70047262Y-32808152D01*
X69809167Y-32474819D02*
X69809167Y-33331961D01*
X69809167Y-33331961D02*
X69856786Y-33427200D01*
X69856786Y-33427200D02*
X69952024Y-33474819D01*
X69952024Y-33474819D02*
X70047262Y-33474819D01*
X70523453Y-33474819D02*
X70428215Y-33427200D01*
X70428215Y-33427200D02*
X70380596Y-33379580D01*
X70380596Y-33379580D02*
X70332977Y-33284342D01*
X70332977Y-33284342D02*
X70332977Y-32998628D01*
X70332977Y-32998628D02*
X70380596Y-32903390D01*
X70380596Y-32903390D02*
X70428215Y-32855771D01*
X70428215Y-32855771D02*
X70523453Y-32808152D01*
X70523453Y-32808152D02*
X70666310Y-32808152D01*
X70666310Y-32808152D02*
X70761548Y-32855771D01*
X70761548Y-32855771D02*
X70809167Y-32903390D01*
X70809167Y-32903390D02*
X70856786Y-32998628D01*
X70856786Y-32998628D02*
X70856786Y-33284342D01*
X70856786Y-33284342D02*
X70809167Y-33379580D01*
X70809167Y-33379580D02*
X70761548Y-33427200D01*
X70761548Y-33427200D02*
X70666310Y-33474819D01*
X70666310Y-33474819D02*
X70523453Y-33474819D01*
X71285358Y-33474819D02*
X71285358Y-32808152D01*
X71285358Y-32998628D02*
X71332977Y-32903390D01*
X71332977Y-32903390D02*
X71380596Y-32855771D01*
X71380596Y-32855771D02*
X71475834Y-32808152D01*
X71475834Y-32808152D02*
X71571072Y-32808152D01*
X60626666Y-29934819D02*
X60626666Y-30649104D01*
X60626666Y-30649104D02*
X60579047Y-30791961D01*
X60579047Y-30791961D02*
X60483809Y-30887200D01*
X60483809Y-30887200D02*
X60340952Y-30934819D01*
X60340952Y-30934819D02*
X60245714Y-30934819D01*
X61055238Y-30030057D02*
X61102857Y-29982438D01*
X61102857Y-29982438D02*
X61198095Y-29934819D01*
X61198095Y-29934819D02*
X61436190Y-29934819D01*
X61436190Y-29934819D02*
X61531428Y-29982438D01*
X61531428Y-29982438D02*
X61579047Y-30030057D01*
X61579047Y-30030057D02*
X61626666Y-30125295D01*
X61626666Y-30125295D02*
X61626666Y-30220533D01*
X61626666Y-30220533D02*
X61579047Y-30363390D01*
X61579047Y-30363390D02*
X61007619Y-30934819D01*
X61007619Y-30934819D02*
X61626666Y-30934819D01*
X50924300Y-31861089D02*
X50971919Y-31718232D01*
X50971919Y-31718232D02*
X51019538Y-31670613D01*
X51019538Y-31670613D02*
X51114776Y-31622994D01*
X51114776Y-31622994D02*
X51257633Y-31622994D01*
X51257633Y-31622994D02*
X51352871Y-31670613D01*
X51352871Y-31670613D02*
X51400491Y-31718232D01*
X51400491Y-31718232D02*
X51448110Y-31813470D01*
X51448110Y-31813470D02*
X51448110Y-32194422D01*
X51448110Y-32194422D02*
X50448110Y-32194422D01*
X50448110Y-32194422D02*
X50448110Y-31861089D01*
X50448110Y-31861089D02*
X50495729Y-31765851D01*
X50495729Y-31765851D02*
X50543348Y-31718232D01*
X50543348Y-31718232D02*
X50638586Y-31670613D01*
X50638586Y-31670613D02*
X50733824Y-31670613D01*
X50733824Y-31670613D02*
X50829062Y-31718232D01*
X50829062Y-31718232D02*
X50876681Y-31765851D01*
X50876681Y-31765851D02*
X50924300Y-31861089D01*
X50924300Y-31861089D02*
X50924300Y-32194422D01*
X50781443Y-30765851D02*
X51448110Y-30765851D01*
X50781443Y-31194422D02*
X51305252Y-31194422D01*
X51305252Y-31194422D02*
X51400491Y-31146803D01*
X51400491Y-31146803D02*
X51448110Y-31051565D01*
X51448110Y-31051565D02*
X51448110Y-30908708D01*
X51448110Y-30908708D02*
X51400491Y-30813470D01*
X51400491Y-30813470D02*
X51352871Y-30765851D01*
X50781443Y-30384898D02*
X50781443Y-29861089D01*
X50781443Y-29861089D02*
X51448110Y-30384898D01*
X51448110Y-30384898D02*
X51448110Y-29861089D01*
X50781443Y-29575374D02*
X50781443Y-29051565D01*
X50781443Y-29051565D02*
X51448110Y-29575374D01*
X51448110Y-29575374D02*
X51448110Y-29051565D01*
X51400491Y-28289660D02*
X51448110Y-28384898D01*
X51448110Y-28384898D02*
X51448110Y-28575374D01*
X51448110Y-28575374D02*
X51400491Y-28670612D01*
X51400491Y-28670612D02*
X51305252Y-28718231D01*
X51305252Y-28718231D02*
X50924300Y-28718231D01*
X50924300Y-28718231D02*
X50829062Y-28670612D01*
X50829062Y-28670612D02*
X50781443Y-28575374D01*
X50781443Y-28575374D02*
X50781443Y-28384898D01*
X50781443Y-28384898D02*
X50829062Y-28289660D01*
X50829062Y-28289660D02*
X50924300Y-28242041D01*
X50924300Y-28242041D02*
X51019538Y-28242041D01*
X51019538Y-28242041D02*
X51114776Y-28718231D01*
X51448110Y-27813469D02*
X50781443Y-27813469D01*
X50971919Y-27813469D02*
X50876681Y-27765850D01*
X50876681Y-27765850D02*
X50829062Y-27718231D01*
X50829062Y-27718231D02*
X50781443Y-27622993D01*
X50781443Y-27622993D02*
X50781443Y-27527755D01*
X51067157Y-27194421D02*
X51067157Y-26432517D01*
X51448110Y-25956326D02*
X50448110Y-25956326D01*
X50448110Y-25956326D02*
X50448110Y-25718231D01*
X50448110Y-25718231D02*
X50495729Y-25575374D01*
X50495729Y-25575374D02*
X50590967Y-25480136D01*
X50590967Y-25480136D02*
X50686205Y-25432517D01*
X50686205Y-25432517D02*
X50876681Y-25384898D01*
X50876681Y-25384898D02*
X51019538Y-25384898D01*
X51019538Y-25384898D02*
X51210014Y-25432517D01*
X51210014Y-25432517D02*
X51305252Y-25480136D01*
X51305252Y-25480136D02*
X51400491Y-25575374D01*
X51400491Y-25575374D02*
X51448110Y-25718231D01*
X51448110Y-25718231D02*
X51448110Y-25956326D01*
X51400491Y-24575374D02*
X51448110Y-24670612D01*
X51448110Y-24670612D02*
X51448110Y-24861088D01*
X51448110Y-24861088D02*
X51400491Y-24956326D01*
X51400491Y-24956326D02*
X51305252Y-25003945D01*
X51305252Y-25003945D02*
X50924300Y-25003945D01*
X50924300Y-25003945D02*
X50829062Y-24956326D01*
X50829062Y-24956326D02*
X50781443Y-24861088D01*
X50781443Y-24861088D02*
X50781443Y-24670612D01*
X50781443Y-24670612D02*
X50829062Y-24575374D01*
X50829062Y-24575374D02*
X50924300Y-24527755D01*
X50924300Y-24527755D02*
X51019538Y-24527755D01*
X51019538Y-24527755D02*
X51114776Y-25003945D01*
X50781443Y-24194421D02*
X51448110Y-23956326D01*
X51448110Y-23956326D02*
X50781443Y-23718231D01*
X51448110Y-23337278D02*
X50781443Y-23337278D01*
X50448110Y-23337278D02*
X50495729Y-23384897D01*
X50495729Y-23384897D02*
X50543348Y-23337278D01*
X50543348Y-23337278D02*
X50495729Y-23289659D01*
X50495729Y-23289659D02*
X50448110Y-23337278D01*
X50448110Y-23337278D02*
X50543348Y-23337278D01*
X51400491Y-22432517D02*
X51448110Y-22527755D01*
X51448110Y-22527755D02*
X51448110Y-22718231D01*
X51448110Y-22718231D02*
X51400491Y-22813469D01*
X51400491Y-22813469D02*
X51352871Y-22861088D01*
X51352871Y-22861088D02*
X51257633Y-22908707D01*
X51257633Y-22908707D02*
X50971919Y-22908707D01*
X50971919Y-22908707D02*
X50876681Y-22861088D01*
X50876681Y-22861088D02*
X50829062Y-22813469D01*
X50829062Y-22813469D02*
X50781443Y-22718231D01*
X50781443Y-22718231D02*
X50781443Y-22527755D01*
X50781443Y-22527755D02*
X50829062Y-22432517D01*
X51400491Y-21622993D02*
X51448110Y-21718231D01*
X51448110Y-21718231D02*
X51448110Y-21908707D01*
X51448110Y-21908707D02*
X51400491Y-22003945D01*
X51400491Y-22003945D02*
X51305252Y-22051564D01*
X51305252Y-22051564D02*
X50924300Y-22051564D01*
X50924300Y-22051564D02*
X50829062Y-22003945D01*
X50829062Y-22003945D02*
X50781443Y-21908707D01*
X50781443Y-21908707D02*
X50781443Y-21718231D01*
X50781443Y-21718231D02*
X50829062Y-21622993D01*
X50829062Y-21622993D02*
X50924300Y-21575374D01*
X50924300Y-21575374D02*
X51019538Y-21575374D01*
X51019538Y-21575374D02*
X51114776Y-22051564D01*
X44398854Y-28859188D02*
X44446473Y-28716331D01*
X44446473Y-28716331D02*
X44494092Y-28668712D01*
X44494092Y-28668712D02*
X44589330Y-28621093D01*
X44589330Y-28621093D02*
X44732187Y-28621093D01*
X44732187Y-28621093D02*
X44827425Y-28668712D01*
X44827425Y-28668712D02*
X44875045Y-28716331D01*
X44875045Y-28716331D02*
X44922664Y-28811569D01*
X44922664Y-28811569D02*
X44922664Y-29192521D01*
X44922664Y-29192521D02*
X43922664Y-29192521D01*
X43922664Y-29192521D02*
X43922664Y-28859188D01*
X43922664Y-28859188D02*
X43970283Y-28763950D01*
X43970283Y-28763950D02*
X44017902Y-28716331D01*
X44017902Y-28716331D02*
X44113140Y-28668712D01*
X44113140Y-28668712D02*
X44208378Y-28668712D01*
X44208378Y-28668712D02*
X44303616Y-28716331D01*
X44303616Y-28716331D02*
X44351235Y-28763950D01*
X44351235Y-28763950D02*
X44398854Y-28859188D01*
X44398854Y-28859188D02*
X44398854Y-29192521D01*
X43922664Y-28287759D02*
X43922664Y-27621093D01*
X43922664Y-27621093D02*
X44922664Y-28287759D01*
X44922664Y-28287759D02*
X44922664Y-27621093D01*
X44922664Y-26716331D02*
X44922664Y-27287759D01*
X44922664Y-27002045D02*
X43922664Y-27002045D01*
X43922664Y-27002045D02*
X44065521Y-27097283D01*
X44065521Y-27097283D02*
X44160759Y-27192521D01*
X44160759Y-27192521D02*
X44208378Y-27287759D01*
X46001711Y-32169187D02*
X46001711Y-31407283D01*
X46382664Y-31788235D02*
X45620759Y-31788235D01*
X61414819Y-23620953D02*
X60414819Y-23620953D01*
X61367200Y-23620953D02*
X61414819Y-23716191D01*
X61414819Y-23716191D02*
X61414819Y-23906667D01*
X61414819Y-23906667D02*
X61367200Y-24001905D01*
X61367200Y-24001905D02*
X61319580Y-24049524D01*
X61319580Y-24049524D02*
X61224342Y-24097143D01*
X61224342Y-24097143D02*
X60938628Y-24097143D01*
X60938628Y-24097143D02*
X60843390Y-24049524D01*
X60843390Y-24049524D02*
X60795771Y-24001905D01*
X60795771Y-24001905D02*
X60748152Y-23906667D01*
X60748152Y-23906667D02*
X60748152Y-23716191D01*
X60748152Y-23716191D02*
X60795771Y-23620953D01*
X61414819Y-23144762D02*
X60748152Y-23144762D01*
X60414819Y-23144762D02*
X60462438Y-23192381D01*
X60462438Y-23192381D02*
X60510057Y-23144762D01*
X60510057Y-23144762D02*
X60462438Y-23097143D01*
X60462438Y-23097143D02*
X60414819Y-23144762D01*
X60414819Y-23144762D02*
X60510057Y-23144762D01*
X60748152Y-22240001D02*
X61557676Y-22240001D01*
X61557676Y-22240001D02*
X61652914Y-22287620D01*
X61652914Y-22287620D02*
X61700533Y-22335239D01*
X61700533Y-22335239D02*
X61748152Y-22430477D01*
X61748152Y-22430477D02*
X61748152Y-22573334D01*
X61748152Y-22573334D02*
X61700533Y-22668572D01*
X61367200Y-22240001D02*
X61414819Y-22335239D01*
X61414819Y-22335239D02*
X61414819Y-22525715D01*
X61414819Y-22525715D02*
X61367200Y-22620953D01*
X61367200Y-22620953D02*
X61319580Y-22668572D01*
X61319580Y-22668572D02*
X61224342Y-22716191D01*
X61224342Y-22716191D02*
X60938628Y-22716191D01*
X60938628Y-22716191D02*
X60843390Y-22668572D01*
X60843390Y-22668572D02*
X60795771Y-22620953D01*
X60795771Y-22620953D02*
X60748152Y-22525715D01*
X60748152Y-22525715D02*
X60748152Y-22335239D01*
X60748152Y-22335239D02*
X60795771Y-22240001D01*
X61414819Y-21763810D02*
X60748152Y-21763810D01*
X60414819Y-21763810D02*
X60462438Y-21811429D01*
X60462438Y-21811429D02*
X60510057Y-21763810D01*
X60510057Y-21763810D02*
X60462438Y-21716191D01*
X60462438Y-21716191D02*
X60414819Y-21763810D01*
X60414819Y-21763810D02*
X60510057Y-21763810D01*
X60748152Y-21430477D02*
X60748152Y-21049525D01*
X60414819Y-21287620D02*
X61271961Y-21287620D01*
X61271961Y-21287620D02*
X61367200Y-21240001D01*
X61367200Y-21240001D02*
X61414819Y-21144763D01*
X61414819Y-21144763D02*
X61414819Y-21049525D01*
X61414819Y-20287620D02*
X60891009Y-20287620D01*
X60891009Y-20287620D02*
X60795771Y-20335239D01*
X60795771Y-20335239D02*
X60748152Y-20430477D01*
X60748152Y-20430477D02*
X60748152Y-20620953D01*
X60748152Y-20620953D02*
X60795771Y-20716191D01*
X61367200Y-20287620D02*
X61414819Y-20382858D01*
X61414819Y-20382858D02*
X61414819Y-20620953D01*
X61414819Y-20620953D02*
X61367200Y-20716191D01*
X61367200Y-20716191D02*
X61271961Y-20763810D01*
X61271961Y-20763810D02*
X61176723Y-20763810D01*
X61176723Y-20763810D02*
X61081485Y-20716191D01*
X61081485Y-20716191D02*
X61033866Y-20620953D01*
X61033866Y-20620953D02*
X61033866Y-20382858D01*
X61033866Y-20382858D02*
X60986247Y-20287620D01*
X61414819Y-19668572D02*
X61367200Y-19763810D01*
X61367200Y-19763810D02*
X61271961Y-19811429D01*
X61271961Y-19811429D02*
X60414819Y-19811429D01*
X61414819Y-18382857D02*
X61367200Y-18478095D01*
X61367200Y-18478095D02*
X61271961Y-18525714D01*
X61271961Y-18525714D02*
X60414819Y-18525714D01*
X61414819Y-17859047D02*
X61367200Y-17954285D01*
X61367200Y-17954285D02*
X61319580Y-18001904D01*
X61319580Y-18001904D02*
X61224342Y-18049523D01*
X61224342Y-18049523D02*
X60938628Y-18049523D01*
X60938628Y-18049523D02*
X60843390Y-18001904D01*
X60843390Y-18001904D02*
X60795771Y-17954285D01*
X60795771Y-17954285D02*
X60748152Y-17859047D01*
X60748152Y-17859047D02*
X60748152Y-17716190D01*
X60748152Y-17716190D02*
X60795771Y-17620952D01*
X60795771Y-17620952D02*
X60843390Y-17573333D01*
X60843390Y-17573333D02*
X60938628Y-17525714D01*
X60938628Y-17525714D02*
X61224342Y-17525714D01*
X61224342Y-17525714D02*
X61319580Y-17573333D01*
X61319580Y-17573333D02*
X61367200Y-17620952D01*
X61367200Y-17620952D02*
X61414819Y-17716190D01*
X61414819Y-17716190D02*
X61414819Y-17859047D01*
X60748152Y-16668571D02*
X61557676Y-16668571D01*
X61557676Y-16668571D02*
X61652914Y-16716190D01*
X61652914Y-16716190D02*
X61700533Y-16763809D01*
X61700533Y-16763809D02*
X61748152Y-16859047D01*
X61748152Y-16859047D02*
X61748152Y-17001904D01*
X61748152Y-17001904D02*
X61700533Y-17097142D01*
X61367200Y-16668571D02*
X61414819Y-16763809D01*
X61414819Y-16763809D02*
X61414819Y-16954285D01*
X61414819Y-16954285D02*
X61367200Y-17049523D01*
X61367200Y-17049523D02*
X61319580Y-17097142D01*
X61319580Y-17097142D02*
X61224342Y-17144761D01*
X61224342Y-17144761D02*
X60938628Y-17144761D01*
X60938628Y-17144761D02*
X60843390Y-17097142D01*
X60843390Y-17097142D02*
X60795771Y-17049523D01*
X60795771Y-17049523D02*
X60748152Y-16954285D01*
X60748152Y-16954285D02*
X60748152Y-16763809D01*
X60748152Y-16763809D02*
X60795771Y-16668571D01*
X61414819Y-16192380D02*
X60748152Y-16192380D01*
X60414819Y-16192380D02*
X60462438Y-16239999D01*
X60462438Y-16239999D02*
X60510057Y-16192380D01*
X60510057Y-16192380D02*
X60462438Y-16144761D01*
X60462438Y-16144761D02*
X60414819Y-16192380D01*
X60414819Y-16192380D02*
X60510057Y-16192380D01*
X61367200Y-15287619D02*
X61414819Y-15382857D01*
X61414819Y-15382857D02*
X61414819Y-15573333D01*
X61414819Y-15573333D02*
X61367200Y-15668571D01*
X61367200Y-15668571D02*
X61319580Y-15716190D01*
X61319580Y-15716190D02*
X61224342Y-15763809D01*
X61224342Y-15763809D02*
X60938628Y-15763809D01*
X60938628Y-15763809D02*
X60843390Y-15716190D01*
X60843390Y-15716190D02*
X60795771Y-15668571D01*
X60795771Y-15668571D02*
X60748152Y-15573333D01*
X60748152Y-15573333D02*
X60748152Y-15382857D01*
X60748152Y-15382857D02*
X60795771Y-15287619D01*
X61367200Y-13668571D02*
X61414819Y-13763809D01*
X61414819Y-13763809D02*
X61414819Y-13954285D01*
X61414819Y-13954285D02*
X61367200Y-14049523D01*
X61367200Y-14049523D02*
X61319580Y-14097142D01*
X61319580Y-14097142D02*
X61224342Y-14144761D01*
X61224342Y-14144761D02*
X60938628Y-14144761D01*
X60938628Y-14144761D02*
X60843390Y-14097142D01*
X60843390Y-14097142D02*
X60795771Y-14049523D01*
X60795771Y-14049523D02*
X60748152Y-13954285D01*
X60748152Y-13954285D02*
X60748152Y-13763809D01*
X60748152Y-13763809D02*
X60795771Y-13668571D01*
X61414819Y-13097142D02*
X61367200Y-13192380D01*
X61367200Y-13192380D02*
X61319580Y-13239999D01*
X61319580Y-13239999D02*
X61224342Y-13287618D01*
X61224342Y-13287618D02*
X60938628Y-13287618D01*
X60938628Y-13287618D02*
X60843390Y-13239999D01*
X60843390Y-13239999D02*
X60795771Y-13192380D01*
X60795771Y-13192380D02*
X60748152Y-13097142D01*
X60748152Y-13097142D02*
X60748152Y-12954285D01*
X60748152Y-12954285D02*
X60795771Y-12859047D01*
X60795771Y-12859047D02*
X60843390Y-12811428D01*
X60843390Y-12811428D02*
X60938628Y-12763809D01*
X60938628Y-12763809D02*
X61224342Y-12763809D01*
X61224342Y-12763809D02*
X61319580Y-12811428D01*
X61319580Y-12811428D02*
X61367200Y-12859047D01*
X61367200Y-12859047D02*
X61414819Y-12954285D01*
X61414819Y-12954285D02*
X61414819Y-13097142D01*
X60748152Y-12335237D02*
X61414819Y-12335237D01*
X60843390Y-12335237D02*
X60795771Y-12287618D01*
X60795771Y-12287618D02*
X60748152Y-12192380D01*
X60748152Y-12192380D02*
X60748152Y-12049523D01*
X60748152Y-12049523D02*
X60795771Y-11954285D01*
X60795771Y-11954285D02*
X60891009Y-11906666D01*
X60891009Y-11906666D02*
X61414819Y-11906666D01*
X60748152Y-11430475D02*
X61414819Y-11430475D01*
X60843390Y-11430475D02*
X60795771Y-11382856D01*
X60795771Y-11382856D02*
X60748152Y-11287618D01*
X60748152Y-11287618D02*
X60748152Y-11144761D01*
X60748152Y-11144761D02*
X60795771Y-11049523D01*
X60795771Y-11049523D02*
X60891009Y-11001904D01*
X60891009Y-11001904D02*
X61414819Y-11001904D01*
X61367200Y-10144761D02*
X61414819Y-10239999D01*
X61414819Y-10239999D02*
X61414819Y-10430475D01*
X61414819Y-10430475D02*
X61367200Y-10525713D01*
X61367200Y-10525713D02*
X61271961Y-10573332D01*
X61271961Y-10573332D02*
X60891009Y-10573332D01*
X60891009Y-10573332D02*
X60795771Y-10525713D01*
X60795771Y-10525713D02*
X60748152Y-10430475D01*
X60748152Y-10430475D02*
X60748152Y-10239999D01*
X60748152Y-10239999D02*
X60795771Y-10144761D01*
X60795771Y-10144761D02*
X60891009Y-10097142D01*
X60891009Y-10097142D02*
X60986247Y-10097142D01*
X60986247Y-10097142D02*
X61081485Y-10573332D01*
X61367200Y-9239999D02*
X61414819Y-9335237D01*
X61414819Y-9335237D02*
X61414819Y-9525713D01*
X61414819Y-9525713D02*
X61367200Y-9620951D01*
X61367200Y-9620951D02*
X61319580Y-9668570D01*
X61319580Y-9668570D02*
X61224342Y-9716189D01*
X61224342Y-9716189D02*
X60938628Y-9716189D01*
X60938628Y-9716189D02*
X60843390Y-9668570D01*
X60843390Y-9668570D02*
X60795771Y-9620951D01*
X60795771Y-9620951D02*
X60748152Y-9525713D01*
X60748152Y-9525713D02*
X60748152Y-9335237D01*
X60748152Y-9335237D02*
X60795771Y-9239999D01*
X60748152Y-8954284D02*
X60748152Y-8573332D01*
X60414819Y-8811427D02*
X61271961Y-8811427D01*
X61271961Y-8811427D02*
X61367200Y-8763808D01*
X61367200Y-8763808D02*
X61414819Y-8668570D01*
X61414819Y-8668570D02*
X61414819Y-8573332D01*
X61414819Y-8239998D02*
X60748152Y-8239998D01*
X60414819Y-8239998D02*
X60462438Y-8287617D01*
X60462438Y-8287617D02*
X60510057Y-8239998D01*
X60510057Y-8239998D02*
X60462438Y-8192379D01*
X60462438Y-8192379D02*
X60414819Y-8239998D01*
X60414819Y-8239998D02*
X60510057Y-8239998D01*
X61414819Y-7620951D02*
X61367200Y-7716189D01*
X61367200Y-7716189D02*
X61319580Y-7763808D01*
X61319580Y-7763808D02*
X61224342Y-7811427D01*
X61224342Y-7811427D02*
X60938628Y-7811427D01*
X60938628Y-7811427D02*
X60843390Y-7763808D01*
X60843390Y-7763808D02*
X60795771Y-7716189D01*
X60795771Y-7716189D02*
X60748152Y-7620951D01*
X60748152Y-7620951D02*
X60748152Y-7478094D01*
X60748152Y-7478094D02*
X60795771Y-7382856D01*
X60795771Y-7382856D02*
X60843390Y-7335237D01*
X60843390Y-7335237D02*
X60938628Y-7287618D01*
X60938628Y-7287618D02*
X61224342Y-7287618D01*
X61224342Y-7287618D02*
X61319580Y-7335237D01*
X61319580Y-7335237D02*
X61367200Y-7382856D01*
X61367200Y-7382856D02*
X61414819Y-7478094D01*
X61414819Y-7478094D02*
X61414819Y-7620951D01*
X60748152Y-6859046D02*
X61414819Y-6859046D01*
X60843390Y-6859046D02*
X60795771Y-6811427D01*
X60795771Y-6811427D02*
X60748152Y-6716189D01*
X60748152Y-6716189D02*
X60748152Y-6573332D01*
X60748152Y-6573332D02*
X60795771Y-6478094D01*
X60795771Y-6478094D02*
X60891009Y-6430475D01*
X60891009Y-6430475D02*
X61414819Y-6430475D01*
X60626666Y-24854819D02*
X60626666Y-25569104D01*
X60626666Y-25569104D02*
X60579047Y-25711961D01*
X60579047Y-25711961D02*
X60483809Y-25807200D01*
X60483809Y-25807200D02*
X60340952Y-25854819D01*
X60340952Y-25854819D02*
X60245714Y-25854819D01*
X61007619Y-24854819D02*
X61626666Y-24854819D01*
X61626666Y-24854819D02*
X61293333Y-25235771D01*
X61293333Y-25235771D02*
X61436190Y-25235771D01*
X61436190Y-25235771D02*
X61531428Y-25283390D01*
X61531428Y-25283390D02*
X61579047Y-25331009D01*
X61579047Y-25331009D02*
X61626666Y-25426247D01*
X61626666Y-25426247D02*
X61626666Y-25664342D01*
X61626666Y-25664342D02*
X61579047Y-25759580D01*
X61579047Y-25759580D02*
X61531428Y-25807200D01*
X61531428Y-25807200D02*
X61436190Y-25854819D01*
X61436190Y-25854819D02*
X61150476Y-25854819D01*
X61150476Y-25854819D02*
X61055238Y-25807200D01*
X61055238Y-25807200D02*
X61007619Y-25759580D01*
D10*
%TO.C,U3*%
X134450109Y-32970990D02*
X134450109Y-32330990D01*
X134450109Y-35510990D02*
X134450109Y-34870990D01*
X134450109Y-38050990D02*
X134450109Y-37410990D01*
X134450109Y-40590990D02*
X134450109Y-39950990D01*
X140450109Y-31380990D02*
X142990109Y-31380990D01*
X140450109Y-32330990D02*
X134450109Y-32330990D01*
X140450109Y-32970990D02*
X134450109Y-32970990D01*
X140450109Y-34870990D02*
X134450109Y-34870990D01*
X140450109Y-35510990D02*
X134450109Y-35510990D01*
X140450109Y-37410990D02*
X134450109Y-37410990D01*
X140450109Y-38050990D02*
X134450109Y-38050990D01*
X140450109Y-39950990D02*
X134450109Y-39950990D01*
X140450109Y-40590990D02*
X134450109Y-40590990D01*
X140450109Y-41540990D02*
X140450109Y-31380990D01*
X142355109Y-41540990D02*
X140450109Y-41540990D01*
X142990109Y-31380990D02*
X142990109Y-40905990D01*
X142990109Y-40905990D02*
X142355109Y-41540990D01*
X144810109Y-32330990D02*
X142990109Y-32330990D01*
X144810109Y-32970990D02*
X142990109Y-32970990D01*
X144810109Y-32970990D02*
X144810109Y-32330990D01*
X144810109Y-34870990D02*
X142990109Y-34870990D01*
X144810109Y-35510990D02*
X142990109Y-35510990D01*
X144810109Y-35510990D02*
X144810109Y-34870990D01*
X144810109Y-37410990D02*
X142990109Y-37410990D01*
X144810109Y-38050990D02*
X142990109Y-38050990D01*
X144810109Y-38050990D02*
X144810109Y-37410990D01*
X144810109Y-39950990D02*
X142990109Y-39950990D01*
X144810109Y-40590990D02*
X142990109Y-40590990D01*
X144810109Y-40590990D02*
X144810109Y-39950990D01*
%TO.C,U4*%
X80638599Y-84054231D02*
X79368599Y-85324231D01*
X80638599Y-54844231D02*
X80638599Y-84054231D01*
X79368599Y-85324231D02*
X75558599Y-85324231D01*
X75558599Y-85324231D02*
X75558599Y-54844231D01*
X75558599Y-54844231D02*
X80638599Y-54844231D01*
%TO.C,R2*%
X144780000Y-58420000D02*
X146710000Y-58420000D01*
X146710000Y-57170000D02*
X146710000Y-59670000D01*
X146710000Y-59670000D02*
X153010000Y-59670000D01*
X153010000Y-57170000D02*
X146710000Y-57170000D01*
X153010000Y-59670000D02*
X153010000Y-57170000D01*
X154940000Y-58420000D02*
X153010000Y-58420000D01*
%TO.C,U1*%
X81673636Y-26055635D02*
X81673636Y-46375635D01*
X73163636Y-26055635D02*
X81673636Y-26055635D01*
X73163636Y-27025635D02*
X69103636Y-27025635D01*
X69103636Y-27025635D02*
X69103636Y-27625635D01*
X69103636Y-27625635D02*
X73163636Y-27625635D01*
X73163636Y-29565635D02*
X69103636Y-29565635D01*
X69103636Y-29565635D02*
X69103636Y-30165635D01*
X69103636Y-30165635D02*
X73163636Y-30165635D01*
X73163636Y-32105635D02*
X69103636Y-32105635D01*
X69103636Y-32105635D02*
X69103636Y-32705635D01*
X69103636Y-32705635D02*
X73163636Y-32705635D01*
X73163636Y-34645635D02*
X69103636Y-34645635D01*
X69103636Y-34645635D02*
X69103636Y-35245635D01*
X69103636Y-35245635D02*
X73163636Y-35245635D01*
X73163636Y-37185635D02*
X69103636Y-37185635D01*
X69103636Y-37185635D02*
X69103636Y-37785635D01*
X69103636Y-37785635D02*
X73163636Y-37785635D01*
X73163636Y-39725635D02*
X69103636Y-39725635D01*
X69103636Y-39725635D02*
X69103636Y-40325635D01*
X69103636Y-40325635D02*
X73163636Y-40325635D01*
X73163636Y-42265635D02*
X69103636Y-42265635D01*
X69103636Y-42265635D02*
X69103636Y-42865635D01*
X69103636Y-42865635D02*
X73163636Y-42865635D01*
X73163636Y-44805635D02*
X69103636Y-44805635D01*
X69103636Y-44805635D02*
X69103636Y-45405635D01*
X73163636Y-45405635D02*
X73163636Y-26055635D01*
X69103636Y-45405635D02*
X73163636Y-45405635D01*
X81673636Y-46375635D02*
X74133636Y-46375635D01*
X74133636Y-46375635D02*
X73163636Y-45405635D01*
%TO.C,R3*%
X144780000Y-78740000D02*
X146710000Y-78740000D01*
X146710000Y-77490000D02*
X146710000Y-79990000D01*
X146710000Y-79990000D02*
X153010000Y-79990000D01*
X153010000Y-77490000D02*
X146710000Y-77490000D01*
X153010000Y-79990000D02*
X153010000Y-77490000D01*
X154940000Y-78740000D02*
X153010000Y-78740000D01*
%TO.C,R4*%
X154940000Y-83820000D02*
X153010000Y-83820000D01*
X153010000Y-85070000D02*
X153010000Y-82570000D01*
X153010000Y-82570000D02*
X146710000Y-82570000D01*
X146710000Y-85070000D02*
X153010000Y-85070000D01*
X146710000Y-82570000D02*
X146710000Y-85070000D01*
X144780000Y-83820000D02*
X146710000Y-83820000D01*
%TO.C,R1*%
X144780000Y-53340000D02*
X146710000Y-53340000D01*
X146710000Y-52090000D02*
X146710000Y-54590000D01*
X146710000Y-54590000D02*
X153010000Y-54590000D01*
X153010000Y-52090000D02*
X146710000Y-52090000D01*
X153010000Y-54590000D02*
X153010000Y-52090000D01*
X154940000Y-53340000D02*
X153010000Y-53340000D01*
%TO.C,J1*%
X148560000Y-73720000D02*
X151160000Y-73720000D01*
X148560000Y-73720000D02*
X147260000Y-72020000D01*
X151160000Y-73720000D02*
X152460000Y-72020000D01*
X147260000Y-72020000D02*
X147260000Y-63520000D01*
X152460000Y-72020000D02*
X152460000Y-63520000D01*
X147260000Y-63520000D02*
X152460000Y-63520000D01*
%TO.C,J2*%
X64135000Y-29210000D02*
X64770000Y-29845000D01*
X57150000Y-29210000D02*
X64135000Y-29210000D01*
X64770000Y-29845000D02*
X64770000Y-31750000D01*
X64770000Y-31750000D02*
X57150000Y-31750000D01*
X57150000Y-31750000D02*
X57150000Y-29210000D01*
%TO.C,BZ1*%
X49467845Y-27978236D02*
G75*
G03*
X49467845Y-27978236I-1000000J0D01*
G01*
X54467845Y-27978236D02*
G75*
G03*
X54467845Y-27978236I-6000000J0D01*
G01*
%TO.C,J3*%
X57785000Y-26670000D02*
X57150000Y-26035000D01*
X64770000Y-26670000D02*
X57785000Y-26670000D01*
X57150000Y-26035000D02*
X57150000Y-24130000D01*
X57150000Y-24130000D02*
X64770000Y-24130000D01*
X64770000Y-24130000D02*
X64770000Y-26670000D01*
%TD*%
M02*
