%TF.GenerationSoftware,KiCad,Pcbnew,(6.0.9)*%
%TF.CreationDate,2023-04-14T20:57:09-04:00*%
%TF.ProjectId,rrc_pcb2,7272635f-7063-4623-922e-6b696361645f,rev?*%
%TF.SameCoordinates,Original*%
%TF.FileFunction,Legend,Top*%
%TF.FilePolarity,Positive*%
%FSLAX46Y46*%
G04 Gerber Fmt 4.6, Leading zero omitted, Abs format (unit mm)*
G04 Created by KiCad (PCBNEW (6.0.9)) date 2023-04-14 20:57:09*
%MOMM*%
%LPD*%
G01*
G04 APERTURE LIST*
%ADD10C,0.100000*%
%ADD11C,0.150000*%
%ADD12C,0.300000*%
%ADD13C,0.400000*%
%TA.AperFunction,Profile*%
%ADD14C,0.050000*%
%TD*%
%ADD15C,0.120000*%
G04 APERTURE END LIST*
D10*
D11*
X177002200Y-166007200D02*
X177002200Y-198007200D01*
X285002200Y-198007200D01*
X285002200Y-166007200D01*
X177002200Y-166007200D01*
D10*
D11*
X10000000Y-10000000D02*
X10000000Y-200007200D01*
X287002200Y-200007200D01*
X287002200Y-10000000D01*
X10000000Y-10000000D01*
D10*
D11*
X12000000Y-12000000D02*
X12000000Y-198007200D01*
X285002200Y-198007200D01*
X285002200Y-12000000D01*
X12000000Y-12000000D01*
D10*
D11*
X60000000Y-12000000D02*
X60000000Y-10000000D01*
D10*
D11*
X110000000Y-12000000D02*
X110000000Y-10000000D01*
D10*
D11*
X160000000Y-12000000D02*
X160000000Y-10000000D01*
D10*
D11*
X210000000Y-12000000D02*
X210000000Y-10000000D01*
D10*
D11*
X260000000Y-12000000D02*
X260000000Y-10000000D01*
D10*
D11*
X36065476Y-11588095D02*
X35322619Y-11588095D01*
X35694047Y-11588095D02*
X35694047Y-10288095D01*
X35570238Y-10473809D01*
X35446428Y-10597619D01*
X35322619Y-10659523D01*
D10*
D11*
X85322619Y-10411904D02*
X85384523Y-10350000D01*
X85508333Y-10288095D01*
X85817857Y-10288095D01*
X85941666Y-10350000D01*
X86003571Y-10411904D01*
X86065476Y-10535714D01*
X86065476Y-10659523D01*
X86003571Y-10845238D01*
X85260714Y-11588095D01*
X86065476Y-11588095D01*
D10*
D11*
X135260714Y-10288095D02*
X136065476Y-10288095D01*
X135632142Y-10783333D01*
X135817857Y-10783333D01*
X135941666Y-10845238D01*
X136003571Y-10907142D01*
X136065476Y-11030952D01*
X136065476Y-11340476D01*
X136003571Y-11464285D01*
X135941666Y-11526190D01*
X135817857Y-11588095D01*
X135446428Y-11588095D01*
X135322619Y-11526190D01*
X135260714Y-11464285D01*
D10*
D11*
X185941666Y-10721428D02*
X185941666Y-11588095D01*
X185632142Y-10226190D02*
X185322619Y-11154761D01*
X186127380Y-11154761D01*
D10*
D11*
X236003571Y-10288095D02*
X235384523Y-10288095D01*
X235322619Y-10907142D01*
X235384523Y-10845238D01*
X235508333Y-10783333D01*
X235817857Y-10783333D01*
X235941666Y-10845238D01*
X236003571Y-10907142D01*
X236065476Y-11030952D01*
X236065476Y-11340476D01*
X236003571Y-11464285D01*
X235941666Y-11526190D01*
X235817857Y-11588095D01*
X235508333Y-11588095D01*
X235384523Y-11526190D01*
X235322619Y-11464285D01*
D10*
D11*
X285941666Y-10288095D02*
X285694047Y-10288095D01*
X285570238Y-10350000D01*
X285508333Y-10411904D01*
X285384523Y-10597619D01*
X285322619Y-10845238D01*
X285322619Y-11340476D01*
X285384523Y-11464285D01*
X285446428Y-11526190D01*
X285570238Y-11588095D01*
X285817857Y-11588095D01*
X285941666Y-11526190D01*
X286003571Y-11464285D01*
X286065476Y-11340476D01*
X286065476Y-11030952D01*
X286003571Y-10907142D01*
X285941666Y-10845238D01*
X285817857Y-10783333D01*
X285570238Y-10783333D01*
X285446428Y-10845238D01*
X285384523Y-10907142D01*
X285322619Y-11030952D01*
D10*
D11*
X60000000Y-198007200D02*
X60000000Y-200007200D01*
D10*
D11*
X110000000Y-198007200D02*
X110000000Y-200007200D01*
D10*
D11*
X160000000Y-198007200D02*
X160000000Y-200007200D01*
D10*
D11*
X210000000Y-198007200D02*
X210000000Y-200007200D01*
D10*
D11*
X260000000Y-198007200D02*
X260000000Y-200007200D01*
D10*
D11*
X36065476Y-199595295D02*
X35322619Y-199595295D01*
X35694047Y-199595295D02*
X35694047Y-198295295D01*
X35570238Y-198481009D01*
X35446428Y-198604819D01*
X35322619Y-198666723D01*
D10*
D11*
X85322619Y-198419104D02*
X85384523Y-198357200D01*
X85508333Y-198295295D01*
X85817857Y-198295295D01*
X85941666Y-198357200D01*
X86003571Y-198419104D01*
X86065476Y-198542914D01*
X86065476Y-198666723D01*
X86003571Y-198852438D01*
X85260714Y-199595295D01*
X86065476Y-199595295D01*
D10*
D11*
X135260714Y-198295295D02*
X136065476Y-198295295D01*
X135632142Y-198790533D01*
X135817857Y-198790533D01*
X135941666Y-198852438D01*
X136003571Y-198914342D01*
X136065476Y-199038152D01*
X136065476Y-199347676D01*
X136003571Y-199471485D01*
X135941666Y-199533390D01*
X135817857Y-199595295D01*
X135446428Y-199595295D01*
X135322619Y-199533390D01*
X135260714Y-199471485D01*
D10*
D11*
X185941666Y-198728628D02*
X185941666Y-199595295D01*
X185632142Y-198233390D02*
X185322619Y-199161961D01*
X186127380Y-199161961D01*
D10*
D11*
X236003571Y-198295295D02*
X235384523Y-198295295D01*
X235322619Y-198914342D01*
X235384523Y-198852438D01*
X235508333Y-198790533D01*
X235817857Y-198790533D01*
X235941666Y-198852438D01*
X236003571Y-198914342D01*
X236065476Y-199038152D01*
X236065476Y-199347676D01*
X236003571Y-199471485D01*
X235941666Y-199533390D01*
X235817857Y-199595295D01*
X235508333Y-199595295D01*
X235384523Y-199533390D01*
X235322619Y-199471485D01*
D10*
D11*
X285941666Y-198295295D02*
X285694047Y-198295295D01*
X285570238Y-198357200D01*
X285508333Y-198419104D01*
X285384523Y-198604819D01*
X285322619Y-198852438D01*
X285322619Y-199347676D01*
X285384523Y-199471485D01*
X285446428Y-199533390D01*
X285570238Y-199595295D01*
X285817857Y-199595295D01*
X285941666Y-199533390D01*
X286003571Y-199471485D01*
X286065476Y-199347676D01*
X286065476Y-199038152D01*
X286003571Y-198914342D01*
X285941666Y-198852438D01*
X285817857Y-198790533D01*
X285570238Y-198790533D01*
X285446428Y-198852438D01*
X285384523Y-198914342D01*
X285322619Y-199038152D01*
D10*
D11*
X10000000Y-60000000D02*
X12000000Y-60000000D01*
D10*
D11*
X10000000Y-110000000D02*
X12000000Y-110000000D01*
D10*
D11*
X10000000Y-160000000D02*
X12000000Y-160000000D01*
D10*
D11*
X10690476Y-35216666D02*
X11309523Y-35216666D01*
X10566666Y-35588095D02*
X11000000Y-34288095D01*
X11433333Y-35588095D01*
D10*
D11*
X11092857Y-84907142D02*
X11278571Y-84969047D01*
X11340476Y-85030952D01*
X11402380Y-85154761D01*
X11402380Y-85340476D01*
X11340476Y-85464285D01*
X11278571Y-85526190D01*
X11154761Y-85588095D01*
X10659523Y-85588095D01*
X10659523Y-84288095D01*
X11092857Y-84288095D01*
X11216666Y-84350000D01*
X11278571Y-84411904D01*
X11340476Y-84535714D01*
X11340476Y-84659523D01*
X11278571Y-84783333D01*
X11216666Y-84845238D01*
X11092857Y-84907142D01*
X10659523Y-84907142D01*
D10*
D11*
X11402380Y-135464285D02*
X11340476Y-135526190D01*
X11154761Y-135588095D01*
X11030952Y-135588095D01*
X10845238Y-135526190D01*
X10721428Y-135402380D01*
X10659523Y-135278571D01*
X10597619Y-135030952D01*
X10597619Y-134845238D01*
X10659523Y-134597619D01*
X10721428Y-134473809D01*
X10845238Y-134350000D01*
X11030952Y-134288095D01*
X11154761Y-134288095D01*
X11340476Y-134350000D01*
X11402380Y-134411904D01*
D10*
D11*
X10659523Y-185588095D02*
X10659523Y-184288095D01*
X10969047Y-184288095D01*
X11154761Y-184350000D01*
X11278571Y-184473809D01*
X11340476Y-184597619D01*
X11402380Y-184845238D01*
X11402380Y-185030952D01*
X11340476Y-185278571D01*
X11278571Y-185402380D01*
X11154761Y-185526190D01*
X10969047Y-185588095D01*
X10659523Y-185588095D01*
D10*
D11*
X287002200Y-60000000D02*
X285002200Y-60000000D01*
D10*
D11*
X287002200Y-110000000D02*
X285002200Y-110000000D01*
D10*
D11*
X287002200Y-160000000D02*
X285002200Y-160000000D01*
D10*
D11*
X285692676Y-35216666D02*
X286311723Y-35216666D01*
X285568866Y-35588095D02*
X286002200Y-34288095D01*
X286435533Y-35588095D01*
D10*
D11*
X286095057Y-84907142D02*
X286280771Y-84969047D01*
X286342676Y-85030952D01*
X286404580Y-85154761D01*
X286404580Y-85340476D01*
X286342676Y-85464285D01*
X286280771Y-85526190D01*
X286156961Y-85588095D01*
X285661723Y-85588095D01*
X285661723Y-84288095D01*
X286095057Y-84288095D01*
X286218866Y-84350000D01*
X286280771Y-84411904D01*
X286342676Y-84535714D01*
X286342676Y-84659523D01*
X286280771Y-84783333D01*
X286218866Y-84845238D01*
X286095057Y-84907142D01*
X285661723Y-84907142D01*
D10*
D11*
X286404580Y-135464285D02*
X286342676Y-135526190D01*
X286156961Y-135588095D01*
X286033152Y-135588095D01*
X285847438Y-135526190D01*
X285723628Y-135402380D01*
X285661723Y-135278571D01*
X285599819Y-135030952D01*
X285599819Y-134845238D01*
X285661723Y-134597619D01*
X285723628Y-134473809D01*
X285847438Y-134350000D01*
X286033152Y-134288095D01*
X286156961Y-134288095D01*
X286342676Y-134350000D01*
X286404580Y-134411904D01*
D10*
D11*
X285661723Y-185588095D02*
X285661723Y-184288095D01*
X285971247Y-184288095D01*
X286156961Y-184350000D01*
X286280771Y-184473809D01*
X286342676Y-184597619D01*
X286404580Y-184845238D01*
X286404580Y-185030952D01*
X286342676Y-185278571D01*
X286280771Y-185402380D01*
X286156961Y-185526190D01*
X285971247Y-185588095D01*
X285661723Y-185588095D01*
D10*
D11*
X200434342Y-193785771D02*
X200434342Y-192285771D01*
X200791485Y-192285771D01*
X201005771Y-192357200D01*
X201148628Y-192500057D01*
X201220057Y-192642914D01*
X201291485Y-192928628D01*
X201291485Y-193142914D01*
X201220057Y-193428628D01*
X201148628Y-193571485D01*
X201005771Y-193714342D01*
X200791485Y-193785771D01*
X200434342Y-193785771D01*
X202577200Y-193785771D02*
X202577200Y-193000057D01*
X202505771Y-192857200D01*
X202362914Y-192785771D01*
X202077200Y-192785771D01*
X201934342Y-192857200D01*
X202577200Y-193714342D02*
X202434342Y-193785771D01*
X202077200Y-193785771D01*
X201934342Y-193714342D01*
X201862914Y-193571485D01*
X201862914Y-193428628D01*
X201934342Y-193285771D01*
X202077200Y-193214342D01*
X202434342Y-193214342D01*
X202577200Y-193142914D01*
X203077200Y-192785771D02*
X203648628Y-192785771D01*
X203291485Y-192285771D02*
X203291485Y-193571485D01*
X203362914Y-193714342D01*
X203505771Y-193785771D01*
X203648628Y-193785771D01*
X204720057Y-193714342D02*
X204577200Y-193785771D01*
X204291485Y-193785771D01*
X204148628Y-193714342D01*
X204077200Y-193571485D01*
X204077200Y-193000057D01*
X204148628Y-192857200D01*
X204291485Y-192785771D01*
X204577200Y-192785771D01*
X204720057Y-192857200D01*
X204791485Y-193000057D01*
X204791485Y-193142914D01*
X204077200Y-193285771D01*
X205434342Y-193642914D02*
X205505771Y-193714342D01*
X205434342Y-193785771D01*
X205362914Y-193714342D01*
X205434342Y-193642914D01*
X205434342Y-193785771D01*
X205434342Y-192857200D02*
X205505771Y-192928628D01*
X205434342Y-193000057D01*
X205362914Y-192928628D01*
X205434342Y-192857200D01*
X205434342Y-193000057D01*
D10*
D11*
X177002200Y-194507200D02*
X285002200Y-194507200D01*
D10*
D11*
X178434342Y-196585771D02*
X178434342Y-195085771D01*
X179291485Y-196585771D02*
X178648628Y-195728628D01*
X179291485Y-195085771D02*
X178434342Y-195942914D01*
X179934342Y-196585771D02*
X179934342Y-195585771D01*
X179934342Y-195085771D02*
X179862914Y-195157200D01*
X179934342Y-195228628D01*
X180005771Y-195157200D01*
X179934342Y-195085771D01*
X179934342Y-195228628D01*
X181505771Y-196442914D02*
X181434342Y-196514342D01*
X181220057Y-196585771D01*
X181077200Y-196585771D01*
X180862914Y-196514342D01*
X180720057Y-196371485D01*
X180648628Y-196228628D01*
X180577200Y-195942914D01*
X180577200Y-195728628D01*
X180648628Y-195442914D01*
X180720057Y-195300057D01*
X180862914Y-195157200D01*
X181077200Y-195085771D01*
X181220057Y-195085771D01*
X181434342Y-195157200D01*
X181505771Y-195228628D01*
X182791485Y-196585771D02*
X182791485Y-195800057D01*
X182720057Y-195657200D01*
X182577200Y-195585771D01*
X182291485Y-195585771D01*
X182148628Y-195657200D01*
X182791485Y-196514342D02*
X182648628Y-196585771D01*
X182291485Y-196585771D01*
X182148628Y-196514342D01*
X182077200Y-196371485D01*
X182077200Y-196228628D01*
X182148628Y-196085771D01*
X182291485Y-196014342D01*
X182648628Y-196014342D01*
X182791485Y-195942914D01*
X184148628Y-196585771D02*
X184148628Y-195085771D01*
X184148628Y-196514342D02*
X184005771Y-196585771D01*
X183720057Y-196585771D01*
X183577200Y-196514342D01*
X183505771Y-196442914D01*
X183434342Y-196300057D01*
X183434342Y-195871485D01*
X183505771Y-195728628D01*
X183577200Y-195657200D01*
X183720057Y-195585771D01*
X184005771Y-195585771D01*
X184148628Y-195657200D01*
X186005771Y-195800057D02*
X186505771Y-195800057D01*
X186720057Y-196585771D02*
X186005771Y-196585771D01*
X186005771Y-195085771D01*
X186720057Y-195085771D01*
X187362914Y-196442914D02*
X187434342Y-196514342D01*
X187362914Y-196585771D01*
X187291485Y-196514342D01*
X187362914Y-196442914D01*
X187362914Y-196585771D01*
X188077200Y-196585771D02*
X188077200Y-195085771D01*
X188434342Y-195085771D01*
X188648628Y-195157200D01*
X188791485Y-195300057D01*
X188862914Y-195442914D01*
X188934342Y-195728628D01*
X188934342Y-195942914D01*
X188862914Y-196228628D01*
X188791485Y-196371485D01*
X188648628Y-196514342D01*
X188434342Y-196585771D01*
X188077200Y-196585771D01*
X189577200Y-196442914D02*
X189648628Y-196514342D01*
X189577200Y-196585771D01*
X189505771Y-196514342D01*
X189577200Y-196442914D01*
X189577200Y-196585771D01*
X190220057Y-196157200D02*
X190934342Y-196157200D01*
X190077200Y-196585771D02*
X190577200Y-195085771D01*
X191077200Y-196585771D01*
X191577200Y-196442914D02*
X191648628Y-196514342D01*
X191577200Y-196585771D01*
X191505771Y-196514342D01*
X191577200Y-196442914D01*
X191577200Y-196585771D01*
X194577200Y-195585771D02*
X194577200Y-197085771D01*
X194577200Y-195657200D02*
X194720057Y-195585771D01*
X195005771Y-195585771D01*
X195148628Y-195657200D01*
X195220057Y-195728628D01*
X195291485Y-195871485D01*
X195291485Y-196300057D01*
X195220057Y-196442914D01*
X195148628Y-196514342D01*
X195005771Y-196585771D01*
X194720057Y-196585771D01*
X194577200Y-196514342D01*
X196577200Y-196514342D02*
X196434342Y-196585771D01*
X196148628Y-196585771D01*
X196005771Y-196514342D01*
X195934342Y-196442914D01*
X195862914Y-196300057D01*
X195862914Y-195871485D01*
X195934342Y-195728628D01*
X196005771Y-195657200D01*
X196148628Y-195585771D01*
X196434342Y-195585771D01*
X196577200Y-195657200D01*
X197220057Y-196585771D02*
X197220057Y-195085771D01*
X197220057Y-195657200D02*
X197362914Y-195585771D01*
X197648628Y-195585771D01*
X197791485Y-195657200D01*
X197862914Y-195728628D01*
X197934342Y-195871485D01*
X197934342Y-196300057D01*
X197862914Y-196442914D01*
X197791485Y-196514342D01*
X197648628Y-196585771D01*
X197362914Y-196585771D01*
X197220057Y-196514342D01*
X198577200Y-195585771D02*
X198577200Y-196585771D01*
X198577200Y-195728628D02*
X198648628Y-195657200D01*
X198791485Y-195585771D01*
X199005771Y-195585771D01*
X199148628Y-195657200D01*
X199220057Y-195800057D01*
X199220057Y-196585771D01*
X200505771Y-196514342D02*
X200362914Y-196585771D01*
X200077200Y-196585771D01*
X199934342Y-196514342D01*
X199862914Y-196371485D01*
X199862914Y-195800057D01*
X199934342Y-195657200D01*
X200077200Y-195585771D01*
X200362914Y-195585771D01*
X200505771Y-195657200D01*
X200577200Y-195800057D01*
X200577200Y-195942914D01*
X199862914Y-196085771D01*
X201077200Y-195585771D02*
X201362914Y-196585771D01*
X201648628Y-195871485D01*
X201934342Y-196585771D01*
X202220057Y-195585771D01*
X204362914Y-197157200D02*
X204291485Y-197085771D01*
X204148628Y-196871485D01*
X204077200Y-196728628D01*
X204005771Y-196514342D01*
X203934342Y-196157200D01*
X203934342Y-195871485D01*
X204005771Y-195514342D01*
X204077200Y-195300057D01*
X204148628Y-195157200D01*
X204291485Y-194942914D01*
X204362914Y-194871485D01*
X205577200Y-195085771D02*
X205291485Y-195085771D01*
X205148628Y-195157200D01*
X205077200Y-195228628D01*
X204934342Y-195442914D01*
X204862914Y-195728628D01*
X204862914Y-196300057D01*
X204934342Y-196442914D01*
X205005771Y-196514342D01*
X205148628Y-196585771D01*
X205434342Y-196585771D01*
X205577200Y-196514342D01*
X205648628Y-196442914D01*
X205720057Y-196300057D01*
X205720057Y-195942914D01*
X205648628Y-195800057D01*
X205577200Y-195728628D01*
X205434342Y-195657200D01*
X205148628Y-195657200D01*
X205005771Y-195728628D01*
X204934342Y-195800057D01*
X204862914Y-195942914D01*
X206362914Y-196442914D02*
X206434342Y-196514342D01*
X206362914Y-196585771D01*
X206291485Y-196514342D01*
X206362914Y-196442914D01*
X206362914Y-196585771D01*
X207362914Y-195085771D02*
X207505771Y-195085771D01*
X207648628Y-195157200D01*
X207720057Y-195228628D01*
X207791485Y-195371485D01*
X207862914Y-195657200D01*
X207862914Y-196014342D01*
X207791485Y-196300057D01*
X207720057Y-196442914D01*
X207648628Y-196514342D01*
X207505771Y-196585771D01*
X207362914Y-196585771D01*
X207220057Y-196514342D01*
X207148628Y-196442914D01*
X207077200Y-196300057D01*
X207005771Y-196014342D01*
X207005771Y-195657200D01*
X207077200Y-195371485D01*
X207148628Y-195228628D01*
X207220057Y-195157200D01*
X207362914Y-195085771D01*
X208505771Y-196442914D02*
X208577200Y-196514342D01*
X208505771Y-196585771D01*
X208434342Y-196514342D01*
X208505771Y-196442914D01*
X208505771Y-196585771D01*
X209291485Y-196585771D02*
X209577200Y-196585771D01*
X209720057Y-196514342D01*
X209791485Y-196442914D01*
X209934342Y-196228628D01*
X210005771Y-195942914D01*
X210005771Y-195371485D01*
X209934342Y-195228628D01*
X209862914Y-195157200D01*
X209720057Y-195085771D01*
X209434342Y-195085771D01*
X209291485Y-195157200D01*
X209220057Y-195228628D01*
X209148628Y-195371485D01*
X209148628Y-195728628D01*
X209220057Y-195871485D01*
X209291485Y-195942914D01*
X209434342Y-196014342D01*
X209720057Y-196014342D01*
X209862914Y-195942914D01*
X209934342Y-195871485D01*
X210005771Y-195728628D01*
X210505771Y-197157200D02*
X210577200Y-197085771D01*
X210720057Y-196871485D01*
X210791485Y-196728628D01*
X210862914Y-196514342D01*
X210934342Y-196157200D01*
X210934342Y-195871485D01*
X210862914Y-195514342D01*
X210791485Y-195300057D01*
X210720057Y-195157200D01*
X210577200Y-194942914D01*
X210505771Y-194871485D01*
D10*
D11*
X177002200Y-191507200D02*
X285002200Y-191507200D01*
D10*
D12*
X264411485Y-193785771D02*
X263911485Y-193071485D01*
X263554342Y-193785771D02*
X263554342Y-192285771D01*
X264125771Y-192285771D01*
X264268628Y-192357200D01*
X264340057Y-192428628D01*
X264411485Y-192571485D01*
X264411485Y-192785771D01*
X264340057Y-192928628D01*
X264268628Y-193000057D01*
X264125771Y-193071485D01*
X263554342Y-193071485D01*
X265625771Y-193714342D02*
X265482914Y-193785771D01*
X265197200Y-193785771D01*
X265054342Y-193714342D01*
X264982914Y-193571485D01*
X264982914Y-193000057D01*
X265054342Y-192857200D01*
X265197200Y-192785771D01*
X265482914Y-192785771D01*
X265625771Y-192857200D01*
X265697200Y-193000057D01*
X265697200Y-193142914D01*
X264982914Y-193285771D01*
X266197200Y-192785771D02*
X266554342Y-193785771D01*
X266911485Y-192785771D01*
X267482914Y-193642914D02*
X267554342Y-193714342D01*
X267482914Y-193785771D01*
X267411485Y-193714342D01*
X267482914Y-193642914D01*
X267482914Y-193785771D01*
X267482914Y-192857200D02*
X267554342Y-192928628D01*
X267482914Y-193000057D01*
X267411485Y-192928628D01*
X267482914Y-192857200D01*
X267482914Y-193000057D01*
D10*
D11*
X178362914Y-193714342D02*
X178577200Y-193785771D01*
X178934342Y-193785771D01*
X179077200Y-193714342D01*
X179148628Y-193642914D01*
X179220057Y-193500057D01*
X179220057Y-193357200D01*
X179148628Y-193214342D01*
X179077200Y-193142914D01*
X178934342Y-193071485D01*
X178648628Y-193000057D01*
X178505771Y-192928628D01*
X178434342Y-192857200D01*
X178362914Y-192714342D01*
X178362914Y-192571485D01*
X178434342Y-192428628D01*
X178505771Y-192357200D01*
X178648628Y-192285771D01*
X179005771Y-192285771D01*
X179220057Y-192357200D01*
X179862914Y-193785771D02*
X179862914Y-192785771D01*
X179862914Y-192285771D02*
X179791485Y-192357200D01*
X179862914Y-192428628D01*
X179934342Y-192357200D01*
X179862914Y-192285771D01*
X179862914Y-192428628D01*
X180434342Y-192785771D02*
X181220057Y-192785771D01*
X180434342Y-193785771D01*
X181220057Y-193785771D01*
X182362914Y-193714342D02*
X182220057Y-193785771D01*
X181934342Y-193785771D01*
X181791485Y-193714342D01*
X181720057Y-193571485D01*
X181720057Y-193000057D01*
X181791485Y-192857200D01*
X181934342Y-192785771D01*
X182220057Y-192785771D01*
X182362914Y-192857200D01*
X182434342Y-193000057D01*
X182434342Y-193142914D01*
X181720057Y-193285771D01*
X183077200Y-193642914D02*
X183148628Y-193714342D01*
X183077200Y-193785771D01*
X183005771Y-193714342D01*
X183077200Y-193642914D01*
X183077200Y-193785771D01*
X183077200Y-192857200D02*
X183148628Y-192928628D01*
X183077200Y-193000057D01*
X183005771Y-192928628D01*
X183077200Y-192857200D01*
X183077200Y-193000057D01*
X184862914Y-193357200D02*
X185577200Y-193357200D01*
X184720057Y-193785771D02*
X185220057Y-192285771D01*
X185720057Y-193785771D01*
X186862914Y-192785771D02*
X186862914Y-193785771D01*
X186505771Y-192214342D02*
X186148628Y-193285771D01*
X187077200Y-193285771D01*
D10*
D11*
X263434342Y-196585771D02*
X263434342Y-195085771D01*
X264791485Y-196585771D02*
X264791485Y-195085771D01*
X264791485Y-196514342D02*
X264648628Y-196585771D01*
X264362914Y-196585771D01*
X264220057Y-196514342D01*
X264148628Y-196442914D01*
X264077200Y-196300057D01*
X264077200Y-195871485D01*
X264148628Y-195728628D01*
X264220057Y-195657200D01*
X264362914Y-195585771D01*
X264648628Y-195585771D01*
X264791485Y-195657200D01*
X265505771Y-196442914D02*
X265577200Y-196514342D01*
X265505771Y-196585771D01*
X265434342Y-196514342D01*
X265505771Y-196442914D01*
X265505771Y-196585771D01*
X265505771Y-195657200D02*
X265577200Y-195728628D01*
X265505771Y-195800057D01*
X265434342Y-195728628D01*
X265505771Y-195657200D01*
X265505771Y-195800057D01*
X268148628Y-196585771D02*
X267291485Y-196585771D01*
X267720057Y-196585771D02*
X267720057Y-195085771D01*
X267577200Y-195300057D01*
X267434342Y-195442914D01*
X267291485Y-195514342D01*
X269862914Y-195014342D02*
X268577200Y-196942914D01*
X271148628Y-196585771D02*
X270291485Y-196585771D01*
X270720057Y-196585771D02*
X270720057Y-195085771D01*
X270577200Y-195300057D01*
X270434342Y-195442914D01*
X270291485Y-195514342D01*
D10*
D11*
X177002200Y-187507200D02*
X285002200Y-187507200D01*
D10*
D13*
X178714580Y-188211961D02*
X179857438Y-188211961D01*
X179036009Y-190211961D02*
X179286009Y-188211961D01*
X180274104Y-190211961D02*
X180440771Y-188878628D01*
X180524104Y-188211961D02*
X180416961Y-188307200D01*
X180500295Y-188402438D01*
X180607438Y-188307200D01*
X180524104Y-188211961D01*
X180500295Y-188402438D01*
X181107438Y-188878628D02*
X181869342Y-188878628D01*
X181476485Y-188211961D02*
X181262200Y-189926247D01*
X181333628Y-190116723D01*
X181512200Y-190211961D01*
X181702676Y-190211961D01*
X182655057Y-190211961D02*
X182476485Y-190116723D01*
X182405057Y-189926247D01*
X182619342Y-188211961D01*
X184190771Y-190116723D02*
X183988390Y-190211961D01*
X183607438Y-190211961D01*
X183428866Y-190116723D01*
X183357438Y-189926247D01*
X183452676Y-189164342D01*
X183571723Y-188973866D01*
X183774104Y-188878628D01*
X184155057Y-188878628D01*
X184333628Y-188973866D01*
X184405057Y-189164342D01*
X184381247Y-189354819D01*
X183405057Y-189545295D01*
X185155057Y-190021485D02*
X185238390Y-190116723D01*
X185131247Y-190211961D01*
X185047914Y-190116723D01*
X185155057Y-190021485D01*
X185131247Y-190211961D01*
X185286009Y-188973866D02*
X185369342Y-189069104D01*
X185262200Y-189164342D01*
X185178866Y-189069104D01*
X185286009Y-188973866D01*
X185262200Y-189164342D01*
D10*
D11*
X178934342Y-185600057D02*
X178434342Y-185600057D01*
X178434342Y-186385771D02*
X178434342Y-184885771D01*
X179148628Y-184885771D01*
X179720057Y-186385771D02*
X179720057Y-185385771D01*
X179720057Y-184885771D02*
X179648628Y-184957200D01*
X179720057Y-185028628D01*
X179791485Y-184957200D01*
X179720057Y-184885771D01*
X179720057Y-185028628D01*
X180648628Y-186385771D02*
X180505771Y-186314342D01*
X180434342Y-186171485D01*
X180434342Y-184885771D01*
X181791485Y-186314342D02*
X181648628Y-186385771D01*
X181362914Y-186385771D01*
X181220057Y-186314342D01*
X181148628Y-186171485D01*
X181148628Y-185600057D01*
X181220057Y-185457200D01*
X181362914Y-185385771D01*
X181648628Y-185385771D01*
X181791485Y-185457200D01*
X181862914Y-185600057D01*
X181862914Y-185742914D01*
X181148628Y-185885771D01*
X182505771Y-186242914D02*
X182577200Y-186314342D01*
X182505771Y-186385771D01*
X182434342Y-186314342D01*
X182505771Y-186242914D01*
X182505771Y-186385771D01*
X182505771Y-185457200D02*
X182577200Y-185528628D01*
X182505771Y-185600057D01*
X182434342Y-185528628D01*
X182505771Y-185457200D01*
X182505771Y-185600057D01*
X184362914Y-186385771D02*
X184362914Y-185385771D01*
X184362914Y-185671485D02*
X184434342Y-185528628D01*
X184505771Y-185457200D01*
X184648628Y-185385771D01*
X184791485Y-185385771D01*
X185291485Y-186385771D02*
X185291485Y-185385771D01*
X185291485Y-185671485D02*
X185362914Y-185528628D01*
X185434342Y-185457200D01*
X185577200Y-185385771D01*
X185720057Y-185385771D01*
X186862914Y-186314342D02*
X186720057Y-186385771D01*
X186434342Y-186385771D01*
X186291485Y-186314342D01*
X186220057Y-186242914D01*
X186148628Y-186100057D01*
X186148628Y-185671485D01*
X186220057Y-185528628D01*
X186291485Y-185457200D01*
X186434342Y-185385771D01*
X186720057Y-185385771D01*
X186862914Y-185457200D01*
X187148628Y-186528628D02*
X188291485Y-186528628D01*
X188648628Y-185385771D02*
X188648628Y-186885771D01*
X188648628Y-185457200D02*
X188791485Y-185385771D01*
X189077200Y-185385771D01*
X189220057Y-185457200D01*
X189291485Y-185528628D01*
X189362914Y-185671485D01*
X189362914Y-186100057D01*
X189291485Y-186242914D01*
X189220057Y-186314342D01*
X189077200Y-186385771D01*
X188791485Y-186385771D01*
X188648628Y-186314342D01*
X190648628Y-186314342D02*
X190505771Y-186385771D01*
X190220057Y-186385771D01*
X190077200Y-186314342D01*
X190005771Y-186242914D01*
X189934342Y-186100057D01*
X189934342Y-185671485D01*
X190005771Y-185528628D01*
X190077200Y-185457200D01*
X190220057Y-185385771D01*
X190505771Y-185385771D01*
X190648628Y-185457200D01*
X191291485Y-186385771D02*
X191291485Y-184885771D01*
X191291485Y-185457200D02*
X191434342Y-185385771D01*
X191720057Y-185385771D01*
X191862914Y-185457200D01*
X191934342Y-185528628D01*
X192005771Y-185671485D01*
X192005771Y-186100057D01*
X191934342Y-186242914D01*
X191862914Y-186314342D01*
X191720057Y-186385771D01*
X191434342Y-186385771D01*
X191291485Y-186314342D01*
X192577200Y-185028628D02*
X192648628Y-184957200D01*
X192791485Y-184885771D01*
X193148628Y-184885771D01*
X193291485Y-184957200D01*
X193362914Y-185028628D01*
X193434342Y-185171485D01*
X193434342Y-185314342D01*
X193362914Y-185528628D01*
X192505771Y-186385771D01*
X193434342Y-186385771D01*
X194077200Y-186242914D02*
X194148628Y-186314342D01*
X194077200Y-186385771D01*
X194005771Y-186314342D01*
X194077200Y-186242914D01*
X194077200Y-186385771D01*
X194791485Y-186385771D02*
X194791485Y-184885771D01*
X194934342Y-185814342D02*
X195362914Y-186385771D01*
X195362914Y-185385771D02*
X194791485Y-185957200D01*
X196005771Y-186385771D02*
X196005771Y-185385771D01*
X196005771Y-184885771D02*
X195934342Y-184957200D01*
X196005771Y-185028628D01*
X196077200Y-184957200D01*
X196005771Y-184885771D01*
X196005771Y-185028628D01*
X197362914Y-186314342D02*
X197220057Y-186385771D01*
X196934342Y-186385771D01*
X196791485Y-186314342D01*
X196720057Y-186242914D01*
X196648628Y-186100057D01*
X196648628Y-185671485D01*
X196720057Y-185528628D01*
X196791485Y-185457200D01*
X196934342Y-185385771D01*
X197220057Y-185385771D01*
X197362914Y-185457200D01*
X198648628Y-186385771D02*
X198648628Y-185600057D01*
X198577200Y-185457200D01*
X198434342Y-185385771D01*
X198148628Y-185385771D01*
X198005771Y-185457200D01*
X198648628Y-186314342D02*
X198505771Y-186385771D01*
X198148628Y-186385771D01*
X198005771Y-186314342D01*
X197934342Y-186171485D01*
X197934342Y-186028628D01*
X198005771Y-185885771D01*
X198148628Y-185814342D01*
X198505771Y-185814342D01*
X198648628Y-185742914D01*
X200005771Y-186385771D02*
X200005771Y-184885771D01*
X200005771Y-186314342D02*
X199862914Y-186385771D01*
X199577200Y-186385771D01*
X199434342Y-186314342D01*
X199362914Y-186242914D01*
X199291485Y-186100057D01*
X199291485Y-185671485D01*
X199362914Y-185528628D01*
X199434342Y-185457200D01*
X199577200Y-185385771D01*
X199862914Y-185385771D01*
X200005771Y-185457200D01*
X200362914Y-186528628D02*
X201505771Y-186528628D01*
X201862914Y-185385771D02*
X201862914Y-186885771D01*
X201862914Y-185457200D02*
X202005771Y-185385771D01*
X202291485Y-185385771D01*
X202434342Y-185457200D01*
X202505771Y-185528628D01*
X202577200Y-185671485D01*
X202577200Y-186100057D01*
X202505771Y-186242914D01*
X202434342Y-186314342D01*
X202291485Y-186385771D01*
X202005771Y-186385771D01*
X201862914Y-186314342D01*
X203862914Y-186314342D02*
X203720057Y-186385771D01*
X203434342Y-186385771D01*
X203291485Y-186314342D01*
X203220057Y-186242914D01*
X203148628Y-186100057D01*
X203148628Y-185671485D01*
X203220057Y-185528628D01*
X203291485Y-185457200D01*
X203434342Y-185385771D01*
X203720057Y-185385771D01*
X203862914Y-185457200D01*
X204505771Y-186385771D02*
X204505771Y-184885771D01*
X204505771Y-185457200D02*
X204648628Y-185385771D01*
X204934342Y-185385771D01*
X205077200Y-185457200D01*
X205148628Y-185528628D01*
X205220057Y-185671485D01*
X205220057Y-186100057D01*
X205148628Y-186242914D01*
X205077200Y-186314342D01*
X204934342Y-186385771D01*
X204648628Y-186385771D01*
X204505771Y-186314342D01*
D10*
D11*
X177002200Y-181507200D02*
X285002200Y-181507200D01*
D10*
D11*
X178362914Y-183614342D02*
X178577200Y-183685771D01*
X178934342Y-183685771D01*
X179077200Y-183614342D01*
X179148628Y-183542914D01*
X179220057Y-183400057D01*
X179220057Y-183257200D01*
X179148628Y-183114342D01*
X179077200Y-183042914D01*
X178934342Y-182971485D01*
X178648628Y-182900057D01*
X178505771Y-182828628D01*
X178434342Y-182757200D01*
X178362914Y-182614342D01*
X178362914Y-182471485D01*
X178434342Y-182328628D01*
X178505771Y-182257200D01*
X178648628Y-182185771D01*
X179005771Y-182185771D01*
X179220057Y-182257200D01*
X179862914Y-183685771D02*
X179862914Y-182185771D01*
X180505771Y-183685771D02*
X180505771Y-182900057D01*
X180434342Y-182757200D01*
X180291485Y-182685771D01*
X180077200Y-182685771D01*
X179934342Y-182757200D01*
X179862914Y-182828628D01*
X181791485Y-183614342D02*
X181648628Y-183685771D01*
X181362914Y-183685771D01*
X181220057Y-183614342D01*
X181148628Y-183471485D01*
X181148628Y-182900057D01*
X181220057Y-182757200D01*
X181362914Y-182685771D01*
X181648628Y-182685771D01*
X181791485Y-182757200D01*
X181862914Y-182900057D01*
X181862914Y-183042914D01*
X181148628Y-183185771D01*
X183077200Y-183614342D02*
X182934342Y-183685771D01*
X182648628Y-183685771D01*
X182505771Y-183614342D01*
X182434342Y-183471485D01*
X182434342Y-182900057D01*
X182505771Y-182757200D01*
X182648628Y-182685771D01*
X182934342Y-182685771D01*
X183077200Y-182757200D01*
X183148628Y-182900057D01*
X183148628Y-183042914D01*
X182434342Y-183185771D01*
X183577200Y-182685771D02*
X184148628Y-182685771D01*
X183791485Y-182185771D02*
X183791485Y-183471485D01*
X183862914Y-183614342D01*
X184005771Y-183685771D01*
X184148628Y-183685771D01*
X184648628Y-183542914D02*
X184720057Y-183614342D01*
X184648628Y-183685771D01*
X184577200Y-183614342D01*
X184648628Y-183542914D01*
X184648628Y-183685771D01*
X184648628Y-182757200D02*
X184720057Y-182828628D01*
X184648628Y-182900057D01*
X184577200Y-182828628D01*
X184648628Y-182757200D01*
X184648628Y-182900057D01*
D10*
D12*
D10*
D11*
D10*
D11*
D10*
D11*
D10*
D11*
D10*
D11*
X197002200Y-191507200D02*
X197002200Y-194507200D01*
D10*
D11*
X261002200Y-191507200D02*
X261002200Y-198007200D01*
D14*
X41910000Y-20656715D02*
X180340000Y-20656715D01*
X180340000Y-20656715D02*
X180340000Y-88900000D01*
X180340000Y-88900000D02*
X41910000Y-88900000D01*
X41910000Y-88900000D02*
X41910000Y-20656715D01*
D11*
%TO.C,REF\u002A\u002A*%
X85647983Y-41875874D02*
X85171793Y-42209207D01*
X85647983Y-42447302D02*
X84647983Y-42447302D01*
X84647983Y-42066350D01*
X84695603Y-41971112D01*
X84743222Y-41923493D01*
X84838460Y-41875874D01*
X84981317Y-41875874D01*
X85076555Y-41923493D01*
X85124174Y-41971112D01*
X85171793Y-42066350D01*
X85171793Y-42447302D01*
X85124174Y-41447302D02*
X85124174Y-41113969D01*
X85647983Y-40971112D02*
X85647983Y-41447302D01*
X84647983Y-41447302D01*
X84647983Y-40971112D01*
X85124174Y-40209207D02*
X85124174Y-40542541D01*
X85647983Y-40542541D02*
X84647983Y-40542541D01*
X84647983Y-40066350D01*
X84647983Y-39542541D02*
X84886079Y-39542541D01*
X84790841Y-39780636D02*
X84886079Y-39542541D01*
X84790841Y-39304445D01*
X85076555Y-39685398D02*
X84886079Y-39542541D01*
X85076555Y-39399683D01*
X84647983Y-38780636D02*
X84886079Y-38780636D01*
X84790841Y-39018731D02*
X84886079Y-38780636D01*
X84790841Y-38542541D01*
X85076555Y-38923493D02*
X84886079Y-38780636D01*
X85076555Y-38637779D01*
%TO.C,R2*%
X131478283Y-52033316D02*
X131144950Y-51557126D01*
X130906854Y-52033316D02*
X130906854Y-51033316D01*
X131287807Y-51033316D01*
X131383045Y-51080936D01*
X131430664Y-51128555D01*
X131478283Y-51223793D01*
X131478283Y-51366650D01*
X131430664Y-51461888D01*
X131383045Y-51509507D01*
X131287807Y-51557126D01*
X130906854Y-51557126D01*
X131859235Y-51128555D02*
X131906854Y-51080936D01*
X132002092Y-51033316D01*
X132240188Y-51033316D01*
X132335426Y-51080936D01*
X132383045Y-51128555D01*
X132430664Y-51223793D01*
X132430664Y-51319031D01*
X132383045Y-51461888D01*
X131811616Y-52033316D01*
X132430664Y-52033316D01*
%TO.C,R3*%
X131440097Y-85151733D02*
X131106764Y-84675543D01*
X130868668Y-85151733D02*
X130868668Y-84151733D01*
X131249621Y-84151733D01*
X131344859Y-84199353D01*
X131392478Y-84246972D01*
X131440097Y-84342210D01*
X131440097Y-84485067D01*
X131392478Y-84580305D01*
X131344859Y-84627924D01*
X131249621Y-84675543D01*
X130868668Y-84675543D01*
X131773430Y-84151733D02*
X132392478Y-84151733D01*
X132059144Y-84532686D01*
X132202002Y-84532686D01*
X132297240Y-84580305D01*
X132344859Y-84627924D01*
X132392478Y-84723162D01*
X132392478Y-84961257D01*
X132344859Y-85056495D01*
X132297240Y-85104114D01*
X132202002Y-85151733D01*
X131916287Y-85151733D01*
X131821049Y-85104114D01*
X131773430Y-85056495D01*
%TO.C,R4*%
X147193794Y-90200174D02*
X146860461Y-89723984D01*
X146622365Y-90200174D02*
X146622365Y-89200174D01*
X147003318Y-89200174D01*
X147098556Y-89247794D01*
X147146175Y-89295413D01*
X147193794Y-89390651D01*
X147193794Y-89533508D01*
X147146175Y-89628746D01*
X147098556Y-89676365D01*
X147003318Y-89723984D01*
X146622365Y-89723984D01*
X148050937Y-89533508D02*
X148050937Y-90200174D01*
X147812841Y-89152555D02*
X147574746Y-89866841D01*
X148193794Y-89866841D01*
%TO.C,R1*%
X131558032Y-48045875D02*
X131224699Y-47569685D01*
X130986603Y-48045875D02*
X130986603Y-47045875D01*
X131367556Y-47045875D01*
X131462794Y-47093495D01*
X131510413Y-47141114D01*
X131558032Y-47236352D01*
X131558032Y-47379209D01*
X131510413Y-47474447D01*
X131462794Y-47522066D01*
X131367556Y-47569685D01*
X130986603Y-47569685D01*
X132510413Y-48045875D02*
X131938984Y-48045875D01*
X132224699Y-48045875D02*
X132224699Y-47045875D01*
X132129460Y-47188733D01*
X132034222Y-47283971D01*
X131938984Y-47331590D01*
%TO.C,J1*%
X168807380Y-35218333D02*
X169521666Y-35218333D01*
X169664523Y-35265952D01*
X169759761Y-35361190D01*
X169807380Y-35504047D01*
X169807380Y-35599285D01*
X169807380Y-34218333D02*
X169807380Y-34789761D01*
X169807380Y-34504047D02*
X168807380Y-34504047D01*
X168950238Y-34599285D01*
X169045476Y-34694523D01*
X169093095Y-34789761D01*
X173462142Y-41956428D02*
X173462142Y-40813571D01*
X173462142Y-28956428D02*
X173462142Y-27813571D01*
X174033571Y-28385000D02*
X172890714Y-28385000D01*
%TO.C,U4*%
X155443707Y-59814517D02*
X155443707Y-60624041D01*
X155491326Y-60719279D01*
X155538945Y-60766898D01*
X155634183Y-60814517D01*
X155824659Y-60814517D01*
X155919897Y-60766898D01*
X155967516Y-60719279D01*
X156015135Y-60624041D01*
X156015135Y-59814517D01*
X156919897Y-60147851D02*
X156919897Y-60814517D01*
X156681802Y-59766898D02*
X156443707Y-60481184D01*
X157062754Y-60481184D01*
%TO.C,U2*%
X118832380Y-54101904D02*
X119641904Y-54101904D01*
X119737142Y-54054285D01*
X119784761Y-54006666D01*
X119832380Y-53911428D01*
X119832380Y-53720952D01*
X119784761Y-53625714D01*
X119737142Y-53578095D01*
X119641904Y-53530476D01*
X118832380Y-53530476D01*
X118927619Y-53101904D02*
X118880000Y-53054285D01*
X118832380Y-52959047D01*
X118832380Y-52720952D01*
X118880000Y-52625714D01*
X118927619Y-52578095D01*
X119022857Y-52530476D01*
X119118095Y-52530476D01*
X119260952Y-52578095D01*
X119832380Y-53149523D01*
X119832380Y-52530476D01*
X106362857Y-43108571D02*
X106696190Y-43108571D01*
X106839047Y-43632380D02*
X106362857Y-43632380D01*
X106362857Y-42632380D01*
X106839047Y-42632380D01*
X107124761Y-42965714D02*
X107505714Y-42965714D01*
X107267619Y-42632380D02*
X107267619Y-43489523D01*
X107315238Y-43584761D01*
X107410476Y-43632380D01*
X107505714Y-43632380D01*
X107839047Y-43632380D02*
X107839047Y-42632380D01*
X108267619Y-43632380D02*
X108267619Y-43108571D01*
X108220000Y-43013333D01*
X108124761Y-42965714D01*
X107981904Y-42965714D01*
X107886666Y-43013333D01*
X107839047Y-43060952D01*
X109124761Y-43584761D02*
X109029523Y-43632380D01*
X108839047Y-43632380D01*
X108743809Y-43584761D01*
X108696190Y-43489523D01*
X108696190Y-43108571D01*
X108743809Y-43013333D01*
X108839047Y-42965714D01*
X109029523Y-42965714D01*
X109124761Y-43013333D01*
X109172380Y-43108571D01*
X109172380Y-43203809D01*
X108696190Y-43299047D01*
X109600952Y-43632380D02*
X109600952Y-42965714D01*
X109600952Y-43156190D02*
X109648571Y-43060952D01*
X109696190Y-43013333D01*
X109791428Y-42965714D01*
X109886666Y-42965714D01*
X110220000Y-42965714D02*
X110220000Y-43632380D01*
X110220000Y-43060952D02*
X110267619Y-43013333D01*
X110362857Y-42965714D01*
X110505714Y-42965714D01*
X110600952Y-43013333D01*
X110648571Y-43108571D01*
X110648571Y-43632380D01*
X111505714Y-43584761D02*
X111410476Y-43632380D01*
X111220000Y-43632380D01*
X111124761Y-43584761D01*
X111077142Y-43489523D01*
X111077142Y-43108571D01*
X111124761Y-43013333D01*
X111220000Y-42965714D01*
X111410476Y-42965714D01*
X111505714Y-43013333D01*
X111553333Y-43108571D01*
X111553333Y-43203809D01*
X111077142Y-43299047D01*
X111839047Y-42965714D02*
X112220000Y-42965714D01*
X111981904Y-42632380D02*
X111981904Y-43489523D01*
X112029523Y-43584761D01*
X112124761Y-43632380D01*
X112220000Y-43632380D01*
X106136666Y-52386666D02*
X106136666Y-51686666D01*
X106370000Y-52186666D01*
X106603333Y-51686666D01*
X106603333Y-52386666D01*
X106936666Y-52386666D02*
X106936666Y-51686666D01*
X107270000Y-52386666D02*
X107270000Y-51686666D01*
X107503333Y-52186666D01*
X107736666Y-51686666D01*
X107736666Y-52386666D01*
X108003333Y-51686666D02*
X108470000Y-52386666D01*
X108470000Y-51686666D02*
X108003333Y-52386666D01*
X109136666Y-52386666D02*
X108903333Y-52053333D01*
X108736666Y-52386666D02*
X108736666Y-51686666D01*
X109003333Y-51686666D01*
X109070000Y-51720000D01*
X109103333Y-51753333D01*
X109136666Y-51820000D01*
X109136666Y-51920000D01*
X109103333Y-51986666D01*
X109070000Y-52020000D01*
X109003333Y-52053333D01*
X108736666Y-52053333D01*
X109336666Y-51686666D02*
X109736666Y-51686666D01*
X109536666Y-52386666D02*
X109536666Y-51686666D01*
X110336666Y-52386666D02*
X109936666Y-52386666D01*
X110136666Y-52386666D02*
X110136666Y-51686666D01*
X110070000Y-51786666D01*
X110003333Y-51853333D01*
X109936666Y-51886666D01*
X110770000Y-51686666D02*
X110836666Y-51686666D01*
X110903333Y-51720000D01*
X110936666Y-51753333D01*
X110970000Y-51820000D01*
X111003333Y-51953333D01*
X111003333Y-52120000D01*
X110970000Y-52253333D01*
X110936666Y-52320000D01*
X110903333Y-52353333D01*
X110836666Y-52386666D01*
X110770000Y-52386666D01*
X110703333Y-52353333D01*
X110670000Y-52320000D01*
X110636666Y-52253333D01*
X110603333Y-52120000D01*
X110603333Y-51953333D01*
X110636666Y-51820000D01*
X110670000Y-51753333D01*
X110703333Y-51720000D01*
X110770000Y-51686666D01*
X111603333Y-51686666D02*
X111470000Y-51686666D01*
X111403333Y-51720000D01*
X111370000Y-51753333D01*
X111303333Y-51853333D01*
X111270000Y-51986666D01*
X111270000Y-52253333D01*
X111303333Y-52320000D01*
X111336666Y-52353333D01*
X111403333Y-52386666D01*
X111536666Y-52386666D01*
X111603333Y-52353333D01*
X111636666Y-52320000D01*
X111670000Y-52253333D01*
X111670000Y-52086666D01*
X111636666Y-52020000D01*
X111603333Y-51986666D01*
X111536666Y-51953333D01*
X111403333Y-51953333D01*
X111336666Y-51986666D01*
X111303333Y-52020000D01*
X111270000Y-52086666D01*
X111936666Y-51753333D02*
X111970000Y-51720000D01*
X112036666Y-51686666D01*
X112203333Y-51686666D01*
X112270000Y-51720000D01*
X112303333Y-51753333D01*
X112336666Y-51820000D01*
X112336666Y-51886666D01*
X112303333Y-51986666D01*
X111903333Y-52386666D01*
X112336666Y-52386666D01*
X107958095Y-26122380D02*
X107958095Y-26931904D01*
X108005714Y-27027142D01*
X108053333Y-27074761D01*
X108148571Y-27122380D01*
X108339047Y-27122380D01*
X108434285Y-27074761D01*
X108481904Y-27027142D01*
X108529523Y-26931904D01*
X108529523Y-26122380D01*
X108958095Y-27074761D02*
X109100952Y-27122380D01*
X109339047Y-27122380D01*
X109434285Y-27074761D01*
X109481904Y-27027142D01*
X109529523Y-26931904D01*
X109529523Y-26836666D01*
X109481904Y-26741428D01*
X109434285Y-26693809D01*
X109339047Y-26646190D01*
X109148571Y-26598571D01*
X109053333Y-26550952D01*
X109005714Y-26503333D01*
X108958095Y-26408095D01*
X108958095Y-26312857D01*
X109005714Y-26217619D01*
X109053333Y-26170000D01*
X109148571Y-26122380D01*
X109386666Y-26122380D01*
X109529523Y-26170000D01*
X110291428Y-26598571D02*
X110434285Y-26646190D01*
X110481904Y-26693809D01*
X110529523Y-26789047D01*
X110529523Y-26931904D01*
X110481904Y-27027142D01*
X110434285Y-27074761D01*
X110339047Y-27122380D01*
X109958095Y-27122380D01*
X109958095Y-26122380D01*
X110291428Y-26122380D01*
X110386666Y-26170000D01*
X110434285Y-26217619D01*
X110481904Y-26312857D01*
X110481904Y-26408095D01*
X110434285Y-26503333D01*
X110386666Y-26550952D01*
X110291428Y-26598571D01*
X109958095Y-26598571D01*
X108016666Y-51116666D02*
X108016666Y-50416666D01*
X108183333Y-50416666D01*
X108283333Y-50450000D01*
X108350000Y-50516666D01*
X108383333Y-50583333D01*
X108416666Y-50716666D01*
X108416666Y-50816666D01*
X108383333Y-50950000D01*
X108350000Y-51016666D01*
X108283333Y-51083333D01*
X108183333Y-51116666D01*
X108016666Y-51116666D01*
X108616666Y-50416666D02*
X108850000Y-51116666D01*
X109083333Y-50416666D01*
X109516666Y-50416666D02*
X109516666Y-50916666D01*
X109483333Y-51016666D01*
X109416666Y-51083333D01*
X109316666Y-51116666D01*
X109250000Y-51116666D01*
X110150000Y-50416666D02*
X110016666Y-50416666D01*
X109950000Y-50450000D01*
X109916666Y-50483333D01*
X109850000Y-50583333D01*
X109816666Y-50716666D01*
X109816666Y-50983333D01*
X109850000Y-51050000D01*
X109883333Y-51083333D01*
X109950000Y-51116666D01*
X110083333Y-51116666D01*
X110150000Y-51083333D01*
X110183333Y-51050000D01*
X110216666Y-50983333D01*
X110216666Y-50816666D01*
X110183333Y-50750000D01*
X110150000Y-50716666D01*
X110083333Y-50683333D01*
X109950000Y-50683333D01*
X109883333Y-50716666D01*
X109850000Y-50750000D01*
X109816666Y-50816666D01*
X110483333Y-50916666D02*
X110816666Y-50916666D01*
X110416666Y-51116666D02*
X110650000Y-50416666D01*
X110883333Y-51116666D01*
X109672380Y-80589047D02*
X108672380Y-80589047D01*
X109386666Y-80255714D01*
X108672380Y-79922380D01*
X109672380Y-79922380D01*
X109672380Y-79446190D02*
X109005714Y-79446190D01*
X108672380Y-79446190D02*
X108720000Y-79493809D01*
X108767619Y-79446190D01*
X108720000Y-79398571D01*
X108672380Y-79446190D01*
X108767619Y-79446190D01*
X109624761Y-78541428D02*
X109672380Y-78636666D01*
X109672380Y-78827142D01*
X109624761Y-78922380D01*
X109577142Y-78970000D01*
X109481904Y-79017619D01*
X109196190Y-79017619D01*
X109100952Y-78970000D01*
X109053333Y-78922380D01*
X109005714Y-78827142D01*
X109005714Y-78636666D01*
X109053333Y-78541428D01*
X109672380Y-78112857D02*
X109005714Y-78112857D01*
X109196190Y-78112857D02*
X109100952Y-78065238D01*
X109053333Y-78017619D01*
X109005714Y-77922380D01*
X109005714Y-77827142D01*
X109672380Y-77350952D02*
X109624761Y-77446190D01*
X109577142Y-77493809D01*
X109481904Y-77541428D01*
X109196190Y-77541428D01*
X109100952Y-77493809D01*
X109053333Y-77446190D01*
X109005714Y-77350952D01*
X109005714Y-77208095D01*
X109053333Y-77112857D01*
X109100952Y-77065238D01*
X109196190Y-77017619D01*
X109481904Y-77017619D01*
X109577142Y-77065238D01*
X109624761Y-77112857D01*
X109672380Y-77208095D01*
X109672380Y-77350952D01*
X109624761Y-75874761D02*
X109672380Y-75731904D01*
X109672380Y-75493809D01*
X109624761Y-75398571D01*
X109577142Y-75350952D01*
X109481904Y-75303333D01*
X109386666Y-75303333D01*
X109291428Y-75350952D01*
X109243809Y-75398571D01*
X109196190Y-75493809D01*
X109148571Y-75684285D01*
X109100952Y-75779523D01*
X109053333Y-75827142D01*
X108958095Y-75874761D01*
X108862857Y-75874761D01*
X108767619Y-75827142D01*
X108720000Y-75779523D01*
X108672380Y-75684285D01*
X108672380Y-75446190D01*
X108720000Y-75303333D01*
X109672380Y-74874761D02*
X108672380Y-74874761D01*
X108672380Y-74636666D01*
X108720000Y-74493809D01*
X108815238Y-74398571D01*
X108910476Y-74350952D01*
X109100952Y-74303333D01*
X109243809Y-74303333D01*
X109434285Y-74350952D01*
X109529523Y-74398571D01*
X109624761Y-74493809D01*
X109672380Y-74636666D01*
X109672380Y-74874761D01*
X106183180Y-38183723D02*
X106992704Y-38183723D01*
X107087942Y-38136104D01*
X107135561Y-38088485D01*
X107183180Y-37993247D01*
X107183180Y-37802771D01*
X107135561Y-37707533D01*
X107087942Y-37659914D01*
X106992704Y-37612295D01*
X106183180Y-37612295D01*
X107135561Y-37183723D02*
X107183180Y-37040866D01*
X107183180Y-36802771D01*
X107135561Y-36707533D01*
X107087942Y-36659914D01*
X106992704Y-36612295D01*
X106897466Y-36612295D01*
X106802228Y-36659914D01*
X106754609Y-36707533D01*
X106706990Y-36802771D01*
X106659371Y-36993247D01*
X106611752Y-37088485D01*
X106564133Y-37136104D01*
X106468895Y-37183723D01*
X106373657Y-37183723D01*
X106278419Y-37136104D01*
X106230800Y-37088485D01*
X106183180Y-36993247D01*
X106183180Y-36755152D01*
X106230800Y-36612295D01*
X106659371Y-35850390D02*
X106706990Y-35707533D01*
X106754609Y-35659914D01*
X106849847Y-35612295D01*
X106992704Y-35612295D01*
X107087942Y-35659914D01*
X107135561Y-35707533D01*
X107183180Y-35802771D01*
X107183180Y-36183723D01*
X106183180Y-36183723D01*
X106183180Y-35850390D01*
X106230800Y-35755152D01*
X106278419Y-35707533D01*
X106373657Y-35659914D01*
X106468895Y-35659914D01*
X106564133Y-35707533D01*
X106611752Y-35755152D01*
X106659371Y-35850390D01*
X106659371Y-36183723D01*
X107183180Y-34421819D02*
X106183180Y-34421819D01*
X106659371Y-34421819D02*
X106659371Y-33850390D01*
X107183180Y-33850390D02*
X106183180Y-33850390D01*
X107183180Y-33231342D02*
X107135561Y-33326580D01*
X107087942Y-33374200D01*
X106992704Y-33421819D01*
X106706990Y-33421819D01*
X106611752Y-33374200D01*
X106564133Y-33326580D01*
X106516514Y-33231342D01*
X106516514Y-33088485D01*
X106564133Y-32993247D01*
X106611752Y-32945628D01*
X106706990Y-32898009D01*
X106992704Y-32898009D01*
X107087942Y-32945628D01*
X107135561Y-32993247D01*
X107183180Y-33088485D01*
X107183180Y-33231342D01*
X107135561Y-32517057D02*
X107183180Y-32421819D01*
X107183180Y-32231342D01*
X107135561Y-32136104D01*
X107040323Y-32088485D01*
X106992704Y-32088485D01*
X106897466Y-32136104D01*
X106849847Y-32231342D01*
X106849847Y-32374200D01*
X106802228Y-32469438D01*
X106706990Y-32517057D01*
X106659371Y-32517057D01*
X106564133Y-32469438D01*
X106516514Y-32374200D01*
X106516514Y-32231342D01*
X106564133Y-32136104D01*
X106516514Y-31802771D02*
X106516514Y-31421819D01*
X106183180Y-31659914D02*
X107040323Y-31659914D01*
X107135561Y-31612295D01*
X107183180Y-31517057D01*
X107183180Y-31421819D01*
%TO.C,J2*%
X53217380Y-73358333D02*
X53931666Y-73358333D01*
X54074523Y-73405952D01*
X54169761Y-73501190D01*
X54217380Y-73644047D01*
X54217380Y-73739285D01*
X53312619Y-72929761D02*
X53265000Y-72882142D01*
X53217380Y-72786904D01*
X53217380Y-72548809D01*
X53265000Y-72453571D01*
X53312619Y-72405952D01*
X53407857Y-72358333D01*
X53503095Y-72358333D01*
X53645952Y-72405952D01*
X54217380Y-72977380D01*
X54217380Y-72358333D01*
%TO.C,U5*%
X127346004Y-76668589D02*
X127346004Y-77478113D01*
X127393623Y-77573351D01*
X127441242Y-77620970D01*
X127536480Y-77668589D01*
X127726956Y-77668589D01*
X127822194Y-77620970D01*
X127869813Y-77573351D01*
X127917432Y-77478113D01*
X127917432Y-76668589D01*
X128869813Y-76668589D02*
X128393623Y-76668589D01*
X128346004Y-77144780D01*
X128393623Y-77097161D01*
X128488861Y-77049542D01*
X128726956Y-77049542D01*
X128822194Y-77097161D01*
X128869813Y-77144780D01*
X128917432Y-77240018D01*
X128917432Y-77478113D01*
X128869813Y-77573351D01*
X128822194Y-77620970D01*
X128726956Y-77668589D01*
X128488861Y-77668589D01*
X128393623Y-77620970D01*
X128346004Y-77573351D01*
%TO.C,BZ1*%
X145561939Y-78599899D02*
X145609558Y-78457042D01*
X145657177Y-78409423D01*
X145752415Y-78361804D01*
X145895272Y-78361804D01*
X145990510Y-78409423D01*
X146038129Y-78457042D01*
X146085748Y-78552280D01*
X146085748Y-78933232D01*
X145085748Y-78933232D01*
X145085748Y-78599899D01*
X145133368Y-78504661D01*
X145180987Y-78457042D01*
X145276225Y-78409423D01*
X145371463Y-78409423D01*
X145466701Y-78457042D01*
X145514320Y-78504661D01*
X145561939Y-78599899D01*
X145561939Y-78933232D01*
X145085748Y-78028470D02*
X145085748Y-77361804D01*
X146085748Y-78028470D01*
X146085748Y-77361804D01*
X146085748Y-76457042D02*
X146085748Y-77028470D01*
X146085748Y-76742756D02*
X145085748Y-76742756D01*
X145228606Y-76837994D01*
X145323844Y-76933232D01*
X145371463Y-77028470D01*
X47199582Y-86113201D02*
X47199582Y-85351296D01*
X47580534Y-85732249D02*
X46818630Y-85732249D01*
%TO.C,U3*%
X88934423Y-80786040D02*
X88934423Y-81595564D01*
X88982042Y-81690802D01*
X89029661Y-81738421D01*
X89124899Y-81786040D01*
X89315375Y-81786040D01*
X89410613Y-81738421D01*
X89458232Y-81690802D01*
X89505851Y-81595564D01*
X89505851Y-80786040D01*
X89886804Y-80786040D02*
X90505851Y-80786040D01*
X90172518Y-81166993D01*
X90315375Y-81166993D01*
X90410613Y-81214612D01*
X90458232Y-81262231D01*
X90505851Y-81357469D01*
X90505851Y-81595564D01*
X90458232Y-81690802D01*
X90410613Y-81738421D01*
X90315375Y-81786040D01*
X90029661Y-81786040D01*
X89934423Y-81738421D01*
X89886804Y-81690802D01*
D12*
%TO.C,U6*%
X171337490Y-65193562D02*
X172571204Y-65193562D01*
X172716347Y-65120991D01*
X172788919Y-65048420D01*
X172861490Y-64903277D01*
X172861490Y-64612991D01*
X172788919Y-64467848D01*
X172716347Y-64395277D01*
X172571204Y-64322705D01*
X171337490Y-64322705D01*
X171337490Y-62943848D02*
X171337490Y-63234134D01*
X171410062Y-63379277D01*
X171482633Y-63451848D01*
X171700347Y-63596991D01*
X171990633Y-63669562D01*
X172571204Y-63669562D01*
X172716347Y-63596991D01*
X172788919Y-63524420D01*
X172861490Y-63379277D01*
X172861490Y-63088991D01*
X172788919Y-62943848D01*
X172716347Y-62871277D01*
X172571204Y-62798705D01*
X172208347Y-62798705D01*
X172063204Y-62871277D01*
X171990633Y-62943848D01*
X171918062Y-63088991D01*
X171918062Y-63379277D01*
X171990633Y-63524420D01*
X172063204Y-63596991D01*
X172208347Y-63669562D01*
D11*
%TO.C,U7*%
X156774578Y-33595861D02*
X157584102Y-33595861D01*
X157679340Y-33548242D01*
X157726959Y-33500623D01*
X157774578Y-33405385D01*
X157774578Y-33214909D01*
X157726959Y-33119671D01*
X157679340Y-33072052D01*
X157584102Y-33024433D01*
X156774578Y-33024433D01*
X156774578Y-32643480D02*
X156774578Y-31976814D01*
X157774578Y-32405385D01*
%TO.C,J3*%
X68257380Y-63198333D02*
X68971666Y-63198333D01*
X69114523Y-63245952D01*
X69209761Y-63341190D01*
X69257380Y-63484047D01*
X69257380Y-63579285D01*
X68257380Y-62817380D02*
X68257380Y-62198333D01*
X68638333Y-62531666D01*
X68638333Y-62388809D01*
X68685952Y-62293571D01*
X68733571Y-62245952D01*
X68828809Y-62198333D01*
X69066904Y-62198333D01*
X69162142Y-62245952D01*
X69209761Y-62293571D01*
X69257380Y-62388809D01*
X69257380Y-62674523D01*
X69209761Y-62769761D01*
X69162142Y-62817380D01*
D15*
%TO.C,REF\u002A\u002A*%
X56225603Y-30032541D02*
X47725603Y-30032541D01*
X47725603Y-30032541D02*
X47725603Y-50032541D01*
X47725603Y-50032541D02*
X56225603Y-50032541D01*
X56225603Y-50532541D02*
X56225603Y-30032541D01*
X56225603Y-25032541D02*
X56225603Y-55032541D01*
X56225603Y-25032541D02*
X86705603Y-25032541D01*
X86705603Y-25032541D02*
X98135603Y-25032541D01*
X98135603Y-25032541D02*
X99225603Y-25032541D01*
X56225603Y-55032541D02*
X99225603Y-55032541D01*
X99225603Y-55032541D02*
X99225603Y-25032541D01*
X42483723Y-50204801D02*
X42483723Y-48874801D01*
X56223723Y-50204801D02*
X56223723Y-29764801D01*
X56223723Y-29764801D02*
X47593723Y-29764801D01*
X56223723Y-32364801D02*
X47593723Y-32364801D01*
X47593723Y-50204801D02*
X47593723Y-29764801D01*
X56223723Y-34904801D02*
X47593723Y-34904801D01*
X56223723Y-50204801D02*
X47593723Y-50204801D01*
X56223723Y-37444801D02*
X47593723Y-37444801D01*
X43593723Y-50204801D02*
X42483723Y-50204801D01*
X56223723Y-39984801D02*
X47593723Y-39984801D01*
X56223723Y-47959091D02*
X47593723Y-47959091D01*
X45083723Y-30734801D02*
X44643723Y-30734801D01*
X45083723Y-31454801D02*
X44643723Y-31454801D01*
X47593723Y-45974801D02*
X47183723Y-45974801D01*
X56223723Y-47722901D02*
X47593723Y-47722901D01*
X45083723Y-39074801D02*
X44643723Y-39074801D01*
X56223723Y-48313376D02*
X47593723Y-48313376D01*
X56223723Y-50084801D02*
X47593723Y-50084801D01*
X47593723Y-31454801D02*
X47183723Y-31454801D01*
X56223723Y-42524801D02*
X47593723Y-42524801D01*
X45083723Y-41614801D02*
X44643723Y-41614801D01*
X45083723Y-45974801D02*
X44643723Y-45974801D01*
X45083723Y-46694801D02*
X44643723Y-46694801D01*
X56223723Y-48431471D02*
X47593723Y-48431471D01*
X56223723Y-48903851D02*
X47593723Y-48903851D01*
X45083723Y-40894801D02*
X44643723Y-40894801D01*
X47593723Y-30734801D02*
X47183723Y-30734801D01*
X47593723Y-33274801D02*
X47183723Y-33274801D01*
X45083723Y-35814801D02*
X44643723Y-35814801D01*
X56223723Y-47840996D02*
X47593723Y-47840996D01*
X45083723Y-48514801D02*
X44703723Y-48514801D01*
X45083723Y-33994801D02*
X44643723Y-33994801D01*
X56223723Y-48667661D02*
X47593723Y-48667661D01*
X56223723Y-48077186D02*
X47593723Y-48077186D01*
X47593723Y-44154801D02*
X47183723Y-44154801D01*
X56223723Y-47604801D02*
X47593723Y-47604801D01*
X45083723Y-44154801D02*
X44643723Y-44154801D01*
X56223723Y-48785756D02*
X47593723Y-48785756D01*
X56223723Y-45064801D02*
X47593723Y-45064801D01*
X47593723Y-38354801D02*
X47183723Y-38354801D01*
X56223723Y-49021946D02*
X47593723Y-49021946D01*
X47593723Y-46694801D02*
X47183723Y-46694801D01*
X56223723Y-48195281D02*
X47593723Y-48195281D01*
X45083723Y-43434801D02*
X44643723Y-43434801D01*
X47593723Y-40894801D02*
X47183723Y-40894801D01*
X47593723Y-48514801D02*
X47183723Y-48514801D01*
X45083723Y-36534801D02*
X44643723Y-36534801D01*
X47593723Y-39074801D02*
X47183723Y-39074801D01*
X47593723Y-35814801D02*
X47183723Y-35814801D01*
X45083723Y-38354801D02*
X44643723Y-38354801D01*
X45083723Y-49234801D02*
X44703723Y-49234801D01*
X56223723Y-48549566D02*
X47593723Y-48549566D01*
X47593723Y-49234801D02*
X47183723Y-49234801D01*
X56223723Y-49140041D02*
X47593723Y-49140041D01*
X45083723Y-33274801D02*
X44643723Y-33274801D01*
X56223723Y-49258136D02*
X47593723Y-49258136D01*
X56223723Y-49494326D02*
X47593723Y-49494326D01*
X56223723Y-49612421D02*
X47593723Y-49612421D01*
X47593723Y-33994801D02*
X47183723Y-33994801D01*
X56223723Y-49730516D02*
X47593723Y-49730516D01*
X56223723Y-49848611D02*
X47593723Y-49848611D01*
X56223723Y-49966706D02*
X47593723Y-49966706D01*
X47593723Y-43434801D02*
X47183723Y-43434801D01*
X56223723Y-49376231D02*
X47593723Y-49376231D01*
X47593723Y-41614801D02*
X47183723Y-41614801D01*
X47593723Y-36534801D02*
X47183723Y-36534801D01*
%TO.C,R2*%
X134914950Y-52580936D02*
X128374950Y-52580936D01*
X128374950Y-55320936D02*
X134914950Y-55320936D01*
X134914950Y-55320936D02*
X134914950Y-52580936D01*
X128374950Y-52580936D02*
X128374950Y-55320936D01*
X127604950Y-53950936D02*
X128374950Y-53950936D01*
X135684950Y-53950936D02*
X134914950Y-53950936D01*
%TO.C,R3*%
X128336764Y-85699353D02*
X128336764Y-88439353D01*
X135646764Y-87069353D02*
X134876764Y-87069353D01*
X127566764Y-87069353D02*
X128336764Y-87069353D01*
X134876764Y-88439353D02*
X134876764Y-85699353D01*
X128336764Y-88439353D02*
X134876764Y-88439353D01*
X134876764Y-85699353D02*
X128336764Y-85699353D01*
%TO.C,R4*%
X151400461Y-87377794D02*
X150630461Y-87377794D01*
X144090461Y-88747794D02*
X150630461Y-88747794D01*
X143320461Y-87377794D02*
X144090461Y-87377794D01*
X150630461Y-88747794D02*
X150630461Y-86007794D01*
X150630461Y-86007794D02*
X144090461Y-86007794D01*
X144090461Y-86007794D02*
X144090461Y-88747794D01*
%TO.C,R1*%
X135764699Y-49963495D02*
X134994699Y-49963495D01*
X134994699Y-51333495D02*
X134994699Y-48593495D01*
X127684699Y-49963495D02*
X128454699Y-49963495D01*
X128454699Y-48593495D02*
X128454699Y-51333495D01*
X128454699Y-51333495D02*
X134994699Y-51333495D01*
X134994699Y-48593495D02*
X128454699Y-48593495D01*
%TO.C,J1*%
X176065000Y-38395000D02*
X176065000Y-29675000D01*
X171945000Y-40095000D02*
X174765000Y-40095000D01*
X171945000Y-40095000D02*
X170645000Y-38395000D01*
X170645000Y-38395000D02*
X170645000Y-29675000D01*
X174765000Y-40095000D02*
X176065000Y-38395000D01*
X170645000Y-29675000D02*
X176065000Y-29675000D01*
%TO.C,U4*%
X142965612Y-52702137D02*
X142965612Y-50102137D01*
X140365612Y-80702137D02*
X145565612Y-80702137D01*
X142965612Y-50102137D02*
X145565612Y-50102137D01*
X140365612Y-52702137D02*
X142965612Y-52702137D01*
X140365612Y-50102137D02*
X141695612Y-50102137D01*
X145565612Y-50102137D02*
X145565612Y-80702137D01*
X140365612Y-51432137D02*
X140365612Y-50102137D01*
X140365612Y-52702137D02*
X140365612Y-80702137D01*
X177700612Y-46987137D02*
X139600612Y-46987137D01*
X139600612Y-46987137D02*
X139600612Y-85087137D01*
X139600612Y-85087137D02*
X177700612Y-85087137D01*
X177700612Y-85087137D02*
X177700612Y-46987137D01*
D11*
%TO.C,U2*%
X118110000Y-83820000D02*
X100330000Y-83820000D01*
X105410000Y-27940000D02*
X105410000Y-22860000D01*
X113030000Y-21590000D02*
X113030000Y-22860000D01*
X118110000Y-22860000D02*
X118110000Y-83820000D01*
X115571600Y-36090000D02*
X115321600Y-36090000D01*
X115570000Y-83820000D02*
X115570000Y-71120000D01*
X107950000Y-67310000D02*
X107950000Y-63500000D01*
X100330000Y-22860000D02*
X118110000Y-22860000D01*
X114300000Y-83820000D02*
X114300000Y-82550000D01*
X114300000Y-82550000D02*
X104140000Y-82550000D01*
X115570000Y-58420000D02*
X115570000Y-45720000D01*
X105920800Y-29159200D02*
X105920800Y-31699200D01*
X105920800Y-31699200D02*
X103380800Y-31699200D01*
X109321600Y-40090000D02*
X115571600Y-40090000D01*
X113030000Y-27940000D02*
X113030000Y-22860000D01*
X100330000Y-83820000D02*
X100330000Y-22860000D01*
X102870000Y-71120000D02*
X102870000Y-83820000D01*
X110490000Y-63500000D02*
X110490000Y-67310000D01*
X105920800Y-41859200D02*
X103380800Y-41859200D01*
X102870000Y-58420000D02*
X115570000Y-58420000D01*
X103380800Y-29159200D02*
X105920800Y-29159200D01*
X115570000Y-71120000D02*
X102870000Y-71120000D01*
X104140000Y-82550000D02*
X104140000Y-83820000D01*
X110490000Y-67310000D02*
X107950000Y-67310000D01*
X115570000Y-45720000D02*
X102870000Y-45720000D01*
X115571600Y-40090000D02*
X115571600Y-36090000D01*
X105410000Y-22860000D02*
X105410000Y-21590000D01*
X105410000Y-27940000D02*
X113030000Y-27940000D01*
X102870000Y-45720000D02*
X102870000Y-58420000D01*
X103380800Y-41859200D02*
X103380800Y-29159200D01*
X107950000Y-63500000D02*
X110490000Y-63500000D01*
X105920800Y-29159200D02*
X105920800Y-41859200D01*
X109321600Y-36090000D02*
X109321600Y-40090000D01*
X115321600Y-36090000D02*
X109321600Y-36090000D01*
X105410000Y-21590000D02*
X113030000Y-21590000D01*
X110118026Y-65405000D02*
G75*
G03*
X110118026Y-65405000I-898026J0D01*
G01*
G36*
X109908000Y-56283000D02*
G01*
X109527000Y-56537000D01*
X109273000Y-56283000D01*
X109654000Y-56029000D01*
X109908000Y-56283000D01*
G37*
D10*
X109908000Y-56283000D02*
X109527000Y-56537000D01*
X109273000Y-56283000D01*
X109654000Y-56029000D01*
X109908000Y-56283000D01*
G36*
X109146000Y-55521000D02*
G01*
X108765000Y-55775000D01*
X108511000Y-55521000D01*
X108892000Y-55267000D01*
X109146000Y-55521000D01*
G37*
X109146000Y-55521000D02*
X108765000Y-55775000D01*
X108511000Y-55521000D01*
X108892000Y-55267000D01*
X109146000Y-55521000D01*
G36*
X110289000Y-53997000D02*
G01*
X109908000Y-54251000D01*
X109654000Y-53997000D01*
X110035000Y-53743000D01*
X110289000Y-53997000D01*
G37*
X110289000Y-53997000D02*
X109908000Y-54251000D01*
X109654000Y-53997000D01*
X110035000Y-53743000D01*
X110289000Y-53997000D01*
G36*
X110162000Y-54759000D02*
G01*
X109781000Y-55013000D01*
X109527000Y-54759000D01*
X109908000Y-54505000D01*
X110162000Y-54759000D01*
G37*
X110162000Y-54759000D02*
X109781000Y-55013000D01*
X109527000Y-54759000D01*
X109908000Y-54505000D01*
X110162000Y-54759000D01*
G36*
X109527000Y-55902000D02*
G01*
X109146000Y-56156000D01*
X108892000Y-55902000D01*
X109273000Y-55648000D01*
X109527000Y-55902000D01*
G37*
X109527000Y-55902000D02*
X109146000Y-56156000D01*
X108892000Y-55902000D01*
X109273000Y-55648000D01*
X109527000Y-55902000D01*
G36*
X109654000Y-55140000D02*
G01*
X109273000Y-55394000D01*
X109019000Y-55140000D01*
X109400000Y-54886000D01*
X109654000Y-55140000D01*
G37*
X109654000Y-55140000D02*
X109273000Y-55394000D01*
X109019000Y-55140000D01*
X109400000Y-54886000D01*
X109654000Y-55140000D01*
G36*
X109273000Y-54759000D02*
G01*
X108892000Y-55013000D01*
X108638000Y-54759000D01*
X109019000Y-54505000D01*
X109273000Y-54759000D01*
G37*
X109273000Y-54759000D02*
X108892000Y-55013000D01*
X108638000Y-54759000D01*
X109019000Y-54505000D01*
X109273000Y-54759000D01*
G36*
X109781000Y-54378000D02*
G01*
X109400000Y-54632000D01*
X109146000Y-54378000D01*
X109527000Y-54124000D01*
X109781000Y-54378000D01*
G37*
X109781000Y-54378000D02*
X109400000Y-54632000D01*
X109146000Y-54378000D01*
X109527000Y-54124000D01*
X109781000Y-54378000D01*
D15*
%TO.C,J2*%
X50165000Y-71695000D02*
X45025000Y-71695000D01*
X51435000Y-71695000D02*
X52765000Y-71695000D01*
X50165000Y-71695000D02*
X50165000Y-74355000D01*
X50165000Y-74355000D02*
X45025000Y-74355000D01*
X52765000Y-71695000D02*
X52765000Y-73025000D01*
X45025000Y-71695000D02*
X45025000Y-74355000D01*
%TO.C,U5*%
X119693239Y-85133571D02*
X137473239Y-85133571D01*
X137473239Y-85133571D02*
X137473239Y-71798571D01*
X137473239Y-71798571D02*
X119693239Y-71798571D01*
X119693239Y-71798571D02*
X119693239Y-85133571D01*
%TO.C,BZ1*%
X55768154Y-81922249D02*
G75*
G03*
X55768154Y-81922249I-6100000J0D01*
G01*
%TO.C,U3*%
X77686437Y-80804650D02*
X71686437Y-80804650D01*
X80743508Y-78804650D02*
X80346437Y-78804650D01*
X71686437Y-78044650D02*
X77686437Y-78044650D01*
X80346437Y-77154650D02*
X77686437Y-77154650D01*
X80743508Y-76264650D02*
X80346437Y-76264650D01*
X71686437Y-72964650D02*
X77686437Y-72964650D01*
X80346437Y-72014650D02*
X77686437Y-72014650D01*
X77686437Y-81044650D02*
X71686437Y-81044650D01*
X80743508Y-72964650D02*
X80346437Y-72964650D01*
X83056437Y-80964650D02*
X83056437Y-82234650D01*
X77686437Y-81344650D02*
X71686437Y-81344650D01*
X77686437Y-76264650D02*
X71686437Y-76264650D01*
X77686437Y-82294650D02*
X80346437Y-82294650D01*
X80676437Y-81344650D02*
X80346437Y-81344650D01*
X77686437Y-81164650D02*
X71686437Y-81164650D01*
X77686437Y-72014650D02*
X77686437Y-82294650D01*
X71686437Y-75504650D02*
X77686437Y-75504650D01*
X77686437Y-78804650D02*
X71686437Y-78804650D01*
X71686437Y-81344650D02*
X71686437Y-80584650D01*
X77686437Y-81284650D02*
X71686437Y-81284650D01*
X77686437Y-73724650D02*
X71686437Y-73724650D01*
X80743508Y-78044650D02*
X80346437Y-78044650D01*
X80346437Y-74614650D02*
X77686437Y-74614650D01*
X71686437Y-73724650D02*
X71686437Y-72964650D01*
X71686437Y-76264650D02*
X71686437Y-75504650D01*
X80743508Y-73724650D02*
X80346437Y-73724650D01*
X80346437Y-82294650D02*
X80346437Y-72014650D01*
X77686437Y-80924650D02*
X71686437Y-80924650D01*
X80743508Y-75504650D02*
X80346437Y-75504650D01*
X80676437Y-80584650D02*
X80346437Y-80584650D01*
X71686437Y-78804650D02*
X71686437Y-78044650D01*
X83056437Y-82234650D02*
X81786437Y-82234650D01*
X77686437Y-80684650D02*
X71686437Y-80684650D01*
X80346437Y-79694650D02*
X77686437Y-79694650D01*
X71686437Y-80584650D02*
X77686437Y-80584650D01*
X64296328Y-88953660D02*
X87156328Y-88953660D01*
X87156328Y-88953660D02*
X87156328Y-66093660D01*
X87156328Y-66093660D02*
X64296328Y-66093660D01*
X64296328Y-66093660D02*
X64296328Y-88953660D01*
%TO.C,U6*%
G36*
X167200968Y-67205601D02*
G01*
X166794756Y-67188252D01*
X166523641Y-67117949D01*
X166361231Y-66967316D01*
X166281135Y-66708973D01*
X166256961Y-66315541D01*
X166256824Y-66288223D01*
X166637512Y-66288223D01*
X166655541Y-66560956D01*
X166720426Y-66715726D01*
X166801279Y-66779289D01*
X167050619Y-66853008D01*
X167338970Y-66858005D01*
X167589972Y-66798181D01*
X167689798Y-66733887D01*
X167777535Y-66557386D01*
X167818523Y-66297553D01*
X167810326Y-66028001D01*
X167750511Y-65822337D01*
X167721246Y-65783201D01*
X167564968Y-65716147D01*
X167315042Y-65686171D01*
X167043041Y-65693275D01*
X166820540Y-65737459D01*
X166739112Y-65783202D01*
X166678524Y-65923908D01*
X166642177Y-66162965D01*
X166637512Y-66288223D01*
X166256824Y-66288223D01*
X166256512Y-66225811D01*
X166271445Y-65819240D01*
X166335351Y-65552121D01*
X166476890Y-65395792D01*
X166724721Y-65321595D01*
X167107503Y-65300870D01*
X167181722Y-65300601D01*
X167603131Y-65317326D01*
X167884389Y-65385093D01*
X168052875Y-65530294D01*
X168135968Y-65779320D01*
X168161046Y-66158563D01*
X168161512Y-66245057D01*
X168152767Y-66592025D01*
X168119945Y-66816424D01*
X168053164Y-66964426D01*
X167992179Y-67036268D01*
X167867967Y-67128364D01*
X167695261Y-67180529D01*
X167427891Y-67202645D01*
X167338970Y-67203803D01*
X167200968Y-67205601D01*
G37*
G36*
X165179916Y-82492530D02*
G01*
X165081916Y-82695155D01*
X164906288Y-82978522D01*
X164836748Y-83080601D01*
X164323710Y-83846444D01*
X163900982Y-84535047D01*
X163577655Y-85130845D01*
X163376743Y-85581155D01*
X163258674Y-85865012D01*
X163153426Y-86074059D01*
X163081177Y-86168969D01*
X163074110Y-86170935D01*
X163032972Y-86094109D01*
X163004946Y-85894792D01*
X162996846Y-85673893D01*
X163002096Y-85449354D01*
X163029388Y-85268257D01*
X163096028Y-85090507D01*
X163219324Y-84876008D01*
X163416584Y-84584667D01*
X163546835Y-84399805D01*
X163843473Y-83988334D01*
X164149407Y-83577182D01*
X164444969Y-83191416D01*
X164710496Y-82856105D01*
X164926320Y-82596317D01*
X165072776Y-82437119D01*
X165112761Y-82403732D01*
X165192720Y-82389204D01*
X165179916Y-82492530D01*
G37*
G36*
X165869402Y-44893446D02*
G01*
X165875512Y-44938268D01*
X165844534Y-45007958D01*
X165819068Y-44994713D01*
X165808935Y-44894233D01*
X165819068Y-44881824D01*
X165869402Y-44893446D01*
G37*
G36*
X167824849Y-82911268D02*
G01*
X167888631Y-83205642D01*
X167933974Y-83540909D01*
X167963521Y-83951009D01*
X167979916Y-84469881D01*
X167985270Y-84970643D01*
X167986603Y-85501710D01*
X167983349Y-85886157D01*
X167973280Y-86146679D01*
X167954167Y-86305974D01*
X167923781Y-86386737D01*
X167879891Y-86411665D01*
X167844012Y-86408861D01*
X167797232Y-86388089D01*
X167761162Y-86332692D01*
X167734246Y-86222673D01*
X167714926Y-86038035D01*
X167701643Y-85758781D01*
X167692841Y-85364916D01*
X167686962Y-84836441D01*
X167683592Y-84349486D01*
X167671338Y-82318601D01*
X167824849Y-82911268D01*
G37*
G36*
X166298846Y-50782220D02*
G01*
X166299086Y-50742606D01*
X166645958Y-50742606D01*
X166653108Y-50871726D01*
X166684297Y-51111762D01*
X166749667Y-51229964D01*
X166870346Y-51272990D01*
X166969483Y-51276921D01*
X167026474Y-51230221D01*
X167052941Y-51098021D01*
X167060507Y-50845451D01*
X167060846Y-50701490D01*
X167056293Y-50388013D01*
X167035912Y-50207785D01*
X166989620Y-50124820D01*
X166907333Y-50103131D01*
X166893125Y-50102935D01*
X166743507Y-50171829D01*
X166661799Y-50382872D01*
X166645958Y-50742606D01*
X166299086Y-50742606D01*
X166301187Y-50395275D01*
X166313418Y-50141320D01*
X166343344Y-49984025D01*
X166398775Y-49887060D01*
X166487519Y-49814093D01*
X166510139Y-49799061D01*
X166788790Y-49696146D01*
X167070547Y-49718390D01*
X167302464Y-49852282D01*
X167416406Y-50030335D01*
X167505679Y-50286424D01*
X168246179Y-49559678D01*
X168246179Y-49856012D01*
X168220052Y-50055885D01*
X168122242Y-50242834D01*
X167923604Y-50468133D01*
X167865179Y-50526268D01*
X167633652Y-50786790D01*
X167503634Y-51006036D01*
X167484179Y-51094230D01*
X167502966Y-51214377D01*
X167589184Y-51271293D01*
X167787618Y-51287786D01*
X167865179Y-51288268D01*
X168103274Y-51299348D01*
X168215862Y-51345353D01*
X168246033Y-51445437D01*
X168246179Y-51457601D01*
X168235853Y-51530357D01*
X168185775Y-51578648D01*
X168067299Y-51607456D01*
X167851775Y-51621763D01*
X167510555Y-51626552D01*
X167272512Y-51626935D01*
X166298846Y-51626935D01*
X166298846Y-50782220D01*
G37*
G36*
X166526045Y-76186336D02*
G01*
X166588258Y-76226262D01*
X166621538Y-76332632D01*
X166634936Y-76538031D01*
X166637502Y-76875045D01*
X166637512Y-76942268D01*
X166639488Y-77303098D01*
X166651094Y-77527155D01*
X166680844Y-77646996D01*
X166737254Y-77695177D01*
X166828840Y-77704256D01*
X166836819Y-77704268D01*
X166937257Y-77694424D01*
X166998019Y-77641558D01*
X167030646Y-77510670D01*
X167046682Y-77266760D01*
X167053234Y-77048101D01*
X167070204Y-76726620D01*
X167099586Y-76471376D01*
X167135605Y-76329351D01*
X167142884Y-76318879D01*
X167257721Y-76269365D01*
X167339111Y-76384325D01*
X167386463Y-76662116D01*
X167399512Y-77031932D01*
X167401809Y-77366354D01*
X167415977Y-77566121D01*
X167452933Y-77665910D01*
X167523594Y-77700395D01*
X167611179Y-77704268D01*
X167711378Y-77698201D01*
X167773592Y-77658275D01*
X167806872Y-77551905D01*
X167820269Y-77346506D01*
X167822835Y-77009492D01*
X167822846Y-76942268D01*
X167825675Y-76580233D01*
X167838938Y-76355271D01*
X167869797Y-76235152D01*
X167925413Y-76187647D01*
X167992179Y-76180268D01*
X168064935Y-76190594D01*
X168113225Y-76240672D01*
X168142033Y-76359148D01*
X168156340Y-76574672D01*
X168161130Y-76915892D01*
X168161512Y-77153935D01*
X168161512Y-78127601D01*
X166214179Y-78127601D01*
X166214179Y-76180268D01*
X166425846Y-76180268D01*
X166526045Y-76186336D01*
G37*
G36*
X165947508Y-44563116D02*
G01*
X165953495Y-44648990D01*
X165932817Y-44739333D01*
X165902342Y-44700143D01*
X165892248Y-44567819D01*
X165909026Y-44537865D01*
X165947508Y-44563116D01*
G37*
G36*
X166609323Y-52839151D02*
G01*
X166644622Y-52875768D01*
X166652672Y-52994457D01*
X166663859Y-53210684D01*
X166666966Y-53277935D01*
X166695206Y-53503493D01*
X166760772Y-53588906D01*
X166807745Y-53588472D01*
X166948676Y-53582145D01*
X167206704Y-53591098D01*
X167530474Y-53613362D01*
X167589735Y-53618451D01*
X167924652Y-53653490D01*
X168123560Y-53692577D01*
X168219640Y-53746603D01*
X168246078Y-53826460D01*
X168246179Y-53833903D01*
X168229215Y-53908747D01*
X168157462Y-53957561D01*
X167999629Y-53987603D01*
X167724427Y-54006133D01*
X167463012Y-54015591D01*
X166679846Y-54039935D01*
X166653811Y-54399768D01*
X166621786Y-54633026D01*
X166556049Y-54738838D01*
X166463311Y-54759601D01*
X166392586Y-54748195D01*
X166345634Y-54694927D01*
X166317631Y-54571227D01*
X166303749Y-54348521D01*
X166299163Y-53998239D01*
X166298846Y-53785935D01*
X166300641Y-53367589D01*
X166309350Y-53089918D01*
X166329955Y-52924272D01*
X166367438Y-52842005D01*
X166426780Y-52814468D01*
X166468179Y-52812268D01*
X166609323Y-52839151D01*
G37*
G36*
X169473483Y-87941534D02*
G01*
X169376069Y-88263560D01*
X169295265Y-88517007D01*
X169243635Y-88663038D01*
X169233634Y-88683035D01*
X169124680Y-88708860D01*
X168889362Y-88723779D01*
X168570235Y-88728725D01*
X168209855Y-88724629D01*
X167850776Y-88712420D01*
X167535554Y-88693031D01*
X167306743Y-88667392D01*
X167208784Y-88638740D01*
X167157392Y-88555410D01*
X167197685Y-88478038D01*
X167349755Y-88393934D01*
X167633691Y-88290409D01*
X167887410Y-88210092D01*
X168171173Y-88118306D01*
X168375735Y-88026698D01*
X168527796Y-87904485D01*
X168654059Y-87720882D01*
X168781222Y-87445106D01*
X168935988Y-87046375D01*
X168966083Y-86966489D01*
X169184272Y-86386815D01*
X169158486Y-82553778D01*
X170706309Y-82553778D01*
X170724078Y-82671653D01*
X170835107Y-82904833D01*
X171042570Y-83260143D01*
X171303554Y-83673268D01*
X171566883Y-84095790D01*
X171826997Y-84538853D01*
X172052240Y-84947099D01*
X172199258Y-85239601D01*
X172374331Y-85616384D01*
X172494025Y-85866925D01*
X172573981Y-86018704D01*
X172629836Y-86099199D01*
X172677231Y-86135892D01*
X172718394Y-86151784D01*
X172775805Y-86109986D01*
X172807464Y-85927783D01*
X172815964Y-85606490D01*
X172813750Y-85027935D01*
X171834744Y-83800268D01*
X171520944Y-83410300D01*
X171240411Y-83068341D01*
X171011114Y-82795761D01*
X170851023Y-82613928D01*
X170778625Y-82544379D01*
X170706309Y-82553778D01*
X169158486Y-82553778D01*
X169098821Y-73684708D01*
X169088522Y-72184737D01*
X169077942Y-70702217D01*
X169067182Y-69248895D01*
X169056345Y-67836519D01*
X169045534Y-66476839D01*
X169034852Y-65181602D01*
X169024401Y-63962556D01*
X169014284Y-62831450D01*
X169004603Y-61800032D01*
X168995462Y-60880049D01*
X168986962Y-60083250D01*
X168979207Y-59421384D01*
X168972299Y-58906198D01*
X168966737Y-58569601D01*
X168955143Y-57873437D01*
X168944530Y-57051659D01*
X168935273Y-56147986D01*
X168927749Y-55206138D01*
X168922334Y-54269832D01*
X168920423Y-53690975D01*
X169242053Y-53690975D01*
X169242278Y-54585847D01*
X169243454Y-55575404D01*
X169245526Y-56648983D01*
X169248443Y-57795919D01*
X169252149Y-59005551D01*
X169256593Y-60267214D01*
X169261721Y-61570245D01*
X169267479Y-62903980D01*
X169273815Y-64257757D01*
X169280675Y-65620913D01*
X169288005Y-66982782D01*
X169295754Y-68332704D01*
X169303867Y-69660013D01*
X169312291Y-70954047D01*
X169320973Y-72204143D01*
X169329860Y-73399636D01*
X169338899Y-74529864D01*
X169348036Y-75584164D01*
X169357217Y-76551871D01*
X169366391Y-77422324D01*
X169375503Y-78184857D01*
X169384500Y-78828809D01*
X169393330Y-79343515D01*
X169401938Y-79718312D01*
X169408416Y-79905601D01*
X169434442Y-80401616D01*
X169459480Y-80736084D01*
X169482972Y-80916793D01*
X169504362Y-80951530D01*
X169523092Y-80848080D01*
X169538608Y-80614232D01*
X169550350Y-80257772D01*
X169557764Y-79786486D01*
X169560292Y-79208162D01*
X169557377Y-78530586D01*
X169550666Y-77915935D01*
X169545600Y-77486954D01*
X169539925Y-76903873D01*
X169533742Y-76181920D01*
X169527153Y-75336328D01*
X169520259Y-74382326D01*
X169513161Y-73335146D01*
X169505961Y-72210017D01*
X169498758Y-71022171D01*
X169491656Y-69786839D01*
X169484754Y-68519250D01*
X169478154Y-67234635D01*
X169473889Y-66358935D01*
X169462931Y-64206217D01*
X169451300Y-62211358D01*
X169439008Y-60375242D01*
X169426067Y-58698751D01*
X169412488Y-57182767D01*
X169398284Y-55828173D01*
X169383467Y-54635852D01*
X169368048Y-53606688D01*
X169352041Y-52741561D01*
X169335456Y-52041356D01*
X169318306Y-51506955D01*
X169300602Y-51139240D01*
X169282358Y-50939095D01*
X169263633Y-50907268D01*
X169257039Y-51010102D01*
X169251716Y-51271600D01*
X169247609Y-51681100D01*
X169244665Y-52227938D01*
X169242830Y-52901450D01*
X169242053Y-53690975D01*
X168920423Y-53690975D01*
X168919405Y-53382789D01*
X168919002Y-53023935D01*
X168914390Y-51638163D01*
X168900848Y-50406793D01*
X168877262Y-49315075D01*
X168842521Y-48348258D01*
X168795512Y-47491593D01*
X168735124Y-46730327D01*
X168660244Y-46049711D01*
X168569760Y-45434995D01*
X168462560Y-44871427D01*
X168337532Y-44344258D01*
X168237455Y-43984400D01*
X168093337Y-43519167D01*
X167936811Y-43053507D01*
X167779275Y-42617313D01*
X167632128Y-42240482D01*
X167506765Y-41952908D01*
X167414585Y-41784488D01*
X167387928Y-41756109D01*
X167317601Y-41643686D01*
X167343291Y-41517968D01*
X167435299Y-41466935D01*
X167560637Y-41533525D01*
X167749153Y-41712158D01*
X167974523Y-41971131D01*
X168210426Y-42278739D01*
X168430536Y-42603279D01*
X168560046Y-42821601D01*
X168922814Y-43590630D01*
X169235261Y-44476832D01*
X169481772Y-45431639D01*
X169595411Y-46041610D01*
X169610826Y-46167628D01*
X169625388Y-46348905D01*
X169639157Y-46591179D01*
X169652192Y-46900190D01*
X169664553Y-47281677D01*
X169676297Y-47741380D01*
X169687485Y-48285036D01*
X169698175Y-48918387D01*
X169708427Y-49647171D01*
X169718299Y-50477127D01*
X169727850Y-51413995D01*
X169737140Y-52463514D01*
X169746227Y-53631423D01*
X169755171Y-54923461D01*
X169764031Y-56345368D01*
X169772865Y-57902883D01*
X169781733Y-59601746D01*
X169790694Y-61447694D01*
X169799806Y-63446469D01*
X169809130Y-65603808D01*
X169817519Y-67628935D01*
X169824830Y-69394385D01*
X169831783Y-70998279D01*
X169838485Y-72448394D01*
X169845047Y-73752506D01*
X169851576Y-74918392D01*
X169858181Y-75953829D01*
X169864970Y-76866593D01*
X169872052Y-77664462D01*
X169879536Y-78355211D01*
X169887530Y-78946618D01*
X169896142Y-79446459D01*
X169905482Y-79862511D01*
X169915658Y-80202550D01*
X169926777Y-80474354D01*
X169938950Y-80685698D01*
X169952284Y-80844360D01*
X169966889Y-80958116D01*
X169982871Y-81034744D01*
X170000341Y-81082019D01*
X170005438Y-81090935D01*
X170059955Y-81171338D01*
X170141941Y-81280932D01*
X170262409Y-81432996D01*
X170432375Y-81640806D01*
X170662852Y-81917640D01*
X170964855Y-82276774D01*
X171349399Y-82731485D01*
X171827499Y-83295051D01*
X172102595Y-83618886D01*
X172480971Y-84064046D01*
X172764827Y-84403669D01*
X172967711Y-84662584D01*
X173103170Y-84865619D01*
X173184752Y-85037604D01*
X173226002Y-85203367D01*
X173240470Y-85387738D01*
X173241701Y-85615545D01*
X173241512Y-85706240D01*
X173235020Y-86033264D01*
X173217765Y-86291942D01*
X173193084Y-86438149D01*
X173185068Y-86453157D01*
X173086391Y-86470910D01*
X172845818Y-86486373D01*
X172718394Y-86490762D01*
X172490779Y-86498603D01*
X172048705Y-86506660D01*
X171547028Y-86509601D01*
X169953517Y-86509601D01*
X169818807Y-86869435D01*
X169730462Y-87123146D01*
X169616951Y-87473365D01*
X169504362Y-87838450D01*
X169499633Y-87853784D01*
X169473483Y-87941534D01*
G37*
G36*
X166215427Y-69597435D02*
G01*
X166221975Y-69369598D01*
X166637512Y-69369598D01*
X166642001Y-69664381D01*
X166664359Y-69828069D01*
X166717923Y-69898840D01*
X166816029Y-69914869D01*
X166828012Y-69914932D01*
X166935097Y-69899567D01*
X166994798Y-69827088D01*
X167023521Y-69657910D01*
X167035650Y-69413955D01*
X167027318Y-69063350D01*
X166971042Y-68859199D01*
X166933525Y-68814002D01*
X166793578Y-68749319D01*
X166699985Y-68832147D01*
X166649357Y-69068846D01*
X166637512Y-69369598D01*
X166221975Y-69369598D01*
X166229013Y-69124712D01*
X166275812Y-68794866D01*
X166367679Y-68582790D01*
X166516471Y-68463382D01*
X166734044Y-68411535D01*
X166777252Y-68407742D01*
X167103321Y-68437618D01*
X167315648Y-68575686D01*
X167398878Y-68811327D01*
X167399512Y-68837944D01*
X167414511Y-68921339D01*
X167476009Y-68915971D01*
X167608757Y-68809301D01*
X167780512Y-68644935D01*
X168161512Y-68271012D01*
X168161512Y-68567345D01*
X168135386Y-68767218D01*
X168037576Y-68954168D01*
X167838937Y-69179466D01*
X167780512Y-69237601D01*
X167580002Y-69457249D01*
X167441983Y-69652152D01*
X167399512Y-69763230D01*
X167431340Y-69859265D01*
X167553780Y-69904445D01*
X167780512Y-69914935D01*
X168015619Y-69923708D01*
X168127011Y-69966831D01*
X168160057Y-70069510D01*
X168161512Y-70126601D01*
X168161512Y-70338268D01*
X166214179Y-70338268D01*
X166215427Y-69597435D01*
G37*
G36*
X168161512Y-59084032D02*
G01*
X168135540Y-59284034D01*
X168038173Y-59470728D01*
X167840239Y-59695486D01*
X167780512Y-59754935D01*
X167533582Y-60030313D01*
X167415878Y-60252589D01*
X167399512Y-60365230D01*
X167412226Y-60510715D01*
X167480900Y-60579632D01*
X167651333Y-60600396D01*
X167780512Y-60601601D01*
X168015619Y-60610375D01*
X168127011Y-60653498D01*
X168160057Y-60756177D01*
X168161512Y-60813268D01*
X168161512Y-61024935D01*
X166214179Y-61024935D01*
X166214179Y-60813268D01*
X166228175Y-60686959D01*
X166299224Y-60624380D01*
X166470920Y-60603413D01*
X166631347Y-60601601D01*
X167048515Y-60601601D01*
X167014311Y-60331337D01*
X166904339Y-60050971D01*
X166641585Y-59718253D01*
X166597143Y-59672262D01*
X166355759Y-59397084D01*
X166236466Y-59176424D01*
X166214179Y-59035252D01*
X166214179Y-58787053D01*
X166661341Y-59228660D01*
X166888017Y-59442642D01*
X167073273Y-59599526D01*
X167181195Y-59669188D01*
X167187846Y-59670268D01*
X167282663Y-59614596D01*
X167459631Y-59467663D01*
X167682837Y-59259590D01*
X167714350Y-59228660D01*
X168161512Y-58787053D01*
X168161512Y-59084032D01*
G37*
G36*
X165342722Y-86435244D02*
G01*
X165783644Y-86442411D01*
X166135279Y-86455280D01*
X166371797Y-86472873D01*
X166467368Y-86494211D01*
X166468179Y-86496470D01*
X166388040Y-86517636D01*
X166165544Y-86532480D01*
X165827575Y-86540337D01*
X165401014Y-86540542D01*
X164965346Y-86533672D01*
X164324687Y-86517426D01*
X163851219Y-86501923D01*
X163545226Y-86487383D01*
X163406994Y-86474030D01*
X163436808Y-86462085D01*
X163634953Y-86451771D01*
X164001713Y-86443310D01*
X164537375Y-86436923D01*
X164838346Y-86434756D01*
X165342722Y-86435244D01*
G37*
G36*
X166526045Y-55951002D02*
G01*
X166588258Y-55990928D01*
X166621538Y-56097298D01*
X166634936Y-56302697D01*
X166637502Y-56639711D01*
X166637512Y-56706935D01*
X166639488Y-57067765D01*
X166651094Y-57291822D01*
X166680844Y-57411662D01*
X166737254Y-57459844D01*
X166828840Y-57468922D01*
X166836819Y-57468935D01*
X166937580Y-57458987D01*
X166998403Y-57405719D01*
X167030976Y-57273998D01*
X167046985Y-57028688D01*
X167053355Y-56817971D01*
X167067263Y-56447110D01*
X167091090Y-56214247D01*
X167133745Y-56088046D01*
X167204137Y-56037175D01*
X167277509Y-56029601D01*
X167339019Y-56064338D01*
X167376655Y-56187345D01*
X167395195Y-56426818D01*
X167399512Y-56749268D01*
X167401456Y-57097764D01*
X167413859Y-57310454D01*
X167446584Y-57420861D01*
X167509490Y-57462513D01*
X167611179Y-57468935D01*
X167711378Y-57462867D01*
X167773592Y-57422941D01*
X167806872Y-57316571D01*
X167820269Y-57111172D01*
X167822835Y-56774158D01*
X167822846Y-56706935D01*
X167825675Y-56344900D01*
X167838938Y-56119937D01*
X167869797Y-55999819D01*
X167925413Y-55952314D01*
X167992179Y-55944935D01*
X168064935Y-55955261D01*
X168113225Y-56005338D01*
X168142033Y-56123815D01*
X168156340Y-56339339D01*
X168161130Y-56680558D01*
X168161512Y-56918601D01*
X168161512Y-57892268D01*
X166214179Y-57892268D01*
X166214179Y-55944935D01*
X166425846Y-55944935D01*
X166526045Y-55951002D01*
G37*
G36*
X168161512Y-79439935D02*
G01*
X168152797Y-79550519D01*
X168102052Y-79613809D01*
X167972380Y-79642982D01*
X167726881Y-79651216D01*
X167568846Y-79651601D01*
X167276722Y-79659300D01*
X167065046Y-79679560D01*
X166976645Y-79708127D01*
X166976179Y-79710469D01*
X167029539Y-79803912D01*
X167161951Y-79962225D01*
X167204068Y-80007201D01*
X167431957Y-80245066D01*
X167145126Y-80541000D01*
X166858295Y-80836935D01*
X167509903Y-80836935D01*
X167839641Y-80840741D01*
X168034786Y-80858168D01*
X168130016Y-80898227D01*
X168160007Y-80969930D01*
X168161512Y-81006268D01*
X168151186Y-81079024D01*
X168101109Y-81127315D01*
X167982632Y-81156122D01*
X167767108Y-81170430D01*
X167425889Y-81175219D01*
X167187846Y-81175601D01*
X166715419Y-81168064D01*
X166401190Y-81138278D01*
X166234409Y-81075483D01*
X166204332Y-80968920D01*
X166300211Y-80807829D01*
X166511299Y-80581451D01*
X166553236Y-80540220D01*
X166892293Y-80209140D01*
X166553236Y-79863666D01*
X166330526Y-79623258D01*
X166217334Y-79452001D01*
X166225149Y-79338394D01*
X166365459Y-79270933D01*
X166649753Y-79238116D01*
X167089518Y-79228440D01*
X167187846Y-79228268D01*
X168161512Y-79228268D01*
X168161512Y-79439935D01*
G37*
G36*
X166881928Y-62215831D02*
G01*
X166891512Y-62332614D01*
X166843230Y-62506398D01*
X166764512Y-62579553D01*
X166683293Y-62671142D01*
X166643913Y-62884194D01*
X166637512Y-63093632D01*
X166664917Y-63424032D01*
X166765432Y-63621043D01*
X166966509Y-63714340D01*
X167230179Y-63734268D01*
X167545664Y-63700519D01*
X167730156Y-63580641D01*
X167811686Y-63346689D01*
X167822846Y-63143424D01*
X167804554Y-62861382D01*
X167737645Y-62690875D01*
X167645803Y-62603865D01*
X167521752Y-62457425D01*
X167503932Y-62306541D01*
X167585124Y-62206531D01*
X167698915Y-62196743D01*
X167915577Y-62267870D01*
X168055301Y-62410604D01*
X168132207Y-62654036D01*
X168160413Y-63027259D01*
X168161512Y-63149923D01*
X168156228Y-63490902D01*
X168133622Y-63705305D01*
X168083560Y-63835733D01*
X167995911Y-63924790D01*
X167973340Y-63941134D01*
X167742926Y-64029294D01*
X167365592Y-64069695D01*
X167182129Y-64072935D01*
X166779089Y-64051470D01*
X166511636Y-63970008D01*
X166349555Y-63802948D01*
X166262629Y-63524689D01*
X166231754Y-63267717D01*
X166239686Y-62796784D01*
X166352458Y-62458271D01*
X166569930Y-62252534D01*
X166645508Y-62220168D01*
X166816628Y-62173334D01*
X166881928Y-62215831D01*
G37*
G36*
X166830290Y-46866881D02*
G01*
X167090126Y-47119517D01*
X167274925Y-47274919D01*
X167428292Y-47356674D01*
X167593831Y-47388371D01*
X167803957Y-47393601D01*
X168062176Y-47399800D01*
X168193601Y-47431940D01*
X168240680Y-47510339D01*
X168246179Y-47605268D01*
X168234759Y-47724497D01*
X168173449Y-47787818D01*
X168021674Y-47812917D01*
X167759346Y-47817462D01*
X167511190Y-47822754D01*
X167335502Y-47854808D01*
X167182247Y-47938871D01*
X167001390Y-48100189D01*
X166806846Y-48298083D01*
X166574571Y-48535198D01*
X166434491Y-48663316D01*
X166360952Y-48695035D01*
X166328296Y-48642950D01*
X166313314Y-48540419D01*
X166327648Y-48362323D01*
X166431475Y-48174784D01*
X166631204Y-47950362D01*
X166976960Y-47598063D01*
X166637903Y-47266983D01*
X166425675Y-47033157D01*
X166323170Y-46834949D01*
X166298846Y-46638031D01*
X166298846Y-46340160D01*
X166830290Y-46866881D01*
G37*
G36*
X165790846Y-45319268D02*
G01*
X165748512Y-45361601D01*
X165706179Y-45319268D01*
X165748512Y-45276935D01*
X165790846Y-45319268D01*
G37*
G36*
X166965911Y-41925419D02*
G01*
X166941334Y-42048306D01*
X166831961Y-42271268D01*
X166748411Y-42450085D01*
X166624170Y-42746050D01*
X166476391Y-43117165D01*
X166330620Y-43498935D01*
X166164261Y-43932853D01*
X166048363Y-44211602D01*
X165984437Y-44334504D01*
X165973996Y-44300879D01*
X166018551Y-44110048D01*
X166119613Y-43761333D01*
X166179530Y-43566805D01*
X166328999Y-43116989D01*
X166484693Y-42698166D01*
X166634230Y-42339023D01*
X166765230Y-42068247D01*
X166865312Y-41914528D01*
X166903075Y-41890268D01*
X166965911Y-41925419D01*
G37*
G36*
X166556461Y-73063393D02*
G01*
X166618345Y-73141015D01*
X166636704Y-73325838D01*
X166637512Y-73428601D01*
X166637512Y-73809601D01*
X167399512Y-73809601D01*
X167760229Y-73811287D01*
X167984199Y-73822377D01*
X168104006Y-73851925D01*
X168152236Y-73908980D01*
X168161475Y-74002595D01*
X168161512Y-74021268D01*
X168155445Y-74121467D01*
X168115519Y-74183681D01*
X168009149Y-74216961D01*
X167803750Y-74230358D01*
X167466736Y-74232925D01*
X167399512Y-74232935D01*
X166637512Y-74232935D01*
X166637512Y-74613935D01*
X166628739Y-74849042D01*
X166585616Y-74960433D01*
X166482937Y-74993480D01*
X166425846Y-74994935D01*
X166214179Y-74994935D01*
X166214179Y-73047601D01*
X166425846Y-73047601D01*
X166556461Y-73063393D01*
G37*
%TO.C,U7*%
X165550000Y-44695000D02*
X122550000Y-44695000D01*
X122550000Y-44695000D02*
X122550000Y-23695000D01*
X122550000Y-23695000D02*
X165550000Y-23695000D01*
X165550000Y-23695000D02*
X165550000Y-44695000D01*
%TO.C,J3*%
X72405000Y-64195000D02*
X77545000Y-64195000D01*
X72405000Y-61535000D02*
X77545000Y-61535000D01*
X72405000Y-64195000D02*
X72405000Y-61535000D01*
X77545000Y-64195000D02*
X77545000Y-61535000D01*
X71135000Y-64195000D02*
X69805000Y-64195000D01*
X69805000Y-64195000D02*
X69805000Y-62865000D01*
%TD*%
M02*
