M48
; DRILL file {KiCad 7.0.6} date Thu Aug 10 16:31:10 2023
; FORMAT={-:-/ absolute / inch / decimal}
; #@! TF.CreationDate,2023-08-10T16:31:10-04:00
; #@! TF.GenerationSoftware,Kicad,Pcbnew,7.0.6
; #@! TF.FileFunction,Plated,1,2,PTH
FMAT,2
INCH
; #@! TA.AperFunction,Plated,PTH,ViaDrill
T1C0.0157
; #@! TA.AperFunction,Plated,PTH,ComponentDrill
T2C0.0315
; #@! TA.AperFunction,Plated,PTH,ComponentDrill
T3C0.0394
; #@! TA.AperFunction,Plated,PTH,ComponentDrill
T4C0.0402
; #@! TA.AperFunction,Plated,PTH,ComponentDrill
T5C0.0433
; #@! TA.AperFunction,Plated,PTH,ComponentDrill
T6C0.0787
; #@! TA.AperFunction,Plated,PTH,ComponentDrill
T7C0.1063
; #@! TA.AperFunction,Plated,PTH,ComponentDrill
T8C0.1260
%
G90
G05
T1
X2.9Y-2.1
X2.9Y-3.4
X2.9Y-3.4
X3.3Y-3.1
X3.4642Y-2.5046
X3.5079Y-2.5791
X4.0Y-2.2
X4.8Y-1.8
X5.0Y-1.7
X5.1Y-2.1
X5.3639Y-2.3083
X5.4Y-1.6
X5.5Y-2.0
X5.6Y-1.7
X5.7Y-1.9
X6.1Y-1.8
X6.3764Y-2.3874
X6.6Y-2.1
X6.6Y-2.1
T2
X5.7Y-2.1
X5.7Y-2.3
X5.7Y-3.1
X5.7Y-3.3
X6.1Y-2.1
X6.1Y-2.3
X6.1Y-3.1
X6.1Y-3.3
X6.55Y-1.0287
X6.6465Y-1.5106
X6.6465Y-1.5894
X6.65Y-1.0287
X6.7253Y-1.5106
X6.7253Y-1.5894
X6.804Y-1.5106
X6.804Y-1.5894
T3
X1.9082Y-0.9519
X1.9082Y-1.2511
X2.3Y-1.0
X2.3Y-1.2
X2.4Y-1.0
X2.4Y-1.2
X2.5Y-1.0
X2.5Y-1.2
X2.7206Y-1.0758
X2.7206Y-1.1758
X2.7206Y-1.2758
X2.7206Y-1.3758
X2.7206Y-1.4758
X2.7206Y-1.5758
X2.7206Y-1.6758
X2.7206Y-1.7758
X2.8206Y-1.0758
X2.8206Y-1.1758
X2.8206Y-1.2758
X2.8206Y-1.3758
X2.8206Y-1.4758
X2.8206Y-1.5758
X2.8206Y-1.6758
X2.8206Y-1.7758
X3.0247Y-2.2092
X3.0247Y-2.3092
X3.0247Y-2.4092
X3.0247Y-2.5092
X3.0247Y-2.6092
X3.0247Y-2.7092
X3.0247Y-2.8092
X3.0247Y-2.9092
X3.0247Y-3.0092
X3.0247Y-3.1092
X3.0247Y-3.2092
X3.0247Y-3.3092
X3.1247Y-2.2092
X3.1247Y-2.3092
X3.1247Y-2.4092
X3.1247Y-2.5092
X3.1247Y-2.6092
X3.1247Y-2.7092
X3.1247Y-2.8092
X3.1247Y-2.9092
X3.1247Y-3.0092
X3.1247Y-3.1092
X3.1247Y-3.2092
X3.1247Y-3.3092
X5.6886Y-1.2855
X5.6886Y-1.3855
X5.6886Y-1.4855
X5.6886Y-1.5855
T4
X1.7671Y-1.4537
X1.8671Y-1.4537
X1.9671Y-1.4537
X2.0671Y-1.4537
X2.1671Y-1.4537
X2.2671Y-1.4537
X2.3671Y-1.4537
T5
X6.3Y-1.0
X6.3Y-1.1
X6.3Y-1.2
X6.3Y-1.3
X6.3Y-1.4
X6.3Y-1.5
X6.3Y-1.6
X6.3Y-1.7
X6.3Y-1.8
X6.3Y-1.9
X6.3Y-2.0
X6.3Y-2.1
X6.3Y-2.2
X6.3Y-2.3
X6.3Y-2.4
X6.3Y-2.5
X6.3Y-2.6
X6.3Y-2.7
X6.3Y-2.8
X6.3Y-2.9
X6.3Y-3.0
X6.3Y-3.1
X6.3Y-3.2
X6.3Y-3.3
X6.4Y-2.8
X6.4201Y-1.248
X6.4201Y-1.348
X6.4201Y-1.448
X6.4201Y-1.548
X6.4201Y-1.648
X6.5Y-2.8
X6.6Y-2.8
X6.7Y-2.8
X6.8Y-1.1
X6.8Y-2.8
X6.9Y-1.0
X6.9Y-1.1
X6.9Y-1.2
X6.9Y-1.3
X6.9Y-1.4
X6.9Y-1.5
X6.9Y-1.6
X6.9Y-1.7
X6.9Y-1.8
X6.9Y-1.9
X6.9Y-2.0
X6.9Y-2.1
X6.9Y-2.2
X6.9Y-2.3
X6.9Y-2.4
X6.9Y-2.5
X6.9Y-2.6
X6.9Y-2.7
X6.9Y-2.8
X6.9Y-2.9
X6.9Y-3.0
X6.9Y-3.1
X6.9Y-3.2
X6.9Y-3.3
T6
X3.4Y-2.6613
X3.4Y-2.8582
X5.4472Y-2.6613
X5.4472Y-2.8582
T7
X5.9Y-2.6031
X5.9Y-2.8
T8
X1.8171Y-1.828
X3.3262Y-0.9454
X3.3262Y-1.91
X4.8026Y-1.4277
T0
M30
