%TF.GenerationSoftware,KiCad,Pcbnew,(6.0.9)*%
%TF.CreationDate,2023-01-16T22:49:32-05:00*%
%TF.ProjectId,rrc_pcb,7272635f-7063-4622-9e6b-696361645f70,rev?*%
%TF.SameCoordinates,Original*%
%TF.FileFunction,Drillmap*%
%TF.FilePolarity,Positive*%
%FSLAX45Y45*%
G04 Gerber Fmt 4.5, Leading zero omitted, Abs format (unit mm)*
G04 Created by KiCad (PCBNEW (6.0.9)) date 2023-01-16 22:49:32*
%MOMM*%
%LPD*%
G01*
G04 APERTURE LIST*
%ADD10C,0.050000*%
%ADD11C,0.200000*%
%ADD12C,0.400000*%
G04 APERTURE END LIST*
D10*
X4191000Y-2065671D02*
X18034000Y-2065671D01*
X18034000Y-2065671D02*
X18034000Y-8890000D01*
X18034000Y-8890000D02*
X4191000Y-8890000D01*
X4191000Y-8890000D02*
X4191000Y-2065671D01*
D11*
X6583633Y-7657465D02*
X6783633Y-7857465D01*
X6783633Y-7657465D02*
X6583633Y-7857465D01*
X8441688Y-7682956D02*
X8641688Y-7882956D01*
X8641688Y-7682956D02*
X8441688Y-7882956D01*
X12357322Y-2523500D02*
X12557322Y-2723500D01*
X12557322Y-2523500D02*
X12357322Y-2723500D01*
X12365000Y-4115500D02*
X12565000Y-4315500D01*
X12565000Y-4115500D02*
X12365000Y-4315500D01*
X16201000Y-2523500D02*
X16401000Y-2723500D01*
X16401000Y-2523500D02*
X16201000Y-2723500D01*
X16201000Y-4115500D02*
X16401000Y-4315500D01*
X16401000Y-4115500D02*
X16201000Y-4315500D01*
D12*
X6079363Y-2374242D02*
G75*
G03*
X6079363Y-2374242I-200000J0D01*
G01*
X6079363Y-6324242D02*
G75*
G03*
X6079363Y-6324242I-200000J0D01*
G01*
X9629363Y-2349242D02*
G75*
G03*
X9629363Y-2349242I-200000J0D01*
G01*
X9629363Y-6324242D02*
G75*
G03*
X9629363Y-6324242I-200000J0D01*
G01*
X15581552Y-5651214D02*
G75*
G03*
X15581552Y-5651214I-200000J0D01*
G01*
X15581552Y-7556214D02*
G75*
G03*
X15581552Y-7556214I-200000J0D01*
G01*
X17570061Y-5651214D02*
G75*
G03*
X17570061Y-5651214I-200000J0D01*
G01*
X17570061Y-7556214D02*
G75*
G03*
X17570061Y-7556214I-200000J0D01*
G01*
D11*
X4446119Y-9202976D02*
X4446119Y-9002976D01*
X4493738Y-9002976D01*
X4522310Y-9012500D01*
X4541357Y-9031548D01*
X4550881Y-9050595D01*
X4560405Y-9088690D01*
X4560405Y-9117262D01*
X4550881Y-9155357D01*
X4541357Y-9174405D01*
X4522310Y-9193452D01*
X4493738Y-9202976D01*
X4446119Y-9202976D01*
X4646119Y-9202976D02*
X4646119Y-9069643D01*
X4646119Y-9107738D02*
X4655643Y-9088690D01*
X4665167Y-9079167D01*
X4684214Y-9069643D01*
X4703262Y-9069643D01*
X4769929Y-9202976D02*
X4769929Y-9069643D01*
X4769929Y-9002976D02*
X4760405Y-9012500D01*
X4769929Y-9022024D01*
X4779452Y-9012500D01*
X4769929Y-9002976D01*
X4769929Y-9022024D01*
X4893738Y-9202976D02*
X4874690Y-9193452D01*
X4865167Y-9174405D01*
X4865167Y-9002976D01*
X4998500Y-9202976D02*
X4979452Y-9193452D01*
X4969929Y-9174405D01*
X4969929Y-9002976D01*
X5227071Y-9202976D02*
X5227071Y-9002976D01*
X5293738Y-9145833D01*
X5360405Y-9002976D01*
X5360405Y-9202976D01*
X5541357Y-9202976D02*
X5541357Y-9098214D01*
X5531833Y-9079167D01*
X5512786Y-9069643D01*
X5474690Y-9069643D01*
X5455643Y-9079167D01*
X5541357Y-9193452D02*
X5522310Y-9202976D01*
X5474690Y-9202976D01*
X5455643Y-9193452D01*
X5446119Y-9174405D01*
X5446119Y-9155357D01*
X5455643Y-9136310D01*
X5474690Y-9126786D01*
X5522310Y-9126786D01*
X5541357Y-9117262D01*
X5636595Y-9069643D02*
X5636595Y-9269643D01*
X5636595Y-9079167D02*
X5655643Y-9069643D01*
X5693738Y-9069643D01*
X5712786Y-9079167D01*
X5722309Y-9088690D01*
X5731833Y-9107738D01*
X5731833Y-9164881D01*
X5722309Y-9183929D01*
X5712786Y-9193452D01*
X5693738Y-9202976D01*
X5655643Y-9202976D01*
X5636595Y-9193452D01*
X5817548Y-9183929D02*
X5827071Y-9193452D01*
X5817548Y-9202976D01*
X5808024Y-9193452D01*
X5817548Y-9183929D01*
X5817548Y-9202976D01*
X5817548Y-9079167D02*
X5827071Y-9088690D01*
X5817548Y-9098214D01*
X5808024Y-9088690D01*
X5817548Y-9079167D01*
X5817548Y-9098214D01*
X3988500Y-9432500D02*
X4188500Y-9632500D01*
X4188500Y-9432500D02*
X3988500Y-9632500D01*
X4436595Y-9442024D02*
X4446119Y-9432500D01*
X4465167Y-9422976D01*
X4512786Y-9422976D01*
X4531833Y-9432500D01*
X4541357Y-9442024D01*
X4550881Y-9461071D01*
X4550881Y-9480119D01*
X4541357Y-9508690D01*
X4427071Y-9622976D01*
X4550881Y-9622976D01*
X4636595Y-9603929D02*
X4646119Y-9613452D01*
X4636595Y-9622976D01*
X4627071Y-9613452D01*
X4636595Y-9603929D01*
X4636595Y-9622976D01*
X4769929Y-9422976D02*
X4788976Y-9422976D01*
X4808024Y-9432500D01*
X4817548Y-9442024D01*
X4827071Y-9461071D01*
X4836595Y-9499167D01*
X4836595Y-9546786D01*
X4827071Y-9584881D01*
X4817548Y-9603929D01*
X4808024Y-9613452D01*
X4788976Y-9622976D01*
X4769929Y-9622976D01*
X4750881Y-9613452D01*
X4741357Y-9603929D01*
X4731833Y-9584881D01*
X4722310Y-9546786D01*
X4722310Y-9499167D01*
X4731833Y-9461071D01*
X4741357Y-9442024D01*
X4750881Y-9432500D01*
X4769929Y-9422976D01*
X4960405Y-9422976D02*
X4979452Y-9422976D01*
X4998500Y-9432500D01*
X5008024Y-9442024D01*
X5017548Y-9461071D01*
X5027071Y-9499167D01*
X5027071Y-9546786D01*
X5017548Y-9584881D01*
X5008024Y-9603929D01*
X4998500Y-9613452D01*
X4979452Y-9622976D01*
X4960405Y-9622976D01*
X4941357Y-9613452D01*
X4931833Y-9603929D01*
X4922310Y-9584881D01*
X4912786Y-9546786D01*
X4912786Y-9499167D01*
X4922310Y-9461071D01*
X4931833Y-9442024D01*
X4941357Y-9432500D01*
X4960405Y-9422976D01*
X5150881Y-9422976D02*
X5169929Y-9422976D01*
X5188976Y-9432500D01*
X5198500Y-9442024D01*
X5208024Y-9461071D01*
X5217548Y-9499167D01*
X5217548Y-9546786D01*
X5208024Y-9584881D01*
X5198500Y-9603929D01*
X5188976Y-9613452D01*
X5169929Y-9622976D01*
X5150881Y-9622976D01*
X5131833Y-9613452D01*
X5122310Y-9603929D01*
X5112786Y-9584881D01*
X5103262Y-9546786D01*
X5103262Y-9499167D01*
X5112786Y-9461071D01*
X5122310Y-9442024D01*
X5131833Y-9432500D01*
X5150881Y-9422976D01*
X5303262Y-9622976D02*
X5303262Y-9489643D01*
X5303262Y-9508690D02*
X5312786Y-9499167D01*
X5331833Y-9489643D01*
X5360405Y-9489643D01*
X5379452Y-9499167D01*
X5388976Y-9518214D01*
X5388976Y-9622976D01*
X5388976Y-9518214D02*
X5398500Y-9499167D01*
X5417548Y-9489643D01*
X5446119Y-9489643D01*
X5465167Y-9499167D01*
X5474690Y-9518214D01*
X5474690Y-9622976D01*
X5569929Y-9622976D02*
X5569929Y-9489643D01*
X5569929Y-9508690D02*
X5579452Y-9499167D01*
X5598500Y-9489643D01*
X5627071Y-9489643D01*
X5646119Y-9499167D01*
X5655643Y-9518214D01*
X5655643Y-9622976D01*
X5655643Y-9518214D02*
X5665167Y-9499167D01*
X5684214Y-9489643D01*
X5712786Y-9489643D01*
X5731833Y-9499167D01*
X5741357Y-9518214D01*
X5741357Y-9622976D01*
X6131833Y-9413452D02*
X5960405Y-9670595D01*
X6388976Y-9422976D02*
X6408024Y-9422976D01*
X6427071Y-9432500D01*
X6436595Y-9442024D01*
X6446119Y-9461071D01*
X6455643Y-9499167D01*
X6455643Y-9546786D01*
X6446119Y-9584881D01*
X6436595Y-9603929D01*
X6427071Y-9613452D01*
X6408024Y-9622976D01*
X6388976Y-9622976D01*
X6369928Y-9613452D01*
X6360405Y-9603929D01*
X6350881Y-9584881D01*
X6341357Y-9546786D01*
X6341357Y-9499167D01*
X6350881Y-9461071D01*
X6360405Y-9442024D01*
X6369928Y-9432500D01*
X6388976Y-9422976D01*
X6541357Y-9603929D02*
X6550881Y-9613452D01*
X6541357Y-9622976D01*
X6531833Y-9613452D01*
X6541357Y-9603929D01*
X6541357Y-9622976D01*
X6674690Y-9422976D02*
X6693738Y-9422976D01*
X6712786Y-9432500D01*
X6722309Y-9442024D01*
X6731833Y-9461071D01*
X6741357Y-9499167D01*
X6741357Y-9546786D01*
X6731833Y-9584881D01*
X6722309Y-9603929D01*
X6712786Y-9613452D01*
X6693738Y-9622976D01*
X6674690Y-9622976D01*
X6655643Y-9613452D01*
X6646119Y-9603929D01*
X6636595Y-9584881D01*
X6627071Y-9546786D01*
X6627071Y-9499167D01*
X6636595Y-9461071D01*
X6646119Y-9442024D01*
X6655643Y-9432500D01*
X6674690Y-9422976D01*
X6808024Y-9422976D02*
X6941357Y-9422976D01*
X6855643Y-9622976D01*
X7046119Y-9508690D02*
X7027071Y-9499167D01*
X7017548Y-9489643D01*
X7008024Y-9470595D01*
X7008024Y-9461071D01*
X7017548Y-9442024D01*
X7027071Y-9432500D01*
X7046119Y-9422976D01*
X7084214Y-9422976D01*
X7103262Y-9432500D01*
X7112786Y-9442024D01*
X7122309Y-9461071D01*
X7122309Y-9470595D01*
X7112786Y-9489643D01*
X7103262Y-9499167D01*
X7084214Y-9508690D01*
X7046119Y-9508690D01*
X7027071Y-9518214D01*
X7017548Y-9527738D01*
X7008024Y-9546786D01*
X7008024Y-9584881D01*
X7017548Y-9603929D01*
X7027071Y-9613452D01*
X7046119Y-9622976D01*
X7084214Y-9622976D01*
X7103262Y-9613452D01*
X7112786Y-9603929D01*
X7122309Y-9584881D01*
X7122309Y-9546786D01*
X7112786Y-9527738D01*
X7103262Y-9518214D01*
X7084214Y-9508690D01*
X7188976Y-9422976D02*
X7322309Y-9422976D01*
X7236595Y-9622976D01*
X7388976Y-9422976D02*
X7388976Y-9461071D01*
X7465167Y-9422976D02*
X7465167Y-9461071D01*
X7760405Y-9699167D02*
X7750881Y-9689643D01*
X7731833Y-9661071D01*
X7722309Y-9642024D01*
X7712786Y-9613452D01*
X7703262Y-9565833D01*
X7703262Y-9527738D01*
X7712786Y-9480119D01*
X7722309Y-9451548D01*
X7731833Y-9432500D01*
X7750881Y-9403929D01*
X7760405Y-9394405D01*
X7922309Y-9422976D02*
X7884214Y-9422976D01*
X7865167Y-9432500D01*
X7855643Y-9442024D01*
X7836595Y-9470595D01*
X7827071Y-9508690D01*
X7827071Y-9584881D01*
X7836595Y-9603929D01*
X7846119Y-9613452D01*
X7865167Y-9622976D01*
X7903262Y-9622976D01*
X7922309Y-9613452D01*
X7931833Y-9603929D01*
X7941357Y-9584881D01*
X7941357Y-9537262D01*
X7931833Y-9518214D01*
X7922309Y-9508690D01*
X7903262Y-9499167D01*
X7865167Y-9499167D01*
X7846119Y-9508690D01*
X7836595Y-9518214D01*
X7827071Y-9537262D01*
X8179452Y-9622976D02*
X8179452Y-9422976D01*
X8265167Y-9622976D02*
X8265167Y-9518214D01*
X8255643Y-9499167D01*
X8236595Y-9489643D01*
X8208024Y-9489643D01*
X8188976Y-9499167D01*
X8179452Y-9508690D01*
X8388976Y-9622976D02*
X8369928Y-9613452D01*
X8360405Y-9603929D01*
X8350881Y-9584881D01*
X8350881Y-9527738D01*
X8360405Y-9508690D01*
X8369928Y-9499167D01*
X8388976Y-9489643D01*
X8417548Y-9489643D01*
X8436595Y-9499167D01*
X8446119Y-9508690D01*
X8455643Y-9527738D01*
X8455643Y-9584881D01*
X8446119Y-9603929D01*
X8436595Y-9613452D01*
X8417548Y-9622976D01*
X8388976Y-9622976D01*
X8569929Y-9622976D02*
X8550881Y-9613452D01*
X8541357Y-9594405D01*
X8541357Y-9422976D01*
X8722310Y-9613452D02*
X8703262Y-9622976D01*
X8665167Y-9622976D01*
X8646119Y-9613452D01*
X8636595Y-9594405D01*
X8636595Y-9518214D01*
X8646119Y-9499167D01*
X8665167Y-9489643D01*
X8703262Y-9489643D01*
X8722310Y-9499167D01*
X8731833Y-9518214D01*
X8731833Y-9537262D01*
X8636595Y-9556310D01*
X8808024Y-9613452D02*
X8827071Y-9622976D01*
X8865167Y-9622976D01*
X8884214Y-9613452D01*
X8893738Y-9594405D01*
X8893738Y-9584881D01*
X8884214Y-9565833D01*
X8865167Y-9556310D01*
X8836595Y-9556310D01*
X8817548Y-9546786D01*
X8808024Y-9527738D01*
X8808024Y-9518214D01*
X8817548Y-9499167D01*
X8836595Y-9489643D01*
X8865167Y-9489643D01*
X8884214Y-9499167D01*
X8960405Y-9699167D02*
X8969929Y-9689643D01*
X8988976Y-9661071D01*
X8998500Y-9642024D01*
X9008024Y-9613452D01*
X9017548Y-9565833D01*
X9017548Y-9527738D01*
X9008024Y-9480119D01*
X8998500Y-9451548D01*
X8988976Y-9432500D01*
X8969929Y-9403929D01*
X8960405Y-9394405D01*
X9322310Y-9699167D02*
X9312786Y-9689643D01*
X9293738Y-9661071D01*
X9284214Y-9642024D01*
X9274690Y-9613452D01*
X9265167Y-9565833D01*
X9265167Y-9527738D01*
X9274690Y-9480119D01*
X9284214Y-9451548D01*
X9293738Y-9432500D01*
X9312786Y-9403929D01*
X9322310Y-9394405D01*
X9398500Y-9489643D02*
X9398500Y-9622976D01*
X9398500Y-9508690D02*
X9408024Y-9499167D01*
X9427071Y-9489643D01*
X9455643Y-9489643D01*
X9474690Y-9499167D01*
X9484214Y-9518214D01*
X9484214Y-9622976D01*
X9608024Y-9622976D02*
X9588976Y-9613452D01*
X9579452Y-9603929D01*
X9569929Y-9584881D01*
X9569929Y-9527738D01*
X9579452Y-9508690D01*
X9588976Y-9499167D01*
X9608024Y-9489643D01*
X9636595Y-9489643D01*
X9655643Y-9499167D01*
X9665167Y-9508690D01*
X9674690Y-9527738D01*
X9674690Y-9584881D01*
X9665167Y-9603929D01*
X9655643Y-9613452D01*
X9636595Y-9622976D01*
X9608024Y-9622976D01*
X9731833Y-9489643D02*
X9808024Y-9489643D01*
X9760405Y-9422976D02*
X9760405Y-9594405D01*
X9769929Y-9613452D01*
X9788976Y-9622976D01*
X9808024Y-9622976D01*
X10027071Y-9489643D02*
X10027071Y-9689643D01*
X10027071Y-9499167D02*
X10046119Y-9489643D01*
X10084214Y-9489643D01*
X10103262Y-9499167D01*
X10112786Y-9508690D01*
X10122310Y-9527738D01*
X10122310Y-9584881D01*
X10112786Y-9603929D01*
X10103262Y-9613452D01*
X10084214Y-9622976D01*
X10046119Y-9622976D01*
X10027071Y-9613452D01*
X10236595Y-9622976D02*
X10217548Y-9613452D01*
X10208024Y-9594405D01*
X10208024Y-9422976D01*
X10398500Y-9622976D02*
X10398500Y-9518214D01*
X10388976Y-9499167D01*
X10369929Y-9489643D01*
X10331833Y-9489643D01*
X10312786Y-9499167D01*
X10398500Y-9613452D02*
X10379452Y-9622976D01*
X10331833Y-9622976D01*
X10312786Y-9613452D01*
X10303262Y-9594405D01*
X10303262Y-9575357D01*
X10312786Y-9556310D01*
X10331833Y-9546786D01*
X10379452Y-9546786D01*
X10398500Y-9537262D01*
X10465167Y-9489643D02*
X10541357Y-9489643D01*
X10493738Y-9422976D02*
X10493738Y-9594405D01*
X10503262Y-9613452D01*
X10522310Y-9622976D01*
X10541357Y-9622976D01*
X10684214Y-9613452D02*
X10665167Y-9622976D01*
X10627071Y-9622976D01*
X10608024Y-9613452D01*
X10598500Y-9594405D01*
X10598500Y-9518214D01*
X10608024Y-9499167D01*
X10627071Y-9489643D01*
X10665167Y-9489643D01*
X10684214Y-9499167D01*
X10693738Y-9518214D01*
X10693738Y-9537262D01*
X10598500Y-9556310D01*
X10865167Y-9622976D02*
X10865167Y-9422976D01*
X10865167Y-9613452D02*
X10846119Y-9622976D01*
X10808024Y-9622976D01*
X10788976Y-9613452D01*
X10779452Y-9603929D01*
X10769929Y-9584881D01*
X10769929Y-9527738D01*
X10779452Y-9508690D01*
X10788976Y-9499167D01*
X10808024Y-9489643D01*
X10846119Y-9489643D01*
X10865167Y-9499167D01*
X10941357Y-9699167D02*
X10950881Y-9689643D01*
X10969929Y-9661071D01*
X10979452Y-9642024D01*
X10988976Y-9613452D01*
X10998500Y-9565833D01*
X10998500Y-9527738D01*
X10988976Y-9480119D01*
X10979452Y-9451548D01*
X10969929Y-9432500D01*
X10950881Y-9403929D01*
X10941357Y-9394405D01*
X4188500Y-9852500D02*
G75*
G03*
X4188500Y-9852500I-100000J0D01*
G01*
X4531833Y-9809643D02*
X4531833Y-9942976D01*
X4484214Y-9733452D02*
X4436595Y-9876310D01*
X4560405Y-9876310D01*
X4636595Y-9923929D02*
X4646119Y-9933452D01*
X4636595Y-9942976D01*
X4627071Y-9933452D01*
X4636595Y-9923929D01*
X4636595Y-9942976D01*
X4769929Y-9742976D02*
X4788976Y-9742976D01*
X4808024Y-9752500D01*
X4817548Y-9762024D01*
X4827071Y-9781071D01*
X4836595Y-9819167D01*
X4836595Y-9866786D01*
X4827071Y-9904881D01*
X4817548Y-9923929D01*
X4808024Y-9933452D01*
X4788976Y-9942976D01*
X4769929Y-9942976D01*
X4750881Y-9933452D01*
X4741357Y-9923929D01*
X4731833Y-9904881D01*
X4722310Y-9866786D01*
X4722310Y-9819167D01*
X4731833Y-9781071D01*
X4741357Y-9762024D01*
X4750881Y-9752500D01*
X4769929Y-9742976D01*
X4960405Y-9742976D02*
X4979452Y-9742976D01*
X4998500Y-9752500D01*
X5008024Y-9762024D01*
X5017548Y-9781071D01*
X5027071Y-9819167D01*
X5027071Y-9866786D01*
X5017548Y-9904881D01*
X5008024Y-9923929D01*
X4998500Y-9933452D01*
X4979452Y-9942976D01*
X4960405Y-9942976D01*
X4941357Y-9933452D01*
X4931833Y-9923929D01*
X4922310Y-9904881D01*
X4912786Y-9866786D01*
X4912786Y-9819167D01*
X4922310Y-9781071D01*
X4931833Y-9762024D01*
X4941357Y-9752500D01*
X4960405Y-9742976D01*
X5150881Y-9742976D02*
X5169929Y-9742976D01*
X5188976Y-9752500D01*
X5198500Y-9762024D01*
X5208024Y-9781071D01*
X5217548Y-9819167D01*
X5217548Y-9866786D01*
X5208024Y-9904881D01*
X5198500Y-9923929D01*
X5188976Y-9933452D01*
X5169929Y-9942976D01*
X5150881Y-9942976D01*
X5131833Y-9933452D01*
X5122310Y-9923929D01*
X5112786Y-9904881D01*
X5103262Y-9866786D01*
X5103262Y-9819167D01*
X5112786Y-9781071D01*
X5122310Y-9762024D01*
X5131833Y-9752500D01*
X5150881Y-9742976D01*
X5303262Y-9942976D02*
X5303262Y-9809643D01*
X5303262Y-9828690D02*
X5312786Y-9819167D01*
X5331833Y-9809643D01*
X5360405Y-9809643D01*
X5379452Y-9819167D01*
X5388976Y-9838214D01*
X5388976Y-9942976D01*
X5388976Y-9838214D02*
X5398500Y-9819167D01*
X5417548Y-9809643D01*
X5446119Y-9809643D01*
X5465167Y-9819167D01*
X5474690Y-9838214D01*
X5474690Y-9942976D01*
X5569929Y-9942976D02*
X5569929Y-9809643D01*
X5569929Y-9828690D02*
X5579452Y-9819167D01*
X5598500Y-9809643D01*
X5627071Y-9809643D01*
X5646119Y-9819167D01*
X5655643Y-9838214D01*
X5655643Y-9942976D01*
X5655643Y-9838214D02*
X5665167Y-9819167D01*
X5684214Y-9809643D01*
X5712786Y-9809643D01*
X5731833Y-9819167D01*
X5741357Y-9838214D01*
X5741357Y-9942976D01*
X6131833Y-9733452D02*
X5960405Y-9990595D01*
X6388976Y-9742976D02*
X6408024Y-9742976D01*
X6427071Y-9752500D01*
X6436595Y-9762024D01*
X6446119Y-9781071D01*
X6455643Y-9819167D01*
X6455643Y-9866786D01*
X6446119Y-9904881D01*
X6436595Y-9923929D01*
X6427071Y-9933452D01*
X6408024Y-9942976D01*
X6388976Y-9942976D01*
X6369928Y-9933452D01*
X6360405Y-9923929D01*
X6350881Y-9904881D01*
X6341357Y-9866786D01*
X6341357Y-9819167D01*
X6350881Y-9781071D01*
X6360405Y-9762024D01*
X6369928Y-9752500D01*
X6388976Y-9742976D01*
X6541357Y-9923929D02*
X6550881Y-9933452D01*
X6541357Y-9942976D01*
X6531833Y-9933452D01*
X6541357Y-9923929D01*
X6541357Y-9942976D01*
X6741357Y-9942976D02*
X6627071Y-9942976D01*
X6684214Y-9942976D02*
X6684214Y-9742976D01*
X6665167Y-9771548D01*
X6646119Y-9790595D01*
X6627071Y-9800119D01*
X6922309Y-9742976D02*
X6827071Y-9742976D01*
X6817548Y-9838214D01*
X6827071Y-9828690D01*
X6846119Y-9819167D01*
X6893738Y-9819167D01*
X6912786Y-9828690D01*
X6922309Y-9838214D01*
X6931833Y-9857262D01*
X6931833Y-9904881D01*
X6922309Y-9923929D01*
X6912786Y-9933452D01*
X6893738Y-9942976D01*
X6846119Y-9942976D01*
X6827071Y-9933452D01*
X6817548Y-9923929D01*
X6998500Y-9742976D02*
X7131833Y-9742976D01*
X7046119Y-9942976D01*
X7303262Y-9742976D02*
X7208024Y-9742976D01*
X7198500Y-9838214D01*
X7208024Y-9828690D01*
X7227071Y-9819167D01*
X7274690Y-9819167D01*
X7293738Y-9828690D01*
X7303262Y-9838214D01*
X7312786Y-9857262D01*
X7312786Y-9904881D01*
X7303262Y-9923929D01*
X7293738Y-9933452D01*
X7274690Y-9942976D01*
X7227071Y-9942976D01*
X7208024Y-9933452D01*
X7198500Y-9923929D01*
X7388976Y-9742976D02*
X7388976Y-9781071D01*
X7465167Y-9742976D02*
X7465167Y-9781071D01*
X7760405Y-10019167D02*
X7750881Y-10009643D01*
X7731833Y-9981071D01*
X7722309Y-9962024D01*
X7712786Y-9933452D01*
X7703262Y-9885833D01*
X7703262Y-9847738D01*
X7712786Y-9800119D01*
X7722309Y-9771548D01*
X7731833Y-9752500D01*
X7750881Y-9723929D01*
X7760405Y-9714405D01*
X7865167Y-9828690D02*
X7846119Y-9819167D01*
X7836595Y-9809643D01*
X7827071Y-9790595D01*
X7827071Y-9781071D01*
X7836595Y-9762024D01*
X7846119Y-9752500D01*
X7865167Y-9742976D01*
X7903262Y-9742976D01*
X7922309Y-9752500D01*
X7931833Y-9762024D01*
X7941357Y-9781071D01*
X7941357Y-9790595D01*
X7931833Y-9809643D01*
X7922309Y-9819167D01*
X7903262Y-9828690D01*
X7865167Y-9828690D01*
X7846119Y-9838214D01*
X7836595Y-9847738D01*
X7827071Y-9866786D01*
X7827071Y-9904881D01*
X7836595Y-9923929D01*
X7846119Y-9933452D01*
X7865167Y-9942976D01*
X7903262Y-9942976D01*
X7922309Y-9933452D01*
X7931833Y-9923929D01*
X7941357Y-9904881D01*
X7941357Y-9866786D01*
X7931833Y-9847738D01*
X7922309Y-9838214D01*
X7903262Y-9828690D01*
X8179452Y-9942976D02*
X8179452Y-9742976D01*
X8265167Y-9942976D02*
X8265167Y-9838214D01*
X8255643Y-9819167D01*
X8236595Y-9809643D01*
X8208024Y-9809643D01*
X8188976Y-9819167D01*
X8179452Y-9828690D01*
X8388976Y-9942976D02*
X8369928Y-9933452D01*
X8360405Y-9923929D01*
X8350881Y-9904881D01*
X8350881Y-9847738D01*
X8360405Y-9828690D01*
X8369928Y-9819167D01*
X8388976Y-9809643D01*
X8417548Y-9809643D01*
X8436595Y-9819167D01*
X8446119Y-9828690D01*
X8455643Y-9847738D01*
X8455643Y-9904881D01*
X8446119Y-9923929D01*
X8436595Y-9933452D01*
X8417548Y-9942976D01*
X8388976Y-9942976D01*
X8569929Y-9942976D02*
X8550881Y-9933452D01*
X8541357Y-9914405D01*
X8541357Y-9742976D01*
X8722310Y-9933452D02*
X8703262Y-9942976D01*
X8665167Y-9942976D01*
X8646119Y-9933452D01*
X8636595Y-9914405D01*
X8636595Y-9838214D01*
X8646119Y-9819167D01*
X8665167Y-9809643D01*
X8703262Y-9809643D01*
X8722310Y-9819167D01*
X8731833Y-9838214D01*
X8731833Y-9857262D01*
X8636595Y-9876310D01*
X8808024Y-9933452D02*
X8827071Y-9942976D01*
X8865167Y-9942976D01*
X8884214Y-9933452D01*
X8893738Y-9914405D01*
X8893738Y-9904881D01*
X8884214Y-9885833D01*
X8865167Y-9876310D01*
X8836595Y-9876310D01*
X8817548Y-9866786D01*
X8808024Y-9847738D01*
X8808024Y-9838214D01*
X8817548Y-9819167D01*
X8836595Y-9809643D01*
X8865167Y-9809643D01*
X8884214Y-9819167D01*
X8960405Y-10019167D02*
X8969929Y-10009643D01*
X8988976Y-9981071D01*
X8998500Y-9962024D01*
X9008024Y-9933452D01*
X9017548Y-9885833D01*
X9017548Y-9847738D01*
X9008024Y-9800119D01*
X8998500Y-9771548D01*
X8988976Y-9752500D01*
X8969929Y-9723929D01*
X8960405Y-9714405D01*
X9322310Y-10019167D02*
X9312786Y-10009643D01*
X9293738Y-9981071D01*
X9284214Y-9962024D01*
X9274690Y-9933452D01*
X9265167Y-9885833D01*
X9265167Y-9847738D01*
X9274690Y-9800119D01*
X9284214Y-9771548D01*
X9293738Y-9752500D01*
X9312786Y-9723929D01*
X9322310Y-9714405D01*
X9398500Y-9809643D02*
X9398500Y-9942976D01*
X9398500Y-9828690D02*
X9408024Y-9819167D01*
X9427071Y-9809643D01*
X9455643Y-9809643D01*
X9474690Y-9819167D01*
X9484214Y-9838214D01*
X9484214Y-9942976D01*
X9608024Y-9942976D02*
X9588976Y-9933452D01*
X9579452Y-9923929D01*
X9569929Y-9904881D01*
X9569929Y-9847738D01*
X9579452Y-9828690D01*
X9588976Y-9819167D01*
X9608024Y-9809643D01*
X9636595Y-9809643D01*
X9655643Y-9819167D01*
X9665167Y-9828690D01*
X9674690Y-9847738D01*
X9674690Y-9904881D01*
X9665167Y-9923929D01*
X9655643Y-9933452D01*
X9636595Y-9942976D01*
X9608024Y-9942976D01*
X9731833Y-9809643D02*
X9808024Y-9809643D01*
X9760405Y-9742976D02*
X9760405Y-9914405D01*
X9769929Y-9933452D01*
X9788976Y-9942976D01*
X9808024Y-9942976D01*
X10027071Y-9809643D02*
X10027071Y-10009643D01*
X10027071Y-9819167D02*
X10046119Y-9809643D01*
X10084214Y-9809643D01*
X10103262Y-9819167D01*
X10112786Y-9828690D01*
X10122310Y-9847738D01*
X10122310Y-9904881D01*
X10112786Y-9923929D01*
X10103262Y-9933452D01*
X10084214Y-9942976D01*
X10046119Y-9942976D01*
X10027071Y-9933452D01*
X10236595Y-9942976D02*
X10217548Y-9933452D01*
X10208024Y-9914405D01*
X10208024Y-9742976D01*
X10398500Y-9942976D02*
X10398500Y-9838214D01*
X10388976Y-9819167D01*
X10369929Y-9809643D01*
X10331833Y-9809643D01*
X10312786Y-9819167D01*
X10398500Y-9933452D02*
X10379452Y-9942976D01*
X10331833Y-9942976D01*
X10312786Y-9933452D01*
X10303262Y-9914405D01*
X10303262Y-9895357D01*
X10312786Y-9876310D01*
X10331833Y-9866786D01*
X10379452Y-9866786D01*
X10398500Y-9857262D01*
X10465167Y-9809643D02*
X10541357Y-9809643D01*
X10493738Y-9742976D02*
X10493738Y-9914405D01*
X10503262Y-9933452D01*
X10522310Y-9942976D01*
X10541357Y-9942976D01*
X10684214Y-9933452D02*
X10665167Y-9942976D01*
X10627071Y-9942976D01*
X10608024Y-9933452D01*
X10598500Y-9914405D01*
X10598500Y-9838214D01*
X10608024Y-9819167D01*
X10627071Y-9809643D01*
X10665167Y-9809643D01*
X10684214Y-9819167D01*
X10693738Y-9838214D01*
X10693738Y-9857262D01*
X10598500Y-9876310D01*
X10865167Y-9942976D02*
X10865167Y-9742976D01*
X10865167Y-9933452D02*
X10846119Y-9942976D01*
X10808024Y-9942976D01*
X10788976Y-9933452D01*
X10779452Y-9923929D01*
X10769929Y-9904881D01*
X10769929Y-9847738D01*
X10779452Y-9828690D01*
X10788976Y-9819167D01*
X10808024Y-9809643D01*
X10846119Y-9809643D01*
X10865167Y-9819167D01*
X10941357Y-10019167D02*
X10950881Y-10009643D01*
X10969929Y-9981071D01*
X10979452Y-9962024D01*
X10988976Y-9933452D01*
X10998500Y-9885833D01*
X10998500Y-9847738D01*
X10988976Y-9800119D01*
X10979452Y-9771548D01*
X10969929Y-9752500D01*
X10950881Y-9723929D01*
X10941357Y-9714405D01*
M02*
