M48
; DRILL file {KiCad 7.0.2} date Thu Mar  7 16:30:53 2024
; FORMAT={-:-/ absolute / inch / decimal}
; #@! TF.CreationDate,2024-03-07T16:30:53-05:00
; #@! TF.GenerationSoftware,Kicad,Pcbnew,7.0.2
; #@! TF.FileFunction,Plated,1,2,PTH
FMAT,2
INCH
; #@! TA.AperFunction,Plated,PTH,ComponentDrill
T1C0.0315
; #@! TA.AperFunction,Plated,PTH,ComponentDrill
T2C0.0394
; #@! TA.AperFunction,Plated,PTH,ComponentDrill
T3C0.0402
; #@! TA.AperFunction,Plated,PTH,ComponentDrill
T4C0.0433
; #@! TA.AperFunction,Plated,PTH,ComponentDrill
T5C0.0787
%
G90
G05
T1
X5.7821Y-1.0487
X5.8786Y-1.5306
X5.8786Y-1.6093
X5.8821Y-1.0487
X5.9573Y-1.5306
X5.9573Y-1.6093
X6.0361Y-1.5306
X6.0361Y-1.6093
X6.3Y-3.05
X6.3Y-3.25
X6.45Y-2.5
X6.45Y-2.9
X6.55Y-2.9
X6.7Y-3.05
X6.7Y-3.25
X6.95Y-2.9
T2
X1.7737Y-1.1067
X1.7737Y-1.2067
X1.7737Y-1.3067
X1.7737Y-1.4067
X1.7737Y-1.5067
X1.7737Y-1.6067
X1.7737Y-1.7067
X1.7737Y-1.8067
X1.8737Y-1.1067
X1.8737Y-1.2067
X1.8737Y-1.3067
X1.8737Y-1.4067
X1.8737Y-1.5067
X1.8737Y-1.6067
X1.8737Y-1.7067
X1.8737Y-1.8067
X4.3031Y-1.2428
X4.4031Y-1.2428
X4.5031Y-1.2428
X4.6031Y-1.2428
X4.7031Y-1.2428
X4.8031Y-1.2428
X4.9031Y-1.2428
X5.0031Y-1.2428
X5.3226Y-2.6401
X5.3226Y-2.7401
X5.3226Y-2.8401
X5.3226Y-2.9401
X5.3226Y-3.0401
X5.3226Y-3.1401
X5.3226Y-3.2401
X5.3226Y-3.3401
X5.3685Y-1.2073
X5.3685Y-1.3073
X5.3685Y-1.4073
X5.3685Y-1.5073
X6.2977Y-1.7258
X6.3977Y-1.7258
X6.4053Y-1.201
X6.4053Y-1.301
X6.4053Y-1.401
X6.4053Y-1.501
X6.4977Y-1.7258
X7.083Y-1.95
X7.083Y-2.2492
T3
X6.7367Y-1.979
X6.7367Y-2.079
X6.7367Y-2.179
X6.7367Y-2.279
X6.7367Y-2.379
X6.7367Y-2.479
X6.7367Y-2.579
T4
X4.5506Y-1.8923
X4.7506Y-1.8923
X5.5321Y-1.02
X5.5321Y-1.12
X5.5321Y-1.22
X5.5321Y-1.32
X5.5321Y-1.42
X5.5321Y-1.52
X5.5321Y-1.62
X5.5321Y-1.72
X5.5321Y-1.82
X5.5321Y-1.92
X5.5321Y-2.02
X5.5321Y-2.12
X5.5321Y-2.22
X5.5321Y-2.32
X5.5321Y-2.42
X5.5321Y-2.52
X5.5321Y-2.62
X5.5321Y-2.72
X5.5321Y-2.82
X5.5321Y-2.92
X5.5321Y-3.02
X5.5321Y-3.12
X5.5321Y-3.22
X5.5321Y-3.32
X5.6321Y-2.82
X5.6522Y-1.268
X5.6522Y-1.368
X5.6522Y-1.468
X5.6522Y-1.568
X5.6522Y-1.668
X5.7321Y-2.82
X5.8321Y-2.82
X5.9321Y-2.82
X6.0321Y-1.12
X6.0321Y-2.82
X6.1321Y-1.02
X6.1321Y-1.12
X6.1321Y-1.22
X6.1321Y-1.32
X6.1321Y-1.42
X6.1321Y-1.52
X6.1321Y-1.62
X6.1321Y-1.72
X6.1321Y-1.82
X6.1321Y-1.92
X6.1321Y-2.02
X6.1321Y-2.12
X6.1321Y-2.22
X6.1321Y-2.32
X6.1321Y-2.42
X6.1321Y-2.52
X6.1321Y-2.62
X6.1321Y-2.72
X6.1321Y-2.82
X6.1321Y-2.92
X6.1321Y-3.02
X6.1321Y-3.12
X6.1321Y-3.22
X6.1321Y-3.32
T5
X2.4647Y-2.762
X2.4647Y-2.9589
X4.512Y-2.762
X4.512Y-2.9589
T0
M30
