M48
; DRILL file {KiCad (6.0.9)} date Mon Jan 16 22:45:39 2023
; FORMAT={-:-/ absolute / metric / decimal}
; #@! TF.CreationDate,2023-01-16T22:45:39-05:00
; #@! TF.GenerationSoftware,Kicad,Pcbnew,(6.0.9)
; #@! TF.FileFunction,Plated,1,2,PTH
FMAT,2
METRIC
; #@! TA.AperFunction,Plated,PTH,ViaDrill
T1C0.400
; #@! TA.AperFunction,Plated,PTH,ComponentDrill
T2C0.650
; #@! TA.AperFunction,Plated,PTH,ComponentDrill
T3C0.800
; #@! TA.AperFunction,Plated,PTH,ComponentDrill
T4C1.000
; #@! TA.AperFunction,Plated,PTH,ComponentDrill
T5C1.020
; #@! TA.AperFunction,Plated,PTH,ComponentDrill
T6C1.100
; #@! TA.AperFunction,Plated,PTH,ComponentDrill
T7C2.700
; #@! TA.AperFunction,Plated,PTH,ComponentDrill
T8C3.200
%
G90
G05
T1
X54.61Y-58.42
X127.0Y-63.5
X127.635Y-66.04
X130.81Y-77.47
T2
X59.87Y-45.677
X59.87Y-46.947
X59.87Y-48.218
X59.87Y-49.487
X59.87Y-50.758
X59.87Y-52.027
X59.87Y-53.297
X59.87Y-54.567
X59.87Y-55.837
X59.87Y-57.107
X61.14Y-45.677
X61.14Y-46.947
X61.14Y-48.218
X61.14Y-49.487
X61.14Y-50.758
X61.14Y-52.027
X61.14Y-53.297
X61.14Y-54.567
X61.14Y-55.837
X61.14Y-57.107
T3
X107.95Y-24.86
X110.402Y-37.1
X110.402Y-39.1
X110.49Y-24.86
X112.402Y-37.1
X112.402Y-39.1
X114.402Y-37.1
X114.402Y-39.1
X124.46Y-87.63
X126.565Y-53.951
X126.645Y-49.963
X134.62Y-87.63
X136.725Y-53.951
X136.805Y-49.963
X142.28Y-87.378
X152.44Y-87.378
T4
X46.355Y-73.025
X48.895Y-73.025
X49.668Y-78.122
X49.668Y-85.722
X51.435Y-73.025
X81.786Y-73.345
X81.786Y-75.885
X81.786Y-78.425
X81.786Y-80.965
X124.91Y-31.995
X124.91Y-34.535
X141.696Y-51.432
X141.696Y-53.972
X141.696Y-56.512
X141.696Y-59.052
X141.696Y-61.592
X141.696Y-64.132
X141.696Y-66.672
X141.696Y-69.212
X141.696Y-71.752
X141.696Y-74.292
X141.696Y-76.832
X141.696Y-79.372
X144.236Y-51.432
X144.236Y-53.972
X144.236Y-56.512
X144.236Y-59.052
X144.236Y-61.592
X144.236Y-64.132
X144.236Y-66.672
X144.236Y-69.212
X144.236Y-71.752
X144.236Y-74.292
X144.236Y-76.832
X144.236Y-79.372
X163.01Y-31.995
X163.01Y-34.535
T5
X120.963Y-73.089
X123.503Y-73.089
X126.043Y-73.089
X128.583Y-73.089
X131.123Y-73.089
X133.663Y-73.089
X136.203Y-73.089
T6
X101.6Y-24.13
X101.6Y-26.67
X101.6Y-29.21
X101.6Y-31.75
X101.6Y-34.29
X101.6Y-36.83
X101.6Y-39.37
X101.6Y-41.91
X101.6Y-44.45
X101.6Y-46.99
X101.6Y-49.53
X101.6Y-52.07
X101.6Y-54.61
X101.6Y-57.15
X101.6Y-59.69
X101.6Y-62.23
X101.6Y-64.77
X101.6Y-67.31
X101.6Y-69.85
X101.6Y-72.39
X101.6Y-74.93
X101.6Y-77.47
X101.6Y-80.01
X101.6Y-82.55
X104.14Y-69.85
X104.651Y-30.429
X104.651Y-32.969
X104.651Y-35.509
X104.651Y-38.049
X104.651Y-40.589
X106.68Y-69.85
X109.22Y-69.85
X111.76Y-69.85
X114.3Y-26.67
X114.3Y-69.85
X116.84Y-24.13
X116.84Y-26.67
X116.84Y-29.21
X116.84Y-31.75
X116.84Y-34.29
X116.84Y-36.83
X116.84Y-39.37
X116.84Y-41.91
X116.84Y-44.45
X116.84Y-46.99
X116.84Y-49.53
X116.84Y-52.07
X116.84Y-54.61
X116.84Y-57.15
X116.84Y-59.69
X116.84Y-62.23
X116.84Y-64.77
X116.84Y-67.31
X116.84Y-69.85
X116.84Y-72.39
X116.84Y-74.93
X116.84Y-77.47
X116.84Y-80.01
X116.84Y-82.55
T7
X173.355Y-32.385
X173.355Y-37.385
T8
X122.233Y-82.594
T0
M30
