G04 #@! TF.GenerationSoftware,KiCad,Pcbnew,8.0.3*
G04 #@! TF.CreationDate,2024-07-05T00:01:19-04:00*
G04 #@! TF.ProjectId,rrc_pcb2,7272635f-7063-4623-922e-6b696361645f,3*
G04 #@! TF.SameCoordinates,Original*
G04 #@! TF.FileFunction,AssemblyDrawing,Top*
%FSLAX46Y46*%
G04 Gerber Fmt 4.6, Leading zero omitted, Abs format (unit mm)*
G04 Created by KiCad (PCBNEW 8.0.3) date 2024-07-05 00:01:19*
%MOMM*%
%LPD*%
G01*
G04 APERTURE LIST*
%ADD10C,0.150000*%
%ADD11C,0.100000*%
G04 APERTURE END LIST*
D10*
X171283333Y-74114819D02*
X170950000Y-73638628D01*
X170711905Y-74114819D02*
X170711905Y-73114819D01*
X170711905Y-73114819D02*
X171092857Y-73114819D01*
X171092857Y-73114819D02*
X171188095Y-73162438D01*
X171188095Y-73162438D02*
X171235714Y-73210057D01*
X171235714Y-73210057D02*
X171283333Y-73305295D01*
X171283333Y-73305295D02*
X171283333Y-73448152D01*
X171283333Y-73448152D02*
X171235714Y-73543390D01*
X171235714Y-73543390D02*
X171188095Y-73591009D01*
X171188095Y-73591009D02*
X171092857Y-73638628D01*
X171092857Y-73638628D02*
X170711905Y-73638628D01*
X171616667Y-73114819D02*
X172235714Y-73114819D01*
X172235714Y-73114819D02*
X171902381Y-73495771D01*
X171902381Y-73495771D02*
X172045238Y-73495771D01*
X172045238Y-73495771D02*
X172140476Y-73543390D01*
X172140476Y-73543390D02*
X172188095Y-73591009D01*
X172188095Y-73591009D02*
X172235714Y-73686247D01*
X172235714Y-73686247D02*
X172235714Y-73924342D01*
X172235714Y-73924342D02*
X172188095Y-74019580D01*
X172188095Y-74019580D02*
X172140476Y-74067200D01*
X172140476Y-74067200D02*
X172045238Y-74114819D01*
X172045238Y-74114819D02*
X171759524Y-74114819D01*
X171759524Y-74114819D02*
X171664286Y-74067200D01*
X171664286Y-74067200D02*
X171616667Y-74019580D01*
X164284819Y-68746666D02*
X163808628Y-69079999D01*
X164284819Y-69318094D02*
X163284819Y-69318094D01*
X163284819Y-69318094D02*
X163284819Y-68937142D01*
X163284819Y-68937142D02*
X163332438Y-68841904D01*
X163332438Y-68841904D02*
X163380057Y-68794285D01*
X163380057Y-68794285D02*
X163475295Y-68746666D01*
X163475295Y-68746666D02*
X163618152Y-68746666D01*
X163618152Y-68746666D02*
X163713390Y-68794285D01*
X163713390Y-68794285D02*
X163761009Y-68841904D01*
X163761009Y-68841904D02*
X163808628Y-68937142D01*
X163808628Y-68937142D02*
X163808628Y-69318094D01*
X163618152Y-67889523D02*
X164284819Y-67889523D01*
X163237200Y-68127618D02*
X163951485Y-68365713D01*
X163951485Y-68365713D02*
X163951485Y-67746666D01*
X46364819Y-72788333D02*
X47079104Y-72788333D01*
X47079104Y-72788333D02*
X47221961Y-72835952D01*
X47221961Y-72835952D02*
X47317200Y-72931190D01*
X47317200Y-72931190D02*
X47364819Y-73074047D01*
X47364819Y-73074047D02*
X47364819Y-73169285D01*
X46460057Y-72359761D02*
X46412438Y-72312142D01*
X46412438Y-72312142D02*
X46364819Y-72216904D01*
X46364819Y-72216904D02*
X46364819Y-71978809D01*
X46364819Y-71978809D02*
X46412438Y-71883571D01*
X46412438Y-71883571D02*
X46460057Y-71835952D01*
X46460057Y-71835952D02*
X46555295Y-71788333D01*
X46555295Y-71788333D02*
X46650533Y-71788333D01*
X46650533Y-71788333D02*
X46793390Y-71835952D01*
X46793390Y-71835952D02*
X47364819Y-72407380D01*
X47364819Y-72407380D02*
X47364819Y-71788333D01*
X162168360Y-43290392D02*
X162168360Y-44004677D01*
X162168360Y-44004677D02*
X162120741Y-44147534D01*
X162120741Y-44147534D02*
X162025503Y-44242773D01*
X162025503Y-44242773D02*
X161882646Y-44290392D01*
X161882646Y-44290392D02*
X161787408Y-44290392D01*
X163168360Y-44290392D02*
X162596932Y-44290392D01*
X162882646Y-44290392D02*
X162882646Y-43290392D01*
X162882646Y-43290392D02*
X162787408Y-43433249D01*
X162787408Y-43433249D02*
X162692170Y-43528487D01*
X162692170Y-43528487D02*
X162596932Y-43576106D01*
X182520815Y-49900950D02*
X182520815Y-49139046D01*
X182901768Y-49519998D02*
X182139863Y-49519998D01*
X183837958Y-54210951D02*
X183885577Y-54068094D01*
X183885577Y-54068094D02*
X183933196Y-54020475D01*
X183933196Y-54020475D02*
X184028434Y-53972856D01*
X184028434Y-53972856D02*
X184171291Y-53972856D01*
X184171291Y-53972856D02*
X184266529Y-54020475D01*
X184266529Y-54020475D02*
X184314149Y-54068094D01*
X184314149Y-54068094D02*
X184361768Y-54163332D01*
X184361768Y-54163332D02*
X184361768Y-54544284D01*
X184361768Y-54544284D02*
X183361768Y-54544284D01*
X183361768Y-54544284D02*
X183361768Y-54210951D01*
X183361768Y-54210951D02*
X183409387Y-54115713D01*
X183409387Y-54115713D02*
X183457006Y-54068094D01*
X183457006Y-54068094D02*
X183552244Y-54020475D01*
X183552244Y-54020475D02*
X183647482Y-54020475D01*
X183647482Y-54020475D02*
X183742720Y-54068094D01*
X183742720Y-54068094D02*
X183790339Y-54115713D01*
X183790339Y-54115713D02*
X183837958Y-54210951D01*
X183837958Y-54210951D02*
X183837958Y-54544284D01*
X183361768Y-53639522D02*
X183361768Y-52972856D01*
X183361768Y-52972856D02*
X184361768Y-53639522D01*
X184361768Y-53639522D02*
X184361768Y-52972856D01*
X184361768Y-52068094D02*
X184361768Y-52639522D01*
X184361768Y-52353808D02*
X183361768Y-52353808D01*
X183361768Y-52353808D02*
X183504625Y-52449046D01*
X183504625Y-52449046D02*
X183599863Y-52544284D01*
X183599863Y-52544284D02*
X183647482Y-52639522D01*
X164919558Y-35078288D02*
X165729081Y-35078288D01*
X165729081Y-35078288D02*
X165824319Y-35030669D01*
X165824319Y-35030669D02*
X165871939Y-34983050D01*
X165871939Y-34983050D02*
X165919558Y-34887812D01*
X165919558Y-34887812D02*
X165919558Y-34697336D01*
X165919558Y-34697336D02*
X165871939Y-34602098D01*
X165871939Y-34602098D02*
X165824319Y-34554479D01*
X165824319Y-34554479D02*
X165729081Y-34506860D01*
X165729081Y-34506860D02*
X164919558Y-34506860D01*
X165919558Y-33506860D02*
X165919558Y-34078288D01*
X165919558Y-33792574D02*
X164919558Y-33792574D01*
X164919558Y-33792574D02*
X165062415Y-33887812D01*
X165062415Y-33887812D02*
X165157653Y-33983050D01*
X165157653Y-33983050D02*
X165205272Y-34078288D01*
X164933333Y-77924819D02*
X164600000Y-77448628D01*
X164361905Y-77924819D02*
X164361905Y-76924819D01*
X164361905Y-76924819D02*
X164742857Y-76924819D01*
X164742857Y-76924819D02*
X164838095Y-76972438D01*
X164838095Y-76972438D02*
X164885714Y-77020057D01*
X164885714Y-77020057D02*
X164933333Y-77115295D01*
X164933333Y-77115295D02*
X164933333Y-77258152D01*
X164933333Y-77258152D02*
X164885714Y-77353390D01*
X164885714Y-77353390D02*
X164838095Y-77401009D01*
X164838095Y-77401009D02*
X164742857Y-77448628D01*
X164742857Y-77448628D02*
X164361905Y-77448628D01*
X165885714Y-77924819D02*
X165314286Y-77924819D01*
X165600000Y-77924819D02*
X165600000Y-76924819D01*
X165600000Y-76924819D02*
X165504762Y-77067676D01*
X165504762Y-77067676D02*
X165409524Y-77162914D01*
X165409524Y-77162914D02*
X165314286Y-77210533D01*
X128809523Y-70665180D02*
X128809523Y-71331847D01*
X128809523Y-71236609D02*
X128761904Y-71284228D01*
X128761904Y-71284228D02*
X128666666Y-71331847D01*
X128666666Y-71331847D02*
X128523809Y-71331847D01*
X128523809Y-71331847D02*
X128428571Y-71284228D01*
X128428571Y-71284228D02*
X128380952Y-71188990D01*
X128380952Y-71188990D02*
X128380952Y-70665180D01*
X128380952Y-71188990D02*
X128333333Y-71284228D01*
X128333333Y-71284228D02*
X128238095Y-71331847D01*
X128238095Y-71331847D02*
X128095238Y-71331847D01*
X128095238Y-71331847D02*
X127999999Y-71284228D01*
X127999999Y-71284228D02*
X127952380Y-71188990D01*
X127952380Y-71188990D02*
X127952380Y-70665180D01*
X127476190Y-71331847D02*
X127476190Y-70331847D01*
X127476190Y-71284228D02*
X127380952Y-71331847D01*
X127380952Y-71331847D02*
X127190476Y-71331847D01*
X127190476Y-71331847D02*
X127095238Y-71284228D01*
X127095238Y-71284228D02*
X127047619Y-71236609D01*
X127047619Y-71236609D02*
X127000000Y-71141371D01*
X127000000Y-71141371D02*
X127000000Y-70855657D01*
X127000000Y-70855657D02*
X127047619Y-70760419D01*
X127047619Y-70760419D02*
X127095238Y-70712800D01*
X127095238Y-70712800D02*
X127190476Y-70665180D01*
X127190476Y-70665180D02*
X127380952Y-70665180D01*
X127380952Y-70665180D02*
X127476190Y-70712800D01*
X126142857Y-71331847D02*
X126142857Y-70665180D01*
X126571428Y-71331847D02*
X126571428Y-70808038D01*
X126571428Y-70808038D02*
X126523809Y-70712800D01*
X126523809Y-70712800D02*
X126428571Y-70665180D01*
X126428571Y-70665180D02*
X126285714Y-70665180D01*
X126285714Y-70665180D02*
X126190476Y-70712800D01*
X126190476Y-70712800D02*
X126142857Y-70760419D01*
X125142857Y-70665180D02*
X125714285Y-70665180D01*
X125428571Y-70665180D02*
X125428571Y-71665180D01*
X125428571Y-71665180D02*
X125523809Y-71522323D01*
X125523809Y-71522323D02*
X125619047Y-71427085D01*
X125619047Y-71427085D02*
X125714285Y-71379466D01*
X135648090Y-77757056D02*
X134981423Y-77757056D01*
X135076661Y-77757056D02*
X135029042Y-77709437D01*
X135029042Y-77709437D02*
X134981423Y-77614199D01*
X134981423Y-77614199D02*
X134981423Y-77471342D01*
X134981423Y-77471342D02*
X135029042Y-77376104D01*
X135029042Y-77376104D02*
X135124280Y-77328485D01*
X135124280Y-77328485D02*
X135648090Y-77328485D01*
X135124280Y-77328485D02*
X135029042Y-77280866D01*
X135029042Y-77280866D02*
X134981423Y-77185628D01*
X134981423Y-77185628D02*
X134981423Y-77042771D01*
X134981423Y-77042771D02*
X135029042Y-76947532D01*
X135029042Y-76947532D02*
X135124280Y-76899913D01*
X135124280Y-76899913D02*
X135648090Y-76899913D01*
X134981423Y-76423723D02*
X135981423Y-76423723D01*
X135029042Y-76423723D02*
X134981423Y-76328485D01*
X134981423Y-76328485D02*
X134981423Y-76138009D01*
X134981423Y-76138009D02*
X135029042Y-76042771D01*
X135029042Y-76042771D02*
X135076661Y-75995152D01*
X135076661Y-75995152D02*
X135171899Y-75947533D01*
X135171899Y-75947533D02*
X135457613Y-75947533D01*
X135457613Y-75947533D02*
X135552851Y-75995152D01*
X135552851Y-75995152D02*
X135600471Y-76042771D01*
X135600471Y-76042771D02*
X135648090Y-76138009D01*
X135648090Y-76138009D02*
X135648090Y-76328485D01*
X135648090Y-76328485D02*
X135600471Y-76423723D01*
X134981423Y-75090390D02*
X135648090Y-75090390D01*
X134981423Y-75518961D02*
X135505232Y-75518961D01*
X135505232Y-75518961D02*
X135600471Y-75471342D01*
X135600471Y-75471342D02*
X135648090Y-75376104D01*
X135648090Y-75376104D02*
X135648090Y-75233247D01*
X135648090Y-75233247D02*
X135600471Y-75138009D01*
X135600471Y-75138009D02*
X135552851Y-75090390D01*
X135648090Y-74090390D02*
X135648090Y-74661818D01*
X135648090Y-74376104D02*
X134648090Y-74376104D01*
X134648090Y-74376104D02*
X134790947Y-74471342D01*
X134790947Y-74471342D02*
X134886185Y-74566580D01*
X134886185Y-74566580D02*
X134933804Y-74661818D01*
X164933333Y-83004819D02*
X164600000Y-82528628D01*
X164361905Y-83004819D02*
X164361905Y-82004819D01*
X164361905Y-82004819D02*
X164742857Y-82004819D01*
X164742857Y-82004819D02*
X164838095Y-82052438D01*
X164838095Y-82052438D02*
X164885714Y-82100057D01*
X164885714Y-82100057D02*
X164933333Y-82195295D01*
X164933333Y-82195295D02*
X164933333Y-82338152D01*
X164933333Y-82338152D02*
X164885714Y-82433390D01*
X164885714Y-82433390D02*
X164838095Y-82481009D01*
X164838095Y-82481009D02*
X164742857Y-82528628D01*
X164742857Y-82528628D02*
X164361905Y-82528628D01*
X165314286Y-82100057D02*
X165361905Y-82052438D01*
X165361905Y-82052438D02*
X165457143Y-82004819D01*
X165457143Y-82004819D02*
X165695238Y-82004819D01*
X165695238Y-82004819D02*
X165790476Y-82052438D01*
X165790476Y-82052438D02*
X165838095Y-82100057D01*
X165838095Y-82100057D02*
X165885714Y-82195295D01*
X165885714Y-82195295D02*
X165885714Y-82290533D01*
X165885714Y-82290533D02*
X165838095Y-82433390D01*
X165838095Y-82433390D02*
X165266667Y-83004819D01*
X165266667Y-83004819D02*
X165885714Y-83004819D01*
D11*
X166370000Y-73660000D02*
X168300000Y-73660000D01*
X168300000Y-72410000D02*
X168300000Y-74910000D01*
X168300000Y-74910000D02*
X174600000Y-74910000D01*
X174600000Y-72410000D02*
X168300000Y-72410000D01*
X174600000Y-74910000D02*
X174600000Y-72410000D01*
X176530000Y-73660000D02*
X174600000Y-73660000D01*
X162580000Y-65430000D02*
X162580000Y-71730000D01*
X162580000Y-71730000D02*
X165080000Y-71730000D01*
X163830000Y-63500000D02*
X163830000Y-65430000D01*
X163830000Y-73660000D02*
X163830000Y-71730000D01*
X165080000Y-65430000D02*
X162580000Y-65430000D01*
X165080000Y-71730000D02*
X165080000Y-65430000D01*
X45640000Y-69915000D02*
X48180000Y-69915000D01*
X45640000Y-74360000D02*
X45640000Y-69915000D01*
X46275000Y-74995000D02*
X45640000Y-74360000D01*
X48180000Y-69915000D02*
X48180000Y-74995000D01*
X48180000Y-74995000D02*
X46275000Y-74995000D01*
X158691694Y-42565573D02*
X166311694Y-42565573D01*
X158691694Y-44470573D02*
X158691694Y-42565573D01*
X159326694Y-45105573D02*
X158691694Y-44470573D01*
X166311694Y-42565573D02*
X166311694Y-45105573D01*
X166311694Y-45105573D02*
X159326694Y-45105573D01*
X180906949Y-53329999D02*
G75*
G02*
X178906949Y-53329999I-1000000J0D01*
G01*
X178906949Y-53329999D02*
G75*
G02*
X180906949Y-53329999I1000000J0D01*
G01*
X185906949Y-53329999D02*
G75*
G02*
X173906949Y-53329999I-6000000J0D01*
G01*
X173906949Y-53329999D02*
G75*
G02*
X185906949Y-53329999I6000000J0D01*
G01*
X162374739Y-30186384D02*
X162374739Y-30826384D01*
X162374739Y-30186384D02*
X164194739Y-30186384D01*
X162374739Y-30826384D02*
X164194739Y-30826384D01*
X162374739Y-32726384D02*
X162374739Y-33366384D01*
X162374739Y-32726384D02*
X164194739Y-32726384D01*
X162374739Y-33366384D02*
X164194739Y-33366384D01*
X162374739Y-35266384D02*
X162374739Y-35906384D01*
X162374739Y-35266384D02*
X164194739Y-35266384D01*
X162374739Y-35906384D02*
X164194739Y-35906384D01*
X162374739Y-37806384D02*
X162374739Y-38446384D01*
X162374739Y-37806384D02*
X164194739Y-37806384D01*
X162374739Y-38446384D02*
X164194739Y-38446384D01*
X164194739Y-29871384D02*
X164829739Y-29236384D01*
X164194739Y-39396384D02*
X164194739Y-29871384D01*
X164829739Y-29236384D02*
X166734739Y-29236384D01*
X166734739Y-29236384D02*
X166734739Y-39396384D01*
X166734739Y-30186384D02*
X172734739Y-30186384D01*
X166734739Y-30826384D02*
X172734739Y-30826384D01*
X166734739Y-32726384D02*
X172734739Y-32726384D01*
X166734739Y-33366384D02*
X172734739Y-33366384D01*
X166734739Y-35266384D02*
X172734739Y-35266384D01*
X166734739Y-35906384D02*
X172734739Y-35906384D01*
X166734739Y-37806384D02*
X172734739Y-37806384D01*
X166734739Y-38446384D02*
X172734739Y-38446384D01*
X166734739Y-39396384D02*
X164194739Y-39396384D01*
X172734739Y-30186384D02*
X172734739Y-30826384D01*
X172734739Y-32726384D02*
X172734739Y-33366384D01*
X172734739Y-35266384D02*
X172734739Y-35906384D01*
X172734739Y-37806384D02*
X172734739Y-38446384D01*
X160020000Y-77470000D02*
X161950000Y-77470000D01*
X161950000Y-76220000D02*
X161950000Y-78720000D01*
X161950000Y-78720000D02*
X168250000Y-78720000D01*
X168250000Y-76220000D02*
X161950000Y-76220000D01*
X168250000Y-78720000D02*
X168250000Y-76220000D01*
X170180000Y-77470000D02*
X168250000Y-77470000D01*
X45052661Y-27809407D02*
X45052661Y-28409407D01*
X45052661Y-28409407D02*
X49112661Y-28409407D01*
X45052661Y-30349407D02*
X45052661Y-30949407D01*
X45052661Y-30949407D02*
X49112661Y-30949407D01*
X45052661Y-32889407D02*
X45052661Y-33489407D01*
X45052661Y-33489407D02*
X49112661Y-33489407D01*
X45052661Y-35429407D02*
X45052661Y-36029407D01*
X45052661Y-36029407D02*
X49112661Y-36029407D01*
X45052661Y-37969407D02*
X45052661Y-38569407D01*
X45052661Y-38569407D02*
X49112661Y-38569407D01*
X45052661Y-40509407D02*
X45052661Y-41109407D01*
X45052661Y-41109407D02*
X49112661Y-41109407D01*
X45052661Y-43049407D02*
X45052661Y-43649407D01*
X45052661Y-43649407D02*
X49112661Y-43649407D01*
X45052661Y-45589407D02*
X45052661Y-46189407D01*
X45052661Y-46189407D02*
X49112661Y-46189407D01*
X49112661Y-26839407D02*
X57622661Y-26839407D01*
X49112661Y-27809407D02*
X45052661Y-27809407D01*
X49112661Y-30349407D02*
X45052661Y-30349407D01*
X49112661Y-32889407D02*
X45052661Y-32889407D01*
X49112661Y-35429407D02*
X45052661Y-35429407D01*
X49112661Y-37969407D02*
X45052661Y-37969407D01*
X49112661Y-40509407D02*
X45052661Y-40509407D01*
X49112661Y-43049407D02*
X45052661Y-43049407D01*
X49112661Y-45589407D02*
X45052661Y-45589407D01*
X49112661Y-46189407D02*
X49112661Y-26839407D01*
X50082661Y-47159407D02*
X49112661Y-46189407D01*
X57622661Y-26839407D02*
X57622661Y-47159407D01*
X57622661Y-47159407D02*
X50082661Y-47159407D01*
X133923271Y-65787533D02*
X136463271Y-65787533D01*
X133923271Y-85472533D02*
X133923271Y-65787533D01*
X134558271Y-86107533D02*
X133923271Y-85472533D01*
X136463271Y-65787533D02*
X136463271Y-86107533D01*
X136463271Y-86107533D02*
X134558271Y-86107533D01*
X160020000Y-82550000D02*
X161950000Y-82550000D01*
X161950000Y-81300000D02*
X161950000Y-83800000D01*
X161950000Y-83800000D02*
X168250000Y-83800000D01*
X168250000Y-81300000D02*
X161950000Y-81300000D01*
X168250000Y-83800000D02*
X168250000Y-81300000D01*
X170180000Y-82550000D02*
X168250000Y-82550000D01*
M02*
