M48
; DRILL file {KiCad 8.0.3} date 2024-07-05T00:04:44-0400
; FORMAT={-:-/ absolute / metric / decimal}
; #@! TF.CreationDate,2024-07-05T00:04:44-04:00
; #@! TF.GenerationSoftware,Kicad,Pcbnew,8.0.3
; #@! TF.FileFunction,Plated,1,2,PTH
FMAT,2
METRIC
; #@! TA.AperFunction,Plated,PTH,ComponentDrill
T1C0.800
; #@! TA.AperFunction,Plated,PTH,ComponentDrill
T2C1.000
; #@! TA.AperFunction,Plated,PTH,ComponentDrill
T3C1.020
; #@! TA.AperFunction,Plated,PTH,ComponentDrill
T4C1.100
; #@! TA.AperFunction,Plated,PTH,ComponentDrill
T5C2.000
%
G90
G05
T1
X146.865Y-26.637
X149.316Y-38.877
X149.316Y-40.877
X149.405Y-26.637
X151.316Y-38.877
X151.316Y-40.877
X153.316Y-38.877
X153.316Y-40.877
X160.02Y-77.47
X160.02Y-82.55
X163.83Y-63.5
X163.83Y-73.66
X166.37Y-73.66
X170.18Y-77.47
X170.18Y-82.55
X176.53Y-73.66
T2
X45.053Y-28.109
X45.053Y-30.649
X45.053Y-33.189
X45.053Y-35.729
X45.053Y-38.269
X45.053Y-40.809
X45.053Y-43.349
X45.053Y-45.889
X46.91Y-71.185
X46.91Y-73.725
X47.593Y-28.109
X47.593Y-30.649
X47.593Y-33.189
X47.593Y-35.729
X47.593Y-38.269
X47.593Y-40.809
X47.593Y-43.349
X47.593Y-45.889
X109.299Y-31.568
X111.839Y-31.568
X114.379Y-31.568
X116.919Y-31.568
X119.459Y-31.568
X121.999Y-31.568
X124.539Y-31.568
X127.079Y-31.568
X135.193Y-67.058
X135.193Y-69.598
X135.193Y-72.138
X135.193Y-74.678
X135.193Y-77.218
X135.193Y-79.758
X135.193Y-82.298
X135.193Y-84.838
X159.962Y-43.836
X162.502Y-43.836
X162.695Y-30.506
X162.695Y-33.046
X162.695Y-35.586
X162.695Y-38.126
X165.042Y-43.836
X179.907Y-49.53
X179.907Y-57.13
T3
X171.112Y-50.267
X171.112Y-52.807
X171.112Y-55.347
X171.112Y-57.887
X171.112Y-60.427
X171.112Y-62.967
X171.112Y-65.507
T4
X115.584Y-48.065
X120.664Y-48.065
X140.515Y-25.907
X140.515Y-28.447
X140.515Y-30.987
X140.515Y-33.527
X140.515Y-36.067
X140.515Y-38.607
X140.515Y-41.147
X140.515Y-43.687
X140.515Y-46.227
X140.515Y-48.767
X140.515Y-51.307
X140.515Y-53.847
X140.515Y-56.387
X140.515Y-58.927
X140.515Y-61.467
X140.515Y-64.007
X140.515Y-66.547
X140.515Y-69.087
X140.515Y-71.627
X140.515Y-74.167
X140.515Y-76.707
X140.515Y-79.247
X140.515Y-81.787
X140.515Y-84.327
X143.055Y-71.627
X143.566Y-32.206
X143.566Y-34.746
X143.566Y-37.286
X143.566Y-39.826
X143.566Y-42.366
X145.595Y-71.627
X148.135Y-71.627
X150.675Y-71.627
X153.215Y-28.447
X153.215Y-71.627
X155.755Y-25.907
X155.755Y-28.447
X155.755Y-30.987
X155.755Y-33.527
X155.755Y-36.067
X155.755Y-38.607
X155.755Y-41.147
X155.755Y-43.687
X155.755Y-46.227
X155.755Y-48.767
X155.755Y-51.307
X155.755Y-53.847
X155.755Y-56.387
X155.755Y-58.927
X155.755Y-61.467
X155.755Y-64.007
X155.755Y-66.547
X155.755Y-69.087
X155.755Y-71.627
X155.755Y-74.167
X155.755Y-76.707
X155.755Y-79.247
X155.755Y-81.787
X155.755Y-84.327
T5
X62.604Y-70.156
X62.604Y-75.156
X114.604Y-70.156
X114.604Y-75.156
M30
