%TF.GenerationSoftware,KiCad,Pcbnew,7.0.2*%
%TF.CreationDate,2024-03-07T16:30:55-05:00*%
%TF.ProjectId,rrc_pcb2,7272635f-7063-4623-922e-6b696361645f,3*%
%TF.SameCoordinates,Original*%
%TF.FileFunction,Drillmap*%
%TF.FilePolarity,Positive*%
%FSLAX45Y45*%
G04 Gerber Fmt 4.5, Leading zero omitted, Abs format (unit mm)*
G04 Created by KiCad (PCBNEW 7.0.2) date 2024-03-07 16:30:55*
%MOMM*%
%LPD*%
G01*
G04 APERTURE LIST*
%ADD10C,0.050000*%
%ADD11C,0.200000*%
G04 APERTURE END LIST*
D10*
X4191000Y-2065671D02*
X18796000Y-2065671D01*
X18796000Y-9271000D01*
X4191000Y-9271000D01*
X4191000Y-2065671D01*
D11*
X4436119Y-9586024D02*
X4436119Y-9386024D01*
X4436119Y-9386024D02*
X4483738Y-9386024D01*
X4483738Y-9386024D02*
X4512310Y-9395548D01*
X4512310Y-9395548D02*
X4531357Y-9414595D01*
X4531357Y-9414595D02*
X4540881Y-9433643D01*
X4540881Y-9433643D02*
X4550405Y-9471738D01*
X4550405Y-9471738D02*
X4550405Y-9500310D01*
X4550405Y-9500310D02*
X4540881Y-9538405D01*
X4540881Y-9538405D02*
X4531357Y-9557452D01*
X4531357Y-9557452D02*
X4512310Y-9576500D01*
X4512310Y-9576500D02*
X4483738Y-9586024D01*
X4483738Y-9586024D02*
X4436119Y-9586024D01*
X4636119Y-9586024D02*
X4636119Y-9452690D01*
X4636119Y-9490786D02*
X4645643Y-9471738D01*
X4645643Y-9471738D02*
X4655167Y-9462214D01*
X4655167Y-9462214D02*
X4674214Y-9452690D01*
X4674214Y-9452690D02*
X4693262Y-9452690D01*
X4759929Y-9586024D02*
X4759929Y-9452690D01*
X4759929Y-9386024D02*
X4750405Y-9395548D01*
X4750405Y-9395548D02*
X4759929Y-9405071D01*
X4759929Y-9405071D02*
X4769452Y-9395548D01*
X4769452Y-9395548D02*
X4759929Y-9386024D01*
X4759929Y-9386024D02*
X4759929Y-9405071D01*
X4883738Y-9586024D02*
X4864690Y-9576500D01*
X4864690Y-9576500D02*
X4855167Y-9557452D01*
X4855167Y-9557452D02*
X4855167Y-9386024D01*
X4988500Y-9586024D02*
X4969452Y-9576500D01*
X4969452Y-9576500D02*
X4959929Y-9557452D01*
X4959929Y-9557452D02*
X4959929Y-9386024D01*
X5217071Y-9586024D02*
X5217071Y-9386024D01*
X5217071Y-9386024D02*
X5283738Y-9528881D01*
X5283738Y-9528881D02*
X5350405Y-9386024D01*
X5350405Y-9386024D02*
X5350405Y-9586024D01*
X5531357Y-9586024D02*
X5531357Y-9481262D01*
X5531357Y-9481262D02*
X5521833Y-9462214D01*
X5521833Y-9462214D02*
X5502786Y-9452690D01*
X5502786Y-9452690D02*
X5464690Y-9452690D01*
X5464690Y-9452690D02*
X5445643Y-9462214D01*
X5531357Y-9576500D02*
X5512310Y-9586024D01*
X5512310Y-9586024D02*
X5464690Y-9586024D01*
X5464690Y-9586024D02*
X5445643Y-9576500D01*
X5445643Y-9576500D02*
X5436119Y-9557452D01*
X5436119Y-9557452D02*
X5436119Y-9538405D01*
X5436119Y-9538405D02*
X5445643Y-9519357D01*
X5445643Y-9519357D02*
X5464690Y-9509833D01*
X5464690Y-9509833D02*
X5512310Y-9509833D01*
X5512310Y-9509833D02*
X5531357Y-9500310D01*
X5626595Y-9452690D02*
X5626595Y-9652690D01*
X5626595Y-9462214D02*
X5645643Y-9452690D01*
X5645643Y-9452690D02*
X5683738Y-9452690D01*
X5683738Y-9452690D02*
X5702786Y-9462214D01*
X5702786Y-9462214D02*
X5712309Y-9471738D01*
X5712309Y-9471738D02*
X5721833Y-9490786D01*
X5721833Y-9490786D02*
X5721833Y-9547929D01*
X5721833Y-9547929D02*
X5712309Y-9566976D01*
X5712309Y-9566976D02*
X5702786Y-9576500D01*
X5702786Y-9576500D02*
X5683738Y-9586024D01*
X5683738Y-9586024D02*
X5645643Y-9586024D01*
X5645643Y-9586024D02*
X5626595Y-9576500D01*
X5807548Y-9566976D02*
X5817071Y-9576500D01*
X5817071Y-9576500D02*
X5807548Y-9586024D01*
X5807548Y-9586024D02*
X5798024Y-9576500D01*
X5798024Y-9576500D02*
X5807548Y-9566976D01*
X5807548Y-9566976D02*
X5807548Y-9586024D01*
X5807548Y-9462214D02*
X5817071Y-9471738D01*
X5817071Y-9471738D02*
X5807548Y-9481262D01*
X5807548Y-9481262D02*
X5798024Y-9471738D01*
X5798024Y-9471738D02*
X5807548Y-9462214D01*
X5807548Y-9462214D02*
X5807548Y-9481262D01*
M02*
