%TF.GenerationSoftware,KiCad,Pcbnew,(6.0.9)*%
%TF.CreationDate,2023-01-16T22:49:09-05:00*%
%TF.ProjectId,rrc_pcb,7272635f-7063-4622-9e6b-696361645f70,rev?*%
%TF.SameCoordinates,Original*%
%TF.FileFunction,AssemblyDrawing,Top*%
%FSLAX46Y46*%
G04 Gerber Fmt 4.6, Leading zero omitted, Abs format (unit mm)*
G04 Created by KiCad (PCBNEW (6.0.9)) date 2023-01-16 22:49:09*
%MOMM*%
%LPD*%
G01*
G04 APERTURE LIST*
%ADD10C,0.150000*%
%ADD11C,0.100000*%
G04 APERTURE END LIST*
D10*
%TO.C,R2*%
X128930664Y-56773316D02*
X128597330Y-56297126D01*
X128359235Y-56773316D02*
X128359235Y-55773316D01*
X128740188Y-55773316D01*
X128835426Y-55820936D01*
X128883045Y-55868555D01*
X128930664Y-55963793D01*
X128930664Y-56106650D01*
X128883045Y-56201888D01*
X128835426Y-56249507D01*
X128740188Y-56297126D01*
X128359235Y-56297126D01*
X129359235Y-56392364D02*
X130121140Y-56392364D01*
X130597330Y-56773316D02*
X130597330Y-55773316D01*
X130835426Y-55773316D01*
X130978283Y-55820936D01*
X131073521Y-55916174D01*
X131121140Y-56011412D01*
X131168759Y-56201888D01*
X131168759Y-56344745D01*
X131121140Y-56535221D01*
X131073521Y-56630459D01*
X130978283Y-56725697D01*
X130835426Y-56773316D01*
X130597330Y-56773316D01*
X131978283Y-56725697D02*
X131883045Y-56773316D01*
X131692569Y-56773316D01*
X131597330Y-56725697D01*
X131549711Y-56630459D01*
X131549711Y-56249507D01*
X131597330Y-56154269D01*
X131692569Y-56106650D01*
X131883045Y-56106650D01*
X131978283Y-56154269D01*
X132025902Y-56249507D01*
X132025902Y-56344745D01*
X131549711Y-56439983D01*
X132359235Y-56106650D02*
X132597330Y-56773316D01*
X132835426Y-56106650D01*
X133216378Y-56773316D02*
X133216378Y-56106650D01*
X133216378Y-55773316D02*
X133168759Y-55820936D01*
X133216378Y-55868555D01*
X133263997Y-55820936D01*
X133216378Y-55773316D01*
X133216378Y-55868555D01*
X134121140Y-56725697D02*
X134025902Y-56773316D01*
X133835426Y-56773316D01*
X133740188Y-56725697D01*
X133692569Y-56678078D01*
X133644950Y-56582840D01*
X133644950Y-56297126D01*
X133692569Y-56201888D01*
X133740188Y-56154269D01*
X133835426Y-56106650D01*
X134025902Y-56106650D01*
X134121140Y-56154269D01*
X134930664Y-56725697D02*
X134835426Y-56773316D01*
X134644950Y-56773316D01*
X134549711Y-56725697D01*
X134502092Y-56630459D01*
X134502092Y-56249507D01*
X134549711Y-56154269D01*
X134644950Y-56106650D01*
X134835426Y-56106650D01*
X134930664Y-56154269D01*
X134978283Y-56249507D01*
X134978283Y-56344745D01*
X134502092Y-56439983D01*
X131478283Y-54403316D02*
X131144950Y-53927126D01*
X130906854Y-54403316D02*
X130906854Y-53403316D01*
X131287807Y-53403316D01*
X131383045Y-53450936D01*
X131430664Y-53498555D01*
X131478283Y-53593793D01*
X131478283Y-53736650D01*
X131430664Y-53831888D01*
X131383045Y-53879507D01*
X131287807Y-53927126D01*
X130906854Y-53927126D01*
X131859235Y-53498555D02*
X131906854Y-53450936D01*
X132002092Y-53403316D01*
X132240188Y-53403316D01*
X132335426Y-53450936D01*
X132383045Y-53498555D01*
X132430664Y-53593793D01*
X132430664Y-53689031D01*
X132383045Y-53831888D01*
X131811616Y-54403316D01*
X132430664Y-54403316D01*
%TO.C,radio*%
X76338944Y-29548232D02*
X76338944Y-28881566D01*
X76338944Y-28548232D02*
X76291325Y-28595852D01*
X76338944Y-28643471D01*
X76386563Y-28595852D01*
X76338944Y-28548232D01*
X76338944Y-28643471D01*
X76815134Y-29548232D02*
X76815134Y-28881566D01*
X76815134Y-29072042D02*
X76862753Y-28976804D01*
X76910372Y-28929185D01*
X77005610Y-28881566D01*
X77100849Y-28881566D01*
X77434182Y-29548232D02*
X77434182Y-28881566D01*
X77434182Y-28548232D02*
X77386563Y-28595852D01*
X77434182Y-28643471D01*
X77481801Y-28595852D01*
X77434182Y-28548232D01*
X77434182Y-28643471D01*
X78338944Y-29548232D02*
X78338944Y-28548232D01*
X78338944Y-29500613D02*
X78243706Y-29548232D01*
X78053229Y-29548232D01*
X77957991Y-29500613D01*
X77910372Y-29452994D01*
X77862753Y-29357756D01*
X77862753Y-29072042D01*
X77910372Y-28976804D01*
X77957991Y-28929185D01*
X78053229Y-28881566D01*
X78243706Y-28881566D01*
X78338944Y-28929185D01*
X78815134Y-29548232D02*
X78815134Y-28881566D01*
X78815134Y-28548232D02*
X78767515Y-28595852D01*
X78815134Y-28643471D01*
X78862753Y-28595852D01*
X78815134Y-28548232D01*
X78815134Y-28643471D01*
X79719896Y-28881566D02*
X79719896Y-29548232D01*
X79291325Y-28881566D02*
X79291325Y-29405375D01*
X79338944Y-29500613D01*
X79434182Y-29548232D01*
X79577039Y-29548232D01*
X79672277Y-29500613D01*
X79719896Y-29452994D01*
X80196087Y-29548232D02*
X80196087Y-28881566D01*
X80196087Y-28976804D02*
X80243706Y-28929185D01*
X80338944Y-28881566D01*
X80481801Y-28881566D01*
X80577039Y-28929185D01*
X80624658Y-29024423D01*
X80624658Y-29548232D01*
X80624658Y-29024423D02*
X80672277Y-28929185D01*
X80767515Y-28881566D01*
X80910372Y-28881566D01*
X81005610Y-28929185D01*
X81053229Y-29024423D01*
X81053229Y-29548232D01*
X81577039Y-29548232D02*
X81767515Y-29548232D01*
X81862753Y-29500613D01*
X81910372Y-29452994D01*
X82005610Y-29310137D01*
X82053229Y-29119661D01*
X82053229Y-28738709D01*
X82005610Y-28643471D01*
X81957991Y-28595852D01*
X81862753Y-28548232D01*
X81672277Y-28548232D01*
X81577039Y-28595852D01*
X81529420Y-28643471D01*
X81481801Y-28738709D01*
X81481801Y-28976804D01*
X81529420Y-29072042D01*
X81577039Y-29119661D01*
X81672277Y-29167280D01*
X81862753Y-29167280D01*
X81957991Y-29119661D01*
X82005610Y-29072042D01*
X82053229Y-28976804D01*
X82910372Y-28548232D02*
X82719896Y-28548232D01*
X82624658Y-28595852D01*
X82577039Y-28643471D01*
X82481801Y-28786328D01*
X82434182Y-28976804D01*
X82434182Y-29357756D01*
X82481801Y-29452994D01*
X82529420Y-29500613D01*
X82624658Y-29548232D01*
X82815134Y-29548232D01*
X82910372Y-29500613D01*
X82957991Y-29452994D01*
X83005610Y-29357756D01*
X83005610Y-29119661D01*
X82957991Y-29024423D01*
X82910372Y-28976804D01*
X82815134Y-28929185D01*
X82624658Y-28929185D01*
X82529420Y-28976804D01*
X82481801Y-29024423D01*
X82434182Y-29119661D01*
X83624658Y-28548232D02*
X83719896Y-28548232D01*
X83815134Y-28595852D01*
X83862753Y-28643471D01*
X83910372Y-28738709D01*
X83957991Y-28929185D01*
X83957991Y-29167280D01*
X83910372Y-29357756D01*
X83862753Y-29452994D01*
X83815134Y-29500613D01*
X83719896Y-29548232D01*
X83624658Y-29548232D01*
X83529420Y-29500613D01*
X83481801Y-29452994D01*
X83434182Y-29357756D01*
X83386563Y-29167280D01*
X83386563Y-28929185D01*
X83434182Y-28738709D01*
X83481801Y-28643471D01*
X83529420Y-28595852D01*
X83624658Y-28548232D01*
X84338944Y-28643471D02*
X84386563Y-28595852D01*
X84481801Y-28548232D01*
X84719896Y-28548232D01*
X84815134Y-28595852D01*
X84862753Y-28643471D01*
X84910372Y-28738709D01*
X84910372Y-28833947D01*
X84862753Y-28976804D01*
X84291325Y-29548232D01*
X84910372Y-29548232D01*
X79441008Y-45254083D02*
X78774342Y-45254083D01*
X78964818Y-45254083D02*
X78869580Y-45206464D01*
X78821961Y-45158845D01*
X78774342Y-45063607D01*
X78774342Y-44968369D01*
X79441008Y-44206464D02*
X78917199Y-44206464D01*
X78821961Y-44254083D01*
X78774342Y-44349321D01*
X78774342Y-44539797D01*
X78821961Y-44635036D01*
X79393389Y-44206464D02*
X79441008Y-44301702D01*
X79441008Y-44539797D01*
X79393389Y-44635036D01*
X79298151Y-44682655D01*
X79202913Y-44682655D01*
X79107675Y-44635036D01*
X79060056Y-44539797D01*
X79060056Y-44301702D01*
X79012437Y-44206464D01*
X79441008Y-43301702D02*
X78441008Y-43301702D01*
X79393389Y-43301702D02*
X79441008Y-43396940D01*
X79441008Y-43587417D01*
X79393389Y-43682655D01*
X79345770Y-43730274D01*
X79250532Y-43777893D01*
X78964818Y-43777893D01*
X78869580Y-43730274D01*
X78821961Y-43682655D01*
X78774342Y-43587417D01*
X78774342Y-43396940D01*
X78821961Y-43301702D01*
X79441008Y-42825512D02*
X78774342Y-42825512D01*
X78441008Y-42825512D02*
X78488628Y-42873131D01*
X78536247Y-42825512D01*
X78488628Y-42777893D01*
X78441008Y-42825512D01*
X78536247Y-42825512D01*
X79441008Y-42206464D02*
X79393389Y-42301702D01*
X79345770Y-42349321D01*
X79250532Y-42396940D01*
X78964818Y-42396940D01*
X78869580Y-42349321D01*
X78821961Y-42301702D01*
X78774342Y-42206464D01*
X78774342Y-42063607D01*
X78821961Y-41968369D01*
X78869580Y-41920750D01*
X78964818Y-41873131D01*
X79250532Y-41873131D01*
X79345770Y-41920750D01*
X79393389Y-41968369D01*
X79441008Y-42063607D01*
X79441008Y-42206464D01*
X72207380Y-55006666D02*
X71540714Y-55006666D01*
X71731190Y-55006666D02*
X71635952Y-54959047D01*
X71588333Y-54911428D01*
X71540714Y-54816190D01*
X71540714Y-54720952D01*
X72207380Y-53959047D02*
X71683571Y-53959047D01*
X71588333Y-54006666D01*
X71540714Y-54101904D01*
X71540714Y-54292380D01*
X71588333Y-54387619D01*
X72159761Y-53959047D02*
X72207380Y-54054285D01*
X72207380Y-54292380D01*
X72159761Y-54387619D01*
X72064523Y-54435238D01*
X71969285Y-54435238D01*
X71874047Y-54387619D01*
X71826428Y-54292380D01*
X71826428Y-54054285D01*
X71778809Y-53959047D01*
X72207380Y-53054285D02*
X71207380Y-53054285D01*
X72159761Y-53054285D02*
X72207380Y-53149523D01*
X72207380Y-53340000D01*
X72159761Y-53435238D01*
X72112142Y-53482857D01*
X72016904Y-53530476D01*
X71731190Y-53530476D01*
X71635952Y-53482857D01*
X71588333Y-53435238D01*
X71540714Y-53340000D01*
X71540714Y-53149523D01*
X71588333Y-53054285D01*
X72207380Y-52578095D02*
X71540714Y-52578095D01*
X71207380Y-52578095D02*
X71255000Y-52625714D01*
X71302619Y-52578095D01*
X71255000Y-52530476D01*
X71207380Y-52578095D01*
X71302619Y-52578095D01*
X72207380Y-51959047D02*
X72159761Y-52054285D01*
X72112142Y-52101904D01*
X72016904Y-52149523D01*
X71731190Y-52149523D01*
X71635952Y-52101904D01*
X71588333Y-52054285D01*
X71540714Y-51959047D01*
X71540714Y-51816190D01*
X71588333Y-51720952D01*
X71635952Y-51673333D01*
X71731190Y-51625714D01*
X72016904Y-51625714D01*
X72112142Y-51673333D01*
X72159761Y-51720952D01*
X72207380Y-51816190D01*
X72207380Y-51959047D01*
%TO.C,R3*%
X126825714Y-90452380D02*
X126492380Y-89976190D01*
X126254285Y-90452380D02*
X126254285Y-89452380D01*
X126635238Y-89452380D01*
X126730476Y-89500000D01*
X126778095Y-89547619D01*
X126825714Y-89642857D01*
X126825714Y-89785714D01*
X126778095Y-89880952D01*
X126730476Y-89928571D01*
X126635238Y-89976190D01*
X126254285Y-89976190D01*
X127254285Y-90071428D02*
X128016190Y-90071428D01*
X128492380Y-90452380D02*
X128492380Y-89452380D01*
X128730476Y-89452380D01*
X128873333Y-89500000D01*
X128968571Y-89595238D01*
X129016190Y-89690476D01*
X129063809Y-89880952D01*
X129063809Y-90023809D01*
X129016190Y-90214285D01*
X128968571Y-90309523D01*
X128873333Y-90404761D01*
X128730476Y-90452380D01*
X128492380Y-90452380D01*
X129873333Y-90404761D02*
X129778095Y-90452380D01*
X129587619Y-90452380D01*
X129492380Y-90404761D01*
X129444761Y-90309523D01*
X129444761Y-89928571D01*
X129492380Y-89833333D01*
X129587619Y-89785714D01*
X129778095Y-89785714D01*
X129873333Y-89833333D01*
X129920952Y-89928571D01*
X129920952Y-90023809D01*
X129444761Y-90119047D01*
X130254285Y-89785714D02*
X130492380Y-90452380D01*
X130730476Y-89785714D01*
X131111428Y-90452380D02*
X131111428Y-89785714D01*
X131111428Y-89452380D02*
X131063809Y-89500000D01*
X131111428Y-89547619D01*
X131159047Y-89500000D01*
X131111428Y-89452380D01*
X131111428Y-89547619D01*
X132016190Y-90404761D02*
X131920952Y-90452380D01*
X131730476Y-90452380D01*
X131635238Y-90404761D01*
X131587619Y-90357142D01*
X131540000Y-90261904D01*
X131540000Y-89976190D01*
X131587619Y-89880952D01*
X131635238Y-89833333D01*
X131730476Y-89785714D01*
X131920952Y-89785714D01*
X132016190Y-89833333D01*
X132825714Y-90404761D02*
X132730476Y-90452380D01*
X132540000Y-90452380D01*
X132444761Y-90404761D01*
X132397142Y-90309523D01*
X132397142Y-89928571D01*
X132444761Y-89833333D01*
X132540000Y-89785714D01*
X132730476Y-89785714D01*
X132825714Y-89833333D01*
X132873333Y-89928571D01*
X132873333Y-90023809D01*
X132397142Y-90119047D01*
X129373333Y-88082380D02*
X129040000Y-87606190D01*
X128801904Y-88082380D02*
X128801904Y-87082380D01*
X129182857Y-87082380D01*
X129278095Y-87130000D01*
X129325714Y-87177619D01*
X129373333Y-87272857D01*
X129373333Y-87415714D01*
X129325714Y-87510952D01*
X129278095Y-87558571D01*
X129182857Y-87606190D01*
X128801904Y-87606190D01*
X129706666Y-87082380D02*
X130325714Y-87082380D01*
X129992380Y-87463333D01*
X130135238Y-87463333D01*
X130230476Y-87510952D01*
X130278095Y-87558571D01*
X130325714Y-87653809D01*
X130325714Y-87891904D01*
X130278095Y-87987142D01*
X130230476Y-88034761D01*
X130135238Y-88082380D01*
X129849523Y-88082380D01*
X129754285Y-88034761D01*
X129706666Y-87987142D01*
%TO.C,R4*%
X144646175Y-85460174D02*
X144312841Y-84983984D01*
X144074746Y-85460174D02*
X144074746Y-84460174D01*
X144455699Y-84460174D01*
X144550937Y-84507794D01*
X144598556Y-84555413D01*
X144646175Y-84650651D01*
X144646175Y-84793508D01*
X144598556Y-84888746D01*
X144550937Y-84936365D01*
X144455699Y-84983984D01*
X144074746Y-84983984D01*
X145074746Y-85079222D02*
X145836651Y-85079222D01*
X146312841Y-85460174D02*
X146312841Y-84460174D01*
X146550937Y-84460174D01*
X146693794Y-84507794D01*
X146789032Y-84603032D01*
X146836651Y-84698270D01*
X146884270Y-84888746D01*
X146884270Y-85031603D01*
X146836651Y-85222079D01*
X146789032Y-85317317D01*
X146693794Y-85412555D01*
X146550937Y-85460174D01*
X146312841Y-85460174D01*
X147693794Y-85412555D02*
X147598556Y-85460174D01*
X147408080Y-85460174D01*
X147312841Y-85412555D01*
X147265222Y-85317317D01*
X147265222Y-84936365D01*
X147312841Y-84841127D01*
X147408080Y-84793508D01*
X147598556Y-84793508D01*
X147693794Y-84841127D01*
X147741413Y-84936365D01*
X147741413Y-85031603D01*
X147265222Y-85126841D01*
X148074746Y-84793508D02*
X148312841Y-85460174D01*
X148550937Y-84793508D01*
X148931889Y-85460174D02*
X148931889Y-84793508D01*
X148931889Y-84460174D02*
X148884270Y-84507794D01*
X148931889Y-84555413D01*
X148979508Y-84507794D01*
X148931889Y-84460174D01*
X148931889Y-84555413D01*
X149836651Y-85412555D02*
X149741413Y-85460174D01*
X149550937Y-85460174D01*
X149455699Y-85412555D01*
X149408080Y-85364936D01*
X149360461Y-85269698D01*
X149360461Y-84983984D01*
X149408080Y-84888746D01*
X149455699Y-84841127D01*
X149550937Y-84793508D01*
X149741413Y-84793508D01*
X149836651Y-84841127D01*
X150646175Y-85412555D02*
X150550937Y-85460174D01*
X150360461Y-85460174D01*
X150265222Y-85412555D01*
X150217603Y-85317317D01*
X150217603Y-84936365D01*
X150265222Y-84841127D01*
X150360461Y-84793508D01*
X150550937Y-84793508D01*
X150646175Y-84841127D01*
X150693794Y-84936365D01*
X150693794Y-85031603D01*
X150217603Y-85126841D01*
X149029576Y-86580174D02*
X148696243Y-86103984D01*
X148458147Y-86580174D02*
X148458147Y-85580174D01*
X148839100Y-85580174D01*
X148934338Y-85627794D01*
X148981957Y-85675413D01*
X149029576Y-85770651D01*
X149029576Y-85913508D01*
X148981957Y-86008746D01*
X148934338Y-86056365D01*
X148839100Y-86103984D01*
X148458147Y-86103984D01*
X149886719Y-85913508D02*
X149886719Y-86580174D01*
X149648623Y-85532555D02*
X149410528Y-86246841D01*
X150029576Y-86246841D01*
%TO.C,R1*%
X129010413Y-52785875D02*
X128677079Y-52309685D01*
X128438984Y-52785875D02*
X128438984Y-51785875D01*
X128819937Y-51785875D01*
X128915175Y-51833495D01*
X128962794Y-51881114D01*
X129010413Y-51976352D01*
X129010413Y-52119209D01*
X128962794Y-52214447D01*
X128915175Y-52262066D01*
X128819937Y-52309685D01*
X128438984Y-52309685D01*
X129438984Y-52404923D02*
X130200889Y-52404923D01*
X130677079Y-52785875D02*
X130677079Y-51785875D01*
X130915175Y-51785875D01*
X131058032Y-51833495D01*
X131153270Y-51928733D01*
X131200889Y-52023971D01*
X131248508Y-52214447D01*
X131248508Y-52357304D01*
X131200889Y-52547780D01*
X131153270Y-52643018D01*
X131058032Y-52738256D01*
X130915175Y-52785875D01*
X130677079Y-52785875D01*
X132058032Y-52738256D02*
X131962794Y-52785875D01*
X131772318Y-52785875D01*
X131677079Y-52738256D01*
X131629460Y-52643018D01*
X131629460Y-52262066D01*
X131677079Y-52166828D01*
X131772318Y-52119209D01*
X131962794Y-52119209D01*
X132058032Y-52166828D01*
X132105651Y-52262066D01*
X132105651Y-52357304D01*
X131629460Y-52452542D01*
X132438984Y-52119209D02*
X132677079Y-52785875D01*
X132915175Y-52119209D01*
X133296127Y-52785875D02*
X133296127Y-52119209D01*
X133296127Y-51785875D02*
X133248508Y-51833495D01*
X133296127Y-51881114D01*
X133343746Y-51833495D01*
X133296127Y-51785875D01*
X133296127Y-51881114D01*
X134200889Y-52738256D02*
X134105651Y-52785875D01*
X133915175Y-52785875D01*
X133819937Y-52738256D01*
X133772318Y-52690637D01*
X133724699Y-52595399D01*
X133724699Y-52309685D01*
X133772318Y-52214447D01*
X133819937Y-52166828D01*
X133915175Y-52119209D01*
X134105651Y-52119209D01*
X134200889Y-52166828D01*
X135010413Y-52738256D02*
X134915175Y-52785875D01*
X134724699Y-52785875D01*
X134629460Y-52738256D01*
X134581841Y-52643018D01*
X134581841Y-52262066D01*
X134629460Y-52166828D01*
X134724699Y-52119209D01*
X134915175Y-52119209D01*
X135010413Y-52166828D01*
X135058032Y-52262066D01*
X135058032Y-52357304D01*
X134581841Y-52452542D01*
X131558032Y-50415875D02*
X131224699Y-49939685D01*
X130986603Y-50415875D02*
X130986603Y-49415875D01*
X131367556Y-49415875D01*
X131462794Y-49463495D01*
X131510413Y-49511114D01*
X131558032Y-49606352D01*
X131558032Y-49749209D01*
X131510413Y-49844447D01*
X131462794Y-49892066D01*
X131367556Y-49939685D01*
X130986603Y-49939685D01*
X132510413Y-50415875D02*
X131938984Y-50415875D01*
X132224699Y-50415875D02*
X132224699Y-49415875D01*
X132129460Y-49558733D01*
X132034222Y-49653971D01*
X131938984Y-49701590D01*
%TO.C,Batt.*%
X162189387Y-16579746D02*
X162237006Y-16627365D01*
X162284625Y-16770222D01*
X162284625Y-16865461D01*
X162237006Y-17008318D01*
X162141768Y-17103556D01*
X162046530Y-17151175D01*
X161856054Y-17198794D01*
X161713197Y-17198794D01*
X161522721Y-17151175D01*
X161427483Y-17103556D01*
X161332245Y-17008318D01*
X161284625Y-16865461D01*
X161284625Y-16770222D01*
X161332245Y-16627365D01*
X161379864Y-16579746D01*
X162284625Y-16008318D02*
X162237006Y-16103556D01*
X162189387Y-16151175D01*
X162094149Y-16198794D01*
X161808435Y-16198794D01*
X161713197Y-16151175D01*
X161665578Y-16103556D01*
X161617959Y-16008318D01*
X161617959Y-15865461D01*
X161665578Y-15770222D01*
X161713197Y-15722603D01*
X161808435Y-15674984D01*
X162094149Y-15674984D01*
X162189387Y-15722603D01*
X162237006Y-15770222D01*
X162284625Y-15865461D01*
X162284625Y-16008318D01*
X161617959Y-15246413D02*
X162284625Y-15246413D01*
X161713197Y-15246413D02*
X161665578Y-15198794D01*
X161617959Y-15103556D01*
X161617959Y-14960699D01*
X161665578Y-14865461D01*
X161760816Y-14817841D01*
X162284625Y-14817841D01*
X161617959Y-14341651D02*
X162284625Y-14341651D01*
X161713197Y-14341651D02*
X161665578Y-14294032D01*
X161617959Y-14198794D01*
X161617959Y-14055937D01*
X161665578Y-13960699D01*
X161760816Y-13913080D01*
X162284625Y-13913080D01*
X162379864Y-13674984D02*
X162379864Y-12913080D01*
X161284625Y-12484508D02*
X161284625Y-12389270D01*
X161332245Y-12294032D01*
X161379864Y-12246413D01*
X161475102Y-12198794D01*
X161665578Y-12151175D01*
X161903673Y-12151175D01*
X162094149Y-12198794D01*
X162189387Y-12246413D01*
X162237006Y-12294032D01*
X162284625Y-12389270D01*
X162284625Y-12484508D01*
X162237006Y-12579746D01*
X162189387Y-12627365D01*
X162094149Y-12674984D01*
X161903673Y-12722603D01*
X161665578Y-12722603D01*
X161475102Y-12674984D01*
X161379864Y-12627365D01*
X161332245Y-12579746D01*
X161284625Y-12484508D01*
X162284625Y-11198794D02*
X162284625Y-11770222D01*
X162284625Y-11484508D02*
X161284625Y-11484508D01*
X161427483Y-11579746D01*
X161522721Y-11674984D01*
X161570340Y-11770222D01*
X162284625Y-10865461D02*
X161617959Y-10341651D01*
X161617959Y-10865461D02*
X162284625Y-10341651D01*
X161284625Y-9770222D02*
X161284625Y-9674984D01*
X161332245Y-9579746D01*
X161379864Y-9532127D01*
X161475102Y-9484508D01*
X161665578Y-9436889D01*
X161903673Y-9436889D01*
X162094149Y-9484508D01*
X162189387Y-9532127D01*
X162237006Y-9579746D01*
X162284625Y-9674984D01*
X162284625Y-9770222D01*
X162237006Y-9865461D01*
X162189387Y-9913080D01*
X162094149Y-9960699D01*
X161903673Y-10008318D01*
X161665578Y-10008318D01*
X161475102Y-9960699D01*
X161379864Y-9913080D01*
X161332245Y-9865461D01*
X161284625Y-9770222D01*
X161379864Y-9055937D02*
X161332245Y-9008318D01*
X161284625Y-8913080D01*
X161284625Y-8674984D01*
X161332245Y-8579746D01*
X161379864Y-8532127D01*
X161475102Y-8484508D01*
X161570340Y-8484508D01*
X161713197Y-8532127D01*
X162284625Y-9103556D01*
X162284625Y-8484508D01*
X162379864Y-8294032D02*
X162379864Y-7532127D01*
X162284625Y-7294032D02*
X161284625Y-7294032D01*
X161998911Y-6960699D01*
X161284625Y-6627365D01*
X162284625Y-6627365D01*
X162284625Y-5722603D02*
X161760816Y-5722603D01*
X161665578Y-5770222D01*
X161617959Y-5865461D01*
X161617959Y-6055937D01*
X161665578Y-6151175D01*
X162237006Y-5722603D02*
X162284625Y-5817841D01*
X162284625Y-6055937D01*
X162237006Y-6151175D01*
X162141768Y-6198794D01*
X162046530Y-6198794D01*
X161951292Y-6151175D01*
X161903673Y-6055937D01*
X161903673Y-5817841D01*
X161856054Y-5722603D01*
X162284625Y-5103556D02*
X162237006Y-5198794D01*
X162141768Y-5246413D01*
X161284625Y-5246413D01*
X162237006Y-4341651D02*
X162284625Y-4436889D01*
X162284625Y-4627365D01*
X162237006Y-4722603D01*
X162141768Y-4770222D01*
X161760816Y-4770222D01*
X161665578Y-4722603D01*
X161617959Y-4627365D01*
X161617959Y-4436889D01*
X161665578Y-4341651D01*
X161760816Y-4294032D01*
X161856054Y-4294032D01*
X161951292Y-4770222D01*
X161903673Y-3865461D02*
X161903673Y-3103556D01*
X162189387Y-2055937D02*
X162237006Y-2103556D01*
X162284625Y-2246413D01*
X162284625Y-2341651D01*
X162237006Y-2484508D01*
X162141768Y-2579746D01*
X162046530Y-2627365D01*
X161856054Y-2674984D01*
X161713197Y-2674984D01*
X161522721Y-2627365D01*
X161427483Y-2579746D01*
X161332245Y-2484508D01*
X161284625Y-2341651D01*
X161284625Y-2246413D01*
X161332245Y-2103556D01*
X161379864Y-2055937D01*
X162284625Y-1484508D02*
X162237006Y-1579746D01*
X162189387Y-1627365D01*
X162094149Y-1674984D01*
X161808435Y-1674984D01*
X161713197Y-1627365D01*
X161665578Y-1579746D01*
X161617959Y-1484508D01*
X161617959Y-1341651D01*
X161665578Y-1246413D01*
X161713197Y-1198794D01*
X161808435Y-1151175D01*
X162094149Y-1151175D01*
X162189387Y-1198794D01*
X162237006Y-1246413D01*
X162284625Y-1341651D01*
X162284625Y-1484508D01*
X161617959Y-722603D02*
X162284625Y-722603D01*
X161713197Y-722603D02*
X161665578Y-674984D01*
X161617959Y-579746D01*
X161617959Y-436889D01*
X161665578Y-341651D01*
X161760816Y-294032D01*
X162284625Y-294032D01*
X161617959Y182158D02*
X162284625Y182158D01*
X161713197Y182158D02*
X161665578Y229777D01*
X161617959Y325015D01*
X161617959Y467872D01*
X161665578Y563110D01*
X161760816Y610729D01*
X162284625Y610729D01*
X162237006Y1467872D02*
X162284625Y1372634D01*
X162284625Y1182158D01*
X162237006Y1086919D01*
X162141768Y1039300D01*
X161760816Y1039300D01*
X161665578Y1086919D01*
X161617959Y1182158D01*
X161617959Y1372634D01*
X161665578Y1467872D01*
X161760816Y1515491D01*
X161856054Y1515491D01*
X161951292Y1039300D01*
X162237006Y2372634D02*
X162284625Y2277396D01*
X162284625Y2086919D01*
X162237006Y1991681D01*
X162189387Y1944062D01*
X162094149Y1896443D01*
X161808435Y1896443D01*
X161713197Y1944062D01*
X161665578Y1991681D01*
X161617959Y2086919D01*
X161617959Y2277396D01*
X161665578Y2372634D01*
X161617959Y2658348D02*
X161617959Y3039300D01*
X161284625Y2801205D02*
X162141768Y2801205D01*
X162237006Y2848824D01*
X162284625Y2944062D01*
X162284625Y3039300D01*
X162284625Y3515491D02*
X162237006Y3420253D01*
X162189387Y3372634D01*
X162094149Y3325015D01*
X161808435Y3325015D01*
X161713197Y3372634D01*
X161665578Y3420253D01*
X161617959Y3515491D01*
X161617959Y3658348D01*
X161665578Y3753586D01*
X161713197Y3801205D01*
X161808435Y3848824D01*
X162094149Y3848824D01*
X162189387Y3801205D01*
X162237006Y3753586D01*
X162284625Y3658348D01*
X162284625Y3515491D01*
X162284625Y4277396D02*
X161617959Y4277396D01*
X161808435Y4277396D02*
X161713197Y4325015D01*
X161665578Y4372634D01*
X161617959Y4467872D01*
X161617959Y4563110D01*
X173283571Y-36075476D02*
X173331190Y-35932619D01*
X173378809Y-35885000D01*
X173474047Y-35837380D01*
X173616904Y-35837380D01*
X173712142Y-35885000D01*
X173759761Y-35932619D01*
X173807380Y-36027857D01*
X173807380Y-36408809D01*
X172807380Y-36408809D01*
X172807380Y-36075476D01*
X172855000Y-35980238D01*
X172902619Y-35932619D01*
X172997857Y-35885000D01*
X173093095Y-35885000D01*
X173188333Y-35932619D01*
X173235952Y-35980238D01*
X173283571Y-36075476D01*
X173283571Y-36408809D01*
X173807380Y-34980238D02*
X173283571Y-34980238D01*
X173188333Y-35027857D01*
X173140714Y-35123095D01*
X173140714Y-35313571D01*
X173188333Y-35408809D01*
X173759761Y-34980238D02*
X173807380Y-35075476D01*
X173807380Y-35313571D01*
X173759761Y-35408809D01*
X173664523Y-35456428D01*
X173569285Y-35456428D01*
X173474047Y-35408809D01*
X173426428Y-35313571D01*
X173426428Y-35075476D01*
X173378809Y-34980238D01*
X173140714Y-34646904D02*
X173140714Y-34265952D01*
X172807380Y-34504047D02*
X173664523Y-34504047D01*
X173759761Y-34456428D01*
X173807380Y-34361190D01*
X173807380Y-34265952D01*
X173140714Y-34075476D02*
X173140714Y-33694523D01*
X172807380Y-33932619D02*
X173664523Y-33932619D01*
X173759761Y-33885000D01*
X173807380Y-33789761D01*
X173807380Y-33694523D01*
X173712142Y-33361190D02*
X173759761Y-33313571D01*
X173807380Y-33361190D01*
X173759761Y-33408809D01*
X173712142Y-33361190D01*
X173807380Y-33361190D01*
%TO.C,IMU*%
X151753231Y-62314517D02*
X151753231Y-61314517D01*
X152800850Y-62219279D02*
X152753231Y-62266898D01*
X152610373Y-62314517D01*
X152515135Y-62314517D01*
X152372278Y-62266898D01*
X152277040Y-62171660D01*
X152229421Y-62076422D01*
X152181802Y-61885946D01*
X152181802Y-61743089D01*
X152229421Y-61552613D01*
X152277040Y-61457375D01*
X152372278Y-61362137D01*
X152515135Y-61314517D01*
X152610373Y-61314517D01*
X152753231Y-61362137D01*
X152800850Y-61409756D01*
X153229421Y-62314517D02*
X153229421Y-61314517D01*
X153562754Y-62028803D01*
X153896088Y-61314517D01*
X153896088Y-62314517D01*
X154372278Y-61933565D02*
X155134183Y-61933565D01*
X155562754Y-61409756D02*
X155610373Y-61362137D01*
X155705612Y-61314517D01*
X155943707Y-61314517D01*
X156038945Y-61362137D01*
X156086564Y-61409756D01*
X156134183Y-61504994D01*
X156134183Y-61600232D01*
X156086564Y-61743089D01*
X155515135Y-62314517D01*
X156134183Y-62314517D01*
X156753231Y-61314517D02*
X156848469Y-61314517D01*
X156943707Y-61362137D01*
X156991326Y-61409756D01*
X157038945Y-61504994D01*
X157086564Y-61695470D01*
X157086564Y-61933565D01*
X157038945Y-62124041D01*
X156991326Y-62219279D01*
X156943707Y-62266898D01*
X156848469Y-62314517D01*
X156753231Y-62314517D01*
X156657992Y-62266898D01*
X156610373Y-62219279D01*
X156562754Y-62124041D01*
X156515135Y-61933565D01*
X156515135Y-61695470D01*
X156562754Y-61504994D01*
X156610373Y-61409756D01*
X156657992Y-61362137D01*
X156753231Y-61314517D01*
X157562754Y-62314517D02*
X157753231Y-62314517D01*
X157848469Y-62266898D01*
X157896088Y-62219279D01*
X157991326Y-62076422D01*
X158038945Y-61885946D01*
X158038945Y-61504994D01*
X157991326Y-61409756D01*
X157943707Y-61362137D01*
X157848469Y-61314517D01*
X157657992Y-61314517D01*
X157562754Y-61362137D01*
X157515135Y-61409756D01*
X157467516Y-61504994D01*
X157467516Y-61743089D01*
X157515135Y-61838327D01*
X157562754Y-61885946D01*
X157657992Y-61933565D01*
X157848469Y-61933565D01*
X157943707Y-61885946D01*
X157991326Y-61838327D01*
X158038945Y-61743089D01*
X158896088Y-61647851D02*
X158896088Y-62314517D01*
X158657992Y-61266898D02*
X158419897Y-61981184D01*
X159038945Y-61981184D01*
X159562754Y-61743089D02*
X159467516Y-61695470D01*
X159419897Y-61647851D01*
X159372278Y-61552613D01*
X159372278Y-61504994D01*
X159419897Y-61409756D01*
X159467516Y-61362137D01*
X159562754Y-61314517D01*
X159753231Y-61314517D01*
X159848469Y-61362137D01*
X159896088Y-61409756D01*
X159943707Y-61504994D01*
X159943707Y-61552613D01*
X159896088Y-61647851D01*
X159848469Y-61695470D01*
X159753231Y-61743089D01*
X159562754Y-61743089D01*
X159467516Y-61790708D01*
X159419897Y-61838327D01*
X159372278Y-61933565D01*
X159372278Y-62124041D01*
X159419897Y-62219279D01*
X159467516Y-62266898D01*
X159562754Y-62314517D01*
X159753231Y-62314517D01*
X159848469Y-62266898D01*
X159896088Y-62219279D01*
X159943707Y-62124041D01*
X159943707Y-61933565D01*
X159896088Y-61838327D01*
X159848469Y-61790708D01*
X159753231Y-61743089D01*
X143417992Y-66497375D02*
X142417992Y-66497375D01*
X143417992Y-66021184D02*
X142417992Y-66021184D01*
X143132278Y-65687851D01*
X142417992Y-65354517D01*
X143417992Y-65354517D01*
X142417992Y-64878327D02*
X143227516Y-64878327D01*
X143322754Y-64830708D01*
X143370373Y-64783089D01*
X143417992Y-64687851D01*
X143417992Y-64497375D01*
X143370373Y-64402137D01*
X143322754Y-64354517D01*
X143227516Y-64306898D01*
X142417992Y-64306898D01*
X151577992Y-68186664D02*
X150577992Y-68186664D01*
X151577992Y-67710473D02*
X150577992Y-67710473D01*
X151292278Y-67377140D01*
X150577992Y-67043806D01*
X151577992Y-67043806D01*
X150577992Y-66567616D02*
X151387516Y-66567616D01*
X151482754Y-66519997D01*
X151530373Y-66472378D01*
X151577992Y-66377140D01*
X151577992Y-66186664D01*
X151530373Y-66091426D01*
X151482754Y-66043806D01*
X151387516Y-65996187D01*
X150577992Y-65996187D01*
X155110373Y-63814517D02*
X155110373Y-62814517D01*
X155586564Y-63814517D02*
X155586564Y-62814517D01*
X155919897Y-63528803D01*
X156253231Y-62814517D01*
X156253231Y-63814517D01*
X156729421Y-62814517D02*
X156729421Y-63624041D01*
X156777040Y-63719279D01*
X156824659Y-63766898D01*
X156919897Y-63814517D01*
X157110373Y-63814517D01*
X157205612Y-63766898D01*
X157253231Y-63719279D01*
X157300850Y-63624041D01*
X157300850Y-62814517D01*
%TO.C,U2*%
X98512380Y-56911428D02*
X98512380Y-56340000D01*
X99512380Y-56625714D02*
X98512380Y-56625714D01*
X99464761Y-55625714D02*
X99512380Y-55720952D01*
X99512380Y-55911428D01*
X99464761Y-56006666D01*
X99369523Y-56054285D01*
X98988571Y-56054285D01*
X98893333Y-56006666D01*
X98845714Y-55911428D01*
X98845714Y-55720952D01*
X98893333Y-55625714D01*
X98988571Y-55578095D01*
X99083809Y-55578095D01*
X99179047Y-56054285D01*
X99464761Y-54768571D02*
X99512380Y-54863809D01*
X99512380Y-55054285D01*
X99464761Y-55149523D01*
X99369523Y-55197142D01*
X98988571Y-55197142D01*
X98893333Y-55149523D01*
X98845714Y-55054285D01*
X98845714Y-54863809D01*
X98893333Y-54768571D01*
X98988571Y-54720952D01*
X99083809Y-54720952D01*
X99179047Y-55197142D01*
X98845714Y-54292380D02*
X99512380Y-54292380D01*
X98940952Y-54292380D02*
X98893333Y-54244761D01*
X98845714Y-54149523D01*
X98845714Y-54006666D01*
X98893333Y-53911428D01*
X98988571Y-53863809D01*
X99512380Y-53863809D01*
X99464761Y-53435238D02*
X99512380Y-53340000D01*
X99512380Y-53149523D01*
X99464761Y-53054285D01*
X99369523Y-53006666D01*
X99321904Y-53006666D01*
X99226666Y-53054285D01*
X99179047Y-53149523D01*
X99179047Y-53292380D01*
X99131428Y-53387619D01*
X99036190Y-53435238D01*
X98988571Y-53435238D01*
X98893333Y-53387619D01*
X98845714Y-53292380D01*
X98845714Y-53149523D01*
X98893333Y-53054285D01*
X98845714Y-52673333D02*
X99512380Y-52435238D01*
X98845714Y-52197142D02*
X99512380Y-52435238D01*
X99750476Y-52530476D01*
X99798095Y-52578095D01*
X99845714Y-52673333D01*
X98845714Y-51387619D02*
X99512380Y-51387619D01*
X98464761Y-51625714D02*
X99179047Y-51863809D01*
X99179047Y-51244761D01*
X99417142Y-50863809D02*
X99464761Y-50816190D01*
X99512380Y-50863809D01*
X99464761Y-50911428D01*
X99417142Y-50863809D01*
X99512380Y-50863809D01*
X99512380Y-49863809D02*
X99512380Y-50435238D01*
X99512380Y-50149523D02*
X98512380Y-50149523D01*
X98655238Y-50244761D01*
X98750476Y-50340000D01*
X98798095Y-50435238D01*
%TO.C,J2*%
X38363214Y-72112141D02*
X38315595Y-72159760D01*
X38172738Y-72207379D01*
X38077499Y-72207379D01*
X37934642Y-72159760D01*
X37839404Y-72064522D01*
X37791785Y-71969284D01*
X37744166Y-71778808D01*
X37744166Y-71635951D01*
X37791785Y-71445475D01*
X37839404Y-71350237D01*
X37934642Y-71254999D01*
X38077499Y-71207379D01*
X38172738Y-71207379D01*
X38315595Y-71254999D01*
X38363214Y-71302618D01*
X38934642Y-72207379D02*
X38839404Y-72159760D01*
X38791785Y-72112141D01*
X38744166Y-72016903D01*
X38744166Y-71731189D01*
X38791785Y-71635951D01*
X38839404Y-71588332D01*
X38934642Y-71540713D01*
X39077499Y-71540713D01*
X39172738Y-71588332D01*
X39220357Y-71635951D01*
X39267976Y-71731189D01*
X39267976Y-72016903D01*
X39220357Y-72112141D01*
X39172738Y-72159760D01*
X39077499Y-72207379D01*
X38934642Y-72207379D01*
X39696547Y-71540713D02*
X39696547Y-72207379D01*
X39696547Y-71635951D02*
X39744166Y-71588332D01*
X39839404Y-71540713D01*
X39982261Y-71540713D01*
X40077499Y-71588332D01*
X40125119Y-71683570D01*
X40125119Y-72207379D01*
X40601309Y-71540713D02*
X40601309Y-72207379D01*
X40601309Y-71635951D02*
X40648928Y-71588332D01*
X40744166Y-71540713D01*
X40887023Y-71540713D01*
X40982261Y-71588332D01*
X41029880Y-71683570D01*
X41029880Y-72207379D01*
X41267976Y-72302618D02*
X42029880Y-72302618D01*
X42458452Y-71207379D02*
X42553690Y-71207379D01*
X42648928Y-71254999D01*
X42696547Y-71302618D01*
X42744166Y-71397856D01*
X42791785Y-71588332D01*
X42791785Y-71826427D01*
X42744166Y-72016903D01*
X42696547Y-72112141D01*
X42648928Y-72159760D01*
X42553690Y-72207379D01*
X42458452Y-72207379D01*
X42363214Y-72159760D01*
X42315595Y-72112141D01*
X42267976Y-72016903D01*
X42220357Y-71826427D01*
X42220357Y-71588332D01*
X42267976Y-71397856D01*
X42315595Y-71302618D01*
X42363214Y-71254999D01*
X42458452Y-71207379D01*
X43744166Y-72207379D02*
X43172738Y-72207379D01*
X43458452Y-72207379D02*
X43458452Y-71207379D01*
X43363214Y-71350237D01*
X43267976Y-71445475D01*
X43172738Y-71493094D01*
X44077499Y-72207379D02*
X44601309Y-71540713D01*
X44077499Y-71540713D02*
X44601309Y-72207379D01*
X45172738Y-71207379D02*
X45267976Y-71207379D01*
X45363214Y-71254999D01*
X45410833Y-71302618D01*
X45458452Y-71397856D01*
X45506071Y-71588332D01*
X45506071Y-71826427D01*
X45458452Y-72016903D01*
X45410833Y-72112141D01*
X45363214Y-72159760D01*
X45267976Y-72207379D01*
X45172738Y-72207379D01*
X45077499Y-72159760D01*
X45029880Y-72112141D01*
X44982261Y-72016903D01*
X44934642Y-71826427D01*
X44934642Y-71588332D01*
X44982261Y-71397856D01*
X45029880Y-71302618D01*
X45077499Y-71254999D01*
X45172738Y-71207379D01*
X45839404Y-71207379D02*
X46458452Y-71207379D01*
X46125119Y-71588332D01*
X46267976Y-71588332D01*
X46363214Y-71635951D01*
X46410833Y-71683570D01*
X46458452Y-71778808D01*
X46458452Y-72016903D01*
X46410833Y-72112141D01*
X46363214Y-72159760D01*
X46267976Y-72207379D01*
X45982261Y-72207379D01*
X45887023Y-72159760D01*
X45839404Y-72112141D01*
X46648928Y-72302618D02*
X47410833Y-72302618D01*
X47648928Y-72207379D02*
X47648928Y-71207379D01*
X47982261Y-71921665D01*
X48315595Y-71207379D01*
X48315595Y-72207379D01*
X49220357Y-72207379D02*
X49220357Y-71683570D01*
X49172738Y-71588332D01*
X49077499Y-71540713D01*
X48887023Y-71540713D01*
X48791785Y-71588332D01*
X49220357Y-72159760D02*
X49125119Y-72207379D01*
X48887023Y-72207379D01*
X48791785Y-72159760D01*
X48744166Y-72064522D01*
X48744166Y-71969284D01*
X48791785Y-71874046D01*
X48887023Y-71826427D01*
X49125119Y-71826427D01*
X49220357Y-71778808D01*
X49839404Y-72207379D02*
X49744166Y-72159760D01*
X49696547Y-72064522D01*
X49696547Y-71207379D01*
X50601309Y-72159760D02*
X50506071Y-72207379D01*
X50315595Y-72207379D01*
X50220357Y-72159760D01*
X50172738Y-72064522D01*
X50172738Y-71683570D01*
X50220357Y-71588332D01*
X50315595Y-71540713D01*
X50506071Y-71540713D01*
X50601309Y-71588332D01*
X50648928Y-71683570D01*
X50648928Y-71778808D01*
X50172738Y-71874046D01*
X51077499Y-71826427D02*
X51839404Y-71826427D01*
X52887023Y-72112141D02*
X52839404Y-72159760D01*
X52696547Y-72207379D01*
X52601309Y-72207379D01*
X52458452Y-72159760D01*
X52363214Y-72064522D01*
X52315595Y-71969284D01*
X52267976Y-71778808D01*
X52267976Y-71635951D01*
X52315595Y-71445475D01*
X52363214Y-71350237D01*
X52458452Y-71254999D01*
X52601309Y-71207379D01*
X52696547Y-71207379D01*
X52839404Y-71254999D01*
X52887023Y-71302618D01*
X53458452Y-72207379D02*
X53363214Y-72159760D01*
X53315595Y-72112141D01*
X53267976Y-72016903D01*
X53267976Y-71731189D01*
X53315595Y-71635951D01*
X53363214Y-71588332D01*
X53458452Y-71540713D01*
X53601309Y-71540713D01*
X53696547Y-71588332D01*
X53744166Y-71635951D01*
X53791785Y-71731189D01*
X53791785Y-72016903D01*
X53744166Y-72112141D01*
X53696547Y-72159760D01*
X53601309Y-72207379D01*
X53458452Y-72207379D01*
X54220357Y-71540713D02*
X54220357Y-72207379D01*
X54220357Y-71635951D02*
X54267976Y-71588332D01*
X54363214Y-71540713D01*
X54506071Y-71540713D01*
X54601309Y-71588332D01*
X54648928Y-71683570D01*
X54648928Y-72207379D01*
X55125119Y-71540713D02*
X55125119Y-72207379D01*
X55125119Y-71635951D02*
X55172738Y-71588332D01*
X55267976Y-71540713D01*
X55410833Y-71540713D01*
X55506071Y-71588332D01*
X55553690Y-71683570D01*
X55553690Y-72207379D01*
X56410833Y-72159760D02*
X56315595Y-72207379D01*
X56125119Y-72207379D01*
X56029880Y-72159760D01*
X55982261Y-72064522D01*
X55982261Y-71683570D01*
X56029880Y-71588332D01*
X56125119Y-71540713D01*
X56315595Y-71540713D01*
X56410833Y-71588332D01*
X56458452Y-71683570D01*
X56458452Y-71778808D01*
X55982261Y-71874046D01*
X57315595Y-72159760D02*
X57220357Y-72207379D01*
X57029880Y-72207379D01*
X56934642Y-72159760D01*
X56887023Y-72112141D01*
X56839404Y-72016903D01*
X56839404Y-71731189D01*
X56887023Y-71635951D01*
X56934642Y-71588332D01*
X57029880Y-71540713D01*
X57220357Y-71540713D01*
X57315595Y-71588332D01*
X57601309Y-71540713D02*
X57982261Y-71540713D01*
X57744166Y-71207379D02*
X57744166Y-72064522D01*
X57791785Y-72159760D01*
X57887023Y-72207379D01*
X57982261Y-72207379D01*
X58458452Y-72207379D02*
X58363214Y-72159760D01*
X58315595Y-72112141D01*
X58267976Y-72016903D01*
X58267976Y-71731189D01*
X58315595Y-71635951D01*
X58363214Y-71588332D01*
X58458452Y-71540713D01*
X58601309Y-71540713D01*
X58696547Y-71588332D01*
X58744166Y-71635951D01*
X58791785Y-71731189D01*
X58791785Y-72016903D01*
X58744166Y-72112141D01*
X58696547Y-72159760D01*
X58601309Y-72207379D01*
X58458452Y-72207379D01*
X59220357Y-72207379D02*
X59220357Y-71540713D01*
X59220357Y-71731189D02*
X59267976Y-71635951D01*
X59315595Y-71588332D01*
X59410833Y-71540713D01*
X59506071Y-71540713D01*
X48561666Y-72477380D02*
X48561666Y-73191666D01*
X48514047Y-73334523D01*
X48418809Y-73429761D01*
X48275952Y-73477380D01*
X48180714Y-73477380D01*
X48990238Y-72572619D02*
X49037857Y-72525000D01*
X49133095Y-72477380D01*
X49371190Y-72477380D01*
X49466428Y-72525000D01*
X49514047Y-72572619D01*
X49561666Y-72667857D01*
X49561666Y-72763095D01*
X49514047Y-72905952D01*
X48942619Y-73477380D01*
X49561666Y-73477380D01*
%TO.C,BZ1*%
X52122171Y-85805101D02*
X52169790Y-85662244D01*
X52217409Y-85614625D01*
X52312647Y-85567006D01*
X52455504Y-85567006D01*
X52550742Y-85614625D01*
X52598361Y-85662244D01*
X52645980Y-85757482D01*
X52645980Y-86138435D01*
X51645980Y-86138435D01*
X51645980Y-85805101D01*
X51693600Y-85709863D01*
X51741219Y-85662244D01*
X51836457Y-85614625D01*
X51931695Y-85614625D01*
X52026933Y-85662244D01*
X52074552Y-85709863D01*
X52122171Y-85805101D01*
X52122171Y-86138435D01*
X51979314Y-84709863D02*
X52645980Y-84709863D01*
X51979314Y-85138435D02*
X52503123Y-85138435D01*
X52598361Y-85090816D01*
X52645980Y-84995578D01*
X52645980Y-84852721D01*
X52598361Y-84757482D01*
X52550742Y-84709863D01*
X51979314Y-84328911D02*
X51979314Y-83805101D01*
X52645980Y-84328911D01*
X52645980Y-83805101D01*
X51979314Y-83519387D02*
X51979314Y-82995578D01*
X52645980Y-83519387D01*
X52645980Y-82995578D01*
X52598361Y-82233673D02*
X52645980Y-82328911D01*
X52645980Y-82519387D01*
X52598361Y-82614625D01*
X52503123Y-82662244D01*
X52122171Y-82662244D01*
X52026933Y-82614625D01*
X51979314Y-82519387D01*
X51979314Y-82328911D01*
X52026933Y-82233673D01*
X52122171Y-82186054D01*
X52217409Y-82186054D01*
X52312647Y-82662244D01*
X52645980Y-81757482D02*
X51979314Y-81757482D01*
X52169790Y-81757482D02*
X52074552Y-81709863D01*
X52026933Y-81662244D01*
X51979314Y-81567006D01*
X51979314Y-81471768D01*
X52265028Y-81138435D02*
X52265028Y-80376530D01*
X52645980Y-79900340D02*
X51645980Y-79900340D01*
X51645980Y-79662244D01*
X51693600Y-79519387D01*
X51788838Y-79424149D01*
X51884076Y-79376530D01*
X52074552Y-79328911D01*
X52217409Y-79328911D01*
X52407885Y-79376530D01*
X52503123Y-79424149D01*
X52598361Y-79519387D01*
X52645980Y-79662244D01*
X52645980Y-79900340D01*
X52598361Y-78519387D02*
X52645980Y-78614625D01*
X52645980Y-78805101D01*
X52598361Y-78900340D01*
X52503123Y-78947959D01*
X52122171Y-78947959D01*
X52026933Y-78900340D01*
X51979314Y-78805101D01*
X51979314Y-78614625D01*
X52026933Y-78519387D01*
X52122171Y-78471768D01*
X52217409Y-78471768D01*
X52312647Y-78947959D01*
X51979314Y-78138435D02*
X52645980Y-77900340D01*
X51979314Y-77662244D01*
X52645980Y-77281292D02*
X51979314Y-77281292D01*
X51645980Y-77281292D02*
X51693600Y-77328911D01*
X51741219Y-77281292D01*
X51693600Y-77233673D01*
X51645980Y-77281292D01*
X51741219Y-77281292D01*
X52598361Y-76376530D02*
X52645980Y-76471768D01*
X52645980Y-76662244D01*
X52598361Y-76757482D01*
X52550742Y-76805101D01*
X52455504Y-76852721D01*
X52169790Y-76852721D01*
X52074552Y-76805101D01*
X52026933Y-76757482D01*
X51979314Y-76662244D01*
X51979314Y-76471768D01*
X52026933Y-76376530D01*
X52598361Y-75567006D02*
X52645980Y-75662244D01*
X52645980Y-75852721D01*
X52598361Y-75947959D01*
X52503123Y-75995578D01*
X52122171Y-75995578D01*
X52026933Y-75947959D01*
X51979314Y-75852721D01*
X51979314Y-75662244D01*
X52026933Y-75567006D01*
X52122171Y-75519387D01*
X52217409Y-75519387D01*
X52312647Y-75995578D01*
X45596725Y-82803201D02*
X45644344Y-82660344D01*
X45691963Y-82612725D01*
X45787201Y-82565106D01*
X45930058Y-82565106D01*
X46025296Y-82612725D01*
X46072915Y-82660344D01*
X46120534Y-82755582D01*
X46120534Y-83136534D01*
X45120534Y-83136534D01*
X45120534Y-82803201D01*
X45168154Y-82707963D01*
X45215773Y-82660344D01*
X45311011Y-82612725D01*
X45406249Y-82612725D01*
X45501487Y-82660344D01*
X45549106Y-82707963D01*
X45596725Y-82803201D01*
X45596725Y-83136534D01*
X45120534Y-82231772D02*
X45120534Y-81565106D01*
X46120534Y-82231772D01*
X46120534Y-81565106D01*
X46120534Y-80660344D02*
X46120534Y-81231772D01*
X46120534Y-80946058D02*
X45120534Y-80946058D01*
X45263392Y-81041296D01*
X45358630Y-81136534D01*
X45406249Y-81231772D01*
X47199582Y-86113201D02*
X47199582Y-85351296D01*
X47580534Y-85732249D02*
X46818630Y-85732249D01*
%TO.C,GPS*%
X69115137Y-86342231D02*
X69257994Y-86389850D01*
X69305613Y-86437469D01*
X69353232Y-86532707D01*
X69353232Y-86675564D01*
X69305613Y-86770802D01*
X69257994Y-86818421D01*
X69162756Y-86866040D01*
X68781804Y-86866040D01*
X68781804Y-85866040D01*
X69115137Y-85866040D01*
X69210375Y-85913660D01*
X69257994Y-85961279D01*
X69305613Y-86056517D01*
X69305613Y-86151755D01*
X69257994Y-86246993D01*
X69210375Y-86294612D01*
X69115137Y-86342231D01*
X68781804Y-86342231D01*
X69781804Y-86866040D02*
X69781804Y-85866040D01*
X70353232Y-86866040D01*
X70353232Y-85866040D01*
X70781804Y-85961279D02*
X70829423Y-85913660D01*
X70924661Y-85866040D01*
X71162756Y-85866040D01*
X71257994Y-85913660D01*
X71305613Y-85961279D01*
X71353232Y-86056517D01*
X71353232Y-86151755D01*
X71305613Y-86294612D01*
X70734185Y-86866040D01*
X71353232Y-86866040D01*
X71734185Y-85961279D02*
X71781804Y-85913660D01*
X71877042Y-85866040D01*
X72115137Y-85866040D01*
X72210375Y-85913660D01*
X72257994Y-85961279D01*
X72305613Y-86056517D01*
X72305613Y-86151755D01*
X72257994Y-86294612D01*
X71686566Y-86866040D01*
X72305613Y-86866040D01*
X72924661Y-85866040D02*
X73019899Y-85866040D01*
X73115137Y-85913660D01*
X73162756Y-85961279D01*
X73210375Y-86056517D01*
X73257994Y-86246993D01*
X73257994Y-86485088D01*
X73210375Y-86675564D01*
X73162756Y-86770802D01*
X73115137Y-86818421D01*
X73019899Y-86866040D01*
X72924661Y-86866040D01*
X72829423Y-86818421D01*
X72781804Y-86770802D01*
X72734185Y-86675564D01*
X72686566Y-86485088D01*
X72686566Y-86246993D01*
X72734185Y-86056517D01*
X72781804Y-85961279D01*
X72829423Y-85913660D01*
X72924661Y-85866040D01*
X73686566Y-86485088D02*
X74448470Y-86485088D01*
X75448470Y-85913660D02*
X75353232Y-85866040D01*
X75210375Y-85866040D01*
X75067518Y-85913660D01*
X74972280Y-86008898D01*
X74924661Y-86104136D01*
X74877042Y-86294612D01*
X74877042Y-86437469D01*
X74924661Y-86627945D01*
X74972280Y-86723183D01*
X75067518Y-86818421D01*
X75210375Y-86866040D01*
X75305613Y-86866040D01*
X75448470Y-86818421D01*
X75496089Y-86770802D01*
X75496089Y-86437469D01*
X75305613Y-86437469D01*
X75924661Y-86866040D02*
X75924661Y-85866040D01*
X76305613Y-85866040D01*
X76400851Y-85913660D01*
X76448470Y-85961279D01*
X76496089Y-86056517D01*
X76496089Y-86199374D01*
X76448470Y-86294612D01*
X76400851Y-86342231D01*
X76305613Y-86389850D01*
X75924661Y-86389850D01*
X76877042Y-86818421D02*
X77019899Y-86866040D01*
X77257994Y-86866040D01*
X77353232Y-86818421D01*
X77400851Y-86770802D01*
X77448470Y-86675564D01*
X77448470Y-86580326D01*
X77400851Y-86485088D01*
X77353232Y-86437469D01*
X77257994Y-86389850D01*
X77067518Y-86342231D01*
X76972280Y-86294612D01*
X76924661Y-86246993D01*
X76877042Y-86151755D01*
X76877042Y-86056517D01*
X76924661Y-85961279D01*
X76972280Y-85913660D01*
X77067518Y-85866040D01*
X77305613Y-85866040D01*
X77448470Y-85913660D01*
X78516437Y-77868935D02*
X78468817Y-77964173D01*
X78468817Y-78107030D01*
X78516437Y-78249888D01*
X78611675Y-78345126D01*
X78706913Y-78392745D01*
X78897389Y-78440364D01*
X79040246Y-78440364D01*
X79230722Y-78392745D01*
X79325960Y-78345126D01*
X79421198Y-78249888D01*
X79468817Y-78107030D01*
X79468817Y-78011792D01*
X79421198Y-77868935D01*
X79373579Y-77821316D01*
X79040246Y-77821316D01*
X79040246Y-78011792D01*
X79468817Y-77392745D02*
X78468817Y-77392745D01*
X78468817Y-77011792D01*
X78516437Y-76916554D01*
X78564056Y-76868935D01*
X78659294Y-76821316D01*
X78802151Y-76821316D01*
X78897389Y-76868935D01*
X78945008Y-76916554D01*
X78992627Y-77011792D01*
X78992627Y-77392745D01*
X79421198Y-76440364D02*
X79468817Y-76297507D01*
X79468817Y-76059411D01*
X79421198Y-75964173D01*
X79373579Y-75916554D01*
X79278341Y-75868935D01*
X79183103Y-75868935D01*
X79087865Y-75916554D01*
X79040246Y-75964173D01*
X78992627Y-76059411D01*
X78945008Y-76249888D01*
X78897389Y-76345126D01*
X78849770Y-76392745D01*
X78754532Y-76440364D01*
X78659294Y-76440364D01*
X78564056Y-76392745D01*
X78516437Y-76345126D01*
X78468817Y-76249888D01*
X78468817Y-76011792D01*
X78516437Y-75868935D01*
%TO.C,Volt. Reg.*%
X159715714Y-39742142D02*
X159668095Y-39789761D01*
X159525238Y-39837380D01*
X159430000Y-39837380D01*
X159287142Y-39789761D01*
X159191904Y-39694523D01*
X159144285Y-39599285D01*
X159096666Y-39408809D01*
X159096666Y-39265952D01*
X159144285Y-39075476D01*
X159191904Y-38980238D01*
X159287142Y-38885000D01*
X159430000Y-38837380D01*
X159525238Y-38837380D01*
X159668095Y-38885000D01*
X159715714Y-38932619D01*
X160287142Y-39837380D02*
X160191904Y-39789761D01*
X160144285Y-39742142D01*
X160096666Y-39646904D01*
X160096666Y-39361190D01*
X160144285Y-39265952D01*
X160191904Y-39218333D01*
X160287142Y-39170714D01*
X160430000Y-39170714D01*
X160525238Y-39218333D01*
X160572857Y-39265952D01*
X160620476Y-39361190D01*
X160620476Y-39646904D01*
X160572857Y-39742142D01*
X160525238Y-39789761D01*
X160430000Y-39837380D01*
X160287142Y-39837380D01*
X161049047Y-39170714D02*
X161049047Y-39837380D01*
X161049047Y-39265952D02*
X161096666Y-39218333D01*
X161191904Y-39170714D01*
X161334761Y-39170714D01*
X161430000Y-39218333D01*
X161477619Y-39313571D01*
X161477619Y-39837380D01*
X161953809Y-39170714D02*
X161953809Y-39837380D01*
X161953809Y-39265952D02*
X162001428Y-39218333D01*
X162096666Y-39170714D01*
X162239523Y-39170714D01*
X162334761Y-39218333D01*
X162382380Y-39313571D01*
X162382380Y-39837380D01*
X162620476Y-39932619D02*
X163382380Y-39932619D01*
X163810952Y-38837380D02*
X163906190Y-38837380D01*
X164001428Y-38885000D01*
X164049047Y-38932619D01*
X164096666Y-39027857D01*
X164144285Y-39218333D01*
X164144285Y-39456428D01*
X164096666Y-39646904D01*
X164049047Y-39742142D01*
X164001428Y-39789761D01*
X163906190Y-39837380D01*
X163810952Y-39837380D01*
X163715714Y-39789761D01*
X163668095Y-39742142D01*
X163620476Y-39646904D01*
X163572857Y-39456428D01*
X163572857Y-39218333D01*
X163620476Y-39027857D01*
X163668095Y-38932619D01*
X163715714Y-38885000D01*
X163810952Y-38837380D01*
X165096666Y-39837380D02*
X164525238Y-39837380D01*
X164810952Y-39837380D02*
X164810952Y-38837380D01*
X164715714Y-38980238D01*
X164620476Y-39075476D01*
X164525238Y-39123095D01*
X165430000Y-39837380D02*
X165953809Y-39170714D01*
X165430000Y-39170714D02*
X165953809Y-39837380D01*
X166525238Y-38837380D02*
X166620476Y-38837380D01*
X166715714Y-38885000D01*
X166763333Y-38932619D01*
X166810952Y-39027857D01*
X166858571Y-39218333D01*
X166858571Y-39456428D01*
X166810952Y-39646904D01*
X166763333Y-39742142D01*
X166715714Y-39789761D01*
X166620476Y-39837380D01*
X166525238Y-39837380D01*
X166430000Y-39789761D01*
X166382380Y-39742142D01*
X166334761Y-39646904D01*
X166287142Y-39456428D01*
X166287142Y-39218333D01*
X166334761Y-39027857D01*
X166382380Y-38932619D01*
X166430000Y-38885000D01*
X166525238Y-38837380D01*
X167239523Y-38932619D02*
X167287142Y-38885000D01*
X167382380Y-38837380D01*
X167620476Y-38837380D01*
X167715714Y-38885000D01*
X167763333Y-38932619D01*
X167810952Y-39027857D01*
X167810952Y-39123095D01*
X167763333Y-39265952D01*
X167191904Y-39837380D01*
X167810952Y-39837380D01*
X168001428Y-39932619D02*
X168763333Y-39932619D01*
X169001428Y-39837380D02*
X169001428Y-38837380D01*
X169334761Y-39551666D01*
X169668095Y-38837380D01*
X169668095Y-39837380D01*
X170572857Y-39837380D02*
X170572857Y-39313571D01*
X170525238Y-39218333D01*
X170430000Y-39170714D01*
X170239523Y-39170714D01*
X170144285Y-39218333D01*
X170572857Y-39789761D02*
X170477619Y-39837380D01*
X170239523Y-39837380D01*
X170144285Y-39789761D01*
X170096666Y-39694523D01*
X170096666Y-39599285D01*
X170144285Y-39504047D01*
X170239523Y-39456428D01*
X170477619Y-39456428D01*
X170572857Y-39408809D01*
X171191904Y-39837380D02*
X171096666Y-39789761D01*
X171049047Y-39694523D01*
X171049047Y-38837380D01*
X171953809Y-39789761D02*
X171858571Y-39837380D01*
X171668095Y-39837380D01*
X171572857Y-39789761D01*
X171525238Y-39694523D01*
X171525238Y-39313571D01*
X171572857Y-39218333D01*
X171668095Y-39170714D01*
X171858571Y-39170714D01*
X171953809Y-39218333D01*
X172001428Y-39313571D01*
X172001428Y-39408809D01*
X171525238Y-39504047D01*
X172430000Y-39456428D02*
X173191904Y-39456428D01*
X174239523Y-39742142D02*
X174191904Y-39789761D01*
X174049047Y-39837380D01*
X173953809Y-39837380D01*
X173810952Y-39789761D01*
X173715714Y-39694523D01*
X173668095Y-39599285D01*
X173620476Y-39408809D01*
X173620476Y-39265952D01*
X173668095Y-39075476D01*
X173715714Y-38980238D01*
X173810952Y-38885000D01*
X173953809Y-38837380D01*
X174049047Y-38837380D01*
X174191904Y-38885000D01*
X174239523Y-38932619D01*
X174810952Y-39837380D02*
X174715714Y-39789761D01*
X174668095Y-39742142D01*
X174620476Y-39646904D01*
X174620476Y-39361190D01*
X174668095Y-39265952D01*
X174715714Y-39218333D01*
X174810952Y-39170714D01*
X174953809Y-39170714D01*
X175049047Y-39218333D01*
X175096666Y-39265952D01*
X175144285Y-39361190D01*
X175144285Y-39646904D01*
X175096666Y-39742142D01*
X175049047Y-39789761D01*
X174953809Y-39837380D01*
X174810952Y-39837380D01*
X175572857Y-39170714D02*
X175572857Y-39837380D01*
X175572857Y-39265952D02*
X175620476Y-39218333D01*
X175715714Y-39170714D01*
X175858571Y-39170714D01*
X175953809Y-39218333D01*
X176001428Y-39313571D01*
X176001428Y-39837380D01*
X176477619Y-39170714D02*
X176477619Y-39837380D01*
X176477619Y-39265952D02*
X176525238Y-39218333D01*
X176620476Y-39170714D01*
X176763333Y-39170714D01*
X176858571Y-39218333D01*
X176906190Y-39313571D01*
X176906190Y-39837380D01*
X177763333Y-39789761D02*
X177668095Y-39837380D01*
X177477619Y-39837380D01*
X177382380Y-39789761D01*
X177334761Y-39694523D01*
X177334761Y-39313571D01*
X177382380Y-39218333D01*
X177477619Y-39170714D01*
X177668095Y-39170714D01*
X177763333Y-39218333D01*
X177810952Y-39313571D01*
X177810952Y-39408809D01*
X177334761Y-39504047D01*
X178668095Y-39789761D02*
X178572857Y-39837380D01*
X178382380Y-39837380D01*
X178287142Y-39789761D01*
X178239523Y-39742142D01*
X178191904Y-39646904D01*
X178191904Y-39361190D01*
X178239523Y-39265952D01*
X178287142Y-39218333D01*
X178382380Y-39170714D01*
X178572857Y-39170714D01*
X178668095Y-39218333D01*
X178953809Y-39170714D02*
X179334761Y-39170714D01*
X179096666Y-38837380D02*
X179096666Y-39694523D01*
X179144285Y-39789761D01*
X179239523Y-39837380D01*
X179334761Y-39837380D01*
X179810952Y-39837380D02*
X179715714Y-39789761D01*
X179668095Y-39742142D01*
X179620476Y-39646904D01*
X179620476Y-39361190D01*
X179668095Y-39265952D01*
X179715714Y-39218333D01*
X179810952Y-39170714D01*
X179953809Y-39170714D01*
X180049047Y-39218333D01*
X180096666Y-39265952D01*
X180144285Y-39361190D01*
X180144285Y-39646904D01*
X180096666Y-39742142D01*
X180049047Y-39789761D01*
X179953809Y-39837380D01*
X179810952Y-39837380D01*
X180572857Y-39837380D02*
X180572857Y-39170714D01*
X180572857Y-39361190D02*
X180620476Y-39265952D01*
X180668095Y-39218333D01*
X180763333Y-39170714D01*
X180858571Y-39170714D01*
D11*
%TO.C,R2*%
X134794950Y-52700936D02*
X128494950Y-52700936D01*
X126564950Y-53950936D02*
X128494950Y-53950936D01*
X128494950Y-52700936D02*
X128494950Y-55200936D01*
X134794950Y-55200936D02*
X134794950Y-52700936D01*
X136724950Y-53950936D02*
X134794950Y-53950936D01*
X128494950Y-55200936D02*
X134794950Y-55200936D01*
%TO.C,radio*%
X62210150Y-57742500D02*
X58800150Y-57742500D01*
X62210150Y-45042500D02*
X62210150Y-57742500D01*
X59652650Y-45042500D02*
X62210150Y-45042500D01*
X58800150Y-45895000D02*
X59652650Y-45042500D01*
X58800150Y-57742500D02*
X58800150Y-45895000D01*
%TO.C,R3*%
X126390000Y-86380000D02*
X126390000Y-88880000D01*
X132690000Y-88880000D02*
X132690000Y-86380000D01*
X134620000Y-87630000D02*
X132690000Y-87630000D01*
X132690000Y-86380000D02*
X126390000Y-86380000D01*
X126390000Y-88880000D02*
X132690000Y-88880000D01*
X124460000Y-87630000D02*
X126390000Y-87630000D01*
%TO.C,R4*%
X144210461Y-86127794D02*
X144210461Y-88627794D01*
X152440461Y-87377794D02*
X150510461Y-87377794D01*
X150510461Y-86127794D02*
X144210461Y-86127794D01*
X142280461Y-87377794D02*
X144210461Y-87377794D01*
X150510461Y-88627794D02*
X150510461Y-86127794D01*
X144210461Y-88627794D02*
X150510461Y-88627794D01*
%TO.C,R1*%
X128574699Y-51213495D02*
X134874699Y-51213495D01*
X128574699Y-48713495D02*
X128574699Y-51213495D01*
X126644699Y-49963495D02*
X128574699Y-49963495D01*
X134874699Y-51213495D02*
X134874699Y-48713495D01*
X136804699Y-49963495D02*
X134874699Y-49963495D01*
X134874699Y-48713495D02*
X128574699Y-48713495D01*
%TO.C,Batt.*%
X175955000Y-38285000D02*
X175955000Y-29785000D01*
X170755000Y-29785000D02*
X175955000Y-29785000D01*
X174655000Y-39985000D02*
X175955000Y-38285000D01*
X172055000Y-39985000D02*
X170755000Y-38285000D01*
X172055000Y-39985000D02*
X174655000Y-39985000D01*
X170755000Y-38285000D02*
X170755000Y-29785000D01*
%TO.C,IMU*%
X140425612Y-80642137D02*
X140425612Y-51432137D01*
X145505612Y-80642137D02*
X140425612Y-80642137D01*
X141695612Y-50162137D02*
X145505612Y-50162137D01*
X140425612Y-51432137D02*
X141695612Y-50162137D01*
X145505612Y-50162137D02*
X145505612Y-80642137D01*
%TO.C,J2*%
X52070000Y-71755000D02*
X52705000Y-72390000D01*
X52705000Y-74295000D02*
X45085000Y-74295000D01*
X45085000Y-71755000D02*
X52070000Y-71755000D01*
X45085000Y-74295000D02*
X45085000Y-71755000D01*
X52705000Y-72390000D02*
X52705000Y-74295000D01*
%TO.C,BZ1*%
X50668154Y-81922249D02*
G75*
G03*
X50668154Y-81922249I-1000000J0D01*
G01*
X55668154Y-81922249D02*
G75*
G03*
X55668154Y-81922249I-6000000J0D01*
G01*
%TO.C,GPS*%
X77746437Y-78744650D02*
X71746437Y-78744650D01*
X77746437Y-73024650D02*
X71746437Y-73024650D01*
X82106437Y-73664650D02*
X80286437Y-73664650D01*
X77746437Y-73664650D02*
X71746437Y-73664650D01*
X82106437Y-76204650D02*
X80286437Y-76204650D01*
X77746437Y-76204650D02*
X71746437Y-76204650D01*
X71746437Y-76204650D02*
X71746437Y-75564650D01*
X80286437Y-72074650D02*
X80286437Y-81599650D01*
X82106437Y-73024650D02*
X80286437Y-73024650D01*
X82106437Y-75564650D02*
X80286437Y-75564650D01*
X77746437Y-81284650D02*
X71746437Y-81284650D01*
X77746437Y-78104650D02*
X71746437Y-78104650D01*
X71746437Y-73664650D02*
X71746437Y-73024650D01*
X82106437Y-73664650D02*
X82106437Y-73024650D01*
X82106437Y-81284650D02*
X82106437Y-80644650D01*
X82106437Y-80644650D02*
X80286437Y-80644650D01*
X82106437Y-78744650D02*
X80286437Y-78744650D01*
X77746437Y-82234650D02*
X77746437Y-72074650D01*
X82106437Y-76204650D02*
X82106437Y-75564650D01*
X77746437Y-80644650D02*
X71746437Y-80644650D01*
X71746437Y-78744650D02*
X71746437Y-78104650D01*
X82106437Y-78744650D02*
X82106437Y-78104650D01*
X82106437Y-81284650D02*
X80286437Y-81284650D01*
X82106437Y-78104650D02*
X80286437Y-78104650D01*
X77746437Y-75564650D02*
X71746437Y-75564650D01*
X80286437Y-81599650D02*
X79651437Y-82234650D01*
X77746437Y-72074650D02*
X80286437Y-72074650D01*
X71746437Y-81284650D02*
X71746437Y-80644650D01*
X79651437Y-82234650D02*
X77746437Y-82234650D01*
%TD*%
M02*
