G04 #@! TF.GenerationSoftware,KiCad,Pcbnew,8.0.3*
G04 #@! TF.CreationDate,2024-07-05T00:01:19-04:00*
G04 #@! TF.ProjectId,rrc_pcb2,7272635f-7063-4623-922e-6b696361645f,3*
G04 #@! TF.SameCoordinates,Original*
G04 #@! TF.FileFunction,Soldermask,Bot*
G04 #@! TF.FilePolarity,Negative*
%FSLAX46Y46*%
G04 Gerber Fmt 4.6, Leading zero omitted, Abs format (unit mm)*
G04 Created by KiCad (PCBNEW 8.0.3) date 2024-07-05 00:01:19*
%MOMM*%
%LPD*%
G01*
G04 APERTURE LIST*
%ADD10C,1.600000*%
%ADD11O,1.600000X1.600000*%
%ADD12R,1.700000X1.700000*%
%ADD13O,1.700000X1.700000*%
%ADD14R,1.600000X1.600000*%
%ADD15C,1.300000*%
%ADD16R,1.300000X1.300000*%
%ADD17C,1.700000*%
%ADD18R,2.000000X2.000000*%
%ADD19C,2.000000*%
%ADD20C,2.100000*%
%ADD21O,2.286000X4.470400*%
%ADD22C,1.801600*%
G04 APERTURE END LIST*
D10*
X176530000Y-73660000D03*
D11*
X166370000Y-73660000D03*
D10*
X163830000Y-63500000D03*
D11*
X163830000Y-73660000D03*
D12*
X46910000Y-73725000D03*
D13*
X46910000Y-71185000D03*
D14*
X143565626Y-32206483D03*
D10*
X140514826Y-28447283D03*
X140514826Y-30987283D03*
X140514826Y-33527283D03*
X140514826Y-36067283D03*
X155754826Y-30987283D03*
X140514826Y-61467283D03*
X145594826Y-71627283D03*
X140514826Y-38607283D03*
X140514826Y-41147283D03*
X140514826Y-43687283D03*
X140514826Y-46227283D03*
X140514826Y-48767283D03*
X140514826Y-51307283D03*
X140514826Y-53847283D03*
X140514826Y-56387283D03*
X140514826Y-58927283D03*
X155754826Y-58927283D03*
X155754826Y-56387283D03*
X155754826Y-53847283D03*
X155754826Y-51307283D03*
X155754826Y-48767283D03*
X155754826Y-46227283D03*
X155754826Y-43687283D03*
X155754826Y-41147283D03*
X155754826Y-38607283D03*
X155754826Y-36067283D03*
X155754826Y-33527283D03*
X140514826Y-64007283D03*
X140514826Y-66547283D03*
X140514826Y-69087283D03*
X140514826Y-71627283D03*
X140514826Y-74167283D03*
X140514826Y-76707283D03*
X140514826Y-79247283D03*
X140514826Y-81787283D03*
X140514826Y-84327283D03*
X155754826Y-84327283D03*
X155754826Y-81787283D03*
X155754826Y-79247283D03*
X155754826Y-76707283D03*
X155754826Y-74167283D03*
X155754826Y-71627283D03*
X155754826Y-69087283D03*
X155754826Y-66547283D03*
X155754826Y-64007283D03*
X153214826Y-28447283D03*
D15*
X149404826Y-26637283D03*
X146864826Y-26637283D03*
D10*
X143565626Y-37286483D03*
X143565626Y-34746483D03*
D14*
X140514826Y-25907283D03*
D10*
X155754826Y-28447283D03*
X143565626Y-39826483D03*
D15*
X151316426Y-40877283D03*
D10*
X143565626Y-42366483D03*
X155754826Y-61467283D03*
X148134826Y-71627283D03*
D15*
X151316426Y-38877283D03*
D10*
X153214826Y-71627283D03*
X150674826Y-71627283D03*
D16*
X153316426Y-38877283D03*
D15*
X153316426Y-40877283D03*
X149316426Y-40877283D03*
X149316426Y-38877283D03*
D10*
X143054826Y-71627283D03*
X155754826Y-25907283D03*
D12*
X159961694Y-43835573D03*
D13*
X162501694Y-43835573D03*
X165041694Y-43835573D03*
D17*
X171111788Y-65506574D03*
X171111788Y-62966574D03*
X171111788Y-60426574D03*
X171111788Y-57886574D03*
X171111788Y-55346574D03*
X171111788Y-52806574D03*
X171111788Y-50266574D03*
D18*
X179906949Y-49529999D03*
D19*
X179906949Y-57129999D03*
D12*
X162694739Y-30506384D03*
D13*
X162694739Y-33046384D03*
X162694739Y-35586384D03*
X162694739Y-38126384D03*
D10*
X160020000Y-77470000D03*
D11*
X170180000Y-77470000D03*
D20*
X62603648Y-75155674D03*
X62603648Y-70155674D03*
X114603648Y-70155674D03*
X114603648Y-75155674D03*
D21*
X120664208Y-48064785D03*
X115584208Y-48064785D03*
D22*
X127078834Y-31567837D03*
X124538834Y-31567837D03*
X121998834Y-31567837D03*
X119458834Y-31567837D03*
X116918834Y-31567837D03*
X114378834Y-31567837D03*
X111838834Y-31567837D03*
X109298834Y-31567837D03*
D13*
X47592661Y-43349407D03*
X47592661Y-40809407D03*
X45052661Y-40809407D03*
X47592661Y-28109407D03*
X47592661Y-45889407D03*
D12*
X45052661Y-45889407D03*
D13*
X45052661Y-30649407D03*
X47592661Y-30649407D03*
X47592661Y-33189407D03*
X47592661Y-35729407D03*
X47592661Y-38269407D03*
X45052661Y-28109407D03*
X45052661Y-43349407D03*
X45052661Y-33189407D03*
X45052661Y-38269407D03*
X45052661Y-35729407D03*
D12*
X135193271Y-84837533D03*
D13*
X135193271Y-82297533D03*
X135193271Y-79757533D03*
X135193271Y-77217533D03*
X135193271Y-74677533D03*
X135193271Y-72137533D03*
X135193271Y-69597533D03*
X135193271Y-67057533D03*
D10*
X160020000Y-82550000D03*
D11*
X170180000Y-82550000D03*
M02*
