G04 #@! TF.GenerationSoftware,KiCad,Pcbnew,8.0.3*
G04 #@! TF.CreationDate,2024-07-05T00:01:18-04:00*
G04 #@! TF.ProjectId,rrc_pcb2,7272635f-7063-4623-922e-6b696361645f,3*
G04 #@! TF.SameCoordinates,Original*
G04 #@! TF.FileFunction,Copper,L1,Top*
G04 #@! TF.FilePolarity,Positive*
%FSLAX46Y46*%
G04 Gerber Fmt 4.6, Leading zero omitted, Abs format (unit mm)*
G04 Created by KiCad (PCBNEW 8.0.3) date 2024-07-05 00:01:18*
%MOMM*%
%LPD*%
G01*
G04 APERTURE LIST*
G04 #@! TA.AperFunction,ComponentPad*
%ADD10C,1.600000*%
G04 #@! TD*
G04 #@! TA.AperFunction,ComponentPad*
%ADD11O,1.600000X1.600000*%
G04 #@! TD*
G04 #@! TA.AperFunction,ComponentPad*
%ADD12R,1.700000X1.700000*%
G04 #@! TD*
G04 #@! TA.AperFunction,ComponentPad*
%ADD13O,1.700000X1.700000*%
G04 #@! TD*
G04 #@! TA.AperFunction,ComponentPad*
%ADD14R,1.600000X1.600000*%
G04 #@! TD*
G04 #@! TA.AperFunction,ComponentPad*
%ADD15C,1.300000*%
G04 #@! TD*
G04 #@! TA.AperFunction,ComponentPad*
%ADD16R,1.300000X1.300000*%
G04 #@! TD*
G04 #@! TA.AperFunction,ComponentPad*
%ADD17C,1.700000*%
G04 #@! TD*
G04 #@! TA.AperFunction,ComponentPad*
%ADD18R,2.000000X2.000000*%
G04 #@! TD*
G04 #@! TA.AperFunction,ComponentPad*
%ADD19C,2.000000*%
G04 #@! TD*
G04 #@! TA.AperFunction,ComponentPad*
%ADD20C,2.100000*%
G04 #@! TD*
G04 #@! TA.AperFunction,ComponentPad*
%ADD21O,2.184400X4.368800*%
G04 #@! TD*
G04 #@! TA.AperFunction,Conductor*
%ADD22C,0.250000*%
G04 #@! TD*
G04 #@! TA.AperFunction,Conductor*
%ADD23C,0.750000*%
G04 #@! TD*
G04 APERTURE END LIST*
D10*
X176530000Y-73660000D03*
D11*
X166370000Y-73660000D03*
D10*
X163830000Y-63500000D03*
D11*
X163830000Y-73660000D03*
D12*
X46910000Y-73725000D03*
D13*
X46910000Y-71185000D03*
D14*
X143565626Y-32206483D03*
D10*
X140514826Y-28447283D03*
X140514826Y-30987283D03*
X140514826Y-33527283D03*
X140514826Y-36067283D03*
X155754826Y-30987283D03*
X140514826Y-61467283D03*
X145594826Y-71627283D03*
X140514826Y-38607283D03*
X140514826Y-41147283D03*
X140514826Y-43687283D03*
X140514826Y-46227283D03*
X140514826Y-48767283D03*
X140514826Y-51307283D03*
X140514826Y-53847283D03*
X140514826Y-56387283D03*
X140514826Y-58927283D03*
X155754826Y-58927283D03*
X155754826Y-56387283D03*
X155754826Y-53847283D03*
X155754826Y-51307283D03*
X155754826Y-48767283D03*
X155754826Y-46227283D03*
X155754826Y-43687283D03*
X155754826Y-41147283D03*
X155754826Y-38607283D03*
X155754826Y-36067283D03*
X155754826Y-33527283D03*
X140514826Y-64007283D03*
X140514826Y-66547283D03*
X140514826Y-69087283D03*
X140514826Y-71627283D03*
X140514826Y-74167283D03*
X140514826Y-76707283D03*
X140514826Y-79247283D03*
X140514826Y-81787283D03*
X140514826Y-84327283D03*
X155754826Y-84327283D03*
X155754826Y-81787283D03*
X155754826Y-79247283D03*
X155754826Y-76707283D03*
X155754826Y-74167283D03*
X155754826Y-71627283D03*
X155754826Y-69087283D03*
X155754826Y-66547283D03*
X155754826Y-64007283D03*
X153214826Y-28447283D03*
D15*
X149404826Y-26637283D03*
X146864826Y-26637283D03*
D10*
X143565626Y-37286483D03*
X143565626Y-34746483D03*
D14*
X140514826Y-25907283D03*
D10*
X155754826Y-28447283D03*
X143565626Y-39826483D03*
D15*
X151316426Y-40877283D03*
D10*
X143565626Y-42366483D03*
X155754826Y-61467283D03*
X148134826Y-71627283D03*
D15*
X151316426Y-38877283D03*
D10*
X153214826Y-71627283D03*
X150674826Y-71627283D03*
D16*
X153316426Y-38877283D03*
D15*
X153316426Y-40877283D03*
X149316426Y-40877283D03*
X149316426Y-38877283D03*
D10*
X143054826Y-71627283D03*
X155754826Y-25907283D03*
D12*
X159961694Y-43835573D03*
D13*
X162501694Y-43835573D03*
X165041694Y-43835573D03*
D17*
X171111788Y-65506574D03*
X171111788Y-62966574D03*
X171111788Y-60426574D03*
X171111788Y-57886574D03*
X171111788Y-55346574D03*
X171111788Y-52806574D03*
X171111788Y-50266574D03*
D18*
X179906949Y-49529999D03*
D19*
X179906949Y-57129999D03*
D12*
X162694739Y-30506384D03*
D13*
X162694739Y-33046384D03*
X162694739Y-35586384D03*
X162694739Y-38126384D03*
D10*
X160020000Y-77470000D03*
D11*
X170180000Y-77470000D03*
D20*
X62603648Y-75155674D03*
X62603648Y-70155674D03*
X114603648Y-70155674D03*
X114603648Y-75155674D03*
D21*
X120664208Y-48064785D03*
X115584208Y-48064785D03*
D17*
X127078834Y-31567837D03*
X124538834Y-31567837D03*
X121998834Y-31567837D03*
X119458834Y-31567837D03*
X116918834Y-31567837D03*
X114378834Y-31567837D03*
X111838834Y-31567837D03*
X109298834Y-31567837D03*
D13*
X47592661Y-43349407D03*
X47592661Y-40809407D03*
X45052661Y-40809407D03*
X47592661Y-28109407D03*
X47592661Y-45889407D03*
D12*
X45052661Y-45889407D03*
D13*
X45052661Y-30649407D03*
X47592661Y-30649407D03*
X47592661Y-33189407D03*
X47592661Y-35729407D03*
X47592661Y-38269407D03*
X45052661Y-28109407D03*
X45052661Y-43349407D03*
X45052661Y-33189407D03*
X45052661Y-38269407D03*
X45052661Y-35729407D03*
D12*
X135193271Y-84837533D03*
D13*
X135193271Y-82297533D03*
X135193271Y-79757533D03*
X135193271Y-77217533D03*
X135193271Y-74677533D03*
X135193271Y-72137533D03*
X135193271Y-69597533D03*
X135193271Y-67057533D03*
D10*
X160020000Y-82550000D03*
D11*
X170180000Y-82550000D03*
D22*
X118283834Y-45684411D02*
X120664208Y-48064785D01*
X155048355Y-22860000D02*
X119380000Y-22860000D01*
D23*
X120664208Y-48064785D02*
X120664208Y-64095114D01*
D22*
X51138814Y-43180000D02*
X50969407Y-43349407D01*
X118283834Y-31081136D02*
X118283834Y-45684411D01*
X114603648Y-70155674D02*
X95555674Y-70155674D01*
X68580000Y-43180000D02*
X51138814Y-43180000D01*
X162694739Y-30506384D02*
X155048355Y-22860000D01*
D23*
X120664208Y-64095114D02*
X114603648Y-70155674D01*
D22*
X119380000Y-29984970D02*
X118283834Y-31081136D01*
X119380000Y-22860000D02*
X119380000Y-29984970D01*
X50969407Y-43349407D02*
X47592661Y-43349407D01*
X95555674Y-70155674D02*
X68580000Y-43180000D01*
X154629826Y-52722283D02*
X154629826Y-48301292D01*
X171111788Y-65506574D02*
X166370000Y-70248362D01*
X170180000Y-77470000D02*
X166370000Y-73660000D01*
X162705000Y-72535000D02*
X163830000Y-73660000D01*
X168910000Y-83820000D02*
X170180000Y-82550000D01*
X139121199Y-44812283D02*
X146719826Y-44812283D01*
X161234984Y-47642283D02*
X165041694Y-43835573D01*
X158750000Y-83820000D02*
X168910000Y-83820000D01*
X146719826Y-44812283D02*
X155754826Y-53847283D01*
X162705000Y-60797457D02*
X162705000Y-72535000D01*
X155288835Y-47642283D02*
X161234984Y-47642283D01*
X166370000Y-70248362D02*
X166370000Y-73660000D01*
X170180000Y-82550000D02*
X170180000Y-77470000D01*
X137118521Y-82912283D02*
X157842283Y-82912283D01*
X127078834Y-32769918D02*
X139121199Y-44812283D01*
X155754826Y-53847283D02*
X162705000Y-60797457D01*
X155754826Y-53847283D02*
X154629826Y-52722283D01*
X127078834Y-31567837D02*
X127078834Y-32769918D01*
X166370000Y-73660000D02*
X163830000Y-73660000D01*
X135193271Y-84837533D02*
X137118521Y-82912283D01*
X154629826Y-48301292D02*
X155288835Y-47642283D01*
X157842283Y-82912283D02*
X158750000Y-83820000D01*
X135193271Y-79757533D02*
X137118521Y-77832283D01*
X149549826Y-77832283D02*
X155754826Y-71627283D01*
X156879826Y-79409826D02*
X156879826Y-72752283D01*
X160020000Y-82550000D02*
X156879826Y-79409826D01*
X156879826Y-72752283D02*
X155754826Y-71627283D01*
X137118521Y-77832283D02*
X149549826Y-77832283D01*
X149083835Y-69087283D02*
X155754826Y-69087283D01*
X160020000Y-77470000D02*
X160020000Y-73352457D01*
X136828521Y-75582283D02*
X143520817Y-75582283D01*
X135193271Y-77217533D02*
X136828521Y-75582283D01*
X147009826Y-72093274D02*
X147009826Y-71161292D01*
X160020000Y-73352457D02*
X155754826Y-69087283D01*
X143520817Y-75582283D02*
X147009826Y-72093274D01*
X147009826Y-71161292D02*
X149083835Y-69087283D01*
X154629826Y-62882283D02*
X154629826Y-61001292D01*
X155754826Y-64007283D02*
X154629826Y-62882283D01*
X137783280Y-47352283D02*
X121998834Y-31567837D01*
X154629826Y-61001292D02*
X140980817Y-47352283D01*
X140980817Y-47352283D02*
X137783280Y-47352283D01*
X179906949Y-57129999D02*
X179906949Y-55338594D01*
X179906949Y-55338594D02*
X162694739Y-38126384D01*
X136828521Y-80662283D02*
X154629826Y-80662283D01*
X159961694Y-40859429D02*
X162694739Y-38126384D01*
X135193271Y-82297533D02*
X136828521Y-80662283D01*
X159961694Y-43835573D02*
X159961694Y-40859429D01*
X154629826Y-80662283D02*
X155754826Y-81787283D01*
X119458834Y-32154895D02*
X119458834Y-31567837D01*
X139736222Y-52432283D02*
X119458834Y-32154895D01*
X141639826Y-52432283D02*
X139736222Y-52432283D01*
X155754826Y-66547283D02*
X141639826Y-52432283D01*
X157133840Y-41147283D02*
X155754826Y-41147283D01*
X162694739Y-35586384D02*
X157133840Y-41147283D01*
X162694739Y-33046384D02*
X161315725Y-33046384D01*
X161315725Y-33046384D02*
X155754826Y-38607283D01*
D23*
X62603648Y-70155674D02*
X54775272Y-70155674D01*
X46910000Y-71185000D02*
X53745946Y-71185000D01*
X53745946Y-71185000D02*
X54775272Y-70155674D01*
D22*
X176530000Y-65844786D02*
X171111788Y-60426574D01*
X176530000Y-73660000D02*
X176530000Y-65844786D01*
X171111788Y-57886574D02*
X169443426Y-57886574D01*
X163830000Y-63500000D02*
X163830000Y-56842457D01*
X169443426Y-57886574D02*
X163830000Y-63500000D01*
X163830000Y-56842457D02*
X155754826Y-48767283D01*
G04 #@! TA.AperFunction,Conductor*
G36*
X154801882Y-23513502D02*
G01*
X154822856Y-23530405D01*
X155684598Y-24392147D01*
X155718624Y-24454459D01*
X155713559Y-24525274D01*
X155671012Y-24582110D01*
X155606486Y-24606762D01*
X155526744Y-24613739D01*
X155526740Y-24613739D01*
X155526739Y-24613740D01*
X155433269Y-24638785D01*
X155305585Y-24672998D01*
X155305579Y-24673000D01*
X155098076Y-24769760D01*
X154910529Y-24901082D01*
X154910523Y-24901087D01*
X154748630Y-25062980D01*
X154748625Y-25062986D01*
X154617303Y-25250533D01*
X154520543Y-25458036D01*
X154520541Y-25458042D01*
X154461283Y-25679196D01*
X154441328Y-25907283D01*
X154461283Y-26135370D01*
X154483154Y-26216992D01*
X154520541Y-26356523D01*
X154520543Y-26356529D01*
X154617303Y-26564032D01*
X154748154Y-26750907D01*
X154748628Y-26751583D01*
X154910526Y-26913481D01*
X155098077Y-27044806D01*
X155125441Y-27057566D01*
X155137283Y-27063088D01*
X155190568Y-27110005D01*
X155210029Y-27178282D01*
X155189487Y-27246242D01*
X155137283Y-27291478D01*
X155098076Y-27309760D01*
X154910529Y-27441082D01*
X154910523Y-27441087D01*
X154748630Y-27602980D01*
X154748625Y-27602986D01*
X154617303Y-27790533D01*
X154599021Y-27829740D01*
X154552104Y-27883025D01*
X154483827Y-27902486D01*
X154415867Y-27881944D01*
X154370631Y-27829740D01*
X154368720Y-27825642D01*
X154352349Y-27790534D01*
X154221024Y-27602983D01*
X154059126Y-27441085D01*
X154059117Y-27441079D01*
X153871575Y-27309760D01*
X153664072Y-27213000D01*
X153664066Y-27212998D01*
X153527051Y-27176285D01*
X153442913Y-27153740D01*
X153214826Y-27133785D01*
X152986739Y-27153740D01*
X152765585Y-27212998D01*
X152765579Y-27213000D01*
X152558076Y-27309760D01*
X152370529Y-27441082D01*
X152370523Y-27441087D01*
X152208630Y-27602980D01*
X152208625Y-27602986D01*
X152077303Y-27790533D01*
X151980543Y-27998036D01*
X151980542Y-27998040D01*
X151921283Y-28219196D01*
X151901328Y-28447283D01*
X151921283Y-28675370D01*
X151943477Y-28758198D01*
X151980541Y-28896523D01*
X151980543Y-28896529D01*
X152077303Y-29104032D01*
X152179930Y-29250599D01*
X152208628Y-29291583D01*
X152370526Y-29453481D01*
X152558077Y-29584806D01*
X152765583Y-29681567D01*
X152986739Y-29740826D01*
X153214826Y-29760781D01*
X153442913Y-29740826D01*
X153664069Y-29681567D01*
X153871575Y-29584806D01*
X154059126Y-29453481D01*
X154221024Y-29291583D01*
X154352349Y-29104032D01*
X154370631Y-29064826D01*
X154417547Y-29011541D01*
X154485824Y-28992079D01*
X154553784Y-29012620D01*
X154599021Y-29064826D01*
X154617303Y-29104032D01*
X154623103Y-29112315D01*
X154719928Y-29250596D01*
X154748628Y-29291583D01*
X154910526Y-29453481D01*
X155098077Y-29584806D01*
X155133185Y-29601177D01*
X155137283Y-29603088D01*
X155190568Y-29650005D01*
X155210029Y-29718282D01*
X155189487Y-29786242D01*
X155137283Y-29831478D01*
X155098076Y-29849760D01*
X154910529Y-29981082D01*
X154910523Y-29981087D01*
X154748630Y-30142980D01*
X154748625Y-30142986D01*
X154617303Y-30330533D01*
X154520543Y-30538036D01*
X154520541Y-30538042D01*
X154504678Y-30597244D01*
X154461283Y-30759196D01*
X154441328Y-30987283D01*
X154461283Y-31215370D01*
X154483477Y-31298198D01*
X154520541Y-31436523D01*
X154520543Y-31436529D01*
X154617303Y-31644032D01*
X154731604Y-31807271D01*
X154748628Y-31831583D01*
X154910526Y-31993481D01*
X155098077Y-32124806D01*
X155133185Y-32141177D01*
X155137283Y-32143088D01*
X155190568Y-32190005D01*
X155210029Y-32258282D01*
X155189487Y-32326242D01*
X155137283Y-32371478D01*
X155098076Y-32389760D01*
X154910529Y-32521082D01*
X154910523Y-32521087D01*
X154748630Y-32682980D01*
X154748625Y-32682986D01*
X154617303Y-32870533D01*
X154520543Y-33078036D01*
X154520541Y-33078042D01*
X154510455Y-33115684D01*
X154461283Y-33299196D01*
X154441328Y-33527283D01*
X154461283Y-33755370D01*
X154489044Y-33858974D01*
X154520541Y-33976523D01*
X154520543Y-33976529D01*
X154617303Y-34184032D01*
X154719930Y-34330599D01*
X154748628Y-34371583D01*
X154910526Y-34533481D01*
X155098077Y-34664806D01*
X155133185Y-34681177D01*
X155137283Y-34683088D01*
X155190568Y-34730005D01*
X155210029Y-34798282D01*
X155189487Y-34866242D01*
X155137283Y-34911478D01*
X155098076Y-34929760D01*
X154910529Y-35061082D01*
X154910523Y-35061087D01*
X154748630Y-35222980D01*
X154748625Y-35222986D01*
X154617303Y-35410533D01*
X154520543Y-35618036D01*
X154520541Y-35618042D01*
X154484465Y-35752681D01*
X154461283Y-35839196D01*
X154441328Y-36067283D01*
X154461283Y-36295370D01*
X154483477Y-36378198D01*
X154520541Y-36516523D01*
X154520543Y-36516529D01*
X154617303Y-36724032D01*
X154719930Y-36870599D01*
X154748628Y-36911583D01*
X154910526Y-37073481D01*
X155098077Y-37204806D01*
X155133185Y-37221177D01*
X155137283Y-37223088D01*
X155190568Y-37270005D01*
X155210029Y-37338282D01*
X155189487Y-37406242D01*
X155137283Y-37451478D01*
X155098076Y-37469760D01*
X154910529Y-37601082D01*
X154910523Y-37601087D01*
X154748630Y-37762980D01*
X154748625Y-37762986D01*
X154617296Y-37950542D01*
X154615769Y-37953188D01*
X154614793Y-37954118D01*
X154614147Y-37955041D01*
X154613961Y-37954911D01*
X154564380Y-38002175D01*
X154494664Y-38015602D01*
X154428757Y-37989206D01*
X154405790Y-37965683D01*
X154329687Y-37864021D01*
X154212633Y-37776395D01*
X154212628Y-37776393D01*
X154075630Y-37725294D01*
X154075622Y-37725292D01*
X154015075Y-37718783D01*
X154015064Y-37718783D01*
X152617788Y-37718783D01*
X152617776Y-37718783D01*
X152557229Y-37725292D01*
X152557221Y-37725294D01*
X152420223Y-37776393D01*
X152420218Y-37776395D01*
X152303164Y-37864021D01*
X152232770Y-37958058D01*
X152175934Y-38000605D01*
X152105119Y-38005669D01*
X152047017Y-37975664D01*
X152017569Y-37948819D01*
X152017568Y-37948818D01*
X151880616Y-37864022D01*
X151835026Y-37835794D01*
X151835024Y-37835793D01*
X151835017Y-37835790D01*
X151634827Y-37758235D01*
X151634828Y-37758235D01*
X151634823Y-37758234D01*
X151423777Y-37718783D01*
X151209075Y-37718783D01*
X151049816Y-37748553D01*
X150998023Y-37758235D01*
X150797834Y-37835790D01*
X150797827Y-37835793D01*
X150615280Y-37948820D01*
X150456617Y-38093461D01*
X150416976Y-38145955D01*
X150359962Y-38188262D01*
X150289126Y-38193030D01*
X150226957Y-38158744D01*
X150215876Y-38145955D01*
X150176234Y-38093461D01*
X150017571Y-37948820D01*
X149880616Y-37864022D01*
X149835026Y-37835794D01*
X149835024Y-37835793D01*
X149835017Y-37835790D01*
X149634827Y-37758235D01*
X149634828Y-37758235D01*
X149634823Y-37758234D01*
X149423777Y-37718783D01*
X149209075Y-37718783D01*
X149049816Y-37748553D01*
X148998023Y-37758235D01*
X148797834Y-37835790D01*
X148797827Y-37835793D01*
X148615280Y-37948820D01*
X148456617Y-38093461D01*
X148327231Y-38264797D01*
X148231529Y-38456991D01*
X148231526Y-38456999D01*
X148172773Y-38663493D01*
X148152963Y-38877283D01*
X148172773Y-39091072D01*
X148231526Y-39297566D01*
X148231529Y-39297574D01*
X148327230Y-39489767D01*
X148448399Y-39650221D01*
X148456617Y-39661104D01*
X148591611Y-39784168D01*
X148628477Y-39844842D01*
X148626688Y-39915816D01*
X148591611Y-39970398D01*
X148456617Y-40093461D01*
X148327231Y-40264797D01*
X148231529Y-40456991D01*
X148231526Y-40456999D01*
X148172773Y-40663493D01*
X148152963Y-40877283D01*
X148172773Y-41091072D01*
X148231526Y-41297566D01*
X148231529Y-41297574D01*
X148327230Y-41489767D01*
X148445719Y-41646672D01*
X148456617Y-41661104D01*
X148615280Y-41805745D01*
X148615282Y-41805746D01*
X148615283Y-41805747D01*
X148797826Y-41918772D01*
X148797834Y-41918775D01*
X148998024Y-41996330D01*
X148998029Y-41996332D01*
X149209075Y-42035783D01*
X149209077Y-42035783D01*
X149423775Y-42035783D01*
X149423777Y-42035783D01*
X149634823Y-41996332D01*
X149835026Y-41918772D01*
X150017569Y-41805747D01*
X150176236Y-41661103D01*
X150215876Y-41608609D01*
X150272889Y-41566303D01*
X150343725Y-41561535D01*
X150405894Y-41595821D01*
X150416970Y-41608603D01*
X150456616Y-41661103D01*
X150456618Y-41661105D01*
X150615280Y-41805745D01*
X150615282Y-41805746D01*
X150615283Y-41805747D01*
X150797826Y-41918772D01*
X150797834Y-41918775D01*
X150998024Y-41996330D01*
X150998029Y-41996332D01*
X151209075Y-42035783D01*
X151209077Y-42035783D01*
X151423775Y-42035783D01*
X151423777Y-42035783D01*
X151634823Y-41996332D01*
X151835026Y-41918772D01*
X152017569Y-41805747D01*
X152176236Y-41661103D01*
X152215876Y-41608609D01*
X152272889Y-41566303D01*
X152343725Y-41561535D01*
X152405894Y-41595821D01*
X152416970Y-41608603D01*
X152456616Y-41661103D01*
X152456618Y-41661105D01*
X152615280Y-41805745D01*
X152615282Y-41805746D01*
X152615283Y-41805747D01*
X152797826Y-41918772D01*
X152797834Y-41918775D01*
X152998024Y-41996330D01*
X152998029Y-41996332D01*
X153209075Y-42035783D01*
X153209077Y-42035783D01*
X153423775Y-42035783D01*
X153423777Y-42035783D01*
X153634823Y-41996332D01*
X153835026Y-41918772D01*
X154017569Y-41805747D01*
X154176236Y-41661103D01*
X154287660Y-41513551D01*
X154344673Y-41471245D01*
X154415509Y-41466477D01*
X154477678Y-41500763D01*
X154509917Y-41556872D01*
X154520542Y-41596526D01*
X154520543Y-41596529D01*
X154617303Y-41804032D01*
X154719930Y-41950599D01*
X154748628Y-41991583D01*
X154910526Y-42153481D01*
X155098077Y-42284806D01*
X155133185Y-42301177D01*
X155137283Y-42303088D01*
X155190568Y-42350005D01*
X155210029Y-42418282D01*
X155189487Y-42486242D01*
X155137283Y-42531478D01*
X155098076Y-42549760D01*
X154910529Y-42681082D01*
X154910523Y-42681087D01*
X154748630Y-42842980D01*
X154748625Y-42842986D01*
X154617303Y-43030533D01*
X154520543Y-43238036D01*
X154520541Y-43238042D01*
X154484465Y-43372681D01*
X154461283Y-43459196D01*
X154441328Y-43687283D01*
X154461283Y-43915370D01*
X154483477Y-43998198D01*
X154520541Y-44136523D01*
X154520543Y-44136529D01*
X154617303Y-44344032D01*
X154748154Y-44530907D01*
X154748628Y-44531583D01*
X154910526Y-44693481D01*
X155098077Y-44824806D01*
X155133185Y-44841177D01*
X155137283Y-44843088D01*
X155190568Y-44890005D01*
X155210029Y-44958282D01*
X155189487Y-45026242D01*
X155137283Y-45071478D01*
X155098076Y-45089760D01*
X154910529Y-45221082D01*
X154910523Y-45221087D01*
X154748630Y-45382980D01*
X154748625Y-45382986D01*
X154617303Y-45570533D01*
X154520543Y-45778036D01*
X154520541Y-45778042D01*
X154461283Y-45999196D01*
X154441328Y-46227283D01*
X154461283Y-46455369D01*
X154520541Y-46676523D01*
X154520543Y-46676529D01*
X154617303Y-46884032D01*
X154719928Y-47030596D01*
X154748628Y-47071583D01*
X154910526Y-47233481D01*
X155098077Y-47364806D01*
X155133185Y-47381177D01*
X155137283Y-47383088D01*
X155190568Y-47430005D01*
X155210029Y-47498282D01*
X155189487Y-47566242D01*
X155137283Y-47611478D01*
X155098076Y-47629760D01*
X154910529Y-47761082D01*
X154910523Y-47761087D01*
X154748630Y-47922980D01*
X154748625Y-47922986D01*
X154617303Y-48110533D01*
X154520543Y-48318036D01*
X154520541Y-48318042D01*
X154465188Y-48524623D01*
X154461283Y-48539196D01*
X154441328Y-48767283D01*
X154461283Y-48995370D01*
X154467409Y-49018232D01*
X154520541Y-49216523D01*
X154520543Y-49216529D01*
X154617303Y-49424032D01*
X154719629Y-49570169D01*
X154748628Y-49611583D01*
X154910526Y-49773481D01*
X155098077Y-49904806D01*
X155133185Y-49921177D01*
X155137283Y-49923088D01*
X155190568Y-49970005D01*
X155210029Y-50038282D01*
X155189487Y-50106242D01*
X155137283Y-50151478D01*
X155098076Y-50169760D01*
X154910529Y-50301082D01*
X154910523Y-50301087D01*
X154748630Y-50462980D01*
X154748625Y-50462986D01*
X154617303Y-50650533D01*
X154520543Y-50858036D01*
X154520541Y-50858042D01*
X154473665Y-51032985D01*
X154461283Y-51079196D01*
X154441328Y-51307283D01*
X154461283Y-51535370D01*
X154467409Y-51558232D01*
X154520541Y-51756523D01*
X154520543Y-51756529D01*
X154606194Y-51940209D01*
X154617303Y-51964032D01*
X154748628Y-52151583D01*
X154910526Y-52313481D01*
X155098077Y-52444806D01*
X155137144Y-52463023D01*
X155137875Y-52463364D01*
X155191160Y-52510281D01*
X155210621Y-52578558D01*
X155190079Y-52646518D01*
X155137876Y-52691753D01*
X155098329Y-52710194D01*
X155098327Y-52710195D01*
X155026935Y-52760183D01*
X155589052Y-53322300D01*
X155542534Y-53334765D01*
X155417118Y-53407173D01*
X155314716Y-53509575D01*
X155242308Y-53634991D01*
X155229843Y-53681509D01*
X154667726Y-53119392D01*
X154617739Y-53190783D01*
X154521014Y-53398209D01*
X154521012Y-53398214D01*
X154461777Y-53619280D01*
X154441830Y-53847283D01*
X154461777Y-54075285D01*
X154521012Y-54296351D01*
X154521014Y-54296356D01*
X154617739Y-54503784D01*
X154667725Y-54575171D01*
X155229842Y-54013054D01*
X155242308Y-54059575D01*
X155314716Y-54184991D01*
X155417118Y-54287393D01*
X155542534Y-54359801D01*
X155589052Y-54372265D01*
X155026936Y-54934381D01*
X155026936Y-54934383D01*
X155098324Y-54984369D01*
X155098328Y-54984371D01*
X155137875Y-55002813D01*
X155191160Y-55049730D01*
X155210620Y-55118007D01*
X155190078Y-55185967D01*
X155137875Y-55231201D01*
X155098078Y-55249758D01*
X154910529Y-55381082D01*
X154910523Y-55381087D01*
X154748630Y-55542980D01*
X154748625Y-55542986D01*
X154617303Y-55730533D01*
X154520543Y-55938036D01*
X154520541Y-55938042D01*
X154467527Y-56135894D01*
X154461283Y-56159196D01*
X154441328Y-56387283D01*
X154461283Y-56615370D01*
X154477555Y-56676097D01*
X154520541Y-56836523D01*
X154520543Y-56836529D01*
X154547010Y-56893288D01*
X154617303Y-57044032D01*
X154748628Y-57231583D01*
X154910526Y-57393481D01*
X155098077Y-57524806D01*
X155133185Y-57541177D01*
X155137283Y-57543088D01*
X155190568Y-57590005D01*
X155210029Y-57658282D01*
X155189487Y-57726242D01*
X155137283Y-57771478D01*
X155098076Y-57789760D01*
X154910529Y-57921082D01*
X154910523Y-57921087D01*
X154748630Y-58082980D01*
X154748625Y-58082986D01*
X154617303Y-58270533D01*
X154520543Y-58478036D01*
X154520541Y-58478042D01*
X154505181Y-58535367D01*
X154461283Y-58699196D01*
X154441328Y-58927283D01*
X154461283Y-59155370D01*
X154467409Y-59178232D01*
X154520541Y-59376523D01*
X154520543Y-59376529D01*
X154563455Y-59468554D01*
X154617303Y-59584032D01*
X154748628Y-59771583D01*
X154910526Y-59933481D01*
X155098077Y-60064806D01*
X155133185Y-60081177D01*
X155137283Y-60083088D01*
X155190568Y-60130005D01*
X155210029Y-60198282D01*
X155189487Y-60266242D01*
X155137283Y-60311478D01*
X155098074Y-60329761D01*
X155041240Y-60369556D01*
X154973966Y-60392243D01*
X154905106Y-60374957D01*
X154879876Y-60355437D01*
X141626670Y-47102232D01*
X141592644Y-47039920D01*
X141597709Y-46969105D01*
X141612551Y-46940868D01*
X141652349Y-46884032D01*
X141749110Y-46676526D01*
X141808369Y-46455370D01*
X141828324Y-46227283D01*
X141808369Y-45999196D01*
X141749110Y-45778040D01*
X141652349Y-45570534D01*
X141521024Y-45382983D01*
X141359126Y-45221085D01*
X141349070Y-45214044D01*
X141238269Y-45136460D01*
X141171575Y-45089760D01*
X141159042Y-45083916D01*
X141132369Y-45071478D01*
X141079084Y-45024562D01*
X141059622Y-44956285D01*
X141080163Y-44888325D01*
X141132369Y-44843088D01*
X141134823Y-44841943D01*
X141171575Y-44824806D01*
X141359126Y-44693481D01*
X141521024Y-44531583D01*
X141652349Y-44344032D01*
X141749110Y-44136526D01*
X141808369Y-43915370D01*
X141828324Y-43687283D01*
X141808369Y-43459196D01*
X141749110Y-43238040D01*
X141652349Y-43030534D01*
X141521024Y-42842983D01*
X141359126Y-42681085D01*
X141171575Y-42549760D01*
X141132369Y-42531478D01*
X141079084Y-42484562D01*
X141059622Y-42416285D01*
X141080163Y-42348325D01*
X141132369Y-42303088D01*
X141134823Y-42301943D01*
X141171575Y-42284806D01*
X141359126Y-42153481D01*
X141521024Y-41991583D01*
X141652349Y-41804032D01*
X141749110Y-41596526D01*
X141808369Y-41375370D01*
X141828324Y-41147283D01*
X141808369Y-40919196D01*
X141749110Y-40698040D01*
X141652349Y-40490534D01*
X141521024Y-40302983D01*
X141359126Y-40141085D01*
X141354987Y-40138187D01*
X141291106Y-40093457D01*
X141171575Y-40009760D01*
X141132369Y-39991478D01*
X141079084Y-39944562D01*
X141059622Y-39876285D01*
X141080163Y-39808325D01*
X141132369Y-39763088D01*
X141134823Y-39761943D01*
X141171575Y-39744806D01*
X141359126Y-39613481D01*
X141521024Y-39451583D01*
X141652349Y-39264032D01*
X141749110Y-39056526D01*
X141808369Y-38835370D01*
X141828324Y-38607283D01*
X141808369Y-38379196D01*
X141749110Y-38158040D01*
X141652349Y-37950534D01*
X141521024Y-37762983D01*
X141359126Y-37601085D01*
X141171575Y-37469760D01*
X141132369Y-37451478D01*
X141079084Y-37404562D01*
X141059622Y-37336285D01*
X141080163Y-37268325D01*
X141132369Y-37223088D01*
X141134823Y-37221943D01*
X141171575Y-37204806D01*
X141359126Y-37073481D01*
X141521024Y-36911583D01*
X141652349Y-36724032D01*
X141749110Y-36516526D01*
X141808369Y-36295370D01*
X141828324Y-36067283D01*
X141808369Y-35839196D01*
X141749110Y-35618040D01*
X141652349Y-35410534D01*
X141521024Y-35222983D01*
X141359126Y-35061085D01*
X141171575Y-34929760D01*
X141132369Y-34911478D01*
X141079084Y-34864562D01*
X141059622Y-34796285D01*
X141074675Y-34746483D01*
X142252128Y-34746483D01*
X142272083Y-34974569D01*
X142331341Y-35195723D01*
X142331343Y-35195729D01*
X142428103Y-35403232D01*
X142499507Y-35505208D01*
X142559428Y-35590783D01*
X142721326Y-35752681D01*
X142908877Y-35884006D01*
X142943985Y-35900377D01*
X142948083Y-35902288D01*
X143001368Y-35949205D01*
X143020829Y-36017482D01*
X143000287Y-36085442D01*
X142948083Y-36130678D01*
X142908876Y-36148960D01*
X142721329Y-36280282D01*
X142721323Y-36280287D01*
X142559430Y-36442180D01*
X142559425Y-36442186D01*
X142428103Y-36629733D01*
X142331343Y-36837236D01*
X142331341Y-36837242D01*
X142293692Y-36977749D01*
X142272083Y-37058396D01*
X142252128Y-37286483D01*
X142272083Y-37514570D01*
X142293296Y-37593736D01*
X142331341Y-37735723D01*
X142331343Y-37735729D01*
X142428103Y-37943232D01*
X142550534Y-38118082D01*
X142559428Y-38130783D01*
X142721326Y-38292681D01*
X142908877Y-38424006D01*
X142941409Y-38439176D01*
X142948083Y-38442288D01*
X143001368Y-38489205D01*
X143020829Y-38557482D01*
X143000287Y-38625442D01*
X142948083Y-38670678D01*
X142908876Y-38688960D01*
X142721329Y-38820282D01*
X142721323Y-38820287D01*
X142559430Y-38982180D01*
X142559425Y-38982186D01*
X142428103Y-39169733D01*
X142331343Y-39377236D01*
X142331341Y-39377242D01*
X142301190Y-39489767D01*
X142272083Y-39598396D01*
X142252128Y-39826483D01*
X142272083Y-40054570D01*
X142286413Y-40108050D01*
X142331341Y-40275723D01*
X142331343Y-40275729D01*
X142398502Y-40419753D01*
X142428103Y-40483232D01*
X142559428Y-40670783D01*
X142721326Y-40832681D01*
X142908877Y-40964006D01*
X142943985Y-40980377D01*
X142948083Y-40982288D01*
X143001368Y-41029205D01*
X143020829Y-41097482D01*
X143000287Y-41165442D01*
X142948083Y-41210678D01*
X142908876Y-41228960D01*
X142721329Y-41360282D01*
X142721323Y-41360287D01*
X142559430Y-41522180D01*
X142559425Y-41522186D01*
X142428103Y-41709733D01*
X142331343Y-41917236D01*
X142331341Y-41917242D01*
X142299578Y-42035783D01*
X142272083Y-42138396D01*
X142252128Y-42366483D01*
X142272083Y-42594570D01*
X142293296Y-42673736D01*
X142331341Y-42815723D01*
X142331343Y-42815729D01*
X142428103Y-43023232D01*
X142545111Y-43190337D01*
X142559428Y-43210783D01*
X142721326Y-43372681D01*
X142908877Y-43504006D01*
X143116383Y-43600767D01*
X143337539Y-43660026D01*
X143565626Y-43679981D01*
X143793713Y-43660026D01*
X144014869Y-43600767D01*
X144222375Y-43504006D01*
X144409926Y-43372681D01*
X144571824Y-43210783D01*
X144703149Y-43023232D01*
X144799910Y-42815726D01*
X144859169Y-42594570D01*
X144879124Y-42366483D01*
X144859169Y-42138396D01*
X144799910Y-41917240D01*
X144703149Y-41709734D01*
X144571824Y-41522183D01*
X144409926Y-41360285D01*
X144222375Y-41228960D01*
X144183169Y-41210678D01*
X144129884Y-41163762D01*
X144110422Y-41095485D01*
X144130963Y-41027525D01*
X144183169Y-40982288D01*
X144185623Y-40981143D01*
X144222375Y-40964006D01*
X144409926Y-40832681D01*
X144571824Y-40670783D01*
X144703149Y-40483232D01*
X144799910Y-40275726D01*
X144859169Y-40054570D01*
X144879124Y-39826483D01*
X144859169Y-39598396D01*
X144799910Y-39377240D01*
X144703149Y-39169734D01*
X144571824Y-38982183D01*
X144409926Y-38820285D01*
X144222375Y-38688960D01*
X144183169Y-38670678D01*
X144129884Y-38623762D01*
X144110422Y-38555485D01*
X144130963Y-38487525D01*
X144183169Y-38442288D01*
X144189830Y-38439182D01*
X144222375Y-38424006D01*
X144409926Y-38292681D01*
X144571824Y-38130783D01*
X144703149Y-37943232D01*
X144799910Y-37735726D01*
X144859169Y-37514570D01*
X144879124Y-37286483D01*
X144859169Y-37058396D01*
X144799910Y-36837240D01*
X144703149Y-36629734D01*
X144571824Y-36442183D01*
X144409926Y-36280285D01*
X144222375Y-36148960D01*
X144183169Y-36130678D01*
X144129884Y-36083762D01*
X144110422Y-36015485D01*
X144130963Y-35947525D01*
X144183169Y-35902288D01*
X144185623Y-35901143D01*
X144222375Y-35884006D01*
X144409926Y-35752681D01*
X144571824Y-35590783D01*
X144703149Y-35403232D01*
X144799910Y-35195726D01*
X144859169Y-34974570D01*
X144879124Y-34746483D01*
X144859169Y-34518396D01*
X144799910Y-34297240D01*
X144703149Y-34089734D01*
X144571824Y-33902183D01*
X144409926Y-33740285D01*
X144409921Y-33740282D01*
X144409918Y-33740279D01*
X144406621Y-33737970D01*
X144362295Y-33682511D01*
X144354989Y-33611892D01*
X144387022Y-33548532D01*
X144448225Y-33512550D01*
X144465427Y-33509482D01*
X144474827Y-33508472D01*
X144611830Y-33457372D01*
X144728887Y-33369744D01*
X144781699Y-33299196D01*
X144816513Y-33252690D01*
X144816513Y-33252689D01*
X144816515Y-33252687D01*
X144867615Y-33115684D01*
X144871663Y-33078036D01*
X144874125Y-33055132D01*
X144874126Y-33055115D01*
X144874126Y-31357850D01*
X144874125Y-31357833D01*
X144867616Y-31297286D01*
X144867614Y-31297278D01*
X144816515Y-31160280D01*
X144816513Y-31160275D01*
X144728887Y-31043221D01*
X144611833Y-30955595D01*
X144611828Y-30955593D01*
X144474830Y-30904494D01*
X144474822Y-30904492D01*
X144414275Y-30897983D01*
X144414264Y-30897983D01*
X142716988Y-30897983D01*
X142716976Y-30897983D01*
X142656429Y-30904492D01*
X142656421Y-30904494D01*
X142519423Y-30955593D01*
X142519418Y-30955595D01*
X142402364Y-31043221D01*
X142314738Y-31160275D01*
X142314736Y-31160280D01*
X142263637Y-31297278D01*
X142263635Y-31297286D01*
X142257126Y-31357833D01*
X142257126Y-33055132D01*
X142263635Y-33115679D01*
X142263637Y-33115687D01*
X142314736Y-33252685D01*
X142314738Y-33252690D01*
X142402364Y-33369744D01*
X142519418Y-33457370D01*
X142519420Y-33457371D01*
X142519422Y-33457372D01*
X142656425Y-33508472D01*
X142665817Y-33509481D01*
X142731410Y-33536646D01*
X142771905Y-33594962D01*
X142774443Y-33665913D01*
X142738219Y-33726973D01*
X142724636Y-33737966D01*
X142721334Y-33740278D01*
X142721323Y-33740287D01*
X142559430Y-33902180D01*
X142559425Y-33902186D01*
X142428103Y-34089733D01*
X142331343Y-34297236D01*
X142331341Y-34297242D01*
X142272083Y-34518396D01*
X142252128Y-34746483D01*
X141074675Y-34746483D01*
X141080163Y-34728325D01*
X141132369Y-34683088D01*
X141134823Y-34681943D01*
X141171575Y-34664806D01*
X141359126Y-34533481D01*
X141521024Y-34371583D01*
X141652349Y-34184032D01*
X141749110Y-33976526D01*
X141808369Y-33755370D01*
X141828324Y-33527283D01*
X141808369Y-33299196D01*
X141749110Y-33078040D01*
X141652349Y-32870534D01*
X141521024Y-32682983D01*
X141359126Y-32521085D01*
X141171575Y-32389760D01*
X141132369Y-32371478D01*
X141079084Y-32324562D01*
X141059622Y-32256285D01*
X141080163Y-32188325D01*
X141132369Y-32143088D01*
X141134823Y-32141943D01*
X141171575Y-32124806D01*
X141359126Y-31993481D01*
X141521024Y-31831583D01*
X141652349Y-31644032D01*
X141749110Y-31436526D01*
X141808369Y-31215370D01*
X141828324Y-30987283D01*
X141808369Y-30759196D01*
X141749110Y-30538040D01*
X141652349Y-30330534D01*
X141521024Y-30142983D01*
X141359126Y-29981085D01*
X141171575Y-29849760D01*
X141132369Y-29831478D01*
X141079084Y-29784562D01*
X141059622Y-29716285D01*
X141080163Y-29648325D01*
X141132369Y-29603088D01*
X141134823Y-29601943D01*
X141171575Y-29584806D01*
X141359126Y-29453481D01*
X141521024Y-29291583D01*
X141652349Y-29104032D01*
X141749110Y-28896526D01*
X141808369Y-28675370D01*
X141828324Y-28447283D01*
X141808369Y-28219196D01*
X141749110Y-27998040D01*
X141652349Y-27790534D01*
X141521024Y-27602983D01*
X141359126Y-27441085D01*
X141359121Y-27441082D01*
X141359118Y-27441079D01*
X141355821Y-27438770D01*
X141311495Y-27383311D01*
X141304189Y-27312692D01*
X141336222Y-27249332D01*
X141397425Y-27213350D01*
X141414627Y-27210282D01*
X141424027Y-27209272D01*
X141561030Y-27158172D01*
X141566951Y-27153740D01*
X141678087Y-27070544D01*
X141765713Y-26953490D01*
X141765713Y-26953489D01*
X141765715Y-26953487D01*
X141816815Y-26816484D01*
X141819882Y-26787963D01*
X141823325Y-26755932D01*
X141823326Y-26755915D01*
X141823326Y-26637283D01*
X145701363Y-26637283D01*
X145721173Y-26851072D01*
X145779926Y-27057566D01*
X145779929Y-27057574D01*
X145875630Y-27249767D01*
X145923149Y-27312692D01*
X146005017Y-27421104D01*
X146163680Y-27565745D01*
X146163682Y-27565746D01*
X146163683Y-27565747D01*
X146346226Y-27678772D01*
X146346234Y-27678775D01*
X146546424Y-27756330D01*
X146546429Y-27756332D01*
X146757475Y-27795783D01*
X146757477Y-27795783D01*
X146972175Y-27795783D01*
X146972177Y-27795783D01*
X147183223Y-27756332D01*
X147383426Y-27678772D01*
X147565969Y-27565747D01*
X147724636Y-27421103D01*
X147854022Y-27249767D01*
X147949723Y-27057574D01*
X148008479Y-26851069D01*
X148009363Y-26841521D01*
X148035566Y-26775539D01*
X148093282Y-26734195D01*
X148164189Y-26730618D01*
X148225773Y-26765944D01*
X148258482Y-26828957D01*
X148260287Y-26841512D01*
X148260879Y-26847899D01*
X148261173Y-26851072D01*
X148319926Y-27057566D01*
X148319929Y-27057574D01*
X148415630Y-27249767D01*
X148463149Y-27312692D01*
X148545017Y-27421104D01*
X148703680Y-27565745D01*
X148703682Y-27565746D01*
X148703683Y-27565747D01*
X148886226Y-27678772D01*
X148886234Y-27678775D01*
X149086424Y-27756330D01*
X149086429Y-27756332D01*
X149297475Y-27795783D01*
X149297477Y-27795783D01*
X149512175Y-27795783D01*
X149512177Y-27795783D01*
X149723223Y-27756332D01*
X149923426Y-27678772D01*
X150105969Y-27565747D01*
X150264636Y-27421103D01*
X150394022Y-27249767D01*
X150489723Y-27057574D01*
X150548479Y-26851069D01*
X150568289Y-26637283D01*
X150548479Y-26423497D01*
X150542487Y-26402439D01*
X150489725Y-26216999D01*
X150489724Y-26216998D01*
X150489723Y-26216992D01*
X150394022Y-26024799D01*
X150264636Y-25853463D01*
X150206134Y-25800131D01*
X150105971Y-25708820D01*
X149923424Y-25595793D01*
X149923417Y-25595790D01*
X149723227Y-25518235D01*
X149723228Y-25518235D01*
X149723223Y-25518234D01*
X149512177Y-25478783D01*
X149297475Y-25478783D01*
X149138216Y-25508553D01*
X149086423Y-25518235D01*
X148886234Y-25595790D01*
X148886227Y-25595793D01*
X148703680Y-25708820D01*
X148545017Y-25853461D01*
X148415631Y-26024797D01*
X148319929Y-26216991D01*
X148319926Y-26216999D01*
X148261172Y-26423498D01*
X148260288Y-26433042D01*
X148234086Y-26499027D01*
X148176369Y-26540370D01*
X148105463Y-26543947D01*
X148043879Y-26508620D01*
X148011170Y-26445607D01*
X148009364Y-26433042D01*
X148008479Y-26423498D01*
X147984461Y-26339085D01*
X147949723Y-26216992D01*
X147854022Y-26024799D01*
X147724636Y-25853463D01*
X147666134Y-25800131D01*
X147565971Y-25708820D01*
X147383424Y-25595793D01*
X147383417Y-25595790D01*
X147183227Y-25518235D01*
X147183228Y-25518235D01*
X147183223Y-25518234D01*
X146972177Y-25478783D01*
X146757475Y-25478783D01*
X146598216Y-25508553D01*
X146546423Y-25518235D01*
X146346234Y-25595790D01*
X146346227Y-25595793D01*
X146163680Y-25708820D01*
X146005017Y-25853461D01*
X145875631Y-26024797D01*
X145779929Y-26216991D01*
X145779926Y-26216999D01*
X145721173Y-26423493D01*
X145701363Y-26637283D01*
X141823326Y-26637283D01*
X141823326Y-25058650D01*
X141823325Y-25058633D01*
X141816816Y-24998086D01*
X141816814Y-24998078D01*
X141780637Y-24901087D01*
X141765715Y-24861079D01*
X141765714Y-24861077D01*
X141765713Y-24861075D01*
X141678087Y-24744021D01*
X141561033Y-24656395D01*
X141561028Y-24656393D01*
X141424030Y-24605294D01*
X141424022Y-24605292D01*
X141363475Y-24598783D01*
X141363464Y-24598783D01*
X139666188Y-24598783D01*
X139666176Y-24598783D01*
X139605629Y-24605292D01*
X139605621Y-24605294D01*
X139468623Y-24656393D01*
X139468618Y-24656395D01*
X139351564Y-24744021D01*
X139263938Y-24861075D01*
X139263936Y-24861080D01*
X139212837Y-24998078D01*
X139212835Y-24998086D01*
X139206326Y-25058633D01*
X139206326Y-26755932D01*
X139212835Y-26816479D01*
X139212837Y-26816487D01*
X139263936Y-26953485D01*
X139263938Y-26953490D01*
X139351564Y-27070544D01*
X139468618Y-27158170D01*
X139468620Y-27158171D01*
X139468622Y-27158172D01*
X139605625Y-27209272D01*
X139615017Y-27210281D01*
X139680610Y-27237446D01*
X139721105Y-27295762D01*
X139723643Y-27366713D01*
X139687419Y-27427773D01*
X139673836Y-27438766D01*
X139670534Y-27441078D01*
X139670523Y-27441087D01*
X139508630Y-27602980D01*
X139508625Y-27602986D01*
X139377303Y-27790533D01*
X139280543Y-27998036D01*
X139280542Y-27998040D01*
X139221283Y-28219196D01*
X139201328Y-28447283D01*
X139221283Y-28675370D01*
X139243477Y-28758198D01*
X139280541Y-28896523D01*
X139280543Y-28896529D01*
X139377303Y-29104032D01*
X139479930Y-29250599D01*
X139508628Y-29291583D01*
X139670526Y-29453481D01*
X139858077Y-29584806D01*
X139893185Y-29601177D01*
X139897283Y-29603088D01*
X139950568Y-29650005D01*
X139970029Y-29718282D01*
X139949487Y-29786242D01*
X139897283Y-29831478D01*
X139858076Y-29849760D01*
X139670529Y-29981082D01*
X139670523Y-29981087D01*
X139508630Y-30142980D01*
X139508625Y-30142986D01*
X139377303Y-30330533D01*
X139280543Y-30538036D01*
X139280541Y-30538042D01*
X139264678Y-30597244D01*
X139221283Y-30759196D01*
X139201328Y-30987283D01*
X139221283Y-31215370D01*
X139243477Y-31298198D01*
X139280541Y-31436523D01*
X139280543Y-31436529D01*
X139377303Y-31644032D01*
X139491604Y-31807271D01*
X139508628Y-31831583D01*
X139670526Y-31993481D01*
X139858077Y-32124806D01*
X139893185Y-32141177D01*
X139897283Y-32143088D01*
X139950568Y-32190005D01*
X139970029Y-32258282D01*
X139949487Y-32326242D01*
X139897283Y-32371478D01*
X139858076Y-32389760D01*
X139670529Y-32521082D01*
X139670523Y-32521087D01*
X139508630Y-32682980D01*
X139508625Y-32682986D01*
X139377303Y-32870533D01*
X139280543Y-33078036D01*
X139280541Y-33078042D01*
X139270455Y-33115684D01*
X139221283Y-33299196D01*
X139201328Y-33527283D01*
X139221283Y-33755370D01*
X139249044Y-33858974D01*
X139280541Y-33976523D01*
X139280543Y-33976529D01*
X139377303Y-34184032D01*
X139479930Y-34330599D01*
X139508628Y-34371583D01*
X139670526Y-34533481D01*
X139858077Y-34664806D01*
X139893185Y-34681177D01*
X139897283Y-34683088D01*
X139950568Y-34730005D01*
X139970029Y-34798282D01*
X139949487Y-34866242D01*
X139897283Y-34911478D01*
X139858076Y-34929760D01*
X139670529Y-35061082D01*
X139670523Y-35061087D01*
X139508630Y-35222980D01*
X139508625Y-35222986D01*
X139377303Y-35410533D01*
X139280543Y-35618036D01*
X139280541Y-35618042D01*
X139244465Y-35752681D01*
X139221283Y-35839196D01*
X139201328Y-36067283D01*
X139221283Y-36295370D01*
X139243477Y-36378198D01*
X139280541Y-36516523D01*
X139280543Y-36516529D01*
X139377303Y-36724032D01*
X139479930Y-36870599D01*
X139508628Y-36911583D01*
X139670526Y-37073481D01*
X139858077Y-37204806D01*
X139893185Y-37221177D01*
X139897283Y-37223088D01*
X139950568Y-37270005D01*
X139970029Y-37338282D01*
X139949487Y-37406242D01*
X139897283Y-37451478D01*
X139858076Y-37469760D01*
X139670529Y-37601082D01*
X139670523Y-37601087D01*
X139508630Y-37762980D01*
X139508625Y-37762986D01*
X139377303Y-37950533D01*
X139280543Y-38158036D01*
X139280541Y-38158042D01*
X139228903Y-38350758D01*
X139221283Y-38379196D01*
X139201328Y-38607283D01*
X139221283Y-38835370D01*
X139243477Y-38918198D01*
X139280541Y-39056523D01*
X139280543Y-39056529D01*
X139377303Y-39264032D01*
X139508621Y-39451574D01*
X139508628Y-39451583D01*
X139670526Y-39613481D01*
X139858077Y-39744806D01*
X139893185Y-39761177D01*
X139897283Y-39763088D01*
X139950568Y-39810005D01*
X139970029Y-39878282D01*
X139949487Y-39946242D01*
X139897283Y-39991478D01*
X139858076Y-40009760D01*
X139670529Y-40141082D01*
X139670523Y-40141087D01*
X139508630Y-40302980D01*
X139508625Y-40302986D01*
X139377303Y-40490533D01*
X139280543Y-40698036D01*
X139280541Y-40698042D01*
X139244465Y-40832681D01*
X139221283Y-40919196D01*
X139201328Y-41147283D01*
X139221283Y-41375370D01*
X139243477Y-41458198D01*
X139280541Y-41596523D01*
X139280543Y-41596529D01*
X139377303Y-41804032D01*
X139479930Y-41950599D01*
X139508628Y-41991583D01*
X139670526Y-42153481D01*
X139858077Y-42284806D01*
X139893185Y-42301177D01*
X139897283Y-42303088D01*
X139950568Y-42350005D01*
X139970029Y-42418282D01*
X139949487Y-42486242D01*
X139897283Y-42531478D01*
X139858076Y-42549760D01*
X139670529Y-42681082D01*
X139670523Y-42681087D01*
X139508630Y-42842980D01*
X139508625Y-42842986D01*
X139377303Y-43030533D01*
X139280543Y-43238036D01*
X139280541Y-43238042D01*
X139244465Y-43372681D01*
X139221283Y-43459196D01*
X139201328Y-43687283D01*
X139221283Y-43915370D01*
X139243477Y-43998198D01*
X139280541Y-44136523D01*
X139280543Y-44136529D01*
X139377303Y-44344032D01*
X139508154Y-44530907D01*
X139508628Y-44531583D01*
X139670526Y-44693481D01*
X139858077Y-44824806D01*
X139893185Y-44841177D01*
X139897283Y-44843088D01*
X139950568Y-44890005D01*
X139970029Y-44958282D01*
X139949487Y-45026242D01*
X139897283Y-45071478D01*
X139858076Y-45089760D01*
X139670529Y-45221082D01*
X139670523Y-45221087D01*
X139508630Y-45382980D01*
X139508625Y-45382986D01*
X139377303Y-45570533D01*
X139280543Y-45778036D01*
X139280541Y-45778042D01*
X139252204Y-45883797D01*
X139221283Y-45999196D01*
X139201328Y-46227283D01*
X139221283Y-46455370D01*
X139249365Y-46560172D01*
X139247675Y-46631149D01*
X139207881Y-46689944D01*
X139142616Y-46717892D01*
X139127658Y-46718783D01*
X138097875Y-46718783D01*
X138029754Y-46698781D01*
X138008780Y-46681878D01*
X131239901Y-39912999D01*
X124468332Y-33141431D01*
X124434307Y-33079120D01*
X124439372Y-33008305D01*
X124481919Y-32951469D01*
X124548439Y-32926658D01*
X124557428Y-32926337D01*
X124651399Y-32926337D01*
X124651403Y-32926337D01*
X124873469Y-32889281D01*
X125086408Y-32816179D01*
X125284410Y-32709026D01*
X125462074Y-32570743D01*
X125614556Y-32405105D01*
X125703650Y-32268735D01*
X125757653Y-32222647D01*
X125828001Y-32213072D01*
X125892358Y-32243049D01*
X125914616Y-32268736D01*
X125955754Y-32331703D01*
X125955755Y-32331703D01*
X126594675Y-31692783D01*
X126612909Y-31760830D01*
X126678735Y-31874844D01*
X126771827Y-31967936D01*
X126885841Y-32033762D01*
X126953885Y-32051994D01*
X126313144Y-32692735D01*
X126333531Y-32708603D01*
X126333535Y-32708605D01*
X126531462Y-32815719D01*
X126531464Y-32815720D01*
X126744317Y-32888792D01*
X126744324Y-32888794D01*
X126966311Y-32925837D01*
X127191357Y-32925837D01*
X127413343Y-32888794D01*
X127413350Y-32888792D01*
X127626203Y-32815720D01*
X127626205Y-32815718D01*
X127824132Y-32708606D01*
X127844522Y-32692735D01*
X127203781Y-32051994D01*
X127271827Y-32033762D01*
X127385841Y-31967936D01*
X127478933Y-31874844D01*
X127544759Y-31760830D01*
X127562992Y-31692784D01*
X128201911Y-32331703D01*
X128277253Y-32216385D01*
X128367654Y-32010293D01*
X128367657Y-32010286D01*
X128422901Y-31792129D01*
X128441487Y-31567837D01*
X128422901Y-31343544D01*
X128367657Y-31125387D01*
X128367654Y-31125380D01*
X128277253Y-30919288D01*
X128201911Y-30803969D01*
X127562991Y-31442888D01*
X127544759Y-31374844D01*
X127478933Y-31260830D01*
X127385841Y-31167738D01*
X127271827Y-31101912D01*
X127203781Y-31083678D01*
X127844522Y-30442937D01*
X127844521Y-30442936D01*
X127824142Y-30427074D01*
X127824132Y-30427068D01*
X127626205Y-30319954D01*
X127626203Y-30319953D01*
X127413350Y-30246881D01*
X127413343Y-30246879D01*
X127191357Y-30209837D01*
X126966311Y-30209837D01*
X126744324Y-30246879D01*
X126744317Y-30246881D01*
X126531464Y-30319953D01*
X126531462Y-30319955D01*
X126333534Y-30427067D01*
X126333527Y-30427072D01*
X126313145Y-30442936D01*
X126313144Y-30442937D01*
X126953886Y-31083679D01*
X126885841Y-31101912D01*
X126771827Y-31167738D01*
X126678735Y-31260830D01*
X126612909Y-31374844D01*
X126594676Y-31442889D01*
X125955755Y-30803968D01*
X125955753Y-30803969D01*
X125914615Y-30866937D01*
X125860611Y-30913026D01*
X125790264Y-30922601D01*
X125725906Y-30892624D01*
X125703651Y-30866939D01*
X125633259Y-30759196D01*
X125614558Y-30730571D01*
X125614554Y-30730566D01*
X125498404Y-30604396D01*
X125462074Y-30564931D01*
X125462073Y-30564930D01*
X125462071Y-30564928D01*
X125380216Y-30501218D01*
X125284410Y-30426648D01*
X125086408Y-30319495D01*
X125086406Y-30319494D01*
X125086405Y-30319493D01*
X124873473Y-30246394D01*
X124873464Y-30246392D01*
X124829310Y-30239024D01*
X124651403Y-30209337D01*
X124426265Y-30209337D01*
X124278045Y-30234070D01*
X124204203Y-30246392D01*
X124204194Y-30246394D01*
X123991262Y-30319493D01*
X123991260Y-30319495D01*
X123793260Y-30426647D01*
X123793258Y-30426648D01*
X123615596Y-30564928D01*
X123463113Y-30730566D01*
X123374317Y-30866480D01*
X123320313Y-30912568D01*
X123249965Y-30922143D01*
X123185608Y-30892166D01*
X123163351Y-30866480D01*
X123074554Y-30730566D01*
X122958404Y-30604396D01*
X122922074Y-30564931D01*
X122922073Y-30564930D01*
X122922071Y-30564928D01*
X122840216Y-30501218D01*
X122744410Y-30426648D01*
X122546408Y-30319495D01*
X122546406Y-30319494D01*
X122546405Y-30319493D01*
X122333473Y-30246394D01*
X122333464Y-30246392D01*
X122289310Y-30239024D01*
X122111403Y-30209337D01*
X121886265Y-30209337D01*
X121738045Y-30234070D01*
X121664203Y-30246392D01*
X121664194Y-30246394D01*
X121451262Y-30319493D01*
X121451260Y-30319495D01*
X121253260Y-30426647D01*
X121253258Y-30426648D01*
X121075596Y-30564928D01*
X120923113Y-30730566D01*
X120834317Y-30866480D01*
X120780313Y-30912568D01*
X120709965Y-30922143D01*
X120645608Y-30892166D01*
X120623351Y-30866480D01*
X120534554Y-30730566D01*
X120418404Y-30604396D01*
X120382074Y-30564931D01*
X120382073Y-30564930D01*
X120382071Y-30564928D01*
X120300216Y-30501218D01*
X120204410Y-30426648D01*
X120041562Y-30338519D01*
X119991172Y-30288507D01*
X119975820Y-30219190D01*
X119985126Y-30179482D01*
X119989153Y-30169760D01*
X119989153Y-30169759D01*
X119989155Y-30169755D01*
X120013500Y-30047364D01*
X120013500Y-29922576D01*
X120013500Y-23619500D01*
X120033502Y-23551379D01*
X120087158Y-23504886D01*
X120139500Y-23493500D01*
X154733761Y-23493500D01*
X154801882Y-23513502D01*
G37*
G04 #@! TD.AperFunction*
G04 #@! TA.AperFunction,Conductor*
G36*
X166049920Y-73414394D02*
G01*
X165997259Y-73505606D01*
X165970000Y-73607339D01*
X165970000Y-73712661D01*
X165997259Y-73814394D01*
X166049920Y-73905606D01*
X166058314Y-73914000D01*
X164141686Y-73914000D01*
X164150080Y-73905606D01*
X164202741Y-73814394D01*
X164230000Y-73712661D01*
X164230000Y-73607339D01*
X164202741Y-73505606D01*
X164150080Y-73414394D01*
X164141686Y-73406000D01*
X166058314Y-73406000D01*
X166049920Y-73414394D01*
G37*
G04 #@! TD.AperFunction*
G04 #@! TA.AperFunction,Conductor*
G36*
X187876621Y-20702217D02*
G01*
X187923114Y-20755873D01*
X187934500Y-20808215D01*
X187934500Y-92558500D01*
X187914498Y-92626621D01*
X187860842Y-92673114D01*
X187808500Y-92684500D01*
X42061500Y-92684500D01*
X41993379Y-92664498D01*
X41946886Y-92610842D01*
X41935500Y-92558500D01*
X41935500Y-87155669D01*
X60523298Y-87155669D01*
X60523298Y-87155678D01*
X60542672Y-87438934D01*
X60542673Y-87438940D01*
X60542674Y-87438948D01*
X60574356Y-87591410D01*
X60600441Y-87716939D01*
X60600443Y-87716947D01*
X60695529Y-87984494D01*
X60826153Y-88236583D01*
X60826162Y-88236598D01*
X60965018Y-88433312D01*
X60989897Y-88468558D01*
X61183699Y-88676069D01*
X61403951Y-88855257D01*
X61646552Y-89002786D01*
X61906981Y-89115907D01*
X62180388Y-89192512D01*
X62267165Y-89204439D01*
X62461666Y-89231173D01*
X62461680Y-89231174D01*
X62745616Y-89231174D01*
X62745629Y-89231173D01*
X62911204Y-89208414D01*
X63026908Y-89192512D01*
X63300315Y-89115907D01*
X63560744Y-89002786D01*
X63803345Y-88855257D01*
X64023597Y-88676069D01*
X64217399Y-88468558D01*
X64381139Y-88236590D01*
X64511769Y-87984488D01*
X64606853Y-87716946D01*
X64664622Y-87438948D01*
X64683998Y-87155674D01*
X64683998Y-87155669D01*
X112523298Y-87155669D01*
X112523298Y-87155678D01*
X112542672Y-87438934D01*
X112542673Y-87438940D01*
X112542674Y-87438948D01*
X112574356Y-87591410D01*
X112600441Y-87716939D01*
X112600443Y-87716947D01*
X112695529Y-87984494D01*
X112826153Y-88236583D01*
X112826162Y-88236598D01*
X112965018Y-88433312D01*
X112989897Y-88468558D01*
X113183699Y-88676069D01*
X113403951Y-88855257D01*
X113646552Y-89002786D01*
X113906981Y-89115907D01*
X114180388Y-89192512D01*
X114267165Y-89204439D01*
X114461666Y-89231173D01*
X114461680Y-89231174D01*
X114745616Y-89231174D01*
X114745629Y-89231173D01*
X114911204Y-89208414D01*
X115026908Y-89192512D01*
X115300315Y-89115907D01*
X115560744Y-89002786D01*
X115803345Y-88855257D01*
X116023597Y-88676069D01*
X116217399Y-88468558D01*
X116381139Y-88236590D01*
X116511769Y-87984488D01*
X116606853Y-87716946D01*
X116664622Y-87438948D01*
X116683998Y-87155674D01*
X116664622Y-86872400D01*
X116606853Y-86594402D01*
X116511769Y-86326860D01*
X116511767Y-86326856D01*
X116511766Y-86326853D01*
X116381142Y-86074764D01*
X116381139Y-86074758D01*
X116363971Y-86050437D01*
X116217401Y-85842793D01*
X116217399Y-85842790D01*
X116023597Y-85635279D01*
X115803345Y-85456091D01*
X115560744Y-85308562D01*
X115560745Y-85308562D01*
X115560741Y-85308560D01*
X115300315Y-85195441D01*
X115215172Y-85171585D01*
X115026908Y-85118836D01*
X115026907Y-85118835D01*
X115026904Y-85118835D01*
X114745629Y-85080174D01*
X114745616Y-85080174D01*
X114461680Y-85080174D01*
X114461666Y-85080174D01*
X114180391Y-85118835D01*
X113906980Y-85195441D01*
X113646554Y-85308560D01*
X113403948Y-85456093D01*
X113183704Y-85635275D01*
X113183696Y-85635282D01*
X112989894Y-85842793D01*
X112826162Y-86074749D01*
X112826153Y-86074764D01*
X112695529Y-86326853D01*
X112600443Y-86594400D01*
X112600441Y-86594408D01*
X112542673Y-86872407D01*
X112542672Y-86872413D01*
X112523298Y-87155669D01*
X64683998Y-87155669D01*
X64664622Y-86872400D01*
X64606853Y-86594402D01*
X64511769Y-86326860D01*
X64511767Y-86326856D01*
X64511766Y-86326853D01*
X64381142Y-86074764D01*
X64381139Y-86074758D01*
X64363971Y-86050437D01*
X64217401Y-85842793D01*
X64217399Y-85842790D01*
X64023597Y-85635279D01*
X63803345Y-85456091D01*
X63560744Y-85308562D01*
X63560745Y-85308562D01*
X63560741Y-85308560D01*
X63300315Y-85195441D01*
X63215172Y-85171585D01*
X63026908Y-85118836D01*
X63026907Y-85118835D01*
X63026904Y-85118835D01*
X62745629Y-85080174D01*
X62745616Y-85080174D01*
X62461680Y-85080174D01*
X62461666Y-85080174D01*
X62180391Y-85118835D01*
X61906980Y-85195441D01*
X61646554Y-85308560D01*
X61403948Y-85456093D01*
X61183704Y-85635275D01*
X61183696Y-85635282D01*
X60989894Y-85842793D01*
X60826162Y-86074749D01*
X60826153Y-86074764D01*
X60695529Y-86326853D01*
X60600443Y-86594400D01*
X60600441Y-86594408D01*
X60542673Y-86872407D01*
X60542672Y-86872413D01*
X60523298Y-87155669D01*
X41935500Y-87155669D01*
X41935500Y-84480000D01*
X122929783Y-84480000D01*
X122948623Y-84719378D01*
X123004676Y-84952861D01*
X123004677Y-84952863D01*
X123096567Y-85174704D01*
X123096568Y-85174705D01*
X123222025Y-85379435D01*
X123222030Y-85379442D01*
X123377972Y-85562027D01*
X123556381Y-85714402D01*
X123560561Y-85717972D01*
X123765296Y-85843433D01*
X123987137Y-85935323D01*
X124220621Y-85991377D01*
X124460000Y-86010217D01*
X124699379Y-85991377D01*
X124932863Y-85935323D01*
X125154704Y-85843433D01*
X125359439Y-85717972D01*
X125542027Y-85562027D01*
X125697972Y-85379439D01*
X125823433Y-85174704D01*
X125915323Y-84952863D01*
X125971377Y-84719379D01*
X125990217Y-84480000D01*
X125971377Y-84240621D01*
X125915323Y-84007137D01*
X125823433Y-83785296D01*
X125697972Y-83580561D01*
X125697969Y-83580557D01*
X125542027Y-83397972D01*
X125359442Y-83242030D01*
X125359435Y-83242025D01*
X125184464Y-83134804D01*
X125154704Y-83116567D01*
X124932863Y-83024677D01*
X124932861Y-83024676D01*
X124773140Y-82986331D01*
X124699379Y-82968623D01*
X124460000Y-82949783D01*
X124220621Y-82968623D01*
X123987138Y-83024676D01*
X123765294Y-83116568D01*
X123560564Y-83242025D01*
X123560557Y-83242030D01*
X123377972Y-83397972D01*
X123222030Y-83580557D01*
X123222025Y-83580564D01*
X123096568Y-83785294D01*
X123004676Y-84007138D01*
X122948623Y-84240621D01*
X122929783Y-84480000D01*
X41935500Y-84480000D01*
X41935500Y-75155674D01*
X61040329Y-75155674D01*
X61059576Y-75400231D01*
X61116843Y-75638766D01*
X61210721Y-75865406D01*
X61210722Y-75865407D01*
X61338893Y-76074566D01*
X61338894Y-76074568D01*
X61338896Y-76074570D01*
X61498215Y-76261107D01*
X61684752Y-76420426D01*
X61893916Y-76548601D01*
X62120556Y-76642479D01*
X62359091Y-76699746D01*
X62603648Y-76718993D01*
X62848205Y-76699746D01*
X63086740Y-76642479D01*
X63313380Y-76548601D01*
X63522544Y-76420426D01*
X63709081Y-76261107D01*
X63868400Y-76074570D01*
X63996575Y-75865406D01*
X64090453Y-75638766D01*
X64147720Y-75400231D01*
X64166967Y-75155674D01*
X113040329Y-75155674D01*
X113059576Y-75400231D01*
X113116843Y-75638766D01*
X113210721Y-75865406D01*
X113210722Y-75865407D01*
X113338893Y-76074566D01*
X113338894Y-76074568D01*
X113338896Y-76074570D01*
X113498215Y-76261107D01*
X113684752Y-76420426D01*
X113893916Y-76548601D01*
X114120556Y-76642479D01*
X114359091Y-76699746D01*
X114603648Y-76718993D01*
X114848205Y-76699746D01*
X115086740Y-76642479D01*
X115313380Y-76548601D01*
X115522544Y-76420426D01*
X115709081Y-76261107D01*
X115868400Y-76074570D01*
X115996575Y-75865406D01*
X116090453Y-75638766D01*
X116147720Y-75400231D01*
X116166967Y-75155674D01*
X116147720Y-74911117D01*
X116090453Y-74672582D01*
X115996575Y-74445942D01*
X115868400Y-74236778D01*
X115709081Y-74050241D01*
X115522544Y-73890922D01*
X115522542Y-73890920D01*
X115522540Y-73890919D01*
X115328321Y-73771903D01*
X115313380Y-73762747D01*
X115086740Y-73668869D01*
X114848205Y-73611602D01*
X114603648Y-73592355D01*
X114359091Y-73611602D01*
X114120555Y-73668869D01*
X113893914Y-73762748D01*
X113684755Y-73890919D01*
X113498215Y-74050241D01*
X113338893Y-74236781D01*
X113241712Y-74395369D01*
X113210721Y-74445942D01*
X113207729Y-74453165D01*
X113116843Y-74672581D01*
X113068217Y-74875125D01*
X113059576Y-74911117D01*
X113040329Y-75155674D01*
X64166967Y-75155674D01*
X64147720Y-74911117D01*
X64090453Y-74672582D01*
X63996575Y-74445942D01*
X63868400Y-74236778D01*
X63709081Y-74050241D01*
X63522544Y-73890922D01*
X63522542Y-73890920D01*
X63522540Y-73890919D01*
X63328321Y-73771903D01*
X63313380Y-73762747D01*
X63086740Y-73668869D01*
X62848205Y-73611602D01*
X62603648Y-73592355D01*
X62359091Y-73611602D01*
X62120555Y-73668869D01*
X61893914Y-73762748D01*
X61684755Y-73890919D01*
X61498215Y-74050241D01*
X61338893Y-74236781D01*
X61241712Y-74395369D01*
X61210721Y-74445942D01*
X61207729Y-74453165D01*
X61116843Y-74672581D01*
X61068217Y-74875125D01*
X61059576Y-74911117D01*
X61040329Y-75155674D01*
X41935500Y-75155674D01*
X41935500Y-71185000D01*
X45546844Y-71185000D01*
X45564593Y-71399196D01*
X45565437Y-71409375D01*
X45620702Y-71627612D01*
X45620703Y-71627613D01*
X45620704Y-71627616D01*
X45711140Y-71833791D01*
X45711141Y-71833793D01*
X45834275Y-72022265D01*
X45834278Y-72022268D01*
X45884229Y-72076529D01*
X45977475Y-72177820D01*
X46008896Y-72241485D01*
X46000909Y-72312031D01*
X45956051Y-72367060D01*
X45928807Y-72381213D01*
X45813797Y-72424110D01*
X45813792Y-72424112D01*
X45696738Y-72511738D01*
X45609112Y-72628792D01*
X45609110Y-72628797D01*
X45558011Y-72765795D01*
X45558009Y-72765803D01*
X45551500Y-72826350D01*
X45551500Y-74623649D01*
X45558009Y-74684196D01*
X45558011Y-74684204D01*
X45609110Y-74821202D01*
X45609112Y-74821207D01*
X45696738Y-74938261D01*
X45813792Y-75025887D01*
X45813794Y-75025888D01*
X45813796Y-75025889D01*
X45845095Y-75037563D01*
X45950795Y-75076988D01*
X45950803Y-75076990D01*
X46011350Y-75083499D01*
X46011355Y-75083499D01*
X46011362Y-75083500D01*
X46011368Y-75083500D01*
X47808632Y-75083500D01*
X47808638Y-75083500D01*
X47808645Y-75083499D01*
X47808649Y-75083499D01*
X47869196Y-75076990D01*
X47869199Y-75076989D01*
X47869201Y-75076989D01*
X48006204Y-75025889D01*
X48123261Y-74938261D01*
X48156183Y-74894282D01*
X48210887Y-74821207D01*
X48210887Y-74821206D01*
X48210889Y-74821204D01*
X48261989Y-74684201D01*
X48263239Y-74672582D01*
X48268499Y-74623649D01*
X48268500Y-74623632D01*
X48268500Y-72826367D01*
X48268499Y-72826350D01*
X48261990Y-72765803D01*
X48261988Y-72765795D01*
X48220358Y-72654184D01*
X48210889Y-72628796D01*
X48210888Y-72628794D01*
X48210887Y-72628792D01*
X48123261Y-72511738D01*
X48006207Y-72424112D01*
X48006203Y-72424110D01*
X47891192Y-72381213D01*
X47834356Y-72338667D01*
X47809546Y-72272146D01*
X47824638Y-72202772D01*
X47842520Y-72177824D01*
X47905730Y-72109161D01*
X47966583Y-72072591D01*
X47998430Y-72068500D01*
X53832962Y-72068500D01*
X53832963Y-72068500D01*
X54003654Y-72034548D01*
X54164441Y-71967948D01*
X54309145Y-71871259D01*
X55104324Y-71076078D01*
X55166637Y-71042054D01*
X55193420Y-71039174D01*
X61250579Y-71039174D01*
X61318700Y-71059176D01*
X61346385Y-71083339D01*
X61498215Y-71261107D01*
X61684752Y-71420426D01*
X61893916Y-71548601D01*
X62120556Y-71642479D01*
X62359091Y-71699746D01*
X62603648Y-71718993D01*
X62848205Y-71699746D01*
X63086740Y-71642479D01*
X63313380Y-71548601D01*
X63522544Y-71420426D01*
X63709081Y-71261107D01*
X63868400Y-71074570D01*
X63996575Y-70865406D01*
X64090453Y-70638766D01*
X64147720Y-70400231D01*
X64166967Y-70155674D01*
X64147720Y-69911117D01*
X64090453Y-69672582D01*
X63996575Y-69445942D01*
X63868400Y-69236778D01*
X63709081Y-69050241D01*
X63522544Y-68890922D01*
X63522542Y-68890920D01*
X63522540Y-68890919D01*
X63332399Y-68774402D01*
X63313380Y-68762747D01*
X63086740Y-68668869D01*
X62848205Y-68611602D01*
X62603648Y-68592355D01*
X62359091Y-68611602D01*
X62120555Y-68668869D01*
X61960293Y-68735252D01*
X61899904Y-68760267D01*
X61893914Y-68762748D01*
X61684755Y-68890919D01*
X61617054Y-68948742D01*
X61498215Y-69050241D01*
X61346387Y-69228006D01*
X61286939Y-69266814D01*
X61250579Y-69272174D01*
X54688251Y-69272174D01*
X54517563Y-69306126D01*
X54517558Y-69306128D01*
X54356777Y-69372725D01*
X54212072Y-69469416D01*
X53416892Y-70264596D01*
X53354580Y-70298621D01*
X53327797Y-70301500D01*
X47998430Y-70301500D01*
X47930309Y-70281498D01*
X47905731Y-70260840D01*
X47833240Y-70182094D01*
X47833239Y-70182093D01*
X47833237Y-70182091D01*
X47719387Y-70093478D01*
X47655576Y-70043811D01*
X47457574Y-69936658D01*
X47457572Y-69936657D01*
X47457571Y-69936656D01*
X47244639Y-69863557D01*
X47244630Y-69863555D01*
X47200476Y-69856187D01*
X47022569Y-69826500D01*
X46797431Y-69826500D01*
X46649211Y-69851233D01*
X46575369Y-69863555D01*
X46575360Y-69863557D01*
X46362428Y-69936656D01*
X46362426Y-69936658D01*
X46164426Y-70043810D01*
X46164424Y-70043811D01*
X45986762Y-70182091D01*
X45834279Y-70347729D01*
X45834275Y-70347734D01*
X45711141Y-70536206D01*
X45620703Y-70742386D01*
X45620702Y-70742387D01*
X45565437Y-70960624D01*
X45565436Y-70960630D01*
X45565436Y-70960632D01*
X45546844Y-71185000D01*
X41935500Y-71185000D01*
X41935500Y-58155669D01*
X60523298Y-58155669D01*
X60523298Y-58155678D01*
X60542672Y-58438934D01*
X60542673Y-58438940D01*
X60542674Y-58438948D01*
X60560131Y-58522953D01*
X60600441Y-58716939D01*
X60600443Y-58716947D01*
X60695529Y-58984494D01*
X60826153Y-59236583D01*
X60826162Y-59236598D01*
X60847896Y-59267388D01*
X60989897Y-59468558D01*
X61183699Y-59676069D01*
X61403951Y-59855257D01*
X61646552Y-60002786D01*
X61906981Y-60115907D01*
X62180388Y-60192512D01*
X62267165Y-60204439D01*
X62461666Y-60231173D01*
X62461680Y-60231174D01*
X62745616Y-60231174D01*
X62745629Y-60231173D01*
X62911204Y-60208414D01*
X63026908Y-60192512D01*
X63300315Y-60115907D01*
X63560744Y-60002786D01*
X63803345Y-59855257D01*
X64023597Y-59676069D01*
X64217399Y-59468558D01*
X64381139Y-59236590D01*
X64511769Y-58984488D01*
X64606853Y-58716946D01*
X64664622Y-58438948D01*
X64665142Y-58431343D01*
X64683998Y-58155678D01*
X64683998Y-58155669D01*
X64664623Y-57872413D01*
X64664622Y-57872407D01*
X64664622Y-57872400D01*
X64606853Y-57594402D01*
X64511769Y-57326860D01*
X64511767Y-57326856D01*
X64511766Y-57326853D01*
X64381142Y-57074764D01*
X64381139Y-57074758D01*
X64359450Y-57044032D01*
X64217401Y-56842793D01*
X64217399Y-56842790D01*
X64023597Y-56635279D01*
X63803345Y-56456091D01*
X63560744Y-56308562D01*
X63560745Y-56308562D01*
X63560741Y-56308560D01*
X63300315Y-56195441D01*
X63026904Y-56118835D01*
X62745629Y-56080174D01*
X62745616Y-56080174D01*
X62461680Y-56080174D01*
X62461666Y-56080174D01*
X62180391Y-56118835D01*
X61906980Y-56195441D01*
X61646554Y-56308560D01*
X61448365Y-56429081D01*
X61425418Y-56443037D01*
X61403948Y-56456093D01*
X61342899Y-56505760D01*
X61208171Y-56615370D01*
X61183704Y-56635275D01*
X61183696Y-56635282D01*
X60989894Y-56842793D01*
X60826162Y-57074749D01*
X60826153Y-57074764D01*
X60695529Y-57326853D01*
X60600443Y-57594400D01*
X60600441Y-57594408D01*
X60542673Y-57872407D01*
X60542672Y-57872413D01*
X60523298Y-58155669D01*
X41935500Y-58155669D01*
X41935500Y-49297147D01*
X58654062Y-49297147D01*
X58673948Y-49562516D01*
X58673949Y-49562520D01*
X58733164Y-49821953D01*
X58733165Y-49821955D01*
X58830385Y-50069670D01*
X58963437Y-50300123D01*
X58963443Y-50300131D01*
X59129356Y-50508178D01*
X59129360Y-50508183D01*
X59324424Y-50689176D01*
X59324427Y-50689178D01*
X59324431Y-50689182D01*
X59324437Y-50689186D01*
X59544292Y-50839081D01*
X59544299Y-50839085D01*
X59544302Y-50839087D01*
X59784059Y-50954548D01*
X59969564Y-51011769D01*
X60038340Y-51032984D01*
X60038347Y-51032986D01*
X60301486Y-51072647D01*
X60301490Y-51072647D01*
X60567592Y-51072647D01*
X60567596Y-51072647D01*
X60830735Y-51032986D01*
X61085023Y-50954548D01*
X61234325Y-50882648D01*
X61324775Y-50839090D01*
X61324775Y-50839089D01*
X61324781Y-50839087D01*
X61544651Y-50689182D01*
X61739724Y-50508180D01*
X61905642Y-50300127D01*
X62038697Y-50069668D01*
X62135918Y-49821952D01*
X62195134Y-49562514D01*
X62215020Y-49297147D01*
X62195134Y-49031780D01*
X62135918Y-48772342D01*
X62038697Y-48524626D01*
X62038696Y-48524623D01*
X61905644Y-48294170D01*
X61905638Y-48294162D01*
X61739725Y-48086115D01*
X61739721Y-48086110D01*
X61544657Y-47905117D01*
X61544644Y-47905107D01*
X61324783Y-47755208D01*
X61324775Y-47755203D01*
X61085031Y-47639749D01*
X61085026Y-47639747D01*
X61085023Y-47639746D01*
X60987161Y-47609559D01*
X60830741Y-47561309D01*
X60830736Y-47561308D01*
X60830735Y-47561308D01*
X60567596Y-47521647D01*
X60301486Y-47521647D01*
X60038347Y-47561308D01*
X60038346Y-47561308D01*
X60038340Y-47561309D01*
X59784053Y-47639748D01*
X59544299Y-47755208D01*
X59544292Y-47755212D01*
X59324437Y-47905107D01*
X59324424Y-47905117D01*
X59129360Y-48086110D01*
X59129356Y-48086115D01*
X58963443Y-48294162D01*
X58963437Y-48294170D01*
X58830385Y-48524623D01*
X58733165Y-48772338D01*
X58733164Y-48772340D01*
X58673949Y-49031773D01*
X58673948Y-49031777D01*
X58654062Y-49297147D01*
X41935500Y-49297147D01*
X41935500Y-28109407D01*
X43689505Y-28109407D01*
X43708098Y-28333782D01*
X43763363Y-28552019D01*
X43763364Y-28552020D01*
X43853802Y-28758200D01*
X43976936Y-28946672D01*
X43976940Y-28946677D01*
X44129423Y-29112315D01*
X44175122Y-29147884D01*
X44307085Y-29250596D01*
X44340341Y-29268593D01*
X44390732Y-29318607D01*
X44406084Y-29387923D01*
X44381523Y-29454536D01*
X44340341Y-29490220D01*
X44307087Y-29508217D01*
X44307085Y-29508218D01*
X44129423Y-29646498D01*
X43976940Y-29812136D01*
X43976936Y-29812141D01*
X43853802Y-30000613D01*
X43763364Y-30206793D01*
X43763363Y-30206794D01*
X43708098Y-30425031D01*
X43708097Y-30425037D01*
X43708097Y-30425039D01*
X43689505Y-30649407D01*
X43707530Y-30866937D01*
X43708098Y-30873782D01*
X43763363Y-31092019D01*
X43763364Y-31092020D01*
X43763365Y-31092023D01*
X43853399Y-31297282D01*
X43853802Y-31298200D01*
X43976936Y-31486672D01*
X43976940Y-31486677D01*
X44129423Y-31652315D01*
X44183992Y-31694788D01*
X44307085Y-31790596D01*
X44340341Y-31808593D01*
X44390732Y-31858607D01*
X44406084Y-31927923D01*
X44381523Y-31994536D01*
X44340341Y-32030220D01*
X44307087Y-32048217D01*
X44307085Y-32048218D01*
X44129423Y-32186498D01*
X43976940Y-32352136D01*
X43976936Y-32352141D01*
X43853802Y-32540613D01*
X43763364Y-32746793D01*
X43763363Y-32746794D01*
X43708098Y-32965031D01*
X43708097Y-32965037D01*
X43708097Y-32965039D01*
X43689505Y-33189407D01*
X43704448Y-33369744D01*
X43708098Y-33413782D01*
X43763363Y-33632019D01*
X43763364Y-33632020D01*
X43763365Y-33632023D01*
X43852442Y-33835099D01*
X43853802Y-33838200D01*
X43976936Y-34026672D01*
X43976940Y-34026677D01*
X44034989Y-34089734D01*
X44125057Y-34187573D01*
X44129423Y-34192315D01*
X44146453Y-34205570D01*
X44307085Y-34330596D01*
X44340341Y-34348593D01*
X44390732Y-34398607D01*
X44406084Y-34467923D01*
X44381523Y-34534536D01*
X44340341Y-34570220D01*
X44307087Y-34588217D01*
X44307085Y-34588218D01*
X44129423Y-34726498D01*
X43976940Y-34892136D01*
X43976936Y-34892141D01*
X43853802Y-35080613D01*
X43763364Y-35286793D01*
X43763363Y-35286794D01*
X43708098Y-35505031D01*
X43708097Y-35505037D01*
X43708097Y-35505039D01*
X43689505Y-35729407D01*
X43707718Y-35949205D01*
X43708098Y-35953782D01*
X43763363Y-36172019D01*
X43763364Y-36172020D01*
X43763365Y-36172023D01*
X43810853Y-36280285D01*
X43853802Y-36378200D01*
X43976936Y-36566672D01*
X43976940Y-36566677D01*
X44034989Y-36629734D01*
X44125057Y-36727573D01*
X44129423Y-36732315D01*
X44146453Y-36745570D01*
X44307085Y-36870596D01*
X44340341Y-36888593D01*
X44390732Y-36938607D01*
X44406084Y-37007923D01*
X44381523Y-37074536D01*
X44340341Y-37110220D01*
X44307087Y-37128217D01*
X44307085Y-37128218D01*
X44129423Y-37266498D01*
X43976940Y-37432136D01*
X43976936Y-37432141D01*
X43853802Y-37620613D01*
X43763364Y-37826793D01*
X43763363Y-37826794D01*
X43708098Y-38045031D01*
X43708097Y-38045037D01*
X43708097Y-38045039D01*
X43689505Y-38269407D01*
X43707718Y-38489205D01*
X43708098Y-38493782D01*
X43763363Y-38712019D01*
X43763364Y-38712020D01*
X43763365Y-38712023D01*
X43810853Y-38820285D01*
X43853802Y-38918200D01*
X43976936Y-39106672D01*
X43976940Y-39106677D01*
X44129423Y-39272315D01*
X44161876Y-39297574D01*
X44307085Y-39410596D01*
X44340341Y-39428593D01*
X44390732Y-39478607D01*
X44406084Y-39547923D01*
X44381523Y-39614536D01*
X44340341Y-39650220D01*
X44307087Y-39668217D01*
X44307085Y-39668218D01*
X44129423Y-39806498D01*
X43976940Y-39972136D01*
X43976936Y-39972141D01*
X43853802Y-40160613D01*
X43763364Y-40366793D01*
X43763363Y-40366794D01*
X43708098Y-40585031D01*
X43708097Y-40585037D01*
X43708097Y-40585039D01*
X43689505Y-40809407D01*
X43707718Y-41029205D01*
X43708098Y-41033782D01*
X43763363Y-41252019D01*
X43763364Y-41252020D01*
X43763365Y-41252023D01*
X43810853Y-41360285D01*
X43853802Y-41458200D01*
X43976936Y-41646672D01*
X43976940Y-41646677D01*
X44129423Y-41812315D01*
X44157942Y-41834512D01*
X44307085Y-41950596D01*
X44340341Y-41968593D01*
X44390732Y-42018607D01*
X44406084Y-42087923D01*
X44381523Y-42154536D01*
X44340341Y-42190220D01*
X44307087Y-42208217D01*
X44307085Y-42208218D01*
X44129423Y-42346498D01*
X43976940Y-42512136D01*
X43976936Y-42512141D01*
X43853802Y-42700613D01*
X43763364Y-42906793D01*
X43763363Y-42906794D01*
X43708098Y-43125031D01*
X43708097Y-43125037D01*
X43708097Y-43125039D01*
X43689505Y-43349407D01*
X43693127Y-43393123D01*
X43708098Y-43573782D01*
X43763363Y-43792019D01*
X43763364Y-43792020D01*
X43763365Y-43792023D01*
X43815467Y-43910805D01*
X43853802Y-43998200D01*
X43976936Y-44186672D01*
X43976941Y-44186677D01*
X44120136Y-44342227D01*
X44151557Y-44405892D01*
X44143570Y-44476438D01*
X44098712Y-44531467D01*
X44071468Y-44545620D01*
X43956458Y-44588517D01*
X43956453Y-44588519D01*
X43839399Y-44676145D01*
X43751773Y-44793199D01*
X43751771Y-44793204D01*
X43700672Y-44930202D01*
X43700670Y-44930210D01*
X43694161Y-44990757D01*
X43694161Y-46788056D01*
X43700670Y-46848603D01*
X43700672Y-46848611D01*
X43751771Y-46985609D01*
X43751773Y-46985614D01*
X43839399Y-47102668D01*
X43956453Y-47190294D01*
X43956455Y-47190295D01*
X43956457Y-47190296D01*
X44011561Y-47210849D01*
X44093456Y-47241395D01*
X44093464Y-47241397D01*
X44154011Y-47247906D01*
X44154016Y-47247906D01*
X44154023Y-47247907D01*
X44154029Y-47247907D01*
X45951293Y-47247907D01*
X45951299Y-47247907D01*
X45951306Y-47247906D01*
X45951310Y-47247906D01*
X46011857Y-47241397D01*
X46011860Y-47241396D01*
X46011862Y-47241396D01*
X46148865Y-47190296D01*
X46219060Y-47137749D01*
X46265922Y-47102668D01*
X46353547Y-46985615D01*
X46353546Y-46985615D01*
X46353550Y-46985611D01*
X46397660Y-46867346D01*
X46440206Y-46810514D01*
X46506727Y-46785703D01*
X46576101Y-46800795D01*
X46608414Y-46826042D01*
X46629190Y-46848611D01*
X46669423Y-46892315D01*
X46723992Y-46934788D01*
X46847085Y-47030596D01*
X47045087Y-47137749D01*
X47045088Y-47137749D01*
X47045089Y-47137750D01*
X47156888Y-47176130D01*
X47258026Y-47210851D01*
X47480092Y-47247907D01*
X47480096Y-47247907D01*
X47705226Y-47247907D01*
X47705230Y-47247907D01*
X47927296Y-47210851D01*
X48140235Y-47137749D01*
X48338237Y-47030596D01*
X48515901Y-46892313D01*
X48668383Y-46726675D01*
X48791521Y-46538198D01*
X48881957Y-46332023D01*
X48937225Y-46113775D01*
X48955817Y-45889407D01*
X48937225Y-45665039D01*
X48892685Y-45489156D01*
X48881958Y-45446794D01*
X48881957Y-45446793D01*
X48881957Y-45446791D01*
X48791521Y-45240616D01*
X48756859Y-45187562D01*
X48668385Y-45052141D01*
X48668381Y-45052136D01*
X48538881Y-44911464D01*
X48515901Y-44886501D01*
X48515900Y-44886500D01*
X48515898Y-44886498D01*
X48396028Y-44793199D01*
X48338237Y-44748218D01*
X48335914Y-44746961D01*
X48320824Y-44738794D01*
X48304980Y-44730220D01*
X48254590Y-44680209D01*
X48239237Y-44610892D01*
X48263797Y-44544279D01*
X48304981Y-44508593D01*
X48338237Y-44490596D01*
X48515901Y-44352313D01*
X48668383Y-44186675D01*
X48731823Y-44089573D01*
X48764216Y-44039992D01*
X48818219Y-43993903D01*
X48869699Y-43982907D01*
X51031800Y-43982907D01*
X51031801Y-43982907D01*
X51154192Y-43958562D01*
X51269482Y-43910807D01*
X51373240Y-43841478D01*
X51373239Y-43841478D01*
X51378387Y-43838039D01*
X51379197Y-43839251D01*
X51437813Y-43814349D01*
X51452414Y-43813500D01*
X68265406Y-43813500D01*
X68333527Y-43833502D01*
X68354501Y-43850405D01*
X95151841Y-70647745D01*
X95255599Y-70717074D01*
X95370889Y-70764829D01*
X95493280Y-70789174D01*
X95618068Y-70789174D01*
X113094954Y-70789174D01*
X113163075Y-70809176D01*
X113208129Y-70861171D01*
X113208474Y-70860996D01*
X113209183Y-70862387D01*
X113209568Y-70862832D01*
X113210497Y-70864967D01*
X113210720Y-70865405D01*
X113338893Y-71074566D01*
X113338894Y-71074568D01*
X113338896Y-71074570D01*
X113498215Y-71261107D01*
X113684752Y-71420426D01*
X113893916Y-71548601D01*
X114120556Y-71642479D01*
X114359091Y-71699746D01*
X114603648Y-71718993D01*
X114848205Y-71699746D01*
X115086740Y-71642479D01*
X115313380Y-71548601D01*
X115522544Y-71420426D01*
X115709081Y-71261107D01*
X115868400Y-71074570D01*
X115996575Y-70865406D01*
X116090453Y-70638766D01*
X116147720Y-70400231D01*
X116166967Y-70155674D01*
X116148624Y-69922614D01*
X116163220Y-69853138D01*
X116185138Y-69823640D01*
X118468779Y-67540000D01*
X122929783Y-67540000D01*
X122948623Y-67779379D01*
X122949419Y-67782695D01*
X123004676Y-68012861D01*
X123004677Y-68012863D01*
X123096567Y-68234704D01*
X123140180Y-68305875D01*
X123222025Y-68439435D01*
X123222030Y-68439442D01*
X123377972Y-68622027D01*
X123556381Y-68774402D01*
X123560561Y-68777972D01*
X123765296Y-68903433D01*
X123987137Y-68995323D01*
X124220621Y-69051377D01*
X124460000Y-69070217D01*
X124699379Y-69051377D01*
X124932863Y-68995323D01*
X125154704Y-68903433D01*
X125359439Y-68777972D01*
X125542027Y-68622027D01*
X125697972Y-68439439D01*
X125823433Y-68234704D01*
X125915323Y-68012863D01*
X125971377Y-67779379D01*
X125990217Y-67540000D01*
X125971377Y-67300621D01*
X125915323Y-67067137D01*
X125823433Y-66845296D01*
X125702128Y-66647343D01*
X125697974Y-66640564D01*
X125697969Y-66640557D01*
X125542027Y-66457972D01*
X125359442Y-66302030D01*
X125359435Y-66302025D01*
X125226008Y-66220262D01*
X125154704Y-66176567D01*
X124932863Y-66084677D01*
X124932861Y-66084676D01*
X124773140Y-66046331D01*
X124699379Y-66028623D01*
X124460000Y-66009783D01*
X124220621Y-66028623D01*
X123987138Y-66084676D01*
X123765294Y-66176568D01*
X123560564Y-66302025D01*
X123560557Y-66302030D01*
X123377972Y-66457972D01*
X123222030Y-66640557D01*
X123222025Y-66640564D01*
X123096568Y-66845294D01*
X123004676Y-67067138D01*
X122949419Y-67297305D01*
X122948623Y-67300621D01*
X122929783Y-67540000D01*
X118468779Y-67540000D01*
X121350467Y-64658313D01*
X121447155Y-64513609D01*
X121447156Y-64513608D01*
X121486169Y-64419422D01*
X121513756Y-64352822D01*
X121537118Y-64235370D01*
X121547708Y-64182131D01*
X121547708Y-50557859D01*
X121567710Y-50489738D01*
X121599647Y-50455923D01*
X121706994Y-50377931D01*
X121885154Y-50199771D01*
X122033250Y-49995935D01*
X122147635Y-49771441D01*
X122225494Y-49531817D01*
X122254633Y-49347837D01*
X125798462Y-49347837D01*
X125817914Y-49570171D01*
X125829011Y-49611585D01*
X125875677Y-49785748D01*
X125875679Y-49785753D01*
X125969999Y-49988023D01*
X126008573Y-50043113D01*
X126098012Y-50170844D01*
X126255827Y-50328659D01*
X126438648Y-50456672D01*
X126640921Y-50550993D01*
X126856500Y-50608757D01*
X127078834Y-50628209D01*
X127301168Y-50608757D01*
X127516747Y-50550993D01*
X127719020Y-50456672D01*
X127901841Y-50328659D01*
X128059656Y-50170844D01*
X128187669Y-49988023D01*
X128281990Y-49785750D01*
X128339754Y-49570171D01*
X128359206Y-49347837D01*
X128339754Y-49125503D01*
X128281990Y-48909924D01*
X128187669Y-48707651D01*
X128059656Y-48524830D01*
X127901841Y-48367015D01*
X127797796Y-48294162D01*
X127719020Y-48239002D01*
X127516750Y-48144682D01*
X127516745Y-48144680D01*
X127389304Y-48110533D01*
X127301168Y-48086917D01*
X127078834Y-48067465D01*
X126856500Y-48086917D01*
X126798737Y-48102394D01*
X126640922Y-48144680D01*
X126640917Y-48144682D01*
X126438647Y-48239002D01*
X126255830Y-48367012D01*
X126255824Y-48367017D01*
X126098014Y-48524827D01*
X126098009Y-48524833D01*
X125969999Y-48707650D01*
X125875679Y-48909920D01*
X125875677Y-48909925D01*
X125846657Y-49018232D01*
X125817914Y-49125503D01*
X125798462Y-49347837D01*
X122254633Y-49347837D01*
X122264908Y-49282963D01*
X122264908Y-46846607D01*
X122225494Y-46597753D01*
X122147635Y-46358129D01*
X122033250Y-46133635D01*
X121885154Y-45929799D01*
X121885152Y-45929796D01*
X121706996Y-45751640D01*
X121503161Y-45603545D01*
X121503160Y-45603544D01*
X121503158Y-45603543D01*
X121278664Y-45489158D01*
X121278663Y-45489157D01*
X121278660Y-45489156D01*
X121039045Y-45411300D01*
X121039041Y-45411299D01*
X121039040Y-45411299D01*
X120790186Y-45371885D01*
X120538230Y-45371885D01*
X120289376Y-45411299D01*
X120289370Y-45411300D01*
X120049755Y-45489156D01*
X119825254Y-45603545D01*
X119621421Y-45751639D01*
X119523288Y-45849772D01*
X119460976Y-45883797D01*
X119390160Y-45878731D01*
X119345098Y-45849771D01*
X118954239Y-45458912D01*
X118920213Y-45396600D01*
X118917334Y-45369817D01*
X118917334Y-32994737D01*
X118937336Y-32926616D01*
X118990992Y-32880123D01*
X119061266Y-32870019D01*
X119084240Y-32875563D01*
X119124199Y-32889281D01*
X119292176Y-32917310D01*
X119356075Y-32948252D01*
X119360532Y-32952497D01*
X139244151Y-52836116D01*
X139332389Y-52924354D01*
X139382885Y-52958094D01*
X139428412Y-53012570D01*
X139437261Y-53083013D01*
X139416097Y-53135128D01*
X139377304Y-53190531D01*
X139280543Y-53398036D01*
X139280541Y-53398042D01*
X139250656Y-53509575D01*
X139221283Y-53619196D01*
X139201328Y-53847283D01*
X139221283Y-54075370D01*
X139227409Y-54098232D01*
X139280541Y-54296523D01*
X139280543Y-54296529D01*
X139310047Y-54359801D01*
X139377303Y-54504032D01*
X139508628Y-54691583D01*
X139670526Y-54853481D01*
X139858077Y-54984806D01*
X139893185Y-55001177D01*
X139897283Y-55003088D01*
X139950568Y-55050005D01*
X139970029Y-55118282D01*
X139949487Y-55186242D01*
X139897283Y-55231478D01*
X139858076Y-55249760D01*
X139670529Y-55381082D01*
X139670523Y-55381087D01*
X139508630Y-55542980D01*
X139508625Y-55542986D01*
X139377303Y-55730533D01*
X139280543Y-55938036D01*
X139280541Y-55938042D01*
X139227527Y-56135894D01*
X139221283Y-56159196D01*
X139201328Y-56387283D01*
X139221283Y-56615370D01*
X139237555Y-56676097D01*
X139280541Y-56836523D01*
X139280543Y-56836529D01*
X139307010Y-56893288D01*
X139377303Y-57044032D01*
X139508628Y-57231583D01*
X139670526Y-57393481D01*
X139858077Y-57524806D01*
X139893185Y-57541177D01*
X139897283Y-57543088D01*
X139950568Y-57590005D01*
X139970029Y-57658282D01*
X139949487Y-57726242D01*
X139897283Y-57771478D01*
X139858076Y-57789760D01*
X139670529Y-57921082D01*
X139670523Y-57921087D01*
X139508630Y-58082980D01*
X139508625Y-58082986D01*
X139377303Y-58270533D01*
X139280543Y-58478036D01*
X139280541Y-58478042D01*
X139265181Y-58535367D01*
X139221283Y-58699196D01*
X139201328Y-58927283D01*
X139221283Y-59155370D01*
X139227409Y-59178232D01*
X139280541Y-59376523D01*
X139280543Y-59376529D01*
X139323455Y-59468554D01*
X139377303Y-59584032D01*
X139508628Y-59771583D01*
X139670526Y-59933481D01*
X139858077Y-60064806D01*
X139893185Y-60081177D01*
X139897283Y-60083088D01*
X139950568Y-60130005D01*
X139970029Y-60198282D01*
X139949487Y-60266242D01*
X139897283Y-60311478D01*
X139858076Y-60329760D01*
X139670529Y-60461082D01*
X139670523Y-60461087D01*
X139508630Y-60622980D01*
X139508625Y-60622986D01*
X139377303Y-60810533D01*
X139280543Y-61018036D01*
X139280541Y-61018042D01*
X139265181Y-61075367D01*
X139221283Y-61239196D01*
X139201328Y-61467283D01*
X139221283Y-61695370D01*
X139251298Y-61807388D01*
X139280541Y-61916523D01*
X139280543Y-61916529D01*
X139377303Y-62124032D01*
X139486937Y-62280606D01*
X139508628Y-62311583D01*
X139670526Y-62473481D01*
X139858077Y-62604806D01*
X139893185Y-62621177D01*
X139897283Y-62623088D01*
X139950568Y-62670005D01*
X139970029Y-62738282D01*
X139949487Y-62806242D01*
X139897283Y-62851478D01*
X139858076Y-62869760D01*
X139670529Y-63001082D01*
X139670523Y-63001087D01*
X139508630Y-63162980D01*
X139508625Y-63162986D01*
X139377303Y-63350533D01*
X139280543Y-63558036D01*
X139280541Y-63558042D01*
X139265181Y-63615367D01*
X139221283Y-63779196D01*
X139201328Y-64007283D01*
X139221283Y-64235370D01*
X139235390Y-64288018D01*
X139280541Y-64456523D01*
X139280543Y-64456529D01*
X139377303Y-64664032D01*
X139481960Y-64813498D01*
X139508628Y-64851583D01*
X139670526Y-65013481D01*
X139858077Y-65144806D01*
X139893185Y-65161177D01*
X139897283Y-65163088D01*
X139950568Y-65210005D01*
X139970029Y-65278282D01*
X139949487Y-65346242D01*
X139897283Y-65391478D01*
X139858076Y-65409760D01*
X139670529Y-65541082D01*
X139670523Y-65541087D01*
X139508630Y-65702980D01*
X139508625Y-65702986D01*
X139377303Y-65890533D01*
X139280543Y-66098036D01*
X139280541Y-66098042D01*
X139221283Y-66319196D01*
X139201328Y-66547283D01*
X139221283Y-66775369D01*
X139280541Y-66996523D01*
X139280543Y-66996529D01*
X139377303Y-67204032D01*
X139444935Y-67300621D01*
X139508628Y-67391583D01*
X139670526Y-67553481D01*
X139858077Y-67684806D01*
X139893185Y-67701177D01*
X139897283Y-67703088D01*
X139950568Y-67750005D01*
X139970029Y-67818282D01*
X139949487Y-67886242D01*
X139897283Y-67931478D01*
X139858076Y-67949760D01*
X139670529Y-68081082D01*
X139670523Y-68081087D01*
X139508630Y-68242980D01*
X139508625Y-68242986D01*
X139377303Y-68430533D01*
X139280543Y-68638036D01*
X139280541Y-68638042D01*
X139221283Y-68859196D01*
X139201328Y-69087283D01*
X139221283Y-69315370D01*
X139236651Y-69372725D01*
X139280541Y-69536523D01*
X139280543Y-69536529D01*
X139377303Y-69744032D01*
X139502350Y-69922618D01*
X139508628Y-69931583D01*
X139670526Y-70093481D01*
X139858077Y-70224806D01*
X139893185Y-70241177D01*
X139897283Y-70243088D01*
X139950568Y-70290005D01*
X139970029Y-70358282D01*
X139949487Y-70426242D01*
X139897283Y-70471478D01*
X139858076Y-70489760D01*
X139670529Y-70621082D01*
X139670523Y-70621087D01*
X139508630Y-70782980D01*
X139508625Y-70782986D01*
X139377303Y-70970533D01*
X139280543Y-71178036D01*
X139280541Y-71178042D01*
X139247791Y-71300267D01*
X139221283Y-71399196D01*
X139201328Y-71627283D01*
X139221283Y-71855370D01*
X139236767Y-71913157D01*
X139280541Y-72076523D01*
X139280543Y-72076529D01*
X139377303Y-72284032D01*
X139486937Y-72440606D01*
X139508628Y-72471583D01*
X139670526Y-72633481D01*
X139858077Y-72764806D01*
X139893185Y-72781177D01*
X139897283Y-72783088D01*
X139950568Y-72830005D01*
X139970029Y-72898282D01*
X139949487Y-72966242D01*
X139897283Y-73011478D01*
X139858076Y-73029760D01*
X139670529Y-73161082D01*
X139670523Y-73161087D01*
X139508630Y-73322980D01*
X139508625Y-73322986D01*
X139377303Y-73510533D01*
X139280543Y-73718036D01*
X139280541Y-73718042D01*
X139221283Y-73939196D01*
X139201328Y-74167283D01*
X139221283Y-74395369D01*
X139280541Y-74616523D01*
X139280543Y-74616529D01*
X139351890Y-74769533D01*
X139362551Y-74839725D01*
X139333571Y-74904538D01*
X139274151Y-74943394D01*
X139237695Y-74948783D01*
X136766119Y-74948783D01*
X136694013Y-74963126D01*
X136623299Y-74956797D01*
X136567232Y-74913243D01*
X136543614Y-74846290D01*
X136543862Y-74829158D01*
X136556427Y-74677533D01*
X136537835Y-74453165D01*
X136483039Y-74236781D01*
X136482568Y-74234920D01*
X136482567Y-74234919D01*
X136482567Y-74234917D01*
X136392131Y-74028742D01*
X136333628Y-73939196D01*
X136268995Y-73840267D01*
X136268991Y-73840262D01*
X136116508Y-73674624D01*
X135992309Y-73577956D01*
X135938847Y-73536344D01*
X135905590Y-73518346D01*
X135855200Y-73468335D01*
X135839847Y-73399018D01*
X135864407Y-73332405D01*
X135905591Y-73296719D01*
X135938847Y-73278722D01*
X136116511Y-73140439D01*
X136268993Y-72974801D01*
X136392131Y-72786324D01*
X136482567Y-72580149D01*
X136537835Y-72361901D01*
X136556427Y-72137533D01*
X136537835Y-71913165D01*
X136482567Y-71694917D01*
X136392131Y-71488742D01*
X136381888Y-71473064D01*
X136268995Y-71300267D01*
X136268991Y-71300262D01*
X136116508Y-71134624D01*
X136023129Y-71061944D01*
X135938847Y-70996344D01*
X135905590Y-70978346D01*
X135855200Y-70928335D01*
X135839847Y-70859018D01*
X135864407Y-70792405D01*
X135905591Y-70756719D01*
X135938847Y-70738722D01*
X136116511Y-70600439D01*
X136268993Y-70434801D01*
X136392131Y-70246324D01*
X136482567Y-70040149D01*
X136537835Y-69821901D01*
X136556427Y-69597533D01*
X136537835Y-69373165D01*
X136503297Y-69236778D01*
X136482568Y-69154920D01*
X136482567Y-69154919D01*
X136482567Y-69154917D01*
X136392131Y-68948742D01*
X136362528Y-68903431D01*
X136268995Y-68760267D01*
X136268991Y-68760262D01*
X136132138Y-68611602D01*
X136116511Y-68594627D01*
X136116510Y-68594626D01*
X136116508Y-68594624D01*
X136028188Y-68525882D01*
X135938847Y-68456344D01*
X135905590Y-68438346D01*
X135855200Y-68388335D01*
X135839847Y-68319018D01*
X135864407Y-68252405D01*
X135905591Y-68216719D01*
X135938847Y-68198722D01*
X136116511Y-68060439D01*
X136268993Y-67894801D01*
X136392131Y-67706324D01*
X136482567Y-67500149D01*
X136537835Y-67281901D01*
X136556427Y-67057533D01*
X136537835Y-66833165D01*
X136517903Y-66754455D01*
X136482568Y-66614920D01*
X136482567Y-66614919D01*
X136482567Y-66614917D01*
X136392131Y-66408742D01*
X136322413Y-66302030D01*
X136268995Y-66220267D01*
X136268991Y-66220262D01*
X136116508Y-66054624D01*
X136022968Y-65981819D01*
X135938847Y-65916344D01*
X135740845Y-65809191D01*
X135740843Y-65809190D01*
X135740842Y-65809189D01*
X135527910Y-65736090D01*
X135527901Y-65736088D01*
X135483747Y-65728720D01*
X135305840Y-65699033D01*
X135080702Y-65699033D01*
X134932482Y-65723766D01*
X134858640Y-65736088D01*
X134858631Y-65736090D01*
X134645699Y-65809189D01*
X134645697Y-65809191D01*
X134447697Y-65916343D01*
X134447695Y-65916344D01*
X134270033Y-66054624D01*
X134117550Y-66220262D01*
X134117546Y-66220267D01*
X133994412Y-66408739D01*
X133903974Y-66614919D01*
X133903973Y-66614920D01*
X133848708Y-66833157D01*
X133848707Y-66833163D01*
X133848707Y-66833165D01*
X133830115Y-67057533D01*
X133842254Y-67204032D01*
X133848708Y-67281908D01*
X133903973Y-67500145D01*
X133903974Y-67500146D01*
X133903975Y-67500149D01*
X133992992Y-67703088D01*
X133994412Y-67706326D01*
X134117546Y-67894798D01*
X134117550Y-67894803D01*
X134270033Y-68060441D01*
X134296559Y-68081087D01*
X134447695Y-68198722D01*
X134480951Y-68216719D01*
X134531342Y-68266733D01*
X134546694Y-68336049D01*
X134522133Y-68402662D01*
X134480951Y-68438346D01*
X134447697Y-68456343D01*
X134447695Y-68456344D01*
X134270033Y-68594624D01*
X134117550Y-68760262D01*
X134117546Y-68760267D01*
X133994412Y-68948739D01*
X133903974Y-69154919D01*
X133903973Y-69154920D01*
X133848708Y-69373157D01*
X133848707Y-69373163D01*
X133848707Y-69373165D01*
X133830115Y-69597533D01*
X133842254Y-69744032D01*
X133848708Y-69821908D01*
X133903973Y-70040145D01*
X133903974Y-70040146D01*
X133903975Y-70040149D01*
X133992992Y-70243088D01*
X133994412Y-70246326D01*
X134117546Y-70434798D01*
X134117550Y-70434803D01*
X134270033Y-70600441D01*
X134296559Y-70621087D01*
X134447695Y-70738722D01*
X134480951Y-70756719D01*
X134531342Y-70806733D01*
X134546694Y-70876049D01*
X134522133Y-70942662D01*
X134480951Y-70978346D01*
X134447697Y-70996343D01*
X134447695Y-70996344D01*
X134270033Y-71134624D01*
X134117550Y-71300262D01*
X134117546Y-71300267D01*
X133994412Y-71488739D01*
X133903974Y-71694919D01*
X133903973Y-71694920D01*
X133848708Y-71913157D01*
X133848707Y-71913163D01*
X133848707Y-71913165D01*
X133830115Y-72137533D01*
X133847592Y-72348450D01*
X133848708Y-72361908D01*
X133903973Y-72580145D01*
X133903974Y-72580146D01*
X133903975Y-72580149D01*
X133984973Y-72764807D01*
X133994412Y-72786326D01*
X134117546Y-72974798D01*
X134117550Y-72974803D01*
X134270033Y-73140441D01*
X134324602Y-73182914D01*
X134447695Y-73278722D01*
X134480951Y-73296719D01*
X134531342Y-73346733D01*
X134546694Y-73416049D01*
X134522133Y-73482662D01*
X134480951Y-73518346D01*
X134447697Y-73536343D01*
X134447695Y-73536344D01*
X134270033Y-73674624D01*
X134117550Y-73840262D01*
X134117546Y-73840267D01*
X133994412Y-74028739D01*
X133903974Y-74234919D01*
X133903973Y-74234920D01*
X133848708Y-74453157D01*
X133848707Y-74453163D01*
X133848707Y-74453165D01*
X133830115Y-74677533D01*
X133846488Y-74875125D01*
X133848708Y-74901908D01*
X133903973Y-75120145D01*
X133903974Y-75120146D01*
X133903975Y-75120149D01*
X133992992Y-75323088D01*
X133994412Y-75326326D01*
X134117546Y-75514798D01*
X134117550Y-75514803D01*
X134270033Y-75680441D01*
X134296559Y-75701087D01*
X134447695Y-75818722D01*
X134480951Y-75836719D01*
X134531342Y-75886733D01*
X134546694Y-75956049D01*
X134522133Y-76022662D01*
X134480951Y-76058346D01*
X134450973Y-76074570D01*
X134447697Y-76076343D01*
X134447695Y-76076344D01*
X134270033Y-76214624D01*
X134117550Y-76380262D01*
X134117546Y-76380267D01*
X133994412Y-76568739D01*
X133903974Y-76774919D01*
X133903973Y-76774920D01*
X133848708Y-76993157D01*
X133848707Y-76993163D01*
X133848707Y-76993165D01*
X133830115Y-77217533D01*
X133842254Y-77364032D01*
X133848708Y-77441908D01*
X133903973Y-77660145D01*
X133903974Y-77660146D01*
X133903975Y-77660149D01*
X133992992Y-77863088D01*
X133994412Y-77866326D01*
X134117546Y-78054798D01*
X134117550Y-78054803D01*
X134270033Y-78220441D01*
X134296559Y-78241087D01*
X134447695Y-78358722D01*
X134480951Y-78376719D01*
X134531342Y-78426733D01*
X134546694Y-78496049D01*
X134522133Y-78562662D01*
X134480951Y-78598346D01*
X134447697Y-78616343D01*
X134447695Y-78616344D01*
X134270033Y-78754624D01*
X134117550Y-78920262D01*
X134117546Y-78920267D01*
X133994412Y-79108739D01*
X133903974Y-79314919D01*
X133903973Y-79314920D01*
X133848708Y-79533157D01*
X133848707Y-79533163D01*
X133848707Y-79533165D01*
X133830115Y-79757533D01*
X133846488Y-79955125D01*
X133848708Y-79981908D01*
X133903973Y-80200145D01*
X133903974Y-80200146D01*
X133903975Y-80200149D01*
X133992992Y-80403088D01*
X133994412Y-80406326D01*
X134117546Y-80594798D01*
X134117550Y-80594803D01*
X134270033Y-80760441D01*
X134296559Y-80781087D01*
X134447695Y-80898722D01*
X134480951Y-80916719D01*
X134531342Y-80966733D01*
X134546694Y-81036049D01*
X134522133Y-81102662D01*
X134480951Y-81138347D01*
X134447697Y-81156343D01*
X134447695Y-81156344D01*
X134270033Y-81294624D01*
X134117550Y-81460262D01*
X134117546Y-81460267D01*
X133994412Y-81648739D01*
X133903974Y-81854919D01*
X133903973Y-81854920D01*
X133848708Y-82073157D01*
X133848707Y-82073163D01*
X133848707Y-82073165D01*
X133830115Y-82297533D01*
X133842254Y-82444032D01*
X133848708Y-82521908D01*
X133903973Y-82740145D01*
X133903974Y-82740146D01*
X133903975Y-82740149D01*
X133992992Y-82943088D01*
X133994412Y-82946326D01*
X134117546Y-83134798D01*
X134117550Y-83134803D01*
X134261112Y-83290750D01*
X134292533Y-83354415D01*
X134284547Y-83424961D01*
X134239688Y-83479990D01*
X134212444Y-83494143D01*
X134097310Y-83537086D01*
X134097305Y-83537088D01*
X133980366Y-83624628D01*
X133892826Y-83741567D01*
X133892826Y-83741568D01*
X133841776Y-83878439D01*
X133835271Y-83938935D01*
X133835271Y-84583533D01*
X134762568Y-84583533D01*
X134727346Y-84644540D01*
X134693271Y-84771707D01*
X134693271Y-84903359D01*
X134727346Y-85030526D01*
X134762568Y-85091533D01*
X133835271Y-85091533D01*
X133835271Y-85736130D01*
X133841776Y-85796626D01*
X133892826Y-85933497D01*
X133892826Y-85933498D01*
X133980366Y-86050437D01*
X134097305Y-86137977D01*
X134234177Y-86189027D01*
X134294673Y-86195532D01*
X134294686Y-86195533D01*
X134939271Y-86195533D01*
X134939271Y-85268235D01*
X135000278Y-85303458D01*
X135127445Y-85337533D01*
X135259097Y-85337533D01*
X135386264Y-85303458D01*
X135447271Y-85268235D01*
X135447271Y-86195533D01*
X136091856Y-86195533D01*
X136091868Y-86195532D01*
X136152364Y-86189027D01*
X136289235Y-86137977D01*
X136289236Y-86137977D01*
X136406175Y-86050437D01*
X136493715Y-85933498D01*
X136493715Y-85933497D01*
X136544765Y-85796626D01*
X136551270Y-85736130D01*
X136551271Y-85736118D01*
X136551271Y-85091533D01*
X135623974Y-85091533D01*
X135659196Y-85030526D01*
X135693271Y-84903359D01*
X135693271Y-84771707D01*
X135659196Y-84644540D01*
X135623974Y-84583533D01*
X136551271Y-84583533D01*
X136551271Y-83938947D01*
X136551270Y-83938935D01*
X136544765Y-83878439D01*
X136493715Y-83741568D01*
X136493715Y-83741567D01*
X136406175Y-83624628D01*
X136289237Y-83537089D01*
X136174097Y-83494144D01*
X136117262Y-83451597D01*
X136092451Y-83385076D01*
X136107543Y-83315702D01*
X136125425Y-83290755D01*
X136268993Y-83134801D01*
X136392131Y-82946324D01*
X136482567Y-82740149D01*
X136537835Y-82521901D01*
X136556427Y-82297533D01*
X136537835Y-82073165D01*
X136510088Y-81963595D01*
X136512755Y-81892651D01*
X136543135Y-81843572D01*
X137054022Y-81332687D01*
X137116334Y-81298662D01*
X137143117Y-81295783D01*
X139127658Y-81295783D01*
X139195779Y-81315785D01*
X139242272Y-81369441D01*
X139252376Y-81439715D01*
X139249365Y-81454391D01*
X139221283Y-81559196D01*
X139201328Y-81787283D01*
X139221283Y-82015370D01*
X139244163Y-82100757D01*
X139280541Y-82236523D01*
X139280543Y-82236529D01*
X139377303Y-82444032D01*
X139488376Y-82602661D01*
X139508628Y-82631583D01*
X139670526Y-82793481D01*
X139858077Y-82924806D01*
X139893185Y-82941177D01*
X139897283Y-82943088D01*
X139950568Y-82990005D01*
X139970029Y-83058282D01*
X139949487Y-83126242D01*
X139897283Y-83171478D01*
X139858076Y-83189760D01*
X139670529Y-83321082D01*
X139670523Y-83321087D01*
X139508630Y-83482980D01*
X139508625Y-83482986D01*
X139377303Y-83670533D01*
X139280543Y-83878036D01*
X139280542Y-83878040D01*
X139221283Y-84099196D01*
X139201328Y-84327283D01*
X139221283Y-84555370D01*
X139245176Y-84644540D01*
X139280541Y-84776523D01*
X139280543Y-84776529D01*
X139377303Y-84984032D01*
X139444622Y-85080174D01*
X139508628Y-85171583D01*
X139670526Y-85333481D01*
X139858077Y-85464806D01*
X140065583Y-85561567D01*
X140286739Y-85620826D01*
X140514826Y-85640781D01*
X140742913Y-85620826D01*
X140964069Y-85561567D01*
X141171575Y-85464806D01*
X141359126Y-85333481D01*
X141521024Y-85171583D01*
X141652349Y-84984032D01*
X141749110Y-84776526D01*
X141808369Y-84555370D01*
X141828324Y-84327283D01*
X141808369Y-84099196D01*
X141749110Y-83878040D01*
X141652349Y-83670534D01*
X141521024Y-83482983D01*
X141359126Y-83321085D01*
X141351438Y-83315702D01*
X141296824Y-83277460D01*
X141171575Y-83189760D01*
X141132369Y-83171478D01*
X141079084Y-83124562D01*
X141059622Y-83056285D01*
X141080163Y-82988325D01*
X141132369Y-82943088D01*
X141134823Y-82941943D01*
X141171575Y-82924806D01*
X141359126Y-82793481D01*
X141521024Y-82631583D01*
X141652349Y-82444032D01*
X141749110Y-82236526D01*
X141808369Y-82015370D01*
X141828324Y-81787283D01*
X141808369Y-81559196D01*
X141780287Y-81454393D01*
X141781977Y-81383417D01*
X141821771Y-81324622D01*
X141887036Y-81296674D01*
X141901994Y-81295783D01*
X154315232Y-81295783D01*
X154383353Y-81315785D01*
X154404327Y-81332688D01*
X154445673Y-81374034D01*
X154479699Y-81436346D01*
X154478285Y-81495739D01*
X154461284Y-81559190D01*
X154461283Y-81559193D01*
X154461283Y-81559196D01*
X154441328Y-81787283D01*
X154461283Y-82015370D01*
X154484163Y-82100757D01*
X154520541Y-82236523D01*
X154520543Y-82236529D01*
X154617303Y-82444032D01*
X154728376Y-82602661D01*
X154748628Y-82631583D01*
X154910526Y-82793481D01*
X155098077Y-82924806D01*
X155133185Y-82941177D01*
X155137283Y-82943088D01*
X155190568Y-82990005D01*
X155210029Y-83058282D01*
X155189487Y-83126242D01*
X155137283Y-83171478D01*
X155098076Y-83189760D01*
X154910529Y-83321082D01*
X154910523Y-83321087D01*
X154748630Y-83482980D01*
X154748625Y-83482986D01*
X154617303Y-83670533D01*
X154520543Y-83878036D01*
X154520542Y-83878040D01*
X154461283Y-84099196D01*
X154441328Y-84327283D01*
X154461283Y-84555370D01*
X154485176Y-84644540D01*
X154520541Y-84776523D01*
X154520543Y-84776529D01*
X154617303Y-84984032D01*
X154684622Y-85080174D01*
X154748628Y-85171583D01*
X154910526Y-85333481D01*
X155098077Y-85464806D01*
X155305583Y-85561567D01*
X155526739Y-85620826D01*
X155754826Y-85640781D01*
X155982913Y-85620826D01*
X156204069Y-85561567D01*
X156411575Y-85464806D01*
X156599126Y-85333481D01*
X156761024Y-85171583D01*
X156892349Y-84984032D01*
X156989110Y-84776526D01*
X157048369Y-84555370D01*
X157068324Y-84327283D01*
X157048369Y-84099196D01*
X156989110Y-83878040D01*
X156892349Y-83670534D01*
X156761024Y-83482983D01*
X156599126Y-83321085D01*
X156591438Y-83315702D01*
X156536824Y-83277460D01*
X156411575Y-83189760D01*
X156372369Y-83171478D01*
X156319084Y-83124562D01*
X156299622Y-83056285D01*
X156320163Y-82988325D01*
X156372369Y-82943088D01*
X156374823Y-82941943D01*
X156411575Y-82924806D01*
X156599126Y-82793481D01*
X156761024Y-82631583D01*
X156892349Y-82444032D01*
X156989110Y-82236526D01*
X157048369Y-82015370D01*
X157068324Y-81787283D01*
X157048369Y-81559196D01*
X156989110Y-81338040D01*
X156892349Y-81130534D01*
X156761024Y-80942983D01*
X156599126Y-80781085D01*
X156569643Y-80760441D01*
X156536824Y-80737460D01*
X156411575Y-80649760D01*
X156372369Y-80631478D01*
X156319084Y-80584562D01*
X156299622Y-80516285D01*
X156320163Y-80448325D01*
X156372369Y-80403088D01*
X156374823Y-80401943D01*
X156411575Y-80384806D01*
X156599126Y-80253481D01*
X156624255Y-80228350D01*
X156686564Y-80194325D01*
X156757379Y-80199388D01*
X156802446Y-80228350D01*
X158710847Y-82136752D01*
X158744873Y-82199064D01*
X158743459Y-82258457D01*
X158726458Y-82321907D01*
X158726457Y-82321910D01*
X158726457Y-82321913D01*
X158706502Y-82550000D01*
X158726457Y-82778087D01*
X158751107Y-82870080D01*
X158785715Y-82999240D01*
X158785717Y-82999246D01*
X158882477Y-83206749D01*
X158962537Y-83321087D01*
X159013802Y-83394300D01*
X159175700Y-83556198D01*
X159363251Y-83687523D01*
X159570757Y-83784284D01*
X159791913Y-83843543D01*
X160020000Y-83863498D01*
X160248087Y-83843543D01*
X160469243Y-83784284D01*
X160676749Y-83687523D01*
X160864300Y-83556198D01*
X161026198Y-83394300D01*
X161157523Y-83206749D01*
X161254284Y-82999243D01*
X161313543Y-82778087D01*
X161333498Y-82550000D01*
X161313543Y-82321913D01*
X161306600Y-82296000D01*
X168893917Y-82296000D01*
X169868314Y-82296000D01*
X169859920Y-82304394D01*
X169807259Y-82395606D01*
X169780000Y-82497339D01*
X169780000Y-82602661D01*
X169807259Y-82704394D01*
X169859920Y-82795606D01*
X169868314Y-82804000D01*
X168893918Y-82804000D01*
X168946186Y-82999068D01*
X168946188Y-82999073D01*
X169042912Y-83206498D01*
X169174184Y-83393974D01*
X169174189Y-83393980D01*
X169336019Y-83555810D01*
X169336025Y-83555815D01*
X169523501Y-83687087D01*
X169730926Y-83783811D01*
X169730931Y-83783813D01*
X169926000Y-83836081D01*
X169926000Y-82861686D01*
X169934394Y-82870080D01*
X170025606Y-82922741D01*
X170127339Y-82950000D01*
X170232661Y-82950000D01*
X170334394Y-82922741D01*
X170425606Y-82870080D01*
X170434000Y-82861686D01*
X170434000Y-83836081D01*
X170629068Y-83783813D01*
X170629073Y-83783811D01*
X170836498Y-83687087D01*
X171023974Y-83555815D01*
X171023980Y-83555810D01*
X171185810Y-83393980D01*
X171185815Y-83393974D01*
X171317087Y-83206498D01*
X171413811Y-82999073D01*
X171413813Y-82999068D01*
X171466082Y-82804000D01*
X170491686Y-82804000D01*
X170500080Y-82795606D01*
X170552741Y-82704394D01*
X170580000Y-82602661D01*
X170580000Y-82497339D01*
X170552741Y-82395606D01*
X170500080Y-82304394D01*
X170491686Y-82296000D01*
X171466082Y-82296000D01*
X171413813Y-82100931D01*
X171413811Y-82100926D01*
X171317087Y-81893501D01*
X171185815Y-81706025D01*
X171185810Y-81706019D01*
X171023980Y-81544189D01*
X171023974Y-81544184D01*
X170836498Y-81412912D01*
X170629073Y-81316188D01*
X170629071Y-81316187D01*
X170434000Y-81263917D01*
X170434000Y-82238314D01*
X170425606Y-82229920D01*
X170334394Y-82177259D01*
X170232661Y-82150000D01*
X170127339Y-82150000D01*
X170025606Y-82177259D01*
X169934394Y-82229920D01*
X169926000Y-82238314D01*
X169926000Y-81263917D01*
X169925999Y-81263917D01*
X169730928Y-81316187D01*
X169730926Y-81316188D01*
X169523501Y-81412912D01*
X169336025Y-81544184D01*
X169336019Y-81544189D01*
X169174189Y-81706019D01*
X169174184Y-81706025D01*
X169042912Y-81893501D01*
X168946188Y-82100926D01*
X168946186Y-82100931D01*
X168893917Y-82296000D01*
X161306600Y-82296000D01*
X161254284Y-82100757D01*
X161157523Y-81893251D01*
X161026198Y-81705700D01*
X160864300Y-81543802D01*
X160676749Y-81412477D01*
X160614429Y-81383417D01*
X160469246Y-81315717D01*
X160469240Y-81315715D01*
X160375771Y-81290670D01*
X160248087Y-81256457D01*
X160020000Y-81236502D01*
X159791913Y-81256457D01*
X159791910Y-81256457D01*
X159791907Y-81256458D01*
X159728457Y-81273459D01*
X159657481Y-81271769D01*
X159606752Y-81240847D01*
X157550231Y-79184326D01*
X157516205Y-79122014D01*
X157513326Y-79095231D01*
X157513326Y-72689890D01*
X157513325Y-72689886D01*
X157508249Y-72664367D01*
X157488981Y-72567498D01*
X157441226Y-72452208D01*
X157371897Y-72348450D01*
X157283659Y-72260212D01*
X157063977Y-72040530D01*
X157029951Y-71978218D01*
X157031365Y-71918825D01*
X157048369Y-71855370D01*
X157068324Y-71627283D01*
X157066799Y-71609853D01*
X157080786Y-71540249D01*
X157130184Y-71489256D01*
X157199310Y-71473064D01*
X157266216Y-71496815D01*
X157281414Y-71509775D01*
X159349595Y-73577956D01*
X159383621Y-73640268D01*
X159386500Y-73667051D01*
X159386500Y-76250606D01*
X159366498Y-76318727D01*
X159332771Y-76353819D01*
X159175703Y-76463799D01*
X159175697Y-76463804D01*
X159013804Y-76625697D01*
X159013799Y-76625703D01*
X158882477Y-76813250D01*
X158785717Y-77020753D01*
X158785715Y-77020759D01*
X158731491Y-77223127D01*
X158726457Y-77241913D01*
X158706502Y-77470000D01*
X158726457Y-77698087D01*
X158751107Y-77790080D01*
X158785715Y-77919240D01*
X158785717Y-77919246D01*
X158882477Y-78126749D01*
X158962537Y-78241087D01*
X159013802Y-78314300D01*
X159175700Y-78476198D01*
X159363251Y-78607523D01*
X159570757Y-78704284D01*
X159791913Y-78763543D01*
X160020000Y-78783498D01*
X160248087Y-78763543D01*
X160469243Y-78704284D01*
X160676749Y-78607523D01*
X160864300Y-78476198D01*
X161026198Y-78314300D01*
X161157523Y-78126749D01*
X161254284Y-77919243D01*
X161313543Y-77698087D01*
X161333498Y-77470000D01*
X161313543Y-77241913D01*
X161306600Y-77216000D01*
X168893917Y-77216000D01*
X169868314Y-77216000D01*
X169859920Y-77224394D01*
X169807259Y-77315606D01*
X169780000Y-77417339D01*
X169780000Y-77522661D01*
X169807259Y-77624394D01*
X169859920Y-77715606D01*
X169868314Y-77724000D01*
X168893918Y-77724000D01*
X168946186Y-77919068D01*
X168946188Y-77919073D01*
X169042912Y-78126498D01*
X169174184Y-78313974D01*
X169174189Y-78313980D01*
X169336019Y-78475810D01*
X169336025Y-78475815D01*
X169523501Y-78607087D01*
X169730926Y-78703811D01*
X169730931Y-78703813D01*
X169926000Y-78756081D01*
X169926000Y-77781686D01*
X169934394Y-77790080D01*
X170025606Y-77842741D01*
X170127339Y-77870000D01*
X170232661Y-77870000D01*
X170334394Y-77842741D01*
X170425606Y-77790080D01*
X170434000Y-77781686D01*
X170434000Y-78756081D01*
X170629068Y-78703813D01*
X170629073Y-78703811D01*
X170836498Y-78607087D01*
X171023974Y-78475815D01*
X171023980Y-78475810D01*
X171185810Y-78313980D01*
X171185815Y-78313974D01*
X171317087Y-78126498D01*
X171413811Y-77919073D01*
X171413813Y-77919068D01*
X171466082Y-77724000D01*
X170491686Y-77724000D01*
X170500080Y-77715606D01*
X170552741Y-77624394D01*
X170580000Y-77522661D01*
X170580000Y-77417339D01*
X170552741Y-77315606D01*
X170500080Y-77224394D01*
X170491686Y-77216000D01*
X171466082Y-77216000D01*
X171413813Y-77020931D01*
X171413811Y-77020926D01*
X171317087Y-76813501D01*
X171185815Y-76626025D01*
X171185810Y-76626019D01*
X171023980Y-76464189D01*
X171023974Y-76464184D01*
X170836498Y-76332912D01*
X170629073Y-76236188D01*
X170629071Y-76236187D01*
X170434000Y-76183917D01*
X170434000Y-77158314D01*
X170425606Y-77149920D01*
X170334394Y-77097259D01*
X170232661Y-77070000D01*
X170127339Y-77070000D01*
X170025606Y-77097259D01*
X169934394Y-77149920D01*
X169926000Y-77158314D01*
X169926000Y-76183917D01*
X169925999Y-76183917D01*
X169730928Y-76236187D01*
X169730926Y-76236188D01*
X169523501Y-76332912D01*
X169336025Y-76464184D01*
X169336019Y-76464189D01*
X169174189Y-76626019D01*
X169174184Y-76626025D01*
X169042912Y-76813501D01*
X168946188Y-77020926D01*
X168946186Y-77020931D01*
X168893917Y-77216000D01*
X161306600Y-77216000D01*
X161254284Y-77020757D01*
X161157523Y-76813251D01*
X161026198Y-76625700D01*
X160864300Y-76463802D01*
X160745000Y-76380267D01*
X160707229Y-76353819D01*
X160662901Y-76298362D01*
X160653500Y-76250606D01*
X160653500Y-73406000D01*
X162543917Y-73406000D01*
X163518314Y-73406000D01*
X163509920Y-73414394D01*
X163457259Y-73505606D01*
X163430000Y-73607339D01*
X163430000Y-73712661D01*
X163457259Y-73814394D01*
X163509920Y-73905606D01*
X163518314Y-73914000D01*
X162543918Y-73914000D01*
X162596186Y-74109068D01*
X162596188Y-74109073D01*
X162692912Y-74316498D01*
X162824184Y-74503974D01*
X162824189Y-74503980D01*
X162986019Y-74665810D01*
X162986025Y-74665815D01*
X163173501Y-74797087D01*
X163380926Y-74893811D01*
X163380931Y-74893813D01*
X163576000Y-74946081D01*
X163576000Y-73971686D01*
X163584394Y-73980080D01*
X163675606Y-74032741D01*
X163777339Y-74060000D01*
X163882661Y-74060000D01*
X163984394Y-74032741D01*
X164075606Y-73980080D01*
X164084000Y-73971686D01*
X164084000Y-74946081D01*
X164279068Y-74893813D01*
X164279073Y-74893811D01*
X164486498Y-74797087D01*
X164673974Y-74665815D01*
X164673980Y-74665810D01*
X164835810Y-74503980D01*
X164835815Y-74503974D01*
X164967087Y-74316498D01*
X164985805Y-74276359D01*
X165032722Y-74223074D01*
X165100999Y-74203613D01*
X165168959Y-74224155D01*
X165214195Y-74276359D01*
X165232912Y-74316498D01*
X165364184Y-74503974D01*
X165364189Y-74503980D01*
X165526019Y-74665810D01*
X165526025Y-74665815D01*
X165713501Y-74797087D01*
X165920926Y-74893811D01*
X165920931Y-74893813D01*
X166116000Y-74946081D01*
X166116000Y-73971686D01*
X166124394Y-73980080D01*
X166215606Y-74032741D01*
X166317339Y-74060000D01*
X166422661Y-74060000D01*
X166524394Y-74032741D01*
X166615606Y-73980080D01*
X166624000Y-73971686D01*
X166624000Y-74946081D01*
X166819068Y-74893813D01*
X166819073Y-74893811D01*
X167026498Y-74797087D01*
X167213974Y-74665815D01*
X167213980Y-74665810D01*
X167375810Y-74503980D01*
X167375815Y-74503974D01*
X167507087Y-74316498D01*
X167603811Y-74109073D01*
X167603813Y-74109068D01*
X167656082Y-73914000D01*
X166681686Y-73914000D01*
X166690080Y-73905606D01*
X166742741Y-73814394D01*
X166770000Y-73712661D01*
X166770000Y-73607339D01*
X166742741Y-73505606D01*
X166690080Y-73414394D01*
X166681686Y-73406000D01*
X167656082Y-73406000D01*
X167603813Y-73210931D01*
X167603811Y-73210926D01*
X167507087Y-73003501D01*
X167375815Y-72816025D01*
X167375810Y-72816019D01*
X167213980Y-72654189D01*
X167213974Y-72654184D01*
X167026498Y-72522912D01*
X166819073Y-72426188D01*
X166819071Y-72426187D01*
X166624000Y-72373917D01*
X166624000Y-73348314D01*
X166615606Y-73339920D01*
X166524394Y-73287259D01*
X166422661Y-73260000D01*
X166317339Y-73260000D01*
X166215606Y-73287259D01*
X166124394Y-73339920D01*
X166116000Y-73348314D01*
X166116000Y-72373917D01*
X166115999Y-72373917D01*
X165920928Y-72426187D01*
X165920926Y-72426188D01*
X165713501Y-72522912D01*
X165526025Y-72654184D01*
X165526019Y-72654189D01*
X165364189Y-72816019D01*
X165364184Y-72816025D01*
X165232910Y-73003503D01*
X165214194Y-73043641D01*
X165167277Y-73096925D01*
X165099000Y-73116386D01*
X165031040Y-73095844D01*
X164985806Y-73043641D01*
X164967089Y-73003503D01*
X164835815Y-72816025D01*
X164835810Y-72816019D01*
X164673980Y-72654189D01*
X164673974Y-72654184D01*
X164486498Y-72522912D01*
X164279073Y-72426188D01*
X164279071Y-72426187D01*
X164084000Y-72373917D01*
X164084000Y-73348314D01*
X164075606Y-73339920D01*
X163984394Y-73287259D01*
X163882661Y-73260000D01*
X163777339Y-73260000D01*
X163675606Y-73287259D01*
X163584394Y-73339920D01*
X163576000Y-73348314D01*
X163576000Y-72373917D01*
X163575999Y-72373917D01*
X163380928Y-72426187D01*
X163380926Y-72426188D01*
X163173501Y-72522912D01*
X162986025Y-72654184D01*
X162986019Y-72654189D01*
X162824189Y-72816019D01*
X162824184Y-72816025D01*
X162692912Y-73003501D01*
X162596188Y-73210926D01*
X162596186Y-73210931D01*
X162543917Y-73406000D01*
X160653500Y-73406000D01*
X160653500Y-73290064D01*
X160653499Y-73290060D01*
X160652942Y-73287259D01*
X160629155Y-73167672D01*
X160581400Y-73052382D01*
X160512071Y-72948624D01*
X160423833Y-72860386D01*
X157063977Y-69500530D01*
X157029951Y-69438218D01*
X157031365Y-69378825D01*
X157048369Y-69315370D01*
X157068324Y-69087283D01*
X157048369Y-68859196D01*
X156989110Y-68638040D01*
X156892349Y-68430534D01*
X156761024Y-68242983D01*
X156599126Y-68081085D01*
X156569643Y-68060441D01*
X156501692Y-68012861D01*
X156411575Y-67949760D01*
X156372369Y-67931478D01*
X156319084Y-67884562D01*
X156299622Y-67816285D01*
X156320163Y-67748325D01*
X156372369Y-67703088D01*
X156374823Y-67701943D01*
X156411575Y-67684806D01*
X156599126Y-67553481D01*
X156761024Y-67391583D01*
X156892349Y-67204032D01*
X156989110Y-66996526D01*
X157048369Y-66775370D01*
X157068324Y-66547283D01*
X157048369Y-66319196D01*
X156989110Y-66098040D01*
X156892349Y-65890534D01*
X156761024Y-65702983D01*
X156599126Y-65541085D01*
X156411575Y-65409760D01*
X156372369Y-65391478D01*
X156319084Y-65344562D01*
X156299622Y-65276285D01*
X156320163Y-65208325D01*
X156372369Y-65163088D01*
X156374823Y-65161943D01*
X156411575Y-65144806D01*
X156599126Y-65013481D01*
X156761024Y-64851583D01*
X156892349Y-64664032D01*
X156989110Y-64456526D01*
X157048369Y-64235370D01*
X157068324Y-64007283D01*
X157048369Y-63779196D01*
X156989110Y-63558040D01*
X156892349Y-63350534D01*
X156761024Y-63162983D01*
X156599126Y-63001085D01*
X156411575Y-62869760D01*
X156402722Y-62865632D01*
X156372369Y-62851478D01*
X156319084Y-62804562D01*
X156299622Y-62736285D01*
X156320163Y-62668325D01*
X156372369Y-62623088D01*
X156374823Y-62621943D01*
X156411575Y-62604806D01*
X156599126Y-62473481D01*
X156761024Y-62311583D01*
X156892349Y-62124032D01*
X156989110Y-61916526D01*
X157048369Y-61695370D01*
X157068324Y-61467283D01*
X157048369Y-61239196D01*
X156989110Y-61018040D01*
X156892349Y-60810534D01*
X156761024Y-60622983D01*
X156599126Y-60461085D01*
X156411575Y-60329760D01*
X156372369Y-60311478D01*
X156319084Y-60264562D01*
X156299622Y-60196285D01*
X156320163Y-60128325D01*
X156372369Y-60083088D01*
X156374823Y-60081943D01*
X156411575Y-60064806D01*
X156599126Y-59933481D01*
X156761024Y-59771583D01*
X156892349Y-59584032D01*
X156989110Y-59376526D01*
X157048369Y-59155370D01*
X157068324Y-58927283D01*
X157048369Y-58699196D01*
X156989110Y-58478040D01*
X156892349Y-58270534D01*
X156761024Y-58082983D01*
X156599126Y-57921085D01*
X156411575Y-57789760D01*
X156372369Y-57771478D01*
X156319084Y-57724562D01*
X156299622Y-57656285D01*
X156320163Y-57588325D01*
X156372369Y-57543088D01*
X156374823Y-57541943D01*
X156411575Y-57524806D01*
X156599126Y-57393481D01*
X156761024Y-57231583D01*
X156892349Y-57044032D01*
X156989110Y-56836526D01*
X157048369Y-56615370D01*
X157068324Y-56387283D01*
X157048369Y-56159196D01*
X156989110Y-55938040D01*
X156892349Y-55730534D01*
X156761024Y-55542983D01*
X156599126Y-55381085D01*
X156549839Y-55346574D01*
X156411575Y-55249760D01*
X156371777Y-55231202D01*
X156318492Y-55184285D01*
X156299031Y-55116008D01*
X156319573Y-55048048D01*
X156371777Y-55002812D01*
X156411323Y-54984371D01*
X156482714Y-54934382D01*
X156482714Y-54934380D01*
X155920599Y-54372265D01*
X155967118Y-54359801D01*
X156092534Y-54287393D01*
X156194936Y-54184991D01*
X156267344Y-54059575D01*
X156279808Y-54013056D01*
X156841923Y-54575171D01*
X156841925Y-54575171D01*
X156891914Y-54503780D01*
X156988637Y-54296356D01*
X156988639Y-54296351D01*
X157047874Y-54075285D01*
X157067821Y-53847283D01*
X157047874Y-53619280D01*
X156988639Y-53398214D01*
X156988637Y-53398209D01*
X156891912Y-53190781D01*
X156841926Y-53119393D01*
X156841924Y-53119393D01*
X156279808Y-53681509D01*
X156267344Y-53634991D01*
X156194936Y-53509575D01*
X156092534Y-53407173D01*
X155967118Y-53334765D01*
X155920598Y-53322299D01*
X156482714Y-52760182D01*
X156482714Y-52760181D01*
X156411327Y-52710196D01*
X156371775Y-52691752D01*
X156318491Y-52644834D01*
X156299031Y-52576556D01*
X156319574Y-52508597D01*
X156371776Y-52463364D01*
X156411575Y-52444806D01*
X156599126Y-52313481D01*
X156761024Y-52151583D01*
X156892349Y-51964032D01*
X156989110Y-51756526D01*
X157048369Y-51535370D01*
X157068324Y-51307283D01*
X157066799Y-51289854D01*
X157080786Y-51220250D01*
X157130184Y-51169257D01*
X157199310Y-51153065D01*
X157266216Y-51176816D01*
X157281414Y-51189776D01*
X163159595Y-57067956D01*
X163193621Y-57130268D01*
X163196500Y-57157051D01*
X163196500Y-62280606D01*
X163176498Y-62348727D01*
X163142771Y-62383819D01*
X162985703Y-62493799D01*
X162985697Y-62493804D01*
X162823804Y-62655697D01*
X162823799Y-62655703D01*
X162692477Y-62843250D01*
X162595717Y-63050753D01*
X162595715Y-63050759D01*
X162565645Y-63162983D01*
X162536457Y-63271913D01*
X162516502Y-63500000D01*
X162536457Y-63728087D01*
X162541012Y-63745086D01*
X162595715Y-63949240D01*
X162595717Y-63949246D01*
X162622780Y-64007283D01*
X162692477Y-64156749D01*
X162823802Y-64344300D01*
X162985700Y-64506198D01*
X163173251Y-64637523D01*
X163380757Y-64734284D01*
X163601913Y-64793543D01*
X163830000Y-64813498D01*
X164058087Y-64793543D01*
X164279243Y-64734284D01*
X164486749Y-64637523D01*
X164674300Y-64506198D01*
X164836198Y-64344300D01*
X164967523Y-64156749D01*
X165064284Y-63949243D01*
X165123543Y-63728087D01*
X165143498Y-63500000D01*
X165123543Y-63271913D01*
X165106540Y-63208457D01*
X165108229Y-63137481D01*
X165139149Y-63086753D01*
X169668925Y-58556979D01*
X169731237Y-58522953D01*
X169758020Y-58520074D01*
X169834750Y-58520074D01*
X169902871Y-58540076D01*
X169940233Y-58577159D01*
X170036063Y-58723839D01*
X170036067Y-58723844D01*
X170188550Y-58889482D01*
X170237117Y-58927283D01*
X170366212Y-59027763D01*
X170399468Y-59045760D01*
X170449859Y-59095774D01*
X170465211Y-59165090D01*
X170440650Y-59231703D01*
X170399468Y-59267387D01*
X170366214Y-59285384D01*
X170366212Y-59285385D01*
X170188550Y-59423665D01*
X170036067Y-59589303D01*
X170036063Y-59589308D01*
X169912929Y-59777780D01*
X169822491Y-59983960D01*
X169822490Y-59983961D01*
X169767225Y-60202198D01*
X169767224Y-60202204D01*
X169767224Y-60202206D01*
X169748632Y-60426574D01*
X169764907Y-60622986D01*
X169767225Y-60650949D01*
X169822490Y-60869186D01*
X169822491Y-60869187D01*
X169822492Y-60869190D01*
X169887783Y-61018040D01*
X169912929Y-61075367D01*
X170036063Y-61263839D01*
X170036067Y-61263844D01*
X170188550Y-61429482D01*
X170237117Y-61467283D01*
X170366212Y-61567763D01*
X170399468Y-61585760D01*
X170449859Y-61635774D01*
X170465211Y-61705090D01*
X170440650Y-61771703D01*
X170399468Y-61807388D01*
X170366214Y-61825384D01*
X170366212Y-61825385D01*
X170188550Y-61963665D01*
X170036067Y-62129303D01*
X170036063Y-62129308D01*
X169912929Y-62317780D01*
X169822491Y-62523960D01*
X169822490Y-62523961D01*
X169767225Y-62742198D01*
X169767224Y-62742204D01*
X169767224Y-62742206D01*
X169748632Y-62966574D01*
X169764907Y-63162986D01*
X169767225Y-63190949D01*
X169822490Y-63409186D01*
X169822491Y-63409187D01*
X169822492Y-63409190D01*
X169912928Y-63615365D01*
X169912929Y-63615367D01*
X170036063Y-63803839D01*
X170036067Y-63803844D01*
X170188550Y-63969482D01*
X170237117Y-64007283D01*
X170366212Y-64107763D01*
X170399993Y-64126044D01*
X170450384Y-64176056D01*
X170465737Y-64245373D01*
X170441177Y-64311986D01*
X170399996Y-64347671D01*
X170366488Y-64365804D01*
X170366481Y-64365809D01*
X170346099Y-64381673D01*
X170346098Y-64381674D01*
X170978674Y-65014250D01*
X170914935Y-65031329D01*
X170798641Y-65098472D01*
X170703686Y-65193427D01*
X170636543Y-65309721D01*
X170619464Y-65373460D01*
X169988709Y-64742705D01*
X169988708Y-64742706D01*
X169913374Y-64858013D01*
X169913367Y-64858027D01*
X169822967Y-65064117D01*
X169822964Y-65064124D01*
X169767720Y-65282281D01*
X169749134Y-65506574D01*
X169767720Y-65730866D01*
X169822964Y-65949023D01*
X169822967Y-65949030D01*
X169913368Y-66155122D01*
X169988709Y-66270440D01*
X170619463Y-65639685D01*
X170636543Y-65703427D01*
X170703686Y-65819721D01*
X170798641Y-65914676D01*
X170914935Y-65981819D01*
X170978673Y-65998897D01*
X170346098Y-66631472D01*
X170366485Y-66647340D01*
X170366489Y-66647342D01*
X170564416Y-66754456D01*
X170564418Y-66754457D01*
X170777271Y-66827529D01*
X170777278Y-66827531D01*
X170999265Y-66864574D01*
X171224311Y-66864574D01*
X171446297Y-66827531D01*
X171446304Y-66827529D01*
X171659157Y-66754457D01*
X171659159Y-66754455D01*
X171857086Y-66647343D01*
X171877476Y-66631472D01*
X171244901Y-65998897D01*
X171308641Y-65981819D01*
X171424935Y-65914676D01*
X171519890Y-65819721D01*
X171587033Y-65703427D01*
X171604111Y-65639686D01*
X172234865Y-66270440D01*
X172310207Y-66155122D01*
X172400608Y-65949030D01*
X172400611Y-65949023D01*
X172455855Y-65730866D01*
X172474441Y-65506574D01*
X172455855Y-65282281D01*
X172400611Y-65064124D01*
X172400608Y-65064117D01*
X172310207Y-64858025D01*
X172234865Y-64742706D01*
X171604111Y-65373459D01*
X171587033Y-65309721D01*
X171519890Y-65193427D01*
X171424935Y-65098472D01*
X171308641Y-65031329D01*
X171244900Y-65014250D01*
X171877476Y-64381674D01*
X171877475Y-64381673D01*
X171857096Y-64365811D01*
X171857086Y-64365805D01*
X171823579Y-64347671D01*
X171773189Y-64297657D01*
X171757838Y-64228340D01*
X171782400Y-64161727D01*
X171823578Y-64126046D01*
X171857364Y-64107763D01*
X172035028Y-63969480D01*
X172187510Y-63803842D01*
X172310648Y-63615365D01*
X172401084Y-63409190D01*
X172456352Y-63190942D01*
X172473994Y-62978034D01*
X172499552Y-62911802D01*
X172556864Y-62869898D01*
X172627732Y-62865632D01*
X172688658Y-62899348D01*
X175859595Y-66070285D01*
X175893621Y-66132597D01*
X175896500Y-66159380D01*
X175896500Y-72440606D01*
X175876498Y-72508727D01*
X175842771Y-72543819D01*
X175685703Y-72653799D01*
X175685697Y-72653804D01*
X175523804Y-72815697D01*
X175523799Y-72815703D01*
X175392477Y-73003250D01*
X175295717Y-73210753D01*
X175295715Y-73210759D01*
X175259281Y-73346733D01*
X175236457Y-73431913D01*
X175216502Y-73660000D01*
X175236457Y-73888087D01*
X175250152Y-73939196D01*
X175295715Y-74109240D01*
X175295717Y-74109246D01*
X175373643Y-74276359D01*
X175392477Y-74316749D01*
X175523802Y-74504300D01*
X175685700Y-74666198D01*
X175873251Y-74797523D01*
X176080757Y-74894284D01*
X176301913Y-74953543D01*
X176530000Y-74973498D01*
X176758087Y-74953543D01*
X176979243Y-74894284D01*
X177186749Y-74797523D01*
X177374300Y-74666198D01*
X177536198Y-74504300D01*
X177667523Y-74316749D01*
X177764284Y-74109243D01*
X177823543Y-73888087D01*
X177843498Y-73660000D01*
X177823543Y-73431913D01*
X177764284Y-73210757D01*
X177667523Y-73003251D01*
X177536198Y-72815700D01*
X177374300Y-72653802D01*
X177345279Y-72633481D01*
X177217229Y-72543819D01*
X177172901Y-72488362D01*
X177163500Y-72440606D01*
X177163500Y-65782393D01*
X177163499Y-65782389D01*
X177139155Y-65660001D01*
X177091400Y-65544711D01*
X177022071Y-65440953D01*
X176933833Y-65352715D01*
X172461654Y-60880536D01*
X172427628Y-60818224D01*
X172428604Y-60760511D01*
X172456352Y-60650942D01*
X172474944Y-60426574D01*
X172456352Y-60202206D01*
X172453897Y-60192512D01*
X172401085Y-59983961D01*
X172401084Y-59983960D01*
X172401084Y-59983958D01*
X172310648Y-59777783D01*
X172244195Y-59676069D01*
X172187512Y-59589308D01*
X172187508Y-59589303D01*
X172035025Y-59423665D01*
X171953170Y-59359955D01*
X171857364Y-59285385D01*
X171824107Y-59267387D01*
X171773717Y-59217376D01*
X171758364Y-59148059D01*
X171782924Y-59081446D01*
X171824108Y-59045760D01*
X171857364Y-59027763D01*
X172035028Y-58889480D01*
X172187510Y-58723842D01*
X172310648Y-58535365D01*
X172401084Y-58329190D01*
X172456352Y-58110942D01*
X172474944Y-57886574D01*
X172456352Y-57662206D01*
X172401084Y-57443958D01*
X172310648Y-57237783D01*
X172240405Y-57130268D01*
X172187512Y-57049308D01*
X172187508Y-57049303D01*
X172035025Y-56883665D01*
X171901919Y-56780064D01*
X171857364Y-56745385D01*
X171824107Y-56727387D01*
X171773717Y-56677376D01*
X171758364Y-56608059D01*
X171782924Y-56541446D01*
X171824108Y-56505760D01*
X171831577Y-56501718D01*
X171857364Y-56487763D01*
X172035028Y-56349480D01*
X172187510Y-56183842D01*
X172310648Y-55995365D01*
X172401084Y-55789190D01*
X172456352Y-55570942D01*
X172474944Y-55346574D01*
X172456352Y-55122206D01*
X172421557Y-54984805D01*
X172401085Y-54903961D01*
X172401084Y-54903960D01*
X172401084Y-54903958D01*
X172310648Y-54697783D01*
X172230542Y-54575171D01*
X172187512Y-54509308D01*
X172187508Y-54509303D01*
X172071358Y-54383133D01*
X172035028Y-54343668D01*
X172035027Y-54343667D01*
X172035025Y-54343665D01*
X171953170Y-54279955D01*
X171857364Y-54205385D01*
X171824107Y-54187387D01*
X171773717Y-54137376D01*
X171758364Y-54068059D01*
X171782924Y-54001446D01*
X171824108Y-53965760D01*
X171857364Y-53947763D01*
X172035028Y-53809480D01*
X172187510Y-53643842D01*
X172310648Y-53455365D01*
X172401084Y-53249190D01*
X172456352Y-53030942D01*
X172474944Y-52806574D01*
X172456352Y-52582206D01*
X172401084Y-52363958D01*
X172310648Y-52157783D01*
X172269766Y-52095208D01*
X172187512Y-51969308D01*
X172187508Y-51969303D01*
X172035025Y-51803665D01*
X171925861Y-51718699D01*
X171857364Y-51665385D01*
X171824107Y-51647387D01*
X171773717Y-51597376D01*
X171758364Y-51528059D01*
X171782924Y-51461446D01*
X171824108Y-51425760D01*
X171857364Y-51407763D01*
X172035028Y-51269480D01*
X172187510Y-51103842D01*
X172310648Y-50915365D01*
X172401084Y-50709190D01*
X172456352Y-50490942D01*
X172474944Y-50266574D01*
X172456352Y-50042206D01*
X172415067Y-49879175D01*
X172401085Y-49823961D01*
X172401084Y-49823960D01*
X172401084Y-49823958D01*
X172310648Y-49617783D01*
X172254484Y-49531817D01*
X172187512Y-49429308D01*
X172187508Y-49429303D01*
X172035025Y-49263665D01*
X171915247Y-49170438D01*
X171857364Y-49125385D01*
X171659362Y-49018232D01*
X171659360Y-49018231D01*
X171659359Y-49018230D01*
X171446427Y-48945131D01*
X171446418Y-48945129D01*
X171402264Y-48937761D01*
X171224357Y-48908074D01*
X170999219Y-48908074D01*
X170873618Y-48929033D01*
X170777157Y-48945129D01*
X170777148Y-48945131D01*
X170564216Y-49018230D01*
X170564214Y-49018232D01*
X170379456Y-49118218D01*
X170366214Y-49125384D01*
X170366212Y-49125385D01*
X170188550Y-49263665D01*
X170036067Y-49429303D01*
X170036063Y-49429308D01*
X169912929Y-49617780D01*
X169822491Y-49823960D01*
X169822490Y-49823961D01*
X169767225Y-50042198D01*
X169767224Y-50042204D01*
X169767224Y-50042206D01*
X169748632Y-50266574D01*
X169767124Y-50489738D01*
X169767225Y-50490949D01*
X169822490Y-50709186D01*
X169822491Y-50709187D01*
X169822492Y-50709190D01*
X169887783Y-50858040D01*
X169912929Y-50915367D01*
X170036063Y-51103839D01*
X170036067Y-51103844D01*
X170188550Y-51269482D01*
X170237112Y-51307279D01*
X170366212Y-51407763D01*
X170399468Y-51425760D01*
X170449859Y-51475774D01*
X170465211Y-51545090D01*
X170440650Y-51611703D01*
X170399468Y-51647387D01*
X170366214Y-51665384D01*
X170366212Y-51665385D01*
X170188550Y-51803665D01*
X170036067Y-51969303D01*
X170036063Y-51969308D01*
X169912929Y-52157780D01*
X169822491Y-52363960D01*
X169822490Y-52363961D01*
X169767225Y-52582198D01*
X169767224Y-52582204D01*
X169767224Y-52582206D01*
X169748632Y-52806574D01*
X169766238Y-53019046D01*
X169767225Y-53030949D01*
X169822490Y-53249186D01*
X169822491Y-53249187D01*
X169822492Y-53249190D01*
X169912928Y-53455365D01*
X169912929Y-53455367D01*
X170036063Y-53643839D01*
X170036067Y-53643844D01*
X170188550Y-53809482D01*
X170214724Y-53829854D01*
X170366212Y-53947763D01*
X170399468Y-53965760D01*
X170449859Y-54015774D01*
X170465211Y-54085090D01*
X170440650Y-54151703D01*
X170399468Y-54187387D01*
X170366214Y-54205384D01*
X170366212Y-54205385D01*
X170188550Y-54343665D01*
X170036067Y-54509303D01*
X170036063Y-54509308D01*
X169912929Y-54697780D01*
X169822491Y-54903960D01*
X169822490Y-54903961D01*
X169767225Y-55122198D01*
X169767224Y-55122204D01*
X169767224Y-55122206D01*
X169748632Y-55346574D01*
X169766656Y-55564093D01*
X169767225Y-55570949D01*
X169822490Y-55789186D01*
X169822491Y-55789187D01*
X169822492Y-55789190D01*
X169887783Y-55938040D01*
X169912929Y-55995367D01*
X170036063Y-56183839D01*
X170036067Y-56183844D01*
X170188550Y-56349482D01*
X170199687Y-56358150D01*
X170366212Y-56487763D01*
X170391999Y-56501718D01*
X170399468Y-56505760D01*
X170449859Y-56555774D01*
X170465211Y-56625090D01*
X170440650Y-56691703D01*
X170399468Y-56727387D01*
X170366214Y-56745384D01*
X170366212Y-56745385D01*
X170188550Y-56883665D01*
X170036067Y-57049303D01*
X170036063Y-57049308D01*
X169940233Y-57195989D01*
X169886230Y-57242078D01*
X169834750Y-57253074D01*
X169381029Y-57253074D01*
X169307994Y-57267602D01*
X169258641Y-57277419D01*
X169258639Y-57277419D01*
X169258638Y-57277420D01*
X169143349Y-57325175D01*
X169039597Y-57394500D01*
X169039590Y-57394505D01*
X164678595Y-61755501D01*
X164616283Y-61789527D01*
X164545468Y-61784462D01*
X164488632Y-61741915D01*
X164463821Y-61675395D01*
X164463500Y-61666406D01*
X164463500Y-56780064D01*
X164463499Y-56780060D01*
X164456602Y-56745385D01*
X164439155Y-56657672D01*
X164421633Y-56615370D01*
X164391401Y-56542382D01*
X164322072Y-56438624D01*
X164322067Y-56438618D01*
X161410616Y-53527169D01*
X161376591Y-53464857D01*
X161381655Y-53394042D01*
X161424202Y-53337206D01*
X161490722Y-53312395D01*
X161499711Y-53312074D01*
X161739839Y-53312074D01*
X161739843Y-53312074D01*
X162002982Y-53272413D01*
X162257270Y-53193975D01*
X162497028Y-53078514D01*
X162716898Y-52928609D01*
X162848420Y-52806574D01*
X162911968Y-52747610D01*
X162911968Y-52747609D01*
X162911971Y-52747607D01*
X163077889Y-52539554D01*
X163208412Y-52313481D01*
X163210943Y-52309097D01*
X163270329Y-52157783D01*
X163308165Y-52061379D01*
X163367381Y-51801941D01*
X163387267Y-51536574D01*
X163367381Y-51271207D01*
X163308165Y-51011769D01*
X163210944Y-50764053D01*
X163210943Y-50764050D01*
X163077891Y-50533597D01*
X163077885Y-50533589D01*
X162911972Y-50325542D01*
X162911968Y-50325537D01*
X162716904Y-50144544D01*
X162716891Y-50144534D01*
X162497030Y-49994635D01*
X162497022Y-49994630D01*
X162257278Y-49879176D01*
X162257273Y-49879174D01*
X162257270Y-49879173D01*
X162159408Y-49848986D01*
X162002988Y-49800736D01*
X162002983Y-49800735D01*
X162002982Y-49800735D01*
X161739843Y-49761074D01*
X161473733Y-49761074D01*
X161210594Y-49800735D01*
X161210593Y-49800735D01*
X161210587Y-49800736D01*
X160956300Y-49879175D01*
X160716546Y-49994635D01*
X160716539Y-49994639D01*
X160496684Y-50144534D01*
X160496671Y-50144544D01*
X160301607Y-50325537D01*
X160301603Y-50325542D01*
X160135690Y-50533589D01*
X160135684Y-50533597D01*
X160002632Y-50764050D01*
X159905412Y-51011765D01*
X159905411Y-51011767D01*
X159846196Y-51271200D01*
X159846195Y-51271204D01*
X159834613Y-51425760D01*
X159826309Y-51536574D01*
X159830865Y-51597376D01*
X159833846Y-51637145D01*
X159818990Y-51706570D01*
X159768959Y-51756943D01*
X159699636Y-51772270D01*
X159633032Y-51747685D01*
X159619103Y-51735656D01*
X157063977Y-49180530D01*
X157029951Y-49118218D01*
X157031365Y-49058825D01*
X157048369Y-48995370D01*
X157068324Y-48767283D01*
X157048369Y-48539196D01*
X156989110Y-48318040D01*
X156892349Y-48110534D01*
X156761024Y-47922983D01*
X156599126Y-47761085D01*
X156590731Y-47755207D01*
X156536824Y-47717460D01*
X156411575Y-47629760D01*
X156372369Y-47611478D01*
X156319084Y-47564562D01*
X156299622Y-47496285D01*
X156320163Y-47428325D01*
X156372369Y-47383088D01*
X156374823Y-47381943D01*
X156411575Y-47364806D01*
X156599126Y-47233481D01*
X156761024Y-47071583D01*
X156892349Y-46884032D01*
X156989110Y-46676526D01*
X157048369Y-46455370D01*
X157068324Y-46227283D01*
X157048369Y-45999196D01*
X156989110Y-45778040D01*
X156892349Y-45570534D01*
X156761024Y-45382983D01*
X156599126Y-45221085D01*
X156589070Y-45214044D01*
X156478269Y-45136460D01*
X156411575Y-45089760D01*
X156399042Y-45083916D01*
X156372369Y-45071478D01*
X156319084Y-45024562D01*
X156299622Y-44956285D01*
X156320163Y-44888325D01*
X156372369Y-44843088D01*
X156374823Y-44841943D01*
X156411575Y-44824806D01*
X156599126Y-44693481D01*
X156761024Y-44531583D01*
X156892349Y-44344032D01*
X156989110Y-44136526D01*
X157048369Y-43915370D01*
X157068324Y-43687283D01*
X157048369Y-43459196D01*
X156989110Y-43238040D01*
X156892349Y-43030534D01*
X156761024Y-42842983D01*
X156599126Y-42681085D01*
X156411575Y-42549760D01*
X156372369Y-42531478D01*
X156319084Y-42484562D01*
X156299622Y-42416285D01*
X156320163Y-42348325D01*
X156372369Y-42303088D01*
X156374823Y-42301943D01*
X156411575Y-42284806D01*
X156599126Y-42153481D01*
X156761024Y-41991583D01*
X156871007Y-41834512D01*
X156926464Y-41790184D01*
X156974220Y-41780783D01*
X157196233Y-41780783D01*
X157196234Y-41780783D01*
X157318625Y-41756438D01*
X157433915Y-41708683D01*
X157537673Y-41639354D01*
X161117870Y-38059156D01*
X161180180Y-38025132D01*
X161250995Y-38030197D01*
X161307831Y-38072744D01*
X161332532Y-38137846D01*
X161335914Y-38178645D01*
X161350175Y-38350755D01*
X161377921Y-38460321D01*
X161375253Y-38531267D01*
X161344871Y-38580346D01*
X159557861Y-40367358D01*
X159469625Y-40455593D01*
X159469620Y-40455600D01*
X159400295Y-40559352D01*
X159352540Y-40674641D01*
X159328194Y-40797032D01*
X159328194Y-42351073D01*
X159308192Y-42419194D01*
X159254536Y-42465687D01*
X159202194Y-42477073D01*
X159063044Y-42477073D01*
X159002497Y-42483582D01*
X159002489Y-42483584D01*
X158865491Y-42534683D01*
X158865486Y-42534685D01*
X158748432Y-42622311D01*
X158660806Y-42739365D01*
X158660804Y-42739370D01*
X158609705Y-42876368D01*
X158609703Y-42876376D01*
X158603194Y-42936923D01*
X158603194Y-44734222D01*
X158609703Y-44794769D01*
X158609705Y-44794777D01*
X158660804Y-44931775D01*
X158660806Y-44931780D01*
X158748432Y-45048834D01*
X158865486Y-45136460D01*
X158865488Y-45136461D01*
X158865490Y-45136462D01*
X158919294Y-45156530D01*
X159002489Y-45187561D01*
X159002497Y-45187563D01*
X159063044Y-45194072D01*
X159063049Y-45194072D01*
X159063056Y-45194073D01*
X159063062Y-45194073D01*
X160860326Y-45194073D01*
X160860332Y-45194073D01*
X160860339Y-45194072D01*
X160860343Y-45194072D01*
X160920890Y-45187563D01*
X160920893Y-45187562D01*
X160920895Y-45187562D01*
X161057898Y-45136462D01*
X161120285Y-45089760D01*
X161174955Y-45048834D01*
X161262580Y-44931781D01*
X161262579Y-44931781D01*
X161262583Y-44931777D01*
X161306693Y-44813512D01*
X161349239Y-44756680D01*
X161415760Y-44731869D01*
X161485134Y-44746961D01*
X161517447Y-44772208D01*
X161538223Y-44794777D01*
X161578456Y-44838481D01*
X161633025Y-44880954D01*
X161756118Y-44976762D01*
X161954120Y-45083915D01*
X161954121Y-45083915D01*
X161954122Y-45083916D01*
X162065921Y-45122296D01*
X162167059Y-45157017D01*
X162389125Y-45194073D01*
X162389129Y-45194073D01*
X162614259Y-45194073D01*
X162614263Y-45194073D01*
X162836329Y-45157017D01*
X163049268Y-45083915D01*
X163247270Y-44976762D01*
X163424934Y-44838479D01*
X163577416Y-44672841D01*
X163666510Y-44536471D01*
X163720513Y-44490383D01*
X163790861Y-44480808D01*
X163855218Y-44510785D01*
X163877476Y-44536471D01*
X163966368Y-44672531D01*
X164118791Y-44838107D01*
X164296392Y-44976340D01*
X164296393Y-44976341D01*
X164494322Y-45083455D01*
X164494324Y-45083456D01*
X164707177Y-45156528D01*
X164707186Y-45156530D01*
X164787694Y-45169964D01*
X164787694Y-44266275D01*
X164848701Y-44301498D01*
X164975868Y-44335573D01*
X165107520Y-44335573D01*
X165234687Y-44301498D01*
X165295694Y-44266275D01*
X165295694Y-45169963D01*
X165376201Y-45156530D01*
X165376210Y-45156528D01*
X165589063Y-45083456D01*
X165589065Y-45083455D01*
X165786994Y-44976341D01*
X165786995Y-44976340D01*
X165964596Y-44838107D01*
X166117019Y-44672531D01*
X166240113Y-44484121D01*
X166330514Y-44278029D01*
X166330517Y-44278022D01*
X166378238Y-44089573D01*
X165472397Y-44089573D01*
X165507619Y-44028566D01*
X165541694Y-43901399D01*
X165541694Y-43769747D01*
X165507619Y-43642580D01*
X165472397Y-43581573D01*
X166378238Y-43581573D01*
X166378238Y-43581572D01*
X166330517Y-43393123D01*
X166330514Y-43393116D01*
X166240113Y-43187024D01*
X166117019Y-42998614D01*
X165964596Y-42833038D01*
X165786995Y-42694805D01*
X165786994Y-42694804D01*
X165589065Y-42587690D01*
X165589063Y-42587689D01*
X165376206Y-42514616D01*
X165376195Y-42514613D01*
X165295694Y-42501179D01*
X165295694Y-43404870D01*
X165234687Y-43369648D01*
X165107520Y-43335573D01*
X164975868Y-43335573D01*
X164848701Y-43369648D01*
X164787694Y-43404870D01*
X164787694Y-42501180D01*
X164787693Y-42501179D01*
X164707192Y-42514613D01*
X164707181Y-42514616D01*
X164494324Y-42587689D01*
X164494322Y-42587690D01*
X164296393Y-42694804D01*
X164296392Y-42694805D01*
X164118791Y-42833038D01*
X163966364Y-42998618D01*
X163877474Y-43134674D01*
X163823470Y-43180762D01*
X163753122Y-43190337D01*
X163688765Y-43160359D01*
X163666510Y-43134674D01*
X163627578Y-43075084D01*
X163577418Y-42998307D01*
X163577414Y-42998302D01*
X163434433Y-42842986D01*
X163424934Y-42832667D01*
X163424933Y-42832666D01*
X163424931Y-42832664D01*
X163273834Y-42715060D01*
X163247270Y-42694384D01*
X163049268Y-42587231D01*
X163049266Y-42587230D01*
X163049265Y-42587229D01*
X162836333Y-42514130D01*
X162836324Y-42514128D01*
X162758723Y-42501179D01*
X162614263Y-42477073D01*
X162389125Y-42477073D01*
X162244665Y-42501179D01*
X162167063Y-42514128D01*
X162167054Y-42514130D01*
X161954122Y-42587229D01*
X161954120Y-42587231D01*
X161768052Y-42687926D01*
X161756120Y-42694383D01*
X161756118Y-42694384D01*
X161578456Y-42832664D01*
X161517448Y-42898936D01*
X161456595Y-42935506D01*
X161385630Y-42933371D01*
X161327085Y-42893209D01*
X161306693Y-42857630D01*
X161262583Y-42739370D01*
X161262581Y-42739365D01*
X161174955Y-42622311D01*
X161057901Y-42534685D01*
X161057896Y-42534683D01*
X160920898Y-42483584D01*
X160920890Y-42483582D01*
X160860343Y-42477073D01*
X160860332Y-42477073D01*
X160721194Y-42477073D01*
X160653073Y-42457071D01*
X160606580Y-42403415D01*
X160595194Y-42351073D01*
X160595194Y-41174022D01*
X160615196Y-41105901D01*
X160632094Y-41084932D01*
X162236944Y-39480081D01*
X162299254Y-39446058D01*
X162354957Y-39447000D01*
X162354963Y-39446970D01*
X162355169Y-39447004D01*
X162356975Y-39447035D01*
X162360095Y-39447825D01*
X162360104Y-39447828D01*
X162582170Y-39484884D01*
X162582174Y-39484884D01*
X162807304Y-39484884D01*
X162807308Y-39484884D01*
X163029374Y-39447828D01*
X163029390Y-39447822D01*
X163032490Y-39447038D01*
X163033811Y-39447087D01*
X163034516Y-39446970D01*
X163034540Y-39447114D01*
X163103437Y-39449695D01*
X163152534Y-39480083D01*
X179236544Y-55564093D01*
X179270570Y-55626405D01*
X179273449Y-55653188D01*
X179273449Y-55678433D01*
X179253447Y-55746554D01*
X179213284Y-55785865D01*
X179017540Y-55905817D01*
X179017529Y-55905825D01*
X178836979Y-56060029D01*
X178682775Y-56240579D01*
X178682774Y-56240581D01*
X178558708Y-56443037D01*
X178467843Y-56662406D01*
X178424537Y-56842790D01*
X178412414Y-56893288D01*
X178393784Y-57129999D01*
X178412414Y-57366710D01*
X178419087Y-57394505D01*
X178467843Y-57597591D01*
X178547442Y-57789760D01*
X178558709Y-57816962D01*
X178622517Y-57921087D01*
X178682774Y-58019416D01*
X178682775Y-58019418D01*
X178836979Y-58199968D01*
X178988279Y-58329190D01*
X179017533Y-58354175D01*
X179219986Y-58478239D01*
X179439355Y-58569104D01*
X179670238Y-58624534D01*
X179906949Y-58643164D01*
X180143660Y-58624534D01*
X180374543Y-58569104D01*
X180593912Y-58478239D01*
X180796365Y-58354175D01*
X180976918Y-58199968D01*
X181131125Y-58019415D01*
X181255189Y-57816962D01*
X181346054Y-57597593D01*
X181401484Y-57366710D01*
X181420114Y-57129999D01*
X181401484Y-56893288D01*
X181346054Y-56662405D01*
X181255189Y-56443036D01*
X181131125Y-56240583D01*
X181131122Y-56240579D01*
X180976918Y-56060029D01*
X180796368Y-55905825D01*
X180796357Y-55905817D01*
X180600614Y-55785865D01*
X180552983Y-55733218D01*
X180540449Y-55678433D01*
X180540449Y-55276201D01*
X180540448Y-55276197D01*
X180516104Y-55153809D01*
X180468349Y-55038519D01*
X180399020Y-54934761D01*
X180310782Y-54846523D01*
X173945608Y-48481349D01*
X178398449Y-48481349D01*
X178398449Y-50578648D01*
X178404958Y-50639195D01*
X178404960Y-50639203D01*
X178456059Y-50776201D01*
X178456061Y-50776206D01*
X178543687Y-50893260D01*
X178660741Y-50980886D01*
X178660743Y-50980887D01*
X178660745Y-50980888D01*
X178719824Y-51002923D01*
X178797744Y-51031987D01*
X178797752Y-51031989D01*
X178858299Y-51038498D01*
X178858304Y-51038498D01*
X178858311Y-51038499D01*
X178858317Y-51038499D01*
X180955581Y-51038499D01*
X180955587Y-51038499D01*
X180955594Y-51038498D01*
X180955598Y-51038498D01*
X181016145Y-51031989D01*
X181016148Y-51031988D01*
X181016150Y-51031988D01*
X181153153Y-50980888D01*
X181156464Y-50978410D01*
X181270210Y-50893260D01*
X181357836Y-50776206D01*
X181357836Y-50776205D01*
X181357838Y-50776203D01*
X181408938Y-50639200D01*
X181415449Y-50578637D01*
X181415449Y-48481361D01*
X181415448Y-48481349D01*
X181408939Y-48420802D01*
X181408937Y-48420794D01*
X181373469Y-48325702D01*
X181357838Y-48283795D01*
X181357837Y-48283793D01*
X181357836Y-48283791D01*
X181270210Y-48166737D01*
X181153156Y-48079111D01*
X181153151Y-48079109D01*
X181016153Y-48028010D01*
X181016145Y-48028008D01*
X180955598Y-48021499D01*
X180955587Y-48021499D01*
X178858311Y-48021499D01*
X178858299Y-48021499D01*
X178797752Y-48028008D01*
X178797744Y-48028010D01*
X178660746Y-48079109D01*
X178660741Y-48079111D01*
X178543687Y-48166737D01*
X178456061Y-48283791D01*
X178456059Y-48283796D01*
X178404960Y-48420794D01*
X178404958Y-48420802D01*
X178398449Y-48481349D01*
X173945608Y-48481349D01*
X164044605Y-38580346D01*
X164010579Y-38518034D01*
X164011555Y-38460321D01*
X164039303Y-38350752D01*
X164057895Y-38126384D01*
X164039303Y-37902016D01*
X164020254Y-37826793D01*
X163984036Y-37683771D01*
X163984035Y-37683770D01*
X163984035Y-37683768D01*
X163893599Y-37477593D01*
X163863904Y-37432141D01*
X163770463Y-37289118D01*
X163770459Y-37289113D01*
X163654309Y-37162943D01*
X163617979Y-37123478D01*
X163617978Y-37123477D01*
X163617976Y-37123475D01*
X163486400Y-37021065D01*
X163440315Y-36985195D01*
X163407058Y-36967197D01*
X163356668Y-36917186D01*
X163341315Y-36847869D01*
X163365875Y-36781256D01*
X163407059Y-36745570D01*
X163440315Y-36727573D01*
X163617979Y-36589290D01*
X163770461Y-36423652D01*
X163893599Y-36235175D01*
X163984035Y-36029000D01*
X164039303Y-35810752D01*
X164057895Y-35586384D01*
X164039303Y-35362016D01*
X164039301Y-35362008D01*
X163984036Y-35143771D01*
X163984035Y-35143770D01*
X163984035Y-35143768D01*
X163893599Y-34937593D01*
X163863904Y-34892141D01*
X163770463Y-34749118D01*
X163770459Y-34749113D01*
X163654309Y-34622943D01*
X163617979Y-34583478D01*
X163617978Y-34583477D01*
X163617976Y-34583475D01*
X163486400Y-34481065D01*
X163440315Y-34445195D01*
X163407058Y-34427197D01*
X163356668Y-34377186D01*
X163341315Y-34307869D01*
X163365875Y-34241256D01*
X163407059Y-34205570D01*
X163440315Y-34187573D01*
X163617979Y-34049290D01*
X163770461Y-33883652D01*
X163893599Y-33695175D01*
X163984035Y-33489000D01*
X164039303Y-33270752D01*
X164057895Y-33046384D01*
X164039303Y-32822016D01*
X164020254Y-32746793D01*
X163984036Y-32603771D01*
X163984035Y-32603770D01*
X163984035Y-32603768D01*
X163893599Y-32397593D01*
X163863904Y-32352141D01*
X163770463Y-32209118D01*
X163770458Y-32209113D01*
X163692846Y-32124805D01*
X163627263Y-32053563D01*
X163595842Y-31989898D01*
X163603829Y-31919352D01*
X163648687Y-31864323D01*
X163675922Y-31850173D01*
X163790943Y-31807273D01*
X163811072Y-31792205D01*
X163908000Y-31719645D01*
X163995626Y-31602591D01*
X163995626Y-31602590D01*
X163995628Y-31602588D01*
X164046728Y-31465585D01*
X164049853Y-31436523D01*
X164053238Y-31405033D01*
X164053239Y-31405016D01*
X164053239Y-29607751D01*
X164053238Y-29607734D01*
X164046729Y-29547187D01*
X164046727Y-29547179D01*
X163995628Y-29410181D01*
X163995626Y-29410176D01*
X163908000Y-29293122D01*
X163790946Y-29205496D01*
X163790941Y-29205494D01*
X163653943Y-29154395D01*
X163653935Y-29154393D01*
X163593388Y-29147884D01*
X163593377Y-29147884D01*
X162284333Y-29147884D01*
X162216212Y-29127882D01*
X162195238Y-29110979D01*
X155452190Y-22367931D01*
X155452188Y-22367929D01*
X155348430Y-22298600D01*
X155233140Y-22250845D01*
X155159441Y-22236185D01*
X155110751Y-22226500D01*
X155110749Y-22226500D01*
X119442394Y-22226500D01*
X119317606Y-22226500D01*
X119317603Y-22226500D01*
X119244568Y-22241028D01*
X119195215Y-22250845D01*
X119195213Y-22250845D01*
X119195212Y-22250846D01*
X119079923Y-22298601D01*
X118976171Y-22367926D01*
X118976164Y-22367931D01*
X118887931Y-22456164D01*
X118887926Y-22456171D01*
X118818601Y-22559923D01*
X118770846Y-22675212D01*
X118746500Y-22797603D01*
X118746500Y-29670376D01*
X118726498Y-29738497D01*
X118709599Y-29759466D01*
X118326086Y-30142980D01*
X117955651Y-30513415D01*
X117893339Y-30547440D01*
X117822523Y-30542375D01*
X117789168Y-30523752D01*
X117664410Y-30426648D01*
X117466408Y-30319495D01*
X117466406Y-30319494D01*
X117466405Y-30319493D01*
X117253473Y-30246394D01*
X117253464Y-30246392D01*
X117209310Y-30239024D01*
X117031403Y-30209337D01*
X116806265Y-30209337D01*
X116658045Y-30234070D01*
X116584203Y-30246392D01*
X116584194Y-30246394D01*
X116371262Y-30319493D01*
X116371260Y-30319495D01*
X116173260Y-30426647D01*
X116173258Y-30426648D01*
X115995596Y-30564928D01*
X115843113Y-30730566D01*
X115754317Y-30866480D01*
X115700313Y-30912568D01*
X115629965Y-30922143D01*
X115565608Y-30892166D01*
X115543351Y-30866480D01*
X115454554Y-30730566D01*
X115338404Y-30604396D01*
X115302074Y-30564931D01*
X115302073Y-30564930D01*
X115302071Y-30564928D01*
X115220216Y-30501218D01*
X115124410Y-30426648D01*
X114926408Y-30319495D01*
X114926406Y-30319494D01*
X114926405Y-30319493D01*
X114713473Y-30246394D01*
X114713464Y-30246392D01*
X114669310Y-30239024D01*
X114491403Y-30209337D01*
X114266265Y-30209337D01*
X114118045Y-30234070D01*
X114044203Y-30246392D01*
X114044194Y-30246394D01*
X113831262Y-30319493D01*
X113831260Y-30319495D01*
X113633260Y-30426647D01*
X113633258Y-30426648D01*
X113455596Y-30564928D01*
X113303113Y-30730566D01*
X113214317Y-30866480D01*
X113160313Y-30912568D01*
X113089965Y-30922143D01*
X113025608Y-30892166D01*
X113003351Y-30866480D01*
X112914554Y-30730566D01*
X112798404Y-30604396D01*
X112762074Y-30564931D01*
X112762073Y-30564930D01*
X112762071Y-30564928D01*
X112680216Y-30501218D01*
X112584410Y-30426648D01*
X112386408Y-30319495D01*
X112386406Y-30319494D01*
X112386405Y-30319493D01*
X112173473Y-30246394D01*
X112173464Y-30246392D01*
X112129310Y-30239024D01*
X111951403Y-30209337D01*
X111726265Y-30209337D01*
X111578045Y-30234070D01*
X111504203Y-30246392D01*
X111504194Y-30246394D01*
X111291262Y-30319493D01*
X111291260Y-30319495D01*
X111093260Y-30426647D01*
X111093258Y-30426648D01*
X110915596Y-30564928D01*
X110763113Y-30730566D01*
X110674317Y-30866480D01*
X110620313Y-30912568D01*
X110549965Y-30922143D01*
X110485608Y-30892166D01*
X110463351Y-30866480D01*
X110374554Y-30730566D01*
X110258404Y-30604396D01*
X110222074Y-30564931D01*
X110222073Y-30564930D01*
X110222071Y-30564928D01*
X110140216Y-30501218D01*
X110044410Y-30426648D01*
X109846408Y-30319495D01*
X109846406Y-30319494D01*
X109846405Y-30319493D01*
X109633473Y-30246394D01*
X109633464Y-30246392D01*
X109589310Y-30239024D01*
X109411403Y-30209337D01*
X109186265Y-30209337D01*
X109038045Y-30234070D01*
X108964203Y-30246392D01*
X108964194Y-30246394D01*
X108751262Y-30319493D01*
X108751260Y-30319495D01*
X108553260Y-30426647D01*
X108553258Y-30426648D01*
X108375596Y-30564928D01*
X108223113Y-30730566D01*
X108223109Y-30730571D01*
X108099975Y-30919043D01*
X108009537Y-31125223D01*
X108009536Y-31125224D01*
X107954271Y-31343461D01*
X107954270Y-31343467D01*
X107954270Y-31343469D01*
X107935678Y-31567837D01*
X107951670Y-31760830D01*
X107954271Y-31792212D01*
X108009536Y-32010449D01*
X108009537Y-32010450D01*
X108009538Y-32010453D01*
X108099974Y-32216628D01*
X108099975Y-32216630D01*
X108223109Y-32405102D01*
X108223113Y-32405107D01*
X108375596Y-32570745D01*
X108418028Y-32603771D01*
X108553258Y-32709026D01*
X108751260Y-32816179D01*
X108751261Y-32816179D01*
X108751262Y-32816180D01*
X108863061Y-32854560D01*
X108964199Y-32889281D01*
X109186265Y-32926337D01*
X109186269Y-32926337D01*
X109411399Y-32926337D01*
X109411403Y-32926337D01*
X109633469Y-32889281D01*
X109846408Y-32816179D01*
X110044410Y-32709026D01*
X110222074Y-32570743D01*
X110374556Y-32405105D01*
X110463352Y-32269191D01*
X110517354Y-32223105D01*
X110587702Y-32213529D01*
X110652059Y-32243506D01*
X110674314Y-32269190D01*
X110689870Y-32292999D01*
X110763109Y-32405102D01*
X110763113Y-32405107D01*
X110915596Y-32570745D01*
X110958028Y-32603771D01*
X111093258Y-32709026D01*
X111291260Y-32816179D01*
X111291261Y-32816179D01*
X111291262Y-32816180D01*
X111403061Y-32854560D01*
X111504199Y-32889281D01*
X111726265Y-32926337D01*
X111726269Y-32926337D01*
X111951399Y-32926337D01*
X111951403Y-32926337D01*
X112173469Y-32889281D01*
X112386408Y-32816179D01*
X112584410Y-32709026D01*
X112762074Y-32570743D01*
X112914556Y-32405105D01*
X113003352Y-32269191D01*
X113057354Y-32223105D01*
X113127702Y-32213529D01*
X113192059Y-32243506D01*
X113214314Y-32269190D01*
X113229870Y-32292999D01*
X113303109Y-32405102D01*
X113303113Y-32405107D01*
X113455596Y-32570745D01*
X113498028Y-32603771D01*
X113633258Y-32709026D01*
X113831260Y-32816179D01*
X113831261Y-32816179D01*
X113831262Y-32816180D01*
X113943061Y-32854560D01*
X114044199Y-32889281D01*
X114266265Y-32926337D01*
X114266269Y-32926337D01*
X114491399Y-32926337D01*
X114491403Y-32926337D01*
X114713469Y-32889281D01*
X114926408Y-32816179D01*
X115124410Y-32709026D01*
X115302074Y-32570743D01*
X115454556Y-32405105D01*
X115543352Y-32269191D01*
X115597354Y-32223105D01*
X115667702Y-32213529D01*
X115732059Y-32243506D01*
X115754314Y-32269190D01*
X115769870Y-32292999D01*
X115843109Y-32405102D01*
X115843113Y-32405107D01*
X115995596Y-32570745D01*
X116038028Y-32603771D01*
X116173258Y-32709026D01*
X116371260Y-32816179D01*
X116371261Y-32816179D01*
X116371262Y-32816180D01*
X116483061Y-32854560D01*
X116584199Y-32889281D01*
X116806265Y-32926337D01*
X116806269Y-32926337D01*
X117031399Y-32926337D01*
X117031403Y-32926337D01*
X117253469Y-32889281D01*
X117466408Y-32816179D01*
X117466411Y-32816177D01*
X117471179Y-32814086D01*
X117471879Y-32815682D01*
X117533779Y-32802452D01*
X117600209Y-32827505D01*
X117642549Y-32884494D01*
X117650334Y-32928098D01*
X117650334Y-45746807D01*
X117656546Y-45778036D01*
X117674679Y-45869196D01*
X117722434Y-45984486D01*
X117791763Y-46088244D01*
X117791765Y-46088246D01*
X119026603Y-47323084D01*
X119060629Y-47385396D01*
X119063508Y-47412179D01*
X119063508Y-49282963D01*
X119102922Y-49531817D01*
X119102923Y-49531822D01*
X119180779Y-49771437D01*
X119180780Y-49771440D01*
X119180781Y-49771441D01*
X119294503Y-49994634D01*
X119295168Y-49995938D01*
X119443263Y-50199773D01*
X119621416Y-50377926D01*
X119621419Y-50377928D01*
X119621422Y-50377931D01*
X119663201Y-50408285D01*
X119728769Y-50455923D01*
X119772123Y-50512145D01*
X119780708Y-50557859D01*
X119780708Y-63676965D01*
X119760706Y-63745086D01*
X119743803Y-63766060D01*
X114935682Y-68574180D01*
X114873370Y-68608206D01*
X114836703Y-68610696D01*
X114603648Y-68592355D01*
X114359091Y-68611602D01*
X114120555Y-68668869D01*
X113960293Y-68735252D01*
X113899904Y-68760267D01*
X113893914Y-68762748D01*
X113684755Y-68890919D01*
X113498215Y-69050241D01*
X113338893Y-69236781D01*
X113210720Y-69445942D01*
X113208474Y-69450352D01*
X113207120Y-69449662D01*
X113166802Y-69499681D01*
X113099436Y-69522094D01*
X113094954Y-69522174D01*
X95870268Y-69522174D01*
X95802147Y-69502172D01*
X95781173Y-69485269D01*
X84451573Y-58155669D01*
X112523298Y-58155669D01*
X112523298Y-58155678D01*
X112542672Y-58438934D01*
X112542673Y-58438940D01*
X112542674Y-58438948D01*
X112560131Y-58522953D01*
X112600441Y-58716939D01*
X112600443Y-58716947D01*
X112695529Y-58984494D01*
X112826153Y-59236583D01*
X112826162Y-59236598D01*
X112847896Y-59267388D01*
X112989897Y-59468558D01*
X113183699Y-59676069D01*
X113403951Y-59855257D01*
X113646552Y-60002786D01*
X113906981Y-60115907D01*
X114180388Y-60192512D01*
X114267165Y-60204439D01*
X114461666Y-60231173D01*
X114461680Y-60231174D01*
X114745616Y-60231174D01*
X114745629Y-60231173D01*
X114911204Y-60208414D01*
X115026908Y-60192512D01*
X115300315Y-60115907D01*
X115560744Y-60002786D01*
X115803345Y-59855257D01*
X116023597Y-59676069D01*
X116217399Y-59468558D01*
X116381139Y-59236590D01*
X116511769Y-58984488D01*
X116606853Y-58716946D01*
X116664622Y-58438948D01*
X116665142Y-58431343D01*
X116683998Y-58155678D01*
X116683998Y-58155669D01*
X116664623Y-57872413D01*
X116664622Y-57872407D01*
X116664622Y-57872400D01*
X116606853Y-57594402D01*
X116511769Y-57326860D01*
X116511767Y-57326856D01*
X116511766Y-57326853D01*
X116381142Y-57074764D01*
X116381139Y-57074758D01*
X116359450Y-57044032D01*
X116217401Y-56842793D01*
X116217399Y-56842790D01*
X116023597Y-56635279D01*
X115803345Y-56456091D01*
X115560744Y-56308562D01*
X115560745Y-56308562D01*
X115560741Y-56308560D01*
X115300315Y-56195441D01*
X115026904Y-56118835D01*
X114745629Y-56080174D01*
X114745616Y-56080174D01*
X114461680Y-56080174D01*
X114461666Y-56080174D01*
X114180391Y-56118835D01*
X113906980Y-56195441D01*
X113646554Y-56308560D01*
X113448365Y-56429081D01*
X113425418Y-56443037D01*
X113403948Y-56456093D01*
X113342899Y-56505760D01*
X113208171Y-56615370D01*
X113183704Y-56635275D01*
X113183696Y-56635282D01*
X112989894Y-56842793D01*
X112826162Y-57074749D01*
X112826153Y-57074764D01*
X112695529Y-57326853D01*
X112600443Y-57594400D01*
X112600441Y-57594408D01*
X112542673Y-57872407D01*
X112542672Y-57872413D01*
X112523298Y-58155669D01*
X84451573Y-58155669D01*
X75643741Y-49347837D01*
X108018462Y-49347837D01*
X108037914Y-49570171D01*
X108049011Y-49611585D01*
X108095677Y-49785748D01*
X108095679Y-49785753D01*
X108189999Y-49988023D01*
X108228573Y-50043113D01*
X108318012Y-50170844D01*
X108475827Y-50328659D01*
X108658648Y-50456672D01*
X108860921Y-50550993D01*
X109076500Y-50608757D01*
X109298834Y-50628209D01*
X109521168Y-50608757D01*
X109736747Y-50550993D01*
X109939020Y-50456672D01*
X110121841Y-50328659D01*
X110279656Y-50170844D01*
X110407669Y-49988023D01*
X110501990Y-49785750D01*
X110559754Y-49570171D01*
X110579206Y-49347837D01*
X110559754Y-49125503D01*
X110501990Y-48909924D01*
X110407669Y-48707651D01*
X110279656Y-48524830D01*
X110121841Y-48367015D01*
X110017796Y-48294162D01*
X109939020Y-48239002D01*
X109736750Y-48144682D01*
X109736745Y-48144680D01*
X109609304Y-48110533D01*
X109521168Y-48086917D01*
X109298834Y-48067465D01*
X109076500Y-48086917D01*
X109018737Y-48102394D01*
X108860922Y-48144680D01*
X108860917Y-48144682D01*
X108658647Y-48239002D01*
X108475830Y-48367012D01*
X108475824Y-48367017D01*
X108318014Y-48524827D01*
X108318009Y-48524833D01*
X108189999Y-48707650D01*
X108095679Y-48909920D01*
X108095677Y-48909925D01*
X108066657Y-49018232D01*
X108037914Y-49125503D01*
X108018462Y-49347837D01*
X75643741Y-49347837D01*
X73142511Y-46846607D01*
X113983508Y-46846607D01*
X113983508Y-49282963D01*
X114022922Y-49531817D01*
X114022923Y-49531822D01*
X114100779Y-49771437D01*
X114100780Y-49771440D01*
X114100781Y-49771441D01*
X114214503Y-49994634D01*
X114215168Y-49995938D01*
X114363263Y-50199773D01*
X114541419Y-50377929D01*
X114658486Y-50462983D01*
X114745258Y-50526027D01*
X114969752Y-50640412D01*
X115209376Y-50718271D01*
X115458230Y-50757685D01*
X115458233Y-50757685D01*
X115710183Y-50757685D01*
X115710186Y-50757685D01*
X115959040Y-50718271D01*
X116198664Y-50640412D01*
X116423158Y-50526027D01*
X116626994Y-50377931D01*
X116805154Y-50199771D01*
X116953250Y-49995935D01*
X117067635Y-49771441D01*
X117145494Y-49531817D01*
X117184908Y-49282963D01*
X117184908Y-46846607D01*
X117145494Y-46597753D01*
X117067635Y-46358129D01*
X116953250Y-46133635D01*
X116805154Y-45929799D01*
X116805152Y-45929796D01*
X116626996Y-45751640D01*
X116423161Y-45603545D01*
X116423160Y-45603544D01*
X116423158Y-45603543D01*
X116198664Y-45489158D01*
X116198663Y-45489157D01*
X116198660Y-45489156D01*
X115959045Y-45411300D01*
X115959041Y-45411299D01*
X115959040Y-45411299D01*
X115710186Y-45371885D01*
X115458230Y-45371885D01*
X115209376Y-45411299D01*
X115209370Y-45411300D01*
X114969755Y-45489156D01*
X114745254Y-45603545D01*
X114541419Y-45751640D01*
X114363263Y-45929796D01*
X114215168Y-46133631D01*
X114100779Y-46358132D01*
X114022923Y-46597747D01*
X114022922Y-46597752D01*
X114022922Y-46597753D01*
X113983508Y-46846607D01*
X73142511Y-46846607D01*
X68983835Y-42687931D01*
X68983833Y-42687929D01*
X68880075Y-42618600D01*
X68764785Y-42570845D01*
X68691086Y-42556185D01*
X68642396Y-42546500D01*
X68642394Y-42546500D01*
X51076420Y-42546500D01*
X51076414Y-42546500D01*
X50954031Y-42570844D01*
X50954023Y-42570846D01*
X50920261Y-42584830D01*
X50920261Y-42584831D01*
X50838739Y-42618599D01*
X50729834Y-42691367D01*
X50729025Y-42690156D01*
X50670394Y-42715060D01*
X50655805Y-42715907D01*
X48869699Y-42715907D01*
X48801578Y-42695905D01*
X48764216Y-42658822D01*
X48668385Y-42512141D01*
X48668381Y-42512136D01*
X48520110Y-42351073D01*
X48515901Y-42346501D01*
X48515900Y-42346500D01*
X48515898Y-42346498D01*
X48434043Y-42282788D01*
X48338237Y-42208218D01*
X48304980Y-42190220D01*
X48254590Y-42140209D01*
X48239237Y-42070892D01*
X48263797Y-42004279D01*
X48304981Y-41968593D01*
X48338237Y-41950596D01*
X48515901Y-41812313D01*
X48668383Y-41646675D01*
X48791521Y-41458198D01*
X48881957Y-41252023D01*
X48937225Y-41033775D01*
X48955817Y-40809407D01*
X48937225Y-40585039D01*
X48916546Y-40503378D01*
X48881958Y-40366794D01*
X48881957Y-40366793D01*
X48881957Y-40366791D01*
X48791521Y-40160616D01*
X48776867Y-40138187D01*
X48668385Y-39972141D01*
X48668381Y-39972136D01*
X48534296Y-39826483D01*
X48515901Y-39806501D01*
X48515900Y-39806500D01*
X48515898Y-39806498D01*
X48434043Y-39742788D01*
X48338237Y-39668218D01*
X48325091Y-39661104D01*
X48304981Y-39650221D01*
X48254590Y-39600209D01*
X48239237Y-39530892D01*
X48263797Y-39464279D01*
X48304981Y-39428593D01*
X48338237Y-39410596D01*
X48515901Y-39272313D01*
X48668383Y-39106675D01*
X48791521Y-38918198D01*
X48881957Y-38712023D01*
X48937225Y-38493775D01*
X48955817Y-38269407D01*
X48937225Y-38045039D01*
X48937223Y-38045031D01*
X48881958Y-37826794D01*
X48881957Y-37826793D01*
X48881957Y-37826791D01*
X48791521Y-37620616D01*
X48778759Y-37601082D01*
X48668385Y-37432141D01*
X48668381Y-37432136D01*
X48534296Y-37286483D01*
X48515901Y-37266501D01*
X48515900Y-37266500D01*
X48515898Y-37266498D01*
X48434043Y-37202788D01*
X48338237Y-37128218D01*
X48304980Y-37110220D01*
X48254590Y-37060209D01*
X48251697Y-37047147D01*
X96154062Y-37047147D01*
X96173948Y-37312516D01*
X96173949Y-37312520D01*
X96233164Y-37571953D01*
X96233165Y-37571955D01*
X96330385Y-37819670D01*
X96463437Y-38050123D01*
X96463443Y-38050131D01*
X96629356Y-38258178D01*
X96629360Y-38258183D01*
X96824424Y-38439176D01*
X96824427Y-38439178D01*
X96824431Y-38439182D01*
X96824437Y-38439186D01*
X97044292Y-38589081D01*
X97044299Y-38589085D01*
X97044302Y-38589087D01*
X97284059Y-38704548D01*
X97485955Y-38766825D01*
X97538340Y-38782984D01*
X97538347Y-38782986D01*
X97801486Y-38822647D01*
X97801490Y-38822647D01*
X98067592Y-38822647D01*
X98067596Y-38822647D01*
X98330735Y-38782986D01*
X98585023Y-38704548D01*
X98752777Y-38623762D01*
X98824775Y-38589090D01*
X98824775Y-38589089D01*
X98824781Y-38589087D01*
X99044651Y-38439182D01*
X99227624Y-38269407D01*
X99239721Y-38258183D01*
X99239721Y-38258182D01*
X99239724Y-38258180D01*
X99405642Y-38050127D01*
X99534583Y-37826794D01*
X99538696Y-37819670D01*
X99548229Y-37795380D01*
X99635918Y-37571952D01*
X99695134Y-37312514D01*
X99715020Y-37047147D01*
X99695134Y-36781780D01*
X99635918Y-36522342D01*
X99548229Y-36298914D01*
X99538696Y-36274623D01*
X99405644Y-36044170D01*
X99405638Y-36044162D01*
X99239725Y-35836115D01*
X99239721Y-35836110D01*
X99044657Y-35655117D01*
X99044644Y-35655107D01*
X98824783Y-35505208D01*
X98824775Y-35505203D01*
X98585031Y-35389749D01*
X98585026Y-35389747D01*
X98585023Y-35389746D01*
X98487161Y-35359559D01*
X98330741Y-35311309D01*
X98330736Y-35311308D01*
X98330735Y-35311308D01*
X98067596Y-35271647D01*
X97801486Y-35271647D01*
X97538347Y-35311308D01*
X97538346Y-35311308D01*
X97538340Y-35311309D01*
X97284053Y-35389748D01*
X97044299Y-35505208D01*
X97044292Y-35505212D01*
X96824437Y-35655107D01*
X96824424Y-35655117D01*
X96629360Y-35836110D01*
X96629356Y-35836115D01*
X96463443Y-36044162D01*
X96463437Y-36044170D01*
X96330385Y-36274623D01*
X96233165Y-36522338D01*
X96233164Y-36522340D01*
X96173949Y-36781773D01*
X96173948Y-36781777D01*
X96154062Y-37047147D01*
X48251697Y-37047147D01*
X48239237Y-36990892D01*
X48263797Y-36924279D01*
X48304981Y-36888593D01*
X48338237Y-36870596D01*
X48515901Y-36732313D01*
X48668383Y-36566675D01*
X48791521Y-36378198D01*
X48881957Y-36172023D01*
X48937225Y-35953775D01*
X48955817Y-35729407D01*
X48937225Y-35505039D01*
X48881957Y-35286791D01*
X48791521Y-35080616D01*
X48778759Y-35061082D01*
X48668385Y-34892141D01*
X48668381Y-34892136D01*
X48534296Y-34746483D01*
X48515901Y-34726501D01*
X48515900Y-34726500D01*
X48515898Y-34726498D01*
X48434043Y-34662788D01*
X48338237Y-34588218D01*
X48304980Y-34570220D01*
X48254590Y-34520209D01*
X48239237Y-34450892D01*
X48263797Y-34384279D01*
X48304981Y-34348593D01*
X48338237Y-34330596D01*
X48515901Y-34192313D01*
X48668383Y-34026675D01*
X48791521Y-33838198D01*
X48881957Y-33632023D01*
X48937225Y-33413775D01*
X48955817Y-33189407D01*
X48937225Y-32965039D01*
X48925138Y-32917310D01*
X48881958Y-32746794D01*
X48881957Y-32746793D01*
X48881957Y-32746791D01*
X48791521Y-32540616D01*
X48778759Y-32521082D01*
X48668385Y-32352141D01*
X48668381Y-32352136D01*
X48540782Y-32213529D01*
X48515901Y-32186501D01*
X48515900Y-32186500D01*
X48515898Y-32186498D01*
X48434043Y-32122788D01*
X48338237Y-32048218D01*
X48304980Y-32030220D01*
X48254590Y-31980209D01*
X48239237Y-31910892D01*
X48263797Y-31844279D01*
X48304981Y-31808593D01*
X48338237Y-31790596D01*
X48515901Y-31652313D01*
X48668383Y-31486675D01*
X48791521Y-31298198D01*
X48881957Y-31092023D01*
X48937225Y-30873775D01*
X48955817Y-30649407D01*
X48937225Y-30425039D01*
X48891986Y-30246393D01*
X48881958Y-30206794D01*
X48881957Y-30206793D01*
X48881957Y-30206791D01*
X48791521Y-30000616D01*
X48778759Y-29981082D01*
X48668385Y-29812141D01*
X48668381Y-29812136D01*
X48537880Y-29670376D01*
X48515901Y-29646501D01*
X48515900Y-29646500D01*
X48515898Y-29646498D01*
X48434043Y-29582788D01*
X48338237Y-29508218D01*
X48304980Y-29490220D01*
X48254590Y-29440209D01*
X48239237Y-29370892D01*
X48263797Y-29304279D01*
X48304981Y-29268593D01*
X48338237Y-29250596D01*
X48515901Y-29112313D01*
X48668383Y-28946675D01*
X48791521Y-28758198D01*
X48881957Y-28552023D01*
X48937225Y-28333775D01*
X48955817Y-28109407D01*
X48937225Y-27885039D01*
X48904632Y-27756332D01*
X48881958Y-27666794D01*
X48881957Y-27666793D01*
X48881957Y-27666791D01*
X48791521Y-27460616D01*
X48777246Y-27438766D01*
X48668385Y-27272141D01*
X48668381Y-27272136D01*
X48541018Y-27133785D01*
X48515901Y-27106501D01*
X48515900Y-27106500D01*
X48515898Y-27106498D01*
X48434043Y-27042788D01*
X48338237Y-26968218D01*
X48140235Y-26861065D01*
X48140233Y-26861064D01*
X48140232Y-26861063D01*
X47927300Y-26787964D01*
X47927291Y-26787962D01*
X47883137Y-26780594D01*
X47705230Y-26750907D01*
X47480092Y-26750907D01*
X47332479Y-26775539D01*
X47258030Y-26787962D01*
X47258021Y-26787964D01*
X47045089Y-26861063D01*
X47045087Y-26861065D01*
X46847087Y-26968217D01*
X46847085Y-26968218D01*
X46669423Y-27106498D01*
X46516940Y-27272136D01*
X46428144Y-27408050D01*
X46374140Y-27454138D01*
X46303792Y-27463713D01*
X46239435Y-27433736D01*
X46217178Y-27408050D01*
X46128381Y-27272136D01*
X46001018Y-27133785D01*
X45975901Y-27106501D01*
X45975900Y-27106500D01*
X45975898Y-27106498D01*
X45894043Y-27042788D01*
X45798237Y-26968218D01*
X45600235Y-26861065D01*
X45600233Y-26861064D01*
X45600232Y-26861063D01*
X45387300Y-26787964D01*
X45387291Y-26787962D01*
X45343137Y-26780594D01*
X45165230Y-26750907D01*
X44940092Y-26750907D01*
X44792479Y-26775539D01*
X44718030Y-26787962D01*
X44718021Y-26787964D01*
X44505089Y-26861063D01*
X44505087Y-26861065D01*
X44307087Y-26968217D01*
X44307085Y-26968218D01*
X44129423Y-27106498D01*
X43976940Y-27272136D01*
X43976936Y-27272141D01*
X43853802Y-27460613D01*
X43763364Y-27666793D01*
X43763363Y-27666794D01*
X43708098Y-27885031D01*
X43708097Y-27885037D01*
X43708097Y-27885039D01*
X43698734Y-27998036D01*
X43689505Y-28109407D01*
X41935500Y-28109407D01*
X41935500Y-24797147D01*
X58654062Y-24797147D01*
X58673948Y-25062516D01*
X58673949Y-25062520D01*
X58733164Y-25321953D01*
X58733165Y-25321955D01*
X58830385Y-25569670D01*
X58963437Y-25800123D01*
X58963443Y-25800131D01*
X59129356Y-26008178D01*
X59129360Y-26008183D01*
X59324424Y-26189176D01*
X59324427Y-26189178D01*
X59324431Y-26189182D01*
X59324437Y-26189186D01*
X59544292Y-26339081D01*
X59544299Y-26339085D01*
X59544302Y-26339087D01*
X59784059Y-26454548D01*
X59985955Y-26516825D01*
X60038340Y-26532984D01*
X60038347Y-26532986D01*
X60301486Y-26572647D01*
X60301490Y-26572647D01*
X60567592Y-26572647D01*
X60567596Y-26572647D01*
X60830735Y-26532986D01*
X61085023Y-26454548D01*
X61288562Y-26356529D01*
X61324775Y-26339090D01*
X61324775Y-26339089D01*
X61324781Y-26339087D01*
X61544651Y-26189182D01*
X61739724Y-26008180D01*
X61905642Y-25800127D01*
X62038697Y-25569668D01*
X62135918Y-25321952D01*
X62195134Y-25062514D01*
X62215020Y-24797147D01*
X62195134Y-24531780D01*
X62135918Y-24272342D01*
X62038697Y-24024626D01*
X62038696Y-24024623D01*
X61905644Y-23794170D01*
X61905638Y-23794162D01*
X61739725Y-23586115D01*
X61739721Y-23586110D01*
X61544657Y-23405117D01*
X61544644Y-23405107D01*
X61324783Y-23255208D01*
X61324775Y-23255203D01*
X61085031Y-23139749D01*
X61085026Y-23139747D01*
X61085023Y-23139746D01*
X60987161Y-23109559D01*
X60830741Y-23061309D01*
X60830736Y-23061308D01*
X60830735Y-23061308D01*
X60567596Y-23021647D01*
X60301486Y-23021647D01*
X60038347Y-23061308D01*
X60038346Y-23061308D01*
X60038340Y-23061309D01*
X59784053Y-23139748D01*
X59544299Y-23255208D01*
X59544292Y-23255212D01*
X59324437Y-23405107D01*
X59324424Y-23405117D01*
X59129360Y-23586110D01*
X59129356Y-23586115D01*
X58963443Y-23794162D01*
X58963437Y-23794170D01*
X58830385Y-24024623D01*
X58733165Y-24272338D01*
X58733164Y-24272340D01*
X58673949Y-24531773D01*
X58673948Y-24531777D01*
X58654062Y-24797147D01*
X41935500Y-24797147D01*
X41935500Y-20808215D01*
X41955502Y-20740094D01*
X42009158Y-20693601D01*
X42061500Y-20682215D01*
X187808500Y-20682215D01*
X187876621Y-20702217D01*
G37*
G04 #@! TD.AperFunction*
M02*
