%TF.GenerationSoftware,KiCad,Pcbnew,7.0.6*%
%TF.CreationDate,2023-08-10T16:49:55-04:00*%
%TF.ProjectId,rrc_pcb2,7272635f-7063-4623-922e-6b696361645f,rev?*%
%TF.SameCoordinates,Original*%
%TF.FileFunction,Plated,1,2,PTH,Drill*%
%TF.FilePolarity,Positive*%
%FSLAX46Y46*%
G04 Gerber Fmt 4.6, Leading zero omitted, Abs format (unit mm)*
G04 Created by KiCad (PCBNEW 7.0.6) date 2023-08-10 16:49:55*
%MOMM*%
%LPD*%
G01*
G04 APERTURE LIST*
%TA.AperFunction,ViaDrill*%
%ADD10C,0.400000*%
%TD*%
%TA.AperFunction,ComponentDrill*%
%ADD11C,0.800000*%
%TD*%
%TA.AperFunction,ComponentDrill*%
%ADD12C,1.000000*%
%TD*%
%TA.AperFunction,ComponentDrill*%
%ADD13C,1.020000*%
%TD*%
%TA.AperFunction,ComponentDrill*%
%ADD14C,1.100000*%
%TD*%
%TA.AperFunction,ComponentDrill*%
%ADD15C,2.000000*%
%TD*%
%TA.AperFunction,ComponentDrill*%
%ADD16C,2.700000*%
%TD*%
%TA.AperFunction,ComponentDrill*%
%ADD17C,3.200000*%
%TD*%
%TA.AperFunction,ComponentDrill*%
%ADD18C,4.000000*%
%TD*%
G04 APERTURE END LIST*
D10*
X73660000Y-53340000D03*
X73660000Y-86360000D03*
X73660000Y-86360000D03*
X83820000Y-78740000D03*
X87991196Y-63615794D03*
X89101527Y-65507967D03*
X101600000Y-55880000D03*
X121920000Y-45720000D03*
X127000000Y-43180000D03*
X129540000Y-53340000D03*
X132080000Y-60960000D03*
X137160000Y-40640000D03*
X139700000Y-50800000D03*
X142240000Y-43180000D03*
X144780000Y-48260000D03*
X154940000Y-45720000D03*
X161960036Y-60640998D03*
X167640000Y-53340000D03*
X167640000Y-53340000D03*
D11*
%TO.C,R1*%
X144780000Y-53340000D03*
%TO.C,R2*%
X144780000Y-58420000D03*
%TO.C,R3*%
X144780000Y-78740000D03*
%TO.C,R4*%
X144780000Y-83820000D03*
%TO.C,R1*%
X154940000Y-53340000D03*
%TO.C,R2*%
X154940000Y-58420000D03*
%TO.C,R3*%
X154940000Y-78740000D03*
%TO.C,R4*%
X154940000Y-83820000D03*
%TO.C,U2*%
X166370000Y-26130000D03*
X168821600Y-38370000D03*
X168821600Y-40370000D03*
X168910000Y-26130000D03*
X170821600Y-38370000D03*
X170821600Y-40370000D03*
X172821600Y-38370000D03*
X172821600Y-40370000D03*
D12*
%TO.C,BZ1*%
X48467845Y-24178236D03*
X48467845Y-31778236D03*
%TO.C,J3*%
X58420000Y-25400000D03*
%TO.C,J2*%
X58420000Y-30480000D03*
%TO.C,J3*%
X60960000Y-25400000D03*
%TO.C,J2*%
X60960000Y-30480000D03*
%TO.C,J3*%
X63500000Y-25400000D03*
%TO.C,J2*%
X63500000Y-30480000D03*
%TO.C,U1*%
X69103636Y-27325635D03*
X69103636Y-29865635D03*
X69103636Y-32405635D03*
X69103636Y-34945635D03*
X69103636Y-37485635D03*
X69103636Y-40025635D03*
X69103636Y-42565635D03*
X69103636Y-45105635D03*
X71643636Y-27325635D03*
X71643636Y-29865635D03*
X71643636Y-32405635D03*
X71643636Y-34945635D03*
X71643636Y-37485635D03*
X71643636Y-40025635D03*
X71643636Y-42565635D03*
X71643636Y-45105635D03*
%TO.C,U4*%
X76828599Y-56114231D03*
X76828599Y-58654231D03*
X76828599Y-61194231D03*
X76828599Y-63734231D03*
X76828599Y-66274231D03*
X76828599Y-68814231D03*
X76828599Y-71354231D03*
X76828599Y-73894231D03*
X76828599Y-76434231D03*
X76828599Y-78974231D03*
X76828599Y-81514231D03*
X76828599Y-84054231D03*
X79368599Y-56114231D03*
X79368599Y-58654231D03*
X79368599Y-61194231D03*
X79368599Y-63734231D03*
X79368599Y-66274231D03*
X79368599Y-68814231D03*
X79368599Y-71354231D03*
X79368599Y-73894231D03*
X79368599Y-76434231D03*
X79368599Y-78974231D03*
X79368599Y-81514231D03*
X79368599Y-84054231D03*
%TO.C,U3*%
X144490109Y-32650990D03*
X144490109Y-35190990D03*
X144490109Y-37730990D03*
X144490109Y-40270990D03*
D13*
%TO.C,U5*%
X44883617Y-36924940D03*
X47423617Y-36924940D03*
X49963617Y-36924940D03*
X52503617Y-36924940D03*
X55043617Y-36924940D03*
X57583617Y-36924940D03*
X60123617Y-36924940D03*
D14*
%TO.C,U2*%
X160020000Y-25400000D03*
X160020000Y-27940000D03*
X160020000Y-30480000D03*
X160020000Y-33020000D03*
X160020000Y-35560000D03*
X160020000Y-38100000D03*
X160020000Y-40640000D03*
X160020000Y-43180000D03*
X160020000Y-45720000D03*
X160020000Y-48260000D03*
X160020000Y-50800000D03*
X160020000Y-53340000D03*
X160020000Y-55880000D03*
X160020000Y-58420000D03*
X160020000Y-60960000D03*
X160020000Y-63500000D03*
X160020000Y-66040000D03*
X160020000Y-68580000D03*
X160020000Y-71120000D03*
X160020000Y-73660000D03*
X160020000Y-76200000D03*
X160020000Y-78740000D03*
X160020000Y-81280000D03*
X160020000Y-83820000D03*
X162560000Y-71120000D03*
X163070800Y-31699200D03*
X163070800Y-34239200D03*
X163070800Y-36779200D03*
X163070800Y-39319200D03*
X163070800Y-41859200D03*
X165100000Y-71120000D03*
X167640000Y-71120000D03*
X170180000Y-71120000D03*
X172720000Y-27940000D03*
X172720000Y-71120000D03*
X175260000Y-25400000D03*
X175260000Y-27940000D03*
X175260000Y-30480000D03*
X175260000Y-33020000D03*
X175260000Y-35560000D03*
X175260000Y-38100000D03*
X175260000Y-40640000D03*
X175260000Y-43180000D03*
X175260000Y-45720000D03*
X175260000Y-48260000D03*
X175260000Y-50800000D03*
X175260000Y-53340000D03*
X175260000Y-55880000D03*
X175260000Y-58420000D03*
X175260000Y-60960000D03*
X175260000Y-63500000D03*
X175260000Y-66040000D03*
X175260000Y-68580000D03*
X175260000Y-71120000D03*
X175260000Y-73660000D03*
X175260000Y-76200000D03*
X175260000Y-78740000D03*
X175260000Y-81280000D03*
X175260000Y-83820000D03*
D15*
%TO.C,U7*%
X86360000Y-67597567D03*
X86360000Y-72597567D03*
%TO.C,U3*%
X129540000Y-36880990D03*
%TO.C,U7*%
X138360000Y-67597567D03*
X138360000Y-72597567D03*
%TO.C,U3*%
X148120548Y-37135896D03*
D16*
%TO.C,J1*%
X149860000Y-66120000D03*
X149860000Y-71120000D03*
D17*
%TO.C,U5*%
X46153617Y-46429940D03*
%TO.C,U1*%
X84485516Y-24013375D03*
X84485516Y-48513375D03*
X121985516Y-36263375D03*
D18*
%TO.C,U4*%
X46263599Y-59924231D03*
X46263599Y-78974231D03*
X66148695Y-59924231D03*
X66148695Y-78974231D03*
%TO.C,U7*%
X86360000Y-55597567D03*
X86360000Y-84597567D03*
X138360000Y-55597567D03*
X138360000Y-84597567D03*
M02*
