%TF.GenerationSoftware,KiCad,Pcbnew,(6.0.9)*%
%TF.CreationDate,2023-01-16T22:49:09-05:00*%
%TF.ProjectId,rrc_pcb,7272635f-7063-4622-9e6b-696361645f70,rev?*%
%TF.SameCoordinates,Original*%
%TF.FileFunction,AssemblyDrawing,Bot*%
%FSLAX46Y46*%
G04 Gerber Fmt 4.6, Leading zero omitted, Abs format (unit mm)*
G04 Created by KiCad (PCBNEW (6.0.9)) date 2023-01-16 22:49:09*
%MOMM*%
%LPD*%
G01*
G04 APERTURE LIST*
%ADD10C,0.150000*%
G04 APERTURE END LIST*
D10*
%TO.C,Barometer*%
X133419700Y-78461012D02*
X133419700Y-77461012D01*
X133086367Y-78175298D01*
X132753034Y-77461012D01*
X132753034Y-78461012D01*
X132324462Y-78413393D02*
X132181605Y-78461012D01*
X131943510Y-78461012D01*
X131848272Y-78413393D01*
X131800653Y-78365774D01*
X131753034Y-78270536D01*
X131753034Y-78175298D01*
X131800653Y-78080060D01*
X131848272Y-78032441D01*
X131943510Y-77984822D01*
X132133986Y-77937203D01*
X132229224Y-77889584D01*
X132276843Y-77841965D01*
X132324462Y-77746727D01*
X132324462Y-77651489D01*
X132276843Y-77556251D01*
X132229224Y-77508632D01*
X132133986Y-77461012D01*
X131895891Y-77461012D01*
X131753034Y-77508632D01*
X130848272Y-77461012D02*
X131324462Y-77461012D01*
X131372081Y-77937203D01*
X131324462Y-77889584D01*
X131229224Y-77841965D01*
X130991129Y-77841965D01*
X130895891Y-77889584D01*
X130848272Y-77937203D01*
X130800653Y-78032441D01*
X130800653Y-78270536D01*
X130848272Y-78365774D01*
X130895891Y-78413393D01*
X130991129Y-78461012D01*
X131229224Y-78461012D01*
X131324462Y-78413393D01*
X131372081Y-78365774D01*
X129943510Y-77461012D02*
X130133986Y-77461012D01*
X130229224Y-77508632D01*
X130276843Y-77556251D01*
X130372081Y-77699108D01*
X130419700Y-77889584D01*
X130419700Y-78270536D01*
X130372081Y-78365774D01*
X130324462Y-78413393D01*
X130229224Y-78461012D01*
X130038748Y-78461012D01*
X129943510Y-78413393D01*
X129895891Y-78365774D01*
X129848272Y-78270536D01*
X129848272Y-78032441D01*
X129895891Y-77937203D01*
X129943510Y-77889584D01*
X130038748Y-77841965D01*
X130229224Y-77841965D01*
X130324462Y-77889584D01*
X130372081Y-77937203D01*
X130419700Y-78032441D01*
X128895891Y-78461012D02*
X129467319Y-78461012D01*
X129181605Y-78461012D02*
X129181605Y-77461012D01*
X129276843Y-77603870D01*
X129372081Y-77699108D01*
X129467319Y-77746727D01*
X127943510Y-78461012D02*
X128514938Y-78461012D01*
X128229224Y-78461012D02*
X128229224Y-77461012D01*
X128324462Y-77603870D01*
X128419700Y-77699108D01*
X128514938Y-77746727D01*
%TD*%
M02*
