%TF.GenerationSoftware,KiCad,Pcbnew,(6.0.9)*%
%TF.CreationDate,2023-01-16T22:49:09-05:00*%
%TF.ProjectId,rrc_pcb,7272635f-7063-4622-9e6b-696361645f70,rev?*%
%TF.SameCoordinates,Original*%
%TF.FileFunction,Legend,Top*%
%TF.FilePolarity,Positive*%
%FSLAX46Y46*%
G04 Gerber Fmt 4.6, Leading zero omitted, Abs format (unit mm)*
G04 Created by KiCad (PCBNEW (6.0.9)) date 2023-01-16 22:49:09*
%MOMM*%
%LPD*%
G01*
G04 APERTURE LIST*
%ADD10C,0.150000*%
%ADD11C,0.300000*%
%ADD12C,0.120000*%
%ADD13C,0.100000*%
G04 APERTURE END LIST*
D10*
%TO.C,R2*%
X131478283Y-52033316D02*
X131144950Y-51557126D01*
X130906854Y-52033316D02*
X130906854Y-51033316D01*
X131287807Y-51033316D01*
X131383045Y-51080936D01*
X131430664Y-51128555D01*
X131478283Y-51223793D01*
X131478283Y-51366650D01*
X131430664Y-51461888D01*
X131383045Y-51509507D01*
X131287807Y-51557126D01*
X130906854Y-51557126D01*
X131859235Y-51128555D02*
X131906854Y-51080936D01*
X132002092Y-51033316D01*
X132240188Y-51033316D01*
X132335426Y-51080936D01*
X132383045Y-51128555D01*
X132430664Y-51223793D01*
X132430664Y-51319031D01*
X132383045Y-51461888D01*
X131811616Y-52033316D01*
X132430664Y-52033316D01*
%TO.C,radio*%
X65643333Y-34107380D02*
X65643333Y-33440714D01*
X65643333Y-33631190D02*
X65690952Y-33535952D01*
X65738571Y-33488333D01*
X65833809Y-33440714D01*
X65929047Y-33440714D01*
X66690952Y-34107380D02*
X66690952Y-33583571D01*
X66643333Y-33488333D01*
X66548095Y-33440714D01*
X66357619Y-33440714D01*
X66262380Y-33488333D01*
X66690952Y-34059761D02*
X66595714Y-34107380D01*
X66357619Y-34107380D01*
X66262380Y-34059761D01*
X66214761Y-33964523D01*
X66214761Y-33869285D01*
X66262380Y-33774047D01*
X66357619Y-33726428D01*
X66595714Y-33726428D01*
X66690952Y-33678809D01*
X67595714Y-34107380D02*
X67595714Y-33107380D01*
X67595714Y-34059761D02*
X67500476Y-34107380D01*
X67310000Y-34107380D01*
X67214761Y-34059761D01*
X67167142Y-34012142D01*
X67119523Y-33916904D01*
X67119523Y-33631190D01*
X67167142Y-33535952D01*
X67214761Y-33488333D01*
X67310000Y-33440714D01*
X67500476Y-33440714D01*
X67595714Y-33488333D01*
X68071904Y-34107380D02*
X68071904Y-33440714D01*
X68071904Y-33107380D02*
X68024285Y-33155000D01*
X68071904Y-33202619D01*
X68119523Y-33155000D01*
X68071904Y-33107380D01*
X68071904Y-33202619D01*
X68690952Y-34107380D02*
X68595714Y-34059761D01*
X68548095Y-34012142D01*
X68500476Y-33916904D01*
X68500476Y-33631190D01*
X68548095Y-33535952D01*
X68595714Y-33488333D01*
X68690952Y-33440714D01*
X68833809Y-33440714D01*
X68929047Y-33488333D01*
X68976666Y-33535952D01*
X69024285Y-33631190D01*
X69024285Y-33916904D01*
X68976666Y-34012142D01*
X68929047Y-34059761D01*
X68833809Y-34107380D01*
X68690952Y-34107380D01*
%TO.C,R3*%
X129373333Y-85712380D02*
X129040000Y-85236190D01*
X128801904Y-85712380D02*
X128801904Y-84712380D01*
X129182857Y-84712380D01*
X129278095Y-84760000D01*
X129325714Y-84807619D01*
X129373333Y-84902857D01*
X129373333Y-85045714D01*
X129325714Y-85140952D01*
X129278095Y-85188571D01*
X129182857Y-85236190D01*
X128801904Y-85236190D01*
X129706666Y-84712380D02*
X130325714Y-84712380D01*
X129992380Y-85093333D01*
X130135238Y-85093333D01*
X130230476Y-85140952D01*
X130278095Y-85188571D01*
X130325714Y-85283809D01*
X130325714Y-85521904D01*
X130278095Y-85617142D01*
X130230476Y-85664761D01*
X130135238Y-85712380D01*
X129849523Y-85712380D01*
X129754285Y-85664761D01*
X129706666Y-85617142D01*
%TO.C,R4*%
X147193794Y-90200174D02*
X146860461Y-89723984D01*
X146622365Y-90200174D02*
X146622365Y-89200174D01*
X147003318Y-89200174D01*
X147098556Y-89247794D01*
X147146175Y-89295413D01*
X147193794Y-89390651D01*
X147193794Y-89533508D01*
X147146175Y-89628746D01*
X147098556Y-89676365D01*
X147003318Y-89723984D01*
X146622365Y-89723984D01*
X148050937Y-89533508D02*
X148050937Y-90200174D01*
X147812841Y-89152555D02*
X147574746Y-89866841D01*
X148193794Y-89866841D01*
%TO.C,R1*%
X131558032Y-48045875D02*
X131224699Y-47569685D01*
X130986603Y-48045875D02*
X130986603Y-47045875D01*
X131367556Y-47045875D01*
X131462794Y-47093495D01*
X131510413Y-47141114D01*
X131558032Y-47236352D01*
X131558032Y-47379209D01*
X131510413Y-47474447D01*
X131462794Y-47522066D01*
X131367556Y-47569685D01*
X130986603Y-47569685D01*
X132510413Y-48045875D02*
X131938984Y-48045875D01*
X132224699Y-48045875D02*
X132224699Y-47045875D01*
X132129460Y-47188733D01*
X132034222Y-47283971D01*
X131938984Y-47331590D01*
%TO.C,Batt.*%
X169283571Y-36075476D02*
X169331190Y-35932619D01*
X169378809Y-35885000D01*
X169474047Y-35837380D01*
X169616904Y-35837380D01*
X169712142Y-35885000D01*
X169759761Y-35932619D01*
X169807380Y-36027857D01*
X169807380Y-36408809D01*
X168807380Y-36408809D01*
X168807380Y-36075476D01*
X168855000Y-35980238D01*
X168902619Y-35932619D01*
X168997857Y-35885000D01*
X169093095Y-35885000D01*
X169188333Y-35932619D01*
X169235952Y-35980238D01*
X169283571Y-36075476D01*
X169283571Y-36408809D01*
X169807380Y-34980238D02*
X169283571Y-34980238D01*
X169188333Y-35027857D01*
X169140714Y-35123095D01*
X169140714Y-35313571D01*
X169188333Y-35408809D01*
X169759761Y-34980238D02*
X169807380Y-35075476D01*
X169807380Y-35313571D01*
X169759761Y-35408809D01*
X169664523Y-35456428D01*
X169569285Y-35456428D01*
X169474047Y-35408809D01*
X169426428Y-35313571D01*
X169426428Y-35075476D01*
X169378809Y-34980238D01*
X169140714Y-34646904D02*
X169140714Y-34265952D01*
X168807380Y-34504047D02*
X169664523Y-34504047D01*
X169759761Y-34456428D01*
X169807380Y-34361190D01*
X169807380Y-34265952D01*
X169140714Y-34075476D02*
X169140714Y-33694523D01*
X168807380Y-33932619D02*
X169664523Y-33932619D01*
X169759761Y-33885000D01*
X169807380Y-33789761D01*
X169807380Y-33694523D01*
X169712142Y-33361190D02*
X169759761Y-33313571D01*
X169807380Y-33361190D01*
X169759761Y-33408809D01*
X169712142Y-33361190D01*
X169807380Y-33361190D01*
X173462142Y-41956428D02*
X173462142Y-40813571D01*
X173462142Y-28956428D02*
X173462142Y-27813571D01*
X174033571Y-28385000D02*
X172890714Y-28385000D01*
%TO.C,IMU*%
X155110373Y-60814517D02*
X155110373Y-59814517D01*
X155586564Y-60814517D02*
X155586564Y-59814517D01*
X155919897Y-60528803D01*
X156253231Y-59814517D01*
X156253231Y-60814517D01*
X156729421Y-59814517D02*
X156729421Y-60624041D01*
X156777040Y-60719279D01*
X156824659Y-60766898D01*
X156919897Y-60814517D01*
X157110373Y-60814517D01*
X157205612Y-60766898D01*
X157253231Y-60719279D01*
X157300850Y-60624041D01*
X157300850Y-59814517D01*
%TO.C,U2*%
X118832380Y-54101904D02*
X119641904Y-54101904D01*
X119737142Y-54054285D01*
X119784761Y-54006666D01*
X119832380Y-53911428D01*
X119832380Y-53720952D01*
X119784761Y-53625714D01*
X119737142Y-53578095D01*
X119641904Y-53530476D01*
X118832380Y-53530476D01*
X118927619Y-53101904D02*
X118880000Y-53054285D01*
X118832380Y-52959047D01*
X118832380Y-52720952D01*
X118880000Y-52625714D01*
X118927619Y-52578095D01*
X119022857Y-52530476D01*
X119118095Y-52530476D01*
X119260952Y-52578095D01*
X119832380Y-53149523D01*
X119832380Y-52530476D01*
X106362857Y-43108571D02*
X106696190Y-43108571D01*
X106839047Y-43632380D02*
X106362857Y-43632380D01*
X106362857Y-42632380D01*
X106839047Y-42632380D01*
X107124761Y-42965714D02*
X107505714Y-42965714D01*
X107267619Y-42632380D02*
X107267619Y-43489523D01*
X107315238Y-43584761D01*
X107410476Y-43632380D01*
X107505714Y-43632380D01*
X107839047Y-43632380D02*
X107839047Y-42632380D01*
X108267619Y-43632380D02*
X108267619Y-43108571D01*
X108220000Y-43013333D01*
X108124761Y-42965714D01*
X107981904Y-42965714D01*
X107886666Y-43013333D01*
X107839047Y-43060952D01*
X109124761Y-43584761D02*
X109029523Y-43632380D01*
X108839047Y-43632380D01*
X108743809Y-43584761D01*
X108696190Y-43489523D01*
X108696190Y-43108571D01*
X108743809Y-43013333D01*
X108839047Y-42965714D01*
X109029523Y-42965714D01*
X109124761Y-43013333D01*
X109172380Y-43108571D01*
X109172380Y-43203809D01*
X108696190Y-43299047D01*
X109600952Y-43632380D02*
X109600952Y-42965714D01*
X109600952Y-43156190D02*
X109648571Y-43060952D01*
X109696190Y-43013333D01*
X109791428Y-42965714D01*
X109886666Y-42965714D01*
X110220000Y-42965714D02*
X110220000Y-43632380D01*
X110220000Y-43060952D02*
X110267619Y-43013333D01*
X110362857Y-42965714D01*
X110505714Y-42965714D01*
X110600952Y-43013333D01*
X110648571Y-43108571D01*
X110648571Y-43632380D01*
X111505714Y-43584761D02*
X111410476Y-43632380D01*
X111220000Y-43632380D01*
X111124761Y-43584761D01*
X111077142Y-43489523D01*
X111077142Y-43108571D01*
X111124761Y-43013333D01*
X111220000Y-42965714D01*
X111410476Y-42965714D01*
X111505714Y-43013333D01*
X111553333Y-43108571D01*
X111553333Y-43203809D01*
X111077142Y-43299047D01*
X111839047Y-42965714D02*
X112220000Y-42965714D01*
X111981904Y-42632380D02*
X111981904Y-43489523D01*
X112029523Y-43584761D01*
X112124761Y-43632380D01*
X112220000Y-43632380D01*
X106136666Y-52386666D02*
X106136666Y-51686666D01*
X106370000Y-52186666D01*
X106603333Y-51686666D01*
X106603333Y-52386666D01*
X106936666Y-52386666D02*
X106936666Y-51686666D01*
X107270000Y-52386666D02*
X107270000Y-51686666D01*
X107503333Y-52186666D01*
X107736666Y-51686666D01*
X107736666Y-52386666D01*
X108003333Y-51686666D02*
X108470000Y-52386666D01*
X108470000Y-51686666D02*
X108003333Y-52386666D01*
X109136666Y-52386666D02*
X108903333Y-52053333D01*
X108736666Y-52386666D02*
X108736666Y-51686666D01*
X109003333Y-51686666D01*
X109070000Y-51720000D01*
X109103333Y-51753333D01*
X109136666Y-51820000D01*
X109136666Y-51920000D01*
X109103333Y-51986666D01*
X109070000Y-52020000D01*
X109003333Y-52053333D01*
X108736666Y-52053333D01*
X109336666Y-51686666D02*
X109736666Y-51686666D01*
X109536666Y-52386666D02*
X109536666Y-51686666D01*
X110336666Y-52386666D02*
X109936666Y-52386666D01*
X110136666Y-52386666D02*
X110136666Y-51686666D01*
X110070000Y-51786666D01*
X110003333Y-51853333D01*
X109936666Y-51886666D01*
X110770000Y-51686666D02*
X110836666Y-51686666D01*
X110903333Y-51720000D01*
X110936666Y-51753333D01*
X110970000Y-51820000D01*
X111003333Y-51953333D01*
X111003333Y-52120000D01*
X110970000Y-52253333D01*
X110936666Y-52320000D01*
X110903333Y-52353333D01*
X110836666Y-52386666D01*
X110770000Y-52386666D01*
X110703333Y-52353333D01*
X110670000Y-52320000D01*
X110636666Y-52253333D01*
X110603333Y-52120000D01*
X110603333Y-51953333D01*
X110636666Y-51820000D01*
X110670000Y-51753333D01*
X110703333Y-51720000D01*
X110770000Y-51686666D01*
X111603333Y-51686666D02*
X111470000Y-51686666D01*
X111403333Y-51720000D01*
X111370000Y-51753333D01*
X111303333Y-51853333D01*
X111270000Y-51986666D01*
X111270000Y-52253333D01*
X111303333Y-52320000D01*
X111336666Y-52353333D01*
X111403333Y-52386666D01*
X111536666Y-52386666D01*
X111603333Y-52353333D01*
X111636666Y-52320000D01*
X111670000Y-52253333D01*
X111670000Y-52086666D01*
X111636666Y-52020000D01*
X111603333Y-51986666D01*
X111536666Y-51953333D01*
X111403333Y-51953333D01*
X111336666Y-51986666D01*
X111303333Y-52020000D01*
X111270000Y-52086666D01*
X111936666Y-51753333D02*
X111970000Y-51720000D01*
X112036666Y-51686666D01*
X112203333Y-51686666D01*
X112270000Y-51720000D01*
X112303333Y-51753333D01*
X112336666Y-51820000D01*
X112336666Y-51886666D01*
X112303333Y-51986666D01*
X111903333Y-52386666D01*
X112336666Y-52386666D01*
X107958095Y-26122380D02*
X107958095Y-26931904D01*
X108005714Y-27027142D01*
X108053333Y-27074761D01*
X108148571Y-27122380D01*
X108339047Y-27122380D01*
X108434285Y-27074761D01*
X108481904Y-27027142D01*
X108529523Y-26931904D01*
X108529523Y-26122380D01*
X108958095Y-27074761D02*
X109100952Y-27122380D01*
X109339047Y-27122380D01*
X109434285Y-27074761D01*
X109481904Y-27027142D01*
X109529523Y-26931904D01*
X109529523Y-26836666D01*
X109481904Y-26741428D01*
X109434285Y-26693809D01*
X109339047Y-26646190D01*
X109148571Y-26598571D01*
X109053333Y-26550952D01*
X109005714Y-26503333D01*
X108958095Y-26408095D01*
X108958095Y-26312857D01*
X109005714Y-26217619D01*
X109053333Y-26170000D01*
X109148571Y-26122380D01*
X109386666Y-26122380D01*
X109529523Y-26170000D01*
X110291428Y-26598571D02*
X110434285Y-26646190D01*
X110481904Y-26693809D01*
X110529523Y-26789047D01*
X110529523Y-26931904D01*
X110481904Y-27027142D01*
X110434285Y-27074761D01*
X110339047Y-27122380D01*
X109958095Y-27122380D01*
X109958095Y-26122380D01*
X110291428Y-26122380D01*
X110386666Y-26170000D01*
X110434285Y-26217619D01*
X110481904Y-26312857D01*
X110481904Y-26408095D01*
X110434285Y-26503333D01*
X110386666Y-26550952D01*
X110291428Y-26598571D01*
X109958095Y-26598571D01*
X108016666Y-51116666D02*
X108016666Y-50416666D01*
X108183333Y-50416666D01*
X108283333Y-50450000D01*
X108350000Y-50516666D01*
X108383333Y-50583333D01*
X108416666Y-50716666D01*
X108416666Y-50816666D01*
X108383333Y-50950000D01*
X108350000Y-51016666D01*
X108283333Y-51083333D01*
X108183333Y-51116666D01*
X108016666Y-51116666D01*
X108616666Y-50416666D02*
X108850000Y-51116666D01*
X109083333Y-50416666D01*
X109516666Y-50416666D02*
X109516666Y-50916666D01*
X109483333Y-51016666D01*
X109416666Y-51083333D01*
X109316666Y-51116666D01*
X109250000Y-51116666D01*
X110150000Y-50416666D02*
X110016666Y-50416666D01*
X109950000Y-50450000D01*
X109916666Y-50483333D01*
X109850000Y-50583333D01*
X109816666Y-50716666D01*
X109816666Y-50983333D01*
X109850000Y-51050000D01*
X109883333Y-51083333D01*
X109950000Y-51116666D01*
X110083333Y-51116666D01*
X110150000Y-51083333D01*
X110183333Y-51050000D01*
X110216666Y-50983333D01*
X110216666Y-50816666D01*
X110183333Y-50750000D01*
X110150000Y-50716666D01*
X110083333Y-50683333D01*
X109950000Y-50683333D01*
X109883333Y-50716666D01*
X109850000Y-50750000D01*
X109816666Y-50816666D01*
X110483333Y-50916666D02*
X110816666Y-50916666D01*
X110416666Y-51116666D02*
X110650000Y-50416666D01*
X110883333Y-51116666D01*
X109672380Y-80589047D02*
X108672380Y-80589047D01*
X109386666Y-80255714D01*
X108672380Y-79922380D01*
X109672380Y-79922380D01*
X109672380Y-79446190D02*
X109005714Y-79446190D01*
X108672380Y-79446190D02*
X108720000Y-79493809D01*
X108767619Y-79446190D01*
X108720000Y-79398571D01*
X108672380Y-79446190D01*
X108767619Y-79446190D01*
X109624761Y-78541428D02*
X109672380Y-78636666D01*
X109672380Y-78827142D01*
X109624761Y-78922380D01*
X109577142Y-78970000D01*
X109481904Y-79017619D01*
X109196190Y-79017619D01*
X109100952Y-78970000D01*
X109053333Y-78922380D01*
X109005714Y-78827142D01*
X109005714Y-78636666D01*
X109053333Y-78541428D01*
X109672380Y-78112857D02*
X109005714Y-78112857D01*
X109196190Y-78112857D02*
X109100952Y-78065238D01*
X109053333Y-78017619D01*
X109005714Y-77922380D01*
X109005714Y-77827142D01*
X109672380Y-77350952D02*
X109624761Y-77446190D01*
X109577142Y-77493809D01*
X109481904Y-77541428D01*
X109196190Y-77541428D01*
X109100952Y-77493809D01*
X109053333Y-77446190D01*
X109005714Y-77350952D01*
X109005714Y-77208095D01*
X109053333Y-77112857D01*
X109100952Y-77065238D01*
X109196190Y-77017619D01*
X109481904Y-77017619D01*
X109577142Y-77065238D01*
X109624761Y-77112857D01*
X109672380Y-77208095D01*
X109672380Y-77350952D01*
X109624761Y-75874761D02*
X109672380Y-75731904D01*
X109672380Y-75493809D01*
X109624761Y-75398571D01*
X109577142Y-75350952D01*
X109481904Y-75303333D01*
X109386666Y-75303333D01*
X109291428Y-75350952D01*
X109243809Y-75398571D01*
X109196190Y-75493809D01*
X109148571Y-75684285D01*
X109100952Y-75779523D01*
X109053333Y-75827142D01*
X108958095Y-75874761D01*
X108862857Y-75874761D01*
X108767619Y-75827142D01*
X108720000Y-75779523D01*
X108672380Y-75684285D01*
X108672380Y-75446190D01*
X108720000Y-75303333D01*
X109672380Y-74874761D02*
X108672380Y-74874761D01*
X108672380Y-74636666D01*
X108720000Y-74493809D01*
X108815238Y-74398571D01*
X108910476Y-74350952D01*
X109100952Y-74303333D01*
X109243809Y-74303333D01*
X109434285Y-74350952D01*
X109529523Y-74398571D01*
X109624761Y-74493809D01*
X109672380Y-74636666D01*
X109672380Y-74874761D01*
X106183180Y-38183723D02*
X106992704Y-38183723D01*
X107087942Y-38136104D01*
X107135561Y-38088485D01*
X107183180Y-37993247D01*
X107183180Y-37802771D01*
X107135561Y-37707533D01*
X107087942Y-37659914D01*
X106992704Y-37612295D01*
X106183180Y-37612295D01*
X107135561Y-37183723D02*
X107183180Y-37040866D01*
X107183180Y-36802771D01*
X107135561Y-36707533D01*
X107087942Y-36659914D01*
X106992704Y-36612295D01*
X106897466Y-36612295D01*
X106802228Y-36659914D01*
X106754609Y-36707533D01*
X106706990Y-36802771D01*
X106659371Y-36993247D01*
X106611752Y-37088485D01*
X106564133Y-37136104D01*
X106468895Y-37183723D01*
X106373657Y-37183723D01*
X106278419Y-37136104D01*
X106230800Y-37088485D01*
X106183180Y-36993247D01*
X106183180Y-36755152D01*
X106230800Y-36612295D01*
X106659371Y-35850390D02*
X106706990Y-35707533D01*
X106754609Y-35659914D01*
X106849847Y-35612295D01*
X106992704Y-35612295D01*
X107087942Y-35659914D01*
X107135561Y-35707533D01*
X107183180Y-35802771D01*
X107183180Y-36183723D01*
X106183180Y-36183723D01*
X106183180Y-35850390D01*
X106230800Y-35755152D01*
X106278419Y-35707533D01*
X106373657Y-35659914D01*
X106468895Y-35659914D01*
X106564133Y-35707533D01*
X106611752Y-35755152D01*
X106659371Y-35850390D01*
X106659371Y-36183723D01*
X107183180Y-34421819D02*
X106183180Y-34421819D01*
X106659371Y-34421819D02*
X106659371Y-33850390D01*
X107183180Y-33850390D02*
X106183180Y-33850390D01*
X107183180Y-33231342D02*
X107135561Y-33326580D01*
X107087942Y-33374200D01*
X106992704Y-33421819D01*
X106706990Y-33421819D01*
X106611752Y-33374200D01*
X106564133Y-33326580D01*
X106516514Y-33231342D01*
X106516514Y-33088485D01*
X106564133Y-32993247D01*
X106611752Y-32945628D01*
X106706990Y-32898009D01*
X106992704Y-32898009D01*
X107087942Y-32945628D01*
X107135561Y-32993247D01*
X107183180Y-33088485D01*
X107183180Y-33231342D01*
X107135561Y-32517057D02*
X107183180Y-32421819D01*
X107183180Y-32231342D01*
X107135561Y-32136104D01*
X107040323Y-32088485D01*
X106992704Y-32088485D01*
X106897466Y-32136104D01*
X106849847Y-32231342D01*
X106849847Y-32374200D01*
X106802228Y-32469438D01*
X106706990Y-32517057D01*
X106659371Y-32517057D01*
X106564133Y-32469438D01*
X106516514Y-32374200D01*
X106516514Y-32231342D01*
X106564133Y-32136104D01*
X106516514Y-31802771D02*
X106516514Y-31421819D01*
X106183180Y-31659914D02*
X107040323Y-31659914D01*
X107135561Y-31612295D01*
X107183180Y-31517057D01*
X107183180Y-31421819D01*
%TO.C,J2*%
X53217380Y-73358333D02*
X53931666Y-73358333D01*
X54074523Y-73405952D01*
X54169761Y-73501190D01*
X54217380Y-73644047D01*
X54217380Y-73739285D01*
X53312619Y-72929761D02*
X53265000Y-72882142D01*
X53217380Y-72786904D01*
X53217380Y-72548809D01*
X53265000Y-72453571D01*
X53312619Y-72405952D01*
X53407857Y-72358333D01*
X53503095Y-72358333D01*
X53645952Y-72405952D01*
X54217380Y-72977380D01*
X54217380Y-72358333D01*
%TO.C,Barometer*%
X124846004Y-77144780D02*
X124988861Y-77192399D01*
X125036480Y-77240018D01*
X125084099Y-77335256D01*
X125084099Y-77478113D01*
X125036480Y-77573351D01*
X124988861Y-77620970D01*
X124893623Y-77668589D01*
X124512670Y-77668589D01*
X124512670Y-76668589D01*
X124846004Y-76668589D01*
X124941242Y-76716209D01*
X124988861Y-76763828D01*
X125036480Y-76859066D01*
X125036480Y-76954304D01*
X124988861Y-77049542D01*
X124941242Y-77097161D01*
X124846004Y-77144780D01*
X124512670Y-77144780D01*
X125941242Y-77668589D02*
X125941242Y-77144780D01*
X125893623Y-77049542D01*
X125798385Y-77001923D01*
X125607909Y-77001923D01*
X125512670Y-77049542D01*
X125941242Y-77620970D02*
X125846004Y-77668589D01*
X125607909Y-77668589D01*
X125512670Y-77620970D01*
X125465051Y-77525732D01*
X125465051Y-77430494D01*
X125512670Y-77335256D01*
X125607909Y-77287637D01*
X125846004Y-77287637D01*
X125941242Y-77240018D01*
X126417432Y-77668589D02*
X126417432Y-77001923D01*
X126417432Y-77192399D02*
X126465051Y-77097161D01*
X126512670Y-77049542D01*
X126607909Y-77001923D01*
X126703147Y-77001923D01*
X127179337Y-77668589D02*
X127084099Y-77620970D01*
X127036480Y-77573351D01*
X126988861Y-77478113D01*
X126988861Y-77192399D01*
X127036480Y-77097161D01*
X127084099Y-77049542D01*
X127179337Y-77001923D01*
X127322194Y-77001923D01*
X127417432Y-77049542D01*
X127465051Y-77097161D01*
X127512670Y-77192399D01*
X127512670Y-77478113D01*
X127465051Y-77573351D01*
X127417432Y-77620970D01*
X127322194Y-77668589D01*
X127179337Y-77668589D01*
X127941242Y-77668589D02*
X127941242Y-77001923D01*
X127941242Y-77097161D02*
X127988861Y-77049542D01*
X128084099Y-77001923D01*
X128226956Y-77001923D01*
X128322194Y-77049542D01*
X128369813Y-77144780D01*
X128369813Y-77668589D01*
X128369813Y-77144780D02*
X128417432Y-77049542D01*
X128512670Y-77001923D01*
X128655528Y-77001923D01*
X128750766Y-77049542D01*
X128798385Y-77144780D01*
X128798385Y-77668589D01*
X129655528Y-77620970D02*
X129560289Y-77668589D01*
X129369813Y-77668589D01*
X129274575Y-77620970D01*
X129226956Y-77525732D01*
X129226956Y-77144780D01*
X129274575Y-77049542D01*
X129369813Y-77001923D01*
X129560289Y-77001923D01*
X129655528Y-77049542D01*
X129703147Y-77144780D01*
X129703147Y-77240018D01*
X129226956Y-77335256D01*
X129988861Y-77001923D02*
X130369813Y-77001923D01*
X130131718Y-76668589D02*
X130131718Y-77525732D01*
X130179337Y-77620970D01*
X130274575Y-77668589D01*
X130369813Y-77668589D01*
X131084099Y-77620970D02*
X130988861Y-77668589D01*
X130798385Y-77668589D01*
X130703147Y-77620970D01*
X130655528Y-77525732D01*
X130655528Y-77144780D01*
X130703147Y-77049542D01*
X130798385Y-77001923D01*
X130988861Y-77001923D01*
X131084099Y-77049542D01*
X131131718Y-77144780D01*
X131131718Y-77240018D01*
X130655528Y-77335256D01*
X131560289Y-77668589D02*
X131560289Y-77001923D01*
X131560289Y-77192399D02*
X131607909Y-77097161D01*
X131655528Y-77049542D01*
X131750766Y-77001923D01*
X131846004Y-77001923D01*
%TO.C,BZ1*%
X145561939Y-78599899D02*
X145609558Y-78457042D01*
X145657177Y-78409423D01*
X145752415Y-78361804D01*
X145895272Y-78361804D01*
X145990510Y-78409423D01*
X146038129Y-78457042D01*
X146085748Y-78552280D01*
X146085748Y-78933232D01*
X145085748Y-78933232D01*
X145085748Y-78599899D01*
X145133368Y-78504661D01*
X145180987Y-78457042D01*
X145276225Y-78409423D01*
X145371463Y-78409423D01*
X145466701Y-78457042D01*
X145514320Y-78504661D01*
X145561939Y-78599899D01*
X145561939Y-78933232D01*
X145085748Y-78028470D02*
X145085748Y-77361804D01*
X146085748Y-78028470D01*
X146085748Y-77361804D01*
X146085748Y-76457042D02*
X146085748Y-77028470D01*
X146085748Y-76742756D02*
X145085748Y-76742756D01*
X145228606Y-76837994D01*
X145323844Y-76933232D01*
X145371463Y-77028470D01*
X47199582Y-86113201D02*
X47199582Y-85351296D01*
X47580534Y-85732249D02*
X46818630Y-85732249D01*
%TO.C,GPS*%
X88982042Y-80833660D02*
X88886804Y-80786040D01*
X88743947Y-80786040D01*
X88601089Y-80833660D01*
X88505851Y-80928898D01*
X88458232Y-81024136D01*
X88410613Y-81214612D01*
X88410613Y-81357469D01*
X88458232Y-81547945D01*
X88505851Y-81643183D01*
X88601089Y-81738421D01*
X88743947Y-81786040D01*
X88839185Y-81786040D01*
X88982042Y-81738421D01*
X89029661Y-81690802D01*
X89029661Y-81357469D01*
X88839185Y-81357469D01*
X89458232Y-81786040D02*
X89458232Y-80786040D01*
X89839185Y-80786040D01*
X89934423Y-80833660D01*
X89982042Y-80881279D01*
X90029661Y-80976517D01*
X90029661Y-81119374D01*
X89982042Y-81214612D01*
X89934423Y-81262231D01*
X89839185Y-81309850D01*
X89458232Y-81309850D01*
X90410613Y-81738421D02*
X90553470Y-81786040D01*
X90791566Y-81786040D01*
X90886804Y-81738421D01*
X90934423Y-81690802D01*
X90982042Y-81595564D01*
X90982042Y-81500326D01*
X90934423Y-81405088D01*
X90886804Y-81357469D01*
X90791566Y-81309850D01*
X90601089Y-81262231D01*
X90505851Y-81214612D01*
X90458232Y-81166993D01*
X90410613Y-81071755D01*
X90410613Y-80976517D01*
X90458232Y-80881279D01*
X90505851Y-80833660D01*
X90601089Y-80786040D01*
X90839185Y-80786040D01*
X90982042Y-80833660D01*
D11*
%TO.C,U6*%
X43638714Y-48787555D02*
X44872428Y-48787555D01*
X45017571Y-48714984D01*
X45090143Y-48642413D01*
X45162714Y-48497270D01*
X45162714Y-48206984D01*
X45090143Y-48061841D01*
X45017571Y-47989270D01*
X44872428Y-47916698D01*
X43638714Y-47916698D01*
X43638714Y-46537841D02*
X43638714Y-46828127D01*
X43711286Y-46973270D01*
X43783857Y-47045841D01*
X44001571Y-47190984D01*
X44291857Y-47263555D01*
X44872428Y-47263555D01*
X45017571Y-47190984D01*
X45090143Y-47118413D01*
X45162714Y-46973270D01*
X45162714Y-46682984D01*
X45090143Y-46537841D01*
X45017571Y-46465270D01*
X44872428Y-46392698D01*
X44509571Y-46392698D01*
X44364428Y-46465270D01*
X44291857Y-46537841D01*
X44219286Y-46682984D01*
X44219286Y-46973270D01*
X44291857Y-47118413D01*
X44364428Y-47190984D01*
X44509571Y-47263555D01*
D10*
%TO.C,Volt. Reg.*%
X156774578Y-36405385D02*
X157774578Y-36072052D01*
X156774578Y-35738718D01*
X157774578Y-35262528D02*
X157726959Y-35357766D01*
X157679340Y-35405385D01*
X157584102Y-35453004D01*
X157298388Y-35453004D01*
X157203150Y-35405385D01*
X157155531Y-35357766D01*
X157107912Y-35262528D01*
X157107912Y-35119671D01*
X157155531Y-35024433D01*
X157203150Y-34976814D01*
X157298388Y-34929195D01*
X157584102Y-34929195D01*
X157679340Y-34976814D01*
X157726959Y-35024433D01*
X157774578Y-35119671D01*
X157774578Y-35262528D01*
X157774578Y-34357766D02*
X157726959Y-34453004D01*
X157631721Y-34500623D01*
X156774578Y-34500623D01*
X157107912Y-34119671D02*
X157107912Y-33738718D01*
X156774578Y-33976814D02*
X157631721Y-33976814D01*
X157726959Y-33929195D01*
X157774578Y-33833957D01*
X157774578Y-33738718D01*
X157679340Y-33405385D02*
X157726959Y-33357766D01*
X157774578Y-33405385D01*
X157726959Y-33453004D01*
X157679340Y-33405385D01*
X157774578Y-33405385D01*
X157774578Y-31595861D02*
X157298388Y-31929195D01*
X157774578Y-32167290D02*
X156774578Y-32167290D01*
X156774578Y-31786337D01*
X156822198Y-31691099D01*
X156869817Y-31643480D01*
X156965055Y-31595861D01*
X157107912Y-31595861D01*
X157203150Y-31643480D01*
X157250769Y-31691099D01*
X157298388Y-31786337D01*
X157298388Y-32167290D01*
X157726959Y-30786337D02*
X157774578Y-30881576D01*
X157774578Y-31072052D01*
X157726959Y-31167290D01*
X157631721Y-31214909D01*
X157250769Y-31214909D01*
X157155531Y-31167290D01*
X157107912Y-31072052D01*
X157107912Y-30881576D01*
X157155531Y-30786337D01*
X157250769Y-30738718D01*
X157346007Y-30738718D01*
X157441245Y-31214909D01*
X157107912Y-29881576D02*
X157917436Y-29881576D01*
X158012674Y-29929195D01*
X158060293Y-29976814D01*
X158107912Y-30072052D01*
X158107912Y-30214909D01*
X158060293Y-30310147D01*
X157726959Y-29881576D02*
X157774578Y-29976814D01*
X157774578Y-30167290D01*
X157726959Y-30262528D01*
X157679340Y-30310147D01*
X157584102Y-30357766D01*
X157298388Y-30357766D01*
X157203150Y-30310147D01*
X157155531Y-30262528D01*
X157107912Y-30167290D01*
X157107912Y-29976814D01*
X157155531Y-29881576D01*
X157679340Y-29405385D02*
X157726959Y-29357766D01*
X157774578Y-29405385D01*
X157726959Y-29453004D01*
X157679340Y-29405385D01*
X157774578Y-29405385D01*
D12*
%TO.C,R2*%
X134914950Y-52580936D02*
X128374950Y-52580936D01*
X128374950Y-55320936D02*
X134914950Y-55320936D01*
X134914950Y-55320936D02*
X134914950Y-52580936D01*
X128374950Y-52580936D02*
X128374950Y-55320936D01*
X127604950Y-53950936D02*
X128374950Y-53950936D01*
X135684950Y-53950936D02*
X134914950Y-53950936D01*
%TO.C,radio*%
X62270150Y-44982500D02*
X62270150Y-57802500D01*
X60630150Y-45114029D02*
X60630150Y-44982500D01*
X58740150Y-45677500D02*
X58740150Y-44917500D01*
X60177680Y-57802500D02*
X60832620Y-57802500D01*
X60630150Y-44982500D02*
X60832620Y-44982500D01*
X58740150Y-44917500D02*
X59870150Y-44917500D01*
X58740150Y-57802500D02*
X59562620Y-57802500D01*
X61447680Y-44982500D02*
X62270150Y-44982500D01*
X60433621Y-46437500D02*
X60576679Y-46437500D01*
X58793628Y-57992417D02*
X61793628Y-57992417D01*
X58740150Y-46437500D02*
X58740150Y-57802500D01*
X60630150Y-46384029D02*
X60630150Y-46240971D01*
X61447680Y-57802500D02*
X62270150Y-57802500D01*
X58740150Y-46437500D02*
X59306679Y-46437500D01*
X56043628Y-65992417D02*
X97043628Y-65992417D01*
X97043628Y-65992417D02*
X97043628Y-20992417D01*
X97043628Y-20992417D02*
X56043628Y-20992417D01*
X56043628Y-20992417D02*
X56043628Y-65992417D01*
%TO.C,R3*%
X126270000Y-86260000D02*
X126270000Y-89000000D01*
X133580000Y-87630000D02*
X132810000Y-87630000D01*
X125500000Y-87630000D02*
X126270000Y-87630000D01*
X132810000Y-89000000D02*
X132810000Y-86260000D01*
X126270000Y-89000000D02*
X132810000Y-89000000D01*
X132810000Y-86260000D02*
X126270000Y-86260000D01*
%TO.C,R4*%
X151400461Y-87377794D02*
X150630461Y-87377794D01*
X144090461Y-88747794D02*
X150630461Y-88747794D01*
X143320461Y-87377794D02*
X144090461Y-87377794D01*
X150630461Y-88747794D02*
X150630461Y-86007794D01*
X150630461Y-86007794D02*
X144090461Y-86007794D01*
X144090461Y-86007794D02*
X144090461Y-88747794D01*
%TO.C,R1*%
X135764699Y-49963495D02*
X134994699Y-49963495D01*
X134994699Y-51333495D02*
X134994699Y-48593495D01*
X127684699Y-49963495D02*
X128454699Y-49963495D01*
X128454699Y-48593495D02*
X128454699Y-51333495D01*
X128454699Y-51333495D02*
X134994699Y-51333495D01*
X134994699Y-48593495D02*
X128454699Y-48593495D01*
%TO.C,Batt.*%
X176065000Y-38395000D02*
X176065000Y-29675000D01*
X171945000Y-40095000D02*
X174765000Y-40095000D01*
X171945000Y-40095000D02*
X170645000Y-38395000D01*
X170645000Y-38395000D02*
X170645000Y-29675000D01*
X174765000Y-40095000D02*
X176065000Y-38395000D01*
X170645000Y-29675000D02*
X176065000Y-29675000D01*
%TO.C,IMU*%
X142965612Y-52702137D02*
X142965612Y-50102137D01*
X140365612Y-80702137D02*
X145565612Y-80702137D01*
X142965612Y-50102137D02*
X145565612Y-50102137D01*
X140365612Y-52702137D02*
X142965612Y-52702137D01*
X140365612Y-50102137D02*
X141695612Y-50102137D01*
X145565612Y-50102137D02*
X145565612Y-80702137D01*
X140365612Y-51432137D02*
X140365612Y-50102137D01*
X140365612Y-52702137D02*
X140365612Y-80702137D01*
X177700612Y-46987137D02*
X139600612Y-46987137D01*
X139600612Y-46987137D02*
X139600612Y-85087137D01*
X139600612Y-85087137D02*
X177700612Y-85087137D01*
X177700612Y-85087137D02*
X177700612Y-46987137D01*
D10*
%TO.C,U2*%
X118110000Y-83820000D02*
X100330000Y-83820000D01*
X105410000Y-27940000D02*
X105410000Y-22860000D01*
X113030000Y-21590000D02*
X113030000Y-22860000D01*
X118110000Y-22860000D02*
X118110000Y-83820000D01*
X115571600Y-36090000D02*
X115321600Y-36090000D01*
X115570000Y-83820000D02*
X115570000Y-71120000D01*
X107950000Y-67310000D02*
X107950000Y-63500000D01*
X100330000Y-22860000D02*
X118110000Y-22860000D01*
X114300000Y-83820000D02*
X114300000Y-82550000D01*
X114300000Y-82550000D02*
X104140000Y-82550000D01*
X115570000Y-58420000D02*
X115570000Y-45720000D01*
X105920800Y-29159200D02*
X105920800Y-31699200D01*
X105920800Y-31699200D02*
X103380800Y-31699200D01*
X109321600Y-40090000D02*
X115571600Y-40090000D01*
X113030000Y-27940000D02*
X113030000Y-22860000D01*
X100330000Y-83820000D02*
X100330000Y-22860000D01*
X102870000Y-71120000D02*
X102870000Y-83820000D01*
X110490000Y-63500000D02*
X110490000Y-67310000D01*
X105920800Y-41859200D02*
X103380800Y-41859200D01*
X102870000Y-58420000D02*
X115570000Y-58420000D01*
X103380800Y-29159200D02*
X105920800Y-29159200D01*
X115570000Y-71120000D02*
X102870000Y-71120000D01*
X104140000Y-82550000D02*
X104140000Y-83820000D01*
X110490000Y-67310000D02*
X107950000Y-67310000D01*
X115570000Y-45720000D02*
X102870000Y-45720000D01*
X115571600Y-40090000D02*
X115571600Y-36090000D01*
X105410000Y-22860000D02*
X105410000Y-21590000D01*
X105410000Y-27940000D02*
X113030000Y-27940000D01*
X102870000Y-45720000D02*
X102870000Y-58420000D01*
X103380800Y-41859200D02*
X103380800Y-29159200D01*
X107950000Y-63500000D02*
X110490000Y-63500000D01*
X105920800Y-29159200D02*
X105920800Y-41859200D01*
X109321600Y-36090000D02*
X109321600Y-40090000D01*
X115321600Y-36090000D02*
X109321600Y-36090000D01*
X105410000Y-21590000D02*
X113030000Y-21590000D01*
X110118026Y-65405000D02*
G75*
G03*
X110118026Y-65405000I-898026J0D01*
G01*
G36*
X109908000Y-56283000D02*
G01*
X109527000Y-56537000D01*
X109273000Y-56283000D01*
X109654000Y-56029000D01*
X109908000Y-56283000D01*
G37*
D13*
X109908000Y-56283000D02*
X109527000Y-56537000D01*
X109273000Y-56283000D01*
X109654000Y-56029000D01*
X109908000Y-56283000D01*
G36*
X109146000Y-55521000D02*
G01*
X108765000Y-55775000D01*
X108511000Y-55521000D01*
X108892000Y-55267000D01*
X109146000Y-55521000D01*
G37*
X109146000Y-55521000D02*
X108765000Y-55775000D01*
X108511000Y-55521000D01*
X108892000Y-55267000D01*
X109146000Y-55521000D01*
G36*
X110289000Y-53997000D02*
G01*
X109908000Y-54251000D01*
X109654000Y-53997000D01*
X110035000Y-53743000D01*
X110289000Y-53997000D01*
G37*
X110289000Y-53997000D02*
X109908000Y-54251000D01*
X109654000Y-53997000D01*
X110035000Y-53743000D01*
X110289000Y-53997000D01*
G36*
X110162000Y-54759000D02*
G01*
X109781000Y-55013000D01*
X109527000Y-54759000D01*
X109908000Y-54505000D01*
X110162000Y-54759000D01*
G37*
X110162000Y-54759000D02*
X109781000Y-55013000D01*
X109527000Y-54759000D01*
X109908000Y-54505000D01*
X110162000Y-54759000D01*
G36*
X109527000Y-55902000D02*
G01*
X109146000Y-56156000D01*
X108892000Y-55902000D01*
X109273000Y-55648000D01*
X109527000Y-55902000D01*
G37*
X109527000Y-55902000D02*
X109146000Y-56156000D01*
X108892000Y-55902000D01*
X109273000Y-55648000D01*
X109527000Y-55902000D01*
G36*
X109654000Y-55140000D02*
G01*
X109273000Y-55394000D01*
X109019000Y-55140000D01*
X109400000Y-54886000D01*
X109654000Y-55140000D01*
G37*
X109654000Y-55140000D02*
X109273000Y-55394000D01*
X109019000Y-55140000D01*
X109400000Y-54886000D01*
X109654000Y-55140000D01*
G36*
X109273000Y-54759000D02*
G01*
X108892000Y-55013000D01*
X108638000Y-54759000D01*
X109019000Y-54505000D01*
X109273000Y-54759000D01*
G37*
X109273000Y-54759000D02*
X108892000Y-55013000D01*
X108638000Y-54759000D01*
X109019000Y-54505000D01*
X109273000Y-54759000D01*
G36*
X109781000Y-54378000D02*
G01*
X109400000Y-54632000D01*
X109146000Y-54378000D01*
X109527000Y-54124000D01*
X109781000Y-54378000D01*
G37*
X109781000Y-54378000D02*
X109400000Y-54632000D01*
X109146000Y-54378000D01*
X109527000Y-54124000D01*
X109781000Y-54378000D01*
D12*
%TO.C,J2*%
X50165000Y-71695000D02*
X45025000Y-71695000D01*
X51435000Y-71695000D02*
X52765000Y-71695000D01*
X50165000Y-71695000D02*
X50165000Y-74355000D01*
X50165000Y-74355000D02*
X45025000Y-74355000D01*
X52765000Y-71695000D02*
X52765000Y-73025000D01*
X45025000Y-71695000D02*
X45025000Y-74355000D01*
%TO.C,Barometer*%
X119693239Y-85133571D02*
X137473239Y-85133571D01*
X137473239Y-85133571D02*
X137473239Y-71798571D01*
X137473239Y-71798571D02*
X119693239Y-71798571D01*
X119693239Y-71798571D02*
X119693239Y-85133571D01*
%TO.C,BZ1*%
X55768154Y-81922249D02*
G75*
G03*
X55768154Y-81922249I-6100000J0D01*
G01*
%TO.C,GPS*%
X77686437Y-80804650D02*
X71686437Y-80804650D01*
X80743508Y-78804650D02*
X80346437Y-78804650D01*
X71686437Y-78044650D02*
X77686437Y-78044650D01*
X80346437Y-77154650D02*
X77686437Y-77154650D01*
X80743508Y-76264650D02*
X80346437Y-76264650D01*
X71686437Y-72964650D02*
X77686437Y-72964650D01*
X80346437Y-72014650D02*
X77686437Y-72014650D01*
X77686437Y-81044650D02*
X71686437Y-81044650D01*
X80743508Y-72964650D02*
X80346437Y-72964650D01*
X83056437Y-80964650D02*
X83056437Y-82234650D01*
X77686437Y-81344650D02*
X71686437Y-81344650D01*
X77686437Y-76264650D02*
X71686437Y-76264650D01*
X77686437Y-82294650D02*
X80346437Y-82294650D01*
X80676437Y-81344650D02*
X80346437Y-81344650D01*
X77686437Y-81164650D02*
X71686437Y-81164650D01*
X77686437Y-72014650D02*
X77686437Y-82294650D01*
X71686437Y-75504650D02*
X77686437Y-75504650D01*
X77686437Y-78804650D02*
X71686437Y-78804650D01*
X71686437Y-81344650D02*
X71686437Y-80584650D01*
X77686437Y-81284650D02*
X71686437Y-81284650D01*
X77686437Y-73724650D02*
X71686437Y-73724650D01*
X80743508Y-78044650D02*
X80346437Y-78044650D01*
X80346437Y-74614650D02*
X77686437Y-74614650D01*
X71686437Y-73724650D02*
X71686437Y-72964650D01*
X71686437Y-76264650D02*
X71686437Y-75504650D01*
X80743508Y-73724650D02*
X80346437Y-73724650D01*
X80346437Y-82294650D02*
X80346437Y-72014650D01*
X77686437Y-80924650D02*
X71686437Y-80924650D01*
X80743508Y-75504650D02*
X80346437Y-75504650D01*
X80676437Y-80584650D02*
X80346437Y-80584650D01*
X71686437Y-78804650D02*
X71686437Y-78044650D01*
X83056437Y-82234650D02*
X81786437Y-82234650D01*
X77686437Y-80684650D02*
X71686437Y-80684650D01*
X80346437Y-79694650D02*
X77686437Y-79694650D01*
X71686437Y-80584650D02*
X77686437Y-80584650D01*
X64296328Y-88953660D02*
X87156328Y-88953660D01*
X87156328Y-88953660D02*
X87156328Y-66093660D01*
X87156328Y-66093660D02*
X64296328Y-66093660D01*
X64296328Y-66093660D02*
X64296328Y-88953660D01*
%TO.C,U6*%
G36*
X49850592Y-44470581D02*
G01*
X50121707Y-44540884D01*
X50284117Y-44691517D01*
X50364213Y-44949860D01*
X50388387Y-45343292D01*
X50388836Y-45433022D01*
X50373903Y-45839593D01*
X50309997Y-46106712D01*
X50168458Y-46263041D01*
X49920627Y-46337238D01*
X49537845Y-46357963D01*
X49463626Y-46358232D01*
X49042217Y-46341507D01*
X48760959Y-46273740D01*
X48592473Y-46128539D01*
X48509380Y-45879513D01*
X48484302Y-45500270D01*
X48483836Y-45413776D01*
X48485159Y-45361280D01*
X48826825Y-45361280D01*
X48835022Y-45630832D01*
X48894837Y-45836496D01*
X48924102Y-45875632D01*
X49080380Y-45942686D01*
X49330306Y-45972662D01*
X49602307Y-45965558D01*
X49824808Y-45921374D01*
X49906236Y-45875631D01*
X49966824Y-45734925D01*
X50003171Y-45495868D01*
X50007836Y-45370610D01*
X49989807Y-45097877D01*
X49924922Y-44943107D01*
X49844069Y-44879544D01*
X49594729Y-44805825D01*
X49306378Y-44800828D01*
X49055376Y-44860652D01*
X48955550Y-44924946D01*
X48867813Y-45101447D01*
X48826825Y-45361280D01*
X48485159Y-45361280D01*
X48492581Y-45066808D01*
X48525403Y-44842409D01*
X48592184Y-44694407D01*
X48653169Y-44622565D01*
X48777381Y-44530469D01*
X48950087Y-44478304D01*
X49217457Y-44456188D01*
X49306378Y-44455030D01*
X49444380Y-44453232D01*
X49850592Y-44470581D01*
G37*
G36*
X53612376Y-25564724D02*
G01*
X53640402Y-25764041D01*
X53648502Y-25984940D01*
X53643252Y-26209479D01*
X53615960Y-26390576D01*
X53549320Y-26568326D01*
X53426024Y-26782825D01*
X53228764Y-27074166D01*
X53098513Y-27259028D01*
X52801875Y-27670499D01*
X52495941Y-28081651D01*
X52200379Y-28467417D01*
X51934852Y-28802728D01*
X51719028Y-29062516D01*
X51572572Y-29221714D01*
X51532587Y-29255101D01*
X51452628Y-29269629D01*
X51465432Y-29166303D01*
X51563432Y-28963678D01*
X51739060Y-28680311D01*
X51808600Y-28578232D01*
X52321638Y-27812389D01*
X52744366Y-27123786D01*
X53067693Y-26527988D01*
X53268605Y-26077678D01*
X53386674Y-25793821D01*
X53491922Y-25584774D01*
X53564171Y-25489864D01*
X53571238Y-25487898D01*
X53612376Y-25564724D01*
G37*
G36*
X50826280Y-66664120D02*
G01*
X50836413Y-66764600D01*
X50826280Y-66777009D01*
X50775946Y-66765387D01*
X50769836Y-66720565D01*
X50800814Y-66650875D01*
X50826280Y-66664120D01*
G37*
G36*
X48801336Y-25249972D02*
G01*
X48848116Y-25270744D01*
X48884186Y-25326141D01*
X48911102Y-25436160D01*
X48930422Y-25620798D01*
X48943705Y-25900052D01*
X48952507Y-26293917D01*
X48958386Y-26822392D01*
X48961756Y-27309347D01*
X48974010Y-29340232D01*
X48820499Y-28747565D01*
X48756717Y-28453191D01*
X48711374Y-28117924D01*
X48681827Y-27707824D01*
X48665432Y-27188952D01*
X48660078Y-26688190D01*
X48658745Y-26157123D01*
X48661999Y-25772676D01*
X48672068Y-25512154D01*
X48691181Y-25352859D01*
X48721567Y-25272096D01*
X48765457Y-25247168D01*
X48801336Y-25249972D01*
G37*
G36*
X50346502Y-60876613D02*
G01*
X50344161Y-61263558D01*
X50331930Y-61517513D01*
X50302004Y-61674808D01*
X50246573Y-61771773D01*
X50157829Y-61844740D01*
X50135209Y-61859772D01*
X49856558Y-61962687D01*
X49574801Y-61940443D01*
X49342884Y-61806551D01*
X49228942Y-61628498D01*
X49139669Y-61372409D01*
X48399169Y-62099155D01*
X48399169Y-61802821D01*
X48425296Y-61602948D01*
X48523106Y-61415999D01*
X48721744Y-61190700D01*
X48780169Y-61132565D01*
X48935890Y-60957343D01*
X49584502Y-60957343D01*
X49589055Y-61270820D01*
X49609436Y-61451048D01*
X49655728Y-61534013D01*
X49738015Y-61555702D01*
X49752223Y-61555898D01*
X49901841Y-61487004D01*
X49983549Y-61275961D01*
X49999390Y-60916227D01*
X49992240Y-60787107D01*
X49961051Y-60547071D01*
X49895681Y-60428869D01*
X49775002Y-60385843D01*
X49675865Y-60381912D01*
X49618874Y-60428612D01*
X49592407Y-60560812D01*
X49584841Y-60813382D01*
X49584502Y-60957343D01*
X48935890Y-60957343D01*
X49011696Y-60872043D01*
X49141714Y-60652797D01*
X49161169Y-60564603D01*
X49142382Y-60444456D01*
X49056164Y-60387540D01*
X48857730Y-60371047D01*
X48780169Y-60370565D01*
X48542074Y-60359485D01*
X48429486Y-60313480D01*
X48399315Y-60213396D01*
X48399169Y-60201232D01*
X48409495Y-60128476D01*
X48459573Y-60080185D01*
X48578049Y-60051377D01*
X48793573Y-60037070D01*
X49134793Y-60032281D01*
X49372836Y-60031898D01*
X50346502Y-60031898D01*
X50346502Y-60876613D01*
G37*
G36*
X50431169Y-35478565D02*
G01*
X50219502Y-35478565D01*
X50119303Y-35472497D01*
X50057090Y-35432571D01*
X50023810Y-35326201D01*
X50010412Y-35120802D01*
X50007846Y-34783788D01*
X50007836Y-34716565D01*
X50005860Y-34355735D01*
X49994254Y-34131678D01*
X49964504Y-34011837D01*
X49908094Y-33963656D01*
X49816508Y-33954577D01*
X49808529Y-33954565D01*
X49708091Y-33964409D01*
X49647329Y-34017275D01*
X49614702Y-34148163D01*
X49598666Y-34392073D01*
X49592114Y-34610732D01*
X49575144Y-34932213D01*
X49545762Y-35187457D01*
X49509743Y-35329482D01*
X49502464Y-35339954D01*
X49387627Y-35389468D01*
X49306237Y-35274508D01*
X49258885Y-34996717D01*
X49245836Y-34626901D01*
X49243539Y-34292479D01*
X49229371Y-34092712D01*
X49192415Y-33992923D01*
X49121754Y-33958438D01*
X49034169Y-33954565D01*
X48933970Y-33960632D01*
X48871756Y-34000558D01*
X48838476Y-34106928D01*
X48825079Y-34312327D01*
X48822513Y-34649341D01*
X48822502Y-34716565D01*
X48819673Y-35078600D01*
X48806410Y-35303562D01*
X48775551Y-35423681D01*
X48719935Y-35471186D01*
X48653169Y-35478565D01*
X48580413Y-35468239D01*
X48532123Y-35418161D01*
X48503315Y-35299685D01*
X48489008Y-35084161D01*
X48484218Y-34742941D01*
X48483836Y-34504898D01*
X48483836Y-33531232D01*
X50431169Y-33531232D01*
X50431169Y-35478565D01*
G37*
G36*
X50743006Y-66958690D02*
G01*
X50753100Y-67091014D01*
X50736322Y-67120968D01*
X50697840Y-67095717D01*
X50691853Y-67009843D01*
X50712531Y-66919500D01*
X50743006Y-66958690D01*
G37*
G36*
X50252762Y-56910638D02*
G01*
X50299714Y-56963906D01*
X50327717Y-57087606D01*
X50341599Y-57310312D01*
X50346185Y-57660594D01*
X50346502Y-57872898D01*
X50344707Y-58291244D01*
X50335998Y-58568915D01*
X50315393Y-58734561D01*
X50277910Y-58816828D01*
X50218568Y-58844365D01*
X50177169Y-58846565D01*
X50036025Y-58819682D01*
X50000726Y-58783065D01*
X49992676Y-58664376D01*
X49981489Y-58448149D01*
X49978382Y-58380898D01*
X49950142Y-58155340D01*
X49884576Y-58069927D01*
X49837603Y-58070361D01*
X49696672Y-58076688D01*
X49438644Y-58067735D01*
X49114874Y-58045471D01*
X49055613Y-58040382D01*
X48720696Y-58005343D01*
X48521788Y-57966256D01*
X48425708Y-57912230D01*
X48399270Y-57832373D01*
X48399169Y-57824930D01*
X48416133Y-57750086D01*
X48487886Y-57701272D01*
X48645719Y-57671230D01*
X48920921Y-57652700D01*
X49182336Y-57643242D01*
X49965502Y-57618898D01*
X49991537Y-57259065D01*
X50023562Y-57025807D01*
X50089299Y-56919995D01*
X50182037Y-56899232D01*
X50252762Y-56910638D01*
G37*
G36*
X47171865Y-23717299D02*
G01*
X47269279Y-23395273D01*
X47350083Y-23141826D01*
X47401713Y-22995795D01*
X47411714Y-22975798D01*
X47520668Y-22949973D01*
X47755986Y-22935054D01*
X48075113Y-22930108D01*
X48435493Y-22934204D01*
X48794572Y-22946413D01*
X49109794Y-22965802D01*
X49338605Y-22991441D01*
X49436564Y-23020093D01*
X49487956Y-23103423D01*
X49447663Y-23180795D01*
X49295593Y-23264899D01*
X49011657Y-23368424D01*
X48757938Y-23448741D01*
X48474175Y-23540527D01*
X48269613Y-23632135D01*
X48117552Y-23754348D01*
X47991289Y-23937951D01*
X47864126Y-24213727D01*
X47709360Y-24612458D01*
X47679265Y-24692344D01*
X47461076Y-25272018D01*
X47546527Y-37974125D01*
X47556826Y-39474096D01*
X47567406Y-40956616D01*
X47578166Y-42409938D01*
X47589003Y-43822314D01*
X47599814Y-45181994D01*
X47610496Y-46477231D01*
X47620947Y-47696277D01*
X47631064Y-48827383D01*
X47640745Y-49858801D01*
X47649886Y-50778784D01*
X47658386Y-51575583D01*
X47666141Y-52237449D01*
X47673049Y-52752635D01*
X47678611Y-53089232D01*
X47690205Y-53785396D01*
X47700818Y-54607174D01*
X47710075Y-55510847D01*
X47717599Y-56452695D01*
X47723014Y-57389001D01*
X47725943Y-58276044D01*
X47726346Y-58634898D01*
X47730958Y-60020670D01*
X47744500Y-61252040D01*
X47768086Y-62343758D01*
X47802827Y-63310575D01*
X47849836Y-64167240D01*
X47910224Y-64928506D01*
X47985104Y-65609122D01*
X48075588Y-66223838D01*
X48182788Y-66787406D01*
X48307816Y-67314575D01*
X48407893Y-67674433D01*
X48552011Y-68139666D01*
X48708537Y-68605326D01*
X48866073Y-69041520D01*
X49013220Y-69418351D01*
X49138583Y-69705925D01*
X49230763Y-69874345D01*
X49257420Y-69902724D01*
X49327747Y-70015147D01*
X49302057Y-70140865D01*
X49210049Y-70191898D01*
X49084711Y-70125308D01*
X48896195Y-69946675D01*
X48670825Y-69687702D01*
X48434922Y-69380094D01*
X48214812Y-69055554D01*
X48085302Y-68837232D01*
X47722534Y-68068203D01*
X47410087Y-67182001D01*
X47163576Y-66227194D01*
X47049937Y-65617223D01*
X47034522Y-65491205D01*
X47019960Y-65309928D01*
X47006191Y-65067654D01*
X46993156Y-64758643D01*
X46980795Y-64377156D01*
X46969051Y-63917453D01*
X46957863Y-63373797D01*
X46947173Y-62740446D01*
X46936921Y-62011662D01*
X46927049Y-61181706D01*
X46917498Y-60244838D01*
X46908208Y-59195319D01*
X46899121Y-58027410D01*
X46890177Y-56735372D01*
X46881317Y-55313465D01*
X46872483Y-53755950D01*
X46863615Y-52057087D01*
X46854654Y-50211139D01*
X46845542Y-48212364D01*
X46836218Y-46055025D01*
X46827829Y-44029898D01*
X46820518Y-42264448D01*
X46813565Y-40660554D01*
X46806863Y-39210439D01*
X46800301Y-37906327D01*
X46793772Y-36740441D01*
X46787167Y-35705004D01*
X46780378Y-34792240D01*
X46773296Y-33994371D01*
X46765812Y-33303622D01*
X46757818Y-32712215D01*
X46753312Y-32450671D01*
X47085056Y-32450671D01*
X47087971Y-33128247D01*
X47094682Y-33742898D01*
X47099748Y-34171879D01*
X47105423Y-34754960D01*
X47111606Y-35476913D01*
X47118195Y-36322505D01*
X47125089Y-37276507D01*
X47132187Y-38323687D01*
X47139387Y-39448816D01*
X47146590Y-40636662D01*
X47153692Y-41871994D01*
X47160594Y-43139583D01*
X47167194Y-44424198D01*
X47171459Y-45299898D01*
X47182417Y-47452616D01*
X47194048Y-49447475D01*
X47206340Y-51283591D01*
X47219281Y-52960082D01*
X47232860Y-54476066D01*
X47247064Y-55830660D01*
X47261881Y-57022981D01*
X47277300Y-58052145D01*
X47293307Y-58917272D01*
X47309892Y-59617477D01*
X47327042Y-60151878D01*
X47344746Y-60519593D01*
X47362990Y-60719738D01*
X47381715Y-60751565D01*
X47388309Y-60648731D01*
X47393632Y-60387233D01*
X47397739Y-59977733D01*
X47400683Y-59430895D01*
X47402518Y-58757383D01*
X47403295Y-57967858D01*
X47403070Y-57072986D01*
X47401894Y-56083429D01*
X47399822Y-55009850D01*
X47396905Y-53862914D01*
X47393199Y-52653282D01*
X47388755Y-51391619D01*
X47383627Y-50088588D01*
X47377869Y-48754853D01*
X47371533Y-47401076D01*
X47364673Y-46037920D01*
X47357343Y-44676051D01*
X47349594Y-43326129D01*
X47341481Y-41998820D01*
X47333057Y-40704786D01*
X47324375Y-39454690D01*
X47315488Y-38259197D01*
X47306449Y-37128969D01*
X47297312Y-36074669D01*
X47288131Y-35106962D01*
X47278957Y-34236509D01*
X47269845Y-33473976D01*
X47260848Y-32830024D01*
X47252018Y-32315318D01*
X47243410Y-31940521D01*
X47236932Y-31753232D01*
X47210906Y-31257217D01*
X47185868Y-30922749D01*
X47162376Y-30742040D01*
X47140986Y-30707303D01*
X47122256Y-30810753D01*
X47106740Y-31044601D01*
X47094998Y-31401061D01*
X47087584Y-31872347D01*
X47085056Y-32450671D01*
X46753312Y-32450671D01*
X46749206Y-32212374D01*
X46739866Y-31796322D01*
X46729690Y-31456283D01*
X46718571Y-31184479D01*
X46706398Y-30973135D01*
X46693064Y-30814473D01*
X46678459Y-30700717D01*
X46662477Y-30624089D01*
X46645007Y-30576814D01*
X46639910Y-30567898D01*
X46585393Y-30487495D01*
X46503407Y-30377901D01*
X46382939Y-30225837D01*
X46212973Y-30018027D01*
X45982496Y-29741193D01*
X45680493Y-29382059D01*
X45295949Y-28927348D01*
X44817849Y-28363782D01*
X44542753Y-28039947D01*
X44164377Y-27594787D01*
X43880521Y-27255164D01*
X43677637Y-26996249D01*
X43542178Y-26793214D01*
X43460596Y-26621229D01*
X43419346Y-26455466D01*
X43404878Y-26271095D01*
X43403696Y-26052343D01*
X43829384Y-26052343D01*
X43831598Y-26630898D01*
X44810604Y-27858565D01*
X45124404Y-28248533D01*
X45404937Y-28590492D01*
X45634234Y-28863072D01*
X45794325Y-29044905D01*
X45866723Y-29114454D01*
X45939039Y-29105055D01*
X45921270Y-28987180D01*
X45810241Y-28754000D01*
X45602778Y-28398690D01*
X45341794Y-27985565D01*
X45078465Y-27563043D01*
X44818351Y-27119980D01*
X44593108Y-26711734D01*
X44446090Y-26419232D01*
X44271017Y-26042449D01*
X44151323Y-25791908D01*
X44071367Y-25640129D01*
X44015512Y-25559634D01*
X43968117Y-25522941D01*
X43926954Y-25507049D01*
X43869543Y-25548847D01*
X43837884Y-25731050D01*
X43829384Y-26052343D01*
X43403696Y-26052343D01*
X43403647Y-26043288D01*
X43403836Y-25952593D01*
X43410328Y-25625569D01*
X43427583Y-25366891D01*
X43452264Y-25220684D01*
X43460280Y-25205676D01*
X43558957Y-25187923D01*
X43799530Y-25172460D01*
X43926954Y-25168071D01*
X44154569Y-25160230D01*
X44596643Y-25152173D01*
X45098320Y-25149232D01*
X46691831Y-25149232D01*
X46826541Y-24789398D01*
X46914886Y-24535687D01*
X47028397Y-24185468D01*
X47140986Y-23820383D01*
X47145715Y-23805049D01*
X47171865Y-23717299D01*
G37*
G36*
X50429921Y-42061398D02*
G01*
X50416335Y-42534121D01*
X50369536Y-42863967D01*
X50277669Y-43076043D01*
X50128877Y-43195451D01*
X49911304Y-43247298D01*
X49868096Y-43251091D01*
X49542027Y-43221215D01*
X49329700Y-43083147D01*
X49246470Y-42847506D01*
X49245836Y-42820889D01*
X49230837Y-42737494D01*
X49169339Y-42742862D01*
X49036591Y-42849532D01*
X48864836Y-43013898D01*
X48483836Y-43387821D01*
X48483836Y-43091488D01*
X48509962Y-42891615D01*
X48607772Y-42704665D01*
X48806411Y-42479367D01*
X48864836Y-42421232D01*
X49025824Y-42244878D01*
X49609698Y-42244878D01*
X49618030Y-42595483D01*
X49674306Y-42799634D01*
X49711823Y-42844831D01*
X49851770Y-42909514D01*
X49945363Y-42826686D01*
X49995991Y-42589987D01*
X50007836Y-42289235D01*
X50003347Y-41994452D01*
X49980989Y-41830764D01*
X49927425Y-41759993D01*
X49829319Y-41743964D01*
X49817336Y-41743901D01*
X49710251Y-41759266D01*
X49650550Y-41831745D01*
X49621827Y-42000923D01*
X49609698Y-42244878D01*
X49025824Y-42244878D01*
X49065346Y-42201584D01*
X49203365Y-42006681D01*
X49245836Y-41895603D01*
X49214008Y-41799568D01*
X49091568Y-41754388D01*
X48864836Y-41743898D01*
X48629729Y-41735125D01*
X48518337Y-41692002D01*
X48485291Y-41589323D01*
X48483836Y-41532232D01*
X48483836Y-41320565D01*
X50431169Y-41320565D01*
X50429921Y-42061398D01*
G37*
G36*
X50431169Y-50845565D02*
G01*
X50417173Y-50971874D01*
X50346124Y-51034453D01*
X50174428Y-51055420D01*
X50014001Y-51057232D01*
X49596833Y-51057232D01*
X49631037Y-51327496D01*
X49741009Y-51607862D01*
X50003763Y-51940580D01*
X50048205Y-51986571D01*
X50289589Y-52261749D01*
X50408882Y-52482409D01*
X50431169Y-52623581D01*
X50431169Y-52871780D01*
X49984007Y-52430173D01*
X49757331Y-52216191D01*
X49572075Y-52059307D01*
X49464153Y-51989645D01*
X49457502Y-51988565D01*
X49362685Y-52044237D01*
X49185717Y-52191170D01*
X48962511Y-52399243D01*
X48930998Y-52430173D01*
X48483836Y-52871780D01*
X48483836Y-52574801D01*
X48509808Y-52374799D01*
X48607175Y-52188105D01*
X48805109Y-51963347D01*
X48864836Y-51903898D01*
X49111766Y-51628520D01*
X49229470Y-51406244D01*
X49245836Y-51293603D01*
X49233122Y-51148118D01*
X49164448Y-51079201D01*
X48994015Y-51058437D01*
X48864836Y-51057232D01*
X48629729Y-51048458D01*
X48518337Y-51005335D01*
X48485291Y-50902656D01*
X48483836Y-50845565D01*
X48483836Y-50633898D01*
X50431169Y-50633898D01*
X50431169Y-50845565D01*
G37*
G36*
X51680002Y-25125161D02*
G01*
X52320661Y-25141407D01*
X52794129Y-25156910D01*
X53100122Y-25171450D01*
X53238354Y-25184803D01*
X53208540Y-25196748D01*
X53010395Y-25207062D01*
X52643635Y-25215523D01*
X52107973Y-25221910D01*
X51807002Y-25224077D01*
X51302626Y-25223589D01*
X50861704Y-25216422D01*
X50510069Y-25203553D01*
X50273551Y-25185960D01*
X50177980Y-25164622D01*
X50177169Y-25162363D01*
X50257308Y-25141197D01*
X50479804Y-25126353D01*
X50817773Y-25118496D01*
X51244334Y-25118291D01*
X51680002Y-25125161D01*
G37*
G36*
X50431169Y-55713898D02*
G01*
X50219502Y-55713898D01*
X50119303Y-55707831D01*
X50057090Y-55667905D01*
X50023810Y-55561535D01*
X50010412Y-55356136D01*
X50007846Y-55019122D01*
X50007836Y-54951898D01*
X50005860Y-54591068D01*
X49994254Y-54367011D01*
X49964504Y-54247171D01*
X49908094Y-54198989D01*
X49816508Y-54189911D01*
X49808529Y-54189898D01*
X49707768Y-54199846D01*
X49646945Y-54253114D01*
X49614372Y-54384835D01*
X49598363Y-54630145D01*
X49591993Y-54840862D01*
X49578085Y-55211723D01*
X49554258Y-55444586D01*
X49511603Y-55570787D01*
X49441211Y-55621658D01*
X49367839Y-55629232D01*
X49306329Y-55594495D01*
X49268693Y-55471488D01*
X49250153Y-55232015D01*
X49245836Y-54909565D01*
X49243892Y-54561069D01*
X49231489Y-54348379D01*
X49198764Y-54237972D01*
X49135858Y-54196320D01*
X49034169Y-54189898D01*
X48933970Y-54195966D01*
X48871756Y-54235892D01*
X48838476Y-54342262D01*
X48825079Y-54547661D01*
X48822513Y-54884675D01*
X48822502Y-54951898D01*
X48819673Y-55313933D01*
X48806410Y-55538896D01*
X48775551Y-55659014D01*
X48719935Y-55706519D01*
X48653169Y-55713898D01*
X48580413Y-55703572D01*
X48532123Y-55653495D01*
X48503315Y-55535018D01*
X48489008Y-55319494D01*
X48484218Y-54978275D01*
X48483836Y-54740232D01*
X48483836Y-53766565D01*
X50431169Y-53766565D01*
X50431169Y-55713898D01*
G37*
G36*
X49929929Y-30490769D02*
G01*
X50244158Y-30520555D01*
X50410939Y-30583350D01*
X50441016Y-30689913D01*
X50345137Y-30851004D01*
X50134049Y-31077382D01*
X50092112Y-31118613D01*
X49753055Y-31449693D01*
X50092112Y-31795167D01*
X50314822Y-32035575D01*
X50428014Y-32206832D01*
X50420199Y-32320439D01*
X50279889Y-32387900D01*
X49995595Y-32420717D01*
X49555830Y-32430393D01*
X49457502Y-32430565D01*
X48483836Y-32430565D01*
X48483836Y-32218898D01*
X48492551Y-32108314D01*
X48543296Y-32045024D01*
X48672968Y-32015851D01*
X48918467Y-32007617D01*
X49076502Y-32007232D01*
X49368626Y-31999533D01*
X49580302Y-31979273D01*
X49668703Y-31950706D01*
X49669169Y-31948364D01*
X49615809Y-31854921D01*
X49483397Y-31696608D01*
X49441280Y-31651632D01*
X49213391Y-31413767D01*
X49500222Y-31117833D01*
X49787053Y-30821898D01*
X49135445Y-30821898D01*
X48805707Y-30818092D01*
X48610562Y-30800665D01*
X48515332Y-30760606D01*
X48485341Y-30688903D01*
X48483836Y-30652565D01*
X48494162Y-30579809D01*
X48544239Y-30531518D01*
X48662716Y-30502711D01*
X48878240Y-30488403D01*
X49219459Y-30483614D01*
X49457502Y-30483232D01*
X49929929Y-30490769D01*
G37*
G36*
X49866259Y-47607363D02*
G01*
X50133712Y-47688825D01*
X50295793Y-47855885D01*
X50382719Y-48134144D01*
X50413594Y-48391116D01*
X50405662Y-48862049D01*
X50292890Y-49200562D01*
X50075418Y-49406299D01*
X49999840Y-49438665D01*
X49828720Y-49485499D01*
X49763420Y-49443002D01*
X49753836Y-49326219D01*
X49802118Y-49152435D01*
X49880836Y-49079280D01*
X49962055Y-48987691D01*
X50001435Y-48774639D01*
X50007836Y-48565201D01*
X49980431Y-48234801D01*
X49879916Y-48037790D01*
X49678839Y-47944493D01*
X49415169Y-47924565D01*
X49099684Y-47958314D01*
X48915192Y-48078192D01*
X48833662Y-48312144D01*
X48822502Y-48515409D01*
X48840794Y-48797451D01*
X48907703Y-48967958D01*
X48999545Y-49054968D01*
X49123596Y-49201408D01*
X49141416Y-49352292D01*
X49060224Y-49452302D01*
X48946433Y-49462090D01*
X48729771Y-49390963D01*
X48590047Y-49248229D01*
X48513141Y-49004797D01*
X48484935Y-48631574D01*
X48483836Y-48508910D01*
X48489120Y-48167931D01*
X48511726Y-47953528D01*
X48561788Y-47823100D01*
X48649437Y-47734043D01*
X48672008Y-47717699D01*
X48902422Y-47629539D01*
X49279756Y-47589138D01*
X49463219Y-47585898D01*
X49866259Y-47607363D01*
G37*
G36*
X50317052Y-63015883D02*
G01*
X50332034Y-63118414D01*
X50317700Y-63296510D01*
X50213873Y-63484049D01*
X50014144Y-63708471D01*
X49668388Y-64060770D01*
X50007445Y-64391850D01*
X50219673Y-64625676D01*
X50322178Y-64823884D01*
X50346502Y-65020802D01*
X50346502Y-65318673D01*
X49815058Y-64791952D01*
X49555222Y-64539316D01*
X49370423Y-64383914D01*
X49217056Y-64302159D01*
X49051517Y-64270462D01*
X48841391Y-64265232D01*
X48583172Y-64259033D01*
X48451747Y-64226893D01*
X48404668Y-64148494D01*
X48399169Y-64053565D01*
X48410589Y-63934336D01*
X48471899Y-63871015D01*
X48623674Y-63845916D01*
X48886002Y-63841371D01*
X49134158Y-63836079D01*
X49309846Y-63804025D01*
X49463101Y-63719962D01*
X49643958Y-63558644D01*
X49838502Y-63360750D01*
X50070777Y-63123635D01*
X50210857Y-62995517D01*
X50284396Y-62963798D01*
X50317052Y-63015883D01*
G37*
G36*
X50939169Y-66339565D02*
G01*
X50896836Y-66381898D01*
X50854502Y-66339565D01*
X50896836Y-66297232D01*
X50939169Y-66339565D01*
G37*
G36*
X50671352Y-67357954D02*
G01*
X50626797Y-67548785D01*
X50525735Y-67897500D01*
X50465818Y-68092028D01*
X50316349Y-68541844D01*
X50160655Y-68960667D01*
X50011118Y-69319810D01*
X49880118Y-69590586D01*
X49780036Y-69744305D01*
X49742273Y-69768565D01*
X49679437Y-69733414D01*
X49704014Y-69610527D01*
X49813387Y-69387565D01*
X49896937Y-69208748D01*
X50021178Y-68912783D01*
X50168957Y-68541668D01*
X50314728Y-68159898D01*
X50481087Y-67725980D01*
X50596985Y-67447231D01*
X50660911Y-67324329D01*
X50671352Y-67357954D01*
G37*
G36*
X50431169Y-38611232D02*
G01*
X50219502Y-38611232D01*
X50088887Y-38595440D01*
X50027003Y-38517818D01*
X50008644Y-38332995D01*
X50007836Y-38230232D01*
X50007836Y-37849232D01*
X49245836Y-37849232D01*
X48885119Y-37847546D01*
X48661149Y-37836456D01*
X48541342Y-37806908D01*
X48493112Y-37749853D01*
X48483873Y-37656238D01*
X48483836Y-37637565D01*
X48489903Y-37537366D01*
X48529829Y-37475152D01*
X48636199Y-37441872D01*
X48841598Y-37428475D01*
X49178612Y-37425908D01*
X49245836Y-37425898D01*
X50007836Y-37425898D01*
X50007836Y-37044898D01*
X50016609Y-36809791D01*
X50059732Y-36698400D01*
X50162411Y-36665353D01*
X50219502Y-36663898D01*
X50431169Y-36663898D01*
X50431169Y-38611232D01*
G37*
%TO.C,Volt. Reg.*%
X165550000Y-44695000D02*
X122550000Y-44695000D01*
X122550000Y-44695000D02*
X122550000Y-23695000D01*
X122550000Y-23695000D02*
X165550000Y-23695000D01*
X165550000Y-23695000D02*
X165550000Y-44695000D01*
%TD*%
M02*
