%TF.GenerationSoftware,KiCad,Pcbnew,(6.0.9)*%
%TF.CreationDate,2023-04-14T20:57:21-04:00*%
%TF.ProjectId,rrc_pcb2,7272635f-7063-4623-922e-6b696361645f,rev?*%
%TF.SameCoordinates,Original*%
%TF.FileFunction,Drillmap*%
%TF.FilePolarity,Positive*%
%FSLAX45Y45*%
G04 Gerber Fmt 4.5, Leading zero omitted, Abs format (unit mm)*
G04 Created by KiCad (PCBNEW (6.0.9)) date 2023-04-14 20:57:21*
%MOMM*%
%LPD*%
G01*
G04 APERTURE LIST*
%ADD10C,0.050000*%
%ADD11C,0.200000*%
%ADD12C,0.040000*%
%ADD13C,0.080000*%
%ADD14C,0.100000*%
%ADD15C,0.102000*%
%ADD16C,0.110000*%
%ADD17C,0.270000*%
%ADD18C,0.320000*%
G04 APERTURE END LIST*
D10*
X4191000Y-2065671D02*
X18034000Y-2065671D01*
X18034000Y-2065671D02*
X18034000Y-8890000D01*
X18034000Y-8890000D02*
X4191000Y-8890000D01*
X4191000Y-8890000D02*
X4191000Y-2065671D01*
D11*
D12*
X7092000Y-3853500D02*
X7132000Y-3893500D01*
X7132000Y-3853500D02*
X7092000Y-3893500D01*
X7346000Y-5187000D02*
X7386000Y-5227000D01*
X7386000Y-5187000D02*
X7346000Y-5227000D01*
X7854000Y-3663000D02*
X7894000Y-3703000D01*
X7894000Y-3663000D02*
X7854000Y-3703000D01*
X12680000Y-6330000D02*
X12720000Y-6370000D01*
X12720000Y-6330000D02*
X12680000Y-6370000D01*
X12743500Y-6584000D02*
X12783500Y-6624000D01*
X12783500Y-6584000D02*
X12743500Y-6624000D01*
X13061000Y-7727000D02*
X13101000Y-7767000D01*
X13101000Y-7727000D02*
X13061000Y-7767000D01*
D13*
X10835000Y-2486000D02*
G75*
G03*
X10835000Y-2486000I-40000J0D01*
G01*
X11080160Y-3710000D02*
G75*
G03*
X11080160Y-3710000I-40000J0D01*
G01*
X11080160Y-3910000D02*
G75*
G03*
X11080160Y-3910000I-40000J0D01*
G01*
X11089000Y-2486000D02*
G75*
G03*
X11089000Y-2486000I-40000J0D01*
G01*
X11280160Y-3710000D02*
G75*
G03*
X11280160Y-3710000I-40000J0D01*
G01*
X11280160Y-3910000D02*
G75*
G03*
X11280160Y-3910000I-40000J0D01*
G01*
X11480160Y-3710000D02*
G75*
G03*
X11480160Y-3710000I-40000J0D01*
G01*
X11480160Y-3910000D02*
G75*
G03*
X11480160Y-3910000I-40000J0D01*
G01*
X12692676Y-8706935D02*
G75*
G03*
X12692676Y-8706935I-40000J0D01*
G01*
X12696495Y-5395094D02*
G75*
G03*
X12696495Y-5395094I-40000J0D01*
G01*
X12704470Y-4996350D02*
G75*
G03*
X12704470Y-4996350I-40000J0D01*
G01*
X13708676Y-8706935D02*
G75*
G03*
X13708676Y-8706935I-40000J0D01*
G01*
X13712495Y-5395094D02*
G75*
G03*
X13712495Y-5395094I-40000J0D01*
G01*
X13720470Y-4996350D02*
G75*
G03*
X13720470Y-4996350I-40000J0D01*
G01*
X14268046Y-8737779D02*
G75*
G03*
X14268046Y-8737779I-40000J0D01*
G01*
X15284046Y-8737779D02*
G75*
G03*
X15284046Y-8737779I-40000J0D01*
G01*
D14*
X4359372Y-3059480D02*
X4359372Y-3159480D01*
X4309372Y-3109480D02*
X4409372Y-3109480D01*
X4359372Y-3313480D02*
X4359372Y-3413480D01*
X4309372Y-3363480D02*
X4409372Y-3363480D01*
X4359372Y-3567480D02*
X4359372Y-3667480D01*
X4309372Y-3617480D02*
X4409372Y-3617480D01*
X4359372Y-3821480D02*
X4359372Y-3921480D01*
X4309372Y-3871480D02*
X4409372Y-3871480D01*
X4359372Y-4075480D02*
X4359372Y-4175480D01*
X4309372Y-4125480D02*
X4409372Y-4125480D01*
X4359372Y-4329480D02*
X4359372Y-4429480D01*
X4309372Y-4379480D02*
X4409372Y-4379480D01*
X4359372Y-4583480D02*
X4359372Y-4683480D01*
X4309372Y-4633480D02*
X4409372Y-4633480D01*
X4359372Y-4837480D02*
X4359372Y-4937480D01*
X4309372Y-4887480D02*
X4409372Y-4887480D01*
X4613372Y-3059480D02*
X4613372Y-3159480D01*
X4563372Y-3109480D02*
X4663372Y-3109480D01*
X4613372Y-3313480D02*
X4613372Y-3413480D01*
X4563372Y-3363480D02*
X4663372Y-3363480D01*
X4613372Y-3567480D02*
X4613372Y-3667480D01*
X4563372Y-3617480D02*
X4663372Y-3617480D01*
X4613372Y-3821480D02*
X4613372Y-3921480D01*
X4563372Y-3871480D02*
X4663372Y-3871480D01*
X4613372Y-4075480D02*
X4613372Y-4175480D01*
X4563372Y-4125480D02*
X4663372Y-4125480D01*
X4613372Y-4329480D02*
X4613372Y-4429480D01*
X4563372Y-4379480D02*
X4663372Y-4379480D01*
X4613372Y-4583480D02*
X4613372Y-4683480D01*
X4563372Y-4633480D02*
X4663372Y-4633480D01*
X4613372Y-4837480D02*
X4613372Y-4937480D01*
X4563372Y-4887480D02*
X4663372Y-4887480D01*
X4635500Y-7252500D02*
X4635500Y-7352500D01*
X4585500Y-7302500D02*
X4685500Y-7302500D01*
X4889500Y-7252500D02*
X4889500Y-7352500D01*
X4839500Y-7302500D02*
X4939500Y-7302500D01*
X4966815Y-7762225D02*
X4966815Y-7862225D01*
X4916815Y-7812225D02*
X5016815Y-7812225D01*
X4966815Y-8522225D02*
X4966815Y-8622225D01*
X4916815Y-8572225D02*
X5016815Y-8572225D01*
X5143500Y-7252500D02*
X5143500Y-7352500D01*
X5093500Y-7302500D02*
X5193500Y-7302500D01*
X7113500Y-6236500D02*
X7113500Y-6336500D01*
X7063500Y-6286500D02*
X7163500Y-6286500D01*
X7367500Y-6236500D02*
X7367500Y-6336500D01*
X7317500Y-6286500D02*
X7417500Y-6286500D01*
X7621500Y-6236500D02*
X7621500Y-6336500D01*
X7571500Y-6286500D02*
X7671500Y-6286500D01*
X8178644Y-7284465D02*
X8178644Y-7384465D01*
X8128644Y-7334465D02*
X8228644Y-7334465D01*
X8178644Y-7538465D02*
X8178644Y-7638465D01*
X8128644Y-7588465D02*
X8228644Y-7588465D01*
X8178644Y-7792465D02*
X8178644Y-7892465D01*
X8128644Y-7842465D02*
X8228644Y-7842465D01*
X8178644Y-8046465D02*
X8178644Y-8146465D01*
X8128644Y-8096465D02*
X8228644Y-8096465D01*
X14169561Y-5093214D02*
X14169561Y-5193214D01*
X14119561Y-5143214D02*
X14219561Y-5143214D01*
X14169561Y-5347214D02*
X14169561Y-5447214D01*
X14119561Y-5397214D02*
X14219561Y-5397214D01*
X14169561Y-5601214D02*
X14169561Y-5701214D01*
X14119561Y-5651214D02*
X14219561Y-5651214D01*
X14169561Y-5855214D02*
X14169561Y-5955214D01*
X14119561Y-5905214D02*
X14219561Y-5905214D01*
X14169561Y-6109214D02*
X14169561Y-6209214D01*
X14119561Y-6159214D02*
X14219561Y-6159214D01*
X14169561Y-6363214D02*
X14169561Y-6463214D01*
X14119561Y-6413214D02*
X14219561Y-6413214D01*
X14169561Y-6617214D02*
X14169561Y-6717214D01*
X14119561Y-6667214D02*
X14219561Y-6667214D01*
X14169561Y-6871214D02*
X14169561Y-6971214D01*
X14119561Y-6921214D02*
X14219561Y-6921214D01*
X14169561Y-7125214D02*
X14169561Y-7225214D01*
X14119561Y-7175214D02*
X14219561Y-7175214D01*
X14169561Y-7379214D02*
X14169561Y-7479214D01*
X14119561Y-7429214D02*
X14219561Y-7429214D01*
X14169561Y-7633214D02*
X14169561Y-7733214D01*
X14119561Y-7683214D02*
X14219561Y-7683214D01*
X14169561Y-7887214D02*
X14169561Y-7987214D01*
X14119561Y-7937214D02*
X14219561Y-7937214D01*
X14423561Y-5093214D02*
X14423561Y-5193214D01*
X14373561Y-5143214D02*
X14473561Y-5143214D01*
X14423561Y-5347214D02*
X14423561Y-5447214D01*
X14373561Y-5397214D02*
X14473561Y-5397214D01*
X14423561Y-5601214D02*
X14423561Y-5701214D01*
X14373561Y-5651214D02*
X14473561Y-5651214D01*
X14423561Y-5855214D02*
X14423561Y-5955214D01*
X14373561Y-5905214D02*
X14473561Y-5905214D01*
X14423561Y-6109214D02*
X14423561Y-6209214D01*
X14373561Y-6159214D02*
X14473561Y-6159214D01*
X14423561Y-6363214D02*
X14423561Y-6463214D01*
X14373561Y-6413214D02*
X14473561Y-6413214D01*
X14423561Y-6617214D02*
X14423561Y-6717214D01*
X14373561Y-6667214D02*
X14473561Y-6667214D01*
X14423561Y-6871214D02*
X14423561Y-6971214D01*
X14373561Y-6921214D02*
X14473561Y-6921214D01*
X14423561Y-7125214D02*
X14423561Y-7225214D01*
X14373561Y-7175214D02*
X14473561Y-7175214D01*
X14423561Y-7379214D02*
X14423561Y-7479214D01*
X14373561Y-7429214D02*
X14473561Y-7429214D01*
X14423561Y-7633214D02*
X14423561Y-7733214D01*
X14373561Y-7683214D02*
X14473561Y-7683214D01*
X14423561Y-7887214D02*
X14423561Y-7987214D01*
X14373561Y-7937214D02*
X14473561Y-7937214D01*
D15*
X12132387Y-7344920D02*
X12132387Y-7272794D01*
X12060261Y-7272794D01*
X12060261Y-7344920D01*
X12132387Y-7344920D01*
X12386387Y-7344920D02*
X12386387Y-7272794D01*
X12314261Y-7272794D01*
X12314261Y-7344920D01*
X12386387Y-7344920D01*
X12640387Y-7344920D02*
X12640387Y-7272794D01*
X12568261Y-7272794D01*
X12568261Y-7344920D01*
X12640387Y-7344920D01*
X12894387Y-7344920D02*
X12894387Y-7272794D01*
X12822261Y-7272794D01*
X12822261Y-7344920D01*
X12894387Y-7344920D01*
X13148387Y-7344920D02*
X13148387Y-7272794D01*
X13076261Y-7272794D01*
X13076261Y-7344920D01*
X13148387Y-7344920D01*
X13402387Y-7344920D02*
X13402387Y-7272794D01*
X13330261Y-7272794D01*
X13330261Y-7344920D01*
X13402387Y-7344920D01*
X13656387Y-7344920D02*
X13656387Y-7272794D01*
X13584261Y-7272794D01*
X13584261Y-7344920D01*
X13656387Y-7344920D01*
D16*
X10160000Y-2468000D02*
X10215000Y-2413000D01*
X10160000Y-2358000D01*
X10105000Y-2413000D01*
X10160000Y-2468000D01*
X10160000Y-2722000D02*
X10215000Y-2667000D01*
X10160000Y-2612000D01*
X10105000Y-2667000D01*
X10160000Y-2722000D01*
X10160000Y-2976000D02*
X10215000Y-2921000D01*
X10160000Y-2866000D01*
X10105000Y-2921000D01*
X10160000Y-2976000D01*
X10160000Y-3230000D02*
X10215000Y-3175000D01*
X10160000Y-3120000D01*
X10105000Y-3175000D01*
X10160000Y-3230000D01*
X10160000Y-3484000D02*
X10215000Y-3429000D01*
X10160000Y-3374000D01*
X10105000Y-3429000D01*
X10160000Y-3484000D01*
X10160000Y-3738000D02*
X10215000Y-3683000D01*
X10160000Y-3628000D01*
X10105000Y-3683000D01*
X10160000Y-3738000D01*
X10160000Y-3992000D02*
X10215000Y-3937000D01*
X10160000Y-3882000D01*
X10105000Y-3937000D01*
X10160000Y-3992000D01*
X10160000Y-4246000D02*
X10215000Y-4191000D01*
X10160000Y-4136000D01*
X10105000Y-4191000D01*
X10160000Y-4246000D01*
X10160000Y-4500000D02*
X10215000Y-4445000D01*
X10160000Y-4390000D01*
X10105000Y-4445000D01*
X10160000Y-4500000D01*
X10160000Y-4754000D02*
X10215000Y-4699000D01*
X10160000Y-4644000D01*
X10105000Y-4699000D01*
X10160000Y-4754000D01*
X10160000Y-5008000D02*
X10215000Y-4953000D01*
X10160000Y-4898000D01*
X10105000Y-4953000D01*
X10160000Y-5008000D01*
X10160000Y-5262000D02*
X10215000Y-5207000D01*
X10160000Y-5152000D01*
X10105000Y-5207000D01*
X10160000Y-5262000D01*
X10160000Y-5516000D02*
X10215000Y-5461000D01*
X10160000Y-5406000D01*
X10105000Y-5461000D01*
X10160000Y-5516000D01*
X10160000Y-5770000D02*
X10215000Y-5715000D01*
X10160000Y-5660000D01*
X10105000Y-5715000D01*
X10160000Y-5770000D01*
X10160000Y-6024000D02*
X10215000Y-5969000D01*
X10160000Y-5914000D01*
X10105000Y-5969000D01*
X10160000Y-6024000D01*
X10160000Y-6278000D02*
X10215000Y-6223000D01*
X10160000Y-6168000D01*
X10105000Y-6223000D01*
X10160000Y-6278000D01*
X10160000Y-6532000D02*
X10215000Y-6477000D01*
X10160000Y-6422000D01*
X10105000Y-6477000D01*
X10160000Y-6532000D01*
X10160000Y-6786000D02*
X10215000Y-6731000D01*
X10160000Y-6676000D01*
X10105000Y-6731000D01*
X10160000Y-6786000D01*
X10160000Y-7040000D02*
X10215000Y-6985000D01*
X10160000Y-6930000D01*
X10105000Y-6985000D01*
X10160000Y-7040000D01*
X10160000Y-7294000D02*
X10215000Y-7239000D01*
X10160000Y-7184000D01*
X10105000Y-7239000D01*
X10160000Y-7294000D01*
X10160000Y-7548000D02*
X10215000Y-7493000D01*
X10160000Y-7438000D01*
X10105000Y-7493000D01*
X10160000Y-7548000D01*
X10160000Y-7802000D02*
X10215000Y-7747000D01*
X10160000Y-7692000D01*
X10105000Y-7747000D01*
X10160000Y-7802000D01*
X10160000Y-8056000D02*
X10215000Y-8001000D01*
X10160000Y-7946000D01*
X10105000Y-8001000D01*
X10160000Y-8056000D01*
X10160000Y-8310000D02*
X10215000Y-8255000D01*
X10160000Y-8200000D01*
X10105000Y-8255000D01*
X10160000Y-8310000D01*
X10414000Y-7040000D02*
X10469000Y-6985000D01*
X10414000Y-6930000D01*
X10359000Y-6985000D01*
X10414000Y-7040000D01*
X10465080Y-3097920D02*
X10520080Y-3042920D01*
X10465080Y-2987920D01*
X10410080Y-3042920D01*
X10465080Y-3097920D01*
X10465080Y-3351920D02*
X10520080Y-3296920D01*
X10465080Y-3241920D01*
X10410080Y-3296920D01*
X10465080Y-3351920D01*
X10465080Y-3605920D02*
X10520080Y-3550920D01*
X10465080Y-3495920D01*
X10410080Y-3550920D01*
X10465080Y-3605920D01*
X10465080Y-3859920D02*
X10520080Y-3804920D01*
X10465080Y-3749920D01*
X10410080Y-3804920D01*
X10465080Y-3859920D01*
X10465080Y-4113920D02*
X10520080Y-4058920D01*
X10465080Y-4003920D01*
X10410080Y-4058920D01*
X10465080Y-4113920D01*
X10668000Y-7040000D02*
X10723000Y-6985000D01*
X10668000Y-6930000D01*
X10613000Y-6985000D01*
X10668000Y-7040000D01*
X10922000Y-7040000D02*
X10977000Y-6985000D01*
X10922000Y-6930000D01*
X10867000Y-6985000D01*
X10922000Y-7040000D01*
X11176000Y-7040000D02*
X11231000Y-6985000D01*
X11176000Y-6930000D01*
X11121000Y-6985000D01*
X11176000Y-7040000D01*
X11430000Y-2722000D02*
X11485000Y-2667000D01*
X11430000Y-2612000D01*
X11375000Y-2667000D01*
X11430000Y-2722000D01*
X11430000Y-7040000D02*
X11485000Y-6985000D01*
X11430000Y-6930000D01*
X11375000Y-6985000D01*
X11430000Y-7040000D01*
X11684000Y-2468000D02*
X11739000Y-2413000D01*
X11684000Y-2358000D01*
X11629000Y-2413000D01*
X11684000Y-2468000D01*
X11684000Y-2722000D02*
X11739000Y-2667000D01*
X11684000Y-2612000D01*
X11629000Y-2667000D01*
X11684000Y-2722000D01*
X11684000Y-2976000D02*
X11739000Y-2921000D01*
X11684000Y-2866000D01*
X11629000Y-2921000D01*
X11684000Y-2976000D01*
X11684000Y-3230000D02*
X11739000Y-3175000D01*
X11684000Y-3120000D01*
X11629000Y-3175000D01*
X11684000Y-3230000D01*
X11684000Y-3484000D02*
X11739000Y-3429000D01*
X11684000Y-3374000D01*
X11629000Y-3429000D01*
X11684000Y-3484000D01*
X11684000Y-3738000D02*
X11739000Y-3683000D01*
X11684000Y-3628000D01*
X11629000Y-3683000D01*
X11684000Y-3738000D01*
X11684000Y-3992000D02*
X11739000Y-3937000D01*
X11684000Y-3882000D01*
X11629000Y-3937000D01*
X11684000Y-3992000D01*
X11684000Y-4246000D02*
X11739000Y-4191000D01*
X11684000Y-4136000D01*
X11629000Y-4191000D01*
X11684000Y-4246000D01*
X11684000Y-4500000D02*
X11739000Y-4445000D01*
X11684000Y-4390000D01*
X11629000Y-4445000D01*
X11684000Y-4500000D01*
X11684000Y-4754000D02*
X11739000Y-4699000D01*
X11684000Y-4644000D01*
X11629000Y-4699000D01*
X11684000Y-4754000D01*
X11684000Y-5008000D02*
X11739000Y-4953000D01*
X11684000Y-4898000D01*
X11629000Y-4953000D01*
X11684000Y-5008000D01*
X11684000Y-5262000D02*
X11739000Y-5207000D01*
X11684000Y-5152000D01*
X11629000Y-5207000D01*
X11684000Y-5262000D01*
X11684000Y-5516000D02*
X11739000Y-5461000D01*
X11684000Y-5406000D01*
X11629000Y-5461000D01*
X11684000Y-5516000D01*
X11684000Y-5770000D02*
X11739000Y-5715000D01*
X11684000Y-5660000D01*
X11629000Y-5715000D01*
X11684000Y-5770000D01*
X11684000Y-6024000D02*
X11739000Y-5969000D01*
X11684000Y-5914000D01*
X11629000Y-5969000D01*
X11684000Y-6024000D01*
X11684000Y-6278000D02*
X11739000Y-6223000D01*
X11684000Y-6168000D01*
X11629000Y-6223000D01*
X11684000Y-6278000D01*
X11684000Y-6532000D02*
X11739000Y-6477000D01*
X11684000Y-6422000D01*
X11629000Y-6477000D01*
X11684000Y-6532000D01*
X11684000Y-6786000D02*
X11739000Y-6731000D01*
X11684000Y-6676000D01*
X11629000Y-6731000D01*
X11684000Y-6786000D01*
X11684000Y-7040000D02*
X11739000Y-6985000D01*
X11684000Y-6930000D01*
X11629000Y-6985000D01*
X11684000Y-7040000D01*
X11684000Y-7294000D02*
X11739000Y-7239000D01*
X11684000Y-7184000D01*
X11629000Y-7239000D01*
X11684000Y-7294000D01*
X11684000Y-7548000D02*
X11739000Y-7493000D01*
X11684000Y-7438000D01*
X11629000Y-7493000D01*
X11684000Y-7548000D01*
X11684000Y-7802000D02*
X11739000Y-7747000D01*
X11684000Y-7692000D01*
X11629000Y-7747000D01*
X11684000Y-7802000D01*
X11684000Y-8056000D02*
X11739000Y-8001000D01*
X11684000Y-7946000D01*
X11629000Y-8001000D01*
X11684000Y-8056000D01*
X11684000Y-8310000D02*
X11739000Y-8255000D01*
X11684000Y-8200000D01*
X11629000Y-8255000D01*
X11684000Y-8310000D01*
D11*
X12357322Y-2523500D02*
X12557322Y-2723500D01*
X12557322Y-2523500D02*
X12357322Y-2723500D01*
X12557322Y-2623500D02*
G75*
G03*
X12557322Y-2623500I-100000J0D01*
G01*
X12365000Y-4115500D02*
X12565000Y-4315500D01*
X12565000Y-4115500D02*
X12365000Y-4315500D01*
X12565000Y-4215500D02*
G75*
G03*
X12565000Y-4215500I-100000J0D01*
G01*
X16201000Y-2523500D02*
X16401000Y-2723500D01*
X16401000Y-2523500D02*
X16201000Y-2723500D01*
X16401000Y-2623500D02*
G75*
G03*
X16401000Y-2623500I-100000J0D01*
G01*
X16201000Y-4115500D02*
X16401000Y-4315500D01*
X16401000Y-4115500D02*
X16201000Y-4315500D01*
X16401000Y-4215500D02*
G75*
G03*
X16401000Y-4215500I-100000J0D01*
G01*
D17*
X17200500Y-3103500D02*
X17470500Y-3373500D01*
X17470500Y-3103500D02*
X17200500Y-3373500D01*
X17335500Y-3103500D02*
X17335500Y-3373500D01*
X17200500Y-3238500D02*
X17470500Y-3238500D01*
X17200500Y-3603500D02*
X17470500Y-3873500D01*
X17470500Y-3603500D02*
X17200500Y-3873500D01*
X17335500Y-3603500D02*
X17335500Y-3873500D01*
X17200500Y-3738500D02*
X17470500Y-3738500D01*
D18*
X5737560Y-2618254D02*
X6057560Y-2938254D01*
X6057560Y-2618254D02*
X5737560Y-2938254D01*
X6010698Y-2891392D02*
X6010698Y-2665116D01*
X5784422Y-2665116D01*
X5784422Y-2891392D01*
X6010698Y-2891392D01*
X5737560Y-5068254D02*
X6057560Y-5388254D01*
X6057560Y-5068254D02*
X5737560Y-5388254D01*
X6010698Y-5341392D02*
X6010698Y-5115116D01*
X5784422Y-5115116D01*
X5784422Y-5341392D01*
X6010698Y-5341392D01*
X9487560Y-3843254D02*
X9807560Y-4163254D01*
X9807560Y-3843254D02*
X9487560Y-4163254D01*
X9760699Y-4116392D02*
X9760699Y-3890116D01*
X9534422Y-3890116D01*
X9534422Y-4116392D01*
X9760699Y-4116392D01*
X12063324Y-8099357D02*
X12383324Y-8419357D01*
X12383324Y-8099357D02*
X12063324Y-8419357D01*
X12336462Y-8372495D02*
X12336462Y-8146219D01*
X12110186Y-8146219D01*
X12110186Y-8372495D01*
X12336462Y-8372495D01*
D11*
X4446119Y-9202976D02*
X4446119Y-9002976D01*
X4493738Y-9002976D01*
X4522310Y-9012500D01*
X4541357Y-9031548D01*
X4550881Y-9050595D01*
X4560405Y-9088690D01*
X4560405Y-9117262D01*
X4550881Y-9155357D01*
X4541357Y-9174405D01*
X4522310Y-9193452D01*
X4493738Y-9202976D01*
X4446119Y-9202976D01*
X4646119Y-9202976D02*
X4646119Y-9069643D01*
X4646119Y-9107738D02*
X4655643Y-9088690D01*
X4665167Y-9079167D01*
X4684214Y-9069643D01*
X4703262Y-9069643D01*
X4769929Y-9202976D02*
X4769929Y-9069643D01*
X4769929Y-9002976D02*
X4760405Y-9012500D01*
X4769929Y-9022024D01*
X4779452Y-9012500D01*
X4769929Y-9002976D01*
X4769929Y-9022024D01*
X4893738Y-9202976D02*
X4874690Y-9193452D01*
X4865167Y-9174405D01*
X4865167Y-9002976D01*
X4998500Y-9202976D02*
X4979452Y-9193452D01*
X4969929Y-9174405D01*
X4969929Y-9002976D01*
X5227071Y-9202976D02*
X5227071Y-9002976D01*
X5293738Y-9145833D01*
X5360405Y-9002976D01*
X5360405Y-9202976D01*
X5541357Y-9202976D02*
X5541357Y-9098214D01*
X5531833Y-9079167D01*
X5512786Y-9069643D01*
X5474690Y-9069643D01*
X5455643Y-9079167D01*
X5541357Y-9193452D02*
X5522310Y-9202976D01*
X5474690Y-9202976D01*
X5455643Y-9193452D01*
X5446119Y-9174405D01*
X5446119Y-9155357D01*
X5455643Y-9136310D01*
X5474690Y-9126786D01*
X5522310Y-9126786D01*
X5541357Y-9117262D01*
X5636595Y-9069643D02*
X5636595Y-9269643D01*
X5636595Y-9079167D02*
X5655643Y-9069643D01*
X5693738Y-9069643D01*
X5712786Y-9079167D01*
X5722309Y-9088690D01*
X5731833Y-9107738D01*
X5731833Y-9164881D01*
X5722309Y-9183929D01*
X5712786Y-9193452D01*
X5693738Y-9202976D01*
X5655643Y-9202976D01*
X5636595Y-9193452D01*
X5817548Y-9183929D02*
X5827071Y-9193452D01*
X5817548Y-9202976D01*
X5808024Y-9193452D01*
X5817548Y-9183929D01*
X5817548Y-9202976D01*
X5817548Y-9079167D02*
X5827071Y-9088690D01*
X5817548Y-9098214D01*
X5808024Y-9088690D01*
X5817548Y-9079167D01*
X5817548Y-9098214D01*
D12*
X4148500Y-9512500D02*
X4188500Y-9552500D01*
X4188500Y-9512500D02*
X4148500Y-9552500D01*
D11*
X4484214Y-9422976D02*
X4503262Y-9422976D01*
X4522310Y-9432500D01*
X4531833Y-9442024D01*
X4541357Y-9461071D01*
X4550881Y-9499167D01*
X4550881Y-9546786D01*
X4541357Y-9584881D01*
X4531833Y-9603929D01*
X4522310Y-9613452D01*
X4503262Y-9622976D01*
X4484214Y-9622976D01*
X4465167Y-9613452D01*
X4455643Y-9603929D01*
X4446119Y-9584881D01*
X4436595Y-9546786D01*
X4436595Y-9499167D01*
X4446119Y-9461071D01*
X4455643Y-9442024D01*
X4465167Y-9432500D01*
X4484214Y-9422976D01*
X4636595Y-9603929D02*
X4646119Y-9613452D01*
X4636595Y-9622976D01*
X4627071Y-9613452D01*
X4636595Y-9603929D01*
X4636595Y-9622976D01*
X4817548Y-9489643D02*
X4817548Y-9622976D01*
X4769929Y-9413452D02*
X4722310Y-9556310D01*
X4846119Y-9556310D01*
X4960405Y-9422976D02*
X4979452Y-9422976D01*
X4998500Y-9432500D01*
X5008024Y-9442024D01*
X5017548Y-9461071D01*
X5027071Y-9499167D01*
X5027071Y-9546786D01*
X5017548Y-9584881D01*
X5008024Y-9603929D01*
X4998500Y-9613452D01*
X4979452Y-9622976D01*
X4960405Y-9622976D01*
X4941357Y-9613452D01*
X4931833Y-9603929D01*
X4922310Y-9584881D01*
X4912786Y-9546786D01*
X4912786Y-9499167D01*
X4922310Y-9461071D01*
X4931833Y-9442024D01*
X4941357Y-9432500D01*
X4960405Y-9422976D01*
X5150881Y-9422976D02*
X5169929Y-9422976D01*
X5188976Y-9432500D01*
X5198500Y-9442024D01*
X5208024Y-9461071D01*
X5217548Y-9499167D01*
X5217548Y-9546786D01*
X5208024Y-9584881D01*
X5198500Y-9603929D01*
X5188976Y-9613452D01*
X5169929Y-9622976D01*
X5150881Y-9622976D01*
X5131833Y-9613452D01*
X5122310Y-9603929D01*
X5112786Y-9584881D01*
X5103262Y-9546786D01*
X5103262Y-9499167D01*
X5112786Y-9461071D01*
X5122310Y-9442024D01*
X5131833Y-9432500D01*
X5150881Y-9422976D01*
X5303262Y-9622976D02*
X5303262Y-9489643D01*
X5303262Y-9508690D02*
X5312786Y-9499167D01*
X5331833Y-9489643D01*
X5360405Y-9489643D01*
X5379452Y-9499167D01*
X5388976Y-9518214D01*
X5388976Y-9622976D01*
X5388976Y-9518214D02*
X5398500Y-9499167D01*
X5417548Y-9489643D01*
X5446119Y-9489643D01*
X5465167Y-9499167D01*
X5474690Y-9518214D01*
X5474690Y-9622976D01*
X5569929Y-9622976D02*
X5569929Y-9489643D01*
X5569929Y-9508690D02*
X5579452Y-9499167D01*
X5598500Y-9489643D01*
X5627071Y-9489643D01*
X5646119Y-9499167D01*
X5655643Y-9518214D01*
X5655643Y-9622976D01*
X5655643Y-9518214D02*
X5665167Y-9499167D01*
X5684214Y-9489643D01*
X5712786Y-9489643D01*
X5731833Y-9499167D01*
X5741357Y-9518214D01*
X5741357Y-9622976D01*
X6131833Y-9413452D02*
X5960405Y-9670595D01*
X6388976Y-9422976D02*
X6408024Y-9422976D01*
X6427071Y-9432500D01*
X6436595Y-9442024D01*
X6446119Y-9461071D01*
X6455643Y-9499167D01*
X6455643Y-9546786D01*
X6446119Y-9584881D01*
X6436595Y-9603929D01*
X6427071Y-9613452D01*
X6408024Y-9622976D01*
X6388976Y-9622976D01*
X6369928Y-9613452D01*
X6360405Y-9603929D01*
X6350881Y-9584881D01*
X6341357Y-9546786D01*
X6341357Y-9499167D01*
X6350881Y-9461071D01*
X6360405Y-9442024D01*
X6369928Y-9432500D01*
X6388976Y-9422976D01*
X6541357Y-9603929D02*
X6550881Y-9613452D01*
X6541357Y-9622976D01*
X6531833Y-9613452D01*
X6541357Y-9603929D01*
X6541357Y-9622976D01*
X6674690Y-9422976D02*
X6693738Y-9422976D01*
X6712786Y-9432500D01*
X6722309Y-9442024D01*
X6731833Y-9461071D01*
X6741357Y-9499167D01*
X6741357Y-9546786D01*
X6731833Y-9584881D01*
X6722309Y-9603929D01*
X6712786Y-9613452D01*
X6693738Y-9622976D01*
X6674690Y-9622976D01*
X6655643Y-9613452D01*
X6646119Y-9603929D01*
X6636595Y-9584881D01*
X6627071Y-9546786D01*
X6627071Y-9499167D01*
X6636595Y-9461071D01*
X6646119Y-9442024D01*
X6655643Y-9432500D01*
X6674690Y-9422976D01*
X6931833Y-9622976D02*
X6817548Y-9622976D01*
X6874690Y-9622976D02*
X6874690Y-9422976D01*
X6855643Y-9451548D01*
X6836595Y-9470595D01*
X6817548Y-9480119D01*
X7112786Y-9422976D02*
X7017548Y-9422976D01*
X7008024Y-9518214D01*
X7017548Y-9508690D01*
X7036595Y-9499167D01*
X7084214Y-9499167D01*
X7103262Y-9508690D01*
X7112786Y-9518214D01*
X7122309Y-9537262D01*
X7122309Y-9584881D01*
X7112786Y-9603929D01*
X7103262Y-9613452D01*
X7084214Y-9622976D01*
X7036595Y-9622976D01*
X7017548Y-9613452D01*
X7008024Y-9603929D01*
X7188976Y-9422976D02*
X7322309Y-9422976D01*
X7236595Y-9622976D01*
X7388976Y-9422976D02*
X7388976Y-9461071D01*
X7465167Y-9422976D02*
X7465167Y-9461071D01*
X7760405Y-9699167D02*
X7750881Y-9689643D01*
X7731833Y-9661071D01*
X7722309Y-9642024D01*
X7712786Y-9613452D01*
X7703262Y-9565833D01*
X7703262Y-9527738D01*
X7712786Y-9480119D01*
X7722309Y-9451548D01*
X7731833Y-9432500D01*
X7750881Y-9403929D01*
X7760405Y-9394405D01*
X7922309Y-9422976D02*
X7884214Y-9422976D01*
X7865167Y-9432500D01*
X7855643Y-9442024D01*
X7836595Y-9470595D01*
X7827071Y-9508690D01*
X7827071Y-9584881D01*
X7836595Y-9603929D01*
X7846119Y-9613452D01*
X7865167Y-9622976D01*
X7903262Y-9622976D01*
X7922309Y-9613452D01*
X7931833Y-9603929D01*
X7941357Y-9584881D01*
X7941357Y-9537262D01*
X7931833Y-9518214D01*
X7922309Y-9508690D01*
X7903262Y-9499167D01*
X7865167Y-9499167D01*
X7846119Y-9508690D01*
X7836595Y-9518214D01*
X7827071Y-9537262D01*
X8179452Y-9622976D02*
X8179452Y-9422976D01*
X8265167Y-9622976D02*
X8265167Y-9518214D01*
X8255643Y-9499167D01*
X8236595Y-9489643D01*
X8208024Y-9489643D01*
X8188976Y-9499167D01*
X8179452Y-9508690D01*
X8388976Y-9622976D02*
X8369928Y-9613452D01*
X8360405Y-9603929D01*
X8350881Y-9584881D01*
X8350881Y-9527738D01*
X8360405Y-9508690D01*
X8369928Y-9499167D01*
X8388976Y-9489643D01*
X8417548Y-9489643D01*
X8436595Y-9499167D01*
X8446119Y-9508690D01*
X8455643Y-9527738D01*
X8455643Y-9584881D01*
X8446119Y-9603929D01*
X8436595Y-9613452D01*
X8417548Y-9622976D01*
X8388976Y-9622976D01*
X8569929Y-9622976D02*
X8550881Y-9613452D01*
X8541357Y-9594405D01*
X8541357Y-9422976D01*
X8722310Y-9613452D02*
X8703262Y-9622976D01*
X8665167Y-9622976D01*
X8646119Y-9613452D01*
X8636595Y-9594405D01*
X8636595Y-9518214D01*
X8646119Y-9499167D01*
X8665167Y-9489643D01*
X8703262Y-9489643D01*
X8722310Y-9499167D01*
X8731833Y-9518214D01*
X8731833Y-9537262D01*
X8636595Y-9556310D01*
X8808024Y-9613452D02*
X8827071Y-9622976D01*
X8865167Y-9622976D01*
X8884214Y-9613452D01*
X8893738Y-9594405D01*
X8893738Y-9584881D01*
X8884214Y-9565833D01*
X8865167Y-9556310D01*
X8836595Y-9556310D01*
X8817548Y-9546786D01*
X8808024Y-9527738D01*
X8808024Y-9518214D01*
X8817548Y-9499167D01*
X8836595Y-9489643D01*
X8865167Y-9489643D01*
X8884214Y-9499167D01*
X8960405Y-9699167D02*
X8969929Y-9689643D01*
X8988976Y-9661071D01*
X8998500Y-9642024D01*
X9008024Y-9613452D01*
X9017548Y-9565833D01*
X9017548Y-9527738D01*
X9008024Y-9480119D01*
X8998500Y-9451548D01*
X8988976Y-9432500D01*
X8969929Y-9403929D01*
X8960405Y-9394405D01*
D13*
X4188500Y-9796500D02*
G75*
G03*
X4188500Y-9796500I-40000J0D01*
G01*
D11*
X4484214Y-9686976D02*
X4503262Y-9686976D01*
X4522310Y-9696500D01*
X4531833Y-9706024D01*
X4541357Y-9725071D01*
X4550881Y-9763167D01*
X4550881Y-9810786D01*
X4541357Y-9848881D01*
X4531833Y-9867929D01*
X4522310Y-9877452D01*
X4503262Y-9886976D01*
X4484214Y-9886976D01*
X4465167Y-9877452D01*
X4455643Y-9867929D01*
X4446119Y-9848881D01*
X4436595Y-9810786D01*
X4436595Y-9763167D01*
X4446119Y-9725071D01*
X4455643Y-9706024D01*
X4465167Y-9696500D01*
X4484214Y-9686976D01*
X4636595Y-9867929D02*
X4646119Y-9877452D01*
X4636595Y-9886976D01*
X4627071Y-9877452D01*
X4636595Y-9867929D01*
X4636595Y-9886976D01*
X4760405Y-9772690D02*
X4741357Y-9763167D01*
X4731833Y-9753643D01*
X4722310Y-9734595D01*
X4722310Y-9725071D01*
X4731833Y-9706024D01*
X4741357Y-9696500D01*
X4760405Y-9686976D01*
X4798500Y-9686976D01*
X4817548Y-9696500D01*
X4827071Y-9706024D01*
X4836595Y-9725071D01*
X4836595Y-9734595D01*
X4827071Y-9753643D01*
X4817548Y-9763167D01*
X4798500Y-9772690D01*
X4760405Y-9772690D01*
X4741357Y-9782214D01*
X4731833Y-9791738D01*
X4722310Y-9810786D01*
X4722310Y-9848881D01*
X4731833Y-9867929D01*
X4741357Y-9877452D01*
X4760405Y-9886976D01*
X4798500Y-9886976D01*
X4817548Y-9877452D01*
X4827071Y-9867929D01*
X4836595Y-9848881D01*
X4836595Y-9810786D01*
X4827071Y-9791738D01*
X4817548Y-9782214D01*
X4798500Y-9772690D01*
X4960405Y-9686976D02*
X4979452Y-9686976D01*
X4998500Y-9696500D01*
X5008024Y-9706024D01*
X5017548Y-9725071D01*
X5027071Y-9763167D01*
X5027071Y-9810786D01*
X5017548Y-9848881D01*
X5008024Y-9867929D01*
X4998500Y-9877452D01*
X4979452Y-9886976D01*
X4960405Y-9886976D01*
X4941357Y-9877452D01*
X4931833Y-9867929D01*
X4922310Y-9848881D01*
X4912786Y-9810786D01*
X4912786Y-9763167D01*
X4922310Y-9725071D01*
X4931833Y-9706024D01*
X4941357Y-9696500D01*
X4960405Y-9686976D01*
X5150881Y-9686976D02*
X5169929Y-9686976D01*
X5188976Y-9696500D01*
X5198500Y-9706024D01*
X5208024Y-9725071D01*
X5217548Y-9763167D01*
X5217548Y-9810786D01*
X5208024Y-9848881D01*
X5198500Y-9867929D01*
X5188976Y-9877452D01*
X5169929Y-9886976D01*
X5150881Y-9886976D01*
X5131833Y-9877452D01*
X5122310Y-9867929D01*
X5112786Y-9848881D01*
X5103262Y-9810786D01*
X5103262Y-9763167D01*
X5112786Y-9725071D01*
X5122310Y-9706024D01*
X5131833Y-9696500D01*
X5150881Y-9686976D01*
X5303262Y-9886976D02*
X5303262Y-9753643D01*
X5303262Y-9772690D02*
X5312786Y-9763167D01*
X5331833Y-9753643D01*
X5360405Y-9753643D01*
X5379452Y-9763167D01*
X5388976Y-9782214D01*
X5388976Y-9886976D01*
X5388976Y-9782214D02*
X5398500Y-9763167D01*
X5417548Y-9753643D01*
X5446119Y-9753643D01*
X5465167Y-9763167D01*
X5474690Y-9782214D01*
X5474690Y-9886976D01*
X5569929Y-9886976D02*
X5569929Y-9753643D01*
X5569929Y-9772690D02*
X5579452Y-9763167D01*
X5598500Y-9753643D01*
X5627071Y-9753643D01*
X5646119Y-9763167D01*
X5655643Y-9782214D01*
X5655643Y-9886976D01*
X5655643Y-9782214D02*
X5665167Y-9763167D01*
X5684214Y-9753643D01*
X5712786Y-9753643D01*
X5731833Y-9763167D01*
X5741357Y-9782214D01*
X5741357Y-9886976D01*
X6131833Y-9677452D02*
X5960405Y-9934595D01*
X6388976Y-9686976D02*
X6408024Y-9686976D01*
X6427071Y-9696500D01*
X6436595Y-9706024D01*
X6446119Y-9725071D01*
X6455643Y-9763167D01*
X6455643Y-9810786D01*
X6446119Y-9848881D01*
X6436595Y-9867929D01*
X6427071Y-9877452D01*
X6408024Y-9886976D01*
X6388976Y-9886976D01*
X6369928Y-9877452D01*
X6360405Y-9867929D01*
X6350881Y-9848881D01*
X6341357Y-9810786D01*
X6341357Y-9763167D01*
X6350881Y-9725071D01*
X6360405Y-9706024D01*
X6369928Y-9696500D01*
X6388976Y-9686976D01*
X6541357Y-9867929D02*
X6550881Y-9877452D01*
X6541357Y-9886976D01*
X6531833Y-9877452D01*
X6541357Y-9867929D01*
X6541357Y-9886976D01*
X6674690Y-9686976D02*
X6693738Y-9686976D01*
X6712786Y-9696500D01*
X6722309Y-9706024D01*
X6731833Y-9725071D01*
X6741357Y-9763167D01*
X6741357Y-9810786D01*
X6731833Y-9848881D01*
X6722309Y-9867929D01*
X6712786Y-9877452D01*
X6693738Y-9886976D01*
X6674690Y-9886976D01*
X6655643Y-9877452D01*
X6646119Y-9867929D01*
X6636595Y-9848881D01*
X6627071Y-9810786D01*
X6627071Y-9763167D01*
X6636595Y-9725071D01*
X6646119Y-9706024D01*
X6655643Y-9696500D01*
X6674690Y-9686976D01*
X6808024Y-9686976D02*
X6931833Y-9686976D01*
X6865167Y-9763167D01*
X6893738Y-9763167D01*
X6912786Y-9772690D01*
X6922309Y-9782214D01*
X6931833Y-9801262D01*
X6931833Y-9848881D01*
X6922309Y-9867929D01*
X6912786Y-9877452D01*
X6893738Y-9886976D01*
X6836595Y-9886976D01*
X6817548Y-9877452D01*
X6808024Y-9867929D01*
X7122309Y-9886976D02*
X7008024Y-9886976D01*
X7065167Y-9886976D02*
X7065167Y-9686976D01*
X7046119Y-9715548D01*
X7027071Y-9734595D01*
X7008024Y-9744119D01*
X7303262Y-9686976D02*
X7208024Y-9686976D01*
X7198500Y-9782214D01*
X7208024Y-9772690D01*
X7227071Y-9763167D01*
X7274690Y-9763167D01*
X7293738Y-9772690D01*
X7303262Y-9782214D01*
X7312786Y-9801262D01*
X7312786Y-9848881D01*
X7303262Y-9867929D01*
X7293738Y-9877452D01*
X7274690Y-9886976D01*
X7227071Y-9886976D01*
X7208024Y-9877452D01*
X7198500Y-9867929D01*
X7388976Y-9686976D02*
X7388976Y-9725071D01*
X7465167Y-9686976D02*
X7465167Y-9725071D01*
X7760405Y-9963167D02*
X7750881Y-9953643D01*
X7731833Y-9925071D01*
X7722309Y-9906024D01*
X7712786Y-9877452D01*
X7703262Y-9829833D01*
X7703262Y-9791738D01*
X7712786Y-9744119D01*
X7722309Y-9715548D01*
X7731833Y-9696500D01*
X7750881Y-9667929D01*
X7760405Y-9658405D01*
X7941357Y-9886976D02*
X7827071Y-9886976D01*
X7884214Y-9886976D02*
X7884214Y-9686976D01*
X7865167Y-9715548D01*
X7846119Y-9734595D01*
X7827071Y-9744119D01*
X8112786Y-9686976D02*
X8074690Y-9686976D01*
X8055643Y-9696500D01*
X8046119Y-9706024D01*
X8027071Y-9734595D01*
X8017548Y-9772690D01*
X8017548Y-9848881D01*
X8027071Y-9867929D01*
X8036595Y-9877452D01*
X8055643Y-9886976D01*
X8093738Y-9886976D01*
X8112786Y-9877452D01*
X8122309Y-9867929D01*
X8131833Y-9848881D01*
X8131833Y-9801262D01*
X8122309Y-9782214D01*
X8112786Y-9772690D01*
X8093738Y-9763167D01*
X8055643Y-9763167D01*
X8036595Y-9772690D01*
X8027071Y-9782214D01*
X8017548Y-9801262D01*
X8369928Y-9886976D02*
X8369928Y-9686976D01*
X8455643Y-9886976D02*
X8455643Y-9782214D01*
X8446119Y-9763167D01*
X8427071Y-9753643D01*
X8398500Y-9753643D01*
X8379452Y-9763167D01*
X8369928Y-9772690D01*
X8579452Y-9886976D02*
X8560405Y-9877452D01*
X8550881Y-9867929D01*
X8541357Y-9848881D01*
X8541357Y-9791738D01*
X8550881Y-9772690D01*
X8560405Y-9763167D01*
X8579452Y-9753643D01*
X8608024Y-9753643D01*
X8627071Y-9763167D01*
X8636595Y-9772690D01*
X8646119Y-9791738D01*
X8646119Y-9848881D01*
X8636595Y-9867929D01*
X8627071Y-9877452D01*
X8608024Y-9886976D01*
X8579452Y-9886976D01*
X8760405Y-9886976D02*
X8741357Y-9877452D01*
X8731833Y-9858405D01*
X8731833Y-9686976D01*
X8912786Y-9877452D02*
X8893738Y-9886976D01*
X8855643Y-9886976D01*
X8836595Y-9877452D01*
X8827071Y-9858405D01*
X8827071Y-9782214D01*
X8836595Y-9763167D01*
X8855643Y-9753643D01*
X8893738Y-9753643D01*
X8912786Y-9763167D01*
X8922310Y-9782214D01*
X8922310Y-9801262D01*
X8827071Y-9820310D01*
X8998500Y-9877452D02*
X9017548Y-9886976D01*
X9055643Y-9886976D01*
X9074690Y-9877452D01*
X9084214Y-9858405D01*
X9084214Y-9848881D01*
X9074690Y-9829833D01*
X9055643Y-9820310D01*
X9027071Y-9820310D01*
X9008024Y-9810786D01*
X8998500Y-9791738D01*
X8998500Y-9782214D01*
X9008024Y-9763167D01*
X9027071Y-9753643D01*
X9055643Y-9753643D01*
X9074690Y-9763167D01*
X9150881Y-9963167D02*
X9160405Y-9953643D01*
X9179452Y-9925071D01*
X9188976Y-9906024D01*
X9198500Y-9877452D01*
X9208024Y-9829833D01*
X9208024Y-9791738D01*
X9198500Y-9744119D01*
X9188976Y-9715548D01*
X9179452Y-9696500D01*
X9160405Y-9667929D01*
X9150881Y-9658405D01*
D14*
X4138500Y-10010500D02*
X4138500Y-10110500D01*
X4088500Y-10060500D02*
X4188500Y-10060500D01*
D11*
X4550881Y-10150976D02*
X4436595Y-10150976D01*
X4493738Y-10150976D02*
X4493738Y-9950976D01*
X4474690Y-9979548D01*
X4455643Y-9998595D01*
X4436595Y-10008119D01*
X4636595Y-10131929D02*
X4646119Y-10141452D01*
X4636595Y-10150976D01*
X4627071Y-10141452D01*
X4636595Y-10131929D01*
X4636595Y-10150976D01*
X4769929Y-9950976D02*
X4788976Y-9950976D01*
X4808024Y-9960500D01*
X4817548Y-9970024D01*
X4827071Y-9989071D01*
X4836595Y-10027167D01*
X4836595Y-10074786D01*
X4827071Y-10112881D01*
X4817548Y-10131929D01*
X4808024Y-10141452D01*
X4788976Y-10150976D01*
X4769929Y-10150976D01*
X4750881Y-10141452D01*
X4741357Y-10131929D01*
X4731833Y-10112881D01*
X4722310Y-10074786D01*
X4722310Y-10027167D01*
X4731833Y-9989071D01*
X4741357Y-9970024D01*
X4750881Y-9960500D01*
X4769929Y-9950976D01*
X4960405Y-9950976D02*
X4979452Y-9950976D01*
X4998500Y-9960500D01*
X5008024Y-9970024D01*
X5017548Y-9989071D01*
X5027071Y-10027167D01*
X5027071Y-10074786D01*
X5017548Y-10112881D01*
X5008024Y-10131929D01*
X4998500Y-10141452D01*
X4979452Y-10150976D01*
X4960405Y-10150976D01*
X4941357Y-10141452D01*
X4931833Y-10131929D01*
X4922310Y-10112881D01*
X4912786Y-10074786D01*
X4912786Y-10027167D01*
X4922310Y-9989071D01*
X4931833Y-9970024D01*
X4941357Y-9960500D01*
X4960405Y-9950976D01*
X5150881Y-9950976D02*
X5169929Y-9950976D01*
X5188976Y-9960500D01*
X5198500Y-9970024D01*
X5208024Y-9989071D01*
X5217548Y-10027167D01*
X5217548Y-10074786D01*
X5208024Y-10112881D01*
X5198500Y-10131929D01*
X5188976Y-10141452D01*
X5169929Y-10150976D01*
X5150881Y-10150976D01*
X5131833Y-10141452D01*
X5122310Y-10131929D01*
X5112786Y-10112881D01*
X5103262Y-10074786D01*
X5103262Y-10027167D01*
X5112786Y-9989071D01*
X5122310Y-9970024D01*
X5131833Y-9960500D01*
X5150881Y-9950976D01*
X5303262Y-10150976D02*
X5303262Y-10017643D01*
X5303262Y-10036690D02*
X5312786Y-10027167D01*
X5331833Y-10017643D01*
X5360405Y-10017643D01*
X5379452Y-10027167D01*
X5388976Y-10046214D01*
X5388976Y-10150976D01*
X5388976Y-10046214D02*
X5398500Y-10027167D01*
X5417548Y-10017643D01*
X5446119Y-10017643D01*
X5465167Y-10027167D01*
X5474690Y-10046214D01*
X5474690Y-10150976D01*
X5569929Y-10150976D02*
X5569929Y-10017643D01*
X5569929Y-10036690D02*
X5579452Y-10027167D01*
X5598500Y-10017643D01*
X5627071Y-10017643D01*
X5646119Y-10027167D01*
X5655643Y-10046214D01*
X5655643Y-10150976D01*
X5655643Y-10046214D02*
X5665167Y-10027167D01*
X5684214Y-10017643D01*
X5712786Y-10017643D01*
X5731833Y-10027167D01*
X5741357Y-10046214D01*
X5741357Y-10150976D01*
X6131833Y-9941452D02*
X5960405Y-10198595D01*
X6388976Y-9950976D02*
X6408024Y-9950976D01*
X6427071Y-9960500D01*
X6436595Y-9970024D01*
X6446119Y-9989071D01*
X6455643Y-10027167D01*
X6455643Y-10074786D01*
X6446119Y-10112881D01*
X6436595Y-10131929D01*
X6427071Y-10141452D01*
X6408024Y-10150976D01*
X6388976Y-10150976D01*
X6369928Y-10141452D01*
X6360405Y-10131929D01*
X6350881Y-10112881D01*
X6341357Y-10074786D01*
X6341357Y-10027167D01*
X6350881Y-9989071D01*
X6360405Y-9970024D01*
X6369928Y-9960500D01*
X6388976Y-9950976D01*
X6541357Y-10131929D02*
X6550881Y-10141452D01*
X6541357Y-10150976D01*
X6531833Y-10141452D01*
X6541357Y-10131929D01*
X6541357Y-10150976D01*
X6674690Y-9950976D02*
X6693738Y-9950976D01*
X6712786Y-9960500D01*
X6722309Y-9970024D01*
X6731833Y-9989071D01*
X6741357Y-10027167D01*
X6741357Y-10074786D01*
X6731833Y-10112881D01*
X6722309Y-10131929D01*
X6712786Y-10141452D01*
X6693738Y-10150976D01*
X6674690Y-10150976D01*
X6655643Y-10141452D01*
X6646119Y-10131929D01*
X6636595Y-10112881D01*
X6627071Y-10074786D01*
X6627071Y-10027167D01*
X6636595Y-9989071D01*
X6646119Y-9970024D01*
X6655643Y-9960500D01*
X6674690Y-9950976D01*
X6808024Y-9950976D02*
X6931833Y-9950976D01*
X6865167Y-10027167D01*
X6893738Y-10027167D01*
X6912786Y-10036690D01*
X6922309Y-10046214D01*
X6931833Y-10065262D01*
X6931833Y-10112881D01*
X6922309Y-10131929D01*
X6912786Y-10141452D01*
X6893738Y-10150976D01*
X6836595Y-10150976D01*
X6817548Y-10141452D01*
X6808024Y-10131929D01*
X7027071Y-10150976D02*
X7065167Y-10150976D01*
X7084214Y-10141452D01*
X7093738Y-10131929D01*
X7112786Y-10103357D01*
X7122309Y-10065262D01*
X7122309Y-9989071D01*
X7112786Y-9970024D01*
X7103262Y-9960500D01*
X7084214Y-9950976D01*
X7046119Y-9950976D01*
X7027071Y-9960500D01*
X7017548Y-9970024D01*
X7008024Y-9989071D01*
X7008024Y-10036690D01*
X7017548Y-10055738D01*
X7027071Y-10065262D01*
X7046119Y-10074786D01*
X7084214Y-10074786D01*
X7103262Y-10065262D01*
X7112786Y-10055738D01*
X7122309Y-10036690D01*
X7293738Y-10017643D02*
X7293738Y-10150976D01*
X7246119Y-9941452D02*
X7198500Y-10084310D01*
X7322309Y-10084310D01*
X7388976Y-9950976D02*
X7388976Y-9989071D01*
X7465167Y-9950976D02*
X7465167Y-9989071D01*
X7760405Y-10227167D02*
X7750881Y-10217643D01*
X7731833Y-10189071D01*
X7722309Y-10170024D01*
X7712786Y-10141452D01*
X7703262Y-10093833D01*
X7703262Y-10055738D01*
X7712786Y-10008119D01*
X7722309Y-9979548D01*
X7731833Y-9960500D01*
X7750881Y-9931929D01*
X7760405Y-9922405D01*
X7931833Y-9950976D02*
X7836595Y-9950976D01*
X7827071Y-10046214D01*
X7836595Y-10036690D01*
X7855643Y-10027167D01*
X7903262Y-10027167D01*
X7922309Y-10036690D01*
X7931833Y-10046214D01*
X7941357Y-10065262D01*
X7941357Y-10112881D01*
X7931833Y-10131929D01*
X7922309Y-10141452D01*
X7903262Y-10150976D01*
X7855643Y-10150976D01*
X7836595Y-10141452D01*
X7827071Y-10131929D01*
X8017548Y-9970024D02*
X8027071Y-9960500D01*
X8046119Y-9950976D01*
X8093738Y-9950976D01*
X8112786Y-9960500D01*
X8122309Y-9970024D01*
X8131833Y-9989071D01*
X8131833Y-10008119D01*
X8122309Y-10036690D01*
X8008024Y-10150976D01*
X8131833Y-10150976D01*
X8369928Y-10150976D02*
X8369928Y-9950976D01*
X8455643Y-10150976D02*
X8455643Y-10046214D01*
X8446119Y-10027167D01*
X8427071Y-10017643D01*
X8398500Y-10017643D01*
X8379452Y-10027167D01*
X8369928Y-10036690D01*
X8579452Y-10150976D02*
X8560405Y-10141452D01*
X8550881Y-10131929D01*
X8541357Y-10112881D01*
X8541357Y-10055738D01*
X8550881Y-10036690D01*
X8560405Y-10027167D01*
X8579452Y-10017643D01*
X8608024Y-10017643D01*
X8627071Y-10027167D01*
X8636595Y-10036690D01*
X8646119Y-10055738D01*
X8646119Y-10112881D01*
X8636595Y-10131929D01*
X8627071Y-10141452D01*
X8608024Y-10150976D01*
X8579452Y-10150976D01*
X8760405Y-10150976D02*
X8741357Y-10141452D01*
X8731833Y-10122405D01*
X8731833Y-9950976D01*
X8912786Y-10141452D02*
X8893738Y-10150976D01*
X8855643Y-10150976D01*
X8836595Y-10141452D01*
X8827071Y-10122405D01*
X8827071Y-10046214D01*
X8836595Y-10027167D01*
X8855643Y-10017643D01*
X8893738Y-10017643D01*
X8912786Y-10027167D01*
X8922310Y-10046214D01*
X8922310Y-10065262D01*
X8827071Y-10084310D01*
X8998500Y-10141452D02*
X9017548Y-10150976D01*
X9055643Y-10150976D01*
X9074690Y-10141452D01*
X9084214Y-10122405D01*
X9084214Y-10112881D01*
X9074690Y-10093833D01*
X9055643Y-10084310D01*
X9027071Y-10084310D01*
X9008024Y-10074786D01*
X8998500Y-10055738D01*
X8998500Y-10046214D01*
X9008024Y-10027167D01*
X9027071Y-10017643D01*
X9055643Y-10017643D01*
X9074690Y-10027167D01*
X9150881Y-10227167D02*
X9160405Y-10217643D01*
X9179452Y-10189071D01*
X9188976Y-10170024D01*
X9198500Y-10141452D01*
X9208024Y-10093833D01*
X9208024Y-10055738D01*
X9198500Y-10008119D01*
X9188976Y-9979548D01*
X9179452Y-9960500D01*
X9160405Y-9931929D01*
X9150881Y-9922405D01*
D15*
X4173563Y-10360563D02*
X4173563Y-10288437D01*
X4101437Y-10288437D01*
X4101437Y-10360563D01*
X4173563Y-10360563D01*
D11*
X4550881Y-10414976D02*
X4436595Y-10414976D01*
X4493738Y-10414976D02*
X4493738Y-10214976D01*
X4474690Y-10243548D01*
X4455643Y-10262595D01*
X4436595Y-10272119D01*
X4636595Y-10395929D02*
X4646119Y-10405452D01*
X4636595Y-10414976D01*
X4627071Y-10405452D01*
X4636595Y-10395929D01*
X4636595Y-10414976D01*
X4769929Y-10214976D02*
X4788976Y-10214976D01*
X4808024Y-10224500D01*
X4817548Y-10234024D01*
X4827071Y-10253071D01*
X4836595Y-10291167D01*
X4836595Y-10338786D01*
X4827071Y-10376881D01*
X4817548Y-10395929D01*
X4808024Y-10405452D01*
X4788976Y-10414976D01*
X4769929Y-10414976D01*
X4750881Y-10405452D01*
X4741357Y-10395929D01*
X4731833Y-10376881D01*
X4722310Y-10338786D01*
X4722310Y-10291167D01*
X4731833Y-10253071D01*
X4741357Y-10234024D01*
X4750881Y-10224500D01*
X4769929Y-10214976D01*
X4912786Y-10234024D02*
X4922310Y-10224500D01*
X4941357Y-10214976D01*
X4988976Y-10214976D01*
X5008024Y-10224500D01*
X5017548Y-10234024D01*
X5027071Y-10253071D01*
X5027071Y-10272119D01*
X5017548Y-10300690D01*
X4903262Y-10414976D01*
X5027071Y-10414976D01*
X5150881Y-10214976D02*
X5169929Y-10214976D01*
X5188976Y-10224500D01*
X5198500Y-10234024D01*
X5208024Y-10253071D01*
X5217548Y-10291167D01*
X5217548Y-10338786D01*
X5208024Y-10376881D01*
X5198500Y-10395929D01*
X5188976Y-10405452D01*
X5169929Y-10414976D01*
X5150881Y-10414976D01*
X5131833Y-10405452D01*
X5122310Y-10395929D01*
X5112786Y-10376881D01*
X5103262Y-10338786D01*
X5103262Y-10291167D01*
X5112786Y-10253071D01*
X5122310Y-10234024D01*
X5131833Y-10224500D01*
X5150881Y-10214976D01*
X5303262Y-10414976D02*
X5303262Y-10281643D01*
X5303262Y-10300690D02*
X5312786Y-10291167D01*
X5331833Y-10281643D01*
X5360405Y-10281643D01*
X5379452Y-10291167D01*
X5388976Y-10310214D01*
X5388976Y-10414976D01*
X5388976Y-10310214D02*
X5398500Y-10291167D01*
X5417548Y-10281643D01*
X5446119Y-10281643D01*
X5465167Y-10291167D01*
X5474690Y-10310214D01*
X5474690Y-10414976D01*
X5569929Y-10414976D02*
X5569929Y-10281643D01*
X5569929Y-10300690D02*
X5579452Y-10291167D01*
X5598500Y-10281643D01*
X5627071Y-10281643D01*
X5646119Y-10291167D01*
X5655643Y-10310214D01*
X5655643Y-10414976D01*
X5655643Y-10310214D02*
X5665167Y-10291167D01*
X5684214Y-10281643D01*
X5712786Y-10281643D01*
X5731833Y-10291167D01*
X5741357Y-10310214D01*
X5741357Y-10414976D01*
X6131833Y-10205452D02*
X5960405Y-10462595D01*
X6388976Y-10214976D02*
X6408024Y-10214976D01*
X6427071Y-10224500D01*
X6436595Y-10234024D01*
X6446119Y-10253071D01*
X6455643Y-10291167D01*
X6455643Y-10338786D01*
X6446119Y-10376881D01*
X6436595Y-10395929D01*
X6427071Y-10405452D01*
X6408024Y-10414976D01*
X6388976Y-10414976D01*
X6369928Y-10405452D01*
X6360405Y-10395929D01*
X6350881Y-10376881D01*
X6341357Y-10338786D01*
X6341357Y-10291167D01*
X6350881Y-10253071D01*
X6360405Y-10234024D01*
X6369928Y-10224500D01*
X6388976Y-10214976D01*
X6541357Y-10395929D02*
X6550881Y-10405452D01*
X6541357Y-10414976D01*
X6531833Y-10405452D01*
X6541357Y-10395929D01*
X6541357Y-10414976D01*
X6674690Y-10214976D02*
X6693738Y-10214976D01*
X6712786Y-10224500D01*
X6722309Y-10234024D01*
X6731833Y-10253071D01*
X6741357Y-10291167D01*
X6741357Y-10338786D01*
X6731833Y-10376881D01*
X6722309Y-10395929D01*
X6712786Y-10405452D01*
X6693738Y-10414976D01*
X6674690Y-10414976D01*
X6655643Y-10405452D01*
X6646119Y-10395929D01*
X6636595Y-10376881D01*
X6627071Y-10338786D01*
X6627071Y-10291167D01*
X6636595Y-10253071D01*
X6646119Y-10234024D01*
X6655643Y-10224500D01*
X6674690Y-10214976D01*
X6912786Y-10281643D02*
X6912786Y-10414976D01*
X6865167Y-10205452D02*
X6817548Y-10348310D01*
X6941357Y-10348310D01*
X7055643Y-10214976D02*
X7074690Y-10214976D01*
X7093738Y-10224500D01*
X7103262Y-10234024D01*
X7112786Y-10253071D01*
X7122309Y-10291167D01*
X7122309Y-10338786D01*
X7112786Y-10376881D01*
X7103262Y-10395929D01*
X7093738Y-10405452D01*
X7074690Y-10414976D01*
X7055643Y-10414976D01*
X7036595Y-10405452D01*
X7027071Y-10395929D01*
X7017548Y-10376881D01*
X7008024Y-10338786D01*
X7008024Y-10291167D01*
X7017548Y-10253071D01*
X7027071Y-10234024D01*
X7036595Y-10224500D01*
X7055643Y-10214976D01*
X7198500Y-10234024D02*
X7208024Y-10224500D01*
X7227071Y-10214976D01*
X7274690Y-10214976D01*
X7293738Y-10224500D01*
X7303262Y-10234024D01*
X7312786Y-10253071D01*
X7312786Y-10272119D01*
X7303262Y-10300690D01*
X7188976Y-10414976D01*
X7312786Y-10414976D01*
X7388976Y-10214976D02*
X7388976Y-10253071D01*
X7465167Y-10214976D02*
X7465167Y-10253071D01*
X7760405Y-10491167D02*
X7750881Y-10481643D01*
X7731833Y-10453071D01*
X7722309Y-10434024D01*
X7712786Y-10405452D01*
X7703262Y-10357833D01*
X7703262Y-10319738D01*
X7712786Y-10272119D01*
X7722309Y-10243548D01*
X7731833Y-10224500D01*
X7750881Y-10195929D01*
X7760405Y-10186405D01*
X7817548Y-10214976D02*
X7950881Y-10214976D01*
X7865167Y-10414976D01*
X8179452Y-10414976D02*
X8179452Y-10214976D01*
X8265167Y-10414976D02*
X8265167Y-10310214D01*
X8255643Y-10291167D01*
X8236595Y-10281643D01*
X8208024Y-10281643D01*
X8188976Y-10291167D01*
X8179452Y-10300690D01*
X8388976Y-10414976D02*
X8369928Y-10405452D01*
X8360405Y-10395929D01*
X8350881Y-10376881D01*
X8350881Y-10319738D01*
X8360405Y-10300690D01*
X8369928Y-10291167D01*
X8388976Y-10281643D01*
X8417548Y-10281643D01*
X8436595Y-10291167D01*
X8446119Y-10300690D01*
X8455643Y-10319738D01*
X8455643Y-10376881D01*
X8446119Y-10395929D01*
X8436595Y-10405452D01*
X8417548Y-10414976D01*
X8388976Y-10414976D01*
X8569929Y-10414976D02*
X8550881Y-10405452D01*
X8541357Y-10386405D01*
X8541357Y-10214976D01*
X8722310Y-10405452D02*
X8703262Y-10414976D01*
X8665167Y-10414976D01*
X8646119Y-10405452D01*
X8636595Y-10386405D01*
X8636595Y-10310214D01*
X8646119Y-10291167D01*
X8665167Y-10281643D01*
X8703262Y-10281643D01*
X8722310Y-10291167D01*
X8731833Y-10310214D01*
X8731833Y-10329262D01*
X8636595Y-10348310D01*
X8808024Y-10405452D02*
X8827071Y-10414976D01*
X8865167Y-10414976D01*
X8884214Y-10405452D01*
X8893738Y-10386405D01*
X8893738Y-10376881D01*
X8884214Y-10357833D01*
X8865167Y-10348310D01*
X8836595Y-10348310D01*
X8817548Y-10338786D01*
X8808024Y-10319738D01*
X8808024Y-10310214D01*
X8817548Y-10291167D01*
X8836595Y-10281643D01*
X8865167Y-10281643D01*
X8884214Y-10291167D01*
X8960405Y-10491167D02*
X8969929Y-10481643D01*
X8988976Y-10453071D01*
X8998500Y-10434024D01*
X9008024Y-10405452D01*
X9017548Y-10357833D01*
X9017548Y-10319738D01*
X9008024Y-10272119D01*
X8998500Y-10243548D01*
X8988976Y-10224500D01*
X8969929Y-10195929D01*
X8960405Y-10186405D01*
D16*
X4133500Y-10643500D02*
X4188500Y-10588500D01*
X4133500Y-10533500D01*
X4078500Y-10588500D01*
X4133500Y-10643500D01*
D11*
X4550881Y-10678976D02*
X4436595Y-10678976D01*
X4493738Y-10678976D02*
X4493738Y-10478976D01*
X4474690Y-10507548D01*
X4455643Y-10526595D01*
X4436595Y-10536119D01*
X4636595Y-10659929D02*
X4646119Y-10669452D01*
X4636595Y-10678976D01*
X4627071Y-10669452D01*
X4636595Y-10659929D01*
X4636595Y-10678976D01*
X4836595Y-10678976D02*
X4722310Y-10678976D01*
X4779452Y-10678976D02*
X4779452Y-10478976D01*
X4760405Y-10507548D01*
X4741357Y-10526595D01*
X4722310Y-10536119D01*
X4960405Y-10478976D02*
X4979452Y-10478976D01*
X4998500Y-10488500D01*
X5008024Y-10498024D01*
X5017548Y-10517071D01*
X5027071Y-10555167D01*
X5027071Y-10602786D01*
X5017548Y-10640881D01*
X5008024Y-10659929D01*
X4998500Y-10669452D01*
X4979452Y-10678976D01*
X4960405Y-10678976D01*
X4941357Y-10669452D01*
X4931833Y-10659929D01*
X4922310Y-10640881D01*
X4912786Y-10602786D01*
X4912786Y-10555167D01*
X4922310Y-10517071D01*
X4931833Y-10498024D01*
X4941357Y-10488500D01*
X4960405Y-10478976D01*
X5150881Y-10478976D02*
X5169929Y-10478976D01*
X5188976Y-10488500D01*
X5198500Y-10498024D01*
X5208024Y-10517071D01*
X5217548Y-10555167D01*
X5217548Y-10602786D01*
X5208024Y-10640881D01*
X5198500Y-10659929D01*
X5188976Y-10669452D01*
X5169929Y-10678976D01*
X5150881Y-10678976D01*
X5131833Y-10669452D01*
X5122310Y-10659929D01*
X5112786Y-10640881D01*
X5103262Y-10602786D01*
X5103262Y-10555167D01*
X5112786Y-10517071D01*
X5122310Y-10498024D01*
X5131833Y-10488500D01*
X5150881Y-10478976D01*
X5303262Y-10678976D02*
X5303262Y-10545643D01*
X5303262Y-10564690D02*
X5312786Y-10555167D01*
X5331833Y-10545643D01*
X5360405Y-10545643D01*
X5379452Y-10555167D01*
X5388976Y-10574214D01*
X5388976Y-10678976D01*
X5388976Y-10574214D02*
X5398500Y-10555167D01*
X5417548Y-10545643D01*
X5446119Y-10545643D01*
X5465167Y-10555167D01*
X5474690Y-10574214D01*
X5474690Y-10678976D01*
X5569929Y-10678976D02*
X5569929Y-10545643D01*
X5569929Y-10564690D02*
X5579452Y-10555167D01*
X5598500Y-10545643D01*
X5627071Y-10545643D01*
X5646119Y-10555167D01*
X5655643Y-10574214D01*
X5655643Y-10678976D01*
X5655643Y-10574214D02*
X5665167Y-10555167D01*
X5684214Y-10545643D01*
X5712786Y-10545643D01*
X5731833Y-10555167D01*
X5741357Y-10574214D01*
X5741357Y-10678976D01*
X6131833Y-10469452D02*
X5960405Y-10726595D01*
X6388976Y-10478976D02*
X6408024Y-10478976D01*
X6427071Y-10488500D01*
X6436595Y-10498024D01*
X6446119Y-10517071D01*
X6455643Y-10555167D01*
X6455643Y-10602786D01*
X6446119Y-10640881D01*
X6436595Y-10659929D01*
X6427071Y-10669452D01*
X6408024Y-10678976D01*
X6388976Y-10678976D01*
X6369928Y-10669452D01*
X6360405Y-10659929D01*
X6350881Y-10640881D01*
X6341357Y-10602786D01*
X6341357Y-10555167D01*
X6350881Y-10517071D01*
X6360405Y-10498024D01*
X6369928Y-10488500D01*
X6388976Y-10478976D01*
X6541357Y-10659929D02*
X6550881Y-10669452D01*
X6541357Y-10678976D01*
X6531833Y-10669452D01*
X6541357Y-10659929D01*
X6541357Y-10678976D01*
X6674690Y-10478976D02*
X6693738Y-10478976D01*
X6712786Y-10488500D01*
X6722309Y-10498024D01*
X6731833Y-10517071D01*
X6741357Y-10555167D01*
X6741357Y-10602786D01*
X6731833Y-10640881D01*
X6722309Y-10659929D01*
X6712786Y-10669452D01*
X6693738Y-10678976D01*
X6674690Y-10678976D01*
X6655643Y-10669452D01*
X6646119Y-10659929D01*
X6636595Y-10640881D01*
X6627071Y-10602786D01*
X6627071Y-10555167D01*
X6636595Y-10517071D01*
X6646119Y-10498024D01*
X6655643Y-10488500D01*
X6674690Y-10478976D01*
X6912786Y-10545643D02*
X6912786Y-10678976D01*
X6865167Y-10469452D02*
X6817548Y-10612310D01*
X6941357Y-10612310D01*
X6998500Y-10478976D02*
X7122309Y-10478976D01*
X7055643Y-10555167D01*
X7084214Y-10555167D01*
X7103262Y-10564690D01*
X7112786Y-10574214D01*
X7122309Y-10593262D01*
X7122309Y-10640881D01*
X7112786Y-10659929D01*
X7103262Y-10669452D01*
X7084214Y-10678976D01*
X7027071Y-10678976D01*
X7008024Y-10669452D01*
X6998500Y-10659929D01*
X7188976Y-10478976D02*
X7312786Y-10478976D01*
X7246119Y-10555167D01*
X7274690Y-10555167D01*
X7293738Y-10564690D01*
X7303262Y-10574214D01*
X7312786Y-10593262D01*
X7312786Y-10640881D01*
X7303262Y-10659929D01*
X7293738Y-10669452D01*
X7274690Y-10678976D01*
X7217548Y-10678976D01*
X7198500Y-10669452D01*
X7188976Y-10659929D01*
X7388976Y-10478976D02*
X7388976Y-10517071D01*
X7465167Y-10478976D02*
X7465167Y-10517071D01*
X7760405Y-10755167D02*
X7750881Y-10745643D01*
X7731833Y-10717071D01*
X7722309Y-10698024D01*
X7712786Y-10669452D01*
X7703262Y-10621833D01*
X7703262Y-10583738D01*
X7712786Y-10536119D01*
X7722309Y-10507548D01*
X7731833Y-10488500D01*
X7750881Y-10459929D01*
X7760405Y-10450405D01*
X7931833Y-10478976D02*
X7836595Y-10478976D01*
X7827071Y-10574214D01*
X7836595Y-10564690D01*
X7855643Y-10555167D01*
X7903262Y-10555167D01*
X7922309Y-10564690D01*
X7931833Y-10574214D01*
X7941357Y-10593262D01*
X7941357Y-10640881D01*
X7931833Y-10659929D01*
X7922309Y-10669452D01*
X7903262Y-10678976D01*
X7855643Y-10678976D01*
X7836595Y-10669452D01*
X7827071Y-10659929D01*
X8036595Y-10678976D02*
X8074690Y-10678976D01*
X8093738Y-10669452D01*
X8103262Y-10659929D01*
X8122309Y-10631357D01*
X8131833Y-10593262D01*
X8131833Y-10517071D01*
X8122309Y-10498024D01*
X8112786Y-10488500D01*
X8093738Y-10478976D01*
X8055643Y-10478976D01*
X8036595Y-10488500D01*
X8027071Y-10498024D01*
X8017548Y-10517071D01*
X8017548Y-10564690D01*
X8027071Y-10583738D01*
X8036595Y-10593262D01*
X8055643Y-10602786D01*
X8093738Y-10602786D01*
X8112786Y-10593262D01*
X8122309Y-10583738D01*
X8131833Y-10564690D01*
X8369928Y-10678976D02*
X8369928Y-10478976D01*
X8455643Y-10678976D02*
X8455643Y-10574214D01*
X8446119Y-10555167D01*
X8427071Y-10545643D01*
X8398500Y-10545643D01*
X8379452Y-10555167D01*
X8369928Y-10564690D01*
X8579452Y-10678976D02*
X8560405Y-10669452D01*
X8550881Y-10659929D01*
X8541357Y-10640881D01*
X8541357Y-10583738D01*
X8550881Y-10564690D01*
X8560405Y-10555167D01*
X8579452Y-10545643D01*
X8608024Y-10545643D01*
X8627071Y-10555167D01*
X8636595Y-10564690D01*
X8646119Y-10583738D01*
X8646119Y-10640881D01*
X8636595Y-10659929D01*
X8627071Y-10669452D01*
X8608024Y-10678976D01*
X8579452Y-10678976D01*
X8760405Y-10678976D02*
X8741357Y-10669452D01*
X8731833Y-10650405D01*
X8731833Y-10478976D01*
X8912786Y-10669452D02*
X8893738Y-10678976D01*
X8855643Y-10678976D01*
X8836595Y-10669452D01*
X8827071Y-10650405D01*
X8827071Y-10574214D01*
X8836595Y-10555167D01*
X8855643Y-10545643D01*
X8893738Y-10545643D01*
X8912786Y-10555167D01*
X8922310Y-10574214D01*
X8922310Y-10593262D01*
X8827071Y-10612310D01*
X8998500Y-10669452D02*
X9017548Y-10678976D01*
X9055643Y-10678976D01*
X9074690Y-10669452D01*
X9084214Y-10650405D01*
X9084214Y-10640881D01*
X9074690Y-10621833D01*
X9055643Y-10612310D01*
X9027071Y-10612310D01*
X9008024Y-10602786D01*
X8998500Y-10583738D01*
X8998500Y-10574214D01*
X9008024Y-10555167D01*
X9027071Y-10545643D01*
X9055643Y-10545643D01*
X9074690Y-10555167D01*
X9150881Y-10755167D02*
X9160405Y-10745643D01*
X9179452Y-10717071D01*
X9188976Y-10698024D01*
X9198500Y-10669452D01*
X9208024Y-10621833D01*
X9208024Y-10583738D01*
X9198500Y-10536119D01*
X9188976Y-10507548D01*
X9179452Y-10488500D01*
X9160405Y-10459929D01*
X9150881Y-10450405D01*
X3988500Y-10752500D02*
X4188500Y-10952500D01*
X4188500Y-10752500D02*
X3988500Y-10952500D01*
X4188500Y-10852500D02*
G75*
G03*
X4188500Y-10852500I-100000J0D01*
G01*
X4436595Y-10762024D02*
X4446119Y-10752500D01*
X4465167Y-10742976D01*
X4512786Y-10742976D01*
X4531833Y-10752500D01*
X4541357Y-10762024D01*
X4550881Y-10781071D01*
X4550881Y-10800119D01*
X4541357Y-10828690D01*
X4427071Y-10942976D01*
X4550881Y-10942976D01*
X4636595Y-10923929D02*
X4646119Y-10933452D01*
X4636595Y-10942976D01*
X4627071Y-10933452D01*
X4636595Y-10923929D01*
X4636595Y-10942976D01*
X4769929Y-10742976D02*
X4788976Y-10742976D01*
X4808024Y-10752500D01*
X4817548Y-10762024D01*
X4827071Y-10781071D01*
X4836595Y-10819167D01*
X4836595Y-10866786D01*
X4827071Y-10904881D01*
X4817548Y-10923929D01*
X4808024Y-10933452D01*
X4788976Y-10942976D01*
X4769929Y-10942976D01*
X4750881Y-10933452D01*
X4741357Y-10923929D01*
X4731833Y-10904881D01*
X4722310Y-10866786D01*
X4722310Y-10819167D01*
X4731833Y-10781071D01*
X4741357Y-10762024D01*
X4750881Y-10752500D01*
X4769929Y-10742976D01*
X4960405Y-10742976D02*
X4979452Y-10742976D01*
X4998500Y-10752500D01*
X5008024Y-10762024D01*
X5017548Y-10781071D01*
X5027071Y-10819167D01*
X5027071Y-10866786D01*
X5017548Y-10904881D01*
X5008024Y-10923929D01*
X4998500Y-10933452D01*
X4979452Y-10942976D01*
X4960405Y-10942976D01*
X4941357Y-10933452D01*
X4931833Y-10923929D01*
X4922310Y-10904881D01*
X4912786Y-10866786D01*
X4912786Y-10819167D01*
X4922310Y-10781071D01*
X4931833Y-10762024D01*
X4941357Y-10752500D01*
X4960405Y-10742976D01*
X5150881Y-10742976D02*
X5169929Y-10742976D01*
X5188976Y-10752500D01*
X5198500Y-10762024D01*
X5208024Y-10781071D01*
X5217548Y-10819167D01*
X5217548Y-10866786D01*
X5208024Y-10904881D01*
X5198500Y-10923929D01*
X5188976Y-10933452D01*
X5169929Y-10942976D01*
X5150881Y-10942976D01*
X5131833Y-10933452D01*
X5122310Y-10923929D01*
X5112786Y-10904881D01*
X5103262Y-10866786D01*
X5103262Y-10819167D01*
X5112786Y-10781071D01*
X5122310Y-10762024D01*
X5131833Y-10752500D01*
X5150881Y-10742976D01*
X5303262Y-10942976D02*
X5303262Y-10809643D01*
X5303262Y-10828690D02*
X5312786Y-10819167D01*
X5331833Y-10809643D01*
X5360405Y-10809643D01*
X5379452Y-10819167D01*
X5388976Y-10838214D01*
X5388976Y-10942976D01*
X5388976Y-10838214D02*
X5398500Y-10819167D01*
X5417548Y-10809643D01*
X5446119Y-10809643D01*
X5465167Y-10819167D01*
X5474690Y-10838214D01*
X5474690Y-10942976D01*
X5569929Y-10942976D02*
X5569929Y-10809643D01*
X5569929Y-10828690D02*
X5579452Y-10819167D01*
X5598500Y-10809643D01*
X5627071Y-10809643D01*
X5646119Y-10819167D01*
X5655643Y-10838214D01*
X5655643Y-10942976D01*
X5655643Y-10838214D02*
X5665167Y-10819167D01*
X5684214Y-10809643D01*
X5712786Y-10809643D01*
X5731833Y-10819167D01*
X5741357Y-10838214D01*
X5741357Y-10942976D01*
X6131833Y-10733452D02*
X5960405Y-10990595D01*
X6388976Y-10742976D02*
X6408024Y-10742976D01*
X6427071Y-10752500D01*
X6436595Y-10762024D01*
X6446119Y-10781071D01*
X6455643Y-10819167D01*
X6455643Y-10866786D01*
X6446119Y-10904881D01*
X6436595Y-10923929D01*
X6427071Y-10933452D01*
X6408024Y-10942976D01*
X6388976Y-10942976D01*
X6369928Y-10933452D01*
X6360405Y-10923929D01*
X6350881Y-10904881D01*
X6341357Y-10866786D01*
X6341357Y-10819167D01*
X6350881Y-10781071D01*
X6360405Y-10762024D01*
X6369928Y-10752500D01*
X6388976Y-10742976D01*
X6541357Y-10923929D02*
X6550881Y-10933452D01*
X6541357Y-10942976D01*
X6531833Y-10933452D01*
X6541357Y-10923929D01*
X6541357Y-10942976D01*
X6674690Y-10742976D02*
X6693738Y-10742976D01*
X6712786Y-10752500D01*
X6722309Y-10762024D01*
X6731833Y-10781071D01*
X6741357Y-10819167D01*
X6741357Y-10866786D01*
X6731833Y-10904881D01*
X6722309Y-10923929D01*
X6712786Y-10933452D01*
X6693738Y-10942976D01*
X6674690Y-10942976D01*
X6655643Y-10933452D01*
X6646119Y-10923929D01*
X6636595Y-10904881D01*
X6627071Y-10866786D01*
X6627071Y-10819167D01*
X6636595Y-10781071D01*
X6646119Y-10762024D01*
X6655643Y-10752500D01*
X6674690Y-10742976D01*
X6808024Y-10742976D02*
X6941357Y-10742976D01*
X6855643Y-10942976D01*
X7046119Y-10828690D02*
X7027071Y-10819167D01*
X7017548Y-10809643D01*
X7008024Y-10790595D01*
X7008024Y-10781071D01*
X7017548Y-10762024D01*
X7027071Y-10752500D01*
X7046119Y-10742976D01*
X7084214Y-10742976D01*
X7103262Y-10752500D01*
X7112786Y-10762024D01*
X7122309Y-10781071D01*
X7122309Y-10790595D01*
X7112786Y-10809643D01*
X7103262Y-10819167D01*
X7084214Y-10828690D01*
X7046119Y-10828690D01*
X7027071Y-10838214D01*
X7017548Y-10847738D01*
X7008024Y-10866786D01*
X7008024Y-10904881D01*
X7017548Y-10923929D01*
X7027071Y-10933452D01*
X7046119Y-10942976D01*
X7084214Y-10942976D01*
X7103262Y-10933452D01*
X7112786Y-10923929D01*
X7122309Y-10904881D01*
X7122309Y-10866786D01*
X7112786Y-10847738D01*
X7103262Y-10838214D01*
X7084214Y-10828690D01*
X7188976Y-10742976D02*
X7322309Y-10742976D01*
X7236595Y-10942976D01*
X7388976Y-10742976D02*
X7388976Y-10781071D01*
X7465167Y-10742976D02*
X7465167Y-10781071D01*
X7760405Y-11019167D02*
X7750881Y-11009643D01*
X7731833Y-10981071D01*
X7722309Y-10962024D01*
X7712786Y-10933452D01*
X7703262Y-10885833D01*
X7703262Y-10847738D01*
X7712786Y-10800119D01*
X7722309Y-10771548D01*
X7731833Y-10752500D01*
X7750881Y-10723929D01*
X7760405Y-10714405D01*
X7922309Y-10809643D02*
X7922309Y-10942976D01*
X7874690Y-10733452D02*
X7827071Y-10876310D01*
X7950881Y-10876310D01*
X8179452Y-10942976D02*
X8179452Y-10742976D01*
X8265167Y-10942976D02*
X8265167Y-10838214D01*
X8255643Y-10819167D01*
X8236595Y-10809643D01*
X8208024Y-10809643D01*
X8188976Y-10819167D01*
X8179452Y-10828690D01*
X8388976Y-10942976D02*
X8369928Y-10933452D01*
X8360405Y-10923929D01*
X8350881Y-10904881D01*
X8350881Y-10847738D01*
X8360405Y-10828690D01*
X8369928Y-10819167D01*
X8388976Y-10809643D01*
X8417548Y-10809643D01*
X8436595Y-10819167D01*
X8446119Y-10828690D01*
X8455643Y-10847738D01*
X8455643Y-10904881D01*
X8446119Y-10923929D01*
X8436595Y-10933452D01*
X8417548Y-10942976D01*
X8388976Y-10942976D01*
X8569929Y-10942976D02*
X8550881Y-10933452D01*
X8541357Y-10914405D01*
X8541357Y-10742976D01*
X8722310Y-10933452D02*
X8703262Y-10942976D01*
X8665167Y-10942976D01*
X8646119Y-10933452D01*
X8636595Y-10914405D01*
X8636595Y-10838214D01*
X8646119Y-10819167D01*
X8665167Y-10809643D01*
X8703262Y-10809643D01*
X8722310Y-10819167D01*
X8731833Y-10838214D01*
X8731833Y-10857262D01*
X8636595Y-10876310D01*
X8808024Y-10933452D02*
X8827071Y-10942976D01*
X8865167Y-10942976D01*
X8884214Y-10933452D01*
X8893738Y-10914405D01*
X8893738Y-10904881D01*
X8884214Y-10885833D01*
X8865167Y-10876310D01*
X8836595Y-10876310D01*
X8817548Y-10866786D01*
X8808024Y-10847738D01*
X8808024Y-10838214D01*
X8817548Y-10819167D01*
X8836595Y-10809643D01*
X8865167Y-10809643D01*
X8884214Y-10819167D01*
X8960405Y-11019167D02*
X8969929Y-11009643D01*
X8988976Y-10981071D01*
X8998500Y-10962024D01*
X9008024Y-10933452D01*
X9017548Y-10885833D01*
X9017548Y-10847738D01*
X9008024Y-10800119D01*
X8998500Y-10771548D01*
X8988976Y-10752500D01*
X8969929Y-10723929D01*
X8960405Y-10714405D01*
X3988500Y-11072500D02*
X4188500Y-11272500D01*
X4188500Y-11072500D02*
X3988500Y-11272500D01*
X4088500Y-11072500D02*
X4088500Y-11272500D01*
X3988500Y-11172500D02*
X4188500Y-11172500D01*
X4436595Y-11082024D02*
X4446119Y-11072500D01*
X4465167Y-11062976D01*
X4512786Y-11062976D01*
X4531833Y-11072500D01*
X4541357Y-11082024D01*
X4550881Y-11101071D01*
X4550881Y-11120119D01*
X4541357Y-11148690D01*
X4427071Y-11262976D01*
X4550881Y-11262976D01*
X4636595Y-11243928D02*
X4646119Y-11253452D01*
X4636595Y-11262976D01*
X4627071Y-11253452D01*
X4636595Y-11243928D01*
X4636595Y-11262976D01*
X4712786Y-11062976D02*
X4846119Y-11062976D01*
X4760405Y-11262976D01*
X4960405Y-11062976D02*
X4979452Y-11062976D01*
X4998500Y-11072500D01*
X5008024Y-11082024D01*
X5017548Y-11101071D01*
X5027071Y-11139167D01*
X5027071Y-11186786D01*
X5017548Y-11224881D01*
X5008024Y-11243928D01*
X4998500Y-11253452D01*
X4979452Y-11262976D01*
X4960405Y-11262976D01*
X4941357Y-11253452D01*
X4931833Y-11243928D01*
X4922310Y-11224881D01*
X4912786Y-11186786D01*
X4912786Y-11139167D01*
X4922310Y-11101071D01*
X4931833Y-11082024D01*
X4941357Y-11072500D01*
X4960405Y-11062976D01*
X5150881Y-11062976D02*
X5169929Y-11062976D01*
X5188976Y-11072500D01*
X5198500Y-11082024D01*
X5208024Y-11101071D01*
X5217548Y-11139167D01*
X5217548Y-11186786D01*
X5208024Y-11224881D01*
X5198500Y-11243928D01*
X5188976Y-11253452D01*
X5169929Y-11262976D01*
X5150881Y-11262976D01*
X5131833Y-11253452D01*
X5122310Y-11243928D01*
X5112786Y-11224881D01*
X5103262Y-11186786D01*
X5103262Y-11139167D01*
X5112786Y-11101071D01*
X5122310Y-11082024D01*
X5131833Y-11072500D01*
X5150881Y-11062976D01*
X5303262Y-11262976D02*
X5303262Y-11129643D01*
X5303262Y-11148690D02*
X5312786Y-11139167D01*
X5331833Y-11129643D01*
X5360405Y-11129643D01*
X5379452Y-11139167D01*
X5388976Y-11158214D01*
X5388976Y-11262976D01*
X5388976Y-11158214D02*
X5398500Y-11139167D01*
X5417548Y-11129643D01*
X5446119Y-11129643D01*
X5465167Y-11139167D01*
X5474690Y-11158214D01*
X5474690Y-11262976D01*
X5569929Y-11262976D02*
X5569929Y-11129643D01*
X5569929Y-11148690D02*
X5579452Y-11139167D01*
X5598500Y-11129643D01*
X5627071Y-11129643D01*
X5646119Y-11139167D01*
X5655643Y-11158214D01*
X5655643Y-11262976D01*
X5655643Y-11158214D02*
X5665167Y-11139167D01*
X5684214Y-11129643D01*
X5712786Y-11129643D01*
X5731833Y-11139167D01*
X5741357Y-11158214D01*
X5741357Y-11262976D01*
X6131833Y-11053452D02*
X5960405Y-11310595D01*
X6388976Y-11062976D02*
X6408024Y-11062976D01*
X6427071Y-11072500D01*
X6436595Y-11082024D01*
X6446119Y-11101071D01*
X6455643Y-11139167D01*
X6455643Y-11186786D01*
X6446119Y-11224881D01*
X6436595Y-11243928D01*
X6427071Y-11253452D01*
X6408024Y-11262976D01*
X6388976Y-11262976D01*
X6369928Y-11253452D01*
X6360405Y-11243928D01*
X6350881Y-11224881D01*
X6341357Y-11186786D01*
X6341357Y-11139167D01*
X6350881Y-11101071D01*
X6360405Y-11082024D01*
X6369928Y-11072500D01*
X6388976Y-11062976D01*
X6541357Y-11243928D02*
X6550881Y-11253452D01*
X6541357Y-11262976D01*
X6531833Y-11253452D01*
X6541357Y-11243928D01*
X6541357Y-11262976D01*
X6741357Y-11262976D02*
X6627071Y-11262976D01*
X6684214Y-11262976D02*
X6684214Y-11062976D01*
X6665167Y-11091548D01*
X6646119Y-11110595D01*
X6627071Y-11120119D01*
X6865167Y-11062976D02*
X6884214Y-11062976D01*
X6903262Y-11072500D01*
X6912786Y-11082024D01*
X6922309Y-11101071D01*
X6931833Y-11139167D01*
X6931833Y-11186786D01*
X6922309Y-11224881D01*
X6912786Y-11243928D01*
X6903262Y-11253452D01*
X6884214Y-11262976D01*
X6865167Y-11262976D01*
X6846119Y-11253452D01*
X6836595Y-11243928D01*
X6827071Y-11224881D01*
X6817548Y-11186786D01*
X6817548Y-11139167D01*
X6827071Y-11101071D01*
X6836595Y-11082024D01*
X6846119Y-11072500D01*
X6865167Y-11062976D01*
X7103262Y-11062976D02*
X7065167Y-11062976D01*
X7046119Y-11072500D01*
X7036595Y-11082024D01*
X7017548Y-11110595D01*
X7008024Y-11148690D01*
X7008024Y-11224881D01*
X7017548Y-11243928D01*
X7027071Y-11253452D01*
X7046119Y-11262976D01*
X7084214Y-11262976D01*
X7103262Y-11253452D01*
X7112786Y-11243928D01*
X7122309Y-11224881D01*
X7122309Y-11177262D01*
X7112786Y-11158214D01*
X7103262Y-11148690D01*
X7084214Y-11139167D01*
X7046119Y-11139167D01*
X7027071Y-11148690D01*
X7017548Y-11158214D01*
X7008024Y-11177262D01*
X7188976Y-11062976D02*
X7312786Y-11062976D01*
X7246119Y-11139167D01*
X7274690Y-11139167D01*
X7293738Y-11148690D01*
X7303262Y-11158214D01*
X7312786Y-11177262D01*
X7312786Y-11224881D01*
X7303262Y-11243928D01*
X7293738Y-11253452D01*
X7274690Y-11262976D01*
X7217548Y-11262976D01*
X7198500Y-11253452D01*
X7188976Y-11243928D01*
X7388976Y-11062976D02*
X7388976Y-11101071D01*
X7465167Y-11062976D02*
X7465167Y-11101071D01*
X7760405Y-11339167D02*
X7750881Y-11329643D01*
X7731833Y-11301071D01*
X7722309Y-11282024D01*
X7712786Y-11253452D01*
X7703262Y-11205833D01*
X7703262Y-11167738D01*
X7712786Y-11120119D01*
X7722309Y-11091548D01*
X7731833Y-11072500D01*
X7750881Y-11043929D01*
X7760405Y-11034405D01*
X7827071Y-11082024D02*
X7836595Y-11072500D01*
X7855643Y-11062976D01*
X7903262Y-11062976D01*
X7922309Y-11072500D01*
X7931833Y-11082024D01*
X7941357Y-11101071D01*
X7941357Y-11120119D01*
X7931833Y-11148690D01*
X7817548Y-11262976D01*
X7941357Y-11262976D01*
X8179452Y-11262976D02*
X8179452Y-11062976D01*
X8265167Y-11262976D02*
X8265167Y-11158214D01*
X8255643Y-11139167D01*
X8236595Y-11129643D01*
X8208024Y-11129643D01*
X8188976Y-11139167D01*
X8179452Y-11148690D01*
X8388976Y-11262976D02*
X8369928Y-11253452D01*
X8360405Y-11243928D01*
X8350881Y-11224881D01*
X8350881Y-11167738D01*
X8360405Y-11148690D01*
X8369928Y-11139167D01*
X8388976Y-11129643D01*
X8417548Y-11129643D01*
X8436595Y-11139167D01*
X8446119Y-11148690D01*
X8455643Y-11167738D01*
X8455643Y-11224881D01*
X8446119Y-11243928D01*
X8436595Y-11253452D01*
X8417548Y-11262976D01*
X8388976Y-11262976D01*
X8569929Y-11262976D02*
X8550881Y-11253452D01*
X8541357Y-11234405D01*
X8541357Y-11062976D01*
X8722310Y-11253452D02*
X8703262Y-11262976D01*
X8665167Y-11262976D01*
X8646119Y-11253452D01*
X8636595Y-11234405D01*
X8636595Y-11158214D01*
X8646119Y-11139167D01*
X8665167Y-11129643D01*
X8703262Y-11129643D01*
X8722310Y-11139167D01*
X8731833Y-11158214D01*
X8731833Y-11177262D01*
X8636595Y-11196309D01*
X8808024Y-11253452D02*
X8827071Y-11262976D01*
X8865167Y-11262976D01*
X8884214Y-11253452D01*
X8893738Y-11234405D01*
X8893738Y-11224881D01*
X8884214Y-11205833D01*
X8865167Y-11196309D01*
X8836595Y-11196309D01*
X8817548Y-11186786D01*
X8808024Y-11167738D01*
X8808024Y-11158214D01*
X8817548Y-11139167D01*
X8836595Y-11129643D01*
X8865167Y-11129643D01*
X8884214Y-11139167D01*
X8960405Y-11339167D02*
X8969929Y-11329643D01*
X8988976Y-11301071D01*
X8998500Y-11282024D01*
X9008024Y-11253452D01*
X9017548Y-11205833D01*
X9017548Y-11167738D01*
X9008024Y-11120119D01*
X8998500Y-11091548D01*
X8988976Y-11072500D01*
X8969929Y-11043929D01*
X8960405Y-11034405D01*
X3988500Y-11392500D02*
X4188500Y-11592500D01*
X4188500Y-11392500D02*
X3988500Y-11592500D01*
X4159211Y-11563211D02*
X4159211Y-11421789D01*
X4017789Y-11421789D01*
X4017789Y-11563211D01*
X4159211Y-11563211D01*
X4427071Y-11382976D02*
X4550881Y-11382976D01*
X4484214Y-11459167D01*
X4512786Y-11459167D01*
X4531833Y-11468690D01*
X4541357Y-11478214D01*
X4550881Y-11497262D01*
X4550881Y-11544881D01*
X4541357Y-11563928D01*
X4531833Y-11573452D01*
X4512786Y-11582976D01*
X4455643Y-11582976D01*
X4436595Y-11573452D01*
X4427071Y-11563928D01*
X4636595Y-11563928D02*
X4646119Y-11573452D01*
X4636595Y-11582976D01*
X4627071Y-11573452D01*
X4636595Y-11563928D01*
X4636595Y-11582976D01*
X4722310Y-11402024D02*
X4731833Y-11392500D01*
X4750881Y-11382976D01*
X4798500Y-11382976D01*
X4817548Y-11392500D01*
X4827071Y-11402024D01*
X4836595Y-11421071D01*
X4836595Y-11440119D01*
X4827071Y-11468690D01*
X4712786Y-11582976D01*
X4836595Y-11582976D01*
X4960405Y-11382976D02*
X4979452Y-11382976D01*
X4998500Y-11392500D01*
X5008024Y-11402024D01*
X5017548Y-11421071D01*
X5027071Y-11459167D01*
X5027071Y-11506786D01*
X5017548Y-11544881D01*
X5008024Y-11563928D01*
X4998500Y-11573452D01*
X4979452Y-11582976D01*
X4960405Y-11582976D01*
X4941357Y-11573452D01*
X4931833Y-11563928D01*
X4922310Y-11544881D01*
X4912786Y-11506786D01*
X4912786Y-11459167D01*
X4922310Y-11421071D01*
X4931833Y-11402024D01*
X4941357Y-11392500D01*
X4960405Y-11382976D01*
X5150881Y-11382976D02*
X5169929Y-11382976D01*
X5188976Y-11392500D01*
X5198500Y-11402024D01*
X5208024Y-11421071D01*
X5217548Y-11459167D01*
X5217548Y-11506786D01*
X5208024Y-11544881D01*
X5198500Y-11563928D01*
X5188976Y-11573452D01*
X5169929Y-11582976D01*
X5150881Y-11582976D01*
X5131833Y-11573452D01*
X5122310Y-11563928D01*
X5112786Y-11544881D01*
X5103262Y-11506786D01*
X5103262Y-11459167D01*
X5112786Y-11421071D01*
X5122310Y-11402024D01*
X5131833Y-11392500D01*
X5150881Y-11382976D01*
X5303262Y-11582976D02*
X5303262Y-11449643D01*
X5303262Y-11468690D02*
X5312786Y-11459167D01*
X5331833Y-11449643D01*
X5360405Y-11449643D01*
X5379452Y-11459167D01*
X5388976Y-11478214D01*
X5388976Y-11582976D01*
X5388976Y-11478214D02*
X5398500Y-11459167D01*
X5417548Y-11449643D01*
X5446119Y-11449643D01*
X5465167Y-11459167D01*
X5474690Y-11478214D01*
X5474690Y-11582976D01*
X5569929Y-11582976D02*
X5569929Y-11449643D01*
X5569929Y-11468690D02*
X5579452Y-11459167D01*
X5598500Y-11449643D01*
X5627071Y-11449643D01*
X5646119Y-11459167D01*
X5655643Y-11478214D01*
X5655643Y-11582976D01*
X5655643Y-11478214D02*
X5665167Y-11459167D01*
X5684214Y-11449643D01*
X5712786Y-11449643D01*
X5731833Y-11459167D01*
X5741357Y-11478214D01*
X5741357Y-11582976D01*
X6131833Y-11373452D02*
X5960405Y-11630595D01*
X6388976Y-11382976D02*
X6408024Y-11382976D01*
X6427071Y-11392500D01*
X6436595Y-11402024D01*
X6446119Y-11421071D01*
X6455643Y-11459167D01*
X6455643Y-11506786D01*
X6446119Y-11544881D01*
X6436595Y-11563928D01*
X6427071Y-11573452D01*
X6408024Y-11582976D01*
X6388976Y-11582976D01*
X6369928Y-11573452D01*
X6360405Y-11563928D01*
X6350881Y-11544881D01*
X6341357Y-11506786D01*
X6341357Y-11459167D01*
X6350881Y-11421071D01*
X6360405Y-11402024D01*
X6369928Y-11392500D01*
X6388976Y-11382976D01*
X6541357Y-11563928D02*
X6550881Y-11573452D01*
X6541357Y-11582976D01*
X6531833Y-11573452D01*
X6541357Y-11563928D01*
X6541357Y-11582976D01*
X6741357Y-11582976D02*
X6627071Y-11582976D01*
X6684214Y-11582976D02*
X6684214Y-11382976D01*
X6665167Y-11411548D01*
X6646119Y-11430595D01*
X6627071Y-11440119D01*
X6817548Y-11402024D02*
X6827071Y-11392500D01*
X6846119Y-11382976D01*
X6893738Y-11382976D01*
X6912786Y-11392500D01*
X6922309Y-11402024D01*
X6931833Y-11421071D01*
X6931833Y-11440119D01*
X6922309Y-11468690D01*
X6808024Y-11582976D01*
X6931833Y-11582976D01*
X7103262Y-11382976D02*
X7065167Y-11382976D01*
X7046119Y-11392500D01*
X7036595Y-11402024D01*
X7017548Y-11430595D01*
X7008024Y-11468690D01*
X7008024Y-11544881D01*
X7017548Y-11563928D01*
X7027071Y-11573452D01*
X7046119Y-11582976D01*
X7084214Y-11582976D01*
X7103262Y-11573452D01*
X7112786Y-11563928D01*
X7122309Y-11544881D01*
X7122309Y-11497262D01*
X7112786Y-11478214D01*
X7103262Y-11468690D01*
X7084214Y-11459167D01*
X7046119Y-11459167D01*
X7027071Y-11468690D01*
X7017548Y-11478214D01*
X7008024Y-11497262D01*
X7246119Y-11382976D02*
X7265167Y-11382976D01*
X7284214Y-11392500D01*
X7293738Y-11402024D01*
X7303262Y-11421071D01*
X7312786Y-11459167D01*
X7312786Y-11506786D01*
X7303262Y-11544881D01*
X7293738Y-11563928D01*
X7284214Y-11573452D01*
X7265167Y-11582976D01*
X7246119Y-11582976D01*
X7227071Y-11573452D01*
X7217548Y-11563928D01*
X7208024Y-11544881D01*
X7198500Y-11506786D01*
X7198500Y-11459167D01*
X7208024Y-11421071D01*
X7217548Y-11402024D01*
X7227071Y-11392500D01*
X7246119Y-11382976D01*
X7388976Y-11382976D02*
X7388976Y-11421071D01*
X7465167Y-11382976D02*
X7465167Y-11421071D01*
X7760405Y-11659167D02*
X7750881Y-11649643D01*
X7731833Y-11621071D01*
X7722309Y-11602024D01*
X7712786Y-11573452D01*
X7703262Y-11525833D01*
X7703262Y-11487738D01*
X7712786Y-11440119D01*
X7722309Y-11411548D01*
X7731833Y-11392500D01*
X7750881Y-11363928D01*
X7760405Y-11354405D01*
X7922309Y-11449643D02*
X7922309Y-11582976D01*
X7874690Y-11373452D02*
X7827071Y-11516309D01*
X7950881Y-11516309D01*
X8179452Y-11582976D02*
X8179452Y-11382976D01*
X8265167Y-11582976D02*
X8265167Y-11478214D01*
X8255643Y-11459167D01*
X8236595Y-11449643D01*
X8208024Y-11449643D01*
X8188976Y-11459167D01*
X8179452Y-11468690D01*
X8388976Y-11582976D02*
X8369928Y-11573452D01*
X8360405Y-11563928D01*
X8350881Y-11544881D01*
X8350881Y-11487738D01*
X8360405Y-11468690D01*
X8369928Y-11459167D01*
X8388976Y-11449643D01*
X8417548Y-11449643D01*
X8436595Y-11459167D01*
X8446119Y-11468690D01*
X8455643Y-11487738D01*
X8455643Y-11544881D01*
X8446119Y-11563928D01*
X8436595Y-11573452D01*
X8417548Y-11582976D01*
X8388976Y-11582976D01*
X8569929Y-11582976D02*
X8550881Y-11573452D01*
X8541357Y-11554405D01*
X8541357Y-11382976D01*
X8722310Y-11573452D02*
X8703262Y-11582976D01*
X8665167Y-11582976D01*
X8646119Y-11573452D01*
X8636595Y-11554405D01*
X8636595Y-11478214D01*
X8646119Y-11459167D01*
X8665167Y-11449643D01*
X8703262Y-11449643D01*
X8722310Y-11459167D01*
X8731833Y-11478214D01*
X8731833Y-11497262D01*
X8636595Y-11516309D01*
X8808024Y-11573452D02*
X8827071Y-11582976D01*
X8865167Y-11582976D01*
X8884214Y-11573452D01*
X8893738Y-11554405D01*
X8893738Y-11544881D01*
X8884214Y-11525833D01*
X8865167Y-11516309D01*
X8836595Y-11516309D01*
X8817548Y-11506786D01*
X8808024Y-11487738D01*
X8808024Y-11478214D01*
X8817548Y-11459167D01*
X8836595Y-11449643D01*
X8865167Y-11449643D01*
X8884214Y-11459167D01*
X8960405Y-11659167D02*
X8969929Y-11649643D01*
X8988976Y-11621071D01*
X8998500Y-11602024D01*
X9008024Y-11573452D01*
X9017548Y-11525833D01*
X9017548Y-11487738D01*
X9008024Y-11440119D01*
X8998500Y-11411548D01*
X8988976Y-11392500D01*
X8969929Y-11363928D01*
X8960405Y-11354405D01*
M02*
