%TF.GenerationSoftware,KiCad,Pcbnew,7.0.6*%
%TF.CreationDate,2023-08-10T15:58:56-04:00*%
%TF.ProjectId,rrc_pcb3,7272635f-7063-4623-932e-6b696361645f,rev?*%
%TF.SameCoordinates,Original*%
%TF.FileFunction,Drillmap*%
%TF.FilePolarity,Positive*%
%FSLAX45Y45*%
G04 Gerber Fmt 4.5, Leading zero omitted, Abs format (unit mm)*
G04 Created by KiCad (PCBNEW 7.0.6) date 2023-08-10 15:58:56*
%MOMM*%
%LPD*%
G01*
G04 APERTURE LIST*
%ADD10C,0.050000*%
%ADD11C,0.200000*%
%ADD12C,0.400000*%
G04 APERTURE END LIST*
D10*
X4191000Y-2065671D02*
X18034000Y-2065671D01*
X18034000Y-8890000D01*
X4191000Y-8890000D01*
X4191000Y-2065671D01*
D11*
X8190000Y-4890000D02*
X8390000Y-5090000D01*
X8390000Y-4890000D02*
X8190000Y-5090000D01*
X8190000Y-8626000D02*
X8390000Y-8826000D01*
X8390000Y-8626000D02*
X8190000Y-8826000D01*
X12693425Y-3431692D02*
X12893425Y-3631692D01*
X12893425Y-3431692D02*
X12693425Y-3631692D01*
X14240000Y-4890000D02*
X14440000Y-5090000D01*
X14440000Y-4890000D02*
X14240000Y-5090000D01*
X14240000Y-8626000D02*
X14440000Y-8826000D01*
X14440000Y-8626000D02*
X14240000Y-8826000D01*
X14551480Y-3457183D02*
X14751480Y-3657183D01*
X14751480Y-3457183D02*
X14551480Y-3657183D01*
D12*
X4826360Y-5992423D02*
G75*
G03*
X4826360Y-5992423I-200000J0D01*
G01*
X4826360Y-7897423D02*
G75*
G03*
X4826360Y-7897423I-200000J0D01*
G01*
X6814869Y-5992423D02*
G75*
G03*
X6814869Y-5992423I-200000J0D01*
G01*
X6814869Y-7897423D02*
G75*
G03*
X6814869Y-7897423I-200000J0D01*
G01*
D11*
X4449277Y-9203984D02*
X4449277Y-9003984D01*
X4449277Y-9003984D02*
X4496896Y-9003984D01*
X4496896Y-9003984D02*
X4525467Y-9013508D01*
X4525467Y-9013508D02*
X4544515Y-9032555D01*
X4544515Y-9032555D02*
X4554039Y-9051603D01*
X4554039Y-9051603D02*
X4563563Y-9089698D01*
X4563563Y-9089698D02*
X4563563Y-9118270D01*
X4563563Y-9118270D02*
X4554039Y-9156365D01*
X4554039Y-9156365D02*
X4544515Y-9175412D01*
X4544515Y-9175412D02*
X4525467Y-9194460D01*
X4525467Y-9194460D02*
X4496896Y-9203984D01*
X4496896Y-9203984D02*
X4449277Y-9203984D01*
X4649277Y-9203984D02*
X4649277Y-9070650D01*
X4649277Y-9108746D02*
X4658801Y-9089698D01*
X4658801Y-9089698D02*
X4668324Y-9080174D01*
X4668324Y-9080174D02*
X4687372Y-9070650D01*
X4687372Y-9070650D02*
X4706420Y-9070650D01*
X4773086Y-9203984D02*
X4773086Y-9070650D01*
X4773086Y-9003984D02*
X4763563Y-9013508D01*
X4763563Y-9013508D02*
X4773086Y-9023031D01*
X4773086Y-9023031D02*
X4782610Y-9013508D01*
X4782610Y-9013508D02*
X4773086Y-9003984D01*
X4773086Y-9003984D02*
X4773086Y-9023031D01*
X4896896Y-9203984D02*
X4877848Y-9194460D01*
X4877848Y-9194460D02*
X4868324Y-9175412D01*
X4868324Y-9175412D02*
X4868324Y-9003984D01*
X5001658Y-9203984D02*
X4982610Y-9194460D01*
X4982610Y-9194460D02*
X4973086Y-9175412D01*
X4973086Y-9175412D02*
X4973086Y-9003984D01*
X5230229Y-9203984D02*
X5230229Y-9003984D01*
X5230229Y-9003984D02*
X5296896Y-9146841D01*
X5296896Y-9146841D02*
X5363563Y-9003984D01*
X5363563Y-9003984D02*
X5363563Y-9203984D01*
X5544515Y-9203984D02*
X5544515Y-9099222D01*
X5544515Y-9099222D02*
X5534991Y-9080174D01*
X5534991Y-9080174D02*
X5515944Y-9070650D01*
X5515944Y-9070650D02*
X5477848Y-9070650D01*
X5477848Y-9070650D02*
X5458801Y-9080174D01*
X5544515Y-9194460D02*
X5525467Y-9203984D01*
X5525467Y-9203984D02*
X5477848Y-9203984D01*
X5477848Y-9203984D02*
X5458801Y-9194460D01*
X5458801Y-9194460D02*
X5449277Y-9175412D01*
X5449277Y-9175412D02*
X5449277Y-9156365D01*
X5449277Y-9156365D02*
X5458801Y-9137317D01*
X5458801Y-9137317D02*
X5477848Y-9127793D01*
X5477848Y-9127793D02*
X5525467Y-9127793D01*
X5525467Y-9127793D02*
X5544515Y-9118270D01*
X5639753Y-9070650D02*
X5639753Y-9270650D01*
X5639753Y-9080174D02*
X5658801Y-9070650D01*
X5658801Y-9070650D02*
X5696896Y-9070650D01*
X5696896Y-9070650D02*
X5715943Y-9080174D01*
X5715943Y-9080174D02*
X5725467Y-9089698D01*
X5725467Y-9089698D02*
X5734991Y-9108746D01*
X5734991Y-9108746D02*
X5734991Y-9165889D01*
X5734991Y-9165889D02*
X5725467Y-9184936D01*
X5725467Y-9184936D02*
X5715943Y-9194460D01*
X5715943Y-9194460D02*
X5696896Y-9203984D01*
X5696896Y-9203984D02*
X5658801Y-9203984D01*
X5658801Y-9203984D02*
X5639753Y-9194460D01*
X5820705Y-9184936D02*
X5830229Y-9194460D01*
X5830229Y-9194460D02*
X5820705Y-9203984D01*
X5820705Y-9203984D02*
X5811182Y-9194460D01*
X5811182Y-9194460D02*
X5820705Y-9184936D01*
X5820705Y-9184936D02*
X5820705Y-9203984D01*
X5820705Y-9080174D02*
X5830229Y-9089698D01*
X5830229Y-9089698D02*
X5820705Y-9099222D01*
X5820705Y-9099222D02*
X5811182Y-9089698D01*
X5811182Y-9089698D02*
X5820705Y-9080174D01*
X5820705Y-9080174D02*
X5820705Y-9099222D01*
X3988500Y-9432500D02*
X4188500Y-9632500D01*
X4188500Y-9432500D02*
X3988500Y-9632500D01*
X4439753Y-9443031D02*
X4449277Y-9433508D01*
X4449277Y-9433508D02*
X4468324Y-9423984D01*
X4468324Y-9423984D02*
X4515944Y-9423984D01*
X4515944Y-9423984D02*
X4534991Y-9433508D01*
X4534991Y-9433508D02*
X4544515Y-9443031D01*
X4544515Y-9443031D02*
X4554039Y-9462079D01*
X4554039Y-9462079D02*
X4554039Y-9481127D01*
X4554039Y-9481127D02*
X4544515Y-9509698D01*
X4544515Y-9509698D02*
X4430229Y-9623984D01*
X4430229Y-9623984D02*
X4554039Y-9623984D01*
X4639753Y-9604936D02*
X4649277Y-9614460D01*
X4649277Y-9614460D02*
X4639753Y-9623984D01*
X4639753Y-9623984D02*
X4630229Y-9614460D01*
X4630229Y-9614460D02*
X4639753Y-9604936D01*
X4639753Y-9604936D02*
X4639753Y-9623984D01*
X4773086Y-9423984D02*
X4792134Y-9423984D01*
X4792134Y-9423984D02*
X4811182Y-9433508D01*
X4811182Y-9433508D02*
X4820705Y-9443031D01*
X4820705Y-9443031D02*
X4830229Y-9462079D01*
X4830229Y-9462079D02*
X4839753Y-9500174D01*
X4839753Y-9500174D02*
X4839753Y-9547793D01*
X4839753Y-9547793D02*
X4830229Y-9585889D01*
X4830229Y-9585889D02*
X4820705Y-9604936D01*
X4820705Y-9604936D02*
X4811182Y-9614460D01*
X4811182Y-9614460D02*
X4792134Y-9623984D01*
X4792134Y-9623984D02*
X4773086Y-9623984D01*
X4773086Y-9623984D02*
X4754039Y-9614460D01*
X4754039Y-9614460D02*
X4744515Y-9604936D01*
X4744515Y-9604936D02*
X4734991Y-9585889D01*
X4734991Y-9585889D02*
X4725467Y-9547793D01*
X4725467Y-9547793D02*
X4725467Y-9500174D01*
X4725467Y-9500174D02*
X4734991Y-9462079D01*
X4734991Y-9462079D02*
X4744515Y-9443031D01*
X4744515Y-9443031D02*
X4754039Y-9433508D01*
X4754039Y-9433508D02*
X4773086Y-9423984D01*
X4963563Y-9423984D02*
X4982610Y-9423984D01*
X4982610Y-9423984D02*
X5001658Y-9433508D01*
X5001658Y-9433508D02*
X5011182Y-9443031D01*
X5011182Y-9443031D02*
X5020705Y-9462079D01*
X5020705Y-9462079D02*
X5030229Y-9500174D01*
X5030229Y-9500174D02*
X5030229Y-9547793D01*
X5030229Y-9547793D02*
X5020705Y-9585889D01*
X5020705Y-9585889D02*
X5011182Y-9604936D01*
X5011182Y-9604936D02*
X5001658Y-9614460D01*
X5001658Y-9614460D02*
X4982610Y-9623984D01*
X4982610Y-9623984D02*
X4963563Y-9623984D01*
X4963563Y-9623984D02*
X4944515Y-9614460D01*
X4944515Y-9614460D02*
X4934991Y-9604936D01*
X4934991Y-9604936D02*
X4925467Y-9585889D01*
X4925467Y-9585889D02*
X4915944Y-9547793D01*
X4915944Y-9547793D02*
X4915944Y-9500174D01*
X4915944Y-9500174D02*
X4925467Y-9462079D01*
X4925467Y-9462079D02*
X4934991Y-9443031D01*
X4934991Y-9443031D02*
X4944515Y-9433508D01*
X4944515Y-9433508D02*
X4963563Y-9423984D01*
X5154039Y-9423984D02*
X5173086Y-9423984D01*
X5173086Y-9423984D02*
X5192134Y-9433508D01*
X5192134Y-9433508D02*
X5201658Y-9443031D01*
X5201658Y-9443031D02*
X5211182Y-9462079D01*
X5211182Y-9462079D02*
X5220705Y-9500174D01*
X5220705Y-9500174D02*
X5220705Y-9547793D01*
X5220705Y-9547793D02*
X5211182Y-9585889D01*
X5211182Y-9585889D02*
X5201658Y-9604936D01*
X5201658Y-9604936D02*
X5192134Y-9614460D01*
X5192134Y-9614460D02*
X5173086Y-9623984D01*
X5173086Y-9623984D02*
X5154039Y-9623984D01*
X5154039Y-9623984D02*
X5134991Y-9614460D01*
X5134991Y-9614460D02*
X5125467Y-9604936D01*
X5125467Y-9604936D02*
X5115944Y-9585889D01*
X5115944Y-9585889D02*
X5106420Y-9547793D01*
X5106420Y-9547793D02*
X5106420Y-9500174D01*
X5106420Y-9500174D02*
X5115944Y-9462079D01*
X5115944Y-9462079D02*
X5125467Y-9443031D01*
X5125467Y-9443031D02*
X5134991Y-9433508D01*
X5134991Y-9433508D02*
X5154039Y-9423984D01*
X5306420Y-9623984D02*
X5306420Y-9490650D01*
X5306420Y-9509698D02*
X5315944Y-9500174D01*
X5315944Y-9500174D02*
X5334991Y-9490650D01*
X5334991Y-9490650D02*
X5363563Y-9490650D01*
X5363563Y-9490650D02*
X5382610Y-9500174D01*
X5382610Y-9500174D02*
X5392134Y-9519222D01*
X5392134Y-9519222D02*
X5392134Y-9623984D01*
X5392134Y-9519222D02*
X5401658Y-9500174D01*
X5401658Y-9500174D02*
X5420705Y-9490650D01*
X5420705Y-9490650D02*
X5449277Y-9490650D01*
X5449277Y-9490650D02*
X5468325Y-9500174D01*
X5468325Y-9500174D02*
X5477848Y-9519222D01*
X5477848Y-9519222D02*
X5477848Y-9623984D01*
X5573086Y-9623984D02*
X5573086Y-9490650D01*
X5573086Y-9509698D02*
X5582610Y-9500174D01*
X5582610Y-9500174D02*
X5601658Y-9490650D01*
X5601658Y-9490650D02*
X5630229Y-9490650D01*
X5630229Y-9490650D02*
X5649277Y-9500174D01*
X5649277Y-9500174D02*
X5658801Y-9519222D01*
X5658801Y-9519222D02*
X5658801Y-9623984D01*
X5658801Y-9519222D02*
X5668324Y-9500174D01*
X5668324Y-9500174D02*
X5687372Y-9490650D01*
X5687372Y-9490650D02*
X5715943Y-9490650D01*
X5715943Y-9490650D02*
X5734991Y-9500174D01*
X5734991Y-9500174D02*
X5744515Y-9519222D01*
X5744515Y-9519222D02*
X5744515Y-9623984D01*
X6134991Y-9414460D02*
X5963563Y-9671603D01*
X6392134Y-9423984D02*
X6411182Y-9423984D01*
X6411182Y-9423984D02*
X6430229Y-9433508D01*
X6430229Y-9433508D02*
X6439753Y-9443031D01*
X6439753Y-9443031D02*
X6449277Y-9462079D01*
X6449277Y-9462079D02*
X6458801Y-9500174D01*
X6458801Y-9500174D02*
X6458801Y-9547793D01*
X6458801Y-9547793D02*
X6449277Y-9585889D01*
X6449277Y-9585889D02*
X6439753Y-9604936D01*
X6439753Y-9604936D02*
X6430229Y-9614460D01*
X6430229Y-9614460D02*
X6411182Y-9623984D01*
X6411182Y-9623984D02*
X6392134Y-9623984D01*
X6392134Y-9623984D02*
X6373086Y-9614460D01*
X6373086Y-9614460D02*
X6363563Y-9604936D01*
X6363563Y-9604936D02*
X6354039Y-9585889D01*
X6354039Y-9585889D02*
X6344515Y-9547793D01*
X6344515Y-9547793D02*
X6344515Y-9500174D01*
X6344515Y-9500174D02*
X6354039Y-9462079D01*
X6354039Y-9462079D02*
X6363563Y-9443031D01*
X6363563Y-9443031D02*
X6373086Y-9433508D01*
X6373086Y-9433508D02*
X6392134Y-9423984D01*
X6544515Y-9604936D02*
X6554039Y-9614460D01*
X6554039Y-9614460D02*
X6544515Y-9623984D01*
X6544515Y-9623984D02*
X6534991Y-9614460D01*
X6534991Y-9614460D02*
X6544515Y-9604936D01*
X6544515Y-9604936D02*
X6544515Y-9623984D01*
X6677848Y-9423984D02*
X6696896Y-9423984D01*
X6696896Y-9423984D02*
X6715944Y-9433508D01*
X6715944Y-9433508D02*
X6725467Y-9443031D01*
X6725467Y-9443031D02*
X6734991Y-9462079D01*
X6734991Y-9462079D02*
X6744515Y-9500174D01*
X6744515Y-9500174D02*
X6744515Y-9547793D01*
X6744515Y-9547793D02*
X6734991Y-9585889D01*
X6734991Y-9585889D02*
X6725467Y-9604936D01*
X6725467Y-9604936D02*
X6715944Y-9614460D01*
X6715944Y-9614460D02*
X6696896Y-9623984D01*
X6696896Y-9623984D02*
X6677848Y-9623984D01*
X6677848Y-9623984D02*
X6658801Y-9614460D01*
X6658801Y-9614460D02*
X6649277Y-9604936D01*
X6649277Y-9604936D02*
X6639753Y-9585889D01*
X6639753Y-9585889D02*
X6630229Y-9547793D01*
X6630229Y-9547793D02*
X6630229Y-9500174D01*
X6630229Y-9500174D02*
X6639753Y-9462079D01*
X6639753Y-9462079D02*
X6649277Y-9443031D01*
X6649277Y-9443031D02*
X6658801Y-9433508D01*
X6658801Y-9433508D02*
X6677848Y-9423984D01*
X6811182Y-9423984D02*
X6944515Y-9423984D01*
X6944515Y-9423984D02*
X6858801Y-9623984D01*
X7049277Y-9509698D02*
X7030229Y-9500174D01*
X7030229Y-9500174D02*
X7020706Y-9490650D01*
X7020706Y-9490650D02*
X7011182Y-9471603D01*
X7011182Y-9471603D02*
X7011182Y-9462079D01*
X7011182Y-9462079D02*
X7020706Y-9443031D01*
X7020706Y-9443031D02*
X7030229Y-9433508D01*
X7030229Y-9433508D02*
X7049277Y-9423984D01*
X7049277Y-9423984D02*
X7087372Y-9423984D01*
X7087372Y-9423984D02*
X7106420Y-9433508D01*
X7106420Y-9433508D02*
X7115944Y-9443031D01*
X7115944Y-9443031D02*
X7125467Y-9462079D01*
X7125467Y-9462079D02*
X7125467Y-9471603D01*
X7125467Y-9471603D02*
X7115944Y-9490650D01*
X7115944Y-9490650D02*
X7106420Y-9500174D01*
X7106420Y-9500174D02*
X7087372Y-9509698D01*
X7087372Y-9509698D02*
X7049277Y-9509698D01*
X7049277Y-9509698D02*
X7030229Y-9519222D01*
X7030229Y-9519222D02*
X7020706Y-9528746D01*
X7020706Y-9528746D02*
X7011182Y-9547793D01*
X7011182Y-9547793D02*
X7011182Y-9585889D01*
X7011182Y-9585889D02*
X7020706Y-9604936D01*
X7020706Y-9604936D02*
X7030229Y-9614460D01*
X7030229Y-9614460D02*
X7049277Y-9623984D01*
X7049277Y-9623984D02*
X7087372Y-9623984D01*
X7087372Y-9623984D02*
X7106420Y-9614460D01*
X7106420Y-9614460D02*
X7115944Y-9604936D01*
X7115944Y-9604936D02*
X7125467Y-9585889D01*
X7125467Y-9585889D02*
X7125467Y-9547793D01*
X7125467Y-9547793D02*
X7115944Y-9528746D01*
X7115944Y-9528746D02*
X7106420Y-9519222D01*
X7106420Y-9519222D02*
X7087372Y-9509698D01*
X7192134Y-9423984D02*
X7325467Y-9423984D01*
X7325467Y-9423984D02*
X7239753Y-9623984D01*
X7392134Y-9423984D02*
X7392134Y-9462079D01*
X7468325Y-9423984D02*
X7468325Y-9462079D01*
X7763563Y-9700174D02*
X7754039Y-9690650D01*
X7754039Y-9690650D02*
X7734991Y-9662079D01*
X7734991Y-9662079D02*
X7725468Y-9643031D01*
X7725468Y-9643031D02*
X7715944Y-9614460D01*
X7715944Y-9614460D02*
X7706420Y-9566841D01*
X7706420Y-9566841D02*
X7706420Y-9528746D01*
X7706420Y-9528746D02*
X7715944Y-9481127D01*
X7715944Y-9481127D02*
X7725468Y-9452555D01*
X7725468Y-9452555D02*
X7734991Y-9433508D01*
X7734991Y-9433508D02*
X7754039Y-9404936D01*
X7754039Y-9404936D02*
X7763563Y-9395412D01*
X7925468Y-9423984D02*
X7887372Y-9423984D01*
X7887372Y-9423984D02*
X7868325Y-9433508D01*
X7868325Y-9433508D02*
X7858801Y-9443031D01*
X7858801Y-9443031D02*
X7839753Y-9471603D01*
X7839753Y-9471603D02*
X7830229Y-9509698D01*
X7830229Y-9509698D02*
X7830229Y-9585889D01*
X7830229Y-9585889D02*
X7839753Y-9604936D01*
X7839753Y-9604936D02*
X7849277Y-9614460D01*
X7849277Y-9614460D02*
X7868325Y-9623984D01*
X7868325Y-9623984D02*
X7906420Y-9623984D01*
X7906420Y-9623984D02*
X7925468Y-9614460D01*
X7925468Y-9614460D02*
X7934991Y-9604936D01*
X7934991Y-9604936D02*
X7944515Y-9585889D01*
X7944515Y-9585889D02*
X7944515Y-9538270D01*
X7944515Y-9538270D02*
X7934991Y-9519222D01*
X7934991Y-9519222D02*
X7925468Y-9509698D01*
X7925468Y-9509698D02*
X7906420Y-9500174D01*
X7906420Y-9500174D02*
X7868325Y-9500174D01*
X7868325Y-9500174D02*
X7849277Y-9509698D01*
X7849277Y-9509698D02*
X7839753Y-9519222D01*
X7839753Y-9519222D02*
X7830229Y-9538270D01*
X8182610Y-9623984D02*
X8182610Y-9423984D01*
X8268325Y-9623984D02*
X8268325Y-9519222D01*
X8268325Y-9519222D02*
X8258801Y-9500174D01*
X8258801Y-9500174D02*
X8239753Y-9490650D01*
X8239753Y-9490650D02*
X8211182Y-9490650D01*
X8211182Y-9490650D02*
X8192134Y-9500174D01*
X8192134Y-9500174D02*
X8182610Y-9509698D01*
X8392134Y-9623984D02*
X8373087Y-9614460D01*
X8373087Y-9614460D02*
X8363563Y-9604936D01*
X8363563Y-9604936D02*
X8354039Y-9585889D01*
X8354039Y-9585889D02*
X8354039Y-9528746D01*
X8354039Y-9528746D02*
X8363563Y-9509698D01*
X8363563Y-9509698D02*
X8373087Y-9500174D01*
X8373087Y-9500174D02*
X8392134Y-9490650D01*
X8392134Y-9490650D02*
X8420706Y-9490650D01*
X8420706Y-9490650D02*
X8439753Y-9500174D01*
X8439753Y-9500174D02*
X8449277Y-9509698D01*
X8449277Y-9509698D02*
X8458801Y-9528746D01*
X8458801Y-9528746D02*
X8458801Y-9585889D01*
X8458801Y-9585889D02*
X8449277Y-9604936D01*
X8449277Y-9604936D02*
X8439753Y-9614460D01*
X8439753Y-9614460D02*
X8420706Y-9623984D01*
X8420706Y-9623984D02*
X8392134Y-9623984D01*
X8573087Y-9623984D02*
X8554039Y-9614460D01*
X8554039Y-9614460D02*
X8544515Y-9595412D01*
X8544515Y-9595412D02*
X8544515Y-9423984D01*
X8725468Y-9614460D02*
X8706420Y-9623984D01*
X8706420Y-9623984D02*
X8668325Y-9623984D01*
X8668325Y-9623984D02*
X8649277Y-9614460D01*
X8649277Y-9614460D02*
X8639753Y-9595412D01*
X8639753Y-9595412D02*
X8639753Y-9519222D01*
X8639753Y-9519222D02*
X8649277Y-9500174D01*
X8649277Y-9500174D02*
X8668325Y-9490650D01*
X8668325Y-9490650D02*
X8706420Y-9490650D01*
X8706420Y-9490650D02*
X8725468Y-9500174D01*
X8725468Y-9500174D02*
X8734992Y-9519222D01*
X8734992Y-9519222D02*
X8734992Y-9538270D01*
X8734992Y-9538270D02*
X8639753Y-9557317D01*
X8811182Y-9614460D02*
X8830230Y-9623984D01*
X8830230Y-9623984D02*
X8868325Y-9623984D01*
X8868325Y-9623984D02*
X8887373Y-9614460D01*
X8887373Y-9614460D02*
X8896896Y-9595412D01*
X8896896Y-9595412D02*
X8896896Y-9585889D01*
X8896896Y-9585889D02*
X8887373Y-9566841D01*
X8887373Y-9566841D02*
X8868325Y-9557317D01*
X8868325Y-9557317D02*
X8839753Y-9557317D01*
X8839753Y-9557317D02*
X8820706Y-9547793D01*
X8820706Y-9547793D02*
X8811182Y-9528746D01*
X8811182Y-9528746D02*
X8811182Y-9519222D01*
X8811182Y-9519222D02*
X8820706Y-9500174D01*
X8820706Y-9500174D02*
X8839753Y-9490650D01*
X8839753Y-9490650D02*
X8868325Y-9490650D01*
X8868325Y-9490650D02*
X8887373Y-9500174D01*
X8963563Y-9700174D02*
X8973087Y-9690650D01*
X8973087Y-9690650D02*
X8992134Y-9662079D01*
X8992134Y-9662079D02*
X9001658Y-9643031D01*
X9001658Y-9643031D02*
X9011182Y-9614460D01*
X9011182Y-9614460D02*
X9020706Y-9566841D01*
X9020706Y-9566841D02*
X9020706Y-9528746D01*
X9020706Y-9528746D02*
X9011182Y-9481127D01*
X9011182Y-9481127D02*
X9001658Y-9452555D01*
X9001658Y-9452555D02*
X8992134Y-9433508D01*
X8992134Y-9433508D02*
X8973087Y-9404936D01*
X8973087Y-9404936D02*
X8963563Y-9395412D01*
X9325468Y-9700174D02*
X9315944Y-9690650D01*
X9315944Y-9690650D02*
X9296896Y-9662079D01*
X9296896Y-9662079D02*
X9287373Y-9643031D01*
X9287373Y-9643031D02*
X9277849Y-9614460D01*
X9277849Y-9614460D02*
X9268325Y-9566841D01*
X9268325Y-9566841D02*
X9268325Y-9528746D01*
X9268325Y-9528746D02*
X9277849Y-9481127D01*
X9277849Y-9481127D02*
X9287373Y-9452555D01*
X9287373Y-9452555D02*
X9296896Y-9433508D01*
X9296896Y-9433508D02*
X9315944Y-9404936D01*
X9315944Y-9404936D02*
X9325468Y-9395412D01*
X9401658Y-9490650D02*
X9401658Y-9623984D01*
X9401658Y-9509698D02*
X9411182Y-9500174D01*
X9411182Y-9500174D02*
X9430230Y-9490650D01*
X9430230Y-9490650D02*
X9458801Y-9490650D01*
X9458801Y-9490650D02*
X9477849Y-9500174D01*
X9477849Y-9500174D02*
X9487373Y-9519222D01*
X9487373Y-9519222D02*
X9487373Y-9623984D01*
X9611182Y-9623984D02*
X9592134Y-9614460D01*
X9592134Y-9614460D02*
X9582611Y-9604936D01*
X9582611Y-9604936D02*
X9573087Y-9585889D01*
X9573087Y-9585889D02*
X9573087Y-9528746D01*
X9573087Y-9528746D02*
X9582611Y-9509698D01*
X9582611Y-9509698D02*
X9592134Y-9500174D01*
X9592134Y-9500174D02*
X9611182Y-9490650D01*
X9611182Y-9490650D02*
X9639754Y-9490650D01*
X9639754Y-9490650D02*
X9658801Y-9500174D01*
X9658801Y-9500174D02*
X9668325Y-9509698D01*
X9668325Y-9509698D02*
X9677849Y-9528746D01*
X9677849Y-9528746D02*
X9677849Y-9585889D01*
X9677849Y-9585889D02*
X9668325Y-9604936D01*
X9668325Y-9604936D02*
X9658801Y-9614460D01*
X9658801Y-9614460D02*
X9639754Y-9623984D01*
X9639754Y-9623984D02*
X9611182Y-9623984D01*
X9734992Y-9490650D02*
X9811182Y-9490650D01*
X9763563Y-9423984D02*
X9763563Y-9595412D01*
X9763563Y-9595412D02*
X9773087Y-9614460D01*
X9773087Y-9614460D02*
X9792134Y-9623984D01*
X9792134Y-9623984D02*
X9811182Y-9623984D01*
X10030230Y-9490650D02*
X10030230Y-9690650D01*
X10030230Y-9500174D02*
X10049277Y-9490650D01*
X10049277Y-9490650D02*
X10087373Y-9490650D01*
X10087373Y-9490650D02*
X10106420Y-9500174D01*
X10106420Y-9500174D02*
X10115944Y-9509698D01*
X10115944Y-9509698D02*
X10125468Y-9528746D01*
X10125468Y-9528746D02*
X10125468Y-9585889D01*
X10125468Y-9585889D02*
X10115944Y-9604936D01*
X10115944Y-9604936D02*
X10106420Y-9614460D01*
X10106420Y-9614460D02*
X10087373Y-9623984D01*
X10087373Y-9623984D02*
X10049277Y-9623984D01*
X10049277Y-9623984D02*
X10030230Y-9614460D01*
X10239754Y-9623984D02*
X10220706Y-9614460D01*
X10220706Y-9614460D02*
X10211182Y-9595412D01*
X10211182Y-9595412D02*
X10211182Y-9423984D01*
X10401658Y-9623984D02*
X10401658Y-9519222D01*
X10401658Y-9519222D02*
X10392135Y-9500174D01*
X10392135Y-9500174D02*
X10373087Y-9490650D01*
X10373087Y-9490650D02*
X10334992Y-9490650D01*
X10334992Y-9490650D02*
X10315944Y-9500174D01*
X10401658Y-9614460D02*
X10382611Y-9623984D01*
X10382611Y-9623984D02*
X10334992Y-9623984D01*
X10334992Y-9623984D02*
X10315944Y-9614460D01*
X10315944Y-9614460D02*
X10306420Y-9595412D01*
X10306420Y-9595412D02*
X10306420Y-9576365D01*
X10306420Y-9576365D02*
X10315944Y-9557317D01*
X10315944Y-9557317D02*
X10334992Y-9547793D01*
X10334992Y-9547793D02*
X10382611Y-9547793D01*
X10382611Y-9547793D02*
X10401658Y-9538270D01*
X10468325Y-9490650D02*
X10544515Y-9490650D01*
X10496896Y-9423984D02*
X10496896Y-9595412D01*
X10496896Y-9595412D02*
X10506420Y-9614460D01*
X10506420Y-9614460D02*
X10525468Y-9623984D01*
X10525468Y-9623984D02*
X10544515Y-9623984D01*
X10687373Y-9614460D02*
X10668325Y-9623984D01*
X10668325Y-9623984D02*
X10630230Y-9623984D01*
X10630230Y-9623984D02*
X10611182Y-9614460D01*
X10611182Y-9614460D02*
X10601658Y-9595412D01*
X10601658Y-9595412D02*
X10601658Y-9519222D01*
X10601658Y-9519222D02*
X10611182Y-9500174D01*
X10611182Y-9500174D02*
X10630230Y-9490650D01*
X10630230Y-9490650D02*
X10668325Y-9490650D01*
X10668325Y-9490650D02*
X10687373Y-9500174D01*
X10687373Y-9500174D02*
X10696896Y-9519222D01*
X10696896Y-9519222D02*
X10696896Y-9538270D01*
X10696896Y-9538270D02*
X10601658Y-9557317D01*
X10868325Y-9623984D02*
X10868325Y-9423984D01*
X10868325Y-9614460D02*
X10849277Y-9623984D01*
X10849277Y-9623984D02*
X10811182Y-9623984D01*
X10811182Y-9623984D02*
X10792135Y-9614460D01*
X10792135Y-9614460D02*
X10782611Y-9604936D01*
X10782611Y-9604936D02*
X10773087Y-9585889D01*
X10773087Y-9585889D02*
X10773087Y-9528746D01*
X10773087Y-9528746D02*
X10782611Y-9509698D01*
X10782611Y-9509698D02*
X10792135Y-9500174D01*
X10792135Y-9500174D02*
X10811182Y-9490650D01*
X10811182Y-9490650D02*
X10849277Y-9490650D01*
X10849277Y-9490650D02*
X10868325Y-9500174D01*
X10944516Y-9700174D02*
X10954039Y-9690650D01*
X10954039Y-9690650D02*
X10973087Y-9662079D01*
X10973087Y-9662079D02*
X10982611Y-9643031D01*
X10982611Y-9643031D02*
X10992135Y-9614460D01*
X10992135Y-9614460D02*
X11001658Y-9566841D01*
X11001658Y-9566841D02*
X11001658Y-9528746D01*
X11001658Y-9528746D02*
X10992135Y-9481127D01*
X10992135Y-9481127D02*
X10982611Y-9452555D01*
X10982611Y-9452555D02*
X10973087Y-9433508D01*
X10973087Y-9433508D02*
X10954039Y-9404936D01*
X10954039Y-9404936D02*
X10944516Y-9395412D01*
X4188500Y-9852500D02*
G75*
G03*
X4188500Y-9852500I-100000J0D01*
G01*
X4534991Y-9810650D02*
X4534991Y-9943984D01*
X4487372Y-9734460D02*
X4439753Y-9877317D01*
X4439753Y-9877317D02*
X4563563Y-9877317D01*
X4639753Y-9924936D02*
X4649277Y-9934460D01*
X4649277Y-9934460D02*
X4639753Y-9943984D01*
X4639753Y-9943984D02*
X4630229Y-9934460D01*
X4630229Y-9934460D02*
X4639753Y-9924936D01*
X4639753Y-9924936D02*
X4639753Y-9943984D01*
X4773086Y-9743984D02*
X4792134Y-9743984D01*
X4792134Y-9743984D02*
X4811182Y-9753508D01*
X4811182Y-9753508D02*
X4820705Y-9763031D01*
X4820705Y-9763031D02*
X4830229Y-9782079D01*
X4830229Y-9782079D02*
X4839753Y-9820174D01*
X4839753Y-9820174D02*
X4839753Y-9867793D01*
X4839753Y-9867793D02*
X4830229Y-9905889D01*
X4830229Y-9905889D02*
X4820705Y-9924936D01*
X4820705Y-9924936D02*
X4811182Y-9934460D01*
X4811182Y-9934460D02*
X4792134Y-9943984D01*
X4792134Y-9943984D02*
X4773086Y-9943984D01*
X4773086Y-9943984D02*
X4754039Y-9934460D01*
X4754039Y-9934460D02*
X4744515Y-9924936D01*
X4744515Y-9924936D02*
X4734991Y-9905889D01*
X4734991Y-9905889D02*
X4725467Y-9867793D01*
X4725467Y-9867793D02*
X4725467Y-9820174D01*
X4725467Y-9820174D02*
X4734991Y-9782079D01*
X4734991Y-9782079D02*
X4744515Y-9763031D01*
X4744515Y-9763031D02*
X4754039Y-9753508D01*
X4754039Y-9753508D02*
X4773086Y-9743984D01*
X4963563Y-9743984D02*
X4982610Y-9743984D01*
X4982610Y-9743984D02*
X5001658Y-9753508D01*
X5001658Y-9753508D02*
X5011182Y-9763031D01*
X5011182Y-9763031D02*
X5020705Y-9782079D01*
X5020705Y-9782079D02*
X5030229Y-9820174D01*
X5030229Y-9820174D02*
X5030229Y-9867793D01*
X5030229Y-9867793D02*
X5020705Y-9905889D01*
X5020705Y-9905889D02*
X5011182Y-9924936D01*
X5011182Y-9924936D02*
X5001658Y-9934460D01*
X5001658Y-9934460D02*
X4982610Y-9943984D01*
X4982610Y-9943984D02*
X4963563Y-9943984D01*
X4963563Y-9943984D02*
X4944515Y-9934460D01*
X4944515Y-9934460D02*
X4934991Y-9924936D01*
X4934991Y-9924936D02*
X4925467Y-9905889D01*
X4925467Y-9905889D02*
X4915944Y-9867793D01*
X4915944Y-9867793D02*
X4915944Y-9820174D01*
X4915944Y-9820174D02*
X4925467Y-9782079D01*
X4925467Y-9782079D02*
X4934991Y-9763031D01*
X4934991Y-9763031D02*
X4944515Y-9753508D01*
X4944515Y-9753508D02*
X4963563Y-9743984D01*
X5154039Y-9743984D02*
X5173086Y-9743984D01*
X5173086Y-9743984D02*
X5192134Y-9753508D01*
X5192134Y-9753508D02*
X5201658Y-9763031D01*
X5201658Y-9763031D02*
X5211182Y-9782079D01*
X5211182Y-9782079D02*
X5220705Y-9820174D01*
X5220705Y-9820174D02*
X5220705Y-9867793D01*
X5220705Y-9867793D02*
X5211182Y-9905889D01*
X5211182Y-9905889D02*
X5201658Y-9924936D01*
X5201658Y-9924936D02*
X5192134Y-9934460D01*
X5192134Y-9934460D02*
X5173086Y-9943984D01*
X5173086Y-9943984D02*
X5154039Y-9943984D01*
X5154039Y-9943984D02*
X5134991Y-9934460D01*
X5134991Y-9934460D02*
X5125467Y-9924936D01*
X5125467Y-9924936D02*
X5115944Y-9905889D01*
X5115944Y-9905889D02*
X5106420Y-9867793D01*
X5106420Y-9867793D02*
X5106420Y-9820174D01*
X5106420Y-9820174D02*
X5115944Y-9782079D01*
X5115944Y-9782079D02*
X5125467Y-9763031D01*
X5125467Y-9763031D02*
X5134991Y-9753508D01*
X5134991Y-9753508D02*
X5154039Y-9743984D01*
X5306420Y-9943984D02*
X5306420Y-9810650D01*
X5306420Y-9829698D02*
X5315944Y-9820174D01*
X5315944Y-9820174D02*
X5334991Y-9810650D01*
X5334991Y-9810650D02*
X5363563Y-9810650D01*
X5363563Y-9810650D02*
X5382610Y-9820174D01*
X5382610Y-9820174D02*
X5392134Y-9839222D01*
X5392134Y-9839222D02*
X5392134Y-9943984D01*
X5392134Y-9839222D02*
X5401658Y-9820174D01*
X5401658Y-9820174D02*
X5420705Y-9810650D01*
X5420705Y-9810650D02*
X5449277Y-9810650D01*
X5449277Y-9810650D02*
X5468325Y-9820174D01*
X5468325Y-9820174D02*
X5477848Y-9839222D01*
X5477848Y-9839222D02*
X5477848Y-9943984D01*
X5573086Y-9943984D02*
X5573086Y-9810650D01*
X5573086Y-9829698D02*
X5582610Y-9820174D01*
X5582610Y-9820174D02*
X5601658Y-9810650D01*
X5601658Y-9810650D02*
X5630229Y-9810650D01*
X5630229Y-9810650D02*
X5649277Y-9820174D01*
X5649277Y-9820174D02*
X5658801Y-9839222D01*
X5658801Y-9839222D02*
X5658801Y-9943984D01*
X5658801Y-9839222D02*
X5668324Y-9820174D01*
X5668324Y-9820174D02*
X5687372Y-9810650D01*
X5687372Y-9810650D02*
X5715943Y-9810650D01*
X5715943Y-9810650D02*
X5734991Y-9820174D01*
X5734991Y-9820174D02*
X5744515Y-9839222D01*
X5744515Y-9839222D02*
X5744515Y-9943984D01*
X6134991Y-9734460D02*
X5963563Y-9991603D01*
X6392134Y-9743984D02*
X6411182Y-9743984D01*
X6411182Y-9743984D02*
X6430229Y-9753508D01*
X6430229Y-9753508D02*
X6439753Y-9763031D01*
X6439753Y-9763031D02*
X6449277Y-9782079D01*
X6449277Y-9782079D02*
X6458801Y-9820174D01*
X6458801Y-9820174D02*
X6458801Y-9867793D01*
X6458801Y-9867793D02*
X6449277Y-9905889D01*
X6449277Y-9905889D02*
X6439753Y-9924936D01*
X6439753Y-9924936D02*
X6430229Y-9934460D01*
X6430229Y-9934460D02*
X6411182Y-9943984D01*
X6411182Y-9943984D02*
X6392134Y-9943984D01*
X6392134Y-9943984D02*
X6373086Y-9934460D01*
X6373086Y-9934460D02*
X6363563Y-9924936D01*
X6363563Y-9924936D02*
X6354039Y-9905889D01*
X6354039Y-9905889D02*
X6344515Y-9867793D01*
X6344515Y-9867793D02*
X6344515Y-9820174D01*
X6344515Y-9820174D02*
X6354039Y-9782079D01*
X6354039Y-9782079D02*
X6363563Y-9763031D01*
X6363563Y-9763031D02*
X6373086Y-9753508D01*
X6373086Y-9753508D02*
X6392134Y-9743984D01*
X6544515Y-9924936D02*
X6554039Y-9934460D01*
X6554039Y-9934460D02*
X6544515Y-9943984D01*
X6544515Y-9943984D02*
X6534991Y-9934460D01*
X6534991Y-9934460D02*
X6544515Y-9924936D01*
X6544515Y-9924936D02*
X6544515Y-9943984D01*
X6744515Y-9943984D02*
X6630229Y-9943984D01*
X6687372Y-9943984D02*
X6687372Y-9743984D01*
X6687372Y-9743984D02*
X6668325Y-9772555D01*
X6668325Y-9772555D02*
X6649277Y-9791603D01*
X6649277Y-9791603D02*
X6630229Y-9801127D01*
X6925467Y-9743984D02*
X6830229Y-9743984D01*
X6830229Y-9743984D02*
X6820706Y-9839222D01*
X6820706Y-9839222D02*
X6830229Y-9829698D01*
X6830229Y-9829698D02*
X6849277Y-9820174D01*
X6849277Y-9820174D02*
X6896896Y-9820174D01*
X6896896Y-9820174D02*
X6915944Y-9829698D01*
X6915944Y-9829698D02*
X6925467Y-9839222D01*
X6925467Y-9839222D02*
X6934991Y-9858270D01*
X6934991Y-9858270D02*
X6934991Y-9905889D01*
X6934991Y-9905889D02*
X6925467Y-9924936D01*
X6925467Y-9924936D02*
X6915944Y-9934460D01*
X6915944Y-9934460D02*
X6896896Y-9943984D01*
X6896896Y-9943984D02*
X6849277Y-9943984D01*
X6849277Y-9943984D02*
X6830229Y-9934460D01*
X6830229Y-9934460D02*
X6820706Y-9924936D01*
X7001658Y-9743984D02*
X7134991Y-9743984D01*
X7134991Y-9743984D02*
X7049277Y-9943984D01*
X7306420Y-9743984D02*
X7211182Y-9743984D01*
X7211182Y-9743984D02*
X7201658Y-9839222D01*
X7201658Y-9839222D02*
X7211182Y-9829698D01*
X7211182Y-9829698D02*
X7230229Y-9820174D01*
X7230229Y-9820174D02*
X7277848Y-9820174D01*
X7277848Y-9820174D02*
X7296896Y-9829698D01*
X7296896Y-9829698D02*
X7306420Y-9839222D01*
X7306420Y-9839222D02*
X7315944Y-9858270D01*
X7315944Y-9858270D02*
X7315944Y-9905889D01*
X7315944Y-9905889D02*
X7306420Y-9924936D01*
X7306420Y-9924936D02*
X7296896Y-9934460D01*
X7296896Y-9934460D02*
X7277848Y-9943984D01*
X7277848Y-9943984D02*
X7230229Y-9943984D01*
X7230229Y-9943984D02*
X7211182Y-9934460D01*
X7211182Y-9934460D02*
X7201658Y-9924936D01*
X7392134Y-9743984D02*
X7392134Y-9782079D01*
X7468325Y-9743984D02*
X7468325Y-9782079D01*
X7763563Y-10020174D02*
X7754039Y-10010650D01*
X7754039Y-10010650D02*
X7734991Y-9982079D01*
X7734991Y-9982079D02*
X7725468Y-9963031D01*
X7725468Y-9963031D02*
X7715944Y-9934460D01*
X7715944Y-9934460D02*
X7706420Y-9886841D01*
X7706420Y-9886841D02*
X7706420Y-9848746D01*
X7706420Y-9848746D02*
X7715944Y-9801127D01*
X7715944Y-9801127D02*
X7725468Y-9772555D01*
X7725468Y-9772555D02*
X7734991Y-9753508D01*
X7734991Y-9753508D02*
X7754039Y-9724936D01*
X7754039Y-9724936D02*
X7763563Y-9715412D01*
X7925468Y-9810650D02*
X7925468Y-9943984D01*
X7877848Y-9734460D02*
X7830229Y-9877317D01*
X7830229Y-9877317D02*
X7954039Y-9877317D01*
X8182610Y-9943984D02*
X8182610Y-9743984D01*
X8268325Y-9943984D02*
X8268325Y-9839222D01*
X8268325Y-9839222D02*
X8258801Y-9820174D01*
X8258801Y-9820174D02*
X8239753Y-9810650D01*
X8239753Y-9810650D02*
X8211182Y-9810650D01*
X8211182Y-9810650D02*
X8192134Y-9820174D01*
X8192134Y-9820174D02*
X8182610Y-9829698D01*
X8392134Y-9943984D02*
X8373087Y-9934460D01*
X8373087Y-9934460D02*
X8363563Y-9924936D01*
X8363563Y-9924936D02*
X8354039Y-9905889D01*
X8354039Y-9905889D02*
X8354039Y-9848746D01*
X8354039Y-9848746D02*
X8363563Y-9829698D01*
X8363563Y-9829698D02*
X8373087Y-9820174D01*
X8373087Y-9820174D02*
X8392134Y-9810650D01*
X8392134Y-9810650D02*
X8420706Y-9810650D01*
X8420706Y-9810650D02*
X8439753Y-9820174D01*
X8439753Y-9820174D02*
X8449277Y-9829698D01*
X8449277Y-9829698D02*
X8458801Y-9848746D01*
X8458801Y-9848746D02*
X8458801Y-9905889D01*
X8458801Y-9905889D02*
X8449277Y-9924936D01*
X8449277Y-9924936D02*
X8439753Y-9934460D01*
X8439753Y-9934460D02*
X8420706Y-9943984D01*
X8420706Y-9943984D02*
X8392134Y-9943984D01*
X8573087Y-9943984D02*
X8554039Y-9934460D01*
X8554039Y-9934460D02*
X8544515Y-9915412D01*
X8544515Y-9915412D02*
X8544515Y-9743984D01*
X8725468Y-9934460D02*
X8706420Y-9943984D01*
X8706420Y-9943984D02*
X8668325Y-9943984D01*
X8668325Y-9943984D02*
X8649277Y-9934460D01*
X8649277Y-9934460D02*
X8639753Y-9915412D01*
X8639753Y-9915412D02*
X8639753Y-9839222D01*
X8639753Y-9839222D02*
X8649277Y-9820174D01*
X8649277Y-9820174D02*
X8668325Y-9810650D01*
X8668325Y-9810650D02*
X8706420Y-9810650D01*
X8706420Y-9810650D02*
X8725468Y-9820174D01*
X8725468Y-9820174D02*
X8734992Y-9839222D01*
X8734992Y-9839222D02*
X8734992Y-9858270D01*
X8734992Y-9858270D02*
X8639753Y-9877317D01*
X8811182Y-9934460D02*
X8830230Y-9943984D01*
X8830230Y-9943984D02*
X8868325Y-9943984D01*
X8868325Y-9943984D02*
X8887373Y-9934460D01*
X8887373Y-9934460D02*
X8896896Y-9915412D01*
X8896896Y-9915412D02*
X8896896Y-9905889D01*
X8896896Y-9905889D02*
X8887373Y-9886841D01*
X8887373Y-9886841D02*
X8868325Y-9877317D01*
X8868325Y-9877317D02*
X8839753Y-9877317D01*
X8839753Y-9877317D02*
X8820706Y-9867793D01*
X8820706Y-9867793D02*
X8811182Y-9848746D01*
X8811182Y-9848746D02*
X8811182Y-9839222D01*
X8811182Y-9839222D02*
X8820706Y-9820174D01*
X8820706Y-9820174D02*
X8839753Y-9810650D01*
X8839753Y-9810650D02*
X8868325Y-9810650D01*
X8868325Y-9810650D02*
X8887373Y-9820174D01*
X8963563Y-10020174D02*
X8973087Y-10010650D01*
X8973087Y-10010650D02*
X8992134Y-9982079D01*
X8992134Y-9982079D02*
X9001658Y-9963031D01*
X9001658Y-9963031D02*
X9011182Y-9934460D01*
X9011182Y-9934460D02*
X9020706Y-9886841D01*
X9020706Y-9886841D02*
X9020706Y-9848746D01*
X9020706Y-9848746D02*
X9011182Y-9801127D01*
X9011182Y-9801127D02*
X9001658Y-9772555D01*
X9001658Y-9772555D02*
X8992134Y-9753508D01*
X8992134Y-9753508D02*
X8973087Y-9724936D01*
X8973087Y-9724936D02*
X8963563Y-9715412D01*
X9325468Y-10020174D02*
X9315944Y-10010650D01*
X9315944Y-10010650D02*
X9296896Y-9982079D01*
X9296896Y-9982079D02*
X9287373Y-9963031D01*
X9287373Y-9963031D02*
X9277849Y-9934460D01*
X9277849Y-9934460D02*
X9268325Y-9886841D01*
X9268325Y-9886841D02*
X9268325Y-9848746D01*
X9268325Y-9848746D02*
X9277849Y-9801127D01*
X9277849Y-9801127D02*
X9287373Y-9772555D01*
X9287373Y-9772555D02*
X9296896Y-9753508D01*
X9296896Y-9753508D02*
X9315944Y-9724936D01*
X9315944Y-9724936D02*
X9325468Y-9715412D01*
X9401658Y-9810650D02*
X9401658Y-9943984D01*
X9401658Y-9829698D02*
X9411182Y-9820174D01*
X9411182Y-9820174D02*
X9430230Y-9810650D01*
X9430230Y-9810650D02*
X9458801Y-9810650D01*
X9458801Y-9810650D02*
X9477849Y-9820174D01*
X9477849Y-9820174D02*
X9487373Y-9839222D01*
X9487373Y-9839222D02*
X9487373Y-9943984D01*
X9611182Y-9943984D02*
X9592134Y-9934460D01*
X9592134Y-9934460D02*
X9582611Y-9924936D01*
X9582611Y-9924936D02*
X9573087Y-9905889D01*
X9573087Y-9905889D02*
X9573087Y-9848746D01*
X9573087Y-9848746D02*
X9582611Y-9829698D01*
X9582611Y-9829698D02*
X9592134Y-9820174D01*
X9592134Y-9820174D02*
X9611182Y-9810650D01*
X9611182Y-9810650D02*
X9639754Y-9810650D01*
X9639754Y-9810650D02*
X9658801Y-9820174D01*
X9658801Y-9820174D02*
X9668325Y-9829698D01*
X9668325Y-9829698D02*
X9677849Y-9848746D01*
X9677849Y-9848746D02*
X9677849Y-9905889D01*
X9677849Y-9905889D02*
X9668325Y-9924936D01*
X9668325Y-9924936D02*
X9658801Y-9934460D01*
X9658801Y-9934460D02*
X9639754Y-9943984D01*
X9639754Y-9943984D02*
X9611182Y-9943984D01*
X9734992Y-9810650D02*
X9811182Y-9810650D01*
X9763563Y-9743984D02*
X9763563Y-9915412D01*
X9763563Y-9915412D02*
X9773087Y-9934460D01*
X9773087Y-9934460D02*
X9792134Y-9943984D01*
X9792134Y-9943984D02*
X9811182Y-9943984D01*
X10030230Y-9810650D02*
X10030230Y-10010650D01*
X10030230Y-9820174D02*
X10049277Y-9810650D01*
X10049277Y-9810650D02*
X10087373Y-9810650D01*
X10087373Y-9810650D02*
X10106420Y-9820174D01*
X10106420Y-9820174D02*
X10115944Y-9829698D01*
X10115944Y-9829698D02*
X10125468Y-9848746D01*
X10125468Y-9848746D02*
X10125468Y-9905889D01*
X10125468Y-9905889D02*
X10115944Y-9924936D01*
X10115944Y-9924936D02*
X10106420Y-9934460D01*
X10106420Y-9934460D02*
X10087373Y-9943984D01*
X10087373Y-9943984D02*
X10049277Y-9943984D01*
X10049277Y-9943984D02*
X10030230Y-9934460D01*
X10239754Y-9943984D02*
X10220706Y-9934460D01*
X10220706Y-9934460D02*
X10211182Y-9915412D01*
X10211182Y-9915412D02*
X10211182Y-9743984D01*
X10401658Y-9943984D02*
X10401658Y-9839222D01*
X10401658Y-9839222D02*
X10392135Y-9820174D01*
X10392135Y-9820174D02*
X10373087Y-9810650D01*
X10373087Y-9810650D02*
X10334992Y-9810650D01*
X10334992Y-9810650D02*
X10315944Y-9820174D01*
X10401658Y-9934460D02*
X10382611Y-9943984D01*
X10382611Y-9943984D02*
X10334992Y-9943984D01*
X10334992Y-9943984D02*
X10315944Y-9934460D01*
X10315944Y-9934460D02*
X10306420Y-9915412D01*
X10306420Y-9915412D02*
X10306420Y-9896365D01*
X10306420Y-9896365D02*
X10315944Y-9877317D01*
X10315944Y-9877317D02*
X10334992Y-9867793D01*
X10334992Y-9867793D02*
X10382611Y-9867793D01*
X10382611Y-9867793D02*
X10401658Y-9858270D01*
X10468325Y-9810650D02*
X10544515Y-9810650D01*
X10496896Y-9743984D02*
X10496896Y-9915412D01*
X10496896Y-9915412D02*
X10506420Y-9934460D01*
X10506420Y-9934460D02*
X10525468Y-9943984D01*
X10525468Y-9943984D02*
X10544515Y-9943984D01*
X10687373Y-9934460D02*
X10668325Y-9943984D01*
X10668325Y-9943984D02*
X10630230Y-9943984D01*
X10630230Y-9943984D02*
X10611182Y-9934460D01*
X10611182Y-9934460D02*
X10601658Y-9915412D01*
X10601658Y-9915412D02*
X10601658Y-9839222D01*
X10601658Y-9839222D02*
X10611182Y-9820174D01*
X10611182Y-9820174D02*
X10630230Y-9810650D01*
X10630230Y-9810650D02*
X10668325Y-9810650D01*
X10668325Y-9810650D02*
X10687373Y-9820174D01*
X10687373Y-9820174D02*
X10696896Y-9839222D01*
X10696896Y-9839222D02*
X10696896Y-9858270D01*
X10696896Y-9858270D02*
X10601658Y-9877317D01*
X10868325Y-9943984D02*
X10868325Y-9743984D01*
X10868325Y-9934460D02*
X10849277Y-9943984D01*
X10849277Y-9943984D02*
X10811182Y-9943984D01*
X10811182Y-9943984D02*
X10792135Y-9934460D01*
X10792135Y-9934460D02*
X10782611Y-9924936D01*
X10782611Y-9924936D02*
X10773087Y-9905889D01*
X10773087Y-9905889D02*
X10773087Y-9848746D01*
X10773087Y-9848746D02*
X10782611Y-9829698D01*
X10782611Y-9829698D02*
X10792135Y-9820174D01*
X10792135Y-9820174D02*
X10811182Y-9810650D01*
X10811182Y-9810650D02*
X10849277Y-9810650D01*
X10849277Y-9810650D02*
X10868325Y-9820174D01*
X10944516Y-10020174D02*
X10954039Y-10010650D01*
X10954039Y-10010650D02*
X10973087Y-9982079D01*
X10973087Y-9982079D02*
X10982611Y-9963031D01*
X10982611Y-9963031D02*
X10992135Y-9934460D01*
X10992135Y-9934460D02*
X11001658Y-9886841D01*
X11001658Y-9886841D02*
X11001658Y-9848746D01*
X11001658Y-9848746D02*
X10992135Y-9801127D01*
X10992135Y-9801127D02*
X10982611Y-9772555D01*
X10982611Y-9772555D02*
X10973087Y-9753508D01*
X10973087Y-9753508D02*
X10954039Y-9724936D01*
X10954039Y-9724936D02*
X10944516Y-9715412D01*
M02*
