%TF.GenerationSoftware,KiCad,Pcbnew,7.0.6*%
%TF.CreationDate,2023-08-10T16:59:19-04:00*%
%TF.ProjectId,rrc_pcb3,7272635f-7063-4623-932e-6b696361645f,rev?*%
%TF.SameCoordinates,Original*%
%TF.FileFunction,Drillmap*%
%TF.FilePolarity,Positive*%
%FSLAX45Y45*%
G04 Gerber Fmt 4.5, Leading zero omitted, Abs format (unit mm)*
G04 Created by KiCad (PCBNEW 7.0.6) date 2023-08-10 16:59:19*
%MOMM*%
%LPD*%
G01*
G04 APERTURE LIST*
%ADD10C,0.050000*%
%ADD11C,0.200000*%
%ADD12C,0.040000*%
%ADD13C,0.080000*%
%ADD14C,0.100000*%
%ADD15C,0.102000*%
%ADD16C,0.110000*%
%ADD17C,0.270000*%
%ADD18C,0.320000*%
%ADD19C,0.400000*%
G04 APERTURE END LIST*
D10*
X4191000Y-2065671D02*
X18034000Y-2065671D01*
X18034000Y-8890000D01*
X4191000Y-8890000D01*
X4191000Y-2065671D01*
D11*
D12*
X5822000Y-3028000D02*
X5862000Y-3068000D01*
X5862000Y-3028000D02*
X5822000Y-3068000D01*
X6838000Y-3028000D02*
X6878000Y-3068000D01*
X6878000Y-3028000D02*
X6838000Y-3068000D01*
X7854000Y-4806000D02*
X7894000Y-4846000D01*
X7894000Y-4806000D02*
X7854000Y-4846000D01*
X8009975Y-2646764D02*
X8049975Y-2686764D01*
X8049975Y-2646764D02*
X8009975Y-2686764D01*
X8108000Y-2520000D02*
X8148000Y-2560000D01*
X8148000Y-2520000D02*
X8108000Y-2560000D01*
X8108000Y-3028000D02*
X8148000Y-3068000D01*
X8148000Y-3028000D02*
X8108000Y-3068000D01*
X8616000Y-3282000D02*
X8656000Y-3322000D01*
X8656000Y-3282000D02*
X8616000Y-3322000D01*
X8616000Y-5568000D02*
X8656000Y-5608000D01*
X8656000Y-5568000D02*
X8616000Y-5608000D01*
X9378000Y-3282000D02*
X9418000Y-3322000D01*
X9418000Y-3282000D02*
X9378000Y-3322000D01*
X10648000Y-4044000D02*
X10688000Y-4084000D01*
X10688000Y-4044000D02*
X10648000Y-4084000D01*
X11410000Y-3028000D02*
X11450000Y-3068000D01*
X11450000Y-3028000D02*
X11410000Y-3068000D01*
X11664000Y-5060000D02*
X11704000Y-5100000D01*
X11704000Y-5060000D02*
X11664000Y-5100000D01*
X12172000Y-4806000D02*
X12212000Y-4846000D01*
X12212000Y-4806000D02*
X12172000Y-4846000D01*
X12426000Y-5822000D02*
X12466000Y-5862000D01*
X12466000Y-5822000D02*
X12426000Y-5862000D01*
X12680000Y-5060000D02*
X12720000Y-5100000D01*
X12720000Y-5060000D02*
X12680000Y-5100000D01*
X13188000Y-4552000D02*
X13228000Y-4592000D01*
X13228000Y-4552000D02*
X13188000Y-4592000D01*
X13188000Y-5314000D02*
X13228000Y-5354000D01*
X13228000Y-5314000D02*
X13188000Y-5354000D01*
X13696000Y-4298000D02*
X13736000Y-4338000D01*
X13736000Y-4298000D02*
X13696000Y-4338000D01*
X13696000Y-5314000D02*
X13736000Y-5354000D01*
X13736000Y-5314000D02*
X13696000Y-5354000D01*
D13*
X6463000Y-2921000D02*
G75*
G03*
X6463000Y-2921000I-40000J0D01*
G01*
X6463000Y-3175000D02*
G75*
G03*
X6463000Y-3175000I-40000J0D01*
G01*
X7687000Y-2529840D02*
G75*
G03*
X7687000Y-2529840I-40000J0D01*
G01*
X7687000Y-2729840D02*
G75*
G03*
X7687000Y-2729840I-40000J0D01*
G01*
X7687000Y-2929840D02*
G75*
G03*
X7687000Y-2929840I-40000J0D01*
G01*
X7887000Y-2529840D02*
G75*
G03*
X7887000Y-2529840I-40000J0D01*
G01*
X7887000Y-2729840D02*
G75*
G03*
X7887000Y-2729840I-40000J0D01*
G01*
X7887000Y-2929840D02*
G75*
G03*
X7887000Y-2929840I-40000J0D01*
G01*
X9692000Y-4318000D02*
G75*
G03*
X9692000Y-4318000I-40000J0D01*
G01*
X10708000Y-4318000D02*
G75*
G03*
X10708000Y-4318000I-40000J0D01*
G01*
X11101484Y-4311604D02*
G75*
G03*
X11101484Y-4311604I-40000J0D01*
G01*
X12117484Y-4311604D02*
G75*
G03*
X12117484Y-4311604I-40000J0D01*
G01*
X16918310Y-8271296D02*
G75*
G03*
X16918310Y-8271296I-40000J0D01*
G01*
X16918310Y-8670429D02*
G75*
G03*
X16918310Y-8670429I-40000J0D01*
G01*
X17934310Y-8271296D02*
G75*
G03*
X17934310Y-8271296I-40000J0D01*
G01*
X17934310Y-8670429D02*
G75*
G03*
X17934310Y-8670429I-40000J0D01*
G01*
D14*
X4846785Y-2367824D02*
X4846785Y-2467824D01*
X4796785Y-2417824D02*
X4896785Y-2417824D01*
X4846785Y-3127824D02*
X4846785Y-3227824D01*
X4796785Y-3177824D02*
X4896785Y-3177824D01*
X7112000Y-4268000D02*
X7112000Y-4368000D01*
X7062000Y-4318000D02*
X7162000Y-4318000D01*
X7366000Y-4268000D02*
X7366000Y-4368000D01*
X7316000Y-4318000D02*
X7416000Y-4318000D01*
X7620000Y-4268000D02*
X7620000Y-4368000D01*
X7570000Y-4318000D02*
X7670000Y-4318000D01*
X7682860Y-5561423D02*
X7682860Y-5661423D01*
X7632860Y-5611423D02*
X7732860Y-5611423D01*
X7682860Y-5815423D02*
X7682860Y-5915423D01*
X7632860Y-5865423D02*
X7732860Y-5865423D01*
X7682860Y-6069423D02*
X7682860Y-6169423D01*
X7632860Y-6119423D02*
X7732860Y-6119423D01*
X7682860Y-6323423D02*
X7682860Y-6423423D01*
X7632860Y-6373423D02*
X7732860Y-6373423D01*
X7682860Y-6577423D02*
X7682860Y-6677423D01*
X7632860Y-6627423D02*
X7732860Y-6627423D01*
X7682860Y-6831423D02*
X7682860Y-6931423D01*
X7632860Y-6881423D02*
X7732860Y-6881423D01*
X7682860Y-7085423D02*
X7682860Y-7185423D01*
X7632860Y-7135423D02*
X7732860Y-7135423D01*
X7682860Y-7339423D02*
X7682860Y-7439423D01*
X7632860Y-7389423D02*
X7732860Y-7389423D01*
X7682860Y-7593423D02*
X7682860Y-7693423D01*
X7632860Y-7643423D02*
X7732860Y-7643423D01*
X7682860Y-7847423D02*
X7682860Y-7947423D01*
X7632860Y-7897423D02*
X7732860Y-7897423D01*
X7682860Y-8101423D02*
X7682860Y-8201423D01*
X7632860Y-8151423D02*
X7732860Y-8151423D01*
X7682860Y-8355423D02*
X7682860Y-8455423D01*
X7632860Y-8405423D02*
X7732860Y-8405423D01*
X7936860Y-5561423D02*
X7936860Y-5661423D01*
X7886860Y-5611423D02*
X7986860Y-5611423D01*
X7936860Y-5815423D02*
X7936860Y-5915423D01*
X7886860Y-5865423D02*
X7986860Y-5865423D01*
X7936860Y-6069423D02*
X7936860Y-6169423D01*
X7886860Y-6119423D02*
X7986860Y-6119423D01*
X7936860Y-6323423D02*
X7936860Y-6423423D01*
X7886860Y-6373423D02*
X7986860Y-6373423D01*
X7936860Y-6577423D02*
X7936860Y-6677423D01*
X7886860Y-6627423D02*
X7986860Y-6627423D01*
X7936860Y-6831423D02*
X7936860Y-6931423D01*
X7886860Y-6881423D02*
X7986860Y-6881423D01*
X7936860Y-7085423D02*
X7936860Y-7185423D01*
X7886860Y-7135423D02*
X7986860Y-7135423D01*
X7936860Y-7339423D02*
X7936860Y-7439423D01*
X7886860Y-7389423D02*
X7986860Y-7389423D01*
X7936860Y-7593423D02*
X7936860Y-7693423D01*
X7886860Y-7643423D02*
X7986860Y-7643423D01*
X7936860Y-7847423D02*
X7936860Y-7947423D01*
X7886860Y-7897423D02*
X7986860Y-7897423D01*
X7936860Y-8101423D02*
X7936860Y-8201423D01*
X7886860Y-8151423D02*
X7986860Y-8151423D01*
X7936860Y-8355423D02*
X7936860Y-8455423D01*
X7886860Y-8405423D02*
X7986860Y-8405423D01*
X8382000Y-4268000D02*
X8382000Y-4368000D01*
X8332000Y-4318000D02*
X8432000Y-4318000D01*
X8636000Y-4268000D02*
X8636000Y-4368000D01*
X8586000Y-4318000D02*
X8686000Y-4318000D01*
X8890000Y-4268000D02*
X8890000Y-4368000D01*
X8840000Y-4318000D02*
X8940000Y-4318000D01*
X14288436Y-3058692D02*
X14288436Y-3158692D01*
X14238436Y-3108692D02*
X14338436Y-3108692D01*
X14288436Y-3312692D02*
X14288436Y-3412692D01*
X14238436Y-3362692D02*
X14338436Y-3362692D01*
X14288436Y-3566692D02*
X14288436Y-3666692D01*
X14238436Y-3616692D02*
X14338436Y-3616692D01*
X14288436Y-3820692D02*
X14288436Y-3920692D01*
X14238436Y-3870692D02*
X14338436Y-3870692D01*
X15624005Y-2454368D02*
X15624005Y-2554368D01*
X15574005Y-2504368D02*
X15674005Y-2504368D01*
X15624005Y-2708368D02*
X15624005Y-2808368D01*
X15574005Y-2758368D02*
X15674005Y-2758368D01*
X15878005Y-2454368D02*
X15878005Y-2554368D01*
X15828005Y-2504368D02*
X15928005Y-2504368D01*
X15878005Y-2708368D02*
X15878005Y-2808368D01*
X15828005Y-2758368D02*
X15928005Y-2758368D01*
X16132005Y-2454368D02*
X16132005Y-2554368D01*
X16082005Y-2504368D02*
X16182005Y-2504368D01*
X16132005Y-2708368D02*
X16132005Y-2808368D01*
X16082005Y-2758368D02*
X16182005Y-2758368D01*
X16386005Y-2454368D02*
X16386005Y-2554368D01*
X16336005Y-2504368D02*
X16436005Y-2504368D01*
X16386005Y-2708368D02*
X16386005Y-2808368D01*
X16336005Y-2758368D02*
X16436005Y-2758368D01*
X16640005Y-2454368D02*
X16640005Y-2554368D01*
X16590005Y-2504368D02*
X16690005Y-2504368D01*
X16640005Y-2708368D02*
X16640005Y-2808368D01*
X16590005Y-2758368D02*
X16690005Y-2758368D01*
X16894005Y-2454368D02*
X16894005Y-2554368D01*
X16844005Y-2504368D02*
X16944005Y-2504368D01*
X16894005Y-2708368D02*
X16894005Y-2808368D01*
X16844005Y-2758368D02*
X16944005Y-2758368D01*
X17148005Y-2454368D02*
X17148005Y-2554368D01*
X17098005Y-2504368D02*
X17198005Y-2504368D01*
X17148005Y-2708368D02*
X17148005Y-2808368D01*
X17098005Y-2758368D02*
X17198005Y-2758368D01*
X17402005Y-2454368D02*
X17402005Y-2554368D01*
X17352005Y-2504368D02*
X17452005Y-2504368D01*
X17402005Y-2708368D02*
X17402005Y-2808368D01*
X17352005Y-2758368D02*
X17452005Y-2758368D01*
D15*
X4524425Y-3728557D02*
X4524425Y-3656431D01*
X4452299Y-3656431D01*
X4452299Y-3728557D01*
X4524425Y-3728557D01*
X4778425Y-3728557D02*
X4778425Y-3656431D01*
X4706299Y-3656431D01*
X4706299Y-3728557D01*
X4778425Y-3728557D01*
X5032425Y-3728557D02*
X5032425Y-3656431D01*
X4960299Y-3656431D01*
X4960299Y-3728557D01*
X5032425Y-3728557D01*
X5286425Y-3728557D02*
X5286425Y-3656431D01*
X5214299Y-3656431D01*
X5214299Y-3728557D01*
X5286425Y-3728557D01*
X5540425Y-3728557D02*
X5540425Y-3656431D01*
X5468299Y-3656431D01*
X5468299Y-3728557D01*
X5540425Y-3728557D01*
X5794424Y-3728557D02*
X5794424Y-3656431D01*
X5722299Y-3656431D01*
X5722299Y-3728557D01*
X5794424Y-3728557D01*
X6048424Y-3728557D02*
X6048424Y-3656431D01*
X5976299Y-3656431D01*
X5976299Y-3728557D01*
X6048424Y-3728557D01*
D16*
X6350000Y-2341000D02*
X6405000Y-2286000D01*
X6350000Y-2231000D01*
X6295000Y-2286000D01*
X6350000Y-2341000D01*
X6350000Y-3865000D02*
X6405000Y-3810000D01*
X6350000Y-3755000D01*
X6295000Y-3810000D01*
X6350000Y-3865000D01*
X6604000Y-2341000D02*
X6659000Y-2286000D01*
X6604000Y-2231000D01*
X6549000Y-2286000D01*
X6604000Y-2341000D01*
X6604000Y-2595000D02*
X6659000Y-2540000D01*
X6604000Y-2485000D01*
X6549000Y-2540000D01*
X6604000Y-2595000D01*
X6604000Y-3865000D02*
X6659000Y-3810000D01*
X6604000Y-3755000D01*
X6549000Y-3810000D01*
X6604000Y-3865000D01*
X6858000Y-2341000D02*
X6913000Y-2286000D01*
X6858000Y-2231000D01*
X6803000Y-2286000D01*
X6858000Y-2341000D01*
X6858000Y-3865000D02*
X6913000Y-3810000D01*
X6858000Y-3755000D01*
X6803000Y-3810000D01*
X6858000Y-3865000D01*
X6979920Y-3559920D02*
X7034920Y-3504920D01*
X6979920Y-3449920D01*
X6924920Y-3504920D01*
X6979920Y-3559920D01*
X7112000Y-2341000D02*
X7167000Y-2286000D01*
X7112000Y-2231000D01*
X7057000Y-2286000D01*
X7112000Y-2341000D01*
X7112000Y-3865000D02*
X7167000Y-3810000D01*
X7112000Y-3755000D01*
X7057000Y-3810000D01*
X7112000Y-3865000D01*
X7233920Y-3559920D02*
X7288920Y-3504920D01*
X7233920Y-3449920D01*
X7178920Y-3504920D01*
X7233920Y-3559920D01*
X7366000Y-2341000D02*
X7421000Y-2286000D01*
X7366000Y-2231000D01*
X7311000Y-2286000D01*
X7366000Y-2341000D01*
X7366000Y-3865000D02*
X7421000Y-3810000D01*
X7366000Y-3755000D01*
X7311000Y-3810000D01*
X7366000Y-3865000D01*
X7487920Y-3559920D02*
X7542920Y-3504920D01*
X7487920Y-3449920D01*
X7432920Y-3504920D01*
X7487920Y-3559920D01*
X7620000Y-2341000D02*
X7675000Y-2286000D01*
X7620000Y-2231000D01*
X7565000Y-2286000D01*
X7620000Y-2341000D01*
X7620000Y-3865000D02*
X7675000Y-3810000D01*
X7620000Y-3755000D01*
X7565000Y-3810000D01*
X7620000Y-3865000D01*
X7741920Y-3559920D02*
X7796920Y-3504920D01*
X7741920Y-3449920D01*
X7686920Y-3504920D01*
X7741920Y-3559920D01*
X7874000Y-2341000D02*
X7929000Y-2286000D01*
X7874000Y-2231000D01*
X7819000Y-2286000D01*
X7874000Y-2341000D01*
X7874000Y-3865000D02*
X7929000Y-3810000D01*
X7874000Y-3755000D01*
X7819000Y-3810000D01*
X7874000Y-3865000D01*
X7995920Y-3559920D02*
X8050920Y-3504920D01*
X7995920Y-3449920D01*
X7940920Y-3504920D01*
X7995920Y-3559920D01*
X8128000Y-2341000D02*
X8183000Y-2286000D01*
X8128000Y-2231000D01*
X8073000Y-2286000D01*
X8128000Y-2341000D01*
X8128000Y-3865000D02*
X8183000Y-3810000D01*
X8128000Y-3755000D01*
X8073000Y-3810000D01*
X8128000Y-3865000D01*
X8382000Y-2341000D02*
X8437000Y-2286000D01*
X8382000Y-2231000D01*
X8327000Y-2286000D01*
X8382000Y-2341000D01*
X8382000Y-3865000D02*
X8437000Y-3810000D01*
X8382000Y-3755000D01*
X8327000Y-3810000D01*
X8382000Y-3865000D01*
X8636000Y-2341000D02*
X8691000Y-2286000D01*
X8636000Y-2231000D01*
X8581000Y-2286000D01*
X8636000Y-2341000D01*
X8636000Y-3865000D02*
X8691000Y-3810000D01*
X8636000Y-3755000D01*
X8581000Y-3810000D01*
X8636000Y-3865000D01*
X8890000Y-2341000D02*
X8945000Y-2286000D01*
X8890000Y-2231000D01*
X8835000Y-2286000D01*
X8890000Y-2341000D01*
X8890000Y-3865000D02*
X8945000Y-3810000D01*
X8890000Y-3755000D01*
X8835000Y-3810000D01*
X8890000Y-3865000D01*
X9144000Y-2341000D02*
X9199000Y-2286000D01*
X9144000Y-2231000D01*
X9089000Y-2286000D01*
X9144000Y-2341000D01*
X9144000Y-3865000D02*
X9199000Y-3810000D01*
X9144000Y-3755000D01*
X9089000Y-3810000D01*
X9144000Y-3865000D01*
X9398000Y-2341000D02*
X9453000Y-2286000D01*
X9398000Y-2231000D01*
X9343000Y-2286000D01*
X9398000Y-2341000D01*
X9398000Y-3865000D02*
X9453000Y-3810000D01*
X9398000Y-3755000D01*
X9343000Y-3810000D01*
X9398000Y-3865000D01*
X9652000Y-2341000D02*
X9707000Y-2286000D01*
X9652000Y-2231000D01*
X9597000Y-2286000D01*
X9652000Y-2341000D01*
X9652000Y-3865000D02*
X9707000Y-3810000D01*
X9652000Y-3755000D01*
X9597000Y-3810000D01*
X9652000Y-3865000D01*
X9906000Y-2341000D02*
X9961000Y-2286000D01*
X9906000Y-2231000D01*
X9851000Y-2286000D01*
X9906000Y-2341000D01*
X9906000Y-3865000D02*
X9961000Y-3810000D01*
X9906000Y-3755000D01*
X9851000Y-3810000D01*
X9906000Y-3865000D01*
X10160000Y-2341000D02*
X10215000Y-2286000D01*
X10160000Y-2231000D01*
X10105000Y-2286000D01*
X10160000Y-2341000D01*
X10160000Y-3865000D02*
X10215000Y-3810000D01*
X10160000Y-3755000D01*
X10105000Y-3810000D01*
X10160000Y-3865000D01*
X10414000Y-2341000D02*
X10469000Y-2286000D01*
X10414000Y-2231000D01*
X10359000Y-2286000D01*
X10414000Y-2341000D01*
X10414000Y-3865000D02*
X10469000Y-3810000D01*
X10414000Y-3755000D01*
X10359000Y-3810000D01*
X10414000Y-3865000D01*
X10668000Y-2341000D02*
X10723000Y-2286000D01*
X10668000Y-2231000D01*
X10613000Y-2286000D01*
X10668000Y-2341000D01*
X10668000Y-3865000D02*
X10723000Y-3810000D01*
X10668000Y-3755000D01*
X10613000Y-3810000D01*
X10668000Y-3865000D01*
X10922000Y-2341000D02*
X10977000Y-2286000D01*
X10922000Y-2231000D01*
X10867000Y-2286000D01*
X10922000Y-2341000D01*
X10922000Y-2595000D02*
X10977000Y-2540000D01*
X10922000Y-2485000D01*
X10867000Y-2540000D01*
X10922000Y-2595000D01*
X10922000Y-2849000D02*
X10977000Y-2794000D01*
X10922000Y-2739000D01*
X10867000Y-2794000D01*
X10922000Y-2849000D01*
X10922000Y-3103000D02*
X10977000Y-3048000D01*
X10922000Y-2993000D01*
X10867000Y-3048000D01*
X10922000Y-3103000D01*
X10922000Y-3357000D02*
X10977000Y-3302000D01*
X10922000Y-3247000D01*
X10867000Y-3302000D01*
X10922000Y-3357000D01*
X10922000Y-3611000D02*
X10977000Y-3556000D01*
X10922000Y-3501000D01*
X10867000Y-3556000D01*
X10922000Y-3611000D01*
X10922000Y-3865000D02*
X10977000Y-3810000D01*
X10922000Y-3755000D01*
X10867000Y-3810000D01*
X10922000Y-3865000D01*
X11176000Y-2341000D02*
X11231000Y-2286000D01*
X11176000Y-2231000D01*
X11121000Y-2286000D01*
X11176000Y-2341000D01*
X11176000Y-3865000D02*
X11231000Y-3810000D01*
X11176000Y-3755000D01*
X11121000Y-3810000D01*
X11176000Y-3865000D01*
X11430000Y-2341000D02*
X11485000Y-2286000D01*
X11430000Y-2231000D01*
X11375000Y-2286000D01*
X11430000Y-2341000D01*
X11430000Y-3865000D02*
X11485000Y-3810000D01*
X11430000Y-3755000D01*
X11375000Y-3810000D01*
X11430000Y-3865000D01*
X11684000Y-2341000D02*
X11739000Y-2286000D01*
X11684000Y-2231000D01*
X11629000Y-2286000D01*
X11684000Y-2341000D01*
X11684000Y-3865000D02*
X11739000Y-3810000D01*
X11684000Y-3755000D01*
X11629000Y-3810000D01*
X11684000Y-3865000D01*
X11938000Y-2341000D02*
X11993000Y-2286000D01*
X11938000Y-2231000D01*
X11883000Y-2286000D01*
X11938000Y-2341000D01*
X11938000Y-3865000D02*
X11993000Y-3810000D01*
X11938000Y-3755000D01*
X11883000Y-3810000D01*
X11938000Y-3865000D01*
X12192000Y-2341000D02*
X12247000Y-2286000D01*
X12192000Y-2231000D01*
X12137000Y-2286000D01*
X12192000Y-2341000D01*
X12192000Y-3865000D02*
X12247000Y-3810000D01*
X12192000Y-3755000D01*
X12137000Y-3810000D01*
X12192000Y-3865000D01*
D11*
X8324178Y-4788368D02*
X8524178Y-4988368D01*
X8524178Y-4788368D02*
X8324178Y-4988368D01*
X8524178Y-4888368D02*
G75*
G03*
X8524178Y-4888368I-100000J0D01*
G01*
X8324178Y-8524368D02*
X8524178Y-8724368D01*
X8524178Y-8524368D02*
X8324178Y-8724368D01*
X8524178Y-8624368D02*
G75*
G03*
X8524178Y-8624368I-100000J0D01*
G01*
X8924178Y-5132368D02*
X9124178Y-5332368D01*
X9124178Y-5132368D02*
X8924178Y-5332368D01*
X9124178Y-5232368D02*
G75*
G03*
X9124178Y-5232368I-100000J0D01*
G01*
X8924178Y-6656368D02*
X9124178Y-6856368D01*
X9124178Y-6656368D02*
X8924178Y-6856368D01*
X9124178Y-6756368D02*
G75*
G03*
X9124178Y-6756368I-100000J0D01*
G01*
X12693425Y-3431692D02*
X12893425Y-3631692D01*
X12893425Y-3431692D02*
X12693425Y-3631692D01*
X12893425Y-3531692D02*
G75*
G03*
X12893425Y-3531692I-100000J0D01*
G01*
X14124178Y-5132368D02*
X14324178Y-5332368D01*
X14324178Y-5132368D02*
X14124178Y-5332368D01*
X14324178Y-5232368D02*
G75*
G03*
X14324178Y-5232368I-100000J0D01*
G01*
X14124178Y-6656368D02*
X14324178Y-6856368D01*
X14324178Y-6656368D02*
X14124178Y-6856368D01*
X14324178Y-6756368D02*
G75*
G03*
X14324178Y-6756368I-100000J0D01*
G01*
X14374178Y-4788368D02*
X14574178Y-4988368D01*
X14574178Y-4788368D02*
X14374178Y-4988368D01*
X14574178Y-4888368D02*
G75*
G03*
X14574178Y-4888368I-100000J0D01*
G01*
X14374178Y-8524368D02*
X14574178Y-8724368D01*
X14574178Y-8524368D02*
X14374178Y-8724368D01*
X14574178Y-8624368D02*
G75*
G03*
X14574178Y-8624368I-100000J0D01*
G01*
X14551480Y-3457183D02*
X14751480Y-3657183D01*
X14751480Y-3457183D02*
X14551480Y-3657183D01*
X14751480Y-3557183D02*
G75*
G03*
X14751480Y-3557183I-100000J0D01*
G01*
D17*
X15113000Y-8418768D02*
X15383000Y-8688768D01*
X15383000Y-8418768D02*
X15113000Y-8688768D01*
X15248000Y-8418768D02*
X15248000Y-8688768D01*
X15113000Y-8553768D02*
X15383000Y-8553768D01*
X15613000Y-8418768D02*
X15883000Y-8688768D01*
X15883000Y-8418768D02*
X15613000Y-8688768D01*
X15748000Y-8418768D02*
X15748000Y-8688768D01*
X15613000Y-8553768D02*
X15883000Y-8553768D01*
D18*
X4455362Y-4482994D02*
X4775362Y-4802994D01*
X4775362Y-4482994D02*
X4455362Y-4802994D01*
X4728500Y-4756132D02*
X4728500Y-4529856D01*
X4502224Y-4529856D01*
X4502224Y-4756132D01*
X4728500Y-4756132D01*
X15123231Y-3882556D02*
X15443231Y-4202556D01*
X15443231Y-3882556D02*
X15123231Y-4202556D01*
X15396369Y-4155694D02*
X15396369Y-3929417D01*
X15170093Y-3929417D01*
X15170093Y-4155694D01*
X15396369Y-4155694D01*
X16348231Y-7632556D02*
X16668231Y-7952556D01*
X16668231Y-7632556D02*
X16348231Y-7952556D01*
X16621369Y-7905694D02*
X16621369Y-7679417D01*
X16395093Y-7679417D01*
X16395093Y-7905694D01*
X16621369Y-7905694D01*
X17573231Y-3882556D02*
X17893231Y-4202556D01*
X17893231Y-3882556D02*
X17573231Y-4202556D01*
X17846369Y-4155694D02*
X17846369Y-3929417D01*
X17620093Y-3929417D01*
X17620093Y-4155694D01*
X17846369Y-4155694D01*
D19*
X4426360Y-5792423D02*
X4826360Y-6192423D01*
X4826360Y-5792423D02*
X4426360Y-6192423D01*
X4626360Y-6192423D02*
X4826360Y-5992423D01*
X4626360Y-5792423D01*
X4426360Y-5992423D01*
X4626360Y-6192423D01*
X4426360Y-7697423D02*
X4826360Y-8097423D01*
X4826360Y-7697423D02*
X4426360Y-8097423D01*
X4626360Y-8097423D02*
X4826360Y-7897423D01*
X4626360Y-7697423D01*
X4426360Y-7897423D01*
X4626360Y-8097423D01*
X6414869Y-5792423D02*
X6814869Y-6192423D01*
X6814869Y-5792423D02*
X6414869Y-6192423D01*
X6614869Y-6192423D02*
X6814869Y-5992423D01*
X6614869Y-5792423D01*
X6414869Y-5992423D01*
X6614869Y-6192423D01*
X6414869Y-7697423D02*
X6814869Y-8097423D01*
X6814869Y-7697423D02*
X6414869Y-8097423D01*
X6614869Y-8097423D02*
X6814869Y-7897423D01*
X6614869Y-7697423D01*
X6414869Y-7897423D01*
X6614869Y-8097423D01*
D11*
X4449277Y-9203984D02*
X4449277Y-9003984D01*
X4449277Y-9003984D02*
X4496896Y-9003984D01*
X4496896Y-9003984D02*
X4525467Y-9013508D01*
X4525467Y-9013508D02*
X4544515Y-9032555D01*
X4544515Y-9032555D02*
X4554039Y-9051603D01*
X4554039Y-9051603D02*
X4563563Y-9089698D01*
X4563563Y-9089698D02*
X4563563Y-9118270D01*
X4563563Y-9118270D02*
X4554039Y-9156365D01*
X4554039Y-9156365D02*
X4544515Y-9175412D01*
X4544515Y-9175412D02*
X4525467Y-9194460D01*
X4525467Y-9194460D02*
X4496896Y-9203984D01*
X4496896Y-9203984D02*
X4449277Y-9203984D01*
X4649277Y-9203984D02*
X4649277Y-9070650D01*
X4649277Y-9108746D02*
X4658801Y-9089698D01*
X4658801Y-9089698D02*
X4668324Y-9080174D01*
X4668324Y-9080174D02*
X4687372Y-9070650D01*
X4687372Y-9070650D02*
X4706420Y-9070650D01*
X4773086Y-9203984D02*
X4773086Y-9070650D01*
X4773086Y-9003984D02*
X4763563Y-9013508D01*
X4763563Y-9013508D02*
X4773086Y-9023031D01*
X4773086Y-9023031D02*
X4782610Y-9013508D01*
X4782610Y-9013508D02*
X4773086Y-9003984D01*
X4773086Y-9003984D02*
X4773086Y-9023031D01*
X4896896Y-9203984D02*
X4877848Y-9194460D01*
X4877848Y-9194460D02*
X4868324Y-9175412D01*
X4868324Y-9175412D02*
X4868324Y-9003984D01*
X5001658Y-9203984D02*
X4982610Y-9194460D01*
X4982610Y-9194460D02*
X4973086Y-9175412D01*
X4973086Y-9175412D02*
X4973086Y-9003984D01*
X5230229Y-9203984D02*
X5230229Y-9003984D01*
X5230229Y-9003984D02*
X5296896Y-9146841D01*
X5296896Y-9146841D02*
X5363563Y-9003984D01*
X5363563Y-9003984D02*
X5363563Y-9203984D01*
X5544515Y-9203984D02*
X5544515Y-9099222D01*
X5544515Y-9099222D02*
X5534991Y-9080174D01*
X5534991Y-9080174D02*
X5515944Y-9070650D01*
X5515944Y-9070650D02*
X5477848Y-9070650D01*
X5477848Y-9070650D02*
X5458801Y-9080174D01*
X5544515Y-9194460D02*
X5525467Y-9203984D01*
X5525467Y-9203984D02*
X5477848Y-9203984D01*
X5477848Y-9203984D02*
X5458801Y-9194460D01*
X5458801Y-9194460D02*
X5449277Y-9175412D01*
X5449277Y-9175412D02*
X5449277Y-9156365D01*
X5449277Y-9156365D02*
X5458801Y-9137317D01*
X5458801Y-9137317D02*
X5477848Y-9127793D01*
X5477848Y-9127793D02*
X5525467Y-9127793D01*
X5525467Y-9127793D02*
X5544515Y-9118270D01*
X5639753Y-9070650D02*
X5639753Y-9270650D01*
X5639753Y-9080174D02*
X5658801Y-9070650D01*
X5658801Y-9070650D02*
X5696896Y-9070650D01*
X5696896Y-9070650D02*
X5715943Y-9080174D01*
X5715943Y-9080174D02*
X5725467Y-9089698D01*
X5725467Y-9089698D02*
X5734991Y-9108746D01*
X5734991Y-9108746D02*
X5734991Y-9165889D01*
X5734991Y-9165889D02*
X5725467Y-9184936D01*
X5725467Y-9184936D02*
X5715943Y-9194460D01*
X5715943Y-9194460D02*
X5696896Y-9203984D01*
X5696896Y-9203984D02*
X5658801Y-9203984D01*
X5658801Y-9203984D02*
X5639753Y-9194460D01*
X5820705Y-9184936D02*
X5830229Y-9194460D01*
X5830229Y-9194460D02*
X5820705Y-9203984D01*
X5820705Y-9203984D02*
X5811182Y-9194460D01*
X5811182Y-9194460D02*
X5820705Y-9184936D01*
X5820705Y-9184936D02*
X5820705Y-9203984D01*
X5820705Y-9080174D02*
X5830229Y-9089698D01*
X5830229Y-9089698D02*
X5820705Y-9099222D01*
X5820705Y-9099222D02*
X5811182Y-9089698D01*
X5811182Y-9089698D02*
X5820705Y-9080174D01*
X5820705Y-9080174D02*
X5820705Y-9099222D01*
D12*
X4148500Y-9512500D02*
X4188500Y-9552500D01*
X4188500Y-9512500D02*
X4148500Y-9552500D01*
D11*
X4487372Y-9423984D02*
X4506420Y-9423984D01*
X4506420Y-9423984D02*
X4525467Y-9433508D01*
X4525467Y-9433508D02*
X4534991Y-9443031D01*
X4534991Y-9443031D02*
X4544515Y-9462079D01*
X4544515Y-9462079D02*
X4554039Y-9500174D01*
X4554039Y-9500174D02*
X4554039Y-9547793D01*
X4554039Y-9547793D02*
X4544515Y-9585889D01*
X4544515Y-9585889D02*
X4534991Y-9604936D01*
X4534991Y-9604936D02*
X4525467Y-9614460D01*
X4525467Y-9614460D02*
X4506420Y-9623984D01*
X4506420Y-9623984D02*
X4487372Y-9623984D01*
X4487372Y-9623984D02*
X4468324Y-9614460D01*
X4468324Y-9614460D02*
X4458801Y-9604936D01*
X4458801Y-9604936D02*
X4449277Y-9585889D01*
X4449277Y-9585889D02*
X4439753Y-9547793D01*
X4439753Y-9547793D02*
X4439753Y-9500174D01*
X4439753Y-9500174D02*
X4449277Y-9462079D01*
X4449277Y-9462079D02*
X4458801Y-9443031D01*
X4458801Y-9443031D02*
X4468324Y-9433508D01*
X4468324Y-9433508D02*
X4487372Y-9423984D01*
X4639753Y-9604936D02*
X4649277Y-9614460D01*
X4649277Y-9614460D02*
X4639753Y-9623984D01*
X4639753Y-9623984D02*
X4630229Y-9614460D01*
X4630229Y-9614460D02*
X4639753Y-9604936D01*
X4639753Y-9604936D02*
X4639753Y-9623984D01*
X4820705Y-9490650D02*
X4820705Y-9623984D01*
X4773086Y-9414460D02*
X4725467Y-9557317D01*
X4725467Y-9557317D02*
X4849277Y-9557317D01*
X4963563Y-9423984D02*
X4982610Y-9423984D01*
X4982610Y-9423984D02*
X5001658Y-9433508D01*
X5001658Y-9433508D02*
X5011182Y-9443031D01*
X5011182Y-9443031D02*
X5020705Y-9462079D01*
X5020705Y-9462079D02*
X5030229Y-9500174D01*
X5030229Y-9500174D02*
X5030229Y-9547793D01*
X5030229Y-9547793D02*
X5020705Y-9585889D01*
X5020705Y-9585889D02*
X5011182Y-9604936D01*
X5011182Y-9604936D02*
X5001658Y-9614460D01*
X5001658Y-9614460D02*
X4982610Y-9623984D01*
X4982610Y-9623984D02*
X4963563Y-9623984D01*
X4963563Y-9623984D02*
X4944515Y-9614460D01*
X4944515Y-9614460D02*
X4934991Y-9604936D01*
X4934991Y-9604936D02*
X4925467Y-9585889D01*
X4925467Y-9585889D02*
X4915944Y-9547793D01*
X4915944Y-9547793D02*
X4915944Y-9500174D01*
X4915944Y-9500174D02*
X4925467Y-9462079D01*
X4925467Y-9462079D02*
X4934991Y-9443031D01*
X4934991Y-9443031D02*
X4944515Y-9433508D01*
X4944515Y-9433508D02*
X4963563Y-9423984D01*
X5154039Y-9423984D02*
X5173086Y-9423984D01*
X5173086Y-9423984D02*
X5192134Y-9433508D01*
X5192134Y-9433508D02*
X5201658Y-9443031D01*
X5201658Y-9443031D02*
X5211182Y-9462079D01*
X5211182Y-9462079D02*
X5220705Y-9500174D01*
X5220705Y-9500174D02*
X5220705Y-9547793D01*
X5220705Y-9547793D02*
X5211182Y-9585889D01*
X5211182Y-9585889D02*
X5201658Y-9604936D01*
X5201658Y-9604936D02*
X5192134Y-9614460D01*
X5192134Y-9614460D02*
X5173086Y-9623984D01*
X5173086Y-9623984D02*
X5154039Y-9623984D01*
X5154039Y-9623984D02*
X5134991Y-9614460D01*
X5134991Y-9614460D02*
X5125467Y-9604936D01*
X5125467Y-9604936D02*
X5115944Y-9585889D01*
X5115944Y-9585889D02*
X5106420Y-9547793D01*
X5106420Y-9547793D02*
X5106420Y-9500174D01*
X5106420Y-9500174D02*
X5115944Y-9462079D01*
X5115944Y-9462079D02*
X5125467Y-9443031D01*
X5125467Y-9443031D02*
X5134991Y-9433508D01*
X5134991Y-9433508D02*
X5154039Y-9423984D01*
X5306420Y-9623984D02*
X5306420Y-9490650D01*
X5306420Y-9509698D02*
X5315944Y-9500174D01*
X5315944Y-9500174D02*
X5334991Y-9490650D01*
X5334991Y-9490650D02*
X5363563Y-9490650D01*
X5363563Y-9490650D02*
X5382610Y-9500174D01*
X5382610Y-9500174D02*
X5392134Y-9519222D01*
X5392134Y-9519222D02*
X5392134Y-9623984D01*
X5392134Y-9519222D02*
X5401658Y-9500174D01*
X5401658Y-9500174D02*
X5420705Y-9490650D01*
X5420705Y-9490650D02*
X5449277Y-9490650D01*
X5449277Y-9490650D02*
X5468325Y-9500174D01*
X5468325Y-9500174D02*
X5477848Y-9519222D01*
X5477848Y-9519222D02*
X5477848Y-9623984D01*
X5573086Y-9623984D02*
X5573086Y-9490650D01*
X5573086Y-9509698D02*
X5582610Y-9500174D01*
X5582610Y-9500174D02*
X5601658Y-9490650D01*
X5601658Y-9490650D02*
X5630229Y-9490650D01*
X5630229Y-9490650D02*
X5649277Y-9500174D01*
X5649277Y-9500174D02*
X5658801Y-9519222D01*
X5658801Y-9519222D02*
X5658801Y-9623984D01*
X5658801Y-9519222D02*
X5668324Y-9500174D01*
X5668324Y-9500174D02*
X5687372Y-9490650D01*
X5687372Y-9490650D02*
X5715943Y-9490650D01*
X5715943Y-9490650D02*
X5734991Y-9500174D01*
X5734991Y-9500174D02*
X5744515Y-9519222D01*
X5744515Y-9519222D02*
X5744515Y-9623984D01*
X6134991Y-9414460D02*
X5963563Y-9671603D01*
X6392134Y-9423984D02*
X6411182Y-9423984D01*
X6411182Y-9423984D02*
X6430229Y-9433508D01*
X6430229Y-9433508D02*
X6439753Y-9443031D01*
X6439753Y-9443031D02*
X6449277Y-9462079D01*
X6449277Y-9462079D02*
X6458801Y-9500174D01*
X6458801Y-9500174D02*
X6458801Y-9547793D01*
X6458801Y-9547793D02*
X6449277Y-9585889D01*
X6449277Y-9585889D02*
X6439753Y-9604936D01*
X6439753Y-9604936D02*
X6430229Y-9614460D01*
X6430229Y-9614460D02*
X6411182Y-9623984D01*
X6411182Y-9623984D02*
X6392134Y-9623984D01*
X6392134Y-9623984D02*
X6373086Y-9614460D01*
X6373086Y-9614460D02*
X6363563Y-9604936D01*
X6363563Y-9604936D02*
X6354039Y-9585889D01*
X6354039Y-9585889D02*
X6344515Y-9547793D01*
X6344515Y-9547793D02*
X6344515Y-9500174D01*
X6344515Y-9500174D02*
X6354039Y-9462079D01*
X6354039Y-9462079D02*
X6363563Y-9443031D01*
X6363563Y-9443031D02*
X6373086Y-9433508D01*
X6373086Y-9433508D02*
X6392134Y-9423984D01*
X6544515Y-9604936D02*
X6554039Y-9614460D01*
X6554039Y-9614460D02*
X6544515Y-9623984D01*
X6544515Y-9623984D02*
X6534991Y-9614460D01*
X6534991Y-9614460D02*
X6544515Y-9604936D01*
X6544515Y-9604936D02*
X6544515Y-9623984D01*
X6677848Y-9423984D02*
X6696896Y-9423984D01*
X6696896Y-9423984D02*
X6715944Y-9433508D01*
X6715944Y-9433508D02*
X6725467Y-9443031D01*
X6725467Y-9443031D02*
X6734991Y-9462079D01*
X6734991Y-9462079D02*
X6744515Y-9500174D01*
X6744515Y-9500174D02*
X6744515Y-9547793D01*
X6744515Y-9547793D02*
X6734991Y-9585889D01*
X6734991Y-9585889D02*
X6725467Y-9604936D01*
X6725467Y-9604936D02*
X6715944Y-9614460D01*
X6715944Y-9614460D02*
X6696896Y-9623984D01*
X6696896Y-9623984D02*
X6677848Y-9623984D01*
X6677848Y-9623984D02*
X6658801Y-9614460D01*
X6658801Y-9614460D02*
X6649277Y-9604936D01*
X6649277Y-9604936D02*
X6639753Y-9585889D01*
X6639753Y-9585889D02*
X6630229Y-9547793D01*
X6630229Y-9547793D02*
X6630229Y-9500174D01*
X6630229Y-9500174D02*
X6639753Y-9462079D01*
X6639753Y-9462079D02*
X6649277Y-9443031D01*
X6649277Y-9443031D02*
X6658801Y-9433508D01*
X6658801Y-9433508D02*
X6677848Y-9423984D01*
X6934991Y-9623984D02*
X6820706Y-9623984D01*
X6877848Y-9623984D02*
X6877848Y-9423984D01*
X6877848Y-9423984D02*
X6858801Y-9452555D01*
X6858801Y-9452555D02*
X6839753Y-9471603D01*
X6839753Y-9471603D02*
X6820706Y-9481127D01*
X7115944Y-9423984D02*
X7020706Y-9423984D01*
X7020706Y-9423984D02*
X7011182Y-9519222D01*
X7011182Y-9519222D02*
X7020706Y-9509698D01*
X7020706Y-9509698D02*
X7039753Y-9500174D01*
X7039753Y-9500174D02*
X7087372Y-9500174D01*
X7087372Y-9500174D02*
X7106420Y-9509698D01*
X7106420Y-9509698D02*
X7115944Y-9519222D01*
X7115944Y-9519222D02*
X7125467Y-9538270D01*
X7125467Y-9538270D02*
X7125467Y-9585889D01*
X7125467Y-9585889D02*
X7115944Y-9604936D01*
X7115944Y-9604936D02*
X7106420Y-9614460D01*
X7106420Y-9614460D02*
X7087372Y-9623984D01*
X7087372Y-9623984D02*
X7039753Y-9623984D01*
X7039753Y-9623984D02*
X7020706Y-9614460D01*
X7020706Y-9614460D02*
X7011182Y-9604936D01*
X7192134Y-9423984D02*
X7325467Y-9423984D01*
X7325467Y-9423984D02*
X7239753Y-9623984D01*
X7392134Y-9423984D02*
X7392134Y-9462079D01*
X7468325Y-9423984D02*
X7468325Y-9462079D01*
X7763563Y-9700174D02*
X7754039Y-9690650D01*
X7754039Y-9690650D02*
X7734991Y-9662079D01*
X7734991Y-9662079D02*
X7725468Y-9643031D01*
X7725468Y-9643031D02*
X7715944Y-9614460D01*
X7715944Y-9614460D02*
X7706420Y-9566841D01*
X7706420Y-9566841D02*
X7706420Y-9528746D01*
X7706420Y-9528746D02*
X7715944Y-9481127D01*
X7715944Y-9481127D02*
X7725468Y-9452555D01*
X7725468Y-9452555D02*
X7734991Y-9433508D01*
X7734991Y-9433508D02*
X7754039Y-9404936D01*
X7754039Y-9404936D02*
X7763563Y-9395412D01*
X7944515Y-9623984D02*
X7830229Y-9623984D01*
X7887372Y-9623984D02*
X7887372Y-9423984D01*
X7887372Y-9423984D02*
X7868325Y-9452555D01*
X7868325Y-9452555D02*
X7849277Y-9471603D01*
X7849277Y-9471603D02*
X7830229Y-9481127D01*
X8039753Y-9623984D02*
X8077848Y-9623984D01*
X8077848Y-9623984D02*
X8096896Y-9614460D01*
X8096896Y-9614460D02*
X8106420Y-9604936D01*
X8106420Y-9604936D02*
X8125468Y-9576365D01*
X8125468Y-9576365D02*
X8134991Y-9538270D01*
X8134991Y-9538270D02*
X8134991Y-9462079D01*
X8134991Y-9462079D02*
X8125468Y-9443031D01*
X8125468Y-9443031D02*
X8115944Y-9433508D01*
X8115944Y-9433508D02*
X8096896Y-9423984D01*
X8096896Y-9423984D02*
X8058801Y-9423984D01*
X8058801Y-9423984D02*
X8039753Y-9433508D01*
X8039753Y-9433508D02*
X8030229Y-9443031D01*
X8030229Y-9443031D02*
X8020706Y-9462079D01*
X8020706Y-9462079D02*
X8020706Y-9509698D01*
X8020706Y-9509698D02*
X8030229Y-9528746D01*
X8030229Y-9528746D02*
X8039753Y-9538270D01*
X8039753Y-9538270D02*
X8058801Y-9547793D01*
X8058801Y-9547793D02*
X8096896Y-9547793D01*
X8096896Y-9547793D02*
X8115944Y-9538270D01*
X8115944Y-9538270D02*
X8125468Y-9528746D01*
X8125468Y-9528746D02*
X8134991Y-9509698D01*
X8373087Y-9623984D02*
X8373087Y-9423984D01*
X8458801Y-9623984D02*
X8458801Y-9519222D01*
X8458801Y-9519222D02*
X8449277Y-9500174D01*
X8449277Y-9500174D02*
X8430230Y-9490650D01*
X8430230Y-9490650D02*
X8401658Y-9490650D01*
X8401658Y-9490650D02*
X8382610Y-9500174D01*
X8382610Y-9500174D02*
X8373087Y-9509698D01*
X8582611Y-9623984D02*
X8563563Y-9614460D01*
X8563563Y-9614460D02*
X8554039Y-9604936D01*
X8554039Y-9604936D02*
X8544515Y-9585889D01*
X8544515Y-9585889D02*
X8544515Y-9528746D01*
X8544515Y-9528746D02*
X8554039Y-9509698D01*
X8554039Y-9509698D02*
X8563563Y-9500174D01*
X8563563Y-9500174D02*
X8582611Y-9490650D01*
X8582611Y-9490650D02*
X8611182Y-9490650D01*
X8611182Y-9490650D02*
X8630230Y-9500174D01*
X8630230Y-9500174D02*
X8639753Y-9509698D01*
X8639753Y-9509698D02*
X8649277Y-9528746D01*
X8649277Y-9528746D02*
X8649277Y-9585889D01*
X8649277Y-9585889D02*
X8639753Y-9604936D01*
X8639753Y-9604936D02*
X8630230Y-9614460D01*
X8630230Y-9614460D02*
X8611182Y-9623984D01*
X8611182Y-9623984D02*
X8582611Y-9623984D01*
X8763563Y-9623984D02*
X8744515Y-9614460D01*
X8744515Y-9614460D02*
X8734992Y-9595412D01*
X8734992Y-9595412D02*
X8734992Y-9423984D01*
X8915944Y-9614460D02*
X8896896Y-9623984D01*
X8896896Y-9623984D02*
X8858801Y-9623984D01*
X8858801Y-9623984D02*
X8839753Y-9614460D01*
X8839753Y-9614460D02*
X8830230Y-9595412D01*
X8830230Y-9595412D02*
X8830230Y-9519222D01*
X8830230Y-9519222D02*
X8839753Y-9500174D01*
X8839753Y-9500174D02*
X8858801Y-9490650D01*
X8858801Y-9490650D02*
X8896896Y-9490650D01*
X8896896Y-9490650D02*
X8915944Y-9500174D01*
X8915944Y-9500174D02*
X8925468Y-9519222D01*
X8925468Y-9519222D02*
X8925468Y-9538270D01*
X8925468Y-9538270D02*
X8830230Y-9557317D01*
X9001658Y-9614460D02*
X9020706Y-9623984D01*
X9020706Y-9623984D02*
X9058801Y-9623984D01*
X9058801Y-9623984D02*
X9077849Y-9614460D01*
X9077849Y-9614460D02*
X9087373Y-9595412D01*
X9087373Y-9595412D02*
X9087373Y-9585889D01*
X9087373Y-9585889D02*
X9077849Y-9566841D01*
X9077849Y-9566841D02*
X9058801Y-9557317D01*
X9058801Y-9557317D02*
X9030230Y-9557317D01*
X9030230Y-9557317D02*
X9011182Y-9547793D01*
X9011182Y-9547793D02*
X9001658Y-9528746D01*
X9001658Y-9528746D02*
X9001658Y-9519222D01*
X9001658Y-9519222D02*
X9011182Y-9500174D01*
X9011182Y-9500174D02*
X9030230Y-9490650D01*
X9030230Y-9490650D02*
X9058801Y-9490650D01*
X9058801Y-9490650D02*
X9077849Y-9500174D01*
X9154039Y-9700174D02*
X9163563Y-9690650D01*
X9163563Y-9690650D02*
X9182611Y-9662079D01*
X9182611Y-9662079D02*
X9192134Y-9643031D01*
X9192134Y-9643031D02*
X9201658Y-9614460D01*
X9201658Y-9614460D02*
X9211182Y-9566841D01*
X9211182Y-9566841D02*
X9211182Y-9528746D01*
X9211182Y-9528746D02*
X9201658Y-9481127D01*
X9201658Y-9481127D02*
X9192134Y-9452555D01*
X9192134Y-9452555D02*
X9182611Y-9433508D01*
X9182611Y-9433508D02*
X9163563Y-9404936D01*
X9163563Y-9404936D02*
X9154039Y-9395412D01*
D13*
X4188500Y-9796500D02*
G75*
G03*
X4188500Y-9796500I-40000J0D01*
G01*
D11*
X4487372Y-9687984D02*
X4506420Y-9687984D01*
X4506420Y-9687984D02*
X4525467Y-9697508D01*
X4525467Y-9697508D02*
X4534991Y-9707031D01*
X4534991Y-9707031D02*
X4544515Y-9726079D01*
X4544515Y-9726079D02*
X4554039Y-9764174D01*
X4554039Y-9764174D02*
X4554039Y-9811793D01*
X4554039Y-9811793D02*
X4544515Y-9849889D01*
X4544515Y-9849889D02*
X4534991Y-9868936D01*
X4534991Y-9868936D02*
X4525467Y-9878460D01*
X4525467Y-9878460D02*
X4506420Y-9887984D01*
X4506420Y-9887984D02*
X4487372Y-9887984D01*
X4487372Y-9887984D02*
X4468324Y-9878460D01*
X4468324Y-9878460D02*
X4458801Y-9868936D01*
X4458801Y-9868936D02*
X4449277Y-9849889D01*
X4449277Y-9849889D02*
X4439753Y-9811793D01*
X4439753Y-9811793D02*
X4439753Y-9764174D01*
X4439753Y-9764174D02*
X4449277Y-9726079D01*
X4449277Y-9726079D02*
X4458801Y-9707031D01*
X4458801Y-9707031D02*
X4468324Y-9697508D01*
X4468324Y-9697508D02*
X4487372Y-9687984D01*
X4639753Y-9868936D02*
X4649277Y-9878460D01*
X4649277Y-9878460D02*
X4639753Y-9887984D01*
X4639753Y-9887984D02*
X4630229Y-9878460D01*
X4630229Y-9878460D02*
X4639753Y-9868936D01*
X4639753Y-9868936D02*
X4639753Y-9887984D01*
X4763563Y-9773698D02*
X4744515Y-9764174D01*
X4744515Y-9764174D02*
X4734991Y-9754650D01*
X4734991Y-9754650D02*
X4725467Y-9735603D01*
X4725467Y-9735603D02*
X4725467Y-9726079D01*
X4725467Y-9726079D02*
X4734991Y-9707031D01*
X4734991Y-9707031D02*
X4744515Y-9697508D01*
X4744515Y-9697508D02*
X4763563Y-9687984D01*
X4763563Y-9687984D02*
X4801658Y-9687984D01*
X4801658Y-9687984D02*
X4820705Y-9697508D01*
X4820705Y-9697508D02*
X4830229Y-9707031D01*
X4830229Y-9707031D02*
X4839753Y-9726079D01*
X4839753Y-9726079D02*
X4839753Y-9735603D01*
X4839753Y-9735603D02*
X4830229Y-9754650D01*
X4830229Y-9754650D02*
X4820705Y-9764174D01*
X4820705Y-9764174D02*
X4801658Y-9773698D01*
X4801658Y-9773698D02*
X4763563Y-9773698D01*
X4763563Y-9773698D02*
X4744515Y-9783222D01*
X4744515Y-9783222D02*
X4734991Y-9792746D01*
X4734991Y-9792746D02*
X4725467Y-9811793D01*
X4725467Y-9811793D02*
X4725467Y-9849889D01*
X4725467Y-9849889D02*
X4734991Y-9868936D01*
X4734991Y-9868936D02*
X4744515Y-9878460D01*
X4744515Y-9878460D02*
X4763563Y-9887984D01*
X4763563Y-9887984D02*
X4801658Y-9887984D01*
X4801658Y-9887984D02*
X4820705Y-9878460D01*
X4820705Y-9878460D02*
X4830229Y-9868936D01*
X4830229Y-9868936D02*
X4839753Y-9849889D01*
X4839753Y-9849889D02*
X4839753Y-9811793D01*
X4839753Y-9811793D02*
X4830229Y-9792746D01*
X4830229Y-9792746D02*
X4820705Y-9783222D01*
X4820705Y-9783222D02*
X4801658Y-9773698D01*
X4963563Y-9687984D02*
X4982610Y-9687984D01*
X4982610Y-9687984D02*
X5001658Y-9697508D01*
X5001658Y-9697508D02*
X5011182Y-9707031D01*
X5011182Y-9707031D02*
X5020705Y-9726079D01*
X5020705Y-9726079D02*
X5030229Y-9764174D01*
X5030229Y-9764174D02*
X5030229Y-9811793D01*
X5030229Y-9811793D02*
X5020705Y-9849889D01*
X5020705Y-9849889D02*
X5011182Y-9868936D01*
X5011182Y-9868936D02*
X5001658Y-9878460D01*
X5001658Y-9878460D02*
X4982610Y-9887984D01*
X4982610Y-9887984D02*
X4963563Y-9887984D01*
X4963563Y-9887984D02*
X4944515Y-9878460D01*
X4944515Y-9878460D02*
X4934991Y-9868936D01*
X4934991Y-9868936D02*
X4925467Y-9849889D01*
X4925467Y-9849889D02*
X4915944Y-9811793D01*
X4915944Y-9811793D02*
X4915944Y-9764174D01*
X4915944Y-9764174D02*
X4925467Y-9726079D01*
X4925467Y-9726079D02*
X4934991Y-9707031D01*
X4934991Y-9707031D02*
X4944515Y-9697508D01*
X4944515Y-9697508D02*
X4963563Y-9687984D01*
X5154039Y-9687984D02*
X5173086Y-9687984D01*
X5173086Y-9687984D02*
X5192134Y-9697508D01*
X5192134Y-9697508D02*
X5201658Y-9707031D01*
X5201658Y-9707031D02*
X5211182Y-9726079D01*
X5211182Y-9726079D02*
X5220705Y-9764174D01*
X5220705Y-9764174D02*
X5220705Y-9811793D01*
X5220705Y-9811793D02*
X5211182Y-9849889D01*
X5211182Y-9849889D02*
X5201658Y-9868936D01*
X5201658Y-9868936D02*
X5192134Y-9878460D01*
X5192134Y-9878460D02*
X5173086Y-9887984D01*
X5173086Y-9887984D02*
X5154039Y-9887984D01*
X5154039Y-9887984D02*
X5134991Y-9878460D01*
X5134991Y-9878460D02*
X5125467Y-9868936D01*
X5125467Y-9868936D02*
X5115944Y-9849889D01*
X5115944Y-9849889D02*
X5106420Y-9811793D01*
X5106420Y-9811793D02*
X5106420Y-9764174D01*
X5106420Y-9764174D02*
X5115944Y-9726079D01*
X5115944Y-9726079D02*
X5125467Y-9707031D01*
X5125467Y-9707031D02*
X5134991Y-9697508D01*
X5134991Y-9697508D02*
X5154039Y-9687984D01*
X5306420Y-9887984D02*
X5306420Y-9754650D01*
X5306420Y-9773698D02*
X5315944Y-9764174D01*
X5315944Y-9764174D02*
X5334991Y-9754650D01*
X5334991Y-9754650D02*
X5363563Y-9754650D01*
X5363563Y-9754650D02*
X5382610Y-9764174D01*
X5382610Y-9764174D02*
X5392134Y-9783222D01*
X5392134Y-9783222D02*
X5392134Y-9887984D01*
X5392134Y-9783222D02*
X5401658Y-9764174D01*
X5401658Y-9764174D02*
X5420705Y-9754650D01*
X5420705Y-9754650D02*
X5449277Y-9754650D01*
X5449277Y-9754650D02*
X5468325Y-9764174D01*
X5468325Y-9764174D02*
X5477848Y-9783222D01*
X5477848Y-9783222D02*
X5477848Y-9887984D01*
X5573086Y-9887984D02*
X5573086Y-9754650D01*
X5573086Y-9773698D02*
X5582610Y-9764174D01*
X5582610Y-9764174D02*
X5601658Y-9754650D01*
X5601658Y-9754650D02*
X5630229Y-9754650D01*
X5630229Y-9754650D02*
X5649277Y-9764174D01*
X5649277Y-9764174D02*
X5658801Y-9783222D01*
X5658801Y-9783222D02*
X5658801Y-9887984D01*
X5658801Y-9783222D02*
X5668324Y-9764174D01*
X5668324Y-9764174D02*
X5687372Y-9754650D01*
X5687372Y-9754650D02*
X5715943Y-9754650D01*
X5715943Y-9754650D02*
X5734991Y-9764174D01*
X5734991Y-9764174D02*
X5744515Y-9783222D01*
X5744515Y-9783222D02*
X5744515Y-9887984D01*
X6134991Y-9678460D02*
X5963563Y-9935603D01*
X6392134Y-9687984D02*
X6411182Y-9687984D01*
X6411182Y-9687984D02*
X6430229Y-9697508D01*
X6430229Y-9697508D02*
X6439753Y-9707031D01*
X6439753Y-9707031D02*
X6449277Y-9726079D01*
X6449277Y-9726079D02*
X6458801Y-9764174D01*
X6458801Y-9764174D02*
X6458801Y-9811793D01*
X6458801Y-9811793D02*
X6449277Y-9849889D01*
X6449277Y-9849889D02*
X6439753Y-9868936D01*
X6439753Y-9868936D02*
X6430229Y-9878460D01*
X6430229Y-9878460D02*
X6411182Y-9887984D01*
X6411182Y-9887984D02*
X6392134Y-9887984D01*
X6392134Y-9887984D02*
X6373086Y-9878460D01*
X6373086Y-9878460D02*
X6363563Y-9868936D01*
X6363563Y-9868936D02*
X6354039Y-9849889D01*
X6354039Y-9849889D02*
X6344515Y-9811793D01*
X6344515Y-9811793D02*
X6344515Y-9764174D01*
X6344515Y-9764174D02*
X6354039Y-9726079D01*
X6354039Y-9726079D02*
X6363563Y-9707031D01*
X6363563Y-9707031D02*
X6373086Y-9697508D01*
X6373086Y-9697508D02*
X6392134Y-9687984D01*
X6544515Y-9868936D02*
X6554039Y-9878460D01*
X6554039Y-9878460D02*
X6544515Y-9887984D01*
X6544515Y-9887984D02*
X6534991Y-9878460D01*
X6534991Y-9878460D02*
X6544515Y-9868936D01*
X6544515Y-9868936D02*
X6544515Y-9887984D01*
X6677848Y-9687984D02*
X6696896Y-9687984D01*
X6696896Y-9687984D02*
X6715944Y-9697508D01*
X6715944Y-9697508D02*
X6725467Y-9707031D01*
X6725467Y-9707031D02*
X6734991Y-9726079D01*
X6734991Y-9726079D02*
X6744515Y-9764174D01*
X6744515Y-9764174D02*
X6744515Y-9811793D01*
X6744515Y-9811793D02*
X6734991Y-9849889D01*
X6734991Y-9849889D02*
X6725467Y-9868936D01*
X6725467Y-9868936D02*
X6715944Y-9878460D01*
X6715944Y-9878460D02*
X6696896Y-9887984D01*
X6696896Y-9887984D02*
X6677848Y-9887984D01*
X6677848Y-9887984D02*
X6658801Y-9878460D01*
X6658801Y-9878460D02*
X6649277Y-9868936D01*
X6649277Y-9868936D02*
X6639753Y-9849889D01*
X6639753Y-9849889D02*
X6630229Y-9811793D01*
X6630229Y-9811793D02*
X6630229Y-9764174D01*
X6630229Y-9764174D02*
X6639753Y-9726079D01*
X6639753Y-9726079D02*
X6649277Y-9707031D01*
X6649277Y-9707031D02*
X6658801Y-9697508D01*
X6658801Y-9697508D02*
X6677848Y-9687984D01*
X6811182Y-9687984D02*
X6934991Y-9687984D01*
X6934991Y-9687984D02*
X6868325Y-9764174D01*
X6868325Y-9764174D02*
X6896896Y-9764174D01*
X6896896Y-9764174D02*
X6915944Y-9773698D01*
X6915944Y-9773698D02*
X6925467Y-9783222D01*
X6925467Y-9783222D02*
X6934991Y-9802270D01*
X6934991Y-9802270D02*
X6934991Y-9849889D01*
X6934991Y-9849889D02*
X6925467Y-9868936D01*
X6925467Y-9868936D02*
X6915944Y-9878460D01*
X6915944Y-9878460D02*
X6896896Y-9887984D01*
X6896896Y-9887984D02*
X6839753Y-9887984D01*
X6839753Y-9887984D02*
X6820706Y-9878460D01*
X6820706Y-9878460D02*
X6811182Y-9868936D01*
X7125467Y-9887984D02*
X7011182Y-9887984D01*
X7068325Y-9887984D02*
X7068325Y-9687984D01*
X7068325Y-9687984D02*
X7049277Y-9716555D01*
X7049277Y-9716555D02*
X7030229Y-9735603D01*
X7030229Y-9735603D02*
X7011182Y-9745127D01*
X7306420Y-9687984D02*
X7211182Y-9687984D01*
X7211182Y-9687984D02*
X7201658Y-9783222D01*
X7201658Y-9783222D02*
X7211182Y-9773698D01*
X7211182Y-9773698D02*
X7230229Y-9764174D01*
X7230229Y-9764174D02*
X7277848Y-9764174D01*
X7277848Y-9764174D02*
X7296896Y-9773698D01*
X7296896Y-9773698D02*
X7306420Y-9783222D01*
X7306420Y-9783222D02*
X7315944Y-9802270D01*
X7315944Y-9802270D02*
X7315944Y-9849889D01*
X7315944Y-9849889D02*
X7306420Y-9868936D01*
X7306420Y-9868936D02*
X7296896Y-9878460D01*
X7296896Y-9878460D02*
X7277848Y-9887984D01*
X7277848Y-9887984D02*
X7230229Y-9887984D01*
X7230229Y-9887984D02*
X7211182Y-9878460D01*
X7211182Y-9878460D02*
X7201658Y-9868936D01*
X7392134Y-9687984D02*
X7392134Y-9726079D01*
X7468325Y-9687984D02*
X7468325Y-9726079D01*
X7763563Y-9964174D02*
X7754039Y-9954650D01*
X7754039Y-9954650D02*
X7734991Y-9926079D01*
X7734991Y-9926079D02*
X7725468Y-9907031D01*
X7725468Y-9907031D02*
X7715944Y-9878460D01*
X7715944Y-9878460D02*
X7706420Y-9830841D01*
X7706420Y-9830841D02*
X7706420Y-9792746D01*
X7706420Y-9792746D02*
X7715944Y-9745127D01*
X7715944Y-9745127D02*
X7725468Y-9716555D01*
X7725468Y-9716555D02*
X7734991Y-9697508D01*
X7734991Y-9697508D02*
X7754039Y-9668936D01*
X7754039Y-9668936D02*
X7763563Y-9659412D01*
X7944515Y-9887984D02*
X7830229Y-9887984D01*
X7887372Y-9887984D02*
X7887372Y-9687984D01*
X7887372Y-9687984D02*
X7868325Y-9716555D01*
X7868325Y-9716555D02*
X7849277Y-9735603D01*
X7849277Y-9735603D02*
X7830229Y-9745127D01*
X8115944Y-9687984D02*
X8077848Y-9687984D01*
X8077848Y-9687984D02*
X8058801Y-9697508D01*
X8058801Y-9697508D02*
X8049277Y-9707031D01*
X8049277Y-9707031D02*
X8030229Y-9735603D01*
X8030229Y-9735603D02*
X8020706Y-9773698D01*
X8020706Y-9773698D02*
X8020706Y-9849889D01*
X8020706Y-9849889D02*
X8030229Y-9868936D01*
X8030229Y-9868936D02*
X8039753Y-9878460D01*
X8039753Y-9878460D02*
X8058801Y-9887984D01*
X8058801Y-9887984D02*
X8096896Y-9887984D01*
X8096896Y-9887984D02*
X8115944Y-9878460D01*
X8115944Y-9878460D02*
X8125468Y-9868936D01*
X8125468Y-9868936D02*
X8134991Y-9849889D01*
X8134991Y-9849889D02*
X8134991Y-9802270D01*
X8134991Y-9802270D02*
X8125468Y-9783222D01*
X8125468Y-9783222D02*
X8115944Y-9773698D01*
X8115944Y-9773698D02*
X8096896Y-9764174D01*
X8096896Y-9764174D02*
X8058801Y-9764174D01*
X8058801Y-9764174D02*
X8039753Y-9773698D01*
X8039753Y-9773698D02*
X8030229Y-9783222D01*
X8030229Y-9783222D02*
X8020706Y-9802270D01*
X8373087Y-9887984D02*
X8373087Y-9687984D01*
X8458801Y-9887984D02*
X8458801Y-9783222D01*
X8458801Y-9783222D02*
X8449277Y-9764174D01*
X8449277Y-9764174D02*
X8430230Y-9754650D01*
X8430230Y-9754650D02*
X8401658Y-9754650D01*
X8401658Y-9754650D02*
X8382610Y-9764174D01*
X8382610Y-9764174D02*
X8373087Y-9773698D01*
X8582611Y-9887984D02*
X8563563Y-9878460D01*
X8563563Y-9878460D02*
X8554039Y-9868936D01*
X8554039Y-9868936D02*
X8544515Y-9849889D01*
X8544515Y-9849889D02*
X8544515Y-9792746D01*
X8544515Y-9792746D02*
X8554039Y-9773698D01*
X8554039Y-9773698D02*
X8563563Y-9764174D01*
X8563563Y-9764174D02*
X8582611Y-9754650D01*
X8582611Y-9754650D02*
X8611182Y-9754650D01*
X8611182Y-9754650D02*
X8630230Y-9764174D01*
X8630230Y-9764174D02*
X8639753Y-9773698D01*
X8639753Y-9773698D02*
X8649277Y-9792746D01*
X8649277Y-9792746D02*
X8649277Y-9849889D01*
X8649277Y-9849889D02*
X8639753Y-9868936D01*
X8639753Y-9868936D02*
X8630230Y-9878460D01*
X8630230Y-9878460D02*
X8611182Y-9887984D01*
X8611182Y-9887984D02*
X8582611Y-9887984D01*
X8763563Y-9887984D02*
X8744515Y-9878460D01*
X8744515Y-9878460D02*
X8734992Y-9859412D01*
X8734992Y-9859412D02*
X8734992Y-9687984D01*
X8915944Y-9878460D02*
X8896896Y-9887984D01*
X8896896Y-9887984D02*
X8858801Y-9887984D01*
X8858801Y-9887984D02*
X8839753Y-9878460D01*
X8839753Y-9878460D02*
X8830230Y-9859412D01*
X8830230Y-9859412D02*
X8830230Y-9783222D01*
X8830230Y-9783222D02*
X8839753Y-9764174D01*
X8839753Y-9764174D02*
X8858801Y-9754650D01*
X8858801Y-9754650D02*
X8896896Y-9754650D01*
X8896896Y-9754650D02*
X8915944Y-9764174D01*
X8915944Y-9764174D02*
X8925468Y-9783222D01*
X8925468Y-9783222D02*
X8925468Y-9802270D01*
X8925468Y-9802270D02*
X8830230Y-9821317D01*
X9001658Y-9878460D02*
X9020706Y-9887984D01*
X9020706Y-9887984D02*
X9058801Y-9887984D01*
X9058801Y-9887984D02*
X9077849Y-9878460D01*
X9077849Y-9878460D02*
X9087373Y-9859412D01*
X9087373Y-9859412D02*
X9087373Y-9849889D01*
X9087373Y-9849889D02*
X9077849Y-9830841D01*
X9077849Y-9830841D02*
X9058801Y-9821317D01*
X9058801Y-9821317D02*
X9030230Y-9821317D01*
X9030230Y-9821317D02*
X9011182Y-9811793D01*
X9011182Y-9811793D02*
X9001658Y-9792746D01*
X9001658Y-9792746D02*
X9001658Y-9783222D01*
X9001658Y-9783222D02*
X9011182Y-9764174D01*
X9011182Y-9764174D02*
X9030230Y-9754650D01*
X9030230Y-9754650D02*
X9058801Y-9754650D01*
X9058801Y-9754650D02*
X9077849Y-9764174D01*
X9154039Y-9964174D02*
X9163563Y-9954650D01*
X9163563Y-9954650D02*
X9182611Y-9926079D01*
X9182611Y-9926079D02*
X9192134Y-9907031D01*
X9192134Y-9907031D02*
X9201658Y-9878460D01*
X9201658Y-9878460D02*
X9211182Y-9830841D01*
X9211182Y-9830841D02*
X9211182Y-9792746D01*
X9211182Y-9792746D02*
X9201658Y-9745127D01*
X9201658Y-9745127D02*
X9192134Y-9716555D01*
X9192134Y-9716555D02*
X9182611Y-9697508D01*
X9182611Y-9697508D02*
X9163563Y-9668936D01*
X9163563Y-9668936D02*
X9154039Y-9659412D01*
D14*
X4138500Y-10010500D02*
X4138500Y-10110500D01*
X4088500Y-10060500D02*
X4188500Y-10060500D01*
D11*
X4554039Y-10151984D02*
X4439753Y-10151984D01*
X4496896Y-10151984D02*
X4496896Y-9951984D01*
X4496896Y-9951984D02*
X4477848Y-9980555D01*
X4477848Y-9980555D02*
X4458801Y-9999603D01*
X4458801Y-9999603D02*
X4439753Y-10009127D01*
X4639753Y-10132936D02*
X4649277Y-10142460D01*
X4649277Y-10142460D02*
X4639753Y-10151984D01*
X4639753Y-10151984D02*
X4630229Y-10142460D01*
X4630229Y-10142460D02*
X4639753Y-10132936D01*
X4639753Y-10132936D02*
X4639753Y-10151984D01*
X4773086Y-9951984D02*
X4792134Y-9951984D01*
X4792134Y-9951984D02*
X4811182Y-9961508D01*
X4811182Y-9961508D02*
X4820705Y-9971031D01*
X4820705Y-9971031D02*
X4830229Y-9990079D01*
X4830229Y-9990079D02*
X4839753Y-10028174D01*
X4839753Y-10028174D02*
X4839753Y-10075793D01*
X4839753Y-10075793D02*
X4830229Y-10113889D01*
X4830229Y-10113889D02*
X4820705Y-10132936D01*
X4820705Y-10132936D02*
X4811182Y-10142460D01*
X4811182Y-10142460D02*
X4792134Y-10151984D01*
X4792134Y-10151984D02*
X4773086Y-10151984D01*
X4773086Y-10151984D02*
X4754039Y-10142460D01*
X4754039Y-10142460D02*
X4744515Y-10132936D01*
X4744515Y-10132936D02*
X4734991Y-10113889D01*
X4734991Y-10113889D02*
X4725467Y-10075793D01*
X4725467Y-10075793D02*
X4725467Y-10028174D01*
X4725467Y-10028174D02*
X4734991Y-9990079D01*
X4734991Y-9990079D02*
X4744515Y-9971031D01*
X4744515Y-9971031D02*
X4754039Y-9961508D01*
X4754039Y-9961508D02*
X4773086Y-9951984D01*
X4963563Y-9951984D02*
X4982610Y-9951984D01*
X4982610Y-9951984D02*
X5001658Y-9961508D01*
X5001658Y-9961508D02*
X5011182Y-9971031D01*
X5011182Y-9971031D02*
X5020705Y-9990079D01*
X5020705Y-9990079D02*
X5030229Y-10028174D01*
X5030229Y-10028174D02*
X5030229Y-10075793D01*
X5030229Y-10075793D02*
X5020705Y-10113889D01*
X5020705Y-10113889D02*
X5011182Y-10132936D01*
X5011182Y-10132936D02*
X5001658Y-10142460D01*
X5001658Y-10142460D02*
X4982610Y-10151984D01*
X4982610Y-10151984D02*
X4963563Y-10151984D01*
X4963563Y-10151984D02*
X4944515Y-10142460D01*
X4944515Y-10142460D02*
X4934991Y-10132936D01*
X4934991Y-10132936D02*
X4925467Y-10113889D01*
X4925467Y-10113889D02*
X4915944Y-10075793D01*
X4915944Y-10075793D02*
X4915944Y-10028174D01*
X4915944Y-10028174D02*
X4925467Y-9990079D01*
X4925467Y-9990079D02*
X4934991Y-9971031D01*
X4934991Y-9971031D02*
X4944515Y-9961508D01*
X4944515Y-9961508D02*
X4963563Y-9951984D01*
X5154039Y-9951984D02*
X5173086Y-9951984D01*
X5173086Y-9951984D02*
X5192134Y-9961508D01*
X5192134Y-9961508D02*
X5201658Y-9971031D01*
X5201658Y-9971031D02*
X5211182Y-9990079D01*
X5211182Y-9990079D02*
X5220705Y-10028174D01*
X5220705Y-10028174D02*
X5220705Y-10075793D01*
X5220705Y-10075793D02*
X5211182Y-10113889D01*
X5211182Y-10113889D02*
X5201658Y-10132936D01*
X5201658Y-10132936D02*
X5192134Y-10142460D01*
X5192134Y-10142460D02*
X5173086Y-10151984D01*
X5173086Y-10151984D02*
X5154039Y-10151984D01*
X5154039Y-10151984D02*
X5134991Y-10142460D01*
X5134991Y-10142460D02*
X5125467Y-10132936D01*
X5125467Y-10132936D02*
X5115944Y-10113889D01*
X5115944Y-10113889D02*
X5106420Y-10075793D01*
X5106420Y-10075793D02*
X5106420Y-10028174D01*
X5106420Y-10028174D02*
X5115944Y-9990079D01*
X5115944Y-9990079D02*
X5125467Y-9971031D01*
X5125467Y-9971031D02*
X5134991Y-9961508D01*
X5134991Y-9961508D02*
X5154039Y-9951984D01*
X5306420Y-10151984D02*
X5306420Y-10018650D01*
X5306420Y-10037698D02*
X5315944Y-10028174D01*
X5315944Y-10028174D02*
X5334991Y-10018650D01*
X5334991Y-10018650D02*
X5363563Y-10018650D01*
X5363563Y-10018650D02*
X5382610Y-10028174D01*
X5382610Y-10028174D02*
X5392134Y-10047222D01*
X5392134Y-10047222D02*
X5392134Y-10151984D01*
X5392134Y-10047222D02*
X5401658Y-10028174D01*
X5401658Y-10028174D02*
X5420705Y-10018650D01*
X5420705Y-10018650D02*
X5449277Y-10018650D01*
X5449277Y-10018650D02*
X5468325Y-10028174D01*
X5468325Y-10028174D02*
X5477848Y-10047222D01*
X5477848Y-10047222D02*
X5477848Y-10151984D01*
X5573086Y-10151984D02*
X5573086Y-10018650D01*
X5573086Y-10037698D02*
X5582610Y-10028174D01*
X5582610Y-10028174D02*
X5601658Y-10018650D01*
X5601658Y-10018650D02*
X5630229Y-10018650D01*
X5630229Y-10018650D02*
X5649277Y-10028174D01*
X5649277Y-10028174D02*
X5658801Y-10047222D01*
X5658801Y-10047222D02*
X5658801Y-10151984D01*
X5658801Y-10047222D02*
X5668324Y-10028174D01*
X5668324Y-10028174D02*
X5687372Y-10018650D01*
X5687372Y-10018650D02*
X5715943Y-10018650D01*
X5715943Y-10018650D02*
X5734991Y-10028174D01*
X5734991Y-10028174D02*
X5744515Y-10047222D01*
X5744515Y-10047222D02*
X5744515Y-10151984D01*
X6134991Y-9942460D02*
X5963563Y-10199603D01*
X6392134Y-9951984D02*
X6411182Y-9951984D01*
X6411182Y-9951984D02*
X6430229Y-9961508D01*
X6430229Y-9961508D02*
X6439753Y-9971031D01*
X6439753Y-9971031D02*
X6449277Y-9990079D01*
X6449277Y-9990079D02*
X6458801Y-10028174D01*
X6458801Y-10028174D02*
X6458801Y-10075793D01*
X6458801Y-10075793D02*
X6449277Y-10113889D01*
X6449277Y-10113889D02*
X6439753Y-10132936D01*
X6439753Y-10132936D02*
X6430229Y-10142460D01*
X6430229Y-10142460D02*
X6411182Y-10151984D01*
X6411182Y-10151984D02*
X6392134Y-10151984D01*
X6392134Y-10151984D02*
X6373086Y-10142460D01*
X6373086Y-10142460D02*
X6363563Y-10132936D01*
X6363563Y-10132936D02*
X6354039Y-10113889D01*
X6354039Y-10113889D02*
X6344515Y-10075793D01*
X6344515Y-10075793D02*
X6344515Y-10028174D01*
X6344515Y-10028174D02*
X6354039Y-9990079D01*
X6354039Y-9990079D02*
X6363563Y-9971031D01*
X6363563Y-9971031D02*
X6373086Y-9961508D01*
X6373086Y-9961508D02*
X6392134Y-9951984D01*
X6544515Y-10132936D02*
X6554039Y-10142460D01*
X6554039Y-10142460D02*
X6544515Y-10151984D01*
X6544515Y-10151984D02*
X6534991Y-10142460D01*
X6534991Y-10142460D02*
X6544515Y-10132936D01*
X6544515Y-10132936D02*
X6544515Y-10151984D01*
X6677848Y-9951984D02*
X6696896Y-9951984D01*
X6696896Y-9951984D02*
X6715944Y-9961508D01*
X6715944Y-9961508D02*
X6725467Y-9971031D01*
X6725467Y-9971031D02*
X6734991Y-9990079D01*
X6734991Y-9990079D02*
X6744515Y-10028174D01*
X6744515Y-10028174D02*
X6744515Y-10075793D01*
X6744515Y-10075793D02*
X6734991Y-10113889D01*
X6734991Y-10113889D02*
X6725467Y-10132936D01*
X6725467Y-10132936D02*
X6715944Y-10142460D01*
X6715944Y-10142460D02*
X6696896Y-10151984D01*
X6696896Y-10151984D02*
X6677848Y-10151984D01*
X6677848Y-10151984D02*
X6658801Y-10142460D01*
X6658801Y-10142460D02*
X6649277Y-10132936D01*
X6649277Y-10132936D02*
X6639753Y-10113889D01*
X6639753Y-10113889D02*
X6630229Y-10075793D01*
X6630229Y-10075793D02*
X6630229Y-10028174D01*
X6630229Y-10028174D02*
X6639753Y-9990079D01*
X6639753Y-9990079D02*
X6649277Y-9971031D01*
X6649277Y-9971031D02*
X6658801Y-9961508D01*
X6658801Y-9961508D02*
X6677848Y-9951984D01*
X6811182Y-9951984D02*
X6934991Y-9951984D01*
X6934991Y-9951984D02*
X6868325Y-10028174D01*
X6868325Y-10028174D02*
X6896896Y-10028174D01*
X6896896Y-10028174D02*
X6915944Y-10037698D01*
X6915944Y-10037698D02*
X6925467Y-10047222D01*
X6925467Y-10047222D02*
X6934991Y-10066270D01*
X6934991Y-10066270D02*
X6934991Y-10113889D01*
X6934991Y-10113889D02*
X6925467Y-10132936D01*
X6925467Y-10132936D02*
X6915944Y-10142460D01*
X6915944Y-10142460D02*
X6896896Y-10151984D01*
X6896896Y-10151984D02*
X6839753Y-10151984D01*
X6839753Y-10151984D02*
X6820706Y-10142460D01*
X6820706Y-10142460D02*
X6811182Y-10132936D01*
X7030229Y-10151984D02*
X7068325Y-10151984D01*
X7068325Y-10151984D02*
X7087372Y-10142460D01*
X7087372Y-10142460D02*
X7096896Y-10132936D01*
X7096896Y-10132936D02*
X7115944Y-10104365D01*
X7115944Y-10104365D02*
X7125467Y-10066270D01*
X7125467Y-10066270D02*
X7125467Y-9990079D01*
X7125467Y-9990079D02*
X7115944Y-9971031D01*
X7115944Y-9971031D02*
X7106420Y-9961508D01*
X7106420Y-9961508D02*
X7087372Y-9951984D01*
X7087372Y-9951984D02*
X7049277Y-9951984D01*
X7049277Y-9951984D02*
X7030229Y-9961508D01*
X7030229Y-9961508D02*
X7020706Y-9971031D01*
X7020706Y-9971031D02*
X7011182Y-9990079D01*
X7011182Y-9990079D02*
X7011182Y-10037698D01*
X7011182Y-10037698D02*
X7020706Y-10056746D01*
X7020706Y-10056746D02*
X7030229Y-10066270D01*
X7030229Y-10066270D02*
X7049277Y-10075793D01*
X7049277Y-10075793D02*
X7087372Y-10075793D01*
X7087372Y-10075793D02*
X7106420Y-10066270D01*
X7106420Y-10066270D02*
X7115944Y-10056746D01*
X7115944Y-10056746D02*
X7125467Y-10037698D01*
X7296896Y-10018650D02*
X7296896Y-10151984D01*
X7249277Y-9942460D02*
X7201658Y-10085317D01*
X7201658Y-10085317D02*
X7325467Y-10085317D01*
X7392134Y-9951984D02*
X7392134Y-9990079D01*
X7468325Y-9951984D02*
X7468325Y-9990079D01*
X7763563Y-10228174D02*
X7754039Y-10218650D01*
X7754039Y-10218650D02*
X7734991Y-10190079D01*
X7734991Y-10190079D02*
X7725468Y-10171031D01*
X7725468Y-10171031D02*
X7715944Y-10142460D01*
X7715944Y-10142460D02*
X7706420Y-10094841D01*
X7706420Y-10094841D02*
X7706420Y-10056746D01*
X7706420Y-10056746D02*
X7715944Y-10009127D01*
X7715944Y-10009127D02*
X7725468Y-9980555D01*
X7725468Y-9980555D02*
X7734991Y-9961508D01*
X7734991Y-9961508D02*
X7754039Y-9932936D01*
X7754039Y-9932936D02*
X7763563Y-9923412D01*
X7934991Y-9951984D02*
X7839753Y-9951984D01*
X7839753Y-9951984D02*
X7830229Y-10047222D01*
X7830229Y-10047222D02*
X7839753Y-10037698D01*
X7839753Y-10037698D02*
X7858801Y-10028174D01*
X7858801Y-10028174D02*
X7906420Y-10028174D01*
X7906420Y-10028174D02*
X7925468Y-10037698D01*
X7925468Y-10037698D02*
X7934991Y-10047222D01*
X7934991Y-10047222D02*
X7944515Y-10066270D01*
X7944515Y-10066270D02*
X7944515Y-10113889D01*
X7944515Y-10113889D02*
X7934991Y-10132936D01*
X7934991Y-10132936D02*
X7925468Y-10142460D01*
X7925468Y-10142460D02*
X7906420Y-10151984D01*
X7906420Y-10151984D02*
X7858801Y-10151984D01*
X7858801Y-10151984D02*
X7839753Y-10142460D01*
X7839753Y-10142460D02*
X7830229Y-10132936D01*
X8020706Y-9971031D02*
X8030229Y-9961508D01*
X8030229Y-9961508D02*
X8049277Y-9951984D01*
X8049277Y-9951984D02*
X8096896Y-9951984D01*
X8096896Y-9951984D02*
X8115944Y-9961508D01*
X8115944Y-9961508D02*
X8125468Y-9971031D01*
X8125468Y-9971031D02*
X8134991Y-9990079D01*
X8134991Y-9990079D02*
X8134991Y-10009127D01*
X8134991Y-10009127D02*
X8125468Y-10037698D01*
X8125468Y-10037698D02*
X8011182Y-10151984D01*
X8011182Y-10151984D02*
X8134991Y-10151984D01*
X8373087Y-10151984D02*
X8373087Y-9951984D01*
X8458801Y-10151984D02*
X8458801Y-10047222D01*
X8458801Y-10047222D02*
X8449277Y-10028174D01*
X8449277Y-10028174D02*
X8430230Y-10018650D01*
X8430230Y-10018650D02*
X8401658Y-10018650D01*
X8401658Y-10018650D02*
X8382610Y-10028174D01*
X8382610Y-10028174D02*
X8373087Y-10037698D01*
X8582611Y-10151984D02*
X8563563Y-10142460D01*
X8563563Y-10142460D02*
X8554039Y-10132936D01*
X8554039Y-10132936D02*
X8544515Y-10113889D01*
X8544515Y-10113889D02*
X8544515Y-10056746D01*
X8544515Y-10056746D02*
X8554039Y-10037698D01*
X8554039Y-10037698D02*
X8563563Y-10028174D01*
X8563563Y-10028174D02*
X8582611Y-10018650D01*
X8582611Y-10018650D02*
X8611182Y-10018650D01*
X8611182Y-10018650D02*
X8630230Y-10028174D01*
X8630230Y-10028174D02*
X8639753Y-10037698D01*
X8639753Y-10037698D02*
X8649277Y-10056746D01*
X8649277Y-10056746D02*
X8649277Y-10113889D01*
X8649277Y-10113889D02*
X8639753Y-10132936D01*
X8639753Y-10132936D02*
X8630230Y-10142460D01*
X8630230Y-10142460D02*
X8611182Y-10151984D01*
X8611182Y-10151984D02*
X8582611Y-10151984D01*
X8763563Y-10151984D02*
X8744515Y-10142460D01*
X8744515Y-10142460D02*
X8734992Y-10123412D01*
X8734992Y-10123412D02*
X8734992Y-9951984D01*
X8915944Y-10142460D02*
X8896896Y-10151984D01*
X8896896Y-10151984D02*
X8858801Y-10151984D01*
X8858801Y-10151984D02*
X8839753Y-10142460D01*
X8839753Y-10142460D02*
X8830230Y-10123412D01*
X8830230Y-10123412D02*
X8830230Y-10047222D01*
X8830230Y-10047222D02*
X8839753Y-10028174D01*
X8839753Y-10028174D02*
X8858801Y-10018650D01*
X8858801Y-10018650D02*
X8896896Y-10018650D01*
X8896896Y-10018650D02*
X8915944Y-10028174D01*
X8915944Y-10028174D02*
X8925468Y-10047222D01*
X8925468Y-10047222D02*
X8925468Y-10066270D01*
X8925468Y-10066270D02*
X8830230Y-10085317D01*
X9001658Y-10142460D02*
X9020706Y-10151984D01*
X9020706Y-10151984D02*
X9058801Y-10151984D01*
X9058801Y-10151984D02*
X9077849Y-10142460D01*
X9077849Y-10142460D02*
X9087373Y-10123412D01*
X9087373Y-10123412D02*
X9087373Y-10113889D01*
X9087373Y-10113889D02*
X9077849Y-10094841D01*
X9077849Y-10094841D02*
X9058801Y-10085317D01*
X9058801Y-10085317D02*
X9030230Y-10085317D01*
X9030230Y-10085317D02*
X9011182Y-10075793D01*
X9011182Y-10075793D02*
X9001658Y-10056746D01*
X9001658Y-10056746D02*
X9001658Y-10047222D01*
X9001658Y-10047222D02*
X9011182Y-10028174D01*
X9011182Y-10028174D02*
X9030230Y-10018650D01*
X9030230Y-10018650D02*
X9058801Y-10018650D01*
X9058801Y-10018650D02*
X9077849Y-10028174D01*
X9154039Y-10228174D02*
X9163563Y-10218650D01*
X9163563Y-10218650D02*
X9182611Y-10190079D01*
X9182611Y-10190079D02*
X9192134Y-10171031D01*
X9192134Y-10171031D02*
X9201658Y-10142460D01*
X9201658Y-10142460D02*
X9211182Y-10094841D01*
X9211182Y-10094841D02*
X9211182Y-10056746D01*
X9211182Y-10056746D02*
X9201658Y-10009127D01*
X9201658Y-10009127D02*
X9192134Y-9980555D01*
X9192134Y-9980555D02*
X9182611Y-9961508D01*
X9182611Y-9961508D02*
X9163563Y-9932936D01*
X9163563Y-9932936D02*
X9154039Y-9923412D01*
D15*
X4173563Y-10360563D02*
X4173563Y-10288437D01*
X4101437Y-10288437D01*
X4101437Y-10360563D01*
X4173563Y-10360563D01*
D11*
X4554039Y-10415984D02*
X4439753Y-10415984D01*
X4496896Y-10415984D02*
X4496896Y-10215984D01*
X4496896Y-10215984D02*
X4477848Y-10244555D01*
X4477848Y-10244555D02*
X4458801Y-10263603D01*
X4458801Y-10263603D02*
X4439753Y-10273127D01*
X4639753Y-10396936D02*
X4649277Y-10406460D01*
X4649277Y-10406460D02*
X4639753Y-10415984D01*
X4639753Y-10415984D02*
X4630229Y-10406460D01*
X4630229Y-10406460D02*
X4639753Y-10396936D01*
X4639753Y-10396936D02*
X4639753Y-10415984D01*
X4773086Y-10215984D02*
X4792134Y-10215984D01*
X4792134Y-10215984D02*
X4811182Y-10225508D01*
X4811182Y-10225508D02*
X4820705Y-10235031D01*
X4820705Y-10235031D02*
X4830229Y-10254079D01*
X4830229Y-10254079D02*
X4839753Y-10292174D01*
X4839753Y-10292174D02*
X4839753Y-10339793D01*
X4839753Y-10339793D02*
X4830229Y-10377889D01*
X4830229Y-10377889D02*
X4820705Y-10396936D01*
X4820705Y-10396936D02*
X4811182Y-10406460D01*
X4811182Y-10406460D02*
X4792134Y-10415984D01*
X4792134Y-10415984D02*
X4773086Y-10415984D01*
X4773086Y-10415984D02*
X4754039Y-10406460D01*
X4754039Y-10406460D02*
X4744515Y-10396936D01*
X4744515Y-10396936D02*
X4734991Y-10377889D01*
X4734991Y-10377889D02*
X4725467Y-10339793D01*
X4725467Y-10339793D02*
X4725467Y-10292174D01*
X4725467Y-10292174D02*
X4734991Y-10254079D01*
X4734991Y-10254079D02*
X4744515Y-10235031D01*
X4744515Y-10235031D02*
X4754039Y-10225508D01*
X4754039Y-10225508D02*
X4773086Y-10215984D01*
X4915944Y-10235031D02*
X4925467Y-10225508D01*
X4925467Y-10225508D02*
X4944515Y-10215984D01*
X4944515Y-10215984D02*
X4992134Y-10215984D01*
X4992134Y-10215984D02*
X5011182Y-10225508D01*
X5011182Y-10225508D02*
X5020705Y-10235031D01*
X5020705Y-10235031D02*
X5030229Y-10254079D01*
X5030229Y-10254079D02*
X5030229Y-10273127D01*
X5030229Y-10273127D02*
X5020705Y-10301698D01*
X5020705Y-10301698D02*
X4906420Y-10415984D01*
X4906420Y-10415984D02*
X5030229Y-10415984D01*
X5154039Y-10215984D02*
X5173086Y-10215984D01*
X5173086Y-10215984D02*
X5192134Y-10225508D01*
X5192134Y-10225508D02*
X5201658Y-10235031D01*
X5201658Y-10235031D02*
X5211182Y-10254079D01*
X5211182Y-10254079D02*
X5220705Y-10292174D01*
X5220705Y-10292174D02*
X5220705Y-10339793D01*
X5220705Y-10339793D02*
X5211182Y-10377889D01*
X5211182Y-10377889D02*
X5201658Y-10396936D01*
X5201658Y-10396936D02*
X5192134Y-10406460D01*
X5192134Y-10406460D02*
X5173086Y-10415984D01*
X5173086Y-10415984D02*
X5154039Y-10415984D01*
X5154039Y-10415984D02*
X5134991Y-10406460D01*
X5134991Y-10406460D02*
X5125467Y-10396936D01*
X5125467Y-10396936D02*
X5115944Y-10377889D01*
X5115944Y-10377889D02*
X5106420Y-10339793D01*
X5106420Y-10339793D02*
X5106420Y-10292174D01*
X5106420Y-10292174D02*
X5115944Y-10254079D01*
X5115944Y-10254079D02*
X5125467Y-10235031D01*
X5125467Y-10235031D02*
X5134991Y-10225508D01*
X5134991Y-10225508D02*
X5154039Y-10215984D01*
X5306420Y-10415984D02*
X5306420Y-10282650D01*
X5306420Y-10301698D02*
X5315944Y-10292174D01*
X5315944Y-10292174D02*
X5334991Y-10282650D01*
X5334991Y-10282650D02*
X5363563Y-10282650D01*
X5363563Y-10282650D02*
X5382610Y-10292174D01*
X5382610Y-10292174D02*
X5392134Y-10311222D01*
X5392134Y-10311222D02*
X5392134Y-10415984D01*
X5392134Y-10311222D02*
X5401658Y-10292174D01*
X5401658Y-10292174D02*
X5420705Y-10282650D01*
X5420705Y-10282650D02*
X5449277Y-10282650D01*
X5449277Y-10282650D02*
X5468325Y-10292174D01*
X5468325Y-10292174D02*
X5477848Y-10311222D01*
X5477848Y-10311222D02*
X5477848Y-10415984D01*
X5573086Y-10415984D02*
X5573086Y-10282650D01*
X5573086Y-10301698D02*
X5582610Y-10292174D01*
X5582610Y-10292174D02*
X5601658Y-10282650D01*
X5601658Y-10282650D02*
X5630229Y-10282650D01*
X5630229Y-10282650D02*
X5649277Y-10292174D01*
X5649277Y-10292174D02*
X5658801Y-10311222D01*
X5658801Y-10311222D02*
X5658801Y-10415984D01*
X5658801Y-10311222D02*
X5668324Y-10292174D01*
X5668324Y-10292174D02*
X5687372Y-10282650D01*
X5687372Y-10282650D02*
X5715943Y-10282650D01*
X5715943Y-10282650D02*
X5734991Y-10292174D01*
X5734991Y-10292174D02*
X5744515Y-10311222D01*
X5744515Y-10311222D02*
X5744515Y-10415984D01*
X6134991Y-10206460D02*
X5963563Y-10463603D01*
X6392134Y-10215984D02*
X6411182Y-10215984D01*
X6411182Y-10215984D02*
X6430229Y-10225508D01*
X6430229Y-10225508D02*
X6439753Y-10235031D01*
X6439753Y-10235031D02*
X6449277Y-10254079D01*
X6449277Y-10254079D02*
X6458801Y-10292174D01*
X6458801Y-10292174D02*
X6458801Y-10339793D01*
X6458801Y-10339793D02*
X6449277Y-10377889D01*
X6449277Y-10377889D02*
X6439753Y-10396936D01*
X6439753Y-10396936D02*
X6430229Y-10406460D01*
X6430229Y-10406460D02*
X6411182Y-10415984D01*
X6411182Y-10415984D02*
X6392134Y-10415984D01*
X6392134Y-10415984D02*
X6373086Y-10406460D01*
X6373086Y-10406460D02*
X6363563Y-10396936D01*
X6363563Y-10396936D02*
X6354039Y-10377889D01*
X6354039Y-10377889D02*
X6344515Y-10339793D01*
X6344515Y-10339793D02*
X6344515Y-10292174D01*
X6344515Y-10292174D02*
X6354039Y-10254079D01*
X6354039Y-10254079D02*
X6363563Y-10235031D01*
X6363563Y-10235031D02*
X6373086Y-10225508D01*
X6373086Y-10225508D02*
X6392134Y-10215984D01*
X6544515Y-10396936D02*
X6554039Y-10406460D01*
X6554039Y-10406460D02*
X6544515Y-10415984D01*
X6544515Y-10415984D02*
X6534991Y-10406460D01*
X6534991Y-10406460D02*
X6544515Y-10396936D01*
X6544515Y-10396936D02*
X6544515Y-10415984D01*
X6677848Y-10215984D02*
X6696896Y-10215984D01*
X6696896Y-10215984D02*
X6715944Y-10225508D01*
X6715944Y-10225508D02*
X6725467Y-10235031D01*
X6725467Y-10235031D02*
X6734991Y-10254079D01*
X6734991Y-10254079D02*
X6744515Y-10292174D01*
X6744515Y-10292174D02*
X6744515Y-10339793D01*
X6744515Y-10339793D02*
X6734991Y-10377889D01*
X6734991Y-10377889D02*
X6725467Y-10396936D01*
X6725467Y-10396936D02*
X6715944Y-10406460D01*
X6715944Y-10406460D02*
X6696896Y-10415984D01*
X6696896Y-10415984D02*
X6677848Y-10415984D01*
X6677848Y-10415984D02*
X6658801Y-10406460D01*
X6658801Y-10406460D02*
X6649277Y-10396936D01*
X6649277Y-10396936D02*
X6639753Y-10377889D01*
X6639753Y-10377889D02*
X6630229Y-10339793D01*
X6630229Y-10339793D02*
X6630229Y-10292174D01*
X6630229Y-10292174D02*
X6639753Y-10254079D01*
X6639753Y-10254079D02*
X6649277Y-10235031D01*
X6649277Y-10235031D02*
X6658801Y-10225508D01*
X6658801Y-10225508D02*
X6677848Y-10215984D01*
X6915944Y-10282650D02*
X6915944Y-10415984D01*
X6868325Y-10206460D02*
X6820706Y-10349317D01*
X6820706Y-10349317D02*
X6944515Y-10349317D01*
X7058801Y-10215984D02*
X7077848Y-10215984D01*
X7077848Y-10215984D02*
X7096896Y-10225508D01*
X7096896Y-10225508D02*
X7106420Y-10235031D01*
X7106420Y-10235031D02*
X7115944Y-10254079D01*
X7115944Y-10254079D02*
X7125467Y-10292174D01*
X7125467Y-10292174D02*
X7125467Y-10339793D01*
X7125467Y-10339793D02*
X7115944Y-10377889D01*
X7115944Y-10377889D02*
X7106420Y-10396936D01*
X7106420Y-10396936D02*
X7096896Y-10406460D01*
X7096896Y-10406460D02*
X7077848Y-10415984D01*
X7077848Y-10415984D02*
X7058801Y-10415984D01*
X7058801Y-10415984D02*
X7039753Y-10406460D01*
X7039753Y-10406460D02*
X7030229Y-10396936D01*
X7030229Y-10396936D02*
X7020706Y-10377889D01*
X7020706Y-10377889D02*
X7011182Y-10339793D01*
X7011182Y-10339793D02*
X7011182Y-10292174D01*
X7011182Y-10292174D02*
X7020706Y-10254079D01*
X7020706Y-10254079D02*
X7030229Y-10235031D01*
X7030229Y-10235031D02*
X7039753Y-10225508D01*
X7039753Y-10225508D02*
X7058801Y-10215984D01*
X7201658Y-10235031D02*
X7211182Y-10225508D01*
X7211182Y-10225508D02*
X7230229Y-10215984D01*
X7230229Y-10215984D02*
X7277848Y-10215984D01*
X7277848Y-10215984D02*
X7296896Y-10225508D01*
X7296896Y-10225508D02*
X7306420Y-10235031D01*
X7306420Y-10235031D02*
X7315944Y-10254079D01*
X7315944Y-10254079D02*
X7315944Y-10273127D01*
X7315944Y-10273127D02*
X7306420Y-10301698D01*
X7306420Y-10301698D02*
X7192134Y-10415984D01*
X7192134Y-10415984D02*
X7315944Y-10415984D01*
X7392134Y-10215984D02*
X7392134Y-10254079D01*
X7468325Y-10215984D02*
X7468325Y-10254079D01*
X7763563Y-10492174D02*
X7754039Y-10482650D01*
X7754039Y-10482650D02*
X7734991Y-10454079D01*
X7734991Y-10454079D02*
X7725468Y-10435031D01*
X7725468Y-10435031D02*
X7715944Y-10406460D01*
X7715944Y-10406460D02*
X7706420Y-10358841D01*
X7706420Y-10358841D02*
X7706420Y-10320746D01*
X7706420Y-10320746D02*
X7715944Y-10273127D01*
X7715944Y-10273127D02*
X7725468Y-10244555D01*
X7725468Y-10244555D02*
X7734991Y-10225508D01*
X7734991Y-10225508D02*
X7754039Y-10196936D01*
X7754039Y-10196936D02*
X7763563Y-10187412D01*
X7820706Y-10215984D02*
X7954039Y-10215984D01*
X7954039Y-10215984D02*
X7868325Y-10415984D01*
X8182610Y-10415984D02*
X8182610Y-10215984D01*
X8268325Y-10415984D02*
X8268325Y-10311222D01*
X8268325Y-10311222D02*
X8258801Y-10292174D01*
X8258801Y-10292174D02*
X8239753Y-10282650D01*
X8239753Y-10282650D02*
X8211182Y-10282650D01*
X8211182Y-10282650D02*
X8192134Y-10292174D01*
X8192134Y-10292174D02*
X8182610Y-10301698D01*
X8392134Y-10415984D02*
X8373087Y-10406460D01*
X8373087Y-10406460D02*
X8363563Y-10396936D01*
X8363563Y-10396936D02*
X8354039Y-10377889D01*
X8354039Y-10377889D02*
X8354039Y-10320746D01*
X8354039Y-10320746D02*
X8363563Y-10301698D01*
X8363563Y-10301698D02*
X8373087Y-10292174D01*
X8373087Y-10292174D02*
X8392134Y-10282650D01*
X8392134Y-10282650D02*
X8420706Y-10282650D01*
X8420706Y-10282650D02*
X8439753Y-10292174D01*
X8439753Y-10292174D02*
X8449277Y-10301698D01*
X8449277Y-10301698D02*
X8458801Y-10320746D01*
X8458801Y-10320746D02*
X8458801Y-10377889D01*
X8458801Y-10377889D02*
X8449277Y-10396936D01*
X8449277Y-10396936D02*
X8439753Y-10406460D01*
X8439753Y-10406460D02*
X8420706Y-10415984D01*
X8420706Y-10415984D02*
X8392134Y-10415984D01*
X8573087Y-10415984D02*
X8554039Y-10406460D01*
X8554039Y-10406460D02*
X8544515Y-10387412D01*
X8544515Y-10387412D02*
X8544515Y-10215984D01*
X8725468Y-10406460D02*
X8706420Y-10415984D01*
X8706420Y-10415984D02*
X8668325Y-10415984D01*
X8668325Y-10415984D02*
X8649277Y-10406460D01*
X8649277Y-10406460D02*
X8639753Y-10387412D01*
X8639753Y-10387412D02*
X8639753Y-10311222D01*
X8639753Y-10311222D02*
X8649277Y-10292174D01*
X8649277Y-10292174D02*
X8668325Y-10282650D01*
X8668325Y-10282650D02*
X8706420Y-10282650D01*
X8706420Y-10282650D02*
X8725468Y-10292174D01*
X8725468Y-10292174D02*
X8734992Y-10311222D01*
X8734992Y-10311222D02*
X8734992Y-10330270D01*
X8734992Y-10330270D02*
X8639753Y-10349317D01*
X8811182Y-10406460D02*
X8830230Y-10415984D01*
X8830230Y-10415984D02*
X8868325Y-10415984D01*
X8868325Y-10415984D02*
X8887373Y-10406460D01*
X8887373Y-10406460D02*
X8896896Y-10387412D01*
X8896896Y-10387412D02*
X8896896Y-10377889D01*
X8896896Y-10377889D02*
X8887373Y-10358841D01*
X8887373Y-10358841D02*
X8868325Y-10349317D01*
X8868325Y-10349317D02*
X8839753Y-10349317D01*
X8839753Y-10349317D02*
X8820706Y-10339793D01*
X8820706Y-10339793D02*
X8811182Y-10320746D01*
X8811182Y-10320746D02*
X8811182Y-10311222D01*
X8811182Y-10311222D02*
X8820706Y-10292174D01*
X8820706Y-10292174D02*
X8839753Y-10282650D01*
X8839753Y-10282650D02*
X8868325Y-10282650D01*
X8868325Y-10282650D02*
X8887373Y-10292174D01*
X8963563Y-10492174D02*
X8973087Y-10482650D01*
X8973087Y-10482650D02*
X8992134Y-10454079D01*
X8992134Y-10454079D02*
X9001658Y-10435031D01*
X9001658Y-10435031D02*
X9011182Y-10406460D01*
X9011182Y-10406460D02*
X9020706Y-10358841D01*
X9020706Y-10358841D02*
X9020706Y-10320746D01*
X9020706Y-10320746D02*
X9011182Y-10273127D01*
X9011182Y-10273127D02*
X9001658Y-10244555D01*
X9001658Y-10244555D02*
X8992134Y-10225508D01*
X8992134Y-10225508D02*
X8973087Y-10196936D01*
X8973087Y-10196936D02*
X8963563Y-10187412D01*
D16*
X4133500Y-10643500D02*
X4188500Y-10588500D01*
X4133500Y-10533500D01*
X4078500Y-10588500D01*
X4133500Y-10643500D01*
D11*
X4554039Y-10679984D02*
X4439753Y-10679984D01*
X4496896Y-10679984D02*
X4496896Y-10479984D01*
X4496896Y-10479984D02*
X4477848Y-10508555D01*
X4477848Y-10508555D02*
X4458801Y-10527603D01*
X4458801Y-10527603D02*
X4439753Y-10537127D01*
X4639753Y-10660936D02*
X4649277Y-10670460D01*
X4649277Y-10670460D02*
X4639753Y-10679984D01*
X4639753Y-10679984D02*
X4630229Y-10670460D01*
X4630229Y-10670460D02*
X4639753Y-10660936D01*
X4639753Y-10660936D02*
X4639753Y-10679984D01*
X4839753Y-10679984D02*
X4725467Y-10679984D01*
X4782610Y-10679984D02*
X4782610Y-10479984D01*
X4782610Y-10479984D02*
X4763563Y-10508555D01*
X4763563Y-10508555D02*
X4744515Y-10527603D01*
X4744515Y-10527603D02*
X4725467Y-10537127D01*
X4963563Y-10479984D02*
X4982610Y-10479984D01*
X4982610Y-10479984D02*
X5001658Y-10489508D01*
X5001658Y-10489508D02*
X5011182Y-10499031D01*
X5011182Y-10499031D02*
X5020705Y-10518079D01*
X5020705Y-10518079D02*
X5030229Y-10556174D01*
X5030229Y-10556174D02*
X5030229Y-10603793D01*
X5030229Y-10603793D02*
X5020705Y-10641889D01*
X5020705Y-10641889D02*
X5011182Y-10660936D01*
X5011182Y-10660936D02*
X5001658Y-10670460D01*
X5001658Y-10670460D02*
X4982610Y-10679984D01*
X4982610Y-10679984D02*
X4963563Y-10679984D01*
X4963563Y-10679984D02*
X4944515Y-10670460D01*
X4944515Y-10670460D02*
X4934991Y-10660936D01*
X4934991Y-10660936D02*
X4925467Y-10641889D01*
X4925467Y-10641889D02*
X4915944Y-10603793D01*
X4915944Y-10603793D02*
X4915944Y-10556174D01*
X4915944Y-10556174D02*
X4925467Y-10518079D01*
X4925467Y-10518079D02*
X4934991Y-10499031D01*
X4934991Y-10499031D02*
X4944515Y-10489508D01*
X4944515Y-10489508D02*
X4963563Y-10479984D01*
X5154039Y-10479984D02*
X5173086Y-10479984D01*
X5173086Y-10479984D02*
X5192134Y-10489508D01*
X5192134Y-10489508D02*
X5201658Y-10499031D01*
X5201658Y-10499031D02*
X5211182Y-10518079D01*
X5211182Y-10518079D02*
X5220705Y-10556174D01*
X5220705Y-10556174D02*
X5220705Y-10603793D01*
X5220705Y-10603793D02*
X5211182Y-10641889D01*
X5211182Y-10641889D02*
X5201658Y-10660936D01*
X5201658Y-10660936D02*
X5192134Y-10670460D01*
X5192134Y-10670460D02*
X5173086Y-10679984D01*
X5173086Y-10679984D02*
X5154039Y-10679984D01*
X5154039Y-10679984D02*
X5134991Y-10670460D01*
X5134991Y-10670460D02*
X5125467Y-10660936D01*
X5125467Y-10660936D02*
X5115944Y-10641889D01*
X5115944Y-10641889D02*
X5106420Y-10603793D01*
X5106420Y-10603793D02*
X5106420Y-10556174D01*
X5106420Y-10556174D02*
X5115944Y-10518079D01*
X5115944Y-10518079D02*
X5125467Y-10499031D01*
X5125467Y-10499031D02*
X5134991Y-10489508D01*
X5134991Y-10489508D02*
X5154039Y-10479984D01*
X5306420Y-10679984D02*
X5306420Y-10546650D01*
X5306420Y-10565698D02*
X5315944Y-10556174D01*
X5315944Y-10556174D02*
X5334991Y-10546650D01*
X5334991Y-10546650D02*
X5363563Y-10546650D01*
X5363563Y-10546650D02*
X5382610Y-10556174D01*
X5382610Y-10556174D02*
X5392134Y-10575222D01*
X5392134Y-10575222D02*
X5392134Y-10679984D01*
X5392134Y-10575222D02*
X5401658Y-10556174D01*
X5401658Y-10556174D02*
X5420705Y-10546650D01*
X5420705Y-10546650D02*
X5449277Y-10546650D01*
X5449277Y-10546650D02*
X5468325Y-10556174D01*
X5468325Y-10556174D02*
X5477848Y-10575222D01*
X5477848Y-10575222D02*
X5477848Y-10679984D01*
X5573086Y-10679984D02*
X5573086Y-10546650D01*
X5573086Y-10565698D02*
X5582610Y-10556174D01*
X5582610Y-10556174D02*
X5601658Y-10546650D01*
X5601658Y-10546650D02*
X5630229Y-10546650D01*
X5630229Y-10546650D02*
X5649277Y-10556174D01*
X5649277Y-10556174D02*
X5658801Y-10575222D01*
X5658801Y-10575222D02*
X5658801Y-10679984D01*
X5658801Y-10575222D02*
X5668324Y-10556174D01*
X5668324Y-10556174D02*
X5687372Y-10546650D01*
X5687372Y-10546650D02*
X5715943Y-10546650D01*
X5715943Y-10546650D02*
X5734991Y-10556174D01*
X5734991Y-10556174D02*
X5744515Y-10575222D01*
X5744515Y-10575222D02*
X5744515Y-10679984D01*
X6134991Y-10470460D02*
X5963563Y-10727603D01*
X6392134Y-10479984D02*
X6411182Y-10479984D01*
X6411182Y-10479984D02*
X6430229Y-10489508D01*
X6430229Y-10489508D02*
X6439753Y-10499031D01*
X6439753Y-10499031D02*
X6449277Y-10518079D01*
X6449277Y-10518079D02*
X6458801Y-10556174D01*
X6458801Y-10556174D02*
X6458801Y-10603793D01*
X6458801Y-10603793D02*
X6449277Y-10641889D01*
X6449277Y-10641889D02*
X6439753Y-10660936D01*
X6439753Y-10660936D02*
X6430229Y-10670460D01*
X6430229Y-10670460D02*
X6411182Y-10679984D01*
X6411182Y-10679984D02*
X6392134Y-10679984D01*
X6392134Y-10679984D02*
X6373086Y-10670460D01*
X6373086Y-10670460D02*
X6363563Y-10660936D01*
X6363563Y-10660936D02*
X6354039Y-10641889D01*
X6354039Y-10641889D02*
X6344515Y-10603793D01*
X6344515Y-10603793D02*
X6344515Y-10556174D01*
X6344515Y-10556174D02*
X6354039Y-10518079D01*
X6354039Y-10518079D02*
X6363563Y-10499031D01*
X6363563Y-10499031D02*
X6373086Y-10489508D01*
X6373086Y-10489508D02*
X6392134Y-10479984D01*
X6544515Y-10660936D02*
X6554039Y-10670460D01*
X6554039Y-10670460D02*
X6544515Y-10679984D01*
X6544515Y-10679984D02*
X6534991Y-10670460D01*
X6534991Y-10670460D02*
X6544515Y-10660936D01*
X6544515Y-10660936D02*
X6544515Y-10679984D01*
X6677848Y-10479984D02*
X6696896Y-10479984D01*
X6696896Y-10479984D02*
X6715944Y-10489508D01*
X6715944Y-10489508D02*
X6725467Y-10499031D01*
X6725467Y-10499031D02*
X6734991Y-10518079D01*
X6734991Y-10518079D02*
X6744515Y-10556174D01*
X6744515Y-10556174D02*
X6744515Y-10603793D01*
X6744515Y-10603793D02*
X6734991Y-10641889D01*
X6734991Y-10641889D02*
X6725467Y-10660936D01*
X6725467Y-10660936D02*
X6715944Y-10670460D01*
X6715944Y-10670460D02*
X6696896Y-10679984D01*
X6696896Y-10679984D02*
X6677848Y-10679984D01*
X6677848Y-10679984D02*
X6658801Y-10670460D01*
X6658801Y-10670460D02*
X6649277Y-10660936D01*
X6649277Y-10660936D02*
X6639753Y-10641889D01*
X6639753Y-10641889D02*
X6630229Y-10603793D01*
X6630229Y-10603793D02*
X6630229Y-10556174D01*
X6630229Y-10556174D02*
X6639753Y-10518079D01*
X6639753Y-10518079D02*
X6649277Y-10499031D01*
X6649277Y-10499031D02*
X6658801Y-10489508D01*
X6658801Y-10489508D02*
X6677848Y-10479984D01*
X6915944Y-10546650D02*
X6915944Y-10679984D01*
X6868325Y-10470460D02*
X6820706Y-10613317D01*
X6820706Y-10613317D02*
X6944515Y-10613317D01*
X7001658Y-10479984D02*
X7125467Y-10479984D01*
X7125467Y-10479984D02*
X7058801Y-10556174D01*
X7058801Y-10556174D02*
X7087372Y-10556174D01*
X7087372Y-10556174D02*
X7106420Y-10565698D01*
X7106420Y-10565698D02*
X7115944Y-10575222D01*
X7115944Y-10575222D02*
X7125467Y-10594270D01*
X7125467Y-10594270D02*
X7125467Y-10641889D01*
X7125467Y-10641889D02*
X7115944Y-10660936D01*
X7115944Y-10660936D02*
X7106420Y-10670460D01*
X7106420Y-10670460D02*
X7087372Y-10679984D01*
X7087372Y-10679984D02*
X7030229Y-10679984D01*
X7030229Y-10679984D02*
X7011182Y-10670460D01*
X7011182Y-10670460D02*
X7001658Y-10660936D01*
X7192134Y-10479984D02*
X7315944Y-10479984D01*
X7315944Y-10479984D02*
X7249277Y-10556174D01*
X7249277Y-10556174D02*
X7277848Y-10556174D01*
X7277848Y-10556174D02*
X7296896Y-10565698D01*
X7296896Y-10565698D02*
X7306420Y-10575222D01*
X7306420Y-10575222D02*
X7315944Y-10594270D01*
X7315944Y-10594270D02*
X7315944Y-10641889D01*
X7315944Y-10641889D02*
X7306420Y-10660936D01*
X7306420Y-10660936D02*
X7296896Y-10670460D01*
X7296896Y-10670460D02*
X7277848Y-10679984D01*
X7277848Y-10679984D02*
X7220706Y-10679984D01*
X7220706Y-10679984D02*
X7201658Y-10670460D01*
X7201658Y-10670460D02*
X7192134Y-10660936D01*
X7392134Y-10479984D02*
X7392134Y-10518079D01*
X7468325Y-10479984D02*
X7468325Y-10518079D01*
X7763563Y-10756174D02*
X7754039Y-10746650D01*
X7754039Y-10746650D02*
X7734991Y-10718079D01*
X7734991Y-10718079D02*
X7725468Y-10699031D01*
X7725468Y-10699031D02*
X7715944Y-10670460D01*
X7715944Y-10670460D02*
X7706420Y-10622841D01*
X7706420Y-10622841D02*
X7706420Y-10584746D01*
X7706420Y-10584746D02*
X7715944Y-10537127D01*
X7715944Y-10537127D02*
X7725468Y-10508555D01*
X7725468Y-10508555D02*
X7734991Y-10489508D01*
X7734991Y-10489508D02*
X7754039Y-10460936D01*
X7754039Y-10460936D02*
X7763563Y-10451412D01*
X7934991Y-10479984D02*
X7839753Y-10479984D01*
X7839753Y-10479984D02*
X7830229Y-10575222D01*
X7830229Y-10575222D02*
X7839753Y-10565698D01*
X7839753Y-10565698D02*
X7858801Y-10556174D01*
X7858801Y-10556174D02*
X7906420Y-10556174D01*
X7906420Y-10556174D02*
X7925468Y-10565698D01*
X7925468Y-10565698D02*
X7934991Y-10575222D01*
X7934991Y-10575222D02*
X7944515Y-10594270D01*
X7944515Y-10594270D02*
X7944515Y-10641889D01*
X7944515Y-10641889D02*
X7934991Y-10660936D01*
X7934991Y-10660936D02*
X7925468Y-10670460D01*
X7925468Y-10670460D02*
X7906420Y-10679984D01*
X7906420Y-10679984D02*
X7858801Y-10679984D01*
X7858801Y-10679984D02*
X7839753Y-10670460D01*
X7839753Y-10670460D02*
X7830229Y-10660936D01*
X8039753Y-10679984D02*
X8077848Y-10679984D01*
X8077848Y-10679984D02*
X8096896Y-10670460D01*
X8096896Y-10670460D02*
X8106420Y-10660936D01*
X8106420Y-10660936D02*
X8125468Y-10632365D01*
X8125468Y-10632365D02*
X8134991Y-10594270D01*
X8134991Y-10594270D02*
X8134991Y-10518079D01*
X8134991Y-10518079D02*
X8125468Y-10499031D01*
X8125468Y-10499031D02*
X8115944Y-10489508D01*
X8115944Y-10489508D02*
X8096896Y-10479984D01*
X8096896Y-10479984D02*
X8058801Y-10479984D01*
X8058801Y-10479984D02*
X8039753Y-10489508D01*
X8039753Y-10489508D02*
X8030229Y-10499031D01*
X8030229Y-10499031D02*
X8020706Y-10518079D01*
X8020706Y-10518079D02*
X8020706Y-10565698D01*
X8020706Y-10565698D02*
X8030229Y-10584746D01*
X8030229Y-10584746D02*
X8039753Y-10594270D01*
X8039753Y-10594270D02*
X8058801Y-10603793D01*
X8058801Y-10603793D02*
X8096896Y-10603793D01*
X8096896Y-10603793D02*
X8115944Y-10594270D01*
X8115944Y-10594270D02*
X8125468Y-10584746D01*
X8125468Y-10584746D02*
X8134991Y-10565698D01*
X8373087Y-10679984D02*
X8373087Y-10479984D01*
X8458801Y-10679984D02*
X8458801Y-10575222D01*
X8458801Y-10575222D02*
X8449277Y-10556174D01*
X8449277Y-10556174D02*
X8430230Y-10546650D01*
X8430230Y-10546650D02*
X8401658Y-10546650D01*
X8401658Y-10546650D02*
X8382610Y-10556174D01*
X8382610Y-10556174D02*
X8373087Y-10565698D01*
X8582611Y-10679984D02*
X8563563Y-10670460D01*
X8563563Y-10670460D02*
X8554039Y-10660936D01*
X8554039Y-10660936D02*
X8544515Y-10641889D01*
X8544515Y-10641889D02*
X8544515Y-10584746D01*
X8544515Y-10584746D02*
X8554039Y-10565698D01*
X8554039Y-10565698D02*
X8563563Y-10556174D01*
X8563563Y-10556174D02*
X8582611Y-10546650D01*
X8582611Y-10546650D02*
X8611182Y-10546650D01*
X8611182Y-10546650D02*
X8630230Y-10556174D01*
X8630230Y-10556174D02*
X8639753Y-10565698D01*
X8639753Y-10565698D02*
X8649277Y-10584746D01*
X8649277Y-10584746D02*
X8649277Y-10641889D01*
X8649277Y-10641889D02*
X8639753Y-10660936D01*
X8639753Y-10660936D02*
X8630230Y-10670460D01*
X8630230Y-10670460D02*
X8611182Y-10679984D01*
X8611182Y-10679984D02*
X8582611Y-10679984D01*
X8763563Y-10679984D02*
X8744515Y-10670460D01*
X8744515Y-10670460D02*
X8734992Y-10651412D01*
X8734992Y-10651412D02*
X8734992Y-10479984D01*
X8915944Y-10670460D02*
X8896896Y-10679984D01*
X8896896Y-10679984D02*
X8858801Y-10679984D01*
X8858801Y-10679984D02*
X8839753Y-10670460D01*
X8839753Y-10670460D02*
X8830230Y-10651412D01*
X8830230Y-10651412D02*
X8830230Y-10575222D01*
X8830230Y-10575222D02*
X8839753Y-10556174D01*
X8839753Y-10556174D02*
X8858801Y-10546650D01*
X8858801Y-10546650D02*
X8896896Y-10546650D01*
X8896896Y-10546650D02*
X8915944Y-10556174D01*
X8915944Y-10556174D02*
X8925468Y-10575222D01*
X8925468Y-10575222D02*
X8925468Y-10594270D01*
X8925468Y-10594270D02*
X8830230Y-10613317D01*
X9001658Y-10670460D02*
X9020706Y-10679984D01*
X9020706Y-10679984D02*
X9058801Y-10679984D01*
X9058801Y-10679984D02*
X9077849Y-10670460D01*
X9077849Y-10670460D02*
X9087373Y-10651412D01*
X9087373Y-10651412D02*
X9087373Y-10641889D01*
X9087373Y-10641889D02*
X9077849Y-10622841D01*
X9077849Y-10622841D02*
X9058801Y-10613317D01*
X9058801Y-10613317D02*
X9030230Y-10613317D01*
X9030230Y-10613317D02*
X9011182Y-10603793D01*
X9011182Y-10603793D02*
X9001658Y-10584746D01*
X9001658Y-10584746D02*
X9001658Y-10575222D01*
X9001658Y-10575222D02*
X9011182Y-10556174D01*
X9011182Y-10556174D02*
X9030230Y-10546650D01*
X9030230Y-10546650D02*
X9058801Y-10546650D01*
X9058801Y-10546650D02*
X9077849Y-10556174D01*
X9154039Y-10756174D02*
X9163563Y-10746650D01*
X9163563Y-10746650D02*
X9182611Y-10718079D01*
X9182611Y-10718079D02*
X9192134Y-10699031D01*
X9192134Y-10699031D02*
X9201658Y-10670460D01*
X9201658Y-10670460D02*
X9211182Y-10622841D01*
X9211182Y-10622841D02*
X9211182Y-10584746D01*
X9211182Y-10584746D02*
X9201658Y-10537127D01*
X9201658Y-10537127D02*
X9192134Y-10508555D01*
X9192134Y-10508555D02*
X9182611Y-10489508D01*
X9182611Y-10489508D02*
X9163563Y-10460936D01*
X9163563Y-10460936D02*
X9154039Y-10451412D01*
X3988500Y-10752500D02*
X4188500Y-10952500D01*
X4188500Y-10752500D02*
X3988500Y-10952500D01*
X4188500Y-10852500D02*
G75*
G03*
X4188500Y-10852500I-100000J0D01*
G01*
X4439753Y-10763031D02*
X4449277Y-10753508D01*
X4449277Y-10753508D02*
X4468324Y-10743984D01*
X4468324Y-10743984D02*
X4515944Y-10743984D01*
X4515944Y-10743984D02*
X4534991Y-10753508D01*
X4534991Y-10753508D02*
X4544515Y-10763031D01*
X4544515Y-10763031D02*
X4554039Y-10782079D01*
X4554039Y-10782079D02*
X4554039Y-10801127D01*
X4554039Y-10801127D02*
X4544515Y-10829698D01*
X4544515Y-10829698D02*
X4430229Y-10943984D01*
X4430229Y-10943984D02*
X4554039Y-10943984D01*
X4639753Y-10924936D02*
X4649277Y-10934460D01*
X4649277Y-10934460D02*
X4639753Y-10943984D01*
X4639753Y-10943984D02*
X4630229Y-10934460D01*
X4630229Y-10934460D02*
X4639753Y-10924936D01*
X4639753Y-10924936D02*
X4639753Y-10943984D01*
X4773086Y-10743984D02*
X4792134Y-10743984D01*
X4792134Y-10743984D02*
X4811182Y-10753508D01*
X4811182Y-10753508D02*
X4820705Y-10763031D01*
X4820705Y-10763031D02*
X4830229Y-10782079D01*
X4830229Y-10782079D02*
X4839753Y-10820174D01*
X4839753Y-10820174D02*
X4839753Y-10867793D01*
X4839753Y-10867793D02*
X4830229Y-10905889D01*
X4830229Y-10905889D02*
X4820705Y-10924936D01*
X4820705Y-10924936D02*
X4811182Y-10934460D01*
X4811182Y-10934460D02*
X4792134Y-10943984D01*
X4792134Y-10943984D02*
X4773086Y-10943984D01*
X4773086Y-10943984D02*
X4754039Y-10934460D01*
X4754039Y-10934460D02*
X4744515Y-10924936D01*
X4744515Y-10924936D02*
X4734991Y-10905889D01*
X4734991Y-10905889D02*
X4725467Y-10867793D01*
X4725467Y-10867793D02*
X4725467Y-10820174D01*
X4725467Y-10820174D02*
X4734991Y-10782079D01*
X4734991Y-10782079D02*
X4744515Y-10763031D01*
X4744515Y-10763031D02*
X4754039Y-10753508D01*
X4754039Y-10753508D02*
X4773086Y-10743984D01*
X4963563Y-10743984D02*
X4982610Y-10743984D01*
X4982610Y-10743984D02*
X5001658Y-10753508D01*
X5001658Y-10753508D02*
X5011182Y-10763031D01*
X5011182Y-10763031D02*
X5020705Y-10782079D01*
X5020705Y-10782079D02*
X5030229Y-10820174D01*
X5030229Y-10820174D02*
X5030229Y-10867793D01*
X5030229Y-10867793D02*
X5020705Y-10905889D01*
X5020705Y-10905889D02*
X5011182Y-10924936D01*
X5011182Y-10924936D02*
X5001658Y-10934460D01*
X5001658Y-10934460D02*
X4982610Y-10943984D01*
X4982610Y-10943984D02*
X4963563Y-10943984D01*
X4963563Y-10943984D02*
X4944515Y-10934460D01*
X4944515Y-10934460D02*
X4934991Y-10924936D01*
X4934991Y-10924936D02*
X4925467Y-10905889D01*
X4925467Y-10905889D02*
X4915944Y-10867793D01*
X4915944Y-10867793D02*
X4915944Y-10820174D01*
X4915944Y-10820174D02*
X4925467Y-10782079D01*
X4925467Y-10782079D02*
X4934991Y-10763031D01*
X4934991Y-10763031D02*
X4944515Y-10753508D01*
X4944515Y-10753508D02*
X4963563Y-10743984D01*
X5154039Y-10743984D02*
X5173086Y-10743984D01*
X5173086Y-10743984D02*
X5192134Y-10753508D01*
X5192134Y-10753508D02*
X5201658Y-10763031D01*
X5201658Y-10763031D02*
X5211182Y-10782079D01*
X5211182Y-10782079D02*
X5220705Y-10820174D01*
X5220705Y-10820174D02*
X5220705Y-10867793D01*
X5220705Y-10867793D02*
X5211182Y-10905889D01*
X5211182Y-10905889D02*
X5201658Y-10924936D01*
X5201658Y-10924936D02*
X5192134Y-10934460D01*
X5192134Y-10934460D02*
X5173086Y-10943984D01*
X5173086Y-10943984D02*
X5154039Y-10943984D01*
X5154039Y-10943984D02*
X5134991Y-10934460D01*
X5134991Y-10934460D02*
X5125467Y-10924936D01*
X5125467Y-10924936D02*
X5115944Y-10905889D01*
X5115944Y-10905889D02*
X5106420Y-10867793D01*
X5106420Y-10867793D02*
X5106420Y-10820174D01*
X5106420Y-10820174D02*
X5115944Y-10782079D01*
X5115944Y-10782079D02*
X5125467Y-10763031D01*
X5125467Y-10763031D02*
X5134991Y-10753508D01*
X5134991Y-10753508D02*
X5154039Y-10743984D01*
X5306420Y-10943984D02*
X5306420Y-10810650D01*
X5306420Y-10829698D02*
X5315944Y-10820174D01*
X5315944Y-10820174D02*
X5334991Y-10810650D01*
X5334991Y-10810650D02*
X5363563Y-10810650D01*
X5363563Y-10810650D02*
X5382610Y-10820174D01*
X5382610Y-10820174D02*
X5392134Y-10839222D01*
X5392134Y-10839222D02*
X5392134Y-10943984D01*
X5392134Y-10839222D02*
X5401658Y-10820174D01*
X5401658Y-10820174D02*
X5420705Y-10810650D01*
X5420705Y-10810650D02*
X5449277Y-10810650D01*
X5449277Y-10810650D02*
X5468325Y-10820174D01*
X5468325Y-10820174D02*
X5477848Y-10839222D01*
X5477848Y-10839222D02*
X5477848Y-10943984D01*
X5573086Y-10943984D02*
X5573086Y-10810650D01*
X5573086Y-10829698D02*
X5582610Y-10820174D01*
X5582610Y-10820174D02*
X5601658Y-10810650D01*
X5601658Y-10810650D02*
X5630229Y-10810650D01*
X5630229Y-10810650D02*
X5649277Y-10820174D01*
X5649277Y-10820174D02*
X5658801Y-10839222D01*
X5658801Y-10839222D02*
X5658801Y-10943984D01*
X5658801Y-10839222D02*
X5668324Y-10820174D01*
X5668324Y-10820174D02*
X5687372Y-10810650D01*
X5687372Y-10810650D02*
X5715943Y-10810650D01*
X5715943Y-10810650D02*
X5734991Y-10820174D01*
X5734991Y-10820174D02*
X5744515Y-10839222D01*
X5744515Y-10839222D02*
X5744515Y-10943984D01*
X6134991Y-10734460D02*
X5963563Y-10991603D01*
X6392134Y-10743984D02*
X6411182Y-10743984D01*
X6411182Y-10743984D02*
X6430229Y-10753508D01*
X6430229Y-10753508D02*
X6439753Y-10763031D01*
X6439753Y-10763031D02*
X6449277Y-10782079D01*
X6449277Y-10782079D02*
X6458801Y-10820174D01*
X6458801Y-10820174D02*
X6458801Y-10867793D01*
X6458801Y-10867793D02*
X6449277Y-10905889D01*
X6449277Y-10905889D02*
X6439753Y-10924936D01*
X6439753Y-10924936D02*
X6430229Y-10934460D01*
X6430229Y-10934460D02*
X6411182Y-10943984D01*
X6411182Y-10943984D02*
X6392134Y-10943984D01*
X6392134Y-10943984D02*
X6373086Y-10934460D01*
X6373086Y-10934460D02*
X6363563Y-10924936D01*
X6363563Y-10924936D02*
X6354039Y-10905889D01*
X6354039Y-10905889D02*
X6344515Y-10867793D01*
X6344515Y-10867793D02*
X6344515Y-10820174D01*
X6344515Y-10820174D02*
X6354039Y-10782079D01*
X6354039Y-10782079D02*
X6363563Y-10763031D01*
X6363563Y-10763031D02*
X6373086Y-10753508D01*
X6373086Y-10753508D02*
X6392134Y-10743984D01*
X6544515Y-10924936D02*
X6554039Y-10934460D01*
X6554039Y-10934460D02*
X6544515Y-10943984D01*
X6544515Y-10943984D02*
X6534991Y-10934460D01*
X6534991Y-10934460D02*
X6544515Y-10924936D01*
X6544515Y-10924936D02*
X6544515Y-10943984D01*
X6677848Y-10743984D02*
X6696896Y-10743984D01*
X6696896Y-10743984D02*
X6715944Y-10753508D01*
X6715944Y-10753508D02*
X6725467Y-10763031D01*
X6725467Y-10763031D02*
X6734991Y-10782079D01*
X6734991Y-10782079D02*
X6744515Y-10820174D01*
X6744515Y-10820174D02*
X6744515Y-10867793D01*
X6744515Y-10867793D02*
X6734991Y-10905889D01*
X6734991Y-10905889D02*
X6725467Y-10924936D01*
X6725467Y-10924936D02*
X6715944Y-10934460D01*
X6715944Y-10934460D02*
X6696896Y-10943984D01*
X6696896Y-10943984D02*
X6677848Y-10943984D01*
X6677848Y-10943984D02*
X6658801Y-10934460D01*
X6658801Y-10934460D02*
X6649277Y-10924936D01*
X6649277Y-10924936D02*
X6639753Y-10905889D01*
X6639753Y-10905889D02*
X6630229Y-10867793D01*
X6630229Y-10867793D02*
X6630229Y-10820174D01*
X6630229Y-10820174D02*
X6639753Y-10782079D01*
X6639753Y-10782079D02*
X6649277Y-10763031D01*
X6649277Y-10763031D02*
X6658801Y-10753508D01*
X6658801Y-10753508D02*
X6677848Y-10743984D01*
X6811182Y-10743984D02*
X6944515Y-10743984D01*
X6944515Y-10743984D02*
X6858801Y-10943984D01*
X7049277Y-10829698D02*
X7030229Y-10820174D01*
X7030229Y-10820174D02*
X7020706Y-10810650D01*
X7020706Y-10810650D02*
X7011182Y-10791603D01*
X7011182Y-10791603D02*
X7011182Y-10782079D01*
X7011182Y-10782079D02*
X7020706Y-10763031D01*
X7020706Y-10763031D02*
X7030229Y-10753508D01*
X7030229Y-10753508D02*
X7049277Y-10743984D01*
X7049277Y-10743984D02*
X7087372Y-10743984D01*
X7087372Y-10743984D02*
X7106420Y-10753508D01*
X7106420Y-10753508D02*
X7115944Y-10763031D01*
X7115944Y-10763031D02*
X7125467Y-10782079D01*
X7125467Y-10782079D02*
X7125467Y-10791603D01*
X7125467Y-10791603D02*
X7115944Y-10810650D01*
X7115944Y-10810650D02*
X7106420Y-10820174D01*
X7106420Y-10820174D02*
X7087372Y-10829698D01*
X7087372Y-10829698D02*
X7049277Y-10829698D01*
X7049277Y-10829698D02*
X7030229Y-10839222D01*
X7030229Y-10839222D02*
X7020706Y-10848746D01*
X7020706Y-10848746D02*
X7011182Y-10867793D01*
X7011182Y-10867793D02*
X7011182Y-10905889D01*
X7011182Y-10905889D02*
X7020706Y-10924936D01*
X7020706Y-10924936D02*
X7030229Y-10934460D01*
X7030229Y-10934460D02*
X7049277Y-10943984D01*
X7049277Y-10943984D02*
X7087372Y-10943984D01*
X7087372Y-10943984D02*
X7106420Y-10934460D01*
X7106420Y-10934460D02*
X7115944Y-10924936D01*
X7115944Y-10924936D02*
X7125467Y-10905889D01*
X7125467Y-10905889D02*
X7125467Y-10867793D01*
X7125467Y-10867793D02*
X7115944Y-10848746D01*
X7115944Y-10848746D02*
X7106420Y-10839222D01*
X7106420Y-10839222D02*
X7087372Y-10829698D01*
X7192134Y-10743984D02*
X7325467Y-10743984D01*
X7325467Y-10743984D02*
X7239753Y-10943984D01*
X7392134Y-10743984D02*
X7392134Y-10782079D01*
X7468325Y-10743984D02*
X7468325Y-10782079D01*
X7763563Y-11020174D02*
X7754039Y-11010650D01*
X7754039Y-11010650D02*
X7734991Y-10982079D01*
X7734991Y-10982079D02*
X7725468Y-10963031D01*
X7725468Y-10963031D02*
X7715944Y-10934460D01*
X7715944Y-10934460D02*
X7706420Y-10886841D01*
X7706420Y-10886841D02*
X7706420Y-10848746D01*
X7706420Y-10848746D02*
X7715944Y-10801127D01*
X7715944Y-10801127D02*
X7725468Y-10772555D01*
X7725468Y-10772555D02*
X7734991Y-10753508D01*
X7734991Y-10753508D02*
X7754039Y-10724936D01*
X7754039Y-10724936D02*
X7763563Y-10715412D01*
X7944515Y-10943984D02*
X7830229Y-10943984D01*
X7887372Y-10943984D02*
X7887372Y-10743984D01*
X7887372Y-10743984D02*
X7868325Y-10772555D01*
X7868325Y-10772555D02*
X7849277Y-10791603D01*
X7849277Y-10791603D02*
X7830229Y-10801127D01*
X8068325Y-10743984D02*
X8087372Y-10743984D01*
X8087372Y-10743984D02*
X8106420Y-10753508D01*
X8106420Y-10753508D02*
X8115944Y-10763031D01*
X8115944Y-10763031D02*
X8125468Y-10782079D01*
X8125468Y-10782079D02*
X8134991Y-10820174D01*
X8134991Y-10820174D02*
X8134991Y-10867793D01*
X8134991Y-10867793D02*
X8125468Y-10905889D01*
X8125468Y-10905889D02*
X8115944Y-10924936D01*
X8115944Y-10924936D02*
X8106420Y-10934460D01*
X8106420Y-10934460D02*
X8087372Y-10943984D01*
X8087372Y-10943984D02*
X8068325Y-10943984D01*
X8068325Y-10943984D02*
X8049277Y-10934460D01*
X8049277Y-10934460D02*
X8039753Y-10924936D01*
X8039753Y-10924936D02*
X8030229Y-10905889D01*
X8030229Y-10905889D02*
X8020706Y-10867793D01*
X8020706Y-10867793D02*
X8020706Y-10820174D01*
X8020706Y-10820174D02*
X8030229Y-10782079D01*
X8030229Y-10782079D02*
X8039753Y-10763031D01*
X8039753Y-10763031D02*
X8049277Y-10753508D01*
X8049277Y-10753508D02*
X8068325Y-10743984D01*
X8373087Y-10943984D02*
X8373087Y-10743984D01*
X8458801Y-10943984D02*
X8458801Y-10839222D01*
X8458801Y-10839222D02*
X8449277Y-10820174D01*
X8449277Y-10820174D02*
X8430230Y-10810650D01*
X8430230Y-10810650D02*
X8401658Y-10810650D01*
X8401658Y-10810650D02*
X8382610Y-10820174D01*
X8382610Y-10820174D02*
X8373087Y-10829698D01*
X8582611Y-10943984D02*
X8563563Y-10934460D01*
X8563563Y-10934460D02*
X8554039Y-10924936D01*
X8554039Y-10924936D02*
X8544515Y-10905889D01*
X8544515Y-10905889D02*
X8544515Y-10848746D01*
X8544515Y-10848746D02*
X8554039Y-10829698D01*
X8554039Y-10829698D02*
X8563563Y-10820174D01*
X8563563Y-10820174D02*
X8582611Y-10810650D01*
X8582611Y-10810650D02*
X8611182Y-10810650D01*
X8611182Y-10810650D02*
X8630230Y-10820174D01*
X8630230Y-10820174D02*
X8639753Y-10829698D01*
X8639753Y-10829698D02*
X8649277Y-10848746D01*
X8649277Y-10848746D02*
X8649277Y-10905889D01*
X8649277Y-10905889D02*
X8639753Y-10924936D01*
X8639753Y-10924936D02*
X8630230Y-10934460D01*
X8630230Y-10934460D02*
X8611182Y-10943984D01*
X8611182Y-10943984D02*
X8582611Y-10943984D01*
X8763563Y-10943984D02*
X8744515Y-10934460D01*
X8744515Y-10934460D02*
X8734992Y-10915412D01*
X8734992Y-10915412D02*
X8734992Y-10743984D01*
X8915944Y-10934460D02*
X8896896Y-10943984D01*
X8896896Y-10943984D02*
X8858801Y-10943984D01*
X8858801Y-10943984D02*
X8839753Y-10934460D01*
X8839753Y-10934460D02*
X8830230Y-10915412D01*
X8830230Y-10915412D02*
X8830230Y-10839222D01*
X8830230Y-10839222D02*
X8839753Y-10820174D01*
X8839753Y-10820174D02*
X8858801Y-10810650D01*
X8858801Y-10810650D02*
X8896896Y-10810650D01*
X8896896Y-10810650D02*
X8915944Y-10820174D01*
X8915944Y-10820174D02*
X8925468Y-10839222D01*
X8925468Y-10839222D02*
X8925468Y-10858270D01*
X8925468Y-10858270D02*
X8830230Y-10877317D01*
X9001658Y-10934460D02*
X9020706Y-10943984D01*
X9020706Y-10943984D02*
X9058801Y-10943984D01*
X9058801Y-10943984D02*
X9077849Y-10934460D01*
X9077849Y-10934460D02*
X9087373Y-10915412D01*
X9087373Y-10915412D02*
X9087373Y-10905889D01*
X9087373Y-10905889D02*
X9077849Y-10886841D01*
X9077849Y-10886841D02*
X9058801Y-10877317D01*
X9058801Y-10877317D02*
X9030230Y-10877317D01*
X9030230Y-10877317D02*
X9011182Y-10867793D01*
X9011182Y-10867793D02*
X9001658Y-10848746D01*
X9001658Y-10848746D02*
X9001658Y-10839222D01*
X9001658Y-10839222D02*
X9011182Y-10820174D01*
X9011182Y-10820174D02*
X9030230Y-10810650D01*
X9030230Y-10810650D02*
X9058801Y-10810650D01*
X9058801Y-10810650D02*
X9077849Y-10820174D01*
X9154039Y-11020174D02*
X9163563Y-11010650D01*
X9163563Y-11010650D02*
X9182611Y-10982079D01*
X9182611Y-10982079D02*
X9192134Y-10963031D01*
X9192134Y-10963031D02*
X9201658Y-10934460D01*
X9201658Y-10934460D02*
X9211182Y-10886841D01*
X9211182Y-10886841D02*
X9211182Y-10848746D01*
X9211182Y-10848746D02*
X9201658Y-10801127D01*
X9201658Y-10801127D02*
X9192134Y-10772555D01*
X9192134Y-10772555D02*
X9182611Y-10753508D01*
X9182611Y-10753508D02*
X9163563Y-10724936D01*
X9163563Y-10724936D02*
X9154039Y-10715412D01*
X3988500Y-11072500D02*
X4188500Y-11272500D01*
X4188500Y-11072500D02*
X3988500Y-11272500D01*
X4088500Y-11072500D02*
X4088500Y-11272500D01*
X3988500Y-11172500D02*
X4188500Y-11172500D01*
X4439753Y-11083031D02*
X4449277Y-11073508D01*
X4449277Y-11073508D02*
X4468324Y-11063984D01*
X4468324Y-11063984D02*
X4515944Y-11063984D01*
X4515944Y-11063984D02*
X4534991Y-11073508D01*
X4534991Y-11073508D02*
X4544515Y-11083031D01*
X4544515Y-11083031D02*
X4554039Y-11102079D01*
X4554039Y-11102079D02*
X4554039Y-11121127D01*
X4554039Y-11121127D02*
X4544515Y-11149698D01*
X4544515Y-11149698D02*
X4430229Y-11263984D01*
X4430229Y-11263984D02*
X4554039Y-11263984D01*
X4639753Y-11244936D02*
X4649277Y-11254460D01*
X4649277Y-11254460D02*
X4639753Y-11263984D01*
X4639753Y-11263984D02*
X4630229Y-11254460D01*
X4630229Y-11254460D02*
X4639753Y-11244936D01*
X4639753Y-11244936D02*
X4639753Y-11263984D01*
X4715944Y-11063984D02*
X4849277Y-11063984D01*
X4849277Y-11063984D02*
X4763563Y-11263984D01*
X4963563Y-11063984D02*
X4982610Y-11063984D01*
X4982610Y-11063984D02*
X5001658Y-11073508D01*
X5001658Y-11073508D02*
X5011182Y-11083031D01*
X5011182Y-11083031D02*
X5020705Y-11102079D01*
X5020705Y-11102079D02*
X5030229Y-11140174D01*
X5030229Y-11140174D02*
X5030229Y-11187793D01*
X5030229Y-11187793D02*
X5020705Y-11225888D01*
X5020705Y-11225888D02*
X5011182Y-11244936D01*
X5011182Y-11244936D02*
X5001658Y-11254460D01*
X5001658Y-11254460D02*
X4982610Y-11263984D01*
X4982610Y-11263984D02*
X4963563Y-11263984D01*
X4963563Y-11263984D02*
X4944515Y-11254460D01*
X4944515Y-11254460D02*
X4934991Y-11244936D01*
X4934991Y-11244936D02*
X4925467Y-11225888D01*
X4925467Y-11225888D02*
X4915944Y-11187793D01*
X4915944Y-11187793D02*
X4915944Y-11140174D01*
X4915944Y-11140174D02*
X4925467Y-11102079D01*
X4925467Y-11102079D02*
X4934991Y-11083031D01*
X4934991Y-11083031D02*
X4944515Y-11073508D01*
X4944515Y-11073508D02*
X4963563Y-11063984D01*
X5154039Y-11063984D02*
X5173086Y-11063984D01*
X5173086Y-11063984D02*
X5192134Y-11073508D01*
X5192134Y-11073508D02*
X5201658Y-11083031D01*
X5201658Y-11083031D02*
X5211182Y-11102079D01*
X5211182Y-11102079D02*
X5220705Y-11140174D01*
X5220705Y-11140174D02*
X5220705Y-11187793D01*
X5220705Y-11187793D02*
X5211182Y-11225888D01*
X5211182Y-11225888D02*
X5201658Y-11244936D01*
X5201658Y-11244936D02*
X5192134Y-11254460D01*
X5192134Y-11254460D02*
X5173086Y-11263984D01*
X5173086Y-11263984D02*
X5154039Y-11263984D01*
X5154039Y-11263984D02*
X5134991Y-11254460D01*
X5134991Y-11254460D02*
X5125467Y-11244936D01*
X5125467Y-11244936D02*
X5115944Y-11225888D01*
X5115944Y-11225888D02*
X5106420Y-11187793D01*
X5106420Y-11187793D02*
X5106420Y-11140174D01*
X5106420Y-11140174D02*
X5115944Y-11102079D01*
X5115944Y-11102079D02*
X5125467Y-11083031D01*
X5125467Y-11083031D02*
X5134991Y-11073508D01*
X5134991Y-11073508D02*
X5154039Y-11063984D01*
X5306420Y-11263984D02*
X5306420Y-11130650D01*
X5306420Y-11149698D02*
X5315944Y-11140174D01*
X5315944Y-11140174D02*
X5334991Y-11130650D01*
X5334991Y-11130650D02*
X5363563Y-11130650D01*
X5363563Y-11130650D02*
X5382610Y-11140174D01*
X5382610Y-11140174D02*
X5392134Y-11159222D01*
X5392134Y-11159222D02*
X5392134Y-11263984D01*
X5392134Y-11159222D02*
X5401658Y-11140174D01*
X5401658Y-11140174D02*
X5420705Y-11130650D01*
X5420705Y-11130650D02*
X5449277Y-11130650D01*
X5449277Y-11130650D02*
X5468325Y-11140174D01*
X5468325Y-11140174D02*
X5477848Y-11159222D01*
X5477848Y-11159222D02*
X5477848Y-11263984D01*
X5573086Y-11263984D02*
X5573086Y-11130650D01*
X5573086Y-11149698D02*
X5582610Y-11140174D01*
X5582610Y-11140174D02*
X5601658Y-11130650D01*
X5601658Y-11130650D02*
X5630229Y-11130650D01*
X5630229Y-11130650D02*
X5649277Y-11140174D01*
X5649277Y-11140174D02*
X5658801Y-11159222D01*
X5658801Y-11159222D02*
X5658801Y-11263984D01*
X5658801Y-11159222D02*
X5668324Y-11140174D01*
X5668324Y-11140174D02*
X5687372Y-11130650D01*
X5687372Y-11130650D02*
X5715943Y-11130650D01*
X5715943Y-11130650D02*
X5734991Y-11140174D01*
X5734991Y-11140174D02*
X5744515Y-11159222D01*
X5744515Y-11159222D02*
X5744515Y-11263984D01*
X6134991Y-11054460D02*
X5963563Y-11311603D01*
X6392134Y-11063984D02*
X6411182Y-11063984D01*
X6411182Y-11063984D02*
X6430229Y-11073508D01*
X6430229Y-11073508D02*
X6439753Y-11083031D01*
X6439753Y-11083031D02*
X6449277Y-11102079D01*
X6449277Y-11102079D02*
X6458801Y-11140174D01*
X6458801Y-11140174D02*
X6458801Y-11187793D01*
X6458801Y-11187793D02*
X6449277Y-11225888D01*
X6449277Y-11225888D02*
X6439753Y-11244936D01*
X6439753Y-11244936D02*
X6430229Y-11254460D01*
X6430229Y-11254460D02*
X6411182Y-11263984D01*
X6411182Y-11263984D02*
X6392134Y-11263984D01*
X6392134Y-11263984D02*
X6373086Y-11254460D01*
X6373086Y-11254460D02*
X6363563Y-11244936D01*
X6363563Y-11244936D02*
X6354039Y-11225888D01*
X6354039Y-11225888D02*
X6344515Y-11187793D01*
X6344515Y-11187793D02*
X6344515Y-11140174D01*
X6344515Y-11140174D02*
X6354039Y-11102079D01*
X6354039Y-11102079D02*
X6363563Y-11083031D01*
X6363563Y-11083031D02*
X6373086Y-11073508D01*
X6373086Y-11073508D02*
X6392134Y-11063984D01*
X6544515Y-11244936D02*
X6554039Y-11254460D01*
X6554039Y-11254460D02*
X6544515Y-11263984D01*
X6544515Y-11263984D02*
X6534991Y-11254460D01*
X6534991Y-11254460D02*
X6544515Y-11244936D01*
X6544515Y-11244936D02*
X6544515Y-11263984D01*
X6744515Y-11263984D02*
X6630229Y-11263984D01*
X6687372Y-11263984D02*
X6687372Y-11063984D01*
X6687372Y-11063984D02*
X6668325Y-11092555D01*
X6668325Y-11092555D02*
X6649277Y-11111603D01*
X6649277Y-11111603D02*
X6630229Y-11121127D01*
X6868325Y-11063984D02*
X6887372Y-11063984D01*
X6887372Y-11063984D02*
X6906420Y-11073508D01*
X6906420Y-11073508D02*
X6915944Y-11083031D01*
X6915944Y-11083031D02*
X6925467Y-11102079D01*
X6925467Y-11102079D02*
X6934991Y-11140174D01*
X6934991Y-11140174D02*
X6934991Y-11187793D01*
X6934991Y-11187793D02*
X6925467Y-11225888D01*
X6925467Y-11225888D02*
X6915944Y-11244936D01*
X6915944Y-11244936D02*
X6906420Y-11254460D01*
X6906420Y-11254460D02*
X6887372Y-11263984D01*
X6887372Y-11263984D02*
X6868325Y-11263984D01*
X6868325Y-11263984D02*
X6849277Y-11254460D01*
X6849277Y-11254460D02*
X6839753Y-11244936D01*
X6839753Y-11244936D02*
X6830229Y-11225888D01*
X6830229Y-11225888D02*
X6820706Y-11187793D01*
X6820706Y-11187793D02*
X6820706Y-11140174D01*
X6820706Y-11140174D02*
X6830229Y-11102079D01*
X6830229Y-11102079D02*
X6839753Y-11083031D01*
X6839753Y-11083031D02*
X6849277Y-11073508D01*
X6849277Y-11073508D02*
X6868325Y-11063984D01*
X7106420Y-11063984D02*
X7068325Y-11063984D01*
X7068325Y-11063984D02*
X7049277Y-11073508D01*
X7049277Y-11073508D02*
X7039753Y-11083031D01*
X7039753Y-11083031D02*
X7020706Y-11111603D01*
X7020706Y-11111603D02*
X7011182Y-11149698D01*
X7011182Y-11149698D02*
X7011182Y-11225888D01*
X7011182Y-11225888D02*
X7020706Y-11244936D01*
X7020706Y-11244936D02*
X7030229Y-11254460D01*
X7030229Y-11254460D02*
X7049277Y-11263984D01*
X7049277Y-11263984D02*
X7087372Y-11263984D01*
X7087372Y-11263984D02*
X7106420Y-11254460D01*
X7106420Y-11254460D02*
X7115944Y-11244936D01*
X7115944Y-11244936D02*
X7125467Y-11225888D01*
X7125467Y-11225888D02*
X7125467Y-11178270D01*
X7125467Y-11178270D02*
X7115944Y-11159222D01*
X7115944Y-11159222D02*
X7106420Y-11149698D01*
X7106420Y-11149698D02*
X7087372Y-11140174D01*
X7087372Y-11140174D02*
X7049277Y-11140174D01*
X7049277Y-11140174D02*
X7030229Y-11149698D01*
X7030229Y-11149698D02*
X7020706Y-11159222D01*
X7020706Y-11159222D02*
X7011182Y-11178270D01*
X7192134Y-11063984D02*
X7315944Y-11063984D01*
X7315944Y-11063984D02*
X7249277Y-11140174D01*
X7249277Y-11140174D02*
X7277848Y-11140174D01*
X7277848Y-11140174D02*
X7296896Y-11149698D01*
X7296896Y-11149698D02*
X7306420Y-11159222D01*
X7306420Y-11159222D02*
X7315944Y-11178270D01*
X7315944Y-11178270D02*
X7315944Y-11225888D01*
X7315944Y-11225888D02*
X7306420Y-11244936D01*
X7306420Y-11244936D02*
X7296896Y-11254460D01*
X7296896Y-11254460D02*
X7277848Y-11263984D01*
X7277848Y-11263984D02*
X7220706Y-11263984D01*
X7220706Y-11263984D02*
X7201658Y-11254460D01*
X7201658Y-11254460D02*
X7192134Y-11244936D01*
X7392134Y-11063984D02*
X7392134Y-11102079D01*
X7468325Y-11063984D02*
X7468325Y-11102079D01*
X7763563Y-11340174D02*
X7754039Y-11330650D01*
X7754039Y-11330650D02*
X7734991Y-11302079D01*
X7734991Y-11302079D02*
X7725468Y-11283031D01*
X7725468Y-11283031D02*
X7715944Y-11254460D01*
X7715944Y-11254460D02*
X7706420Y-11206841D01*
X7706420Y-11206841D02*
X7706420Y-11168746D01*
X7706420Y-11168746D02*
X7715944Y-11121127D01*
X7715944Y-11121127D02*
X7725468Y-11092555D01*
X7725468Y-11092555D02*
X7734991Y-11073508D01*
X7734991Y-11073508D02*
X7754039Y-11044936D01*
X7754039Y-11044936D02*
X7763563Y-11035412D01*
X7830229Y-11083031D02*
X7839753Y-11073508D01*
X7839753Y-11073508D02*
X7858801Y-11063984D01*
X7858801Y-11063984D02*
X7906420Y-11063984D01*
X7906420Y-11063984D02*
X7925468Y-11073508D01*
X7925468Y-11073508D02*
X7934991Y-11083031D01*
X7934991Y-11083031D02*
X7944515Y-11102079D01*
X7944515Y-11102079D02*
X7944515Y-11121127D01*
X7944515Y-11121127D02*
X7934991Y-11149698D01*
X7934991Y-11149698D02*
X7820706Y-11263984D01*
X7820706Y-11263984D02*
X7944515Y-11263984D01*
X8182610Y-11263984D02*
X8182610Y-11063984D01*
X8268325Y-11263984D02*
X8268325Y-11159222D01*
X8268325Y-11159222D02*
X8258801Y-11140174D01*
X8258801Y-11140174D02*
X8239753Y-11130650D01*
X8239753Y-11130650D02*
X8211182Y-11130650D01*
X8211182Y-11130650D02*
X8192134Y-11140174D01*
X8192134Y-11140174D02*
X8182610Y-11149698D01*
X8392134Y-11263984D02*
X8373087Y-11254460D01*
X8373087Y-11254460D02*
X8363563Y-11244936D01*
X8363563Y-11244936D02*
X8354039Y-11225888D01*
X8354039Y-11225888D02*
X8354039Y-11168746D01*
X8354039Y-11168746D02*
X8363563Y-11149698D01*
X8363563Y-11149698D02*
X8373087Y-11140174D01*
X8373087Y-11140174D02*
X8392134Y-11130650D01*
X8392134Y-11130650D02*
X8420706Y-11130650D01*
X8420706Y-11130650D02*
X8439753Y-11140174D01*
X8439753Y-11140174D02*
X8449277Y-11149698D01*
X8449277Y-11149698D02*
X8458801Y-11168746D01*
X8458801Y-11168746D02*
X8458801Y-11225888D01*
X8458801Y-11225888D02*
X8449277Y-11244936D01*
X8449277Y-11244936D02*
X8439753Y-11254460D01*
X8439753Y-11254460D02*
X8420706Y-11263984D01*
X8420706Y-11263984D02*
X8392134Y-11263984D01*
X8573087Y-11263984D02*
X8554039Y-11254460D01*
X8554039Y-11254460D02*
X8544515Y-11235412D01*
X8544515Y-11235412D02*
X8544515Y-11063984D01*
X8725468Y-11254460D02*
X8706420Y-11263984D01*
X8706420Y-11263984D02*
X8668325Y-11263984D01*
X8668325Y-11263984D02*
X8649277Y-11254460D01*
X8649277Y-11254460D02*
X8639753Y-11235412D01*
X8639753Y-11235412D02*
X8639753Y-11159222D01*
X8639753Y-11159222D02*
X8649277Y-11140174D01*
X8649277Y-11140174D02*
X8668325Y-11130650D01*
X8668325Y-11130650D02*
X8706420Y-11130650D01*
X8706420Y-11130650D02*
X8725468Y-11140174D01*
X8725468Y-11140174D02*
X8734992Y-11159222D01*
X8734992Y-11159222D02*
X8734992Y-11178270D01*
X8734992Y-11178270D02*
X8639753Y-11197317D01*
X8811182Y-11254460D02*
X8830230Y-11263984D01*
X8830230Y-11263984D02*
X8868325Y-11263984D01*
X8868325Y-11263984D02*
X8887373Y-11254460D01*
X8887373Y-11254460D02*
X8896896Y-11235412D01*
X8896896Y-11235412D02*
X8896896Y-11225888D01*
X8896896Y-11225888D02*
X8887373Y-11206841D01*
X8887373Y-11206841D02*
X8868325Y-11197317D01*
X8868325Y-11197317D02*
X8839753Y-11197317D01*
X8839753Y-11197317D02*
X8820706Y-11187793D01*
X8820706Y-11187793D02*
X8811182Y-11168746D01*
X8811182Y-11168746D02*
X8811182Y-11159222D01*
X8811182Y-11159222D02*
X8820706Y-11140174D01*
X8820706Y-11140174D02*
X8839753Y-11130650D01*
X8839753Y-11130650D02*
X8868325Y-11130650D01*
X8868325Y-11130650D02*
X8887373Y-11140174D01*
X8963563Y-11340174D02*
X8973087Y-11330650D01*
X8973087Y-11330650D02*
X8992134Y-11302079D01*
X8992134Y-11302079D02*
X9001658Y-11283031D01*
X9001658Y-11283031D02*
X9011182Y-11254460D01*
X9011182Y-11254460D02*
X9020706Y-11206841D01*
X9020706Y-11206841D02*
X9020706Y-11168746D01*
X9020706Y-11168746D02*
X9011182Y-11121127D01*
X9011182Y-11121127D02*
X9001658Y-11092555D01*
X9001658Y-11092555D02*
X8992134Y-11073508D01*
X8992134Y-11073508D02*
X8973087Y-11044936D01*
X8973087Y-11044936D02*
X8963563Y-11035412D01*
X3988500Y-11392500D02*
X4188500Y-11592500D01*
X4188500Y-11392500D02*
X3988500Y-11592500D01*
X4159211Y-11563211D02*
X4159211Y-11421789D01*
X4017789Y-11421789D01*
X4017789Y-11563211D01*
X4159211Y-11563211D01*
X4430229Y-11383984D02*
X4554039Y-11383984D01*
X4554039Y-11383984D02*
X4487372Y-11460174D01*
X4487372Y-11460174D02*
X4515944Y-11460174D01*
X4515944Y-11460174D02*
X4534991Y-11469698D01*
X4534991Y-11469698D02*
X4544515Y-11479222D01*
X4544515Y-11479222D02*
X4554039Y-11498269D01*
X4554039Y-11498269D02*
X4554039Y-11545888D01*
X4554039Y-11545888D02*
X4544515Y-11564936D01*
X4544515Y-11564936D02*
X4534991Y-11574460D01*
X4534991Y-11574460D02*
X4515944Y-11583984D01*
X4515944Y-11583984D02*
X4458801Y-11583984D01*
X4458801Y-11583984D02*
X4439753Y-11574460D01*
X4439753Y-11574460D02*
X4430229Y-11564936D01*
X4639753Y-11564936D02*
X4649277Y-11574460D01*
X4649277Y-11574460D02*
X4639753Y-11583984D01*
X4639753Y-11583984D02*
X4630229Y-11574460D01*
X4630229Y-11574460D02*
X4639753Y-11564936D01*
X4639753Y-11564936D02*
X4639753Y-11583984D01*
X4725467Y-11403031D02*
X4734991Y-11393508D01*
X4734991Y-11393508D02*
X4754039Y-11383984D01*
X4754039Y-11383984D02*
X4801658Y-11383984D01*
X4801658Y-11383984D02*
X4820705Y-11393508D01*
X4820705Y-11393508D02*
X4830229Y-11403031D01*
X4830229Y-11403031D02*
X4839753Y-11422079D01*
X4839753Y-11422079D02*
X4839753Y-11441127D01*
X4839753Y-11441127D02*
X4830229Y-11469698D01*
X4830229Y-11469698D02*
X4715944Y-11583984D01*
X4715944Y-11583984D02*
X4839753Y-11583984D01*
X4963563Y-11383984D02*
X4982610Y-11383984D01*
X4982610Y-11383984D02*
X5001658Y-11393508D01*
X5001658Y-11393508D02*
X5011182Y-11403031D01*
X5011182Y-11403031D02*
X5020705Y-11422079D01*
X5020705Y-11422079D02*
X5030229Y-11460174D01*
X5030229Y-11460174D02*
X5030229Y-11507793D01*
X5030229Y-11507793D02*
X5020705Y-11545888D01*
X5020705Y-11545888D02*
X5011182Y-11564936D01*
X5011182Y-11564936D02*
X5001658Y-11574460D01*
X5001658Y-11574460D02*
X4982610Y-11583984D01*
X4982610Y-11583984D02*
X4963563Y-11583984D01*
X4963563Y-11583984D02*
X4944515Y-11574460D01*
X4944515Y-11574460D02*
X4934991Y-11564936D01*
X4934991Y-11564936D02*
X4925467Y-11545888D01*
X4925467Y-11545888D02*
X4915944Y-11507793D01*
X4915944Y-11507793D02*
X4915944Y-11460174D01*
X4915944Y-11460174D02*
X4925467Y-11422079D01*
X4925467Y-11422079D02*
X4934991Y-11403031D01*
X4934991Y-11403031D02*
X4944515Y-11393508D01*
X4944515Y-11393508D02*
X4963563Y-11383984D01*
X5154039Y-11383984D02*
X5173086Y-11383984D01*
X5173086Y-11383984D02*
X5192134Y-11393508D01*
X5192134Y-11393508D02*
X5201658Y-11403031D01*
X5201658Y-11403031D02*
X5211182Y-11422079D01*
X5211182Y-11422079D02*
X5220705Y-11460174D01*
X5220705Y-11460174D02*
X5220705Y-11507793D01*
X5220705Y-11507793D02*
X5211182Y-11545888D01*
X5211182Y-11545888D02*
X5201658Y-11564936D01*
X5201658Y-11564936D02*
X5192134Y-11574460D01*
X5192134Y-11574460D02*
X5173086Y-11583984D01*
X5173086Y-11583984D02*
X5154039Y-11583984D01*
X5154039Y-11583984D02*
X5134991Y-11574460D01*
X5134991Y-11574460D02*
X5125467Y-11564936D01*
X5125467Y-11564936D02*
X5115944Y-11545888D01*
X5115944Y-11545888D02*
X5106420Y-11507793D01*
X5106420Y-11507793D02*
X5106420Y-11460174D01*
X5106420Y-11460174D02*
X5115944Y-11422079D01*
X5115944Y-11422079D02*
X5125467Y-11403031D01*
X5125467Y-11403031D02*
X5134991Y-11393508D01*
X5134991Y-11393508D02*
X5154039Y-11383984D01*
X5306420Y-11583984D02*
X5306420Y-11450650D01*
X5306420Y-11469698D02*
X5315944Y-11460174D01*
X5315944Y-11460174D02*
X5334991Y-11450650D01*
X5334991Y-11450650D02*
X5363563Y-11450650D01*
X5363563Y-11450650D02*
X5382610Y-11460174D01*
X5382610Y-11460174D02*
X5392134Y-11479222D01*
X5392134Y-11479222D02*
X5392134Y-11583984D01*
X5392134Y-11479222D02*
X5401658Y-11460174D01*
X5401658Y-11460174D02*
X5420705Y-11450650D01*
X5420705Y-11450650D02*
X5449277Y-11450650D01*
X5449277Y-11450650D02*
X5468325Y-11460174D01*
X5468325Y-11460174D02*
X5477848Y-11479222D01*
X5477848Y-11479222D02*
X5477848Y-11583984D01*
X5573086Y-11583984D02*
X5573086Y-11450650D01*
X5573086Y-11469698D02*
X5582610Y-11460174D01*
X5582610Y-11460174D02*
X5601658Y-11450650D01*
X5601658Y-11450650D02*
X5630229Y-11450650D01*
X5630229Y-11450650D02*
X5649277Y-11460174D01*
X5649277Y-11460174D02*
X5658801Y-11479222D01*
X5658801Y-11479222D02*
X5658801Y-11583984D01*
X5658801Y-11479222D02*
X5668324Y-11460174D01*
X5668324Y-11460174D02*
X5687372Y-11450650D01*
X5687372Y-11450650D02*
X5715943Y-11450650D01*
X5715943Y-11450650D02*
X5734991Y-11460174D01*
X5734991Y-11460174D02*
X5744515Y-11479222D01*
X5744515Y-11479222D02*
X5744515Y-11583984D01*
X6134991Y-11374460D02*
X5963563Y-11631603D01*
X6392134Y-11383984D02*
X6411182Y-11383984D01*
X6411182Y-11383984D02*
X6430229Y-11393508D01*
X6430229Y-11393508D02*
X6439753Y-11403031D01*
X6439753Y-11403031D02*
X6449277Y-11422079D01*
X6449277Y-11422079D02*
X6458801Y-11460174D01*
X6458801Y-11460174D02*
X6458801Y-11507793D01*
X6458801Y-11507793D02*
X6449277Y-11545888D01*
X6449277Y-11545888D02*
X6439753Y-11564936D01*
X6439753Y-11564936D02*
X6430229Y-11574460D01*
X6430229Y-11574460D02*
X6411182Y-11583984D01*
X6411182Y-11583984D02*
X6392134Y-11583984D01*
X6392134Y-11583984D02*
X6373086Y-11574460D01*
X6373086Y-11574460D02*
X6363563Y-11564936D01*
X6363563Y-11564936D02*
X6354039Y-11545888D01*
X6354039Y-11545888D02*
X6344515Y-11507793D01*
X6344515Y-11507793D02*
X6344515Y-11460174D01*
X6344515Y-11460174D02*
X6354039Y-11422079D01*
X6354039Y-11422079D02*
X6363563Y-11403031D01*
X6363563Y-11403031D02*
X6373086Y-11393508D01*
X6373086Y-11393508D02*
X6392134Y-11383984D01*
X6544515Y-11564936D02*
X6554039Y-11574460D01*
X6554039Y-11574460D02*
X6544515Y-11583984D01*
X6544515Y-11583984D02*
X6534991Y-11574460D01*
X6534991Y-11574460D02*
X6544515Y-11564936D01*
X6544515Y-11564936D02*
X6544515Y-11583984D01*
X6744515Y-11583984D02*
X6630229Y-11583984D01*
X6687372Y-11583984D02*
X6687372Y-11383984D01*
X6687372Y-11383984D02*
X6668325Y-11412555D01*
X6668325Y-11412555D02*
X6649277Y-11431603D01*
X6649277Y-11431603D02*
X6630229Y-11441127D01*
X6820706Y-11403031D02*
X6830229Y-11393508D01*
X6830229Y-11393508D02*
X6849277Y-11383984D01*
X6849277Y-11383984D02*
X6896896Y-11383984D01*
X6896896Y-11383984D02*
X6915944Y-11393508D01*
X6915944Y-11393508D02*
X6925467Y-11403031D01*
X6925467Y-11403031D02*
X6934991Y-11422079D01*
X6934991Y-11422079D02*
X6934991Y-11441127D01*
X6934991Y-11441127D02*
X6925467Y-11469698D01*
X6925467Y-11469698D02*
X6811182Y-11583984D01*
X6811182Y-11583984D02*
X6934991Y-11583984D01*
X7106420Y-11383984D02*
X7068325Y-11383984D01*
X7068325Y-11383984D02*
X7049277Y-11393508D01*
X7049277Y-11393508D02*
X7039753Y-11403031D01*
X7039753Y-11403031D02*
X7020706Y-11431603D01*
X7020706Y-11431603D02*
X7011182Y-11469698D01*
X7011182Y-11469698D02*
X7011182Y-11545888D01*
X7011182Y-11545888D02*
X7020706Y-11564936D01*
X7020706Y-11564936D02*
X7030229Y-11574460D01*
X7030229Y-11574460D02*
X7049277Y-11583984D01*
X7049277Y-11583984D02*
X7087372Y-11583984D01*
X7087372Y-11583984D02*
X7106420Y-11574460D01*
X7106420Y-11574460D02*
X7115944Y-11564936D01*
X7115944Y-11564936D02*
X7125467Y-11545888D01*
X7125467Y-11545888D02*
X7125467Y-11498269D01*
X7125467Y-11498269D02*
X7115944Y-11479222D01*
X7115944Y-11479222D02*
X7106420Y-11469698D01*
X7106420Y-11469698D02*
X7087372Y-11460174D01*
X7087372Y-11460174D02*
X7049277Y-11460174D01*
X7049277Y-11460174D02*
X7030229Y-11469698D01*
X7030229Y-11469698D02*
X7020706Y-11479222D01*
X7020706Y-11479222D02*
X7011182Y-11498269D01*
X7249277Y-11383984D02*
X7268325Y-11383984D01*
X7268325Y-11383984D02*
X7287372Y-11393508D01*
X7287372Y-11393508D02*
X7296896Y-11403031D01*
X7296896Y-11403031D02*
X7306420Y-11422079D01*
X7306420Y-11422079D02*
X7315944Y-11460174D01*
X7315944Y-11460174D02*
X7315944Y-11507793D01*
X7315944Y-11507793D02*
X7306420Y-11545888D01*
X7306420Y-11545888D02*
X7296896Y-11564936D01*
X7296896Y-11564936D02*
X7287372Y-11574460D01*
X7287372Y-11574460D02*
X7268325Y-11583984D01*
X7268325Y-11583984D02*
X7249277Y-11583984D01*
X7249277Y-11583984D02*
X7230229Y-11574460D01*
X7230229Y-11574460D02*
X7220706Y-11564936D01*
X7220706Y-11564936D02*
X7211182Y-11545888D01*
X7211182Y-11545888D02*
X7201658Y-11507793D01*
X7201658Y-11507793D02*
X7201658Y-11460174D01*
X7201658Y-11460174D02*
X7211182Y-11422079D01*
X7211182Y-11422079D02*
X7220706Y-11403031D01*
X7220706Y-11403031D02*
X7230229Y-11393508D01*
X7230229Y-11393508D02*
X7249277Y-11383984D01*
X7392134Y-11383984D02*
X7392134Y-11422079D01*
X7468325Y-11383984D02*
X7468325Y-11422079D01*
X7763563Y-11660174D02*
X7754039Y-11650650D01*
X7754039Y-11650650D02*
X7734991Y-11622079D01*
X7734991Y-11622079D02*
X7725468Y-11603031D01*
X7725468Y-11603031D02*
X7715944Y-11574460D01*
X7715944Y-11574460D02*
X7706420Y-11526841D01*
X7706420Y-11526841D02*
X7706420Y-11488746D01*
X7706420Y-11488746D02*
X7715944Y-11441127D01*
X7715944Y-11441127D02*
X7725468Y-11412555D01*
X7725468Y-11412555D02*
X7734991Y-11393508D01*
X7734991Y-11393508D02*
X7754039Y-11364936D01*
X7754039Y-11364936D02*
X7763563Y-11355412D01*
X7925468Y-11450650D02*
X7925468Y-11583984D01*
X7877848Y-11374460D02*
X7830229Y-11517317D01*
X7830229Y-11517317D02*
X7954039Y-11517317D01*
X8182610Y-11583984D02*
X8182610Y-11383984D01*
X8268325Y-11583984D02*
X8268325Y-11479222D01*
X8268325Y-11479222D02*
X8258801Y-11460174D01*
X8258801Y-11460174D02*
X8239753Y-11450650D01*
X8239753Y-11450650D02*
X8211182Y-11450650D01*
X8211182Y-11450650D02*
X8192134Y-11460174D01*
X8192134Y-11460174D02*
X8182610Y-11469698D01*
X8392134Y-11583984D02*
X8373087Y-11574460D01*
X8373087Y-11574460D02*
X8363563Y-11564936D01*
X8363563Y-11564936D02*
X8354039Y-11545888D01*
X8354039Y-11545888D02*
X8354039Y-11488746D01*
X8354039Y-11488746D02*
X8363563Y-11469698D01*
X8363563Y-11469698D02*
X8373087Y-11460174D01*
X8373087Y-11460174D02*
X8392134Y-11450650D01*
X8392134Y-11450650D02*
X8420706Y-11450650D01*
X8420706Y-11450650D02*
X8439753Y-11460174D01*
X8439753Y-11460174D02*
X8449277Y-11469698D01*
X8449277Y-11469698D02*
X8458801Y-11488746D01*
X8458801Y-11488746D02*
X8458801Y-11545888D01*
X8458801Y-11545888D02*
X8449277Y-11564936D01*
X8449277Y-11564936D02*
X8439753Y-11574460D01*
X8439753Y-11574460D02*
X8420706Y-11583984D01*
X8420706Y-11583984D02*
X8392134Y-11583984D01*
X8573087Y-11583984D02*
X8554039Y-11574460D01*
X8554039Y-11574460D02*
X8544515Y-11555412D01*
X8544515Y-11555412D02*
X8544515Y-11383984D01*
X8725468Y-11574460D02*
X8706420Y-11583984D01*
X8706420Y-11583984D02*
X8668325Y-11583984D01*
X8668325Y-11583984D02*
X8649277Y-11574460D01*
X8649277Y-11574460D02*
X8639753Y-11555412D01*
X8639753Y-11555412D02*
X8639753Y-11479222D01*
X8639753Y-11479222D02*
X8649277Y-11460174D01*
X8649277Y-11460174D02*
X8668325Y-11450650D01*
X8668325Y-11450650D02*
X8706420Y-11450650D01*
X8706420Y-11450650D02*
X8725468Y-11460174D01*
X8725468Y-11460174D02*
X8734992Y-11479222D01*
X8734992Y-11479222D02*
X8734992Y-11498269D01*
X8734992Y-11498269D02*
X8639753Y-11517317D01*
X8811182Y-11574460D02*
X8830230Y-11583984D01*
X8830230Y-11583984D02*
X8868325Y-11583984D01*
X8868325Y-11583984D02*
X8887373Y-11574460D01*
X8887373Y-11574460D02*
X8896896Y-11555412D01*
X8896896Y-11555412D02*
X8896896Y-11545888D01*
X8896896Y-11545888D02*
X8887373Y-11526841D01*
X8887373Y-11526841D02*
X8868325Y-11517317D01*
X8868325Y-11517317D02*
X8839753Y-11517317D01*
X8839753Y-11517317D02*
X8820706Y-11507793D01*
X8820706Y-11507793D02*
X8811182Y-11488746D01*
X8811182Y-11488746D02*
X8811182Y-11479222D01*
X8811182Y-11479222D02*
X8820706Y-11460174D01*
X8820706Y-11460174D02*
X8839753Y-11450650D01*
X8839753Y-11450650D02*
X8868325Y-11450650D01*
X8868325Y-11450650D02*
X8887373Y-11460174D01*
X8963563Y-11660174D02*
X8973087Y-11650650D01*
X8973087Y-11650650D02*
X8992134Y-11622079D01*
X8992134Y-11622079D02*
X9001658Y-11603031D01*
X9001658Y-11603031D02*
X9011182Y-11574460D01*
X9011182Y-11574460D02*
X9020706Y-11526841D01*
X9020706Y-11526841D02*
X9020706Y-11488746D01*
X9020706Y-11488746D02*
X9011182Y-11441127D01*
X9011182Y-11441127D02*
X9001658Y-11412555D01*
X9001658Y-11412555D02*
X8992134Y-11393508D01*
X8992134Y-11393508D02*
X8973087Y-11364936D01*
X8973087Y-11364936D02*
X8963563Y-11355412D01*
X3988500Y-11712500D02*
X4188500Y-11912500D01*
X4188500Y-11712500D02*
X3988500Y-11912500D01*
X4088500Y-11912500D02*
X4188500Y-11812500D01*
X4088500Y-11712500D01*
X3988500Y-11812500D01*
X4088500Y-11912500D01*
X4534991Y-11770650D02*
X4534991Y-11903984D01*
X4487372Y-11694460D02*
X4439753Y-11837317D01*
X4439753Y-11837317D02*
X4563563Y-11837317D01*
X4639753Y-11884936D02*
X4649277Y-11894460D01*
X4649277Y-11894460D02*
X4639753Y-11903984D01*
X4639753Y-11903984D02*
X4630229Y-11894460D01*
X4630229Y-11894460D02*
X4639753Y-11884936D01*
X4639753Y-11884936D02*
X4639753Y-11903984D01*
X4773086Y-11703984D02*
X4792134Y-11703984D01*
X4792134Y-11703984D02*
X4811182Y-11713508D01*
X4811182Y-11713508D02*
X4820705Y-11723031D01*
X4820705Y-11723031D02*
X4830229Y-11742079D01*
X4830229Y-11742079D02*
X4839753Y-11780174D01*
X4839753Y-11780174D02*
X4839753Y-11827793D01*
X4839753Y-11827793D02*
X4830229Y-11865888D01*
X4830229Y-11865888D02*
X4820705Y-11884936D01*
X4820705Y-11884936D02*
X4811182Y-11894460D01*
X4811182Y-11894460D02*
X4792134Y-11903984D01*
X4792134Y-11903984D02*
X4773086Y-11903984D01*
X4773086Y-11903984D02*
X4754039Y-11894460D01*
X4754039Y-11894460D02*
X4744515Y-11884936D01*
X4744515Y-11884936D02*
X4734991Y-11865888D01*
X4734991Y-11865888D02*
X4725467Y-11827793D01*
X4725467Y-11827793D02*
X4725467Y-11780174D01*
X4725467Y-11780174D02*
X4734991Y-11742079D01*
X4734991Y-11742079D02*
X4744515Y-11723031D01*
X4744515Y-11723031D02*
X4754039Y-11713508D01*
X4754039Y-11713508D02*
X4773086Y-11703984D01*
X4963563Y-11703984D02*
X4982610Y-11703984D01*
X4982610Y-11703984D02*
X5001658Y-11713508D01*
X5001658Y-11713508D02*
X5011182Y-11723031D01*
X5011182Y-11723031D02*
X5020705Y-11742079D01*
X5020705Y-11742079D02*
X5030229Y-11780174D01*
X5030229Y-11780174D02*
X5030229Y-11827793D01*
X5030229Y-11827793D02*
X5020705Y-11865888D01*
X5020705Y-11865888D02*
X5011182Y-11884936D01*
X5011182Y-11884936D02*
X5001658Y-11894460D01*
X5001658Y-11894460D02*
X4982610Y-11903984D01*
X4982610Y-11903984D02*
X4963563Y-11903984D01*
X4963563Y-11903984D02*
X4944515Y-11894460D01*
X4944515Y-11894460D02*
X4934991Y-11884936D01*
X4934991Y-11884936D02*
X4925467Y-11865888D01*
X4925467Y-11865888D02*
X4915944Y-11827793D01*
X4915944Y-11827793D02*
X4915944Y-11780174D01*
X4915944Y-11780174D02*
X4925467Y-11742079D01*
X4925467Y-11742079D02*
X4934991Y-11723031D01*
X4934991Y-11723031D02*
X4944515Y-11713508D01*
X4944515Y-11713508D02*
X4963563Y-11703984D01*
X5154039Y-11703984D02*
X5173086Y-11703984D01*
X5173086Y-11703984D02*
X5192134Y-11713508D01*
X5192134Y-11713508D02*
X5201658Y-11723031D01*
X5201658Y-11723031D02*
X5211182Y-11742079D01*
X5211182Y-11742079D02*
X5220705Y-11780174D01*
X5220705Y-11780174D02*
X5220705Y-11827793D01*
X5220705Y-11827793D02*
X5211182Y-11865888D01*
X5211182Y-11865888D02*
X5201658Y-11884936D01*
X5201658Y-11884936D02*
X5192134Y-11894460D01*
X5192134Y-11894460D02*
X5173086Y-11903984D01*
X5173086Y-11903984D02*
X5154039Y-11903984D01*
X5154039Y-11903984D02*
X5134991Y-11894460D01*
X5134991Y-11894460D02*
X5125467Y-11884936D01*
X5125467Y-11884936D02*
X5115944Y-11865888D01*
X5115944Y-11865888D02*
X5106420Y-11827793D01*
X5106420Y-11827793D02*
X5106420Y-11780174D01*
X5106420Y-11780174D02*
X5115944Y-11742079D01*
X5115944Y-11742079D02*
X5125467Y-11723031D01*
X5125467Y-11723031D02*
X5134991Y-11713508D01*
X5134991Y-11713508D02*
X5154039Y-11703984D01*
X5306420Y-11903984D02*
X5306420Y-11770650D01*
X5306420Y-11789698D02*
X5315944Y-11780174D01*
X5315944Y-11780174D02*
X5334991Y-11770650D01*
X5334991Y-11770650D02*
X5363563Y-11770650D01*
X5363563Y-11770650D02*
X5382610Y-11780174D01*
X5382610Y-11780174D02*
X5392134Y-11799222D01*
X5392134Y-11799222D02*
X5392134Y-11903984D01*
X5392134Y-11799222D02*
X5401658Y-11780174D01*
X5401658Y-11780174D02*
X5420705Y-11770650D01*
X5420705Y-11770650D02*
X5449277Y-11770650D01*
X5449277Y-11770650D02*
X5468325Y-11780174D01*
X5468325Y-11780174D02*
X5477848Y-11799222D01*
X5477848Y-11799222D02*
X5477848Y-11903984D01*
X5573086Y-11903984D02*
X5573086Y-11770650D01*
X5573086Y-11789698D02*
X5582610Y-11780174D01*
X5582610Y-11780174D02*
X5601658Y-11770650D01*
X5601658Y-11770650D02*
X5630229Y-11770650D01*
X5630229Y-11770650D02*
X5649277Y-11780174D01*
X5649277Y-11780174D02*
X5658801Y-11799222D01*
X5658801Y-11799222D02*
X5658801Y-11903984D01*
X5658801Y-11799222D02*
X5668324Y-11780174D01*
X5668324Y-11780174D02*
X5687372Y-11770650D01*
X5687372Y-11770650D02*
X5715943Y-11770650D01*
X5715943Y-11770650D02*
X5734991Y-11780174D01*
X5734991Y-11780174D02*
X5744515Y-11799222D01*
X5744515Y-11799222D02*
X5744515Y-11903984D01*
X6134991Y-11694460D02*
X5963563Y-11951603D01*
X6392134Y-11703984D02*
X6411182Y-11703984D01*
X6411182Y-11703984D02*
X6430229Y-11713508D01*
X6430229Y-11713508D02*
X6439753Y-11723031D01*
X6439753Y-11723031D02*
X6449277Y-11742079D01*
X6449277Y-11742079D02*
X6458801Y-11780174D01*
X6458801Y-11780174D02*
X6458801Y-11827793D01*
X6458801Y-11827793D02*
X6449277Y-11865888D01*
X6449277Y-11865888D02*
X6439753Y-11884936D01*
X6439753Y-11884936D02*
X6430229Y-11894460D01*
X6430229Y-11894460D02*
X6411182Y-11903984D01*
X6411182Y-11903984D02*
X6392134Y-11903984D01*
X6392134Y-11903984D02*
X6373086Y-11894460D01*
X6373086Y-11894460D02*
X6363563Y-11884936D01*
X6363563Y-11884936D02*
X6354039Y-11865888D01*
X6354039Y-11865888D02*
X6344515Y-11827793D01*
X6344515Y-11827793D02*
X6344515Y-11780174D01*
X6344515Y-11780174D02*
X6354039Y-11742079D01*
X6354039Y-11742079D02*
X6363563Y-11723031D01*
X6363563Y-11723031D02*
X6373086Y-11713508D01*
X6373086Y-11713508D02*
X6392134Y-11703984D01*
X6544515Y-11884936D02*
X6554039Y-11894460D01*
X6554039Y-11894460D02*
X6544515Y-11903984D01*
X6544515Y-11903984D02*
X6534991Y-11894460D01*
X6534991Y-11894460D02*
X6544515Y-11884936D01*
X6544515Y-11884936D02*
X6544515Y-11903984D01*
X6744515Y-11903984D02*
X6630229Y-11903984D01*
X6687372Y-11903984D02*
X6687372Y-11703984D01*
X6687372Y-11703984D02*
X6668325Y-11732555D01*
X6668325Y-11732555D02*
X6649277Y-11751603D01*
X6649277Y-11751603D02*
X6630229Y-11761127D01*
X6925467Y-11703984D02*
X6830229Y-11703984D01*
X6830229Y-11703984D02*
X6820706Y-11799222D01*
X6820706Y-11799222D02*
X6830229Y-11789698D01*
X6830229Y-11789698D02*
X6849277Y-11780174D01*
X6849277Y-11780174D02*
X6896896Y-11780174D01*
X6896896Y-11780174D02*
X6915944Y-11789698D01*
X6915944Y-11789698D02*
X6925467Y-11799222D01*
X6925467Y-11799222D02*
X6934991Y-11818269D01*
X6934991Y-11818269D02*
X6934991Y-11865888D01*
X6934991Y-11865888D02*
X6925467Y-11884936D01*
X6925467Y-11884936D02*
X6915944Y-11894460D01*
X6915944Y-11894460D02*
X6896896Y-11903984D01*
X6896896Y-11903984D02*
X6849277Y-11903984D01*
X6849277Y-11903984D02*
X6830229Y-11894460D01*
X6830229Y-11894460D02*
X6820706Y-11884936D01*
X7001658Y-11703984D02*
X7134991Y-11703984D01*
X7134991Y-11703984D02*
X7049277Y-11903984D01*
X7306420Y-11703984D02*
X7211182Y-11703984D01*
X7211182Y-11703984D02*
X7201658Y-11799222D01*
X7201658Y-11799222D02*
X7211182Y-11789698D01*
X7211182Y-11789698D02*
X7230229Y-11780174D01*
X7230229Y-11780174D02*
X7277848Y-11780174D01*
X7277848Y-11780174D02*
X7296896Y-11789698D01*
X7296896Y-11789698D02*
X7306420Y-11799222D01*
X7306420Y-11799222D02*
X7315944Y-11818269D01*
X7315944Y-11818269D02*
X7315944Y-11865888D01*
X7315944Y-11865888D02*
X7306420Y-11884936D01*
X7306420Y-11884936D02*
X7296896Y-11894460D01*
X7296896Y-11894460D02*
X7277848Y-11903984D01*
X7277848Y-11903984D02*
X7230229Y-11903984D01*
X7230229Y-11903984D02*
X7211182Y-11894460D01*
X7211182Y-11894460D02*
X7201658Y-11884936D01*
X7392134Y-11703984D02*
X7392134Y-11742079D01*
X7468325Y-11703984D02*
X7468325Y-11742079D01*
X7763563Y-11980174D02*
X7754039Y-11970650D01*
X7754039Y-11970650D02*
X7734991Y-11942079D01*
X7734991Y-11942079D02*
X7725468Y-11923031D01*
X7725468Y-11923031D02*
X7715944Y-11894460D01*
X7715944Y-11894460D02*
X7706420Y-11846841D01*
X7706420Y-11846841D02*
X7706420Y-11808746D01*
X7706420Y-11808746D02*
X7715944Y-11761127D01*
X7715944Y-11761127D02*
X7725468Y-11732555D01*
X7725468Y-11732555D02*
X7734991Y-11713508D01*
X7734991Y-11713508D02*
X7754039Y-11684936D01*
X7754039Y-11684936D02*
X7763563Y-11675412D01*
X7925468Y-11770650D02*
X7925468Y-11903984D01*
X7877848Y-11694460D02*
X7830229Y-11837317D01*
X7830229Y-11837317D02*
X7954039Y-11837317D01*
X8182610Y-11903984D02*
X8182610Y-11703984D01*
X8268325Y-11903984D02*
X8268325Y-11799222D01*
X8268325Y-11799222D02*
X8258801Y-11780174D01*
X8258801Y-11780174D02*
X8239753Y-11770650D01*
X8239753Y-11770650D02*
X8211182Y-11770650D01*
X8211182Y-11770650D02*
X8192134Y-11780174D01*
X8192134Y-11780174D02*
X8182610Y-11789698D01*
X8392134Y-11903984D02*
X8373087Y-11894460D01*
X8373087Y-11894460D02*
X8363563Y-11884936D01*
X8363563Y-11884936D02*
X8354039Y-11865888D01*
X8354039Y-11865888D02*
X8354039Y-11808746D01*
X8354039Y-11808746D02*
X8363563Y-11789698D01*
X8363563Y-11789698D02*
X8373087Y-11780174D01*
X8373087Y-11780174D02*
X8392134Y-11770650D01*
X8392134Y-11770650D02*
X8420706Y-11770650D01*
X8420706Y-11770650D02*
X8439753Y-11780174D01*
X8439753Y-11780174D02*
X8449277Y-11789698D01*
X8449277Y-11789698D02*
X8458801Y-11808746D01*
X8458801Y-11808746D02*
X8458801Y-11865888D01*
X8458801Y-11865888D02*
X8449277Y-11884936D01*
X8449277Y-11884936D02*
X8439753Y-11894460D01*
X8439753Y-11894460D02*
X8420706Y-11903984D01*
X8420706Y-11903984D02*
X8392134Y-11903984D01*
X8573087Y-11903984D02*
X8554039Y-11894460D01*
X8554039Y-11894460D02*
X8544515Y-11875412D01*
X8544515Y-11875412D02*
X8544515Y-11703984D01*
X8725468Y-11894460D02*
X8706420Y-11903984D01*
X8706420Y-11903984D02*
X8668325Y-11903984D01*
X8668325Y-11903984D02*
X8649277Y-11894460D01*
X8649277Y-11894460D02*
X8639753Y-11875412D01*
X8639753Y-11875412D02*
X8639753Y-11799222D01*
X8639753Y-11799222D02*
X8649277Y-11780174D01*
X8649277Y-11780174D02*
X8668325Y-11770650D01*
X8668325Y-11770650D02*
X8706420Y-11770650D01*
X8706420Y-11770650D02*
X8725468Y-11780174D01*
X8725468Y-11780174D02*
X8734992Y-11799222D01*
X8734992Y-11799222D02*
X8734992Y-11818269D01*
X8734992Y-11818269D02*
X8639753Y-11837317D01*
X8811182Y-11894460D02*
X8830230Y-11903984D01*
X8830230Y-11903984D02*
X8868325Y-11903984D01*
X8868325Y-11903984D02*
X8887373Y-11894460D01*
X8887373Y-11894460D02*
X8896896Y-11875412D01*
X8896896Y-11875412D02*
X8896896Y-11865888D01*
X8896896Y-11865888D02*
X8887373Y-11846841D01*
X8887373Y-11846841D02*
X8868325Y-11837317D01*
X8868325Y-11837317D02*
X8839753Y-11837317D01*
X8839753Y-11837317D02*
X8820706Y-11827793D01*
X8820706Y-11827793D02*
X8811182Y-11808746D01*
X8811182Y-11808746D02*
X8811182Y-11799222D01*
X8811182Y-11799222D02*
X8820706Y-11780174D01*
X8820706Y-11780174D02*
X8839753Y-11770650D01*
X8839753Y-11770650D02*
X8868325Y-11770650D01*
X8868325Y-11770650D02*
X8887373Y-11780174D01*
X8963563Y-11980174D02*
X8973087Y-11970650D01*
X8973087Y-11970650D02*
X8992134Y-11942079D01*
X8992134Y-11942079D02*
X9001658Y-11923031D01*
X9001658Y-11923031D02*
X9011182Y-11894460D01*
X9011182Y-11894460D02*
X9020706Y-11846841D01*
X9020706Y-11846841D02*
X9020706Y-11808746D01*
X9020706Y-11808746D02*
X9011182Y-11761127D01*
X9011182Y-11761127D02*
X9001658Y-11732555D01*
X9001658Y-11732555D02*
X8992134Y-11713508D01*
X8992134Y-11713508D02*
X8973087Y-11684936D01*
X8973087Y-11684936D02*
X8963563Y-11675412D01*
M02*
