%TF.GenerationSoftware,KiCad,Pcbnew,8.0.3*%
%TF.CreationDate,2024-07-05T00:04:43-04:00*%
%TF.ProjectId,rrc_pcb2,7272635f-7063-4623-922e-6b696361645f,3*%
%TF.SameCoordinates,Original*%
%TF.FileFunction,Drillmap*%
%TF.FilePolarity,Positive*%
%FSLAX45Y45*%
G04 Gerber Fmt 4.5, Leading zero omitted, Abs format (unit mm)*
G04 Created by KiCad (PCBNEW 8.0.3) date 2024-07-05 00:04:43*
%MOMM*%
%LPD*%
G01*
G04 APERTURE LIST*
%ADD10C,0.050000*%
%ADD11C,0.100000*%
%ADD12C,0.200000*%
G04 APERTURE END LIST*
D10*
X4191000Y-2065671D02*
X18796000Y-2065671D01*
X18796000Y-9271000D01*
X4191000Y-9271000D01*
X4191000Y-2065671D01*
D11*
X16335679Y-5153657D02*
G75*
G02*
X15985679Y-5153657I-175000J0D01*
G01*
X15985679Y-5153657D02*
G75*
G02*
X16335679Y-5153657I175000J0D01*
G01*
X6465365Y-5815567D02*
G75*
G02*
X6055365Y-5815567I-205000J0D01*
G01*
X6055365Y-5815567D02*
G75*
G02*
X6465365Y-5815567I205000J0D01*
G01*
X6465365Y-8715567D02*
G75*
G02*
X6055365Y-8715567I-205000J0D01*
G01*
X6055365Y-8715567D02*
G75*
G02*
X6465365Y-8715567I205000J0D01*
G01*
X11665365Y-5815567D02*
G75*
G02*
X11255365Y-5815567I-205000J0D01*
G01*
X11255365Y-5815567D02*
G75*
G02*
X11665365Y-5815567I205000J0D01*
G01*
X11665365Y-8715567D02*
G75*
G02*
X11255365Y-8715567I-205000J0D01*
G01*
X11255365Y-8715567D02*
G75*
G02*
X11665365Y-8715567I205000J0D01*
G01*
X11054883Y-4934784D02*
G75*
G02*
X10804883Y-4934784I-125000J0D01*
G01*
X10804883Y-4934784D02*
G75*
G02*
X11054883Y-4934784I125000J0D01*
G01*
X12832883Y-4934784D02*
G75*
G02*
X12582883Y-4934784I-125000J0D01*
G01*
X12582883Y-4934784D02*
G75*
G02*
X12832883Y-4934784I125000J0D01*
G01*
X6218454Y-2479715D02*
G75*
G02*
X5868454Y-2479715I-175000J0D01*
G01*
X5868454Y-2479715D02*
G75*
G02*
X6218454Y-2479715I175000J0D01*
G01*
X6218454Y-4929715D02*
G75*
G02*
X5868454Y-4929715I-175000J0D01*
G01*
X5868454Y-4929715D02*
G75*
G02*
X6218454Y-4929715I175000J0D01*
G01*
X9968454Y-3704715D02*
G75*
G02*
X9618454Y-3704715I-175000J0D01*
G01*
X9618454Y-3704715D02*
G75*
G02*
X9968454Y-3704715I175000J0D01*
G01*
X12596000Y-6754000D02*
G75*
G02*
X12296000Y-6754000I-150000J0D01*
G01*
X12296000Y-6754000D02*
G75*
G02*
X12596000Y-6754000I150000J0D01*
G01*
X12596000Y-8448000D02*
G75*
G02*
X12296000Y-8448000I-150000J0D01*
G01*
X12296000Y-8448000D02*
G75*
G02*
X12596000Y-8448000I150000J0D01*
G01*
D12*
X4449277Y-9584984D02*
X4449277Y-9384984D01*
X4449277Y-9384984D02*
X4496896Y-9384984D01*
X4496896Y-9384984D02*
X4525467Y-9394508D01*
X4525467Y-9394508D02*
X4544515Y-9413555D01*
X4544515Y-9413555D02*
X4554039Y-9432603D01*
X4554039Y-9432603D02*
X4563563Y-9470698D01*
X4563563Y-9470698D02*
X4563563Y-9499270D01*
X4563563Y-9499270D02*
X4554039Y-9537365D01*
X4554039Y-9537365D02*
X4544515Y-9556412D01*
X4544515Y-9556412D02*
X4525467Y-9575460D01*
X4525467Y-9575460D02*
X4496896Y-9584984D01*
X4496896Y-9584984D02*
X4449277Y-9584984D01*
X4649277Y-9584984D02*
X4649277Y-9451650D01*
X4649277Y-9489746D02*
X4658801Y-9470698D01*
X4658801Y-9470698D02*
X4668324Y-9461174D01*
X4668324Y-9461174D02*
X4687372Y-9451650D01*
X4687372Y-9451650D02*
X4706420Y-9451650D01*
X4773086Y-9584984D02*
X4773086Y-9451650D01*
X4773086Y-9384984D02*
X4763563Y-9394508D01*
X4763563Y-9394508D02*
X4773086Y-9404031D01*
X4773086Y-9404031D02*
X4782610Y-9394508D01*
X4782610Y-9394508D02*
X4773086Y-9384984D01*
X4773086Y-9384984D02*
X4773086Y-9404031D01*
X4896896Y-9584984D02*
X4877848Y-9575460D01*
X4877848Y-9575460D02*
X4868324Y-9556412D01*
X4868324Y-9556412D02*
X4868324Y-9384984D01*
X5001658Y-9584984D02*
X4982610Y-9575460D01*
X4982610Y-9575460D02*
X4973086Y-9556412D01*
X4973086Y-9556412D02*
X4973086Y-9384984D01*
X5230229Y-9584984D02*
X5230229Y-9384984D01*
X5230229Y-9384984D02*
X5296896Y-9527841D01*
X5296896Y-9527841D02*
X5363563Y-9384984D01*
X5363563Y-9384984D02*
X5363563Y-9584984D01*
X5544515Y-9584984D02*
X5544515Y-9480222D01*
X5544515Y-9480222D02*
X5534991Y-9461174D01*
X5534991Y-9461174D02*
X5515944Y-9451650D01*
X5515944Y-9451650D02*
X5477848Y-9451650D01*
X5477848Y-9451650D02*
X5458801Y-9461174D01*
X5544515Y-9575460D02*
X5525467Y-9584984D01*
X5525467Y-9584984D02*
X5477848Y-9584984D01*
X5477848Y-9584984D02*
X5458801Y-9575460D01*
X5458801Y-9575460D02*
X5449277Y-9556412D01*
X5449277Y-9556412D02*
X5449277Y-9537365D01*
X5449277Y-9537365D02*
X5458801Y-9518317D01*
X5458801Y-9518317D02*
X5477848Y-9508793D01*
X5477848Y-9508793D02*
X5525467Y-9508793D01*
X5525467Y-9508793D02*
X5544515Y-9499270D01*
X5639753Y-9451650D02*
X5639753Y-9651650D01*
X5639753Y-9461174D02*
X5658801Y-9451650D01*
X5658801Y-9451650D02*
X5696896Y-9451650D01*
X5696896Y-9451650D02*
X5715943Y-9461174D01*
X5715943Y-9461174D02*
X5725467Y-9470698D01*
X5725467Y-9470698D02*
X5734991Y-9489746D01*
X5734991Y-9489746D02*
X5734991Y-9546889D01*
X5734991Y-9546889D02*
X5725467Y-9565936D01*
X5725467Y-9565936D02*
X5715943Y-9575460D01*
X5715943Y-9575460D02*
X5696896Y-9584984D01*
X5696896Y-9584984D02*
X5658801Y-9584984D01*
X5658801Y-9584984D02*
X5639753Y-9575460D01*
X5820705Y-9565936D02*
X5830229Y-9575460D01*
X5830229Y-9575460D02*
X5820705Y-9584984D01*
X5820705Y-9584984D02*
X5811182Y-9575460D01*
X5811182Y-9575460D02*
X5820705Y-9565936D01*
X5820705Y-9565936D02*
X5820705Y-9584984D01*
X5820705Y-9461174D02*
X5830229Y-9470698D01*
X5830229Y-9470698D02*
X5820705Y-9480222D01*
X5820705Y-9480222D02*
X5811182Y-9470698D01*
X5811182Y-9470698D02*
X5820705Y-9461174D01*
X5820705Y-9461174D02*
X5820705Y-9480222D01*
M02*
