%TF.GenerationSoftware,KiCad,Pcbnew,7.0.6*%
%TF.CreationDate,2023-08-10T16:59:18-04:00*%
%TF.ProjectId,rrc_pcb3,7272635f-7063-4623-932e-6b696361645f,rev?*%
%TF.SameCoordinates,Original*%
%TF.FileFunction,Plated,1,2,PTH,Drill*%
%TF.FilePolarity,Positive*%
%FSLAX46Y46*%
G04 Gerber Fmt 4.6, Leading zero omitted, Abs format (unit mm)*
G04 Created by KiCad (PCBNEW 7.0.6) date 2023-08-10 16:59:18*
%MOMM*%
%LPD*%
G01*
G04 APERTURE LIST*
%TA.AperFunction,ViaDrill*%
%ADD10C,0.400000*%
%TD*%
%TA.AperFunction,ComponentDrill*%
%ADD11C,0.800000*%
%TD*%
%TA.AperFunction,ComponentDrill*%
%ADD12C,1.000000*%
%TD*%
%TA.AperFunction,ComponentDrill*%
%ADD13C,1.020000*%
%TD*%
%TA.AperFunction,ComponentDrill*%
%ADD14C,1.100000*%
%TD*%
%TA.AperFunction,ComponentDrill*%
%ADD15C,2.000000*%
%TD*%
%TA.AperFunction,ComponentDrill*%
%ADD16C,2.700000*%
%TD*%
%TA.AperFunction,ComponentDrill*%
%ADD17C,3.200000*%
%TD*%
%TA.AperFunction,ComponentDrill*%
%ADD18C,4.000000*%
%TD*%
G04 APERTURE END LIST*
D10*
X58420000Y-30480000D03*
X68580000Y-30480000D03*
X78740000Y-48260000D03*
X80299748Y-26667644D03*
X81280000Y-25400000D03*
X81280000Y-30480000D03*
X86360000Y-33020000D03*
X86360000Y-55880000D03*
X93980000Y-33020000D03*
X106680000Y-40640000D03*
X114300000Y-30480000D03*
X116840000Y-50800000D03*
X121920000Y-48260000D03*
X124460000Y-58420000D03*
X127000000Y-50800000D03*
X132080000Y-45720000D03*
X132080000Y-53340000D03*
X137160000Y-43180000D03*
X137160000Y-53340000D03*
D11*
%TO.C,U2*%
X64230000Y-29210000D03*
X64230000Y-31750000D03*
X76470000Y-25298400D03*
X76470000Y-27298400D03*
X76470000Y-29298400D03*
X78470000Y-25298400D03*
X78470000Y-27298400D03*
X78470000Y-29298400D03*
%TO.C,R2*%
X96520000Y-43180000D03*
X106680000Y-43180000D03*
%TO.C,R1*%
X110614838Y-43116036D03*
X120774838Y-43116036D03*
%TO.C,R3*%
X168783102Y-82712958D03*
%TO.C,R4*%
X168783102Y-86704287D03*
%TO.C,R3*%
X178943102Y-82712958D03*
%TO.C,R4*%
X178943102Y-86704287D03*
D12*
%TO.C,BZ1*%
X48467845Y-24178236D03*
X48467845Y-31778236D03*
%TO.C,J3*%
X71120000Y-43180000D03*
X73660000Y-43180000D03*
X76200000Y-43180000D03*
%TO.C,U4*%
X76828599Y-56114231D03*
X76828599Y-58654231D03*
X76828599Y-61194231D03*
X76828599Y-63734231D03*
X76828599Y-66274231D03*
X76828599Y-68814231D03*
X76828599Y-71354231D03*
X76828599Y-73894231D03*
X76828599Y-76434231D03*
X76828599Y-78974231D03*
X76828599Y-81514231D03*
X76828599Y-84054231D03*
X79368599Y-56114231D03*
X79368599Y-58654231D03*
X79368599Y-61194231D03*
X79368599Y-63734231D03*
X79368599Y-66274231D03*
X79368599Y-68814231D03*
X79368599Y-71354231D03*
X79368599Y-73894231D03*
X79368599Y-76434231D03*
X79368599Y-78974231D03*
X79368599Y-81514231D03*
X79368599Y-84054231D03*
%TO.C,J2*%
X83820000Y-43180000D03*
X86360000Y-43180000D03*
X88900000Y-43180000D03*
%TO.C,U3*%
X142884358Y-31086925D03*
X142884358Y-33626925D03*
X142884358Y-36166925D03*
X142884358Y-38706925D03*
%TO.C,U1*%
X156240052Y-25043676D03*
X156240052Y-27583676D03*
X158780052Y-25043676D03*
X158780052Y-27583676D03*
X161320052Y-25043676D03*
X161320052Y-27583676D03*
X163860052Y-25043676D03*
X163860052Y-27583676D03*
X166400052Y-25043676D03*
X166400052Y-27583676D03*
X168940052Y-25043676D03*
X168940052Y-27583676D03*
X171480052Y-25043676D03*
X171480052Y-27583676D03*
X174020052Y-25043676D03*
X174020052Y-27583676D03*
D13*
%TO.C,U5*%
X44883617Y-36924940D03*
X47423617Y-36924940D03*
X49963617Y-36924940D03*
X52503617Y-36924940D03*
X55043617Y-36924940D03*
X57583617Y-36924940D03*
X60123617Y-36924940D03*
D14*
%TO.C,U2*%
X63500000Y-22860000D03*
X63500000Y-38100000D03*
X66040000Y-22860000D03*
X66040000Y-25400000D03*
X66040000Y-38100000D03*
X68580000Y-22860000D03*
X68580000Y-38100000D03*
X69799200Y-35049200D03*
X71120000Y-22860000D03*
X71120000Y-38100000D03*
X72339200Y-35049200D03*
X73660000Y-22860000D03*
X73660000Y-38100000D03*
X74879200Y-35049200D03*
X76200000Y-22860000D03*
X76200000Y-38100000D03*
X77419200Y-35049200D03*
X78740000Y-22860000D03*
X78740000Y-38100000D03*
X79959200Y-35049200D03*
X81280000Y-22860000D03*
X81280000Y-38100000D03*
X83820000Y-22860000D03*
X83820000Y-38100000D03*
X86360000Y-22860000D03*
X86360000Y-38100000D03*
X88900000Y-22860000D03*
X88900000Y-38100000D03*
X91440000Y-22860000D03*
X91440000Y-38100000D03*
X93980000Y-22860000D03*
X93980000Y-38100000D03*
X96520000Y-22860000D03*
X96520000Y-38100000D03*
X99060000Y-22860000D03*
X99060000Y-38100000D03*
X101600000Y-22860000D03*
X101600000Y-38100000D03*
X104140000Y-22860000D03*
X104140000Y-38100000D03*
X106680000Y-22860000D03*
X106680000Y-38100000D03*
X109220000Y-22860000D03*
X109220000Y-25400000D03*
X109220000Y-27940000D03*
X109220000Y-30480000D03*
X109220000Y-33020000D03*
X109220000Y-35560000D03*
X109220000Y-38100000D03*
X111760000Y-22860000D03*
X111760000Y-38100000D03*
X114300000Y-22860000D03*
X114300000Y-38100000D03*
X116840000Y-22860000D03*
X116840000Y-38100000D03*
X119380000Y-22860000D03*
X119380000Y-38100000D03*
X121920000Y-22860000D03*
X121920000Y-38100000D03*
D15*
%TO.C,U7*%
X84241777Y-48883679D03*
X84241777Y-86243679D03*
X90241777Y-52323679D03*
X90241777Y-67563679D03*
%TO.C,U3*%
X127934249Y-35316925D03*
%TO.C,U7*%
X142241777Y-52323679D03*
X142241777Y-67563679D03*
X144741777Y-48883679D03*
X144741777Y-86243679D03*
%TO.C,U3*%
X146514797Y-35571831D03*
D16*
%TO.C,J1*%
X152480000Y-85537678D03*
X157480000Y-85537678D03*
D17*
%TO.C,U5*%
X46153617Y-46429940D03*
%TO.C,U1*%
X152832312Y-40425556D03*
X165082312Y-77925556D03*
X177332312Y-40425556D03*
D18*
%TO.C,U4*%
X46263599Y-59924231D03*
X46263599Y-78974231D03*
X66148695Y-59924231D03*
X66148695Y-78974231D03*
M02*
