%TF.GenerationSoftware,KiCad,Pcbnew,7.0.6*%
%TF.CreationDate,2023-08-10T16:59:19-04:00*%
%TF.ProjectId,rrc_pcb3,7272635f-7063-4623-932e-6b696361645f,rev?*%
%TF.SameCoordinates,Original*%
%TF.FileFunction,Drillmap*%
%TF.FilePolarity,Positive*%
%FSLAX45Y45*%
G04 Gerber Fmt 4.5, Leading zero omitted, Abs format (unit mm)*
G04 Created by KiCad (PCBNEW 7.0.6) date 2023-08-10 16:59:19*
%MOMM*%
%LPD*%
G01*
G04 APERTURE LIST*
%ADD10C,0.050000*%
%ADD11C,0.200000*%
G04 APERTURE END LIST*
D10*
X4191000Y-2065671D02*
X18034000Y-2065671D01*
X18034000Y-8890000D01*
X4191000Y-8890000D01*
X4191000Y-2065671D01*
D11*
X4449277Y-9203984D02*
X4449277Y-9003984D01*
X4449277Y-9003984D02*
X4496896Y-9003984D01*
X4496896Y-9003984D02*
X4525467Y-9013508D01*
X4525467Y-9013508D02*
X4544515Y-9032555D01*
X4544515Y-9032555D02*
X4554039Y-9051603D01*
X4554039Y-9051603D02*
X4563563Y-9089698D01*
X4563563Y-9089698D02*
X4563563Y-9118270D01*
X4563563Y-9118270D02*
X4554039Y-9156365D01*
X4554039Y-9156365D02*
X4544515Y-9175412D01*
X4544515Y-9175412D02*
X4525467Y-9194460D01*
X4525467Y-9194460D02*
X4496896Y-9203984D01*
X4496896Y-9203984D02*
X4449277Y-9203984D01*
X4649277Y-9203984D02*
X4649277Y-9070650D01*
X4649277Y-9108746D02*
X4658801Y-9089698D01*
X4658801Y-9089698D02*
X4668324Y-9080174D01*
X4668324Y-9080174D02*
X4687372Y-9070650D01*
X4687372Y-9070650D02*
X4706420Y-9070650D01*
X4773086Y-9203984D02*
X4773086Y-9070650D01*
X4773086Y-9003984D02*
X4763563Y-9013508D01*
X4763563Y-9013508D02*
X4773086Y-9023031D01*
X4773086Y-9023031D02*
X4782610Y-9013508D01*
X4782610Y-9013508D02*
X4773086Y-9003984D01*
X4773086Y-9003984D02*
X4773086Y-9023031D01*
X4896896Y-9203984D02*
X4877848Y-9194460D01*
X4877848Y-9194460D02*
X4868324Y-9175412D01*
X4868324Y-9175412D02*
X4868324Y-9003984D01*
X5001658Y-9203984D02*
X4982610Y-9194460D01*
X4982610Y-9194460D02*
X4973086Y-9175412D01*
X4973086Y-9175412D02*
X4973086Y-9003984D01*
X5230229Y-9203984D02*
X5230229Y-9003984D01*
X5230229Y-9003984D02*
X5296896Y-9146841D01*
X5296896Y-9146841D02*
X5363563Y-9003984D01*
X5363563Y-9003984D02*
X5363563Y-9203984D01*
X5544515Y-9203984D02*
X5544515Y-9099222D01*
X5544515Y-9099222D02*
X5534991Y-9080174D01*
X5534991Y-9080174D02*
X5515944Y-9070650D01*
X5515944Y-9070650D02*
X5477848Y-9070650D01*
X5477848Y-9070650D02*
X5458801Y-9080174D01*
X5544515Y-9194460D02*
X5525467Y-9203984D01*
X5525467Y-9203984D02*
X5477848Y-9203984D01*
X5477848Y-9203984D02*
X5458801Y-9194460D01*
X5458801Y-9194460D02*
X5449277Y-9175412D01*
X5449277Y-9175412D02*
X5449277Y-9156365D01*
X5449277Y-9156365D02*
X5458801Y-9137317D01*
X5458801Y-9137317D02*
X5477848Y-9127793D01*
X5477848Y-9127793D02*
X5525467Y-9127793D01*
X5525467Y-9127793D02*
X5544515Y-9118270D01*
X5639753Y-9070650D02*
X5639753Y-9270650D01*
X5639753Y-9080174D02*
X5658801Y-9070650D01*
X5658801Y-9070650D02*
X5696896Y-9070650D01*
X5696896Y-9070650D02*
X5715943Y-9080174D01*
X5715943Y-9080174D02*
X5725467Y-9089698D01*
X5725467Y-9089698D02*
X5734991Y-9108746D01*
X5734991Y-9108746D02*
X5734991Y-9165889D01*
X5734991Y-9165889D02*
X5725467Y-9184936D01*
X5725467Y-9184936D02*
X5715943Y-9194460D01*
X5715943Y-9194460D02*
X5696896Y-9203984D01*
X5696896Y-9203984D02*
X5658801Y-9203984D01*
X5658801Y-9203984D02*
X5639753Y-9194460D01*
X5820705Y-9184936D02*
X5830229Y-9194460D01*
X5830229Y-9194460D02*
X5820705Y-9203984D01*
X5820705Y-9203984D02*
X5811182Y-9194460D01*
X5811182Y-9194460D02*
X5820705Y-9184936D01*
X5820705Y-9184936D02*
X5820705Y-9203984D01*
X5820705Y-9080174D02*
X5830229Y-9089698D01*
X5830229Y-9089698D02*
X5820705Y-9099222D01*
X5820705Y-9099222D02*
X5811182Y-9089698D01*
X5811182Y-9089698D02*
X5820705Y-9080174D01*
X5820705Y-9080174D02*
X5820705Y-9099222D01*
M02*
