%TF.GenerationSoftware,KiCad,Pcbnew,7.0.2*%
%TF.CreationDate,2024-03-07T16:30:55-05:00*%
%TF.ProjectId,rrc_pcb2,7272635f-7063-4623-922e-6b696361645f,3*%
%TF.SameCoordinates,Original*%
%TF.FileFunction,Drillmap*%
%TF.FilePolarity,Positive*%
%FSLAX45Y45*%
G04 Gerber Fmt 4.5, Leading zero omitted, Abs format (unit mm)*
G04 Created by KiCad (PCBNEW 7.0.2) date 2024-03-07 16:30:55*
%MOMM*%
%LPD*%
G01*
G04 APERTURE LIST*
%ADD10C,0.050000*%
%ADD11C,0.200000*%
%ADD12C,0.080000*%
%ADD13C,0.100000*%
%ADD14C,0.102000*%
%ADD15C,0.110000*%
G04 APERTURE END LIST*
D10*
X4191000Y-2065671D02*
X18796000Y-2065671D01*
X18796000Y-9271000D01*
X4191000Y-9271000D01*
X4191000Y-2065671D01*
D11*
D12*
X14646483Y-2623728D02*
X14726483Y-2703728D01*
X14726483Y-2623728D02*
X14646483Y-2703728D01*
X14891643Y-3847728D02*
X14971643Y-3927728D01*
X14971643Y-3847728D02*
X14891643Y-3927728D01*
X14891643Y-4047728D02*
X14971643Y-4127728D01*
X14971643Y-4047728D02*
X14891643Y-4127728D01*
X14900483Y-2623728D02*
X14980483Y-2703728D01*
X14980483Y-2623728D02*
X14900483Y-2703728D01*
X15091643Y-3847728D02*
X15171643Y-3927728D01*
X15171643Y-3847728D02*
X15091643Y-3927728D01*
X15091643Y-4047728D02*
X15171643Y-4127728D01*
X15171643Y-4047728D02*
X15091643Y-4127728D01*
X15291643Y-3847728D02*
X15371643Y-3927728D01*
X15371643Y-3847728D02*
X15291643Y-3927728D01*
X15291643Y-4047728D02*
X15371643Y-4127728D01*
X15371643Y-4047728D02*
X15291643Y-4127728D01*
X15962000Y-7707000D02*
X16042000Y-7787000D01*
X16042000Y-7707000D02*
X15962000Y-7787000D01*
X15962000Y-8215000D02*
X16042000Y-8295000D01*
X16042000Y-8215000D02*
X15962000Y-8295000D01*
X16343000Y-6310000D02*
X16423000Y-6390000D01*
X16423000Y-6310000D02*
X16343000Y-6390000D01*
X16343000Y-7326000D02*
X16423000Y-7406000D01*
X16423000Y-7326000D02*
X16343000Y-7406000D01*
X16597000Y-7326000D02*
X16677000Y-7406000D01*
X16677000Y-7326000D02*
X16597000Y-7406000D01*
X16978000Y-7707000D02*
X17058000Y-7787000D01*
X17058000Y-7707000D02*
X16978000Y-7787000D01*
X16978000Y-8215000D02*
X17058000Y-8295000D01*
X17058000Y-8215000D02*
X16978000Y-8295000D01*
X17613000Y-7326000D02*
X17693000Y-7406000D01*
X17693000Y-7326000D02*
X17613000Y-7406000D01*
D13*
X4555266Y-2810941D02*
G75*
G03*
X4555266Y-2810941I-50000J0D01*
G01*
X4555266Y-3064941D02*
G75*
G03*
X4555266Y-3064941I-50000J0D01*
G01*
X4555266Y-3318941D02*
G75*
G03*
X4555266Y-3318941I-50000J0D01*
G01*
X4555266Y-3572941D02*
G75*
G03*
X4555266Y-3572941I-50000J0D01*
G01*
X4555266Y-3826941D02*
G75*
G03*
X4555266Y-3826941I-50000J0D01*
G01*
X4555266Y-4080941D02*
G75*
G03*
X4555266Y-4080941I-50000J0D01*
G01*
X4555266Y-4334941D02*
G75*
G03*
X4555266Y-4334941I-50000J0D01*
G01*
X4555266Y-4588941D02*
G75*
G03*
X4555266Y-4588941I-50000J0D01*
G01*
X4809266Y-2810941D02*
G75*
G03*
X4809266Y-2810941I-50000J0D01*
G01*
X4809266Y-3064941D02*
G75*
G03*
X4809266Y-3064941I-50000J0D01*
G01*
X4809266Y-3318941D02*
G75*
G03*
X4809266Y-3318941I-50000J0D01*
G01*
X4809266Y-3572941D02*
G75*
G03*
X4809266Y-3572941I-50000J0D01*
G01*
X4809266Y-3826941D02*
G75*
G03*
X4809266Y-3826941I-50000J0D01*
G01*
X4809266Y-4080941D02*
G75*
G03*
X4809266Y-4080941I-50000J0D01*
G01*
X4809266Y-4334941D02*
G75*
G03*
X4809266Y-4334941I-50000J0D01*
G01*
X4809266Y-4588941D02*
G75*
G03*
X4809266Y-4588941I-50000J0D01*
G01*
X10979883Y-3156784D02*
G75*
G03*
X10979883Y-3156784I-50000J0D01*
G01*
X11233883Y-3156784D02*
G75*
G03*
X11233883Y-3156784I-50000J0D01*
G01*
X11487883Y-3156784D02*
G75*
G03*
X11487883Y-3156784I-50000J0D01*
G01*
X11741883Y-3156784D02*
G75*
G03*
X11741883Y-3156784I-50000J0D01*
G01*
X11995883Y-3156784D02*
G75*
G03*
X11995883Y-3156784I-50000J0D01*
G01*
X12249883Y-3156784D02*
G75*
G03*
X12249883Y-3156784I-50000J0D01*
G01*
X12503883Y-3156784D02*
G75*
G03*
X12503883Y-3156784I-50000J0D01*
G01*
X12757883Y-3156784D02*
G75*
G03*
X12757883Y-3156784I-50000J0D01*
G01*
X13569327Y-6705753D02*
G75*
G03*
X13569327Y-6705753I-50000J0D01*
G01*
X13569327Y-6959753D02*
G75*
G03*
X13569327Y-6959753I-50000J0D01*
G01*
X13569327Y-7213753D02*
G75*
G03*
X13569327Y-7213753I-50000J0D01*
G01*
X13569327Y-7467753D02*
G75*
G03*
X13569327Y-7467753I-50000J0D01*
G01*
X13569327Y-7721753D02*
G75*
G03*
X13569327Y-7721753I-50000J0D01*
G01*
X13569327Y-7975753D02*
G75*
G03*
X13569327Y-7975753I-50000J0D01*
G01*
X13569327Y-8229753D02*
G75*
G03*
X13569327Y-8229753I-50000J0D01*
G01*
X13569327Y-8483753D02*
G75*
G03*
X13569327Y-8483753I-50000J0D01*
G01*
X13686110Y-3066616D02*
G75*
G03*
X13686110Y-3066616I-50000J0D01*
G01*
X13686110Y-3320616D02*
G75*
G03*
X13686110Y-3320616I-50000J0D01*
G01*
X13686110Y-3574616D02*
G75*
G03*
X13686110Y-3574616I-50000J0D01*
G01*
X13686110Y-3828616D02*
G75*
G03*
X13686110Y-3828616I-50000J0D01*
G01*
X16046169Y-4383557D02*
G75*
G03*
X16046169Y-4383557I-50000J0D01*
G01*
X16300169Y-4383557D02*
G75*
G03*
X16300169Y-4383557I-50000J0D01*
G01*
X16319474Y-3050638D02*
G75*
G03*
X16319474Y-3050638I-50000J0D01*
G01*
X16319474Y-3304638D02*
G75*
G03*
X16319474Y-3304638I-50000J0D01*
G01*
X16319474Y-3558638D02*
G75*
G03*
X16319474Y-3558638I-50000J0D01*
G01*
X16319474Y-3812638D02*
G75*
G03*
X16319474Y-3812638I-50000J0D01*
G01*
X16554169Y-4383557D02*
G75*
G03*
X16554169Y-4383557I-50000J0D01*
G01*
X18040695Y-4953000D02*
G75*
G03*
X18040695Y-4953000I-50000J0D01*
G01*
X18040695Y-5713000D02*
G75*
G03*
X18040695Y-5713000I-50000J0D01*
G01*
D14*
X17111179Y-4975657D02*
X17111179Y-5077657D01*
X17060179Y-5026657D02*
X17162179Y-5026657D01*
X17111179Y-5229657D02*
X17111179Y-5331657D01*
X17060179Y-5280657D02*
X17162179Y-5280657D01*
X17111179Y-5483657D02*
X17111179Y-5585657D01*
X17060179Y-5534657D02*
X17162179Y-5534657D01*
X17111179Y-5737657D02*
X17111179Y-5839657D01*
X17060179Y-5788657D02*
X17162179Y-5788657D01*
X17111179Y-5991657D02*
X17111179Y-6093657D01*
X17060179Y-6042657D02*
X17162179Y-6042657D01*
X17111179Y-6245657D02*
X17111179Y-6347657D01*
X17060179Y-6296657D02*
X17162179Y-6296657D01*
X17111179Y-6499657D02*
X17111179Y-6601657D01*
X17060179Y-6550657D02*
X17162179Y-6550657D01*
D15*
X11597312Y-4845370D02*
X11597312Y-4767587D01*
X11519530Y-4767587D01*
X11519530Y-4845370D01*
X11597312Y-4845370D01*
X12105312Y-4845370D02*
X12105312Y-4767587D01*
X12027530Y-4767587D01*
X12027530Y-4845370D01*
X12105312Y-4845370D01*
X14090374Y-2629620D02*
X14090374Y-2551837D01*
X14012591Y-2551837D01*
X14012591Y-2629620D01*
X14090374Y-2629620D01*
X14090374Y-2883619D02*
X14090374Y-2805837D01*
X14012591Y-2805837D01*
X14012591Y-2883619D01*
X14090374Y-2883619D01*
X14090374Y-3137619D02*
X14090374Y-3059837D01*
X14012591Y-3059837D01*
X14012591Y-3137619D01*
X14090374Y-3137619D01*
X14090374Y-3391619D02*
X14090374Y-3313837D01*
X14012591Y-3313837D01*
X14012591Y-3391619D01*
X14090374Y-3391619D01*
X14090374Y-3645619D02*
X14090374Y-3567837D01*
X14012591Y-3567837D01*
X14012591Y-3645619D01*
X14090374Y-3645619D01*
X14090374Y-3899619D02*
X14090374Y-3821837D01*
X14012591Y-3821837D01*
X14012591Y-3899619D01*
X14090374Y-3899619D01*
X14090374Y-4153619D02*
X14090374Y-4075837D01*
X14012591Y-4075837D01*
X14012591Y-4153619D01*
X14090374Y-4153619D01*
X14090374Y-4407620D02*
X14090374Y-4329837D01*
X14012591Y-4329837D01*
X14012591Y-4407620D01*
X14090374Y-4407620D01*
X14090374Y-4661620D02*
X14090374Y-4583837D01*
X14012591Y-4583837D01*
X14012591Y-4661620D01*
X14090374Y-4661620D01*
X14090374Y-4915620D02*
X14090374Y-4837837D01*
X14012591Y-4837837D01*
X14012591Y-4915620D01*
X14090374Y-4915620D01*
X14090374Y-5169620D02*
X14090374Y-5091837D01*
X14012591Y-5091837D01*
X14012591Y-5169620D01*
X14090374Y-5169620D01*
X14090374Y-5423620D02*
X14090374Y-5345837D01*
X14012591Y-5345837D01*
X14012591Y-5423620D01*
X14090374Y-5423620D01*
X14090374Y-5677619D02*
X14090374Y-5599837D01*
X14012591Y-5599837D01*
X14012591Y-5677619D01*
X14090374Y-5677619D01*
X14090374Y-5931619D02*
X14090374Y-5853837D01*
X14012591Y-5853837D01*
X14012591Y-5931619D01*
X14090374Y-5931619D01*
X14090374Y-6185619D02*
X14090374Y-6107837D01*
X14012591Y-6107837D01*
X14012591Y-6185619D01*
X14090374Y-6185619D01*
X14090374Y-6439619D02*
X14090374Y-6361837D01*
X14012591Y-6361837D01*
X14012591Y-6439619D01*
X14090374Y-6439619D01*
X14090374Y-6693619D02*
X14090374Y-6615837D01*
X14012591Y-6615837D01*
X14012591Y-6693619D01*
X14090374Y-6693619D01*
X14090374Y-6947619D02*
X14090374Y-6869837D01*
X14012591Y-6869837D01*
X14012591Y-6947619D01*
X14090374Y-6947619D01*
X14090374Y-7201619D02*
X14090374Y-7123837D01*
X14012591Y-7123837D01*
X14012591Y-7201619D01*
X14090374Y-7201619D01*
X14090374Y-7455619D02*
X14090374Y-7377837D01*
X14012591Y-7377837D01*
X14012591Y-7455619D01*
X14090374Y-7455619D01*
X14090374Y-7709619D02*
X14090374Y-7631837D01*
X14012591Y-7631837D01*
X14012591Y-7709619D01*
X14090374Y-7709619D01*
X14090374Y-7963619D02*
X14090374Y-7885837D01*
X14012591Y-7885837D01*
X14012591Y-7963619D01*
X14090374Y-7963619D01*
X14090374Y-8217619D02*
X14090374Y-8139837D01*
X14012591Y-8139837D01*
X14012591Y-8217619D01*
X14090374Y-8217619D01*
X14090374Y-8471620D02*
X14090374Y-8393837D01*
X14012591Y-8393837D01*
X14012591Y-8471620D01*
X14090374Y-8471620D01*
X14344374Y-7201619D02*
X14344374Y-7123837D01*
X14266591Y-7123837D01*
X14266591Y-7201619D01*
X14344374Y-7201619D01*
X14395454Y-3259539D02*
X14395454Y-3181757D01*
X14317671Y-3181757D01*
X14317671Y-3259539D01*
X14395454Y-3259539D01*
X14395454Y-3513539D02*
X14395454Y-3435757D01*
X14317671Y-3435757D01*
X14317671Y-3513539D01*
X14395454Y-3513539D01*
X14395454Y-3767539D02*
X14395454Y-3689757D01*
X14317671Y-3689757D01*
X14317671Y-3767539D01*
X14395454Y-3767539D01*
X14395454Y-4021539D02*
X14395454Y-3943757D01*
X14317671Y-3943757D01*
X14317671Y-4021539D01*
X14395454Y-4021539D01*
X14395454Y-4275540D02*
X14395454Y-4197757D01*
X14317671Y-4197757D01*
X14317671Y-4275540D01*
X14395454Y-4275540D01*
X14598374Y-7201619D02*
X14598374Y-7123837D01*
X14520591Y-7123837D01*
X14520591Y-7201619D01*
X14598374Y-7201619D01*
X14852374Y-7201619D02*
X14852374Y-7123837D01*
X14774591Y-7123837D01*
X14774591Y-7201619D01*
X14852374Y-7201619D01*
X15106374Y-7201619D02*
X15106374Y-7123837D01*
X15028591Y-7123837D01*
X15028591Y-7201619D01*
X15106374Y-7201619D01*
X15360374Y-2883619D02*
X15360374Y-2805837D01*
X15282591Y-2805837D01*
X15282591Y-2883619D01*
X15360374Y-2883619D01*
X15360374Y-7201619D02*
X15360374Y-7123837D01*
X15282591Y-7123837D01*
X15282591Y-7201619D01*
X15360374Y-7201619D01*
X15614374Y-2629620D02*
X15614374Y-2551837D01*
X15536591Y-2551837D01*
X15536591Y-2629620D01*
X15614374Y-2629620D01*
X15614374Y-2883619D02*
X15614374Y-2805837D01*
X15536591Y-2805837D01*
X15536591Y-2883619D01*
X15614374Y-2883619D01*
X15614374Y-3137619D02*
X15614374Y-3059837D01*
X15536591Y-3059837D01*
X15536591Y-3137619D01*
X15614374Y-3137619D01*
X15614374Y-3391619D02*
X15614374Y-3313837D01*
X15536591Y-3313837D01*
X15536591Y-3391619D01*
X15614374Y-3391619D01*
X15614374Y-3645619D02*
X15614374Y-3567837D01*
X15536591Y-3567837D01*
X15536591Y-3645619D01*
X15614374Y-3645619D01*
X15614374Y-3899619D02*
X15614374Y-3821837D01*
X15536591Y-3821837D01*
X15536591Y-3899619D01*
X15614374Y-3899619D01*
X15614374Y-4153619D02*
X15614374Y-4075837D01*
X15536591Y-4075837D01*
X15536591Y-4153619D01*
X15614374Y-4153619D01*
X15614374Y-4407620D02*
X15614374Y-4329837D01*
X15536591Y-4329837D01*
X15536591Y-4407620D01*
X15614374Y-4407620D01*
X15614374Y-4661620D02*
X15614374Y-4583837D01*
X15536591Y-4583837D01*
X15536591Y-4661620D01*
X15614374Y-4661620D01*
X15614374Y-4915620D02*
X15614374Y-4837837D01*
X15536591Y-4837837D01*
X15536591Y-4915620D01*
X15614374Y-4915620D01*
X15614374Y-5169620D02*
X15614374Y-5091837D01*
X15536591Y-5091837D01*
X15536591Y-5169620D01*
X15614374Y-5169620D01*
X15614374Y-5423620D02*
X15614374Y-5345837D01*
X15536591Y-5345837D01*
X15536591Y-5423620D01*
X15614374Y-5423620D01*
X15614374Y-5677619D02*
X15614374Y-5599837D01*
X15536591Y-5599837D01*
X15536591Y-5677619D01*
X15614374Y-5677619D01*
X15614374Y-5931619D02*
X15614374Y-5853837D01*
X15536591Y-5853837D01*
X15536591Y-5931619D01*
X15614374Y-5931619D01*
X15614374Y-6185619D02*
X15614374Y-6107837D01*
X15536591Y-6107837D01*
X15536591Y-6185619D01*
X15614374Y-6185619D01*
X15614374Y-6439619D02*
X15614374Y-6361837D01*
X15536591Y-6361837D01*
X15536591Y-6439619D01*
X15614374Y-6439619D01*
X15614374Y-6693619D02*
X15614374Y-6615837D01*
X15536591Y-6615837D01*
X15536591Y-6693619D01*
X15614374Y-6693619D01*
X15614374Y-6947619D02*
X15614374Y-6869837D01*
X15536591Y-6869837D01*
X15536591Y-6947619D01*
X15614374Y-6947619D01*
X15614374Y-7201619D02*
X15614374Y-7123837D01*
X15536591Y-7123837D01*
X15536591Y-7201619D01*
X15614374Y-7201619D01*
X15614374Y-7455619D02*
X15614374Y-7377837D01*
X15536591Y-7377837D01*
X15536591Y-7455619D01*
X15614374Y-7455619D01*
X15614374Y-7709619D02*
X15614374Y-7631837D01*
X15536591Y-7631837D01*
X15536591Y-7709619D01*
X15614374Y-7709619D01*
X15614374Y-7963619D02*
X15614374Y-7885837D01*
X15536591Y-7885837D01*
X15536591Y-7963619D01*
X15614374Y-7963619D01*
X15614374Y-8217619D02*
X15614374Y-8139837D01*
X15536591Y-8139837D01*
X15536591Y-8217619D01*
X15614374Y-8217619D01*
X15614374Y-8471620D02*
X15614374Y-8393837D01*
X15536591Y-8393837D01*
X15536591Y-8471620D01*
X15614374Y-8471620D01*
D11*
X6260365Y-7115567D02*
X6360365Y-7015567D01*
X6260365Y-6915567D01*
X6160365Y-7015567D01*
X6260365Y-7115567D01*
X6260365Y-7615567D02*
X6360365Y-7515567D01*
X6260365Y-7415567D01*
X6160365Y-7515567D01*
X6260365Y-7615567D01*
X11460365Y-7115567D02*
X11560365Y-7015567D01*
X11460365Y-6915567D01*
X11360365Y-7015567D01*
X11460365Y-7115567D01*
X11460365Y-7615567D02*
X11560365Y-7515567D01*
X11460365Y-7415567D01*
X11360365Y-7515567D01*
X11460365Y-7615567D01*
X4436119Y-9586024D02*
X4436119Y-9386024D01*
X4436119Y-9386024D02*
X4483738Y-9386024D01*
X4483738Y-9386024D02*
X4512310Y-9395548D01*
X4512310Y-9395548D02*
X4531357Y-9414595D01*
X4531357Y-9414595D02*
X4540881Y-9433643D01*
X4540881Y-9433643D02*
X4550405Y-9471738D01*
X4550405Y-9471738D02*
X4550405Y-9500310D01*
X4550405Y-9500310D02*
X4540881Y-9538405D01*
X4540881Y-9538405D02*
X4531357Y-9557452D01*
X4531357Y-9557452D02*
X4512310Y-9576500D01*
X4512310Y-9576500D02*
X4483738Y-9586024D01*
X4483738Y-9586024D02*
X4436119Y-9586024D01*
X4636119Y-9586024D02*
X4636119Y-9452690D01*
X4636119Y-9490786D02*
X4645643Y-9471738D01*
X4645643Y-9471738D02*
X4655167Y-9462214D01*
X4655167Y-9462214D02*
X4674214Y-9452690D01*
X4674214Y-9452690D02*
X4693262Y-9452690D01*
X4759929Y-9586024D02*
X4759929Y-9452690D01*
X4759929Y-9386024D02*
X4750405Y-9395548D01*
X4750405Y-9395548D02*
X4759929Y-9405071D01*
X4759929Y-9405071D02*
X4769452Y-9395548D01*
X4769452Y-9395548D02*
X4759929Y-9386024D01*
X4759929Y-9386024D02*
X4759929Y-9405071D01*
X4883738Y-9586024D02*
X4864690Y-9576500D01*
X4864690Y-9576500D02*
X4855167Y-9557452D01*
X4855167Y-9557452D02*
X4855167Y-9386024D01*
X4988500Y-9586024D02*
X4969452Y-9576500D01*
X4969452Y-9576500D02*
X4959929Y-9557452D01*
X4959929Y-9557452D02*
X4959929Y-9386024D01*
X5217071Y-9586024D02*
X5217071Y-9386024D01*
X5217071Y-9386024D02*
X5283738Y-9528881D01*
X5283738Y-9528881D02*
X5350405Y-9386024D01*
X5350405Y-9386024D02*
X5350405Y-9586024D01*
X5531357Y-9586024D02*
X5531357Y-9481262D01*
X5531357Y-9481262D02*
X5521833Y-9462214D01*
X5521833Y-9462214D02*
X5502786Y-9452690D01*
X5502786Y-9452690D02*
X5464690Y-9452690D01*
X5464690Y-9452690D02*
X5445643Y-9462214D01*
X5531357Y-9576500D02*
X5512310Y-9586024D01*
X5512310Y-9586024D02*
X5464690Y-9586024D01*
X5464690Y-9586024D02*
X5445643Y-9576500D01*
X5445643Y-9576500D02*
X5436119Y-9557452D01*
X5436119Y-9557452D02*
X5436119Y-9538405D01*
X5436119Y-9538405D02*
X5445643Y-9519357D01*
X5445643Y-9519357D02*
X5464690Y-9509833D01*
X5464690Y-9509833D02*
X5512310Y-9509833D01*
X5512310Y-9509833D02*
X5531357Y-9500310D01*
X5626595Y-9452690D02*
X5626595Y-9652690D01*
X5626595Y-9462214D02*
X5645643Y-9452690D01*
X5645643Y-9452690D02*
X5683738Y-9452690D01*
X5683738Y-9452690D02*
X5702786Y-9462214D01*
X5702786Y-9462214D02*
X5712309Y-9471738D01*
X5712309Y-9471738D02*
X5721833Y-9490786D01*
X5721833Y-9490786D02*
X5721833Y-9547929D01*
X5721833Y-9547929D02*
X5712309Y-9566976D01*
X5712309Y-9566976D02*
X5702786Y-9576500D01*
X5702786Y-9576500D02*
X5683738Y-9586024D01*
X5683738Y-9586024D02*
X5645643Y-9586024D01*
X5645643Y-9586024D02*
X5626595Y-9576500D01*
X5807548Y-9566976D02*
X5817071Y-9576500D01*
X5817071Y-9576500D02*
X5807548Y-9586024D01*
X5807548Y-9586024D02*
X5798024Y-9576500D01*
X5798024Y-9576500D02*
X5807548Y-9566976D01*
X5807548Y-9566976D02*
X5807548Y-9586024D01*
X5807548Y-9462214D02*
X5817071Y-9471738D01*
X5817071Y-9471738D02*
X5807548Y-9481262D01*
X5807548Y-9481262D02*
X5798024Y-9471738D01*
X5798024Y-9471738D02*
X5807548Y-9462214D01*
X5807548Y-9462214D02*
X5807548Y-9481262D01*
D12*
X4108500Y-9873500D02*
X4188500Y-9953500D01*
X4188500Y-9873500D02*
X4108500Y-9953500D01*
D11*
X4474214Y-9806024D02*
X4493262Y-9806024D01*
X4493262Y-9806024D02*
X4512310Y-9815548D01*
X4512310Y-9815548D02*
X4521833Y-9825071D01*
X4521833Y-9825071D02*
X4531357Y-9844119D01*
X4531357Y-9844119D02*
X4540881Y-9882214D01*
X4540881Y-9882214D02*
X4540881Y-9929833D01*
X4540881Y-9929833D02*
X4531357Y-9967929D01*
X4531357Y-9967929D02*
X4521833Y-9986976D01*
X4521833Y-9986976D02*
X4512310Y-9996500D01*
X4512310Y-9996500D02*
X4493262Y-10006024D01*
X4493262Y-10006024D02*
X4474214Y-10006024D01*
X4474214Y-10006024D02*
X4455167Y-9996500D01*
X4455167Y-9996500D02*
X4445643Y-9986976D01*
X4445643Y-9986976D02*
X4436119Y-9967929D01*
X4436119Y-9967929D02*
X4426595Y-9929833D01*
X4426595Y-9929833D02*
X4426595Y-9882214D01*
X4426595Y-9882214D02*
X4436119Y-9844119D01*
X4436119Y-9844119D02*
X4445643Y-9825071D01*
X4445643Y-9825071D02*
X4455167Y-9815548D01*
X4455167Y-9815548D02*
X4474214Y-9806024D01*
X4626595Y-9986976D02*
X4636119Y-9996500D01*
X4636119Y-9996500D02*
X4626595Y-10006024D01*
X4626595Y-10006024D02*
X4617071Y-9996500D01*
X4617071Y-9996500D02*
X4626595Y-9986976D01*
X4626595Y-9986976D02*
X4626595Y-10006024D01*
X4750405Y-9891738D02*
X4731357Y-9882214D01*
X4731357Y-9882214D02*
X4721833Y-9872690D01*
X4721833Y-9872690D02*
X4712310Y-9853643D01*
X4712310Y-9853643D02*
X4712310Y-9844119D01*
X4712310Y-9844119D02*
X4721833Y-9825071D01*
X4721833Y-9825071D02*
X4731357Y-9815548D01*
X4731357Y-9815548D02*
X4750405Y-9806024D01*
X4750405Y-9806024D02*
X4788500Y-9806024D01*
X4788500Y-9806024D02*
X4807548Y-9815548D01*
X4807548Y-9815548D02*
X4817071Y-9825071D01*
X4817071Y-9825071D02*
X4826595Y-9844119D01*
X4826595Y-9844119D02*
X4826595Y-9853643D01*
X4826595Y-9853643D02*
X4817071Y-9872690D01*
X4817071Y-9872690D02*
X4807548Y-9882214D01*
X4807548Y-9882214D02*
X4788500Y-9891738D01*
X4788500Y-9891738D02*
X4750405Y-9891738D01*
X4750405Y-9891738D02*
X4731357Y-9901262D01*
X4731357Y-9901262D02*
X4721833Y-9910786D01*
X4721833Y-9910786D02*
X4712310Y-9929833D01*
X4712310Y-9929833D02*
X4712310Y-9967929D01*
X4712310Y-9967929D02*
X4721833Y-9986976D01*
X4721833Y-9986976D02*
X4731357Y-9996500D01*
X4731357Y-9996500D02*
X4750405Y-10006024D01*
X4750405Y-10006024D02*
X4788500Y-10006024D01*
X4788500Y-10006024D02*
X4807548Y-9996500D01*
X4807548Y-9996500D02*
X4817071Y-9986976D01*
X4817071Y-9986976D02*
X4826595Y-9967929D01*
X4826595Y-9967929D02*
X4826595Y-9929833D01*
X4826595Y-9929833D02*
X4817071Y-9910786D01*
X4817071Y-9910786D02*
X4807548Y-9901262D01*
X4807548Y-9901262D02*
X4788500Y-9891738D01*
X4950405Y-9806024D02*
X4969452Y-9806024D01*
X4969452Y-9806024D02*
X4988500Y-9815548D01*
X4988500Y-9815548D02*
X4998024Y-9825071D01*
X4998024Y-9825071D02*
X5007548Y-9844119D01*
X5007548Y-9844119D02*
X5017071Y-9882214D01*
X5017071Y-9882214D02*
X5017071Y-9929833D01*
X5017071Y-9929833D02*
X5007548Y-9967929D01*
X5007548Y-9967929D02*
X4998024Y-9986976D01*
X4998024Y-9986976D02*
X4988500Y-9996500D01*
X4988500Y-9996500D02*
X4969452Y-10006024D01*
X4969452Y-10006024D02*
X4950405Y-10006024D01*
X4950405Y-10006024D02*
X4931357Y-9996500D01*
X4931357Y-9996500D02*
X4921833Y-9986976D01*
X4921833Y-9986976D02*
X4912310Y-9967929D01*
X4912310Y-9967929D02*
X4902786Y-9929833D01*
X4902786Y-9929833D02*
X4902786Y-9882214D01*
X4902786Y-9882214D02*
X4912310Y-9844119D01*
X4912310Y-9844119D02*
X4921833Y-9825071D01*
X4921833Y-9825071D02*
X4931357Y-9815548D01*
X4931357Y-9815548D02*
X4950405Y-9806024D01*
X5140881Y-9806024D02*
X5159929Y-9806024D01*
X5159929Y-9806024D02*
X5178976Y-9815548D01*
X5178976Y-9815548D02*
X5188500Y-9825071D01*
X5188500Y-9825071D02*
X5198024Y-9844119D01*
X5198024Y-9844119D02*
X5207548Y-9882214D01*
X5207548Y-9882214D02*
X5207548Y-9929833D01*
X5207548Y-9929833D02*
X5198024Y-9967929D01*
X5198024Y-9967929D02*
X5188500Y-9986976D01*
X5188500Y-9986976D02*
X5178976Y-9996500D01*
X5178976Y-9996500D02*
X5159929Y-10006024D01*
X5159929Y-10006024D02*
X5140881Y-10006024D01*
X5140881Y-10006024D02*
X5121833Y-9996500D01*
X5121833Y-9996500D02*
X5112310Y-9986976D01*
X5112310Y-9986976D02*
X5102786Y-9967929D01*
X5102786Y-9967929D02*
X5093262Y-9929833D01*
X5093262Y-9929833D02*
X5093262Y-9882214D01*
X5093262Y-9882214D02*
X5102786Y-9844119D01*
X5102786Y-9844119D02*
X5112310Y-9825071D01*
X5112310Y-9825071D02*
X5121833Y-9815548D01*
X5121833Y-9815548D02*
X5140881Y-9806024D01*
X5293262Y-10006024D02*
X5293262Y-9872690D01*
X5293262Y-9891738D02*
X5302786Y-9882214D01*
X5302786Y-9882214D02*
X5321833Y-9872690D01*
X5321833Y-9872690D02*
X5350405Y-9872690D01*
X5350405Y-9872690D02*
X5369452Y-9882214D01*
X5369452Y-9882214D02*
X5378976Y-9901262D01*
X5378976Y-9901262D02*
X5378976Y-10006024D01*
X5378976Y-9901262D02*
X5388500Y-9882214D01*
X5388500Y-9882214D02*
X5407548Y-9872690D01*
X5407548Y-9872690D02*
X5436119Y-9872690D01*
X5436119Y-9872690D02*
X5455167Y-9882214D01*
X5455167Y-9882214D02*
X5464691Y-9901262D01*
X5464691Y-9901262D02*
X5464691Y-10006024D01*
X5559929Y-10006024D02*
X5559929Y-9872690D01*
X5559929Y-9891738D02*
X5569452Y-9882214D01*
X5569452Y-9882214D02*
X5588500Y-9872690D01*
X5588500Y-9872690D02*
X5617071Y-9872690D01*
X5617071Y-9872690D02*
X5636119Y-9882214D01*
X5636119Y-9882214D02*
X5645643Y-9901262D01*
X5645643Y-9901262D02*
X5645643Y-10006024D01*
X5645643Y-9901262D02*
X5655167Y-9882214D01*
X5655167Y-9882214D02*
X5674214Y-9872690D01*
X5674214Y-9872690D02*
X5702786Y-9872690D01*
X5702786Y-9872690D02*
X5721833Y-9882214D01*
X5721833Y-9882214D02*
X5731357Y-9901262D01*
X5731357Y-9901262D02*
X5731357Y-10006024D01*
X6121833Y-9796500D02*
X5950405Y-10053643D01*
X6378976Y-9806024D02*
X6398024Y-9806024D01*
X6398024Y-9806024D02*
X6417072Y-9815548D01*
X6417072Y-9815548D02*
X6426595Y-9825071D01*
X6426595Y-9825071D02*
X6436119Y-9844119D01*
X6436119Y-9844119D02*
X6445643Y-9882214D01*
X6445643Y-9882214D02*
X6445643Y-9929833D01*
X6445643Y-9929833D02*
X6436119Y-9967929D01*
X6436119Y-9967929D02*
X6426595Y-9986976D01*
X6426595Y-9986976D02*
X6417072Y-9996500D01*
X6417072Y-9996500D02*
X6398024Y-10006024D01*
X6398024Y-10006024D02*
X6378976Y-10006024D01*
X6378976Y-10006024D02*
X6359929Y-9996500D01*
X6359929Y-9996500D02*
X6350405Y-9986976D01*
X6350405Y-9986976D02*
X6340881Y-9967929D01*
X6340881Y-9967929D02*
X6331357Y-9929833D01*
X6331357Y-9929833D02*
X6331357Y-9882214D01*
X6331357Y-9882214D02*
X6340881Y-9844119D01*
X6340881Y-9844119D02*
X6350405Y-9825071D01*
X6350405Y-9825071D02*
X6359929Y-9815548D01*
X6359929Y-9815548D02*
X6378976Y-9806024D01*
X6531357Y-9986976D02*
X6540881Y-9996500D01*
X6540881Y-9996500D02*
X6531357Y-10006024D01*
X6531357Y-10006024D02*
X6521833Y-9996500D01*
X6521833Y-9996500D02*
X6531357Y-9986976D01*
X6531357Y-9986976D02*
X6531357Y-10006024D01*
X6664691Y-9806024D02*
X6683738Y-9806024D01*
X6683738Y-9806024D02*
X6702786Y-9815548D01*
X6702786Y-9815548D02*
X6712310Y-9825071D01*
X6712310Y-9825071D02*
X6721833Y-9844119D01*
X6721833Y-9844119D02*
X6731357Y-9882214D01*
X6731357Y-9882214D02*
X6731357Y-9929833D01*
X6731357Y-9929833D02*
X6721833Y-9967929D01*
X6721833Y-9967929D02*
X6712310Y-9986976D01*
X6712310Y-9986976D02*
X6702786Y-9996500D01*
X6702786Y-9996500D02*
X6683738Y-10006024D01*
X6683738Y-10006024D02*
X6664691Y-10006024D01*
X6664691Y-10006024D02*
X6645643Y-9996500D01*
X6645643Y-9996500D02*
X6636119Y-9986976D01*
X6636119Y-9986976D02*
X6626595Y-9967929D01*
X6626595Y-9967929D02*
X6617072Y-9929833D01*
X6617072Y-9929833D02*
X6617072Y-9882214D01*
X6617072Y-9882214D02*
X6626595Y-9844119D01*
X6626595Y-9844119D02*
X6636119Y-9825071D01*
X6636119Y-9825071D02*
X6645643Y-9815548D01*
X6645643Y-9815548D02*
X6664691Y-9806024D01*
X6798024Y-9806024D02*
X6921833Y-9806024D01*
X6921833Y-9806024D02*
X6855167Y-9882214D01*
X6855167Y-9882214D02*
X6883738Y-9882214D01*
X6883738Y-9882214D02*
X6902786Y-9891738D01*
X6902786Y-9891738D02*
X6912310Y-9901262D01*
X6912310Y-9901262D02*
X6921833Y-9920310D01*
X6921833Y-9920310D02*
X6921833Y-9967929D01*
X6921833Y-9967929D02*
X6912310Y-9986976D01*
X6912310Y-9986976D02*
X6902786Y-9996500D01*
X6902786Y-9996500D02*
X6883738Y-10006024D01*
X6883738Y-10006024D02*
X6826595Y-10006024D01*
X6826595Y-10006024D02*
X6807548Y-9996500D01*
X6807548Y-9996500D02*
X6798024Y-9986976D01*
X7112310Y-10006024D02*
X6998024Y-10006024D01*
X7055167Y-10006024D02*
X7055167Y-9806024D01*
X7055167Y-9806024D02*
X7036119Y-9834595D01*
X7036119Y-9834595D02*
X7017072Y-9853643D01*
X7017072Y-9853643D02*
X6998024Y-9863167D01*
X7293262Y-9806024D02*
X7198024Y-9806024D01*
X7198024Y-9806024D02*
X7188500Y-9901262D01*
X7188500Y-9901262D02*
X7198024Y-9891738D01*
X7198024Y-9891738D02*
X7217072Y-9882214D01*
X7217072Y-9882214D02*
X7264691Y-9882214D01*
X7264691Y-9882214D02*
X7283738Y-9891738D01*
X7283738Y-9891738D02*
X7293262Y-9901262D01*
X7293262Y-9901262D02*
X7302786Y-9920310D01*
X7302786Y-9920310D02*
X7302786Y-9967929D01*
X7302786Y-9967929D02*
X7293262Y-9986976D01*
X7293262Y-9986976D02*
X7283738Y-9996500D01*
X7283738Y-9996500D02*
X7264691Y-10006024D01*
X7264691Y-10006024D02*
X7217072Y-10006024D01*
X7217072Y-10006024D02*
X7198024Y-9996500D01*
X7198024Y-9996500D02*
X7188500Y-9986976D01*
X7378976Y-9806024D02*
X7378976Y-9844119D01*
X7455167Y-9806024D02*
X7455167Y-9844119D01*
X7750405Y-10082214D02*
X7740881Y-10072690D01*
X7740881Y-10072690D02*
X7721834Y-10044119D01*
X7721834Y-10044119D02*
X7712310Y-10025071D01*
X7712310Y-10025071D02*
X7702786Y-9996500D01*
X7702786Y-9996500D02*
X7693262Y-9948881D01*
X7693262Y-9948881D02*
X7693262Y-9910786D01*
X7693262Y-9910786D02*
X7702786Y-9863167D01*
X7702786Y-9863167D02*
X7712310Y-9834595D01*
X7712310Y-9834595D02*
X7721834Y-9815548D01*
X7721834Y-9815548D02*
X7740881Y-9786976D01*
X7740881Y-9786976D02*
X7750405Y-9777452D01*
X7931357Y-10006024D02*
X7817072Y-10006024D01*
X7874214Y-10006024D02*
X7874214Y-9806024D01*
X7874214Y-9806024D02*
X7855167Y-9834595D01*
X7855167Y-9834595D02*
X7836119Y-9853643D01*
X7836119Y-9853643D02*
X7817072Y-9863167D01*
X8102786Y-9806024D02*
X8064691Y-9806024D01*
X8064691Y-9806024D02*
X8045643Y-9815548D01*
X8045643Y-9815548D02*
X8036119Y-9825071D01*
X8036119Y-9825071D02*
X8017072Y-9853643D01*
X8017072Y-9853643D02*
X8007548Y-9891738D01*
X8007548Y-9891738D02*
X8007548Y-9967929D01*
X8007548Y-9967929D02*
X8017072Y-9986976D01*
X8017072Y-9986976D02*
X8026595Y-9996500D01*
X8026595Y-9996500D02*
X8045643Y-10006024D01*
X8045643Y-10006024D02*
X8083738Y-10006024D01*
X8083738Y-10006024D02*
X8102786Y-9996500D01*
X8102786Y-9996500D02*
X8112310Y-9986976D01*
X8112310Y-9986976D02*
X8121834Y-9967929D01*
X8121834Y-9967929D02*
X8121834Y-9920310D01*
X8121834Y-9920310D02*
X8112310Y-9901262D01*
X8112310Y-9901262D02*
X8102786Y-9891738D01*
X8102786Y-9891738D02*
X8083738Y-9882214D01*
X8083738Y-9882214D02*
X8045643Y-9882214D01*
X8045643Y-9882214D02*
X8026595Y-9891738D01*
X8026595Y-9891738D02*
X8017072Y-9901262D01*
X8017072Y-9901262D02*
X8007548Y-9920310D01*
X8359929Y-10006024D02*
X8359929Y-9806024D01*
X8445643Y-10006024D02*
X8445643Y-9901262D01*
X8445643Y-9901262D02*
X8436119Y-9882214D01*
X8436119Y-9882214D02*
X8417072Y-9872690D01*
X8417072Y-9872690D02*
X8388500Y-9872690D01*
X8388500Y-9872690D02*
X8369453Y-9882214D01*
X8369453Y-9882214D02*
X8359929Y-9891738D01*
X8569453Y-10006024D02*
X8550405Y-9996500D01*
X8550405Y-9996500D02*
X8540881Y-9986976D01*
X8540881Y-9986976D02*
X8531358Y-9967929D01*
X8531358Y-9967929D02*
X8531358Y-9910786D01*
X8531358Y-9910786D02*
X8540881Y-9891738D01*
X8540881Y-9891738D02*
X8550405Y-9882214D01*
X8550405Y-9882214D02*
X8569453Y-9872690D01*
X8569453Y-9872690D02*
X8598024Y-9872690D01*
X8598024Y-9872690D02*
X8617072Y-9882214D01*
X8617072Y-9882214D02*
X8626596Y-9891738D01*
X8626596Y-9891738D02*
X8636119Y-9910786D01*
X8636119Y-9910786D02*
X8636119Y-9967929D01*
X8636119Y-9967929D02*
X8626596Y-9986976D01*
X8626596Y-9986976D02*
X8617072Y-9996500D01*
X8617072Y-9996500D02*
X8598024Y-10006024D01*
X8598024Y-10006024D02*
X8569453Y-10006024D01*
X8750405Y-10006024D02*
X8731358Y-9996500D01*
X8731358Y-9996500D02*
X8721834Y-9977452D01*
X8721834Y-9977452D02*
X8721834Y-9806024D01*
X8902786Y-9996500D02*
X8883739Y-10006024D01*
X8883739Y-10006024D02*
X8845643Y-10006024D01*
X8845643Y-10006024D02*
X8826596Y-9996500D01*
X8826596Y-9996500D02*
X8817072Y-9977452D01*
X8817072Y-9977452D02*
X8817072Y-9901262D01*
X8817072Y-9901262D02*
X8826596Y-9882214D01*
X8826596Y-9882214D02*
X8845643Y-9872690D01*
X8845643Y-9872690D02*
X8883739Y-9872690D01*
X8883739Y-9872690D02*
X8902786Y-9882214D01*
X8902786Y-9882214D02*
X8912310Y-9901262D01*
X8912310Y-9901262D02*
X8912310Y-9920310D01*
X8912310Y-9920310D02*
X8817072Y-9939357D01*
X8988500Y-9996500D02*
X9007548Y-10006024D01*
X9007548Y-10006024D02*
X9045643Y-10006024D01*
X9045643Y-10006024D02*
X9064691Y-9996500D01*
X9064691Y-9996500D02*
X9074215Y-9977452D01*
X9074215Y-9977452D02*
X9074215Y-9967929D01*
X9074215Y-9967929D02*
X9064691Y-9948881D01*
X9064691Y-9948881D02*
X9045643Y-9939357D01*
X9045643Y-9939357D02*
X9017072Y-9939357D01*
X9017072Y-9939357D02*
X8998024Y-9929833D01*
X8998024Y-9929833D02*
X8988500Y-9910786D01*
X8988500Y-9910786D02*
X8988500Y-9901262D01*
X8988500Y-9901262D02*
X8998024Y-9882214D01*
X8998024Y-9882214D02*
X9017072Y-9872690D01*
X9017072Y-9872690D02*
X9045643Y-9872690D01*
X9045643Y-9872690D02*
X9064691Y-9882214D01*
X9140881Y-10082214D02*
X9150405Y-10072690D01*
X9150405Y-10072690D02*
X9169453Y-10044119D01*
X9169453Y-10044119D02*
X9178977Y-10025071D01*
X9178977Y-10025071D02*
X9188500Y-9996500D01*
X9188500Y-9996500D02*
X9198024Y-9948881D01*
X9198024Y-9948881D02*
X9198024Y-9910786D01*
X9198024Y-9910786D02*
X9188500Y-9863167D01*
X9188500Y-9863167D02*
X9178977Y-9834595D01*
X9178977Y-9834595D02*
X9169453Y-9815548D01*
X9169453Y-9815548D02*
X9150405Y-9786976D01*
X9150405Y-9786976D02*
X9140881Y-9777452D01*
D13*
X4188500Y-10177500D02*
G75*
G03*
X4188500Y-10177500I-50000J0D01*
G01*
D11*
X4540881Y-10270024D02*
X4426595Y-10270024D01*
X4483738Y-10270024D02*
X4483738Y-10070024D01*
X4483738Y-10070024D02*
X4464690Y-10098595D01*
X4464690Y-10098595D02*
X4445643Y-10117643D01*
X4445643Y-10117643D02*
X4426595Y-10127167D01*
X4626595Y-10250976D02*
X4636119Y-10260500D01*
X4636119Y-10260500D02*
X4626595Y-10270024D01*
X4626595Y-10270024D02*
X4617071Y-10260500D01*
X4617071Y-10260500D02*
X4626595Y-10250976D01*
X4626595Y-10250976D02*
X4626595Y-10270024D01*
X4759929Y-10070024D02*
X4778976Y-10070024D01*
X4778976Y-10070024D02*
X4798024Y-10079548D01*
X4798024Y-10079548D02*
X4807548Y-10089071D01*
X4807548Y-10089071D02*
X4817071Y-10108119D01*
X4817071Y-10108119D02*
X4826595Y-10146214D01*
X4826595Y-10146214D02*
X4826595Y-10193833D01*
X4826595Y-10193833D02*
X4817071Y-10231929D01*
X4817071Y-10231929D02*
X4807548Y-10250976D01*
X4807548Y-10250976D02*
X4798024Y-10260500D01*
X4798024Y-10260500D02*
X4778976Y-10270024D01*
X4778976Y-10270024D02*
X4759929Y-10270024D01*
X4759929Y-10270024D02*
X4740881Y-10260500D01*
X4740881Y-10260500D02*
X4731357Y-10250976D01*
X4731357Y-10250976D02*
X4721833Y-10231929D01*
X4721833Y-10231929D02*
X4712310Y-10193833D01*
X4712310Y-10193833D02*
X4712310Y-10146214D01*
X4712310Y-10146214D02*
X4721833Y-10108119D01*
X4721833Y-10108119D02*
X4731357Y-10089071D01*
X4731357Y-10089071D02*
X4740881Y-10079548D01*
X4740881Y-10079548D02*
X4759929Y-10070024D01*
X4950405Y-10070024D02*
X4969452Y-10070024D01*
X4969452Y-10070024D02*
X4988500Y-10079548D01*
X4988500Y-10079548D02*
X4998024Y-10089071D01*
X4998024Y-10089071D02*
X5007548Y-10108119D01*
X5007548Y-10108119D02*
X5017071Y-10146214D01*
X5017071Y-10146214D02*
X5017071Y-10193833D01*
X5017071Y-10193833D02*
X5007548Y-10231929D01*
X5007548Y-10231929D02*
X4998024Y-10250976D01*
X4998024Y-10250976D02*
X4988500Y-10260500D01*
X4988500Y-10260500D02*
X4969452Y-10270024D01*
X4969452Y-10270024D02*
X4950405Y-10270024D01*
X4950405Y-10270024D02*
X4931357Y-10260500D01*
X4931357Y-10260500D02*
X4921833Y-10250976D01*
X4921833Y-10250976D02*
X4912310Y-10231929D01*
X4912310Y-10231929D02*
X4902786Y-10193833D01*
X4902786Y-10193833D02*
X4902786Y-10146214D01*
X4902786Y-10146214D02*
X4912310Y-10108119D01*
X4912310Y-10108119D02*
X4921833Y-10089071D01*
X4921833Y-10089071D02*
X4931357Y-10079548D01*
X4931357Y-10079548D02*
X4950405Y-10070024D01*
X5140881Y-10070024D02*
X5159929Y-10070024D01*
X5159929Y-10070024D02*
X5178976Y-10079548D01*
X5178976Y-10079548D02*
X5188500Y-10089071D01*
X5188500Y-10089071D02*
X5198024Y-10108119D01*
X5198024Y-10108119D02*
X5207548Y-10146214D01*
X5207548Y-10146214D02*
X5207548Y-10193833D01*
X5207548Y-10193833D02*
X5198024Y-10231929D01*
X5198024Y-10231929D02*
X5188500Y-10250976D01*
X5188500Y-10250976D02*
X5178976Y-10260500D01*
X5178976Y-10260500D02*
X5159929Y-10270024D01*
X5159929Y-10270024D02*
X5140881Y-10270024D01*
X5140881Y-10270024D02*
X5121833Y-10260500D01*
X5121833Y-10260500D02*
X5112310Y-10250976D01*
X5112310Y-10250976D02*
X5102786Y-10231929D01*
X5102786Y-10231929D02*
X5093262Y-10193833D01*
X5093262Y-10193833D02*
X5093262Y-10146214D01*
X5093262Y-10146214D02*
X5102786Y-10108119D01*
X5102786Y-10108119D02*
X5112310Y-10089071D01*
X5112310Y-10089071D02*
X5121833Y-10079548D01*
X5121833Y-10079548D02*
X5140881Y-10070024D01*
X5293262Y-10270024D02*
X5293262Y-10136690D01*
X5293262Y-10155738D02*
X5302786Y-10146214D01*
X5302786Y-10146214D02*
X5321833Y-10136690D01*
X5321833Y-10136690D02*
X5350405Y-10136690D01*
X5350405Y-10136690D02*
X5369452Y-10146214D01*
X5369452Y-10146214D02*
X5378976Y-10165262D01*
X5378976Y-10165262D02*
X5378976Y-10270024D01*
X5378976Y-10165262D02*
X5388500Y-10146214D01*
X5388500Y-10146214D02*
X5407548Y-10136690D01*
X5407548Y-10136690D02*
X5436119Y-10136690D01*
X5436119Y-10136690D02*
X5455167Y-10146214D01*
X5455167Y-10146214D02*
X5464691Y-10165262D01*
X5464691Y-10165262D02*
X5464691Y-10270024D01*
X5559929Y-10270024D02*
X5559929Y-10136690D01*
X5559929Y-10155738D02*
X5569452Y-10146214D01*
X5569452Y-10146214D02*
X5588500Y-10136690D01*
X5588500Y-10136690D02*
X5617071Y-10136690D01*
X5617071Y-10136690D02*
X5636119Y-10146214D01*
X5636119Y-10146214D02*
X5645643Y-10165262D01*
X5645643Y-10165262D02*
X5645643Y-10270024D01*
X5645643Y-10165262D02*
X5655167Y-10146214D01*
X5655167Y-10146214D02*
X5674214Y-10136690D01*
X5674214Y-10136690D02*
X5702786Y-10136690D01*
X5702786Y-10136690D02*
X5721833Y-10146214D01*
X5721833Y-10146214D02*
X5731357Y-10165262D01*
X5731357Y-10165262D02*
X5731357Y-10270024D01*
X6121833Y-10060500D02*
X5950405Y-10317643D01*
X6378976Y-10070024D02*
X6398024Y-10070024D01*
X6398024Y-10070024D02*
X6417072Y-10079548D01*
X6417072Y-10079548D02*
X6426595Y-10089071D01*
X6426595Y-10089071D02*
X6436119Y-10108119D01*
X6436119Y-10108119D02*
X6445643Y-10146214D01*
X6445643Y-10146214D02*
X6445643Y-10193833D01*
X6445643Y-10193833D02*
X6436119Y-10231929D01*
X6436119Y-10231929D02*
X6426595Y-10250976D01*
X6426595Y-10250976D02*
X6417072Y-10260500D01*
X6417072Y-10260500D02*
X6398024Y-10270024D01*
X6398024Y-10270024D02*
X6378976Y-10270024D01*
X6378976Y-10270024D02*
X6359929Y-10260500D01*
X6359929Y-10260500D02*
X6350405Y-10250976D01*
X6350405Y-10250976D02*
X6340881Y-10231929D01*
X6340881Y-10231929D02*
X6331357Y-10193833D01*
X6331357Y-10193833D02*
X6331357Y-10146214D01*
X6331357Y-10146214D02*
X6340881Y-10108119D01*
X6340881Y-10108119D02*
X6350405Y-10089071D01*
X6350405Y-10089071D02*
X6359929Y-10079548D01*
X6359929Y-10079548D02*
X6378976Y-10070024D01*
X6531357Y-10250976D02*
X6540881Y-10260500D01*
X6540881Y-10260500D02*
X6531357Y-10270024D01*
X6531357Y-10270024D02*
X6521833Y-10260500D01*
X6521833Y-10260500D02*
X6531357Y-10250976D01*
X6531357Y-10250976D02*
X6531357Y-10270024D01*
X6664691Y-10070024D02*
X6683738Y-10070024D01*
X6683738Y-10070024D02*
X6702786Y-10079548D01*
X6702786Y-10079548D02*
X6712310Y-10089071D01*
X6712310Y-10089071D02*
X6721833Y-10108119D01*
X6721833Y-10108119D02*
X6731357Y-10146214D01*
X6731357Y-10146214D02*
X6731357Y-10193833D01*
X6731357Y-10193833D02*
X6721833Y-10231929D01*
X6721833Y-10231929D02*
X6712310Y-10250976D01*
X6712310Y-10250976D02*
X6702786Y-10260500D01*
X6702786Y-10260500D02*
X6683738Y-10270024D01*
X6683738Y-10270024D02*
X6664691Y-10270024D01*
X6664691Y-10270024D02*
X6645643Y-10260500D01*
X6645643Y-10260500D02*
X6636119Y-10250976D01*
X6636119Y-10250976D02*
X6626595Y-10231929D01*
X6626595Y-10231929D02*
X6617072Y-10193833D01*
X6617072Y-10193833D02*
X6617072Y-10146214D01*
X6617072Y-10146214D02*
X6626595Y-10108119D01*
X6626595Y-10108119D02*
X6636119Y-10089071D01*
X6636119Y-10089071D02*
X6645643Y-10079548D01*
X6645643Y-10079548D02*
X6664691Y-10070024D01*
X6798024Y-10070024D02*
X6921833Y-10070024D01*
X6921833Y-10070024D02*
X6855167Y-10146214D01*
X6855167Y-10146214D02*
X6883738Y-10146214D01*
X6883738Y-10146214D02*
X6902786Y-10155738D01*
X6902786Y-10155738D02*
X6912310Y-10165262D01*
X6912310Y-10165262D02*
X6921833Y-10184310D01*
X6921833Y-10184310D02*
X6921833Y-10231929D01*
X6921833Y-10231929D02*
X6912310Y-10250976D01*
X6912310Y-10250976D02*
X6902786Y-10260500D01*
X6902786Y-10260500D02*
X6883738Y-10270024D01*
X6883738Y-10270024D02*
X6826595Y-10270024D01*
X6826595Y-10270024D02*
X6807548Y-10260500D01*
X6807548Y-10260500D02*
X6798024Y-10250976D01*
X7017072Y-10270024D02*
X7055167Y-10270024D01*
X7055167Y-10270024D02*
X7074214Y-10260500D01*
X7074214Y-10260500D02*
X7083738Y-10250976D01*
X7083738Y-10250976D02*
X7102786Y-10222405D01*
X7102786Y-10222405D02*
X7112310Y-10184310D01*
X7112310Y-10184310D02*
X7112310Y-10108119D01*
X7112310Y-10108119D02*
X7102786Y-10089071D01*
X7102786Y-10089071D02*
X7093262Y-10079548D01*
X7093262Y-10079548D02*
X7074214Y-10070024D01*
X7074214Y-10070024D02*
X7036119Y-10070024D01*
X7036119Y-10070024D02*
X7017072Y-10079548D01*
X7017072Y-10079548D02*
X7007548Y-10089071D01*
X7007548Y-10089071D02*
X6998024Y-10108119D01*
X6998024Y-10108119D02*
X6998024Y-10155738D01*
X6998024Y-10155738D02*
X7007548Y-10174786D01*
X7007548Y-10174786D02*
X7017072Y-10184310D01*
X7017072Y-10184310D02*
X7036119Y-10193833D01*
X7036119Y-10193833D02*
X7074214Y-10193833D01*
X7074214Y-10193833D02*
X7093262Y-10184310D01*
X7093262Y-10184310D02*
X7102786Y-10174786D01*
X7102786Y-10174786D02*
X7112310Y-10155738D01*
X7283738Y-10136690D02*
X7283738Y-10270024D01*
X7236119Y-10060500D02*
X7188500Y-10203357D01*
X7188500Y-10203357D02*
X7312310Y-10203357D01*
X7378976Y-10070024D02*
X7378976Y-10108119D01*
X7455167Y-10070024D02*
X7455167Y-10108119D01*
X7750405Y-10346214D02*
X7740881Y-10336690D01*
X7740881Y-10336690D02*
X7721834Y-10308119D01*
X7721834Y-10308119D02*
X7712310Y-10289071D01*
X7712310Y-10289071D02*
X7702786Y-10260500D01*
X7702786Y-10260500D02*
X7693262Y-10212881D01*
X7693262Y-10212881D02*
X7693262Y-10174786D01*
X7693262Y-10174786D02*
X7702786Y-10127167D01*
X7702786Y-10127167D02*
X7712310Y-10098595D01*
X7712310Y-10098595D02*
X7721834Y-10079548D01*
X7721834Y-10079548D02*
X7740881Y-10050976D01*
X7740881Y-10050976D02*
X7750405Y-10041452D01*
X7912310Y-10136690D02*
X7912310Y-10270024D01*
X7864691Y-10060500D02*
X7817072Y-10203357D01*
X7817072Y-10203357D02*
X7940881Y-10203357D01*
X8112310Y-10070024D02*
X8017072Y-10070024D01*
X8017072Y-10070024D02*
X8007548Y-10165262D01*
X8007548Y-10165262D02*
X8017072Y-10155738D01*
X8017072Y-10155738D02*
X8036119Y-10146214D01*
X8036119Y-10146214D02*
X8083738Y-10146214D01*
X8083738Y-10146214D02*
X8102786Y-10155738D01*
X8102786Y-10155738D02*
X8112310Y-10165262D01*
X8112310Y-10165262D02*
X8121834Y-10184310D01*
X8121834Y-10184310D02*
X8121834Y-10231929D01*
X8121834Y-10231929D02*
X8112310Y-10250976D01*
X8112310Y-10250976D02*
X8102786Y-10260500D01*
X8102786Y-10260500D02*
X8083738Y-10270024D01*
X8083738Y-10270024D02*
X8036119Y-10270024D01*
X8036119Y-10270024D02*
X8017072Y-10260500D01*
X8017072Y-10260500D02*
X8007548Y-10250976D01*
X8359929Y-10270024D02*
X8359929Y-10070024D01*
X8445643Y-10270024D02*
X8445643Y-10165262D01*
X8445643Y-10165262D02*
X8436119Y-10146214D01*
X8436119Y-10146214D02*
X8417072Y-10136690D01*
X8417072Y-10136690D02*
X8388500Y-10136690D01*
X8388500Y-10136690D02*
X8369453Y-10146214D01*
X8369453Y-10146214D02*
X8359929Y-10155738D01*
X8569453Y-10270024D02*
X8550405Y-10260500D01*
X8550405Y-10260500D02*
X8540881Y-10250976D01*
X8540881Y-10250976D02*
X8531358Y-10231929D01*
X8531358Y-10231929D02*
X8531358Y-10174786D01*
X8531358Y-10174786D02*
X8540881Y-10155738D01*
X8540881Y-10155738D02*
X8550405Y-10146214D01*
X8550405Y-10146214D02*
X8569453Y-10136690D01*
X8569453Y-10136690D02*
X8598024Y-10136690D01*
X8598024Y-10136690D02*
X8617072Y-10146214D01*
X8617072Y-10146214D02*
X8626596Y-10155738D01*
X8626596Y-10155738D02*
X8636119Y-10174786D01*
X8636119Y-10174786D02*
X8636119Y-10231929D01*
X8636119Y-10231929D02*
X8626596Y-10250976D01*
X8626596Y-10250976D02*
X8617072Y-10260500D01*
X8617072Y-10260500D02*
X8598024Y-10270024D01*
X8598024Y-10270024D02*
X8569453Y-10270024D01*
X8750405Y-10270024D02*
X8731358Y-10260500D01*
X8731358Y-10260500D02*
X8721834Y-10241452D01*
X8721834Y-10241452D02*
X8721834Y-10070024D01*
X8902786Y-10260500D02*
X8883739Y-10270024D01*
X8883739Y-10270024D02*
X8845643Y-10270024D01*
X8845643Y-10270024D02*
X8826596Y-10260500D01*
X8826596Y-10260500D02*
X8817072Y-10241452D01*
X8817072Y-10241452D02*
X8817072Y-10165262D01*
X8817072Y-10165262D02*
X8826596Y-10146214D01*
X8826596Y-10146214D02*
X8845643Y-10136690D01*
X8845643Y-10136690D02*
X8883739Y-10136690D01*
X8883739Y-10136690D02*
X8902786Y-10146214D01*
X8902786Y-10146214D02*
X8912310Y-10165262D01*
X8912310Y-10165262D02*
X8912310Y-10184310D01*
X8912310Y-10184310D02*
X8817072Y-10203357D01*
X8988500Y-10260500D02*
X9007548Y-10270024D01*
X9007548Y-10270024D02*
X9045643Y-10270024D01*
X9045643Y-10270024D02*
X9064691Y-10260500D01*
X9064691Y-10260500D02*
X9074215Y-10241452D01*
X9074215Y-10241452D02*
X9074215Y-10231929D01*
X9074215Y-10231929D02*
X9064691Y-10212881D01*
X9064691Y-10212881D02*
X9045643Y-10203357D01*
X9045643Y-10203357D02*
X9017072Y-10203357D01*
X9017072Y-10203357D02*
X8998024Y-10193833D01*
X8998024Y-10193833D02*
X8988500Y-10174786D01*
X8988500Y-10174786D02*
X8988500Y-10165262D01*
X8988500Y-10165262D02*
X8998024Y-10146214D01*
X8998024Y-10146214D02*
X9017072Y-10136690D01*
X9017072Y-10136690D02*
X9045643Y-10136690D01*
X9045643Y-10136690D02*
X9064691Y-10146214D01*
X9140881Y-10346214D02*
X9150405Y-10336690D01*
X9150405Y-10336690D02*
X9169453Y-10308119D01*
X9169453Y-10308119D02*
X9178977Y-10289071D01*
X9178977Y-10289071D02*
X9188500Y-10260500D01*
X9188500Y-10260500D02*
X9198024Y-10212881D01*
X9198024Y-10212881D02*
X9198024Y-10174786D01*
X9198024Y-10174786D02*
X9188500Y-10127167D01*
X9188500Y-10127167D02*
X9178977Y-10098595D01*
X9178977Y-10098595D02*
X9169453Y-10079548D01*
X9169453Y-10079548D02*
X9150405Y-10050976D01*
X9150405Y-10050976D02*
X9140881Y-10041452D01*
D14*
X4137500Y-10390500D02*
X4137500Y-10492500D01*
X4086500Y-10441500D02*
X4188500Y-10441500D01*
D11*
X4540881Y-10534024D02*
X4426595Y-10534024D01*
X4483738Y-10534024D02*
X4483738Y-10334024D01*
X4483738Y-10334024D02*
X4464690Y-10362595D01*
X4464690Y-10362595D02*
X4445643Y-10381643D01*
X4445643Y-10381643D02*
X4426595Y-10391167D01*
X4626595Y-10514976D02*
X4636119Y-10524500D01*
X4636119Y-10524500D02*
X4626595Y-10534024D01*
X4626595Y-10534024D02*
X4617071Y-10524500D01*
X4617071Y-10524500D02*
X4626595Y-10514976D01*
X4626595Y-10514976D02*
X4626595Y-10534024D01*
X4759929Y-10334024D02*
X4778976Y-10334024D01*
X4778976Y-10334024D02*
X4798024Y-10343548D01*
X4798024Y-10343548D02*
X4807548Y-10353071D01*
X4807548Y-10353071D02*
X4817071Y-10372119D01*
X4817071Y-10372119D02*
X4826595Y-10410214D01*
X4826595Y-10410214D02*
X4826595Y-10457833D01*
X4826595Y-10457833D02*
X4817071Y-10495929D01*
X4817071Y-10495929D02*
X4807548Y-10514976D01*
X4807548Y-10514976D02*
X4798024Y-10524500D01*
X4798024Y-10524500D02*
X4778976Y-10534024D01*
X4778976Y-10534024D02*
X4759929Y-10534024D01*
X4759929Y-10534024D02*
X4740881Y-10524500D01*
X4740881Y-10524500D02*
X4731357Y-10514976D01*
X4731357Y-10514976D02*
X4721833Y-10495929D01*
X4721833Y-10495929D02*
X4712310Y-10457833D01*
X4712310Y-10457833D02*
X4712310Y-10410214D01*
X4712310Y-10410214D02*
X4721833Y-10372119D01*
X4721833Y-10372119D02*
X4731357Y-10353071D01*
X4731357Y-10353071D02*
X4740881Y-10343548D01*
X4740881Y-10343548D02*
X4759929Y-10334024D01*
X4902786Y-10353071D02*
X4912310Y-10343548D01*
X4912310Y-10343548D02*
X4931357Y-10334024D01*
X4931357Y-10334024D02*
X4978976Y-10334024D01*
X4978976Y-10334024D02*
X4998024Y-10343548D01*
X4998024Y-10343548D02*
X5007548Y-10353071D01*
X5007548Y-10353071D02*
X5017071Y-10372119D01*
X5017071Y-10372119D02*
X5017071Y-10391167D01*
X5017071Y-10391167D02*
X5007548Y-10419738D01*
X5007548Y-10419738D02*
X4893262Y-10534024D01*
X4893262Y-10534024D02*
X5017071Y-10534024D01*
X5140881Y-10334024D02*
X5159929Y-10334024D01*
X5159929Y-10334024D02*
X5178976Y-10343548D01*
X5178976Y-10343548D02*
X5188500Y-10353071D01*
X5188500Y-10353071D02*
X5198024Y-10372119D01*
X5198024Y-10372119D02*
X5207548Y-10410214D01*
X5207548Y-10410214D02*
X5207548Y-10457833D01*
X5207548Y-10457833D02*
X5198024Y-10495929D01*
X5198024Y-10495929D02*
X5188500Y-10514976D01*
X5188500Y-10514976D02*
X5178976Y-10524500D01*
X5178976Y-10524500D02*
X5159929Y-10534024D01*
X5159929Y-10534024D02*
X5140881Y-10534024D01*
X5140881Y-10534024D02*
X5121833Y-10524500D01*
X5121833Y-10524500D02*
X5112310Y-10514976D01*
X5112310Y-10514976D02*
X5102786Y-10495929D01*
X5102786Y-10495929D02*
X5093262Y-10457833D01*
X5093262Y-10457833D02*
X5093262Y-10410214D01*
X5093262Y-10410214D02*
X5102786Y-10372119D01*
X5102786Y-10372119D02*
X5112310Y-10353071D01*
X5112310Y-10353071D02*
X5121833Y-10343548D01*
X5121833Y-10343548D02*
X5140881Y-10334024D01*
X5293262Y-10534024D02*
X5293262Y-10400690D01*
X5293262Y-10419738D02*
X5302786Y-10410214D01*
X5302786Y-10410214D02*
X5321833Y-10400690D01*
X5321833Y-10400690D02*
X5350405Y-10400690D01*
X5350405Y-10400690D02*
X5369452Y-10410214D01*
X5369452Y-10410214D02*
X5378976Y-10429262D01*
X5378976Y-10429262D02*
X5378976Y-10534024D01*
X5378976Y-10429262D02*
X5388500Y-10410214D01*
X5388500Y-10410214D02*
X5407548Y-10400690D01*
X5407548Y-10400690D02*
X5436119Y-10400690D01*
X5436119Y-10400690D02*
X5455167Y-10410214D01*
X5455167Y-10410214D02*
X5464691Y-10429262D01*
X5464691Y-10429262D02*
X5464691Y-10534024D01*
X5559929Y-10534024D02*
X5559929Y-10400690D01*
X5559929Y-10419738D02*
X5569452Y-10410214D01*
X5569452Y-10410214D02*
X5588500Y-10400690D01*
X5588500Y-10400690D02*
X5617071Y-10400690D01*
X5617071Y-10400690D02*
X5636119Y-10410214D01*
X5636119Y-10410214D02*
X5645643Y-10429262D01*
X5645643Y-10429262D02*
X5645643Y-10534024D01*
X5645643Y-10429262D02*
X5655167Y-10410214D01*
X5655167Y-10410214D02*
X5674214Y-10400690D01*
X5674214Y-10400690D02*
X5702786Y-10400690D01*
X5702786Y-10400690D02*
X5721833Y-10410214D01*
X5721833Y-10410214D02*
X5731357Y-10429262D01*
X5731357Y-10429262D02*
X5731357Y-10534024D01*
X6121833Y-10324500D02*
X5950405Y-10581643D01*
X6378976Y-10334024D02*
X6398024Y-10334024D01*
X6398024Y-10334024D02*
X6417072Y-10343548D01*
X6417072Y-10343548D02*
X6426595Y-10353071D01*
X6426595Y-10353071D02*
X6436119Y-10372119D01*
X6436119Y-10372119D02*
X6445643Y-10410214D01*
X6445643Y-10410214D02*
X6445643Y-10457833D01*
X6445643Y-10457833D02*
X6436119Y-10495929D01*
X6436119Y-10495929D02*
X6426595Y-10514976D01*
X6426595Y-10514976D02*
X6417072Y-10524500D01*
X6417072Y-10524500D02*
X6398024Y-10534024D01*
X6398024Y-10534024D02*
X6378976Y-10534024D01*
X6378976Y-10534024D02*
X6359929Y-10524500D01*
X6359929Y-10524500D02*
X6350405Y-10514976D01*
X6350405Y-10514976D02*
X6340881Y-10495929D01*
X6340881Y-10495929D02*
X6331357Y-10457833D01*
X6331357Y-10457833D02*
X6331357Y-10410214D01*
X6331357Y-10410214D02*
X6340881Y-10372119D01*
X6340881Y-10372119D02*
X6350405Y-10353071D01*
X6350405Y-10353071D02*
X6359929Y-10343548D01*
X6359929Y-10343548D02*
X6378976Y-10334024D01*
X6531357Y-10514976D02*
X6540881Y-10524500D01*
X6540881Y-10524500D02*
X6531357Y-10534024D01*
X6531357Y-10534024D02*
X6521833Y-10524500D01*
X6521833Y-10524500D02*
X6531357Y-10514976D01*
X6531357Y-10514976D02*
X6531357Y-10534024D01*
X6664691Y-10334024D02*
X6683738Y-10334024D01*
X6683738Y-10334024D02*
X6702786Y-10343548D01*
X6702786Y-10343548D02*
X6712310Y-10353071D01*
X6712310Y-10353071D02*
X6721833Y-10372119D01*
X6721833Y-10372119D02*
X6731357Y-10410214D01*
X6731357Y-10410214D02*
X6731357Y-10457833D01*
X6731357Y-10457833D02*
X6721833Y-10495929D01*
X6721833Y-10495929D02*
X6712310Y-10514976D01*
X6712310Y-10514976D02*
X6702786Y-10524500D01*
X6702786Y-10524500D02*
X6683738Y-10534024D01*
X6683738Y-10534024D02*
X6664691Y-10534024D01*
X6664691Y-10534024D02*
X6645643Y-10524500D01*
X6645643Y-10524500D02*
X6636119Y-10514976D01*
X6636119Y-10514976D02*
X6626595Y-10495929D01*
X6626595Y-10495929D02*
X6617072Y-10457833D01*
X6617072Y-10457833D02*
X6617072Y-10410214D01*
X6617072Y-10410214D02*
X6626595Y-10372119D01*
X6626595Y-10372119D02*
X6636119Y-10353071D01*
X6636119Y-10353071D02*
X6645643Y-10343548D01*
X6645643Y-10343548D02*
X6664691Y-10334024D01*
X6902786Y-10400690D02*
X6902786Y-10534024D01*
X6855167Y-10324500D02*
X6807548Y-10467357D01*
X6807548Y-10467357D02*
X6931357Y-10467357D01*
X7045643Y-10334024D02*
X7064691Y-10334024D01*
X7064691Y-10334024D02*
X7083738Y-10343548D01*
X7083738Y-10343548D02*
X7093262Y-10353071D01*
X7093262Y-10353071D02*
X7102786Y-10372119D01*
X7102786Y-10372119D02*
X7112310Y-10410214D01*
X7112310Y-10410214D02*
X7112310Y-10457833D01*
X7112310Y-10457833D02*
X7102786Y-10495929D01*
X7102786Y-10495929D02*
X7093262Y-10514976D01*
X7093262Y-10514976D02*
X7083738Y-10524500D01*
X7083738Y-10524500D02*
X7064691Y-10534024D01*
X7064691Y-10534024D02*
X7045643Y-10534024D01*
X7045643Y-10534024D02*
X7026595Y-10524500D01*
X7026595Y-10524500D02*
X7017072Y-10514976D01*
X7017072Y-10514976D02*
X7007548Y-10495929D01*
X7007548Y-10495929D02*
X6998024Y-10457833D01*
X6998024Y-10457833D02*
X6998024Y-10410214D01*
X6998024Y-10410214D02*
X7007548Y-10372119D01*
X7007548Y-10372119D02*
X7017072Y-10353071D01*
X7017072Y-10353071D02*
X7026595Y-10343548D01*
X7026595Y-10343548D02*
X7045643Y-10334024D01*
X7188500Y-10353071D02*
X7198024Y-10343548D01*
X7198024Y-10343548D02*
X7217072Y-10334024D01*
X7217072Y-10334024D02*
X7264691Y-10334024D01*
X7264691Y-10334024D02*
X7283738Y-10343548D01*
X7283738Y-10343548D02*
X7293262Y-10353071D01*
X7293262Y-10353071D02*
X7302786Y-10372119D01*
X7302786Y-10372119D02*
X7302786Y-10391167D01*
X7302786Y-10391167D02*
X7293262Y-10419738D01*
X7293262Y-10419738D02*
X7178976Y-10534024D01*
X7178976Y-10534024D02*
X7302786Y-10534024D01*
X7378976Y-10334024D02*
X7378976Y-10372119D01*
X7455167Y-10334024D02*
X7455167Y-10372119D01*
X7750405Y-10610214D02*
X7740881Y-10600690D01*
X7740881Y-10600690D02*
X7721834Y-10572119D01*
X7721834Y-10572119D02*
X7712310Y-10553071D01*
X7712310Y-10553071D02*
X7702786Y-10524500D01*
X7702786Y-10524500D02*
X7693262Y-10476881D01*
X7693262Y-10476881D02*
X7693262Y-10438786D01*
X7693262Y-10438786D02*
X7702786Y-10391167D01*
X7702786Y-10391167D02*
X7712310Y-10362595D01*
X7712310Y-10362595D02*
X7721834Y-10343548D01*
X7721834Y-10343548D02*
X7740881Y-10314976D01*
X7740881Y-10314976D02*
X7750405Y-10305452D01*
X7807548Y-10334024D02*
X7940881Y-10334024D01*
X7940881Y-10334024D02*
X7855167Y-10534024D01*
X8169453Y-10534024D02*
X8169453Y-10334024D01*
X8255167Y-10534024D02*
X8255167Y-10429262D01*
X8255167Y-10429262D02*
X8245643Y-10410214D01*
X8245643Y-10410214D02*
X8226596Y-10400690D01*
X8226596Y-10400690D02*
X8198024Y-10400690D01*
X8198024Y-10400690D02*
X8178976Y-10410214D01*
X8178976Y-10410214D02*
X8169453Y-10419738D01*
X8378976Y-10534024D02*
X8359929Y-10524500D01*
X8359929Y-10524500D02*
X8350405Y-10514976D01*
X8350405Y-10514976D02*
X8340881Y-10495929D01*
X8340881Y-10495929D02*
X8340881Y-10438786D01*
X8340881Y-10438786D02*
X8350405Y-10419738D01*
X8350405Y-10419738D02*
X8359929Y-10410214D01*
X8359929Y-10410214D02*
X8378976Y-10400690D01*
X8378976Y-10400690D02*
X8407548Y-10400690D01*
X8407548Y-10400690D02*
X8426596Y-10410214D01*
X8426596Y-10410214D02*
X8436119Y-10419738D01*
X8436119Y-10419738D02*
X8445643Y-10438786D01*
X8445643Y-10438786D02*
X8445643Y-10495929D01*
X8445643Y-10495929D02*
X8436119Y-10514976D01*
X8436119Y-10514976D02*
X8426596Y-10524500D01*
X8426596Y-10524500D02*
X8407548Y-10534024D01*
X8407548Y-10534024D02*
X8378976Y-10534024D01*
X8559929Y-10534024D02*
X8540881Y-10524500D01*
X8540881Y-10524500D02*
X8531358Y-10505452D01*
X8531358Y-10505452D02*
X8531358Y-10334024D01*
X8712310Y-10524500D02*
X8693262Y-10534024D01*
X8693262Y-10534024D02*
X8655167Y-10534024D01*
X8655167Y-10534024D02*
X8636119Y-10524500D01*
X8636119Y-10524500D02*
X8626596Y-10505452D01*
X8626596Y-10505452D02*
X8626596Y-10429262D01*
X8626596Y-10429262D02*
X8636119Y-10410214D01*
X8636119Y-10410214D02*
X8655167Y-10400690D01*
X8655167Y-10400690D02*
X8693262Y-10400690D01*
X8693262Y-10400690D02*
X8712310Y-10410214D01*
X8712310Y-10410214D02*
X8721834Y-10429262D01*
X8721834Y-10429262D02*
X8721834Y-10448310D01*
X8721834Y-10448310D02*
X8626596Y-10467357D01*
X8798024Y-10524500D02*
X8817072Y-10534024D01*
X8817072Y-10534024D02*
X8855167Y-10534024D01*
X8855167Y-10534024D02*
X8874215Y-10524500D01*
X8874215Y-10524500D02*
X8883739Y-10505452D01*
X8883739Y-10505452D02*
X8883739Y-10495929D01*
X8883739Y-10495929D02*
X8874215Y-10476881D01*
X8874215Y-10476881D02*
X8855167Y-10467357D01*
X8855167Y-10467357D02*
X8826596Y-10467357D01*
X8826596Y-10467357D02*
X8807548Y-10457833D01*
X8807548Y-10457833D02*
X8798024Y-10438786D01*
X8798024Y-10438786D02*
X8798024Y-10429262D01*
X8798024Y-10429262D02*
X8807548Y-10410214D01*
X8807548Y-10410214D02*
X8826596Y-10400690D01*
X8826596Y-10400690D02*
X8855167Y-10400690D01*
X8855167Y-10400690D02*
X8874215Y-10410214D01*
X8950405Y-10610214D02*
X8959929Y-10600690D01*
X8959929Y-10600690D02*
X8978977Y-10572119D01*
X8978977Y-10572119D02*
X8988500Y-10553071D01*
X8988500Y-10553071D02*
X8998024Y-10524500D01*
X8998024Y-10524500D02*
X9007548Y-10476881D01*
X9007548Y-10476881D02*
X9007548Y-10438786D01*
X9007548Y-10438786D02*
X8998024Y-10391167D01*
X8998024Y-10391167D02*
X8988500Y-10362595D01*
X8988500Y-10362595D02*
X8978977Y-10343548D01*
X8978977Y-10343548D02*
X8959929Y-10314976D01*
X8959929Y-10314976D02*
X8950405Y-10305452D01*
D15*
X4172391Y-10744391D02*
X4172391Y-10666609D01*
X4094609Y-10666609D01*
X4094609Y-10744391D01*
X4172391Y-10744391D01*
D11*
X4540881Y-10798024D02*
X4426595Y-10798024D01*
X4483738Y-10798024D02*
X4483738Y-10598024D01*
X4483738Y-10598024D02*
X4464690Y-10626595D01*
X4464690Y-10626595D02*
X4445643Y-10645643D01*
X4445643Y-10645643D02*
X4426595Y-10655167D01*
X4626595Y-10778976D02*
X4636119Y-10788500D01*
X4636119Y-10788500D02*
X4626595Y-10798024D01*
X4626595Y-10798024D02*
X4617071Y-10788500D01*
X4617071Y-10788500D02*
X4626595Y-10778976D01*
X4626595Y-10778976D02*
X4626595Y-10798024D01*
X4826595Y-10798024D02*
X4712310Y-10798024D01*
X4769452Y-10798024D02*
X4769452Y-10598024D01*
X4769452Y-10598024D02*
X4750405Y-10626595D01*
X4750405Y-10626595D02*
X4731357Y-10645643D01*
X4731357Y-10645643D02*
X4712310Y-10655167D01*
X4950405Y-10598024D02*
X4969452Y-10598024D01*
X4969452Y-10598024D02*
X4988500Y-10607548D01*
X4988500Y-10607548D02*
X4998024Y-10617071D01*
X4998024Y-10617071D02*
X5007548Y-10636119D01*
X5007548Y-10636119D02*
X5017071Y-10674214D01*
X5017071Y-10674214D02*
X5017071Y-10721833D01*
X5017071Y-10721833D02*
X5007548Y-10759929D01*
X5007548Y-10759929D02*
X4998024Y-10778976D01*
X4998024Y-10778976D02*
X4988500Y-10788500D01*
X4988500Y-10788500D02*
X4969452Y-10798024D01*
X4969452Y-10798024D02*
X4950405Y-10798024D01*
X4950405Y-10798024D02*
X4931357Y-10788500D01*
X4931357Y-10788500D02*
X4921833Y-10778976D01*
X4921833Y-10778976D02*
X4912310Y-10759929D01*
X4912310Y-10759929D02*
X4902786Y-10721833D01*
X4902786Y-10721833D02*
X4902786Y-10674214D01*
X4902786Y-10674214D02*
X4912310Y-10636119D01*
X4912310Y-10636119D02*
X4921833Y-10617071D01*
X4921833Y-10617071D02*
X4931357Y-10607548D01*
X4931357Y-10607548D02*
X4950405Y-10598024D01*
X5140881Y-10598024D02*
X5159929Y-10598024D01*
X5159929Y-10598024D02*
X5178976Y-10607548D01*
X5178976Y-10607548D02*
X5188500Y-10617071D01*
X5188500Y-10617071D02*
X5198024Y-10636119D01*
X5198024Y-10636119D02*
X5207548Y-10674214D01*
X5207548Y-10674214D02*
X5207548Y-10721833D01*
X5207548Y-10721833D02*
X5198024Y-10759929D01*
X5198024Y-10759929D02*
X5188500Y-10778976D01*
X5188500Y-10778976D02*
X5178976Y-10788500D01*
X5178976Y-10788500D02*
X5159929Y-10798024D01*
X5159929Y-10798024D02*
X5140881Y-10798024D01*
X5140881Y-10798024D02*
X5121833Y-10788500D01*
X5121833Y-10788500D02*
X5112310Y-10778976D01*
X5112310Y-10778976D02*
X5102786Y-10759929D01*
X5102786Y-10759929D02*
X5093262Y-10721833D01*
X5093262Y-10721833D02*
X5093262Y-10674214D01*
X5093262Y-10674214D02*
X5102786Y-10636119D01*
X5102786Y-10636119D02*
X5112310Y-10617071D01*
X5112310Y-10617071D02*
X5121833Y-10607548D01*
X5121833Y-10607548D02*
X5140881Y-10598024D01*
X5293262Y-10798024D02*
X5293262Y-10664690D01*
X5293262Y-10683738D02*
X5302786Y-10674214D01*
X5302786Y-10674214D02*
X5321833Y-10664690D01*
X5321833Y-10664690D02*
X5350405Y-10664690D01*
X5350405Y-10664690D02*
X5369452Y-10674214D01*
X5369452Y-10674214D02*
X5378976Y-10693262D01*
X5378976Y-10693262D02*
X5378976Y-10798024D01*
X5378976Y-10693262D02*
X5388500Y-10674214D01*
X5388500Y-10674214D02*
X5407548Y-10664690D01*
X5407548Y-10664690D02*
X5436119Y-10664690D01*
X5436119Y-10664690D02*
X5455167Y-10674214D01*
X5455167Y-10674214D02*
X5464691Y-10693262D01*
X5464691Y-10693262D02*
X5464691Y-10798024D01*
X5559929Y-10798024D02*
X5559929Y-10664690D01*
X5559929Y-10683738D02*
X5569452Y-10674214D01*
X5569452Y-10674214D02*
X5588500Y-10664690D01*
X5588500Y-10664690D02*
X5617071Y-10664690D01*
X5617071Y-10664690D02*
X5636119Y-10674214D01*
X5636119Y-10674214D02*
X5645643Y-10693262D01*
X5645643Y-10693262D02*
X5645643Y-10798024D01*
X5645643Y-10693262D02*
X5655167Y-10674214D01*
X5655167Y-10674214D02*
X5674214Y-10664690D01*
X5674214Y-10664690D02*
X5702786Y-10664690D01*
X5702786Y-10664690D02*
X5721833Y-10674214D01*
X5721833Y-10674214D02*
X5731357Y-10693262D01*
X5731357Y-10693262D02*
X5731357Y-10798024D01*
X6121833Y-10588500D02*
X5950405Y-10845643D01*
X6378976Y-10598024D02*
X6398024Y-10598024D01*
X6398024Y-10598024D02*
X6417072Y-10607548D01*
X6417072Y-10607548D02*
X6426595Y-10617071D01*
X6426595Y-10617071D02*
X6436119Y-10636119D01*
X6436119Y-10636119D02*
X6445643Y-10674214D01*
X6445643Y-10674214D02*
X6445643Y-10721833D01*
X6445643Y-10721833D02*
X6436119Y-10759929D01*
X6436119Y-10759929D02*
X6426595Y-10778976D01*
X6426595Y-10778976D02*
X6417072Y-10788500D01*
X6417072Y-10788500D02*
X6398024Y-10798024D01*
X6398024Y-10798024D02*
X6378976Y-10798024D01*
X6378976Y-10798024D02*
X6359929Y-10788500D01*
X6359929Y-10788500D02*
X6350405Y-10778976D01*
X6350405Y-10778976D02*
X6340881Y-10759929D01*
X6340881Y-10759929D02*
X6331357Y-10721833D01*
X6331357Y-10721833D02*
X6331357Y-10674214D01*
X6331357Y-10674214D02*
X6340881Y-10636119D01*
X6340881Y-10636119D02*
X6350405Y-10617071D01*
X6350405Y-10617071D02*
X6359929Y-10607548D01*
X6359929Y-10607548D02*
X6378976Y-10598024D01*
X6531357Y-10778976D02*
X6540881Y-10788500D01*
X6540881Y-10788500D02*
X6531357Y-10798024D01*
X6531357Y-10798024D02*
X6521833Y-10788500D01*
X6521833Y-10788500D02*
X6531357Y-10778976D01*
X6531357Y-10778976D02*
X6531357Y-10798024D01*
X6664691Y-10598024D02*
X6683738Y-10598024D01*
X6683738Y-10598024D02*
X6702786Y-10607548D01*
X6702786Y-10607548D02*
X6712310Y-10617071D01*
X6712310Y-10617071D02*
X6721833Y-10636119D01*
X6721833Y-10636119D02*
X6731357Y-10674214D01*
X6731357Y-10674214D02*
X6731357Y-10721833D01*
X6731357Y-10721833D02*
X6721833Y-10759929D01*
X6721833Y-10759929D02*
X6712310Y-10778976D01*
X6712310Y-10778976D02*
X6702786Y-10788500D01*
X6702786Y-10788500D02*
X6683738Y-10798024D01*
X6683738Y-10798024D02*
X6664691Y-10798024D01*
X6664691Y-10798024D02*
X6645643Y-10788500D01*
X6645643Y-10788500D02*
X6636119Y-10778976D01*
X6636119Y-10778976D02*
X6626595Y-10759929D01*
X6626595Y-10759929D02*
X6617072Y-10721833D01*
X6617072Y-10721833D02*
X6617072Y-10674214D01*
X6617072Y-10674214D02*
X6626595Y-10636119D01*
X6626595Y-10636119D02*
X6636119Y-10617071D01*
X6636119Y-10617071D02*
X6645643Y-10607548D01*
X6645643Y-10607548D02*
X6664691Y-10598024D01*
X6902786Y-10664690D02*
X6902786Y-10798024D01*
X6855167Y-10588500D02*
X6807548Y-10731357D01*
X6807548Y-10731357D02*
X6931357Y-10731357D01*
X6988500Y-10598024D02*
X7112310Y-10598024D01*
X7112310Y-10598024D02*
X7045643Y-10674214D01*
X7045643Y-10674214D02*
X7074214Y-10674214D01*
X7074214Y-10674214D02*
X7093262Y-10683738D01*
X7093262Y-10683738D02*
X7102786Y-10693262D01*
X7102786Y-10693262D02*
X7112310Y-10712310D01*
X7112310Y-10712310D02*
X7112310Y-10759929D01*
X7112310Y-10759929D02*
X7102786Y-10778976D01*
X7102786Y-10778976D02*
X7093262Y-10788500D01*
X7093262Y-10788500D02*
X7074214Y-10798024D01*
X7074214Y-10798024D02*
X7017072Y-10798024D01*
X7017072Y-10798024D02*
X6998024Y-10788500D01*
X6998024Y-10788500D02*
X6988500Y-10778976D01*
X7178976Y-10598024D02*
X7302786Y-10598024D01*
X7302786Y-10598024D02*
X7236119Y-10674214D01*
X7236119Y-10674214D02*
X7264691Y-10674214D01*
X7264691Y-10674214D02*
X7283738Y-10683738D01*
X7283738Y-10683738D02*
X7293262Y-10693262D01*
X7293262Y-10693262D02*
X7302786Y-10712310D01*
X7302786Y-10712310D02*
X7302786Y-10759929D01*
X7302786Y-10759929D02*
X7293262Y-10778976D01*
X7293262Y-10778976D02*
X7283738Y-10788500D01*
X7283738Y-10788500D02*
X7264691Y-10798024D01*
X7264691Y-10798024D02*
X7207548Y-10798024D01*
X7207548Y-10798024D02*
X7188500Y-10788500D01*
X7188500Y-10788500D02*
X7178976Y-10778976D01*
X7378976Y-10598024D02*
X7378976Y-10636119D01*
X7455167Y-10598024D02*
X7455167Y-10636119D01*
X7750405Y-10874214D02*
X7740881Y-10864690D01*
X7740881Y-10864690D02*
X7721834Y-10836119D01*
X7721834Y-10836119D02*
X7712310Y-10817071D01*
X7712310Y-10817071D02*
X7702786Y-10788500D01*
X7702786Y-10788500D02*
X7693262Y-10740881D01*
X7693262Y-10740881D02*
X7693262Y-10702786D01*
X7693262Y-10702786D02*
X7702786Y-10655167D01*
X7702786Y-10655167D02*
X7712310Y-10626595D01*
X7712310Y-10626595D02*
X7721834Y-10607548D01*
X7721834Y-10607548D02*
X7740881Y-10578976D01*
X7740881Y-10578976D02*
X7750405Y-10569452D01*
X7912310Y-10598024D02*
X7874214Y-10598024D01*
X7874214Y-10598024D02*
X7855167Y-10607548D01*
X7855167Y-10607548D02*
X7845643Y-10617071D01*
X7845643Y-10617071D02*
X7826595Y-10645643D01*
X7826595Y-10645643D02*
X7817072Y-10683738D01*
X7817072Y-10683738D02*
X7817072Y-10759929D01*
X7817072Y-10759929D02*
X7826595Y-10778976D01*
X7826595Y-10778976D02*
X7836119Y-10788500D01*
X7836119Y-10788500D02*
X7855167Y-10798024D01*
X7855167Y-10798024D02*
X7893262Y-10798024D01*
X7893262Y-10798024D02*
X7912310Y-10788500D01*
X7912310Y-10788500D02*
X7921834Y-10778976D01*
X7921834Y-10778976D02*
X7931357Y-10759929D01*
X7931357Y-10759929D02*
X7931357Y-10712310D01*
X7931357Y-10712310D02*
X7921834Y-10693262D01*
X7921834Y-10693262D02*
X7912310Y-10683738D01*
X7912310Y-10683738D02*
X7893262Y-10674214D01*
X7893262Y-10674214D02*
X7855167Y-10674214D01*
X7855167Y-10674214D02*
X7836119Y-10683738D01*
X7836119Y-10683738D02*
X7826595Y-10693262D01*
X7826595Y-10693262D02*
X7817072Y-10712310D01*
X8121834Y-10798024D02*
X8007548Y-10798024D01*
X8064691Y-10798024D02*
X8064691Y-10598024D01*
X8064691Y-10598024D02*
X8045643Y-10626595D01*
X8045643Y-10626595D02*
X8026595Y-10645643D01*
X8026595Y-10645643D02*
X8007548Y-10655167D01*
X8359929Y-10798024D02*
X8359929Y-10598024D01*
X8445643Y-10798024D02*
X8445643Y-10693262D01*
X8445643Y-10693262D02*
X8436119Y-10674214D01*
X8436119Y-10674214D02*
X8417072Y-10664690D01*
X8417072Y-10664690D02*
X8388500Y-10664690D01*
X8388500Y-10664690D02*
X8369453Y-10674214D01*
X8369453Y-10674214D02*
X8359929Y-10683738D01*
X8569453Y-10798024D02*
X8550405Y-10788500D01*
X8550405Y-10788500D02*
X8540881Y-10778976D01*
X8540881Y-10778976D02*
X8531358Y-10759929D01*
X8531358Y-10759929D02*
X8531358Y-10702786D01*
X8531358Y-10702786D02*
X8540881Y-10683738D01*
X8540881Y-10683738D02*
X8550405Y-10674214D01*
X8550405Y-10674214D02*
X8569453Y-10664690D01*
X8569453Y-10664690D02*
X8598024Y-10664690D01*
X8598024Y-10664690D02*
X8617072Y-10674214D01*
X8617072Y-10674214D02*
X8626596Y-10683738D01*
X8626596Y-10683738D02*
X8636119Y-10702786D01*
X8636119Y-10702786D02*
X8636119Y-10759929D01*
X8636119Y-10759929D02*
X8626596Y-10778976D01*
X8626596Y-10778976D02*
X8617072Y-10788500D01*
X8617072Y-10788500D02*
X8598024Y-10798024D01*
X8598024Y-10798024D02*
X8569453Y-10798024D01*
X8750405Y-10798024D02*
X8731358Y-10788500D01*
X8731358Y-10788500D02*
X8721834Y-10769452D01*
X8721834Y-10769452D02*
X8721834Y-10598024D01*
X8902786Y-10788500D02*
X8883739Y-10798024D01*
X8883739Y-10798024D02*
X8845643Y-10798024D01*
X8845643Y-10798024D02*
X8826596Y-10788500D01*
X8826596Y-10788500D02*
X8817072Y-10769452D01*
X8817072Y-10769452D02*
X8817072Y-10693262D01*
X8817072Y-10693262D02*
X8826596Y-10674214D01*
X8826596Y-10674214D02*
X8845643Y-10664690D01*
X8845643Y-10664690D02*
X8883739Y-10664690D01*
X8883739Y-10664690D02*
X8902786Y-10674214D01*
X8902786Y-10674214D02*
X8912310Y-10693262D01*
X8912310Y-10693262D02*
X8912310Y-10712310D01*
X8912310Y-10712310D02*
X8817072Y-10731357D01*
X8988500Y-10788500D02*
X9007548Y-10798024D01*
X9007548Y-10798024D02*
X9045643Y-10798024D01*
X9045643Y-10798024D02*
X9064691Y-10788500D01*
X9064691Y-10788500D02*
X9074215Y-10769452D01*
X9074215Y-10769452D02*
X9074215Y-10759929D01*
X9074215Y-10759929D02*
X9064691Y-10740881D01*
X9064691Y-10740881D02*
X9045643Y-10731357D01*
X9045643Y-10731357D02*
X9017072Y-10731357D01*
X9017072Y-10731357D02*
X8998024Y-10721833D01*
X8998024Y-10721833D02*
X8988500Y-10702786D01*
X8988500Y-10702786D02*
X8988500Y-10693262D01*
X8988500Y-10693262D02*
X8998024Y-10674214D01*
X8998024Y-10674214D02*
X9017072Y-10664690D01*
X9017072Y-10664690D02*
X9045643Y-10664690D01*
X9045643Y-10664690D02*
X9064691Y-10674214D01*
X9140881Y-10874214D02*
X9150405Y-10864690D01*
X9150405Y-10864690D02*
X9169453Y-10836119D01*
X9169453Y-10836119D02*
X9178977Y-10817071D01*
X9178977Y-10817071D02*
X9188500Y-10788500D01*
X9188500Y-10788500D02*
X9198024Y-10740881D01*
X9198024Y-10740881D02*
X9198024Y-10702786D01*
X9198024Y-10702786D02*
X9188500Y-10655167D01*
X9188500Y-10655167D02*
X9178977Y-10626595D01*
X9178977Y-10626595D02*
X9169453Y-10607548D01*
X9169453Y-10607548D02*
X9150405Y-10578976D01*
X9150405Y-10578976D02*
X9140881Y-10569452D01*
X4088500Y-11069500D02*
X4188500Y-10969500D01*
X4088500Y-10869500D01*
X3988500Y-10969500D01*
X4088500Y-11069500D01*
X4426595Y-10881071D02*
X4436119Y-10871548D01*
X4436119Y-10871548D02*
X4455167Y-10862024D01*
X4455167Y-10862024D02*
X4502786Y-10862024D01*
X4502786Y-10862024D02*
X4521833Y-10871548D01*
X4521833Y-10871548D02*
X4531357Y-10881071D01*
X4531357Y-10881071D02*
X4540881Y-10900119D01*
X4540881Y-10900119D02*
X4540881Y-10919167D01*
X4540881Y-10919167D02*
X4531357Y-10947738D01*
X4531357Y-10947738D02*
X4417071Y-11062024D01*
X4417071Y-11062024D02*
X4540881Y-11062024D01*
X4626595Y-11042976D02*
X4636119Y-11052500D01*
X4636119Y-11052500D02*
X4626595Y-11062024D01*
X4626595Y-11062024D02*
X4617071Y-11052500D01*
X4617071Y-11052500D02*
X4626595Y-11042976D01*
X4626595Y-11042976D02*
X4626595Y-11062024D01*
X4759929Y-10862024D02*
X4778976Y-10862024D01*
X4778976Y-10862024D02*
X4798024Y-10871548D01*
X4798024Y-10871548D02*
X4807548Y-10881071D01*
X4807548Y-10881071D02*
X4817071Y-10900119D01*
X4817071Y-10900119D02*
X4826595Y-10938214D01*
X4826595Y-10938214D02*
X4826595Y-10985833D01*
X4826595Y-10985833D02*
X4817071Y-11023929D01*
X4817071Y-11023929D02*
X4807548Y-11042976D01*
X4807548Y-11042976D02*
X4798024Y-11052500D01*
X4798024Y-11052500D02*
X4778976Y-11062024D01*
X4778976Y-11062024D02*
X4759929Y-11062024D01*
X4759929Y-11062024D02*
X4740881Y-11052500D01*
X4740881Y-11052500D02*
X4731357Y-11042976D01*
X4731357Y-11042976D02*
X4721833Y-11023929D01*
X4721833Y-11023929D02*
X4712310Y-10985833D01*
X4712310Y-10985833D02*
X4712310Y-10938214D01*
X4712310Y-10938214D02*
X4721833Y-10900119D01*
X4721833Y-10900119D02*
X4731357Y-10881071D01*
X4731357Y-10881071D02*
X4740881Y-10871548D01*
X4740881Y-10871548D02*
X4759929Y-10862024D01*
X4950405Y-10862024D02*
X4969452Y-10862024D01*
X4969452Y-10862024D02*
X4988500Y-10871548D01*
X4988500Y-10871548D02*
X4998024Y-10881071D01*
X4998024Y-10881071D02*
X5007548Y-10900119D01*
X5007548Y-10900119D02*
X5017071Y-10938214D01*
X5017071Y-10938214D02*
X5017071Y-10985833D01*
X5017071Y-10985833D02*
X5007548Y-11023929D01*
X5007548Y-11023929D02*
X4998024Y-11042976D01*
X4998024Y-11042976D02*
X4988500Y-11052500D01*
X4988500Y-11052500D02*
X4969452Y-11062024D01*
X4969452Y-11062024D02*
X4950405Y-11062024D01*
X4950405Y-11062024D02*
X4931357Y-11052500D01*
X4931357Y-11052500D02*
X4921833Y-11042976D01*
X4921833Y-11042976D02*
X4912310Y-11023929D01*
X4912310Y-11023929D02*
X4902786Y-10985833D01*
X4902786Y-10985833D02*
X4902786Y-10938214D01*
X4902786Y-10938214D02*
X4912310Y-10900119D01*
X4912310Y-10900119D02*
X4921833Y-10881071D01*
X4921833Y-10881071D02*
X4931357Y-10871548D01*
X4931357Y-10871548D02*
X4950405Y-10862024D01*
X5140881Y-10862024D02*
X5159929Y-10862024D01*
X5159929Y-10862024D02*
X5178976Y-10871548D01*
X5178976Y-10871548D02*
X5188500Y-10881071D01*
X5188500Y-10881071D02*
X5198024Y-10900119D01*
X5198024Y-10900119D02*
X5207548Y-10938214D01*
X5207548Y-10938214D02*
X5207548Y-10985833D01*
X5207548Y-10985833D02*
X5198024Y-11023929D01*
X5198024Y-11023929D02*
X5188500Y-11042976D01*
X5188500Y-11042976D02*
X5178976Y-11052500D01*
X5178976Y-11052500D02*
X5159929Y-11062024D01*
X5159929Y-11062024D02*
X5140881Y-11062024D01*
X5140881Y-11062024D02*
X5121833Y-11052500D01*
X5121833Y-11052500D02*
X5112310Y-11042976D01*
X5112310Y-11042976D02*
X5102786Y-11023929D01*
X5102786Y-11023929D02*
X5093262Y-10985833D01*
X5093262Y-10985833D02*
X5093262Y-10938214D01*
X5093262Y-10938214D02*
X5102786Y-10900119D01*
X5102786Y-10900119D02*
X5112310Y-10881071D01*
X5112310Y-10881071D02*
X5121833Y-10871548D01*
X5121833Y-10871548D02*
X5140881Y-10862024D01*
X5293262Y-11062024D02*
X5293262Y-10928690D01*
X5293262Y-10947738D02*
X5302786Y-10938214D01*
X5302786Y-10938214D02*
X5321833Y-10928690D01*
X5321833Y-10928690D02*
X5350405Y-10928690D01*
X5350405Y-10928690D02*
X5369452Y-10938214D01*
X5369452Y-10938214D02*
X5378976Y-10957262D01*
X5378976Y-10957262D02*
X5378976Y-11062024D01*
X5378976Y-10957262D02*
X5388500Y-10938214D01*
X5388500Y-10938214D02*
X5407548Y-10928690D01*
X5407548Y-10928690D02*
X5436119Y-10928690D01*
X5436119Y-10928690D02*
X5455167Y-10938214D01*
X5455167Y-10938214D02*
X5464691Y-10957262D01*
X5464691Y-10957262D02*
X5464691Y-11062024D01*
X5559929Y-11062024D02*
X5559929Y-10928690D01*
X5559929Y-10947738D02*
X5569452Y-10938214D01*
X5569452Y-10938214D02*
X5588500Y-10928690D01*
X5588500Y-10928690D02*
X5617071Y-10928690D01*
X5617071Y-10928690D02*
X5636119Y-10938214D01*
X5636119Y-10938214D02*
X5645643Y-10957262D01*
X5645643Y-10957262D02*
X5645643Y-11062024D01*
X5645643Y-10957262D02*
X5655167Y-10938214D01*
X5655167Y-10938214D02*
X5674214Y-10928690D01*
X5674214Y-10928690D02*
X5702786Y-10928690D01*
X5702786Y-10928690D02*
X5721833Y-10938214D01*
X5721833Y-10938214D02*
X5731357Y-10957262D01*
X5731357Y-10957262D02*
X5731357Y-11062024D01*
X6121833Y-10852500D02*
X5950405Y-11109643D01*
X6378976Y-10862024D02*
X6398024Y-10862024D01*
X6398024Y-10862024D02*
X6417072Y-10871548D01*
X6417072Y-10871548D02*
X6426595Y-10881071D01*
X6426595Y-10881071D02*
X6436119Y-10900119D01*
X6436119Y-10900119D02*
X6445643Y-10938214D01*
X6445643Y-10938214D02*
X6445643Y-10985833D01*
X6445643Y-10985833D02*
X6436119Y-11023929D01*
X6436119Y-11023929D02*
X6426595Y-11042976D01*
X6426595Y-11042976D02*
X6417072Y-11052500D01*
X6417072Y-11052500D02*
X6398024Y-11062024D01*
X6398024Y-11062024D02*
X6378976Y-11062024D01*
X6378976Y-11062024D02*
X6359929Y-11052500D01*
X6359929Y-11052500D02*
X6350405Y-11042976D01*
X6350405Y-11042976D02*
X6340881Y-11023929D01*
X6340881Y-11023929D02*
X6331357Y-10985833D01*
X6331357Y-10985833D02*
X6331357Y-10938214D01*
X6331357Y-10938214D02*
X6340881Y-10900119D01*
X6340881Y-10900119D02*
X6350405Y-10881071D01*
X6350405Y-10881071D02*
X6359929Y-10871548D01*
X6359929Y-10871548D02*
X6378976Y-10862024D01*
X6531357Y-11042976D02*
X6540881Y-11052500D01*
X6540881Y-11052500D02*
X6531357Y-11062024D01*
X6531357Y-11062024D02*
X6521833Y-11052500D01*
X6521833Y-11052500D02*
X6531357Y-11042976D01*
X6531357Y-11042976D02*
X6531357Y-11062024D01*
X6664691Y-10862024D02*
X6683738Y-10862024D01*
X6683738Y-10862024D02*
X6702786Y-10871548D01*
X6702786Y-10871548D02*
X6712310Y-10881071D01*
X6712310Y-10881071D02*
X6721833Y-10900119D01*
X6721833Y-10900119D02*
X6731357Y-10938214D01*
X6731357Y-10938214D02*
X6731357Y-10985833D01*
X6731357Y-10985833D02*
X6721833Y-11023929D01*
X6721833Y-11023929D02*
X6712310Y-11042976D01*
X6712310Y-11042976D02*
X6702786Y-11052500D01*
X6702786Y-11052500D02*
X6683738Y-11062024D01*
X6683738Y-11062024D02*
X6664691Y-11062024D01*
X6664691Y-11062024D02*
X6645643Y-11052500D01*
X6645643Y-11052500D02*
X6636119Y-11042976D01*
X6636119Y-11042976D02*
X6626595Y-11023929D01*
X6626595Y-11023929D02*
X6617072Y-10985833D01*
X6617072Y-10985833D02*
X6617072Y-10938214D01*
X6617072Y-10938214D02*
X6626595Y-10900119D01*
X6626595Y-10900119D02*
X6636119Y-10881071D01*
X6636119Y-10881071D02*
X6645643Y-10871548D01*
X6645643Y-10871548D02*
X6664691Y-10862024D01*
X6798024Y-10862024D02*
X6931357Y-10862024D01*
X6931357Y-10862024D02*
X6845643Y-11062024D01*
X7036119Y-10947738D02*
X7017072Y-10938214D01*
X7017072Y-10938214D02*
X7007548Y-10928690D01*
X7007548Y-10928690D02*
X6998024Y-10909643D01*
X6998024Y-10909643D02*
X6998024Y-10900119D01*
X6998024Y-10900119D02*
X7007548Y-10881071D01*
X7007548Y-10881071D02*
X7017072Y-10871548D01*
X7017072Y-10871548D02*
X7036119Y-10862024D01*
X7036119Y-10862024D02*
X7074214Y-10862024D01*
X7074214Y-10862024D02*
X7093262Y-10871548D01*
X7093262Y-10871548D02*
X7102786Y-10881071D01*
X7102786Y-10881071D02*
X7112310Y-10900119D01*
X7112310Y-10900119D02*
X7112310Y-10909643D01*
X7112310Y-10909643D02*
X7102786Y-10928690D01*
X7102786Y-10928690D02*
X7093262Y-10938214D01*
X7093262Y-10938214D02*
X7074214Y-10947738D01*
X7074214Y-10947738D02*
X7036119Y-10947738D01*
X7036119Y-10947738D02*
X7017072Y-10957262D01*
X7017072Y-10957262D02*
X7007548Y-10966786D01*
X7007548Y-10966786D02*
X6998024Y-10985833D01*
X6998024Y-10985833D02*
X6998024Y-11023929D01*
X6998024Y-11023929D02*
X7007548Y-11042976D01*
X7007548Y-11042976D02*
X7017072Y-11052500D01*
X7017072Y-11052500D02*
X7036119Y-11062024D01*
X7036119Y-11062024D02*
X7074214Y-11062024D01*
X7074214Y-11062024D02*
X7093262Y-11052500D01*
X7093262Y-11052500D02*
X7102786Y-11042976D01*
X7102786Y-11042976D02*
X7112310Y-11023929D01*
X7112310Y-11023929D02*
X7112310Y-10985833D01*
X7112310Y-10985833D02*
X7102786Y-10966786D01*
X7102786Y-10966786D02*
X7093262Y-10957262D01*
X7093262Y-10957262D02*
X7074214Y-10947738D01*
X7178976Y-10862024D02*
X7312310Y-10862024D01*
X7312310Y-10862024D02*
X7226595Y-11062024D01*
X7378976Y-10862024D02*
X7378976Y-10900119D01*
X7455167Y-10862024D02*
X7455167Y-10900119D01*
X7750405Y-11138214D02*
X7740881Y-11128690D01*
X7740881Y-11128690D02*
X7721834Y-11100119D01*
X7721834Y-11100119D02*
X7712310Y-11081071D01*
X7712310Y-11081071D02*
X7702786Y-11052500D01*
X7702786Y-11052500D02*
X7693262Y-11004881D01*
X7693262Y-11004881D02*
X7693262Y-10966786D01*
X7693262Y-10966786D02*
X7702786Y-10919167D01*
X7702786Y-10919167D02*
X7712310Y-10890595D01*
X7712310Y-10890595D02*
X7721834Y-10871548D01*
X7721834Y-10871548D02*
X7740881Y-10842976D01*
X7740881Y-10842976D02*
X7750405Y-10833452D01*
X7912310Y-10928690D02*
X7912310Y-11062024D01*
X7864691Y-10852500D02*
X7817072Y-10995357D01*
X7817072Y-10995357D02*
X7940881Y-10995357D01*
X8169453Y-11062024D02*
X8169453Y-10862024D01*
X8255167Y-11062024D02*
X8255167Y-10957262D01*
X8255167Y-10957262D02*
X8245643Y-10938214D01*
X8245643Y-10938214D02*
X8226596Y-10928690D01*
X8226596Y-10928690D02*
X8198024Y-10928690D01*
X8198024Y-10928690D02*
X8178976Y-10938214D01*
X8178976Y-10938214D02*
X8169453Y-10947738D01*
X8378976Y-11062024D02*
X8359929Y-11052500D01*
X8359929Y-11052500D02*
X8350405Y-11042976D01*
X8350405Y-11042976D02*
X8340881Y-11023929D01*
X8340881Y-11023929D02*
X8340881Y-10966786D01*
X8340881Y-10966786D02*
X8350405Y-10947738D01*
X8350405Y-10947738D02*
X8359929Y-10938214D01*
X8359929Y-10938214D02*
X8378976Y-10928690D01*
X8378976Y-10928690D02*
X8407548Y-10928690D01*
X8407548Y-10928690D02*
X8426596Y-10938214D01*
X8426596Y-10938214D02*
X8436119Y-10947738D01*
X8436119Y-10947738D02*
X8445643Y-10966786D01*
X8445643Y-10966786D02*
X8445643Y-11023929D01*
X8445643Y-11023929D02*
X8436119Y-11042976D01*
X8436119Y-11042976D02*
X8426596Y-11052500D01*
X8426596Y-11052500D02*
X8407548Y-11062024D01*
X8407548Y-11062024D02*
X8378976Y-11062024D01*
X8559929Y-11062024D02*
X8540881Y-11052500D01*
X8540881Y-11052500D02*
X8531358Y-11033452D01*
X8531358Y-11033452D02*
X8531358Y-10862024D01*
X8712310Y-11052500D02*
X8693262Y-11062024D01*
X8693262Y-11062024D02*
X8655167Y-11062024D01*
X8655167Y-11062024D02*
X8636119Y-11052500D01*
X8636119Y-11052500D02*
X8626596Y-11033452D01*
X8626596Y-11033452D02*
X8626596Y-10957262D01*
X8626596Y-10957262D02*
X8636119Y-10938214D01*
X8636119Y-10938214D02*
X8655167Y-10928690D01*
X8655167Y-10928690D02*
X8693262Y-10928690D01*
X8693262Y-10928690D02*
X8712310Y-10938214D01*
X8712310Y-10938214D02*
X8721834Y-10957262D01*
X8721834Y-10957262D02*
X8721834Y-10976310D01*
X8721834Y-10976310D02*
X8626596Y-10995357D01*
X8798024Y-11052500D02*
X8817072Y-11062024D01*
X8817072Y-11062024D02*
X8855167Y-11062024D01*
X8855167Y-11062024D02*
X8874215Y-11052500D01*
X8874215Y-11052500D02*
X8883739Y-11033452D01*
X8883739Y-11033452D02*
X8883739Y-11023929D01*
X8883739Y-11023929D02*
X8874215Y-11004881D01*
X8874215Y-11004881D02*
X8855167Y-10995357D01*
X8855167Y-10995357D02*
X8826596Y-10995357D01*
X8826596Y-10995357D02*
X8807548Y-10985833D01*
X8807548Y-10985833D02*
X8798024Y-10966786D01*
X8798024Y-10966786D02*
X8798024Y-10957262D01*
X8798024Y-10957262D02*
X8807548Y-10938214D01*
X8807548Y-10938214D02*
X8826596Y-10928690D01*
X8826596Y-10928690D02*
X8855167Y-10928690D01*
X8855167Y-10928690D02*
X8874215Y-10938214D01*
X8950405Y-11138214D02*
X8959929Y-11128690D01*
X8959929Y-11128690D02*
X8978977Y-11100119D01*
X8978977Y-11100119D02*
X8988500Y-11081071D01*
X8988500Y-11081071D02*
X8998024Y-11052500D01*
X8998024Y-11052500D02*
X9007548Y-11004881D01*
X9007548Y-11004881D02*
X9007548Y-10966786D01*
X9007548Y-10966786D02*
X8998024Y-10919167D01*
X8998024Y-10919167D02*
X8988500Y-10890595D01*
X8988500Y-10890595D02*
X8978977Y-10871548D01*
X8978977Y-10871548D02*
X8959929Y-10842976D01*
X8959929Y-10842976D02*
X8950405Y-10833452D01*
M02*
