%TF.GenerationSoftware,KiCad,Pcbnew,8.0.3*%
%TF.CreationDate,2024-07-04T22:57:28-04:00*%
%TF.ProjectId,rrc_pcb2,7272635f-7063-4623-922e-6b696361645f,3*%
%TF.SameCoordinates,Original*%
%TF.FileFunction,Legend,Top*%
%TF.FilePolarity,Positive*%
%FSLAX46Y46*%
G04 Gerber Fmt 4.6, Leading zero omitted, Abs format (unit mm)*
G04 Created by KiCad (PCBNEW 8.0.3) date 2024-07-04 22:57:28*
%MOMM*%
%LPD*%
G01*
G04 APERTURE LIST*
%ADD10C,0.100000*%
%ADD11C,0.150000*%
%ADD12C,0.300000*%
%ADD13C,0.400000*%
%ADD14C,0.120000*%
%ADD15C,0.000000*%
%ADD16C,0.050000*%
%ADD17C,0.127000*%
%TA.AperFunction,Profile*%
%ADD18C,0.050000*%
%TD*%
%TA.AperFunction,Profile*%
%ADD19C,0.100000*%
%TD*%
G04 APERTURE END LIST*
D10*
D11*
X177002200Y-166007200D02*
X285002200Y-166007200D01*
X285002200Y-198007200D01*
X177002200Y-198007200D01*
X177002200Y-166007200D01*
D10*
D11*
X10000000Y-10000000D02*
X287002200Y-10000000D01*
X287002200Y-200007200D01*
X10000000Y-200007200D01*
X10000000Y-10000000D01*
D10*
D11*
X12000000Y-12000000D02*
X285002200Y-12000000D01*
X285002200Y-198007200D01*
X12000000Y-198007200D01*
X12000000Y-12000000D01*
D10*
D11*
X60000000Y-12000000D02*
X60000000Y-10000000D01*
D10*
D11*
X110000000Y-12000000D02*
X110000000Y-10000000D01*
D10*
D11*
X160000000Y-12000000D02*
X160000000Y-10000000D01*
D10*
D11*
X210000000Y-12000000D02*
X210000000Y-10000000D01*
D10*
D11*
X260000000Y-12000000D02*
X260000000Y-10000000D01*
D10*
D11*
X36089160Y-11593604D02*
X35346303Y-11593604D01*
X35717731Y-11593604D02*
X35717731Y-10293604D01*
X35717731Y-10293604D02*
X35593922Y-10479319D01*
X35593922Y-10479319D02*
X35470112Y-10603128D01*
X35470112Y-10603128D02*
X35346303Y-10665033D01*
D10*
D11*
X85346303Y-10417414D02*
X85408207Y-10355509D01*
X85408207Y-10355509D02*
X85532017Y-10293604D01*
X85532017Y-10293604D02*
X85841541Y-10293604D01*
X85841541Y-10293604D02*
X85965350Y-10355509D01*
X85965350Y-10355509D02*
X86027255Y-10417414D01*
X86027255Y-10417414D02*
X86089160Y-10541223D01*
X86089160Y-10541223D02*
X86089160Y-10665033D01*
X86089160Y-10665033D02*
X86027255Y-10850747D01*
X86027255Y-10850747D02*
X85284398Y-11593604D01*
X85284398Y-11593604D02*
X86089160Y-11593604D01*
D10*
D11*
X135284398Y-10293604D02*
X136089160Y-10293604D01*
X136089160Y-10293604D02*
X135655826Y-10788842D01*
X135655826Y-10788842D02*
X135841541Y-10788842D01*
X135841541Y-10788842D02*
X135965350Y-10850747D01*
X135965350Y-10850747D02*
X136027255Y-10912652D01*
X136027255Y-10912652D02*
X136089160Y-11036461D01*
X136089160Y-11036461D02*
X136089160Y-11345985D01*
X136089160Y-11345985D02*
X136027255Y-11469795D01*
X136027255Y-11469795D02*
X135965350Y-11531700D01*
X135965350Y-11531700D02*
X135841541Y-11593604D01*
X135841541Y-11593604D02*
X135470112Y-11593604D01*
X135470112Y-11593604D02*
X135346303Y-11531700D01*
X135346303Y-11531700D02*
X135284398Y-11469795D01*
D10*
D11*
X185965350Y-10726938D02*
X185965350Y-11593604D01*
X185655826Y-10231700D02*
X185346303Y-11160271D01*
X185346303Y-11160271D02*
X186151064Y-11160271D01*
D10*
D11*
X236027255Y-10293604D02*
X235408207Y-10293604D01*
X235408207Y-10293604D02*
X235346303Y-10912652D01*
X235346303Y-10912652D02*
X235408207Y-10850747D01*
X235408207Y-10850747D02*
X235532017Y-10788842D01*
X235532017Y-10788842D02*
X235841541Y-10788842D01*
X235841541Y-10788842D02*
X235965350Y-10850747D01*
X235965350Y-10850747D02*
X236027255Y-10912652D01*
X236027255Y-10912652D02*
X236089160Y-11036461D01*
X236089160Y-11036461D02*
X236089160Y-11345985D01*
X236089160Y-11345985D02*
X236027255Y-11469795D01*
X236027255Y-11469795D02*
X235965350Y-11531700D01*
X235965350Y-11531700D02*
X235841541Y-11593604D01*
X235841541Y-11593604D02*
X235532017Y-11593604D01*
X235532017Y-11593604D02*
X235408207Y-11531700D01*
X235408207Y-11531700D02*
X235346303Y-11469795D01*
D10*
D11*
X285965350Y-10293604D02*
X285717731Y-10293604D01*
X285717731Y-10293604D02*
X285593922Y-10355509D01*
X285593922Y-10355509D02*
X285532017Y-10417414D01*
X285532017Y-10417414D02*
X285408207Y-10603128D01*
X285408207Y-10603128D02*
X285346303Y-10850747D01*
X285346303Y-10850747D02*
X285346303Y-11345985D01*
X285346303Y-11345985D02*
X285408207Y-11469795D01*
X285408207Y-11469795D02*
X285470112Y-11531700D01*
X285470112Y-11531700D02*
X285593922Y-11593604D01*
X285593922Y-11593604D02*
X285841541Y-11593604D01*
X285841541Y-11593604D02*
X285965350Y-11531700D01*
X285965350Y-11531700D02*
X286027255Y-11469795D01*
X286027255Y-11469795D02*
X286089160Y-11345985D01*
X286089160Y-11345985D02*
X286089160Y-11036461D01*
X286089160Y-11036461D02*
X286027255Y-10912652D01*
X286027255Y-10912652D02*
X285965350Y-10850747D01*
X285965350Y-10850747D02*
X285841541Y-10788842D01*
X285841541Y-10788842D02*
X285593922Y-10788842D01*
X285593922Y-10788842D02*
X285470112Y-10850747D01*
X285470112Y-10850747D02*
X285408207Y-10912652D01*
X285408207Y-10912652D02*
X285346303Y-11036461D01*
D10*
D11*
X60000000Y-198007200D02*
X60000000Y-200007200D01*
D10*
D11*
X110000000Y-198007200D02*
X110000000Y-200007200D01*
D10*
D11*
X160000000Y-198007200D02*
X160000000Y-200007200D01*
D10*
D11*
X210000000Y-198007200D02*
X210000000Y-200007200D01*
D10*
D11*
X260000000Y-198007200D02*
X260000000Y-200007200D01*
D10*
D11*
X36089160Y-199600804D02*
X35346303Y-199600804D01*
X35717731Y-199600804D02*
X35717731Y-198300804D01*
X35717731Y-198300804D02*
X35593922Y-198486519D01*
X35593922Y-198486519D02*
X35470112Y-198610328D01*
X35470112Y-198610328D02*
X35346303Y-198672233D01*
D10*
D11*
X85346303Y-198424614D02*
X85408207Y-198362709D01*
X85408207Y-198362709D02*
X85532017Y-198300804D01*
X85532017Y-198300804D02*
X85841541Y-198300804D01*
X85841541Y-198300804D02*
X85965350Y-198362709D01*
X85965350Y-198362709D02*
X86027255Y-198424614D01*
X86027255Y-198424614D02*
X86089160Y-198548423D01*
X86089160Y-198548423D02*
X86089160Y-198672233D01*
X86089160Y-198672233D02*
X86027255Y-198857947D01*
X86027255Y-198857947D02*
X85284398Y-199600804D01*
X85284398Y-199600804D02*
X86089160Y-199600804D01*
D10*
D11*
X135284398Y-198300804D02*
X136089160Y-198300804D01*
X136089160Y-198300804D02*
X135655826Y-198796042D01*
X135655826Y-198796042D02*
X135841541Y-198796042D01*
X135841541Y-198796042D02*
X135965350Y-198857947D01*
X135965350Y-198857947D02*
X136027255Y-198919852D01*
X136027255Y-198919852D02*
X136089160Y-199043661D01*
X136089160Y-199043661D02*
X136089160Y-199353185D01*
X136089160Y-199353185D02*
X136027255Y-199476995D01*
X136027255Y-199476995D02*
X135965350Y-199538900D01*
X135965350Y-199538900D02*
X135841541Y-199600804D01*
X135841541Y-199600804D02*
X135470112Y-199600804D01*
X135470112Y-199600804D02*
X135346303Y-199538900D01*
X135346303Y-199538900D02*
X135284398Y-199476995D01*
D10*
D11*
X185965350Y-198734138D02*
X185965350Y-199600804D01*
X185655826Y-198238900D02*
X185346303Y-199167471D01*
X185346303Y-199167471D02*
X186151064Y-199167471D01*
D10*
D11*
X236027255Y-198300804D02*
X235408207Y-198300804D01*
X235408207Y-198300804D02*
X235346303Y-198919852D01*
X235346303Y-198919852D02*
X235408207Y-198857947D01*
X235408207Y-198857947D02*
X235532017Y-198796042D01*
X235532017Y-198796042D02*
X235841541Y-198796042D01*
X235841541Y-198796042D02*
X235965350Y-198857947D01*
X235965350Y-198857947D02*
X236027255Y-198919852D01*
X236027255Y-198919852D02*
X236089160Y-199043661D01*
X236089160Y-199043661D02*
X236089160Y-199353185D01*
X236089160Y-199353185D02*
X236027255Y-199476995D01*
X236027255Y-199476995D02*
X235965350Y-199538900D01*
X235965350Y-199538900D02*
X235841541Y-199600804D01*
X235841541Y-199600804D02*
X235532017Y-199600804D01*
X235532017Y-199600804D02*
X235408207Y-199538900D01*
X235408207Y-199538900D02*
X235346303Y-199476995D01*
D10*
D11*
X285965350Y-198300804D02*
X285717731Y-198300804D01*
X285717731Y-198300804D02*
X285593922Y-198362709D01*
X285593922Y-198362709D02*
X285532017Y-198424614D01*
X285532017Y-198424614D02*
X285408207Y-198610328D01*
X285408207Y-198610328D02*
X285346303Y-198857947D01*
X285346303Y-198857947D02*
X285346303Y-199353185D01*
X285346303Y-199353185D02*
X285408207Y-199476995D01*
X285408207Y-199476995D02*
X285470112Y-199538900D01*
X285470112Y-199538900D02*
X285593922Y-199600804D01*
X285593922Y-199600804D02*
X285841541Y-199600804D01*
X285841541Y-199600804D02*
X285965350Y-199538900D01*
X285965350Y-199538900D02*
X286027255Y-199476995D01*
X286027255Y-199476995D02*
X286089160Y-199353185D01*
X286089160Y-199353185D02*
X286089160Y-199043661D01*
X286089160Y-199043661D02*
X286027255Y-198919852D01*
X286027255Y-198919852D02*
X285965350Y-198857947D01*
X285965350Y-198857947D02*
X285841541Y-198796042D01*
X285841541Y-198796042D02*
X285593922Y-198796042D01*
X285593922Y-198796042D02*
X285470112Y-198857947D01*
X285470112Y-198857947D02*
X285408207Y-198919852D01*
X285408207Y-198919852D02*
X285346303Y-199043661D01*
D10*
D11*
X10000000Y-60000000D02*
X12000000Y-60000000D01*
D10*
D11*
X10000000Y-110000000D02*
X12000000Y-110000000D01*
D10*
D11*
X10000000Y-160000000D02*
X12000000Y-160000000D01*
D10*
D11*
X10690476Y-35222176D02*
X11309523Y-35222176D01*
X10566666Y-35593604D02*
X10999999Y-34293604D01*
X10999999Y-34293604D02*
X11433333Y-35593604D01*
D10*
D11*
X11092857Y-84912652D02*
X11278571Y-84974557D01*
X11278571Y-84974557D02*
X11340476Y-85036461D01*
X11340476Y-85036461D02*
X11402380Y-85160271D01*
X11402380Y-85160271D02*
X11402380Y-85345985D01*
X11402380Y-85345985D02*
X11340476Y-85469795D01*
X11340476Y-85469795D02*
X11278571Y-85531700D01*
X11278571Y-85531700D02*
X11154761Y-85593604D01*
X11154761Y-85593604D02*
X10659523Y-85593604D01*
X10659523Y-85593604D02*
X10659523Y-84293604D01*
X10659523Y-84293604D02*
X11092857Y-84293604D01*
X11092857Y-84293604D02*
X11216666Y-84355509D01*
X11216666Y-84355509D02*
X11278571Y-84417414D01*
X11278571Y-84417414D02*
X11340476Y-84541223D01*
X11340476Y-84541223D02*
X11340476Y-84665033D01*
X11340476Y-84665033D02*
X11278571Y-84788842D01*
X11278571Y-84788842D02*
X11216666Y-84850747D01*
X11216666Y-84850747D02*
X11092857Y-84912652D01*
X11092857Y-84912652D02*
X10659523Y-84912652D01*
D10*
D11*
X11402380Y-135469795D02*
X11340476Y-135531700D01*
X11340476Y-135531700D02*
X11154761Y-135593604D01*
X11154761Y-135593604D02*
X11030952Y-135593604D01*
X11030952Y-135593604D02*
X10845238Y-135531700D01*
X10845238Y-135531700D02*
X10721428Y-135407890D01*
X10721428Y-135407890D02*
X10659523Y-135284080D01*
X10659523Y-135284080D02*
X10597619Y-135036461D01*
X10597619Y-135036461D02*
X10597619Y-134850747D01*
X10597619Y-134850747D02*
X10659523Y-134603128D01*
X10659523Y-134603128D02*
X10721428Y-134479319D01*
X10721428Y-134479319D02*
X10845238Y-134355509D01*
X10845238Y-134355509D02*
X11030952Y-134293604D01*
X11030952Y-134293604D02*
X11154761Y-134293604D01*
X11154761Y-134293604D02*
X11340476Y-134355509D01*
X11340476Y-134355509D02*
X11402380Y-134417414D01*
D10*
D11*
X10659523Y-185593604D02*
X10659523Y-184293604D01*
X10659523Y-184293604D02*
X10969047Y-184293604D01*
X10969047Y-184293604D02*
X11154761Y-184355509D01*
X11154761Y-184355509D02*
X11278571Y-184479319D01*
X11278571Y-184479319D02*
X11340476Y-184603128D01*
X11340476Y-184603128D02*
X11402380Y-184850747D01*
X11402380Y-184850747D02*
X11402380Y-185036461D01*
X11402380Y-185036461D02*
X11340476Y-185284080D01*
X11340476Y-185284080D02*
X11278571Y-185407890D01*
X11278571Y-185407890D02*
X11154761Y-185531700D01*
X11154761Y-185531700D02*
X10969047Y-185593604D01*
X10969047Y-185593604D02*
X10659523Y-185593604D01*
D10*
D11*
X287002200Y-60000000D02*
X285002200Y-60000000D01*
D10*
D11*
X287002200Y-110000000D02*
X285002200Y-110000000D01*
D10*
D11*
X287002200Y-160000000D02*
X285002200Y-160000000D01*
D10*
D11*
X285692676Y-35222176D02*
X286311723Y-35222176D01*
X285568866Y-35593604D02*
X286002199Y-34293604D01*
X286002199Y-34293604D02*
X286435533Y-35593604D01*
D10*
D11*
X286095057Y-84912652D02*
X286280771Y-84974557D01*
X286280771Y-84974557D02*
X286342676Y-85036461D01*
X286342676Y-85036461D02*
X286404580Y-85160271D01*
X286404580Y-85160271D02*
X286404580Y-85345985D01*
X286404580Y-85345985D02*
X286342676Y-85469795D01*
X286342676Y-85469795D02*
X286280771Y-85531700D01*
X286280771Y-85531700D02*
X286156961Y-85593604D01*
X286156961Y-85593604D02*
X285661723Y-85593604D01*
X285661723Y-85593604D02*
X285661723Y-84293604D01*
X285661723Y-84293604D02*
X286095057Y-84293604D01*
X286095057Y-84293604D02*
X286218866Y-84355509D01*
X286218866Y-84355509D02*
X286280771Y-84417414D01*
X286280771Y-84417414D02*
X286342676Y-84541223D01*
X286342676Y-84541223D02*
X286342676Y-84665033D01*
X286342676Y-84665033D02*
X286280771Y-84788842D01*
X286280771Y-84788842D02*
X286218866Y-84850747D01*
X286218866Y-84850747D02*
X286095057Y-84912652D01*
X286095057Y-84912652D02*
X285661723Y-84912652D01*
D10*
D11*
X286404580Y-135469795D02*
X286342676Y-135531700D01*
X286342676Y-135531700D02*
X286156961Y-135593604D01*
X286156961Y-135593604D02*
X286033152Y-135593604D01*
X286033152Y-135593604D02*
X285847438Y-135531700D01*
X285847438Y-135531700D02*
X285723628Y-135407890D01*
X285723628Y-135407890D02*
X285661723Y-135284080D01*
X285661723Y-135284080D02*
X285599819Y-135036461D01*
X285599819Y-135036461D02*
X285599819Y-134850747D01*
X285599819Y-134850747D02*
X285661723Y-134603128D01*
X285661723Y-134603128D02*
X285723628Y-134479319D01*
X285723628Y-134479319D02*
X285847438Y-134355509D01*
X285847438Y-134355509D02*
X286033152Y-134293604D01*
X286033152Y-134293604D02*
X286156961Y-134293604D01*
X286156961Y-134293604D02*
X286342676Y-134355509D01*
X286342676Y-134355509D02*
X286404580Y-134417414D01*
D10*
D11*
X285661723Y-185593604D02*
X285661723Y-184293604D01*
X285661723Y-184293604D02*
X285971247Y-184293604D01*
X285971247Y-184293604D02*
X286156961Y-184355509D01*
X286156961Y-184355509D02*
X286280771Y-184479319D01*
X286280771Y-184479319D02*
X286342676Y-184603128D01*
X286342676Y-184603128D02*
X286404580Y-184850747D01*
X286404580Y-184850747D02*
X286404580Y-185036461D01*
X286404580Y-185036461D02*
X286342676Y-185284080D01*
X286342676Y-185284080D02*
X286280771Y-185407890D01*
X286280771Y-185407890D02*
X286156961Y-185531700D01*
X286156961Y-185531700D02*
X285971247Y-185593604D01*
X285971247Y-185593604D02*
X285661723Y-185593604D01*
D10*
D11*
X200458026Y-193793328D02*
X200458026Y-192293328D01*
X200458026Y-192293328D02*
X200815169Y-192293328D01*
X200815169Y-192293328D02*
X201029455Y-192364757D01*
X201029455Y-192364757D02*
X201172312Y-192507614D01*
X201172312Y-192507614D02*
X201243741Y-192650471D01*
X201243741Y-192650471D02*
X201315169Y-192936185D01*
X201315169Y-192936185D02*
X201315169Y-193150471D01*
X201315169Y-193150471D02*
X201243741Y-193436185D01*
X201243741Y-193436185D02*
X201172312Y-193579042D01*
X201172312Y-193579042D02*
X201029455Y-193721900D01*
X201029455Y-193721900D02*
X200815169Y-193793328D01*
X200815169Y-193793328D02*
X200458026Y-193793328D01*
X202600884Y-193793328D02*
X202600884Y-193007614D01*
X202600884Y-193007614D02*
X202529455Y-192864757D01*
X202529455Y-192864757D02*
X202386598Y-192793328D01*
X202386598Y-192793328D02*
X202100884Y-192793328D01*
X202100884Y-192793328D02*
X201958026Y-192864757D01*
X202600884Y-193721900D02*
X202458026Y-193793328D01*
X202458026Y-193793328D02*
X202100884Y-193793328D01*
X202100884Y-193793328D02*
X201958026Y-193721900D01*
X201958026Y-193721900D02*
X201886598Y-193579042D01*
X201886598Y-193579042D02*
X201886598Y-193436185D01*
X201886598Y-193436185D02*
X201958026Y-193293328D01*
X201958026Y-193293328D02*
X202100884Y-193221900D01*
X202100884Y-193221900D02*
X202458026Y-193221900D01*
X202458026Y-193221900D02*
X202600884Y-193150471D01*
X203100884Y-192793328D02*
X203672312Y-192793328D01*
X203315169Y-192293328D02*
X203315169Y-193579042D01*
X203315169Y-193579042D02*
X203386598Y-193721900D01*
X203386598Y-193721900D02*
X203529455Y-193793328D01*
X203529455Y-193793328D02*
X203672312Y-193793328D01*
X204743741Y-193721900D02*
X204600884Y-193793328D01*
X204600884Y-193793328D02*
X204315170Y-193793328D01*
X204315170Y-193793328D02*
X204172312Y-193721900D01*
X204172312Y-193721900D02*
X204100884Y-193579042D01*
X204100884Y-193579042D02*
X204100884Y-193007614D01*
X204100884Y-193007614D02*
X204172312Y-192864757D01*
X204172312Y-192864757D02*
X204315170Y-192793328D01*
X204315170Y-192793328D02*
X204600884Y-192793328D01*
X204600884Y-192793328D02*
X204743741Y-192864757D01*
X204743741Y-192864757D02*
X204815170Y-193007614D01*
X204815170Y-193007614D02*
X204815170Y-193150471D01*
X204815170Y-193150471D02*
X204100884Y-193293328D01*
X205458026Y-193650471D02*
X205529455Y-193721900D01*
X205529455Y-193721900D02*
X205458026Y-193793328D01*
X205458026Y-193793328D02*
X205386598Y-193721900D01*
X205386598Y-193721900D02*
X205458026Y-193650471D01*
X205458026Y-193650471D02*
X205458026Y-193793328D01*
X205458026Y-192864757D02*
X205529455Y-192936185D01*
X205529455Y-192936185D02*
X205458026Y-193007614D01*
X205458026Y-193007614D02*
X205386598Y-192936185D01*
X205386598Y-192936185D02*
X205458026Y-192864757D01*
X205458026Y-192864757D02*
X205458026Y-193007614D01*
X207243741Y-192436185D02*
X207315169Y-192364757D01*
X207315169Y-192364757D02*
X207458027Y-192293328D01*
X207458027Y-192293328D02*
X207815169Y-192293328D01*
X207815169Y-192293328D02*
X207958027Y-192364757D01*
X207958027Y-192364757D02*
X208029455Y-192436185D01*
X208029455Y-192436185D02*
X208100884Y-192579042D01*
X208100884Y-192579042D02*
X208100884Y-192721900D01*
X208100884Y-192721900D02*
X208029455Y-192936185D01*
X208029455Y-192936185D02*
X207172312Y-193793328D01*
X207172312Y-193793328D02*
X208100884Y-193793328D01*
X209029455Y-192293328D02*
X209172312Y-192293328D01*
X209172312Y-192293328D02*
X209315169Y-192364757D01*
X209315169Y-192364757D02*
X209386598Y-192436185D01*
X209386598Y-192436185D02*
X209458026Y-192579042D01*
X209458026Y-192579042D02*
X209529455Y-192864757D01*
X209529455Y-192864757D02*
X209529455Y-193221900D01*
X209529455Y-193221900D02*
X209458026Y-193507614D01*
X209458026Y-193507614D02*
X209386598Y-193650471D01*
X209386598Y-193650471D02*
X209315169Y-193721900D01*
X209315169Y-193721900D02*
X209172312Y-193793328D01*
X209172312Y-193793328D02*
X209029455Y-193793328D01*
X209029455Y-193793328D02*
X208886598Y-193721900D01*
X208886598Y-193721900D02*
X208815169Y-193650471D01*
X208815169Y-193650471D02*
X208743740Y-193507614D01*
X208743740Y-193507614D02*
X208672312Y-193221900D01*
X208672312Y-193221900D02*
X208672312Y-192864757D01*
X208672312Y-192864757D02*
X208743740Y-192579042D01*
X208743740Y-192579042D02*
X208815169Y-192436185D01*
X208815169Y-192436185D02*
X208886598Y-192364757D01*
X208886598Y-192364757D02*
X209029455Y-192293328D01*
X210100883Y-192436185D02*
X210172311Y-192364757D01*
X210172311Y-192364757D02*
X210315169Y-192293328D01*
X210315169Y-192293328D02*
X210672311Y-192293328D01*
X210672311Y-192293328D02*
X210815169Y-192364757D01*
X210815169Y-192364757D02*
X210886597Y-192436185D01*
X210886597Y-192436185D02*
X210958026Y-192579042D01*
X210958026Y-192579042D02*
X210958026Y-192721900D01*
X210958026Y-192721900D02*
X210886597Y-192936185D01*
X210886597Y-192936185D02*
X210029454Y-193793328D01*
X210029454Y-193793328D02*
X210958026Y-193793328D01*
X212243740Y-192793328D02*
X212243740Y-193793328D01*
X211886597Y-192221900D02*
X211529454Y-193293328D01*
X211529454Y-193293328D02*
X212458025Y-193293328D01*
X213029453Y-193221900D02*
X214172311Y-193221900D01*
X215172311Y-192293328D02*
X215315168Y-192293328D01*
X215315168Y-192293328D02*
X215458025Y-192364757D01*
X215458025Y-192364757D02*
X215529454Y-192436185D01*
X215529454Y-192436185D02*
X215600882Y-192579042D01*
X215600882Y-192579042D02*
X215672311Y-192864757D01*
X215672311Y-192864757D02*
X215672311Y-193221900D01*
X215672311Y-193221900D02*
X215600882Y-193507614D01*
X215600882Y-193507614D02*
X215529454Y-193650471D01*
X215529454Y-193650471D02*
X215458025Y-193721900D01*
X215458025Y-193721900D02*
X215315168Y-193793328D01*
X215315168Y-193793328D02*
X215172311Y-193793328D01*
X215172311Y-193793328D02*
X215029454Y-193721900D01*
X215029454Y-193721900D02*
X214958025Y-193650471D01*
X214958025Y-193650471D02*
X214886596Y-193507614D01*
X214886596Y-193507614D02*
X214815168Y-193221900D01*
X214815168Y-193221900D02*
X214815168Y-192864757D01*
X214815168Y-192864757D02*
X214886596Y-192579042D01*
X214886596Y-192579042D02*
X214958025Y-192436185D01*
X214958025Y-192436185D02*
X215029454Y-192364757D01*
X215029454Y-192364757D02*
X215172311Y-192293328D01*
X216243739Y-192436185D02*
X216315167Y-192364757D01*
X216315167Y-192364757D02*
X216458025Y-192293328D01*
X216458025Y-192293328D02*
X216815167Y-192293328D01*
X216815167Y-192293328D02*
X216958025Y-192364757D01*
X216958025Y-192364757D02*
X217029453Y-192436185D01*
X217029453Y-192436185D02*
X217100882Y-192579042D01*
X217100882Y-192579042D02*
X217100882Y-192721900D01*
X217100882Y-192721900D02*
X217029453Y-192936185D01*
X217029453Y-192936185D02*
X216172310Y-193793328D01*
X216172310Y-193793328D02*
X217100882Y-193793328D01*
X217743738Y-193221900D02*
X218886596Y-193221900D01*
X219529453Y-192436185D02*
X219600881Y-192364757D01*
X219600881Y-192364757D02*
X219743739Y-192293328D01*
X219743739Y-192293328D02*
X220100881Y-192293328D01*
X220100881Y-192293328D02*
X220243739Y-192364757D01*
X220243739Y-192364757D02*
X220315167Y-192436185D01*
X220315167Y-192436185D02*
X220386596Y-192579042D01*
X220386596Y-192579042D02*
X220386596Y-192721900D01*
X220386596Y-192721900D02*
X220315167Y-192936185D01*
X220315167Y-192936185D02*
X219458024Y-193793328D01*
X219458024Y-193793328D02*
X220386596Y-193793328D01*
X220958024Y-192436185D02*
X221029452Y-192364757D01*
X221029452Y-192364757D02*
X221172310Y-192293328D01*
X221172310Y-192293328D02*
X221529452Y-192293328D01*
X221529452Y-192293328D02*
X221672310Y-192364757D01*
X221672310Y-192364757D02*
X221743738Y-192436185D01*
X221743738Y-192436185D02*
X221815167Y-192579042D01*
X221815167Y-192579042D02*
X221815167Y-192721900D01*
X221815167Y-192721900D02*
X221743738Y-192936185D01*
X221743738Y-192936185D02*
X220886595Y-193793328D01*
X220886595Y-193793328D02*
X221815167Y-193793328D01*
D10*
D11*
X177002200Y-194507200D02*
X285002200Y-194507200D01*
D10*
D11*
X178458026Y-196593328D02*
X178458026Y-195093328D01*
X179315169Y-196593328D02*
X178672312Y-195736185D01*
X179315169Y-195093328D02*
X178458026Y-195950471D01*
X179958026Y-196593328D02*
X179958026Y-195593328D01*
X179958026Y-195093328D02*
X179886598Y-195164757D01*
X179886598Y-195164757D02*
X179958026Y-195236185D01*
X179958026Y-195236185D02*
X180029455Y-195164757D01*
X180029455Y-195164757D02*
X179958026Y-195093328D01*
X179958026Y-195093328D02*
X179958026Y-195236185D01*
X181529455Y-196450471D02*
X181458027Y-196521900D01*
X181458027Y-196521900D02*
X181243741Y-196593328D01*
X181243741Y-196593328D02*
X181100884Y-196593328D01*
X181100884Y-196593328D02*
X180886598Y-196521900D01*
X180886598Y-196521900D02*
X180743741Y-196379042D01*
X180743741Y-196379042D02*
X180672312Y-196236185D01*
X180672312Y-196236185D02*
X180600884Y-195950471D01*
X180600884Y-195950471D02*
X180600884Y-195736185D01*
X180600884Y-195736185D02*
X180672312Y-195450471D01*
X180672312Y-195450471D02*
X180743741Y-195307614D01*
X180743741Y-195307614D02*
X180886598Y-195164757D01*
X180886598Y-195164757D02*
X181100884Y-195093328D01*
X181100884Y-195093328D02*
X181243741Y-195093328D01*
X181243741Y-195093328D02*
X181458027Y-195164757D01*
X181458027Y-195164757D02*
X181529455Y-195236185D01*
X182815170Y-196593328D02*
X182815170Y-195807614D01*
X182815170Y-195807614D02*
X182743741Y-195664757D01*
X182743741Y-195664757D02*
X182600884Y-195593328D01*
X182600884Y-195593328D02*
X182315170Y-195593328D01*
X182315170Y-195593328D02*
X182172312Y-195664757D01*
X182815170Y-196521900D02*
X182672312Y-196593328D01*
X182672312Y-196593328D02*
X182315170Y-196593328D01*
X182315170Y-196593328D02*
X182172312Y-196521900D01*
X182172312Y-196521900D02*
X182100884Y-196379042D01*
X182100884Y-196379042D02*
X182100884Y-196236185D01*
X182100884Y-196236185D02*
X182172312Y-196093328D01*
X182172312Y-196093328D02*
X182315170Y-196021900D01*
X182315170Y-196021900D02*
X182672312Y-196021900D01*
X182672312Y-196021900D02*
X182815170Y-195950471D01*
X184172313Y-196593328D02*
X184172313Y-195093328D01*
X184172313Y-196521900D02*
X184029455Y-196593328D01*
X184029455Y-196593328D02*
X183743741Y-196593328D01*
X183743741Y-196593328D02*
X183600884Y-196521900D01*
X183600884Y-196521900D02*
X183529455Y-196450471D01*
X183529455Y-196450471D02*
X183458027Y-196307614D01*
X183458027Y-196307614D02*
X183458027Y-195879042D01*
X183458027Y-195879042D02*
X183529455Y-195736185D01*
X183529455Y-195736185D02*
X183600884Y-195664757D01*
X183600884Y-195664757D02*
X183743741Y-195593328D01*
X183743741Y-195593328D02*
X184029455Y-195593328D01*
X184029455Y-195593328D02*
X184172313Y-195664757D01*
X186029455Y-195807614D02*
X186529455Y-195807614D01*
X186743741Y-196593328D02*
X186029455Y-196593328D01*
X186029455Y-196593328D02*
X186029455Y-195093328D01*
X186029455Y-195093328D02*
X186743741Y-195093328D01*
X187386598Y-196450471D02*
X187458027Y-196521900D01*
X187458027Y-196521900D02*
X187386598Y-196593328D01*
X187386598Y-196593328D02*
X187315170Y-196521900D01*
X187315170Y-196521900D02*
X187386598Y-196450471D01*
X187386598Y-196450471D02*
X187386598Y-196593328D01*
X188100884Y-196593328D02*
X188100884Y-195093328D01*
X188100884Y-195093328D02*
X188458027Y-195093328D01*
X188458027Y-195093328D02*
X188672313Y-195164757D01*
X188672313Y-195164757D02*
X188815170Y-195307614D01*
X188815170Y-195307614D02*
X188886599Y-195450471D01*
X188886599Y-195450471D02*
X188958027Y-195736185D01*
X188958027Y-195736185D02*
X188958027Y-195950471D01*
X188958027Y-195950471D02*
X188886599Y-196236185D01*
X188886599Y-196236185D02*
X188815170Y-196379042D01*
X188815170Y-196379042D02*
X188672313Y-196521900D01*
X188672313Y-196521900D02*
X188458027Y-196593328D01*
X188458027Y-196593328D02*
X188100884Y-196593328D01*
X189600884Y-196450471D02*
X189672313Y-196521900D01*
X189672313Y-196521900D02*
X189600884Y-196593328D01*
X189600884Y-196593328D02*
X189529456Y-196521900D01*
X189529456Y-196521900D02*
X189600884Y-196450471D01*
X189600884Y-196450471D02*
X189600884Y-196593328D01*
X190243742Y-196164757D02*
X190958028Y-196164757D01*
X190100885Y-196593328D02*
X190600885Y-195093328D01*
X190600885Y-195093328D02*
X191100885Y-196593328D01*
X191600884Y-196450471D02*
X191672313Y-196521900D01*
X191672313Y-196521900D02*
X191600884Y-196593328D01*
X191600884Y-196593328D02*
X191529456Y-196521900D01*
X191529456Y-196521900D02*
X191600884Y-196450471D01*
X191600884Y-196450471D02*
X191600884Y-196593328D01*
X193672313Y-195736185D02*
X193529456Y-195664757D01*
X193529456Y-195664757D02*
X193458027Y-195593328D01*
X193458027Y-195593328D02*
X193386599Y-195450471D01*
X193386599Y-195450471D02*
X193386599Y-195379042D01*
X193386599Y-195379042D02*
X193458027Y-195236185D01*
X193458027Y-195236185D02*
X193529456Y-195164757D01*
X193529456Y-195164757D02*
X193672313Y-195093328D01*
X193672313Y-195093328D02*
X193958027Y-195093328D01*
X193958027Y-195093328D02*
X194100885Y-195164757D01*
X194100885Y-195164757D02*
X194172313Y-195236185D01*
X194172313Y-195236185D02*
X194243742Y-195379042D01*
X194243742Y-195379042D02*
X194243742Y-195450471D01*
X194243742Y-195450471D02*
X194172313Y-195593328D01*
X194172313Y-195593328D02*
X194100885Y-195664757D01*
X194100885Y-195664757D02*
X193958027Y-195736185D01*
X193958027Y-195736185D02*
X193672313Y-195736185D01*
X193672313Y-195736185D02*
X193529456Y-195807614D01*
X193529456Y-195807614D02*
X193458027Y-195879042D01*
X193458027Y-195879042D02*
X193386599Y-196021900D01*
X193386599Y-196021900D02*
X193386599Y-196307614D01*
X193386599Y-196307614D02*
X193458027Y-196450471D01*
X193458027Y-196450471D02*
X193529456Y-196521900D01*
X193529456Y-196521900D02*
X193672313Y-196593328D01*
X193672313Y-196593328D02*
X193958027Y-196593328D01*
X193958027Y-196593328D02*
X194100885Y-196521900D01*
X194100885Y-196521900D02*
X194172313Y-196450471D01*
X194172313Y-196450471D02*
X194243742Y-196307614D01*
X194243742Y-196307614D02*
X194243742Y-196021900D01*
X194243742Y-196021900D02*
X194172313Y-195879042D01*
X194172313Y-195879042D02*
X194100885Y-195807614D01*
X194100885Y-195807614D02*
X193958027Y-195736185D01*
X194886598Y-196450471D02*
X194958027Y-196521900D01*
X194958027Y-196521900D02*
X194886598Y-196593328D01*
X194886598Y-196593328D02*
X194815170Y-196521900D01*
X194815170Y-196521900D02*
X194886598Y-196450471D01*
X194886598Y-196450471D02*
X194886598Y-196593328D01*
X195886599Y-195093328D02*
X196029456Y-195093328D01*
X196029456Y-195093328D02*
X196172313Y-195164757D01*
X196172313Y-195164757D02*
X196243742Y-195236185D01*
X196243742Y-195236185D02*
X196315170Y-195379042D01*
X196315170Y-195379042D02*
X196386599Y-195664757D01*
X196386599Y-195664757D02*
X196386599Y-196021900D01*
X196386599Y-196021900D02*
X196315170Y-196307614D01*
X196315170Y-196307614D02*
X196243742Y-196450471D01*
X196243742Y-196450471D02*
X196172313Y-196521900D01*
X196172313Y-196521900D02*
X196029456Y-196593328D01*
X196029456Y-196593328D02*
X195886599Y-196593328D01*
X195886599Y-196593328D02*
X195743742Y-196521900D01*
X195743742Y-196521900D02*
X195672313Y-196450471D01*
X195672313Y-196450471D02*
X195600884Y-196307614D01*
X195600884Y-196307614D02*
X195529456Y-196021900D01*
X195529456Y-196021900D02*
X195529456Y-195664757D01*
X195529456Y-195664757D02*
X195600884Y-195379042D01*
X195600884Y-195379042D02*
X195672313Y-195236185D01*
X195672313Y-195236185D02*
X195743742Y-195164757D01*
X195743742Y-195164757D02*
X195886599Y-195093328D01*
X197029455Y-196450471D02*
X197100884Y-196521900D01*
X197100884Y-196521900D02*
X197029455Y-196593328D01*
X197029455Y-196593328D02*
X196958027Y-196521900D01*
X196958027Y-196521900D02*
X197029455Y-196450471D01*
X197029455Y-196450471D02*
X197029455Y-196593328D01*
X197600884Y-195093328D02*
X198529456Y-195093328D01*
X198529456Y-195093328D02*
X198029456Y-195664757D01*
X198029456Y-195664757D02*
X198243741Y-195664757D01*
X198243741Y-195664757D02*
X198386599Y-195736185D01*
X198386599Y-195736185D02*
X198458027Y-195807614D01*
X198458027Y-195807614D02*
X198529456Y-195950471D01*
X198529456Y-195950471D02*
X198529456Y-196307614D01*
X198529456Y-196307614D02*
X198458027Y-196450471D01*
X198458027Y-196450471D02*
X198386599Y-196521900D01*
X198386599Y-196521900D02*
X198243741Y-196593328D01*
X198243741Y-196593328D02*
X197815170Y-196593328D01*
X197815170Y-196593328D02*
X197672313Y-196521900D01*
X197672313Y-196521900D02*
X197600884Y-196450471D01*
D10*
D11*
X177002200Y-191507200D02*
X285002200Y-191507200D01*
D10*
D12*
X264413853Y-193785528D02*
X263913853Y-193071242D01*
X263556710Y-193785528D02*
X263556710Y-192285528D01*
X263556710Y-192285528D02*
X264128139Y-192285528D01*
X264128139Y-192285528D02*
X264270996Y-192356957D01*
X264270996Y-192356957D02*
X264342425Y-192428385D01*
X264342425Y-192428385D02*
X264413853Y-192571242D01*
X264413853Y-192571242D02*
X264413853Y-192785528D01*
X264413853Y-192785528D02*
X264342425Y-192928385D01*
X264342425Y-192928385D02*
X264270996Y-192999814D01*
X264270996Y-192999814D02*
X264128139Y-193071242D01*
X264128139Y-193071242D02*
X263556710Y-193071242D01*
X265628139Y-193714100D02*
X265485282Y-193785528D01*
X265485282Y-193785528D02*
X265199568Y-193785528D01*
X265199568Y-193785528D02*
X265056710Y-193714100D01*
X265056710Y-193714100D02*
X264985282Y-193571242D01*
X264985282Y-193571242D02*
X264985282Y-192999814D01*
X264985282Y-192999814D02*
X265056710Y-192856957D01*
X265056710Y-192856957D02*
X265199568Y-192785528D01*
X265199568Y-192785528D02*
X265485282Y-192785528D01*
X265485282Y-192785528D02*
X265628139Y-192856957D01*
X265628139Y-192856957D02*
X265699568Y-192999814D01*
X265699568Y-192999814D02*
X265699568Y-193142671D01*
X265699568Y-193142671D02*
X264985282Y-193285528D01*
X266199567Y-192785528D02*
X266556710Y-193785528D01*
X266556710Y-193785528D02*
X266913853Y-192785528D01*
X267485281Y-193642671D02*
X267556710Y-193714100D01*
X267556710Y-193714100D02*
X267485281Y-193785528D01*
X267485281Y-193785528D02*
X267413853Y-193714100D01*
X267413853Y-193714100D02*
X267485281Y-193642671D01*
X267485281Y-193642671D02*
X267485281Y-193785528D01*
X267485281Y-192856957D02*
X267556710Y-192928385D01*
X267556710Y-192928385D02*
X267485281Y-192999814D01*
X267485281Y-192999814D02*
X267413853Y-192928385D01*
X267413853Y-192928385D02*
X267485281Y-192856957D01*
X267485281Y-192856957D02*
X267485281Y-192999814D01*
X269199567Y-192285528D02*
X270128139Y-192285528D01*
X270128139Y-192285528D02*
X269628139Y-192856957D01*
X269628139Y-192856957D02*
X269842424Y-192856957D01*
X269842424Y-192856957D02*
X269985282Y-192928385D01*
X269985282Y-192928385D02*
X270056710Y-192999814D01*
X270056710Y-192999814D02*
X270128139Y-193142671D01*
X270128139Y-193142671D02*
X270128139Y-193499814D01*
X270128139Y-193499814D02*
X270056710Y-193642671D01*
X270056710Y-193642671D02*
X269985282Y-193714100D01*
X269985282Y-193714100D02*
X269842424Y-193785528D01*
X269842424Y-193785528D02*
X269413853Y-193785528D01*
X269413853Y-193785528D02*
X269270996Y-193714100D01*
X269270996Y-193714100D02*
X269199567Y-193642671D01*
D10*
D11*
X178386598Y-193721900D02*
X178600884Y-193793328D01*
X178600884Y-193793328D02*
X178958026Y-193793328D01*
X178958026Y-193793328D02*
X179100884Y-193721900D01*
X179100884Y-193721900D02*
X179172312Y-193650471D01*
X179172312Y-193650471D02*
X179243741Y-193507614D01*
X179243741Y-193507614D02*
X179243741Y-193364757D01*
X179243741Y-193364757D02*
X179172312Y-193221900D01*
X179172312Y-193221900D02*
X179100884Y-193150471D01*
X179100884Y-193150471D02*
X178958026Y-193079042D01*
X178958026Y-193079042D02*
X178672312Y-193007614D01*
X178672312Y-193007614D02*
X178529455Y-192936185D01*
X178529455Y-192936185D02*
X178458026Y-192864757D01*
X178458026Y-192864757D02*
X178386598Y-192721900D01*
X178386598Y-192721900D02*
X178386598Y-192579042D01*
X178386598Y-192579042D02*
X178458026Y-192436185D01*
X178458026Y-192436185D02*
X178529455Y-192364757D01*
X178529455Y-192364757D02*
X178672312Y-192293328D01*
X178672312Y-192293328D02*
X179029455Y-192293328D01*
X179029455Y-192293328D02*
X179243741Y-192364757D01*
X179886597Y-193793328D02*
X179886597Y-192793328D01*
X179886597Y-192293328D02*
X179815169Y-192364757D01*
X179815169Y-192364757D02*
X179886597Y-192436185D01*
X179886597Y-192436185D02*
X179958026Y-192364757D01*
X179958026Y-192364757D02*
X179886597Y-192293328D01*
X179886597Y-192293328D02*
X179886597Y-192436185D01*
X180458026Y-192793328D02*
X181243741Y-192793328D01*
X181243741Y-192793328D02*
X180458026Y-193793328D01*
X180458026Y-193793328D02*
X181243741Y-193793328D01*
X182386598Y-193721900D02*
X182243741Y-193793328D01*
X182243741Y-193793328D02*
X181958027Y-193793328D01*
X181958027Y-193793328D02*
X181815169Y-193721900D01*
X181815169Y-193721900D02*
X181743741Y-193579042D01*
X181743741Y-193579042D02*
X181743741Y-193007614D01*
X181743741Y-193007614D02*
X181815169Y-192864757D01*
X181815169Y-192864757D02*
X181958027Y-192793328D01*
X181958027Y-192793328D02*
X182243741Y-192793328D01*
X182243741Y-192793328D02*
X182386598Y-192864757D01*
X182386598Y-192864757D02*
X182458027Y-193007614D01*
X182458027Y-193007614D02*
X182458027Y-193150471D01*
X182458027Y-193150471D02*
X181743741Y-193293328D01*
X183100883Y-193650471D02*
X183172312Y-193721900D01*
X183172312Y-193721900D02*
X183100883Y-193793328D01*
X183100883Y-193793328D02*
X183029455Y-193721900D01*
X183029455Y-193721900D02*
X183100883Y-193650471D01*
X183100883Y-193650471D02*
X183100883Y-193793328D01*
X183100883Y-192864757D02*
X183172312Y-192936185D01*
X183172312Y-192936185D02*
X183100883Y-193007614D01*
X183100883Y-193007614D02*
X183029455Y-192936185D01*
X183029455Y-192936185D02*
X183100883Y-192864757D01*
X183100883Y-192864757D02*
X183100883Y-193007614D01*
X184886598Y-193364757D02*
X185600884Y-193364757D01*
X184743741Y-193793328D02*
X185243741Y-192293328D01*
X185243741Y-192293328D02*
X185743741Y-193793328D01*
X186886598Y-192793328D02*
X186886598Y-193793328D01*
X186529455Y-192221900D02*
X186172312Y-193293328D01*
X186172312Y-193293328D02*
X187100883Y-193293328D01*
D10*
D11*
X263458026Y-196593328D02*
X263458026Y-195093328D01*
X264815170Y-196593328D02*
X264815170Y-195093328D01*
X264815170Y-196521900D02*
X264672312Y-196593328D01*
X264672312Y-196593328D02*
X264386598Y-196593328D01*
X264386598Y-196593328D02*
X264243741Y-196521900D01*
X264243741Y-196521900D02*
X264172312Y-196450471D01*
X264172312Y-196450471D02*
X264100884Y-196307614D01*
X264100884Y-196307614D02*
X264100884Y-195879042D01*
X264100884Y-195879042D02*
X264172312Y-195736185D01*
X264172312Y-195736185D02*
X264243741Y-195664757D01*
X264243741Y-195664757D02*
X264386598Y-195593328D01*
X264386598Y-195593328D02*
X264672312Y-195593328D01*
X264672312Y-195593328D02*
X264815170Y-195664757D01*
X265529455Y-196450471D02*
X265600884Y-196521900D01*
X265600884Y-196521900D02*
X265529455Y-196593328D01*
X265529455Y-196593328D02*
X265458027Y-196521900D01*
X265458027Y-196521900D02*
X265529455Y-196450471D01*
X265529455Y-196450471D02*
X265529455Y-196593328D01*
X265529455Y-195664757D02*
X265600884Y-195736185D01*
X265600884Y-195736185D02*
X265529455Y-195807614D01*
X265529455Y-195807614D02*
X265458027Y-195736185D01*
X265458027Y-195736185D02*
X265529455Y-195664757D01*
X265529455Y-195664757D02*
X265529455Y-195807614D01*
X268172313Y-196593328D02*
X267315170Y-196593328D01*
X267743741Y-196593328D02*
X267743741Y-195093328D01*
X267743741Y-195093328D02*
X267600884Y-195307614D01*
X267600884Y-195307614D02*
X267458027Y-195450471D01*
X267458027Y-195450471D02*
X267315170Y-195521900D01*
X269886598Y-195021900D02*
X268600884Y-196950471D01*
X271172313Y-196593328D02*
X270315170Y-196593328D01*
X270743741Y-196593328D02*
X270743741Y-195093328D01*
X270743741Y-195093328D02*
X270600884Y-195307614D01*
X270600884Y-195307614D02*
X270458027Y-195450471D01*
X270458027Y-195450471D02*
X270315170Y-195521900D01*
D10*
D11*
X177002200Y-187507200D02*
X285002200Y-187507200D01*
D10*
D13*
X178693928Y-188211638D02*
X179836785Y-188211638D01*
X179015357Y-190211638D02*
X179265357Y-188211638D01*
X180253452Y-190211638D02*
X180420119Y-188878304D01*
X180503452Y-188211638D02*
X180396309Y-188306876D01*
X180396309Y-188306876D02*
X180479643Y-188402114D01*
X180479643Y-188402114D02*
X180586786Y-188306876D01*
X180586786Y-188306876D02*
X180503452Y-188211638D01*
X180503452Y-188211638D02*
X180479643Y-188402114D01*
X181086786Y-188878304D02*
X181848690Y-188878304D01*
X181455833Y-188211638D02*
X181241548Y-189925923D01*
X181241548Y-189925923D02*
X181312976Y-190116400D01*
X181312976Y-190116400D02*
X181491548Y-190211638D01*
X181491548Y-190211638D02*
X181682024Y-190211638D01*
X182634405Y-190211638D02*
X182455833Y-190116400D01*
X182455833Y-190116400D02*
X182384405Y-189925923D01*
X182384405Y-189925923D02*
X182598690Y-188211638D01*
X184170119Y-190116400D02*
X183967738Y-190211638D01*
X183967738Y-190211638D02*
X183586785Y-190211638D01*
X183586785Y-190211638D02*
X183408214Y-190116400D01*
X183408214Y-190116400D02*
X183336785Y-189925923D01*
X183336785Y-189925923D02*
X183432024Y-189164019D01*
X183432024Y-189164019D02*
X183551071Y-188973542D01*
X183551071Y-188973542D02*
X183753452Y-188878304D01*
X183753452Y-188878304D02*
X184134404Y-188878304D01*
X184134404Y-188878304D02*
X184312976Y-188973542D01*
X184312976Y-188973542D02*
X184384404Y-189164019D01*
X184384404Y-189164019D02*
X184360595Y-189354495D01*
X184360595Y-189354495D02*
X183384404Y-189544971D01*
X185134405Y-190021161D02*
X185217738Y-190116400D01*
X185217738Y-190116400D02*
X185110595Y-190211638D01*
X185110595Y-190211638D02*
X185027262Y-190116400D01*
X185027262Y-190116400D02*
X185134405Y-190021161D01*
X185134405Y-190021161D02*
X185110595Y-190211638D01*
X185265357Y-188973542D02*
X185348690Y-189068780D01*
X185348690Y-189068780D02*
X185241548Y-189164019D01*
X185241548Y-189164019D02*
X185158214Y-189068780D01*
X185158214Y-189068780D02*
X185265357Y-188973542D01*
X185265357Y-188973542D02*
X185241548Y-189164019D01*
X187586786Y-190211638D02*
X187836786Y-188211638D01*
X187836786Y-188211638D02*
X188324881Y-189640209D01*
X188324881Y-189640209D02*
X189170120Y-188211638D01*
X189170120Y-188211638D02*
X188920120Y-190211638D01*
X190646310Y-190116400D02*
X190443929Y-190211638D01*
X190443929Y-190211638D02*
X190062976Y-190211638D01*
X190062976Y-190211638D02*
X189884405Y-190116400D01*
X189884405Y-190116400D02*
X189812976Y-189925923D01*
X189812976Y-189925923D02*
X189908215Y-189164019D01*
X189908215Y-189164019D02*
X190027262Y-188973542D01*
X190027262Y-188973542D02*
X190229643Y-188878304D01*
X190229643Y-188878304D02*
X190610595Y-188878304D01*
X190610595Y-188878304D02*
X190789167Y-188973542D01*
X190789167Y-188973542D02*
X190860595Y-189164019D01*
X190860595Y-189164019D02*
X190836786Y-189354495D01*
X190836786Y-189354495D02*
X189860595Y-189544971D01*
X191467739Y-188878304D02*
X192229643Y-188878304D01*
X191836786Y-188211638D02*
X191622501Y-189925923D01*
X191622501Y-189925923D02*
X191693929Y-190116400D01*
X191693929Y-190116400D02*
X191872501Y-190211638D01*
X191872501Y-190211638D02*
X192062977Y-190211638D01*
X192729643Y-190211638D02*
X192896310Y-188878304D01*
X192848691Y-189259257D02*
X192967738Y-189068780D01*
X192967738Y-189068780D02*
X193074881Y-188973542D01*
X193074881Y-188973542D02*
X193277262Y-188878304D01*
X193277262Y-188878304D02*
X193467738Y-188878304D01*
X194253453Y-190211638D02*
X194074881Y-190116400D01*
X194074881Y-190116400D02*
X193991548Y-190021161D01*
X193991548Y-190021161D02*
X193920119Y-189830685D01*
X193920119Y-189830685D02*
X193991548Y-189259257D01*
X193991548Y-189259257D02*
X194110595Y-189068780D01*
X194110595Y-189068780D02*
X194217738Y-188973542D01*
X194217738Y-188973542D02*
X194420119Y-188878304D01*
X194420119Y-188878304D02*
X194705833Y-188878304D01*
X194705833Y-188878304D02*
X194884405Y-188973542D01*
X194884405Y-188973542D02*
X194967738Y-189068780D01*
X194967738Y-189068780D02*
X195039167Y-189259257D01*
X195039167Y-189259257D02*
X194967738Y-189830685D01*
X194967738Y-189830685D02*
X194848691Y-190021161D01*
X194848691Y-190021161D02*
X194741548Y-190116400D01*
X194741548Y-190116400D02*
X194539167Y-190211638D01*
X194539167Y-190211638D02*
X194253453Y-190211638D01*
X196646310Y-190116400D02*
X196443929Y-190211638D01*
X196443929Y-190211638D02*
X196062977Y-190211638D01*
X196062977Y-190211638D02*
X195884405Y-190116400D01*
X195884405Y-190116400D02*
X195801072Y-190021161D01*
X195801072Y-190021161D02*
X195729643Y-189830685D01*
X195729643Y-189830685D02*
X195801072Y-189259257D01*
X195801072Y-189259257D02*
X195920119Y-189068780D01*
X195920119Y-189068780D02*
X196027262Y-188973542D01*
X196027262Y-188973542D02*
X196229643Y-188878304D01*
X196229643Y-188878304D02*
X196610596Y-188878304D01*
X196610596Y-188878304D02*
X196789167Y-188973542D01*
X197491548Y-190211638D02*
X197741548Y-188211638D01*
X197777263Y-189449733D02*
X198253453Y-190211638D01*
X198420120Y-188878304D02*
X197562977Y-189640209D01*
X199884406Y-190116400D02*
X199682025Y-190211638D01*
X199682025Y-190211638D02*
X199301072Y-190211638D01*
X199301072Y-190211638D02*
X199122501Y-190116400D01*
X199122501Y-190116400D02*
X199051072Y-189925923D01*
X199051072Y-189925923D02*
X199146311Y-189164019D01*
X199146311Y-189164019D02*
X199265358Y-188973542D01*
X199265358Y-188973542D02*
X199467739Y-188878304D01*
X199467739Y-188878304D02*
X199848691Y-188878304D01*
X199848691Y-188878304D02*
X200027263Y-188973542D01*
X200027263Y-188973542D02*
X200098691Y-189164019D01*
X200098691Y-189164019D02*
X200074882Y-189354495D01*
X200074882Y-189354495D02*
X199098691Y-189544971D01*
X200705835Y-188878304D02*
X201467739Y-188878304D01*
X201074882Y-188211638D02*
X200860597Y-189925923D01*
X200860597Y-189925923D02*
X200932025Y-190116400D01*
X200932025Y-190116400D02*
X201110597Y-190211638D01*
X201110597Y-190211638D02*
X201301073Y-190211638D01*
X201967739Y-190211638D02*
X202134406Y-188878304D01*
X202086787Y-189259257D02*
X202205834Y-189068780D01*
X202205834Y-189068780D02*
X202312977Y-188973542D01*
X202312977Y-188973542D02*
X202515358Y-188878304D01*
X202515358Y-188878304D02*
X202705834Y-188878304D01*
X203182025Y-188878304D02*
X203491549Y-190211638D01*
X204134406Y-188878304D02*
X203491549Y-190211638D01*
X203491549Y-190211638D02*
X203241549Y-190687828D01*
X203241549Y-190687828D02*
X203134406Y-190783066D01*
X203134406Y-190783066D02*
X202932025Y-190878304D01*
X206253454Y-190211638D02*
X206503454Y-188211638D01*
X206503454Y-188211638D02*
X207265359Y-188211638D01*
X207265359Y-188211638D02*
X207443930Y-188306876D01*
X207443930Y-188306876D02*
X207527264Y-188402114D01*
X207527264Y-188402114D02*
X207598692Y-188592590D01*
X207598692Y-188592590D02*
X207562978Y-188878304D01*
X207562978Y-188878304D02*
X207443930Y-189068780D01*
X207443930Y-189068780D02*
X207336788Y-189164019D01*
X207336788Y-189164019D02*
X207134407Y-189259257D01*
X207134407Y-189259257D02*
X206372502Y-189259257D01*
X209420121Y-190021161D02*
X209312978Y-190116400D01*
X209312978Y-190116400D02*
X209015359Y-190211638D01*
X209015359Y-190211638D02*
X208824883Y-190211638D01*
X208824883Y-190211638D02*
X208551073Y-190116400D01*
X208551073Y-190116400D02*
X208384407Y-189925923D01*
X208384407Y-189925923D02*
X208312978Y-189735447D01*
X208312978Y-189735447D02*
X208265359Y-189354495D01*
X208265359Y-189354495D02*
X208301073Y-189068780D01*
X208301073Y-189068780D02*
X208443930Y-188687828D01*
X208443930Y-188687828D02*
X208562978Y-188497352D01*
X208562978Y-188497352D02*
X208777264Y-188306876D01*
X208777264Y-188306876D02*
X209074883Y-188211638D01*
X209074883Y-188211638D02*
X209265359Y-188211638D01*
X209265359Y-188211638D02*
X209539169Y-188306876D01*
X209539169Y-188306876D02*
X209622502Y-188402114D01*
X211051073Y-189164019D02*
X211324883Y-189259257D01*
X211324883Y-189259257D02*
X211408216Y-189354495D01*
X211408216Y-189354495D02*
X211479645Y-189544971D01*
X211479645Y-189544971D02*
X211443930Y-189830685D01*
X211443930Y-189830685D02*
X211324883Y-190021161D01*
X211324883Y-190021161D02*
X211217740Y-190116400D01*
X211217740Y-190116400D02*
X211015359Y-190211638D01*
X211015359Y-190211638D02*
X210253454Y-190211638D01*
X210253454Y-190211638D02*
X210503454Y-188211638D01*
X210503454Y-188211638D02*
X211170121Y-188211638D01*
X211170121Y-188211638D02*
X211348692Y-188306876D01*
X211348692Y-188306876D02*
X211432026Y-188402114D01*
X211432026Y-188402114D02*
X211503454Y-188592590D01*
X211503454Y-188592590D02*
X211479645Y-188783066D01*
X211479645Y-188783066D02*
X211360597Y-188973542D01*
X211360597Y-188973542D02*
X211253454Y-189068780D01*
X211253454Y-189068780D02*
X211051073Y-189164019D01*
X211051073Y-189164019D02*
X210384407Y-189164019D01*
D10*
D11*
X178958026Y-185607614D02*
X178458026Y-185607614D01*
X178458026Y-186393328D02*
X178458026Y-184893328D01*
X178458026Y-184893328D02*
X179172312Y-184893328D01*
X179743740Y-186393328D02*
X179743740Y-185393328D01*
X179743740Y-184893328D02*
X179672312Y-184964757D01*
X179672312Y-184964757D02*
X179743740Y-185036185D01*
X179743740Y-185036185D02*
X179815169Y-184964757D01*
X179815169Y-184964757D02*
X179743740Y-184893328D01*
X179743740Y-184893328D02*
X179743740Y-185036185D01*
X180672312Y-186393328D02*
X180529455Y-186321900D01*
X180529455Y-186321900D02*
X180458026Y-186179042D01*
X180458026Y-186179042D02*
X180458026Y-184893328D01*
X181815169Y-186321900D02*
X181672312Y-186393328D01*
X181672312Y-186393328D02*
X181386598Y-186393328D01*
X181386598Y-186393328D02*
X181243740Y-186321900D01*
X181243740Y-186321900D02*
X181172312Y-186179042D01*
X181172312Y-186179042D02*
X181172312Y-185607614D01*
X181172312Y-185607614D02*
X181243740Y-185464757D01*
X181243740Y-185464757D02*
X181386598Y-185393328D01*
X181386598Y-185393328D02*
X181672312Y-185393328D01*
X181672312Y-185393328D02*
X181815169Y-185464757D01*
X181815169Y-185464757D02*
X181886598Y-185607614D01*
X181886598Y-185607614D02*
X181886598Y-185750471D01*
X181886598Y-185750471D02*
X181172312Y-185893328D01*
X182529454Y-186250471D02*
X182600883Y-186321900D01*
X182600883Y-186321900D02*
X182529454Y-186393328D01*
X182529454Y-186393328D02*
X182458026Y-186321900D01*
X182458026Y-186321900D02*
X182529454Y-186250471D01*
X182529454Y-186250471D02*
X182529454Y-186393328D01*
X182529454Y-185464757D02*
X182600883Y-185536185D01*
X182600883Y-185536185D02*
X182529454Y-185607614D01*
X182529454Y-185607614D02*
X182458026Y-185536185D01*
X182458026Y-185536185D02*
X182529454Y-185464757D01*
X182529454Y-185464757D02*
X182529454Y-185607614D01*
X184386597Y-186393328D02*
X184386597Y-185393328D01*
X184386597Y-185679042D02*
X184458026Y-185536185D01*
X184458026Y-185536185D02*
X184529455Y-185464757D01*
X184529455Y-185464757D02*
X184672312Y-185393328D01*
X184672312Y-185393328D02*
X184815169Y-185393328D01*
X185315168Y-186393328D02*
X185315168Y-185393328D01*
X185315168Y-185679042D02*
X185386597Y-185536185D01*
X185386597Y-185536185D02*
X185458026Y-185464757D01*
X185458026Y-185464757D02*
X185600883Y-185393328D01*
X185600883Y-185393328D02*
X185743740Y-185393328D01*
X186886597Y-186321900D02*
X186743739Y-186393328D01*
X186743739Y-186393328D02*
X186458025Y-186393328D01*
X186458025Y-186393328D02*
X186315168Y-186321900D01*
X186315168Y-186321900D02*
X186243739Y-186250471D01*
X186243739Y-186250471D02*
X186172311Y-186107614D01*
X186172311Y-186107614D02*
X186172311Y-185679042D01*
X186172311Y-185679042D02*
X186243739Y-185536185D01*
X186243739Y-185536185D02*
X186315168Y-185464757D01*
X186315168Y-185464757D02*
X186458025Y-185393328D01*
X186458025Y-185393328D02*
X186743739Y-185393328D01*
X186743739Y-185393328D02*
X186886597Y-185464757D01*
X187172311Y-186536185D02*
X188315168Y-186536185D01*
X188672310Y-185393328D02*
X188672310Y-186893328D01*
X188672310Y-185464757D02*
X188815168Y-185393328D01*
X188815168Y-185393328D02*
X189100882Y-185393328D01*
X189100882Y-185393328D02*
X189243739Y-185464757D01*
X189243739Y-185464757D02*
X189315168Y-185536185D01*
X189315168Y-185536185D02*
X189386596Y-185679042D01*
X189386596Y-185679042D02*
X189386596Y-186107614D01*
X189386596Y-186107614D02*
X189315168Y-186250471D01*
X189315168Y-186250471D02*
X189243739Y-186321900D01*
X189243739Y-186321900D02*
X189100882Y-186393328D01*
X189100882Y-186393328D02*
X188815168Y-186393328D01*
X188815168Y-186393328D02*
X188672310Y-186321900D01*
X190672311Y-186321900D02*
X190529453Y-186393328D01*
X190529453Y-186393328D02*
X190243739Y-186393328D01*
X190243739Y-186393328D02*
X190100882Y-186321900D01*
X190100882Y-186321900D02*
X190029453Y-186250471D01*
X190029453Y-186250471D02*
X189958025Y-186107614D01*
X189958025Y-186107614D02*
X189958025Y-185679042D01*
X189958025Y-185679042D02*
X190029453Y-185536185D01*
X190029453Y-185536185D02*
X190100882Y-185464757D01*
X190100882Y-185464757D02*
X190243739Y-185393328D01*
X190243739Y-185393328D02*
X190529453Y-185393328D01*
X190529453Y-185393328D02*
X190672311Y-185464757D01*
X191315167Y-186393328D02*
X191315167Y-184893328D01*
X191315167Y-185464757D02*
X191458025Y-185393328D01*
X191458025Y-185393328D02*
X191743739Y-185393328D01*
X191743739Y-185393328D02*
X191886596Y-185464757D01*
X191886596Y-185464757D02*
X191958025Y-185536185D01*
X191958025Y-185536185D02*
X192029453Y-185679042D01*
X192029453Y-185679042D02*
X192029453Y-186107614D01*
X192029453Y-186107614D02*
X191958025Y-186250471D01*
X191958025Y-186250471D02*
X191886596Y-186321900D01*
X191886596Y-186321900D02*
X191743739Y-186393328D01*
X191743739Y-186393328D02*
X191458025Y-186393328D01*
X191458025Y-186393328D02*
X191315167Y-186321900D01*
X192600882Y-185036185D02*
X192672310Y-184964757D01*
X192672310Y-184964757D02*
X192815168Y-184893328D01*
X192815168Y-184893328D02*
X193172310Y-184893328D01*
X193172310Y-184893328D02*
X193315168Y-184964757D01*
X193315168Y-184964757D02*
X193386596Y-185036185D01*
X193386596Y-185036185D02*
X193458025Y-185179042D01*
X193458025Y-185179042D02*
X193458025Y-185321900D01*
X193458025Y-185321900D02*
X193386596Y-185536185D01*
X193386596Y-185536185D02*
X192529453Y-186393328D01*
X192529453Y-186393328D02*
X193458025Y-186393328D01*
X194100881Y-186250471D02*
X194172310Y-186321900D01*
X194172310Y-186321900D02*
X194100881Y-186393328D01*
X194100881Y-186393328D02*
X194029453Y-186321900D01*
X194029453Y-186321900D02*
X194100881Y-186250471D01*
X194100881Y-186250471D02*
X194100881Y-186393328D01*
X194815167Y-186393328D02*
X194815167Y-184893328D01*
X194958025Y-185821900D02*
X195386596Y-186393328D01*
X195386596Y-185393328D02*
X194815167Y-185964757D01*
X196029453Y-186393328D02*
X196029453Y-185393328D01*
X196029453Y-184893328D02*
X195958025Y-184964757D01*
X195958025Y-184964757D02*
X196029453Y-185036185D01*
X196029453Y-185036185D02*
X196100882Y-184964757D01*
X196100882Y-184964757D02*
X196029453Y-184893328D01*
X196029453Y-184893328D02*
X196029453Y-185036185D01*
X197386597Y-186321900D02*
X197243739Y-186393328D01*
X197243739Y-186393328D02*
X196958025Y-186393328D01*
X196958025Y-186393328D02*
X196815168Y-186321900D01*
X196815168Y-186321900D02*
X196743739Y-186250471D01*
X196743739Y-186250471D02*
X196672311Y-186107614D01*
X196672311Y-186107614D02*
X196672311Y-185679042D01*
X196672311Y-185679042D02*
X196743739Y-185536185D01*
X196743739Y-185536185D02*
X196815168Y-185464757D01*
X196815168Y-185464757D02*
X196958025Y-185393328D01*
X196958025Y-185393328D02*
X197243739Y-185393328D01*
X197243739Y-185393328D02*
X197386597Y-185464757D01*
X198672311Y-186393328D02*
X198672311Y-185607614D01*
X198672311Y-185607614D02*
X198600882Y-185464757D01*
X198600882Y-185464757D02*
X198458025Y-185393328D01*
X198458025Y-185393328D02*
X198172311Y-185393328D01*
X198172311Y-185393328D02*
X198029453Y-185464757D01*
X198672311Y-186321900D02*
X198529453Y-186393328D01*
X198529453Y-186393328D02*
X198172311Y-186393328D01*
X198172311Y-186393328D02*
X198029453Y-186321900D01*
X198029453Y-186321900D02*
X197958025Y-186179042D01*
X197958025Y-186179042D02*
X197958025Y-186036185D01*
X197958025Y-186036185D02*
X198029453Y-185893328D01*
X198029453Y-185893328D02*
X198172311Y-185821900D01*
X198172311Y-185821900D02*
X198529453Y-185821900D01*
X198529453Y-185821900D02*
X198672311Y-185750471D01*
X200029454Y-186393328D02*
X200029454Y-184893328D01*
X200029454Y-186321900D02*
X199886596Y-186393328D01*
X199886596Y-186393328D02*
X199600882Y-186393328D01*
X199600882Y-186393328D02*
X199458025Y-186321900D01*
X199458025Y-186321900D02*
X199386596Y-186250471D01*
X199386596Y-186250471D02*
X199315168Y-186107614D01*
X199315168Y-186107614D02*
X199315168Y-185679042D01*
X199315168Y-185679042D02*
X199386596Y-185536185D01*
X199386596Y-185536185D02*
X199458025Y-185464757D01*
X199458025Y-185464757D02*
X199600882Y-185393328D01*
X199600882Y-185393328D02*
X199886596Y-185393328D01*
X199886596Y-185393328D02*
X200029454Y-185464757D01*
X200386597Y-186536185D02*
X201529454Y-186536185D01*
X201886596Y-185393328D02*
X201886596Y-186893328D01*
X201886596Y-185464757D02*
X202029454Y-185393328D01*
X202029454Y-185393328D02*
X202315168Y-185393328D01*
X202315168Y-185393328D02*
X202458025Y-185464757D01*
X202458025Y-185464757D02*
X202529454Y-185536185D01*
X202529454Y-185536185D02*
X202600882Y-185679042D01*
X202600882Y-185679042D02*
X202600882Y-186107614D01*
X202600882Y-186107614D02*
X202529454Y-186250471D01*
X202529454Y-186250471D02*
X202458025Y-186321900D01*
X202458025Y-186321900D02*
X202315168Y-186393328D01*
X202315168Y-186393328D02*
X202029454Y-186393328D01*
X202029454Y-186393328D02*
X201886596Y-186321900D01*
X203886597Y-186321900D02*
X203743739Y-186393328D01*
X203743739Y-186393328D02*
X203458025Y-186393328D01*
X203458025Y-186393328D02*
X203315168Y-186321900D01*
X203315168Y-186321900D02*
X203243739Y-186250471D01*
X203243739Y-186250471D02*
X203172311Y-186107614D01*
X203172311Y-186107614D02*
X203172311Y-185679042D01*
X203172311Y-185679042D02*
X203243739Y-185536185D01*
X203243739Y-185536185D02*
X203315168Y-185464757D01*
X203315168Y-185464757D02*
X203458025Y-185393328D01*
X203458025Y-185393328D02*
X203743739Y-185393328D01*
X203743739Y-185393328D02*
X203886597Y-185464757D01*
X204529453Y-186393328D02*
X204529453Y-184893328D01*
X204529453Y-185464757D02*
X204672311Y-185393328D01*
X204672311Y-185393328D02*
X204958025Y-185393328D01*
X204958025Y-185393328D02*
X205100882Y-185464757D01*
X205100882Y-185464757D02*
X205172311Y-185536185D01*
X205172311Y-185536185D02*
X205243739Y-185679042D01*
X205243739Y-185679042D02*
X205243739Y-186107614D01*
X205243739Y-186107614D02*
X205172311Y-186250471D01*
X205172311Y-186250471D02*
X205100882Y-186321900D01*
X205100882Y-186321900D02*
X204958025Y-186393328D01*
X204958025Y-186393328D02*
X204672311Y-186393328D01*
X204672311Y-186393328D02*
X204529453Y-186321900D01*
D10*
D11*
X177002200Y-181507200D02*
X285002200Y-181507200D01*
D10*
D11*
X178386598Y-183621900D02*
X178600884Y-183693328D01*
X178600884Y-183693328D02*
X178958026Y-183693328D01*
X178958026Y-183693328D02*
X179100884Y-183621900D01*
X179100884Y-183621900D02*
X179172312Y-183550471D01*
X179172312Y-183550471D02*
X179243741Y-183407614D01*
X179243741Y-183407614D02*
X179243741Y-183264757D01*
X179243741Y-183264757D02*
X179172312Y-183121900D01*
X179172312Y-183121900D02*
X179100884Y-183050471D01*
X179100884Y-183050471D02*
X178958026Y-182979042D01*
X178958026Y-182979042D02*
X178672312Y-182907614D01*
X178672312Y-182907614D02*
X178529455Y-182836185D01*
X178529455Y-182836185D02*
X178458026Y-182764757D01*
X178458026Y-182764757D02*
X178386598Y-182621900D01*
X178386598Y-182621900D02*
X178386598Y-182479042D01*
X178386598Y-182479042D02*
X178458026Y-182336185D01*
X178458026Y-182336185D02*
X178529455Y-182264757D01*
X178529455Y-182264757D02*
X178672312Y-182193328D01*
X178672312Y-182193328D02*
X179029455Y-182193328D01*
X179029455Y-182193328D02*
X179243741Y-182264757D01*
X179886597Y-183693328D02*
X179886597Y-182193328D01*
X180529455Y-183693328D02*
X180529455Y-182907614D01*
X180529455Y-182907614D02*
X180458026Y-182764757D01*
X180458026Y-182764757D02*
X180315169Y-182693328D01*
X180315169Y-182693328D02*
X180100883Y-182693328D01*
X180100883Y-182693328D02*
X179958026Y-182764757D01*
X179958026Y-182764757D02*
X179886597Y-182836185D01*
X181815169Y-183621900D02*
X181672312Y-183693328D01*
X181672312Y-183693328D02*
X181386598Y-183693328D01*
X181386598Y-183693328D02*
X181243740Y-183621900D01*
X181243740Y-183621900D02*
X181172312Y-183479042D01*
X181172312Y-183479042D02*
X181172312Y-182907614D01*
X181172312Y-182907614D02*
X181243740Y-182764757D01*
X181243740Y-182764757D02*
X181386598Y-182693328D01*
X181386598Y-182693328D02*
X181672312Y-182693328D01*
X181672312Y-182693328D02*
X181815169Y-182764757D01*
X181815169Y-182764757D02*
X181886598Y-182907614D01*
X181886598Y-182907614D02*
X181886598Y-183050471D01*
X181886598Y-183050471D02*
X181172312Y-183193328D01*
X183100883Y-183621900D02*
X182958026Y-183693328D01*
X182958026Y-183693328D02*
X182672312Y-183693328D01*
X182672312Y-183693328D02*
X182529454Y-183621900D01*
X182529454Y-183621900D02*
X182458026Y-183479042D01*
X182458026Y-183479042D02*
X182458026Y-182907614D01*
X182458026Y-182907614D02*
X182529454Y-182764757D01*
X182529454Y-182764757D02*
X182672312Y-182693328D01*
X182672312Y-182693328D02*
X182958026Y-182693328D01*
X182958026Y-182693328D02*
X183100883Y-182764757D01*
X183100883Y-182764757D02*
X183172312Y-182907614D01*
X183172312Y-182907614D02*
X183172312Y-183050471D01*
X183172312Y-183050471D02*
X182458026Y-183193328D01*
X183600883Y-182693328D02*
X184172311Y-182693328D01*
X183815168Y-182193328D02*
X183815168Y-183479042D01*
X183815168Y-183479042D02*
X183886597Y-183621900D01*
X183886597Y-183621900D02*
X184029454Y-183693328D01*
X184029454Y-183693328D02*
X184172311Y-183693328D01*
X184672311Y-183550471D02*
X184743740Y-183621900D01*
X184743740Y-183621900D02*
X184672311Y-183693328D01*
X184672311Y-183693328D02*
X184600883Y-183621900D01*
X184600883Y-183621900D02*
X184672311Y-183550471D01*
X184672311Y-183550471D02*
X184672311Y-183693328D01*
X184672311Y-182764757D02*
X184743740Y-182836185D01*
X184743740Y-182836185D02*
X184672311Y-182907614D01*
X184672311Y-182907614D02*
X184600883Y-182836185D01*
X184600883Y-182836185D02*
X184672311Y-182764757D01*
X184672311Y-182764757D02*
X184672311Y-182907614D01*
D10*
D12*
X178342425Y-179185528D02*
X179199568Y-179185528D01*
X178770996Y-180685528D02*
X178770996Y-179185528D01*
X179913853Y-180685528D02*
X179770996Y-180614100D01*
X179770996Y-180614100D02*
X179699567Y-180542671D01*
X179699567Y-180542671D02*
X179628139Y-180399814D01*
X179628139Y-180399814D02*
X179628139Y-179971242D01*
X179628139Y-179971242D02*
X179699567Y-179828385D01*
X179699567Y-179828385D02*
X179770996Y-179756957D01*
X179770996Y-179756957D02*
X179913853Y-179685528D01*
X179913853Y-179685528D02*
X180128139Y-179685528D01*
X180128139Y-179685528D02*
X180270996Y-179756957D01*
X180270996Y-179756957D02*
X180342425Y-179828385D01*
X180342425Y-179828385D02*
X180413853Y-179971242D01*
X180413853Y-179971242D02*
X180413853Y-180399814D01*
X180413853Y-180399814D02*
X180342425Y-180542671D01*
X180342425Y-180542671D02*
X180270996Y-180614100D01*
X180270996Y-180614100D02*
X180128139Y-180685528D01*
X180128139Y-180685528D02*
X179913853Y-180685528D01*
X181056710Y-180685528D02*
X181056710Y-179685528D01*
X181056710Y-179971242D02*
X181128139Y-179828385D01*
X181128139Y-179828385D02*
X181199568Y-179756957D01*
X181199568Y-179756957D02*
X181342425Y-179685528D01*
X181342425Y-179685528D02*
X181485282Y-179685528D01*
X182199567Y-180685528D02*
X182056710Y-180614100D01*
X182056710Y-180614100D02*
X181985281Y-180542671D01*
X181985281Y-180542671D02*
X181913853Y-180399814D01*
X181913853Y-180399814D02*
X181913853Y-179971242D01*
X181913853Y-179971242D02*
X181985281Y-179828385D01*
X181985281Y-179828385D02*
X182056710Y-179756957D01*
X182056710Y-179756957D02*
X182199567Y-179685528D01*
X182199567Y-179685528D02*
X182413853Y-179685528D01*
X182413853Y-179685528D02*
X182556710Y-179756957D01*
X182556710Y-179756957D02*
X182628139Y-179828385D01*
X182628139Y-179828385D02*
X182699567Y-179971242D01*
X182699567Y-179971242D02*
X182699567Y-180399814D01*
X182699567Y-180399814D02*
X182628139Y-180542671D01*
X182628139Y-180542671D02*
X182556710Y-180614100D01*
X182556710Y-180614100D02*
X182413853Y-180685528D01*
X182413853Y-180685528D02*
X182199567Y-180685528D01*
X183342424Y-179685528D02*
X183342424Y-180685528D01*
X183342424Y-179828385D02*
X183413853Y-179756957D01*
X183413853Y-179756957D02*
X183556710Y-179685528D01*
X183556710Y-179685528D02*
X183770996Y-179685528D01*
X183770996Y-179685528D02*
X183913853Y-179756957D01*
X183913853Y-179756957D02*
X183985282Y-179899814D01*
X183985282Y-179899814D02*
X183985282Y-180685528D01*
X184485282Y-179685528D02*
X185056710Y-179685528D01*
X184699567Y-179185528D02*
X184699567Y-180471242D01*
X184699567Y-180471242D02*
X184770996Y-180614100D01*
X184770996Y-180614100D02*
X184913853Y-180685528D01*
X184913853Y-180685528D02*
X185056710Y-180685528D01*
X185770996Y-180685528D02*
X185628139Y-180614100D01*
X185628139Y-180614100D02*
X185556710Y-180542671D01*
X185556710Y-180542671D02*
X185485282Y-180399814D01*
X185485282Y-180399814D02*
X185485282Y-179971242D01*
X185485282Y-179971242D02*
X185556710Y-179828385D01*
X185556710Y-179828385D02*
X185628139Y-179756957D01*
X185628139Y-179756957D02*
X185770996Y-179685528D01*
X185770996Y-179685528D02*
X185985282Y-179685528D01*
X185985282Y-179685528D02*
X186128139Y-179756957D01*
X186128139Y-179756957D02*
X186199568Y-179828385D01*
X186199568Y-179828385D02*
X186270996Y-179971242D01*
X186270996Y-179971242D02*
X186270996Y-180399814D01*
X186270996Y-180399814D02*
X186199568Y-180542671D01*
X186199568Y-180542671D02*
X186128139Y-180614100D01*
X186128139Y-180614100D02*
X185985282Y-180685528D01*
X185985282Y-180685528D02*
X185770996Y-180685528D01*
X188056710Y-180685528D02*
X188056710Y-179185528D01*
X188056710Y-179185528D02*
X188556710Y-180256957D01*
X188556710Y-180256957D02*
X189056710Y-179185528D01*
X189056710Y-179185528D02*
X189056710Y-180685528D01*
X190342425Y-180614100D02*
X190199568Y-180685528D01*
X190199568Y-180685528D02*
X189913854Y-180685528D01*
X189913854Y-180685528D02*
X189770996Y-180614100D01*
X189770996Y-180614100D02*
X189699568Y-180471242D01*
X189699568Y-180471242D02*
X189699568Y-179899814D01*
X189699568Y-179899814D02*
X189770996Y-179756957D01*
X189770996Y-179756957D02*
X189913854Y-179685528D01*
X189913854Y-179685528D02*
X190199568Y-179685528D01*
X190199568Y-179685528D02*
X190342425Y-179756957D01*
X190342425Y-179756957D02*
X190413854Y-179899814D01*
X190413854Y-179899814D02*
X190413854Y-180042671D01*
X190413854Y-180042671D02*
X189699568Y-180185528D01*
X190842425Y-179685528D02*
X191413853Y-179685528D01*
X191056710Y-179185528D02*
X191056710Y-180471242D01*
X191056710Y-180471242D02*
X191128139Y-180614100D01*
X191128139Y-180614100D02*
X191270996Y-180685528D01*
X191270996Y-180685528D02*
X191413853Y-180685528D01*
X191913853Y-180685528D02*
X191913853Y-179685528D01*
X191913853Y-179971242D02*
X191985282Y-179828385D01*
X191985282Y-179828385D02*
X192056711Y-179756957D01*
X192056711Y-179756957D02*
X192199568Y-179685528D01*
X192199568Y-179685528D02*
X192342425Y-179685528D01*
X193056710Y-180685528D02*
X192913853Y-180614100D01*
X192913853Y-180614100D02*
X192842424Y-180542671D01*
X192842424Y-180542671D02*
X192770996Y-180399814D01*
X192770996Y-180399814D02*
X192770996Y-179971242D01*
X192770996Y-179971242D02*
X192842424Y-179828385D01*
X192842424Y-179828385D02*
X192913853Y-179756957D01*
X192913853Y-179756957D02*
X193056710Y-179685528D01*
X193056710Y-179685528D02*
X193270996Y-179685528D01*
X193270996Y-179685528D02*
X193413853Y-179756957D01*
X193413853Y-179756957D02*
X193485282Y-179828385D01*
X193485282Y-179828385D02*
X193556710Y-179971242D01*
X193556710Y-179971242D02*
X193556710Y-180399814D01*
X193556710Y-180399814D02*
X193485282Y-180542671D01*
X193485282Y-180542671D02*
X193413853Y-180614100D01*
X193413853Y-180614100D02*
X193270996Y-180685528D01*
X193270996Y-180685528D02*
X193056710Y-180685528D01*
X194199567Y-179685528D02*
X194199567Y-181185528D01*
X194199567Y-179756957D02*
X194342425Y-179685528D01*
X194342425Y-179685528D02*
X194628139Y-179685528D01*
X194628139Y-179685528D02*
X194770996Y-179756957D01*
X194770996Y-179756957D02*
X194842425Y-179828385D01*
X194842425Y-179828385D02*
X194913853Y-179971242D01*
X194913853Y-179971242D02*
X194913853Y-180399814D01*
X194913853Y-180399814D02*
X194842425Y-180542671D01*
X194842425Y-180542671D02*
X194770996Y-180614100D01*
X194770996Y-180614100D02*
X194628139Y-180685528D01*
X194628139Y-180685528D02*
X194342425Y-180685528D01*
X194342425Y-180685528D02*
X194199567Y-180614100D01*
X195770996Y-180685528D02*
X195628139Y-180614100D01*
X195628139Y-180614100D02*
X195556710Y-180542671D01*
X195556710Y-180542671D02*
X195485282Y-180399814D01*
X195485282Y-180399814D02*
X195485282Y-179971242D01*
X195485282Y-179971242D02*
X195556710Y-179828385D01*
X195556710Y-179828385D02*
X195628139Y-179756957D01*
X195628139Y-179756957D02*
X195770996Y-179685528D01*
X195770996Y-179685528D02*
X195985282Y-179685528D01*
X195985282Y-179685528D02*
X196128139Y-179756957D01*
X196128139Y-179756957D02*
X196199568Y-179828385D01*
X196199568Y-179828385D02*
X196270996Y-179971242D01*
X196270996Y-179971242D02*
X196270996Y-180399814D01*
X196270996Y-180399814D02*
X196199568Y-180542671D01*
X196199568Y-180542671D02*
X196128139Y-180614100D01*
X196128139Y-180614100D02*
X195985282Y-180685528D01*
X195985282Y-180685528D02*
X195770996Y-180685528D01*
X197128139Y-180685528D02*
X196985282Y-180614100D01*
X196985282Y-180614100D02*
X196913853Y-180471242D01*
X196913853Y-180471242D02*
X196913853Y-179185528D01*
X197699567Y-180685528D02*
X197699567Y-179685528D01*
X197699567Y-179185528D02*
X197628139Y-179256957D01*
X197628139Y-179256957D02*
X197699567Y-179328385D01*
X197699567Y-179328385D02*
X197770996Y-179256957D01*
X197770996Y-179256957D02*
X197699567Y-179185528D01*
X197699567Y-179185528D02*
X197699567Y-179328385D01*
X198199568Y-179685528D02*
X198770996Y-179685528D01*
X198413853Y-179185528D02*
X198413853Y-180471242D01*
X198413853Y-180471242D02*
X198485282Y-180614100D01*
X198485282Y-180614100D02*
X198628139Y-180685528D01*
X198628139Y-180685528D02*
X198770996Y-180685528D01*
X199913854Y-180685528D02*
X199913854Y-179899814D01*
X199913854Y-179899814D02*
X199842425Y-179756957D01*
X199842425Y-179756957D02*
X199699568Y-179685528D01*
X199699568Y-179685528D02*
X199413854Y-179685528D01*
X199413854Y-179685528D02*
X199270996Y-179756957D01*
X199913854Y-180614100D02*
X199770996Y-180685528D01*
X199770996Y-180685528D02*
X199413854Y-180685528D01*
X199413854Y-180685528D02*
X199270996Y-180614100D01*
X199270996Y-180614100D02*
X199199568Y-180471242D01*
X199199568Y-180471242D02*
X199199568Y-180328385D01*
X199199568Y-180328385D02*
X199270996Y-180185528D01*
X199270996Y-180185528D02*
X199413854Y-180114100D01*
X199413854Y-180114100D02*
X199770996Y-180114100D01*
X199770996Y-180114100D02*
X199913854Y-180042671D01*
X200628139Y-179685528D02*
X200628139Y-180685528D01*
X200628139Y-179828385D02*
X200699568Y-179756957D01*
X200699568Y-179756957D02*
X200842425Y-179685528D01*
X200842425Y-179685528D02*
X201056711Y-179685528D01*
X201056711Y-179685528D02*
X201199568Y-179756957D01*
X201199568Y-179756957D02*
X201270997Y-179899814D01*
X201270997Y-179899814D02*
X201270997Y-180685528D01*
X203128139Y-179185528D02*
X203128139Y-180399814D01*
X203128139Y-180399814D02*
X203199568Y-180542671D01*
X203199568Y-180542671D02*
X203270997Y-180614100D01*
X203270997Y-180614100D02*
X203413854Y-180685528D01*
X203413854Y-180685528D02*
X203699568Y-180685528D01*
X203699568Y-180685528D02*
X203842425Y-180614100D01*
X203842425Y-180614100D02*
X203913854Y-180542671D01*
X203913854Y-180542671D02*
X203985282Y-180399814D01*
X203985282Y-180399814D02*
X203985282Y-179185528D01*
X204699568Y-179685528D02*
X204699568Y-180685528D01*
X204699568Y-179828385D02*
X204770997Y-179756957D01*
X204770997Y-179756957D02*
X204913854Y-179685528D01*
X204913854Y-179685528D02*
X205128140Y-179685528D01*
X205128140Y-179685528D02*
X205270997Y-179756957D01*
X205270997Y-179756957D02*
X205342426Y-179899814D01*
X205342426Y-179899814D02*
X205342426Y-180685528D01*
X206056711Y-180685528D02*
X206056711Y-179685528D01*
X206056711Y-179185528D02*
X205985283Y-179256957D01*
X205985283Y-179256957D02*
X206056711Y-179328385D01*
X206056711Y-179328385D02*
X206128140Y-179256957D01*
X206128140Y-179256957D02*
X206056711Y-179185528D01*
X206056711Y-179185528D02*
X206056711Y-179328385D01*
X206628140Y-179685528D02*
X206985283Y-180685528D01*
X206985283Y-180685528D02*
X207342426Y-179685528D01*
X208485283Y-180614100D02*
X208342426Y-180685528D01*
X208342426Y-180685528D02*
X208056712Y-180685528D01*
X208056712Y-180685528D02*
X207913854Y-180614100D01*
X207913854Y-180614100D02*
X207842426Y-180471242D01*
X207842426Y-180471242D02*
X207842426Y-179899814D01*
X207842426Y-179899814D02*
X207913854Y-179756957D01*
X207913854Y-179756957D02*
X208056712Y-179685528D01*
X208056712Y-179685528D02*
X208342426Y-179685528D01*
X208342426Y-179685528D02*
X208485283Y-179756957D01*
X208485283Y-179756957D02*
X208556712Y-179899814D01*
X208556712Y-179899814D02*
X208556712Y-180042671D01*
X208556712Y-180042671D02*
X207842426Y-180185528D01*
X209199568Y-180685528D02*
X209199568Y-179685528D01*
X209199568Y-179971242D02*
X209270997Y-179828385D01*
X209270997Y-179828385D02*
X209342426Y-179756957D01*
X209342426Y-179756957D02*
X209485283Y-179685528D01*
X209485283Y-179685528D02*
X209628140Y-179685528D01*
X210056711Y-180614100D02*
X210199568Y-180685528D01*
X210199568Y-180685528D02*
X210485282Y-180685528D01*
X210485282Y-180685528D02*
X210628139Y-180614100D01*
X210628139Y-180614100D02*
X210699568Y-180471242D01*
X210699568Y-180471242D02*
X210699568Y-180399814D01*
X210699568Y-180399814D02*
X210628139Y-180256957D01*
X210628139Y-180256957D02*
X210485282Y-180185528D01*
X210485282Y-180185528D02*
X210270997Y-180185528D01*
X210270997Y-180185528D02*
X210128139Y-180114100D01*
X210128139Y-180114100D02*
X210056711Y-179971242D01*
X210056711Y-179971242D02*
X210056711Y-179899814D01*
X210056711Y-179899814D02*
X210128139Y-179756957D01*
X210128139Y-179756957D02*
X210270997Y-179685528D01*
X210270997Y-179685528D02*
X210485282Y-179685528D01*
X210485282Y-179685528D02*
X210628139Y-179756957D01*
X211342425Y-180685528D02*
X211342425Y-179685528D01*
X211342425Y-179185528D02*
X211270997Y-179256957D01*
X211270997Y-179256957D02*
X211342425Y-179328385D01*
X211342425Y-179328385D02*
X211413854Y-179256957D01*
X211413854Y-179256957D02*
X211342425Y-179185528D01*
X211342425Y-179185528D02*
X211342425Y-179328385D01*
X211842426Y-179685528D02*
X212413854Y-179685528D01*
X212056711Y-179185528D02*
X212056711Y-180471242D01*
X212056711Y-180471242D02*
X212128140Y-180614100D01*
X212128140Y-180614100D02*
X212270997Y-180685528D01*
X212270997Y-180685528D02*
X212413854Y-180685528D01*
X212770997Y-179685528D02*
X213128140Y-180685528D01*
X213485283Y-179685528D02*
X213128140Y-180685528D01*
X213128140Y-180685528D02*
X212985283Y-181042671D01*
X212985283Y-181042671D02*
X212913854Y-181114100D01*
X212913854Y-181114100D02*
X212770997Y-181185528D01*
D10*
D11*
X197002200Y-191507200D02*
X197002200Y-194507200D01*
D10*
D11*
X261002200Y-191507200D02*
X261002200Y-198007200D01*
X171283333Y-76484819D02*
X170950000Y-76008628D01*
X170711905Y-76484819D02*
X170711905Y-75484819D01*
X170711905Y-75484819D02*
X171092857Y-75484819D01*
X171092857Y-75484819D02*
X171188095Y-75532438D01*
X171188095Y-75532438D02*
X171235714Y-75580057D01*
X171235714Y-75580057D02*
X171283333Y-75675295D01*
X171283333Y-75675295D02*
X171283333Y-75818152D01*
X171283333Y-75818152D02*
X171235714Y-75913390D01*
X171235714Y-75913390D02*
X171188095Y-75961009D01*
X171188095Y-75961009D02*
X171092857Y-76008628D01*
X171092857Y-76008628D02*
X170711905Y-76008628D01*
X171616667Y-75484819D02*
X172235714Y-75484819D01*
X172235714Y-75484819D02*
X171902381Y-75865771D01*
X171902381Y-75865771D02*
X172045238Y-75865771D01*
X172045238Y-75865771D02*
X172140476Y-75913390D01*
X172140476Y-75913390D02*
X172188095Y-75961009D01*
X172188095Y-75961009D02*
X172235714Y-76056247D01*
X172235714Y-76056247D02*
X172235714Y-76294342D01*
X172235714Y-76294342D02*
X172188095Y-76389580D01*
X172188095Y-76389580D02*
X172140476Y-76437200D01*
X172140476Y-76437200D02*
X172045238Y-76484819D01*
X172045238Y-76484819D02*
X171759524Y-76484819D01*
X171759524Y-76484819D02*
X171664286Y-76437200D01*
X171664286Y-76437200D02*
X171616667Y-76389580D01*
X166654819Y-68746666D02*
X166178628Y-69079999D01*
X166654819Y-69318094D02*
X165654819Y-69318094D01*
X165654819Y-69318094D02*
X165654819Y-68937142D01*
X165654819Y-68937142D02*
X165702438Y-68841904D01*
X165702438Y-68841904D02*
X165750057Y-68794285D01*
X165750057Y-68794285D02*
X165845295Y-68746666D01*
X165845295Y-68746666D02*
X165988152Y-68746666D01*
X165988152Y-68746666D02*
X166083390Y-68794285D01*
X166083390Y-68794285D02*
X166131009Y-68841904D01*
X166131009Y-68841904D02*
X166178628Y-68937142D01*
X166178628Y-68937142D02*
X166178628Y-69318094D01*
X165988152Y-67889523D02*
X166654819Y-67889523D01*
X165607200Y-68127618D02*
X166321485Y-68365713D01*
X166321485Y-68365713D02*
X166321485Y-67746666D01*
X46576666Y-75949819D02*
X46576666Y-76664104D01*
X46576666Y-76664104D02*
X46529047Y-76806961D01*
X46529047Y-76806961D02*
X46433809Y-76902200D01*
X46433809Y-76902200D02*
X46290952Y-76949819D01*
X46290952Y-76949819D02*
X46195714Y-76949819D01*
X47005238Y-76045057D02*
X47052857Y-75997438D01*
X47052857Y-75997438D02*
X47148095Y-75949819D01*
X47148095Y-75949819D02*
X47386190Y-75949819D01*
X47386190Y-75949819D02*
X47481428Y-75997438D01*
X47481428Y-75997438D02*
X47529047Y-76045057D01*
X47529047Y-76045057D02*
X47576666Y-76140295D01*
X47576666Y-76140295D02*
X47576666Y-76235533D01*
X47576666Y-76235533D02*
X47529047Y-76378390D01*
X47529047Y-76378390D02*
X46957619Y-76949819D01*
X46957619Y-76949819D02*
X47576666Y-76949819D01*
X157749645Y-55879187D02*
X158559168Y-55879187D01*
X158559168Y-55879187D02*
X158654406Y-55831568D01*
X158654406Y-55831568D02*
X158702026Y-55783949D01*
X158702026Y-55783949D02*
X158749645Y-55688711D01*
X158749645Y-55688711D02*
X158749645Y-55498235D01*
X158749645Y-55498235D02*
X158702026Y-55402997D01*
X158702026Y-55402997D02*
X158654406Y-55355378D01*
X158654406Y-55355378D02*
X158559168Y-55307759D01*
X158559168Y-55307759D02*
X157749645Y-55307759D01*
X157749645Y-54926806D02*
X157749645Y-54307759D01*
X157749645Y-54307759D02*
X158130597Y-54641092D01*
X158130597Y-54641092D02*
X158130597Y-54498235D01*
X158130597Y-54498235D02*
X158178216Y-54402997D01*
X158178216Y-54402997D02*
X158225835Y-54355378D01*
X158225835Y-54355378D02*
X158321073Y-54307759D01*
X158321073Y-54307759D02*
X158559168Y-54307759D01*
X158559168Y-54307759D02*
X158654406Y-54355378D01*
X158654406Y-54355378D02*
X158702026Y-54402997D01*
X158702026Y-54402997D02*
X158749645Y-54498235D01*
X158749645Y-54498235D02*
X158749645Y-54783949D01*
X158749645Y-54783949D02*
X158702026Y-54879187D01*
X158702026Y-54879187D02*
X158654406Y-54926806D01*
X148589645Y-82366330D02*
X147589645Y-82366330D01*
X147589645Y-82366330D02*
X148303930Y-82032997D01*
X148303930Y-82032997D02*
X147589645Y-81699664D01*
X147589645Y-81699664D02*
X148589645Y-81699664D01*
X148589645Y-81223473D02*
X147922978Y-81223473D01*
X147589645Y-81223473D02*
X147637264Y-81271092D01*
X147637264Y-81271092D02*
X147684883Y-81223473D01*
X147684883Y-81223473D02*
X147637264Y-81175854D01*
X147637264Y-81175854D02*
X147589645Y-81223473D01*
X147589645Y-81223473D02*
X147684883Y-81223473D01*
X148542026Y-80318712D02*
X148589645Y-80413950D01*
X148589645Y-80413950D02*
X148589645Y-80604426D01*
X148589645Y-80604426D02*
X148542026Y-80699664D01*
X148542026Y-80699664D02*
X148494406Y-80747283D01*
X148494406Y-80747283D02*
X148399168Y-80794902D01*
X148399168Y-80794902D02*
X148113454Y-80794902D01*
X148113454Y-80794902D02*
X148018216Y-80747283D01*
X148018216Y-80747283D02*
X147970597Y-80699664D01*
X147970597Y-80699664D02*
X147922978Y-80604426D01*
X147922978Y-80604426D02*
X147922978Y-80413950D01*
X147922978Y-80413950D02*
X147970597Y-80318712D01*
X148589645Y-79890140D02*
X147922978Y-79890140D01*
X148113454Y-79890140D02*
X148018216Y-79842521D01*
X148018216Y-79842521D02*
X147970597Y-79794902D01*
X147970597Y-79794902D02*
X147922978Y-79699664D01*
X147922978Y-79699664D02*
X147922978Y-79604426D01*
X148589645Y-79128235D02*
X148542026Y-79223473D01*
X148542026Y-79223473D02*
X148494406Y-79271092D01*
X148494406Y-79271092D02*
X148399168Y-79318711D01*
X148399168Y-79318711D02*
X148113454Y-79318711D01*
X148113454Y-79318711D02*
X148018216Y-79271092D01*
X148018216Y-79271092D02*
X147970597Y-79223473D01*
X147970597Y-79223473D02*
X147922978Y-79128235D01*
X147922978Y-79128235D02*
X147922978Y-78985378D01*
X147922978Y-78985378D02*
X147970597Y-78890140D01*
X147970597Y-78890140D02*
X148018216Y-78842521D01*
X148018216Y-78842521D02*
X148113454Y-78794902D01*
X148113454Y-78794902D02*
X148399168Y-78794902D01*
X148399168Y-78794902D02*
X148494406Y-78842521D01*
X148494406Y-78842521D02*
X148542026Y-78890140D01*
X148542026Y-78890140D02*
X148589645Y-78985378D01*
X148589645Y-78985378D02*
X148589645Y-79128235D01*
X148542026Y-77652044D02*
X148589645Y-77509187D01*
X148589645Y-77509187D02*
X148589645Y-77271092D01*
X148589645Y-77271092D02*
X148542026Y-77175854D01*
X148542026Y-77175854D02*
X148494406Y-77128235D01*
X148494406Y-77128235D02*
X148399168Y-77080616D01*
X148399168Y-77080616D02*
X148303930Y-77080616D01*
X148303930Y-77080616D02*
X148208692Y-77128235D01*
X148208692Y-77128235D02*
X148161073Y-77175854D01*
X148161073Y-77175854D02*
X148113454Y-77271092D01*
X148113454Y-77271092D02*
X148065835Y-77461568D01*
X148065835Y-77461568D02*
X148018216Y-77556806D01*
X148018216Y-77556806D02*
X147970597Y-77604425D01*
X147970597Y-77604425D02*
X147875359Y-77652044D01*
X147875359Y-77652044D02*
X147780121Y-77652044D01*
X147780121Y-77652044D02*
X147684883Y-77604425D01*
X147684883Y-77604425D02*
X147637264Y-77556806D01*
X147637264Y-77556806D02*
X147589645Y-77461568D01*
X147589645Y-77461568D02*
X147589645Y-77223473D01*
X147589645Y-77223473D02*
X147637264Y-77080616D01*
X148589645Y-76652044D02*
X147589645Y-76652044D01*
X147589645Y-76652044D02*
X147589645Y-76413949D01*
X147589645Y-76413949D02*
X147637264Y-76271092D01*
X147637264Y-76271092D02*
X147732502Y-76175854D01*
X147732502Y-76175854D02*
X147827740Y-76128235D01*
X147827740Y-76128235D02*
X148018216Y-76080616D01*
X148018216Y-76080616D02*
X148161073Y-76080616D01*
X148161073Y-76080616D02*
X148351549Y-76128235D01*
X148351549Y-76128235D02*
X148446787Y-76175854D01*
X148446787Y-76175854D02*
X148542026Y-76271092D01*
X148542026Y-76271092D02*
X148589645Y-76413949D01*
X148589645Y-76413949D02*
X148589645Y-76652044D01*
X145051492Y-54163316D02*
X145051492Y-53463316D01*
X145051492Y-53463316D02*
X145284826Y-53963316D01*
X145284826Y-53963316D02*
X145518159Y-53463316D01*
X145518159Y-53463316D02*
X145518159Y-54163316D01*
X145851492Y-54163316D02*
X145851492Y-53463316D01*
X146184825Y-54163316D02*
X146184825Y-53463316D01*
X146184825Y-53463316D02*
X146418159Y-53963316D01*
X146418159Y-53963316D02*
X146651492Y-53463316D01*
X146651492Y-53463316D02*
X146651492Y-54163316D01*
X146918159Y-53463316D02*
X147384825Y-54163316D01*
X147384825Y-53463316D02*
X146918159Y-54163316D01*
X148051492Y-54163316D02*
X147818159Y-53829983D01*
X147651492Y-54163316D02*
X147651492Y-53463316D01*
X147651492Y-53463316D02*
X147918159Y-53463316D01*
X147918159Y-53463316D02*
X147984826Y-53496649D01*
X147984826Y-53496649D02*
X148018159Y-53529983D01*
X148018159Y-53529983D02*
X148051492Y-53596649D01*
X148051492Y-53596649D02*
X148051492Y-53696649D01*
X148051492Y-53696649D02*
X148018159Y-53763316D01*
X148018159Y-53763316D02*
X147984826Y-53796649D01*
X147984826Y-53796649D02*
X147918159Y-53829983D01*
X147918159Y-53829983D02*
X147651492Y-53829983D01*
X148251492Y-53463316D02*
X148651492Y-53463316D01*
X148451492Y-54163316D02*
X148451492Y-53463316D01*
X149251492Y-54163316D02*
X148851492Y-54163316D01*
X149051492Y-54163316D02*
X149051492Y-53463316D01*
X149051492Y-53463316D02*
X148984825Y-53563316D01*
X148984825Y-53563316D02*
X148918159Y-53629983D01*
X148918159Y-53629983D02*
X148851492Y-53663316D01*
X149684826Y-53463316D02*
X149751492Y-53463316D01*
X149751492Y-53463316D02*
X149818159Y-53496649D01*
X149818159Y-53496649D02*
X149851492Y-53529983D01*
X149851492Y-53529983D02*
X149884826Y-53596649D01*
X149884826Y-53596649D02*
X149918159Y-53729983D01*
X149918159Y-53729983D02*
X149918159Y-53896649D01*
X149918159Y-53896649D02*
X149884826Y-54029983D01*
X149884826Y-54029983D02*
X149851492Y-54096649D01*
X149851492Y-54096649D02*
X149818159Y-54129983D01*
X149818159Y-54129983D02*
X149751492Y-54163316D01*
X149751492Y-54163316D02*
X149684826Y-54163316D01*
X149684826Y-54163316D02*
X149618159Y-54129983D01*
X149618159Y-54129983D02*
X149584826Y-54096649D01*
X149584826Y-54096649D02*
X149551492Y-54029983D01*
X149551492Y-54029983D02*
X149518159Y-53896649D01*
X149518159Y-53896649D02*
X149518159Y-53729983D01*
X149518159Y-53729983D02*
X149551492Y-53596649D01*
X149551492Y-53596649D02*
X149584826Y-53529983D01*
X149584826Y-53529983D02*
X149618159Y-53496649D01*
X149618159Y-53496649D02*
X149684826Y-53463316D01*
X150518159Y-53463316D02*
X150384826Y-53463316D01*
X150384826Y-53463316D02*
X150318159Y-53496649D01*
X150318159Y-53496649D02*
X150284826Y-53529983D01*
X150284826Y-53529983D02*
X150218159Y-53629983D01*
X150218159Y-53629983D02*
X150184826Y-53763316D01*
X150184826Y-53763316D02*
X150184826Y-54029983D01*
X150184826Y-54029983D02*
X150218159Y-54096649D01*
X150218159Y-54096649D02*
X150251493Y-54129983D01*
X150251493Y-54129983D02*
X150318159Y-54163316D01*
X150318159Y-54163316D02*
X150451493Y-54163316D01*
X150451493Y-54163316D02*
X150518159Y-54129983D01*
X150518159Y-54129983D02*
X150551493Y-54096649D01*
X150551493Y-54096649D02*
X150584826Y-54029983D01*
X150584826Y-54029983D02*
X150584826Y-53863316D01*
X150584826Y-53863316D02*
X150551493Y-53796649D01*
X150551493Y-53796649D02*
X150518159Y-53763316D01*
X150518159Y-53763316D02*
X150451493Y-53729983D01*
X150451493Y-53729983D02*
X150318159Y-53729983D01*
X150318159Y-53729983D02*
X150251493Y-53763316D01*
X150251493Y-53763316D02*
X150218159Y-53796649D01*
X150218159Y-53796649D02*
X150184826Y-53863316D01*
X150851493Y-53529983D02*
X150884826Y-53496649D01*
X150884826Y-53496649D02*
X150951493Y-53463316D01*
X150951493Y-53463316D02*
X151118160Y-53463316D01*
X151118160Y-53463316D02*
X151184826Y-53496649D01*
X151184826Y-53496649D02*
X151218160Y-53529983D01*
X151218160Y-53529983D02*
X151251493Y-53596649D01*
X151251493Y-53596649D02*
X151251493Y-53663316D01*
X151251493Y-53663316D02*
X151218160Y-53763316D01*
X151218160Y-53763316D02*
X150818160Y-54163316D01*
X150818160Y-54163316D02*
X151251493Y-54163316D01*
X145100445Y-39961006D02*
X145909968Y-39961006D01*
X145909968Y-39961006D02*
X146005206Y-39913387D01*
X146005206Y-39913387D02*
X146052826Y-39865768D01*
X146052826Y-39865768D02*
X146100445Y-39770530D01*
X146100445Y-39770530D02*
X146100445Y-39580054D01*
X146100445Y-39580054D02*
X146052826Y-39484816D01*
X146052826Y-39484816D02*
X146005206Y-39437197D01*
X146005206Y-39437197D02*
X145909968Y-39389578D01*
X145909968Y-39389578D02*
X145100445Y-39389578D01*
X146052826Y-38961006D02*
X146100445Y-38818149D01*
X146100445Y-38818149D02*
X146100445Y-38580054D01*
X146100445Y-38580054D02*
X146052826Y-38484816D01*
X146052826Y-38484816D02*
X146005206Y-38437197D01*
X146005206Y-38437197D02*
X145909968Y-38389578D01*
X145909968Y-38389578D02*
X145814730Y-38389578D01*
X145814730Y-38389578D02*
X145719492Y-38437197D01*
X145719492Y-38437197D02*
X145671873Y-38484816D01*
X145671873Y-38484816D02*
X145624254Y-38580054D01*
X145624254Y-38580054D02*
X145576635Y-38770530D01*
X145576635Y-38770530D02*
X145529016Y-38865768D01*
X145529016Y-38865768D02*
X145481397Y-38913387D01*
X145481397Y-38913387D02*
X145386159Y-38961006D01*
X145386159Y-38961006D02*
X145290921Y-38961006D01*
X145290921Y-38961006D02*
X145195683Y-38913387D01*
X145195683Y-38913387D02*
X145148064Y-38865768D01*
X145148064Y-38865768D02*
X145100445Y-38770530D01*
X145100445Y-38770530D02*
X145100445Y-38532435D01*
X145100445Y-38532435D02*
X145148064Y-38389578D01*
X145576635Y-37627673D02*
X145624254Y-37484816D01*
X145624254Y-37484816D02*
X145671873Y-37437197D01*
X145671873Y-37437197D02*
X145767111Y-37389578D01*
X145767111Y-37389578D02*
X145909968Y-37389578D01*
X145909968Y-37389578D02*
X146005206Y-37437197D01*
X146005206Y-37437197D02*
X146052826Y-37484816D01*
X146052826Y-37484816D02*
X146100445Y-37580054D01*
X146100445Y-37580054D02*
X146100445Y-37961006D01*
X146100445Y-37961006D02*
X145100445Y-37961006D01*
X145100445Y-37961006D02*
X145100445Y-37627673D01*
X145100445Y-37627673D02*
X145148064Y-37532435D01*
X145148064Y-37532435D02*
X145195683Y-37484816D01*
X145195683Y-37484816D02*
X145290921Y-37437197D01*
X145290921Y-37437197D02*
X145386159Y-37437197D01*
X145386159Y-37437197D02*
X145481397Y-37484816D01*
X145481397Y-37484816D02*
X145529016Y-37532435D01*
X145529016Y-37532435D02*
X145576635Y-37627673D01*
X145576635Y-37627673D02*
X145576635Y-37961006D01*
X146100445Y-36199101D02*
X145100445Y-36199101D01*
X145576635Y-36199101D02*
X145576635Y-35627673D01*
X146100445Y-35627673D02*
X145100445Y-35627673D01*
X146100445Y-35008625D02*
X146052826Y-35103863D01*
X146052826Y-35103863D02*
X146005206Y-35151482D01*
X146005206Y-35151482D02*
X145909968Y-35199101D01*
X145909968Y-35199101D02*
X145624254Y-35199101D01*
X145624254Y-35199101D02*
X145529016Y-35151482D01*
X145529016Y-35151482D02*
X145481397Y-35103863D01*
X145481397Y-35103863D02*
X145433778Y-35008625D01*
X145433778Y-35008625D02*
X145433778Y-34865768D01*
X145433778Y-34865768D02*
X145481397Y-34770530D01*
X145481397Y-34770530D02*
X145529016Y-34722911D01*
X145529016Y-34722911D02*
X145624254Y-34675292D01*
X145624254Y-34675292D02*
X145909968Y-34675292D01*
X145909968Y-34675292D02*
X146005206Y-34722911D01*
X146005206Y-34722911D02*
X146052826Y-34770530D01*
X146052826Y-34770530D02*
X146100445Y-34865768D01*
X146100445Y-34865768D02*
X146100445Y-35008625D01*
X146052826Y-34294339D02*
X146100445Y-34199101D01*
X146100445Y-34199101D02*
X146100445Y-34008625D01*
X146100445Y-34008625D02*
X146052826Y-33913387D01*
X146052826Y-33913387D02*
X145957587Y-33865768D01*
X145957587Y-33865768D02*
X145909968Y-33865768D01*
X145909968Y-33865768D02*
X145814730Y-33913387D01*
X145814730Y-33913387D02*
X145767111Y-34008625D01*
X145767111Y-34008625D02*
X145767111Y-34151482D01*
X145767111Y-34151482D02*
X145719492Y-34246720D01*
X145719492Y-34246720D02*
X145624254Y-34294339D01*
X145624254Y-34294339D02*
X145576635Y-34294339D01*
X145576635Y-34294339D02*
X145481397Y-34246720D01*
X145481397Y-34246720D02*
X145433778Y-34151482D01*
X145433778Y-34151482D02*
X145433778Y-34008625D01*
X145433778Y-34008625D02*
X145481397Y-33913387D01*
X145433778Y-33580053D02*
X145433778Y-33199101D01*
X145100445Y-33437196D02*
X145957587Y-33437196D01*
X145957587Y-33437196D02*
X146052826Y-33389577D01*
X146052826Y-33389577D02*
X146100445Y-33294339D01*
X146100445Y-33294339D02*
X146100445Y-33199101D01*
X146872921Y-27902102D02*
X146872921Y-28711625D01*
X146872921Y-28711625D02*
X146920540Y-28806863D01*
X146920540Y-28806863D02*
X146968159Y-28854483D01*
X146968159Y-28854483D02*
X147063397Y-28902102D01*
X147063397Y-28902102D02*
X147253873Y-28902102D01*
X147253873Y-28902102D02*
X147349111Y-28854483D01*
X147349111Y-28854483D02*
X147396730Y-28806863D01*
X147396730Y-28806863D02*
X147444349Y-28711625D01*
X147444349Y-28711625D02*
X147444349Y-27902102D01*
X147872921Y-28854483D02*
X148015778Y-28902102D01*
X148015778Y-28902102D02*
X148253873Y-28902102D01*
X148253873Y-28902102D02*
X148349111Y-28854483D01*
X148349111Y-28854483D02*
X148396730Y-28806863D01*
X148396730Y-28806863D02*
X148444349Y-28711625D01*
X148444349Y-28711625D02*
X148444349Y-28616387D01*
X148444349Y-28616387D02*
X148396730Y-28521149D01*
X148396730Y-28521149D02*
X148349111Y-28473530D01*
X148349111Y-28473530D02*
X148253873Y-28425911D01*
X148253873Y-28425911D02*
X148063397Y-28378292D01*
X148063397Y-28378292D02*
X147968159Y-28330673D01*
X147968159Y-28330673D02*
X147920540Y-28283054D01*
X147920540Y-28283054D02*
X147872921Y-28187816D01*
X147872921Y-28187816D02*
X147872921Y-28092578D01*
X147872921Y-28092578D02*
X147920540Y-27997340D01*
X147920540Y-27997340D02*
X147968159Y-27949721D01*
X147968159Y-27949721D02*
X148063397Y-27902102D01*
X148063397Y-27902102D02*
X148301492Y-27902102D01*
X148301492Y-27902102D02*
X148444349Y-27949721D01*
X149206254Y-28378292D02*
X149349111Y-28425911D01*
X149349111Y-28425911D02*
X149396730Y-28473530D01*
X149396730Y-28473530D02*
X149444349Y-28568768D01*
X149444349Y-28568768D02*
X149444349Y-28711625D01*
X149444349Y-28711625D02*
X149396730Y-28806863D01*
X149396730Y-28806863D02*
X149349111Y-28854483D01*
X149349111Y-28854483D02*
X149253873Y-28902102D01*
X149253873Y-28902102D02*
X148872921Y-28902102D01*
X148872921Y-28902102D02*
X148872921Y-27902102D01*
X148872921Y-27902102D02*
X149206254Y-27902102D01*
X149206254Y-27902102D02*
X149301492Y-27949721D01*
X149301492Y-27949721D02*
X149349111Y-27997340D01*
X149349111Y-27997340D02*
X149396730Y-28092578D01*
X149396730Y-28092578D02*
X149396730Y-28187816D01*
X149396730Y-28187816D02*
X149349111Y-28283054D01*
X149349111Y-28283054D02*
X149301492Y-28330673D01*
X149301492Y-28330673D02*
X149206254Y-28378292D01*
X149206254Y-28378292D02*
X148872921Y-28378292D01*
X148554282Y-42983292D02*
X148887615Y-42983292D01*
X149030472Y-43507102D02*
X148554282Y-43507102D01*
X148554282Y-43507102D02*
X148554282Y-42507102D01*
X148554282Y-42507102D02*
X149030472Y-42507102D01*
X149316187Y-42840435D02*
X149697139Y-42840435D01*
X149459044Y-42507102D02*
X149459044Y-43364244D01*
X149459044Y-43364244D02*
X149506663Y-43459483D01*
X149506663Y-43459483D02*
X149601901Y-43507102D01*
X149601901Y-43507102D02*
X149697139Y-43507102D01*
X150030473Y-43507102D02*
X150030473Y-42507102D01*
X150459044Y-43507102D02*
X150459044Y-42983292D01*
X150459044Y-42983292D02*
X150411425Y-42888054D01*
X150411425Y-42888054D02*
X150316187Y-42840435D01*
X150316187Y-42840435D02*
X150173330Y-42840435D01*
X150173330Y-42840435D02*
X150078092Y-42888054D01*
X150078092Y-42888054D02*
X150030473Y-42935673D01*
X151316187Y-43459483D02*
X151220949Y-43507102D01*
X151220949Y-43507102D02*
X151030473Y-43507102D01*
X151030473Y-43507102D02*
X150935235Y-43459483D01*
X150935235Y-43459483D02*
X150887616Y-43364244D01*
X150887616Y-43364244D02*
X150887616Y-42983292D01*
X150887616Y-42983292D02*
X150935235Y-42888054D01*
X150935235Y-42888054D02*
X151030473Y-42840435D01*
X151030473Y-42840435D02*
X151220949Y-42840435D01*
X151220949Y-42840435D02*
X151316187Y-42888054D01*
X151316187Y-42888054D02*
X151363806Y-42983292D01*
X151363806Y-42983292D02*
X151363806Y-43078530D01*
X151363806Y-43078530D02*
X150887616Y-43173768D01*
X151792378Y-43507102D02*
X151792378Y-42840435D01*
X151792378Y-43030911D02*
X151839997Y-42935673D01*
X151839997Y-42935673D02*
X151887616Y-42888054D01*
X151887616Y-42888054D02*
X151982854Y-42840435D01*
X151982854Y-42840435D02*
X152078092Y-42840435D01*
X152411426Y-42840435D02*
X152411426Y-43507102D01*
X152411426Y-42935673D02*
X152459045Y-42888054D01*
X152459045Y-42888054D02*
X152554283Y-42840435D01*
X152554283Y-42840435D02*
X152697140Y-42840435D01*
X152697140Y-42840435D02*
X152792378Y-42888054D01*
X152792378Y-42888054D02*
X152839997Y-42983292D01*
X152839997Y-42983292D02*
X152839997Y-43507102D01*
X153697140Y-43459483D02*
X153601902Y-43507102D01*
X153601902Y-43507102D02*
X153411426Y-43507102D01*
X153411426Y-43507102D02*
X153316188Y-43459483D01*
X153316188Y-43459483D02*
X153268569Y-43364244D01*
X153268569Y-43364244D02*
X153268569Y-42983292D01*
X153268569Y-42983292D02*
X153316188Y-42888054D01*
X153316188Y-42888054D02*
X153411426Y-42840435D01*
X153411426Y-42840435D02*
X153601902Y-42840435D01*
X153601902Y-42840435D02*
X153697140Y-42888054D01*
X153697140Y-42888054D02*
X153744759Y-42983292D01*
X153744759Y-42983292D02*
X153744759Y-43078530D01*
X153744759Y-43078530D02*
X153268569Y-43173768D01*
X154030474Y-42840435D02*
X154411426Y-42840435D01*
X154173331Y-42507102D02*
X154173331Y-43364244D01*
X154173331Y-43364244D02*
X154220950Y-43459483D01*
X154220950Y-43459483D02*
X154316188Y-43507102D01*
X154316188Y-43507102D02*
X154411426Y-43507102D01*
X146931492Y-52893316D02*
X146931492Y-52193316D01*
X146931492Y-52193316D02*
X147098159Y-52193316D01*
X147098159Y-52193316D02*
X147198159Y-52226649D01*
X147198159Y-52226649D02*
X147264826Y-52293316D01*
X147264826Y-52293316D02*
X147298159Y-52359983D01*
X147298159Y-52359983D02*
X147331492Y-52493316D01*
X147331492Y-52493316D02*
X147331492Y-52593316D01*
X147331492Y-52593316D02*
X147298159Y-52726649D01*
X147298159Y-52726649D02*
X147264826Y-52793316D01*
X147264826Y-52793316D02*
X147198159Y-52859983D01*
X147198159Y-52859983D02*
X147098159Y-52893316D01*
X147098159Y-52893316D02*
X146931492Y-52893316D01*
X147531492Y-52193316D02*
X147764826Y-52893316D01*
X147764826Y-52893316D02*
X147998159Y-52193316D01*
X148431492Y-52193316D02*
X148431492Y-52693316D01*
X148431492Y-52693316D02*
X148398159Y-52793316D01*
X148398159Y-52793316D02*
X148331492Y-52859983D01*
X148331492Y-52859983D02*
X148231492Y-52893316D01*
X148231492Y-52893316D02*
X148164826Y-52893316D01*
X149064825Y-52193316D02*
X148931492Y-52193316D01*
X148931492Y-52193316D02*
X148864825Y-52226649D01*
X148864825Y-52226649D02*
X148831492Y-52259983D01*
X148831492Y-52259983D02*
X148764825Y-52359983D01*
X148764825Y-52359983D02*
X148731492Y-52493316D01*
X148731492Y-52493316D02*
X148731492Y-52759983D01*
X148731492Y-52759983D02*
X148764825Y-52826649D01*
X148764825Y-52826649D02*
X148798159Y-52859983D01*
X148798159Y-52859983D02*
X148864825Y-52893316D01*
X148864825Y-52893316D02*
X148998159Y-52893316D01*
X148998159Y-52893316D02*
X149064825Y-52859983D01*
X149064825Y-52859983D02*
X149098159Y-52826649D01*
X149098159Y-52826649D02*
X149131492Y-52759983D01*
X149131492Y-52759983D02*
X149131492Y-52593316D01*
X149131492Y-52593316D02*
X149098159Y-52526649D01*
X149098159Y-52526649D02*
X149064825Y-52493316D01*
X149064825Y-52493316D02*
X148998159Y-52459983D01*
X148998159Y-52459983D02*
X148864825Y-52459983D01*
X148864825Y-52459983D02*
X148798159Y-52493316D01*
X148798159Y-52493316D02*
X148764825Y-52526649D01*
X148764825Y-52526649D02*
X148731492Y-52593316D01*
X149398159Y-52693316D02*
X149731492Y-52693316D01*
X149331492Y-52893316D02*
X149564826Y-52193316D01*
X149564826Y-52193316D02*
X149798159Y-52893316D01*
X157086513Y-44168906D02*
X157800798Y-44168906D01*
X157800798Y-44168906D02*
X157943655Y-44216525D01*
X157943655Y-44216525D02*
X158038894Y-44311763D01*
X158038894Y-44311763D02*
X158086513Y-44454620D01*
X158086513Y-44454620D02*
X158086513Y-44549858D01*
X158086513Y-43168906D02*
X158086513Y-43740334D01*
X158086513Y-43454620D02*
X157086513Y-43454620D01*
X157086513Y-43454620D02*
X157229370Y-43549858D01*
X157229370Y-43549858D02*
X157324608Y-43645096D01*
X157324608Y-43645096D02*
X157372227Y-43740334D01*
X165506607Y-58648478D02*
X166316130Y-58648478D01*
X166316130Y-58648478D02*
X166411368Y-58600859D01*
X166411368Y-58600859D02*
X166458988Y-58553240D01*
X166458988Y-58553240D02*
X166506607Y-58458002D01*
X166506607Y-58458002D02*
X166506607Y-58267526D01*
X166506607Y-58267526D02*
X166458988Y-58172288D01*
X166458988Y-58172288D02*
X166411368Y-58124669D01*
X166411368Y-58124669D02*
X166316130Y-58077050D01*
X166316130Y-58077050D02*
X165506607Y-58077050D01*
X165506607Y-57124669D02*
X165506607Y-57600859D01*
X165506607Y-57600859D02*
X165982797Y-57648478D01*
X165982797Y-57648478D02*
X165935178Y-57600859D01*
X165935178Y-57600859D02*
X165887559Y-57505621D01*
X165887559Y-57505621D02*
X165887559Y-57267526D01*
X165887559Y-57267526D02*
X165935178Y-57172288D01*
X165935178Y-57172288D02*
X165982797Y-57124669D01*
X165982797Y-57124669D02*
X166078035Y-57077050D01*
X166078035Y-57077050D02*
X166316130Y-57077050D01*
X166316130Y-57077050D02*
X166411368Y-57124669D01*
X166411368Y-57124669D02*
X166458988Y-57172288D01*
X166458988Y-57172288D02*
X166506607Y-57267526D01*
X166506607Y-57267526D02*
X166506607Y-57505621D01*
X166506607Y-57505621D02*
X166458988Y-57600859D01*
X166458988Y-57600859D02*
X166411368Y-57648478D01*
X187037958Y-54210951D02*
X187085577Y-54068094D01*
X187085577Y-54068094D02*
X187133196Y-54020475D01*
X187133196Y-54020475D02*
X187228434Y-53972856D01*
X187228434Y-53972856D02*
X187371291Y-53972856D01*
X187371291Y-53972856D02*
X187466529Y-54020475D01*
X187466529Y-54020475D02*
X187514149Y-54068094D01*
X187514149Y-54068094D02*
X187561768Y-54163332D01*
X187561768Y-54163332D02*
X187561768Y-54544284D01*
X187561768Y-54544284D02*
X186561768Y-54544284D01*
X186561768Y-54544284D02*
X186561768Y-54210951D01*
X186561768Y-54210951D02*
X186609387Y-54115713D01*
X186609387Y-54115713D02*
X186657006Y-54068094D01*
X186657006Y-54068094D02*
X186752244Y-54020475D01*
X186752244Y-54020475D02*
X186847482Y-54020475D01*
X186847482Y-54020475D02*
X186942720Y-54068094D01*
X186942720Y-54068094D02*
X186990339Y-54115713D01*
X186990339Y-54115713D02*
X187037958Y-54210951D01*
X187037958Y-54210951D02*
X187037958Y-54544284D01*
X186561768Y-53639522D02*
X186561768Y-52972856D01*
X186561768Y-52972856D02*
X187561768Y-53639522D01*
X187561768Y-53639522D02*
X187561768Y-52972856D01*
X187561768Y-52068094D02*
X187561768Y-52639522D01*
X187561768Y-52353808D02*
X186561768Y-52353808D01*
X186561768Y-52353808D02*
X186704625Y-52449046D01*
X186704625Y-52449046D02*
X186799863Y-52544284D01*
X186799863Y-52544284D02*
X186847482Y-52639522D01*
X182520815Y-49900950D02*
X182520815Y-49139046D01*
X182901768Y-49519998D02*
X182139863Y-49519998D01*
X155546752Y-30682554D02*
X155546752Y-29873031D01*
X155546752Y-29873031D02*
X155499133Y-29777793D01*
X155499133Y-29777793D02*
X155451514Y-29730174D01*
X155451514Y-29730174D02*
X155356276Y-29682554D01*
X155356276Y-29682554D02*
X155165800Y-29682554D01*
X155165800Y-29682554D02*
X155070562Y-29730174D01*
X155070562Y-29730174D02*
X155022943Y-29777793D01*
X155022943Y-29777793D02*
X154975324Y-29873031D01*
X154975324Y-29873031D02*
X154975324Y-30682554D01*
X153975324Y-29682554D02*
X154546752Y-29682554D01*
X154261038Y-29682554D02*
X154261038Y-30682554D01*
X154261038Y-30682554D02*
X154356276Y-30539697D01*
X154356276Y-30539697D02*
X154451514Y-30444459D01*
X154451514Y-30444459D02*
X154546752Y-30396840D01*
D12*
X185403749Y-90967313D02*
X185403749Y-92201027D01*
X185403749Y-92201027D02*
X185476320Y-92346170D01*
X185476320Y-92346170D02*
X185548892Y-92418742D01*
X185548892Y-92418742D02*
X185694034Y-92491313D01*
X185694034Y-92491313D02*
X185984320Y-92491313D01*
X185984320Y-92491313D02*
X186129463Y-92418742D01*
X186129463Y-92418742D02*
X186202034Y-92346170D01*
X186202034Y-92346170D02*
X186274606Y-92201027D01*
X186274606Y-92201027D02*
X186274606Y-90967313D01*
X187653463Y-90967313D02*
X187363177Y-90967313D01*
X187363177Y-90967313D02*
X187218034Y-91039884D01*
X187218034Y-91039884D02*
X187145463Y-91112456D01*
X187145463Y-91112456D02*
X187000320Y-91330170D01*
X187000320Y-91330170D02*
X186927748Y-91620456D01*
X186927748Y-91620456D02*
X186927748Y-92201027D01*
X186927748Y-92201027D02*
X187000320Y-92346170D01*
X187000320Y-92346170D02*
X187072891Y-92418742D01*
X187072891Y-92418742D02*
X187218034Y-92491313D01*
X187218034Y-92491313D02*
X187508320Y-92491313D01*
X187508320Y-92491313D02*
X187653463Y-92418742D01*
X187653463Y-92418742D02*
X187726034Y-92346170D01*
X187726034Y-92346170D02*
X187798605Y-92201027D01*
X187798605Y-92201027D02*
X187798605Y-91838170D01*
X187798605Y-91838170D02*
X187726034Y-91693027D01*
X187726034Y-91693027D02*
X187653463Y-91620456D01*
X187653463Y-91620456D02*
X187508320Y-91547884D01*
X187508320Y-91547884D02*
X187218034Y-91547884D01*
X187218034Y-91547884D02*
X187072891Y-91620456D01*
X187072891Y-91620456D02*
X187000320Y-91693027D01*
X187000320Y-91693027D02*
X186927748Y-91838170D01*
D11*
X164933333Y-75554819D02*
X164600000Y-75078628D01*
X164361905Y-75554819D02*
X164361905Y-74554819D01*
X164361905Y-74554819D02*
X164742857Y-74554819D01*
X164742857Y-74554819D02*
X164838095Y-74602438D01*
X164838095Y-74602438D02*
X164885714Y-74650057D01*
X164885714Y-74650057D02*
X164933333Y-74745295D01*
X164933333Y-74745295D02*
X164933333Y-74888152D01*
X164933333Y-74888152D02*
X164885714Y-74983390D01*
X164885714Y-74983390D02*
X164838095Y-75031009D01*
X164838095Y-75031009D02*
X164742857Y-75078628D01*
X164742857Y-75078628D02*
X164361905Y-75078628D01*
X165885714Y-75554819D02*
X165314286Y-75554819D01*
X165600000Y-75554819D02*
X165600000Y-74554819D01*
X165600000Y-74554819D02*
X165504762Y-74697676D01*
X165504762Y-74697676D02*
X165409524Y-74792914D01*
X165409524Y-74792914D02*
X165314286Y-74840533D01*
X66286269Y-66778621D02*
X67095792Y-66778621D01*
X67095792Y-66778621D02*
X67191030Y-66731002D01*
X67191030Y-66731002D02*
X67238650Y-66683383D01*
X67238650Y-66683383D02*
X67286269Y-66588145D01*
X67286269Y-66588145D02*
X67286269Y-66397669D01*
X67286269Y-66397669D02*
X67238650Y-66302431D01*
X67238650Y-66302431D02*
X67191030Y-66254812D01*
X67191030Y-66254812D02*
X67095792Y-66207193D01*
X67095792Y-66207193D02*
X66286269Y-66207193D01*
X66619602Y-65302431D02*
X67286269Y-65302431D01*
X66238650Y-65540526D02*
X66952935Y-65778621D01*
X66952935Y-65778621D02*
X66952935Y-65159574D01*
X87109360Y-38152385D02*
X86633169Y-38485718D01*
X87109360Y-38723813D02*
X86109360Y-38723813D01*
X86109360Y-38723813D02*
X86109360Y-38342861D01*
X86109360Y-38342861D02*
X86156979Y-38247623D01*
X86156979Y-38247623D02*
X86204598Y-38200004D01*
X86204598Y-38200004D02*
X86299836Y-38152385D01*
X86299836Y-38152385D02*
X86442693Y-38152385D01*
X86442693Y-38152385D02*
X86537931Y-38200004D01*
X86537931Y-38200004D02*
X86585550Y-38247623D01*
X86585550Y-38247623D02*
X86633169Y-38342861D01*
X86633169Y-38342861D02*
X86633169Y-38723813D01*
X86585550Y-37390480D02*
X86585550Y-37723813D01*
X87109360Y-37723813D02*
X86109360Y-37723813D01*
X86109360Y-37723813D02*
X86109360Y-37247623D01*
X87109360Y-36342861D02*
X87109360Y-36914289D01*
X87109360Y-36628575D02*
X86109360Y-36628575D01*
X86109360Y-36628575D02*
X86252217Y-36723813D01*
X86252217Y-36723813D02*
X86347455Y-36819051D01*
X86347455Y-36819051D02*
X86395074Y-36914289D01*
D10*
X131349523Y-76242580D02*
X131349523Y-76909247D01*
X131349523Y-76814009D02*
X131301904Y-76861628D01*
X131301904Y-76861628D02*
X131206666Y-76909247D01*
X131206666Y-76909247D02*
X131063809Y-76909247D01*
X131063809Y-76909247D02*
X130968571Y-76861628D01*
X130968571Y-76861628D02*
X130920952Y-76766390D01*
X130920952Y-76766390D02*
X130920952Y-76242580D01*
X130920952Y-76766390D02*
X130873333Y-76861628D01*
X130873333Y-76861628D02*
X130778095Y-76909247D01*
X130778095Y-76909247D02*
X130635238Y-76909247D01*
X130635238Y-76909247D02*
X130539999Y-76861628D01*
X130539999Y-76861628D02*
X130492380Y-76766390D01*
X130492380Y-76766390D02*
X130492380Y-76242580D01*
X130016190Y-76909247D02*
X130016190Y-75909247D01*
X130016190Y-76861628D02*
X129920952Y-76909247D01*
X129920952Y-76909247D02*
X129730476Y-76909247D01*
X129730476Y-76909247D02*
X129635238Y-76861628D01*
X129635238Y-76861628D02*
X129587619Y-76814009D01*
X129587619Y-76814009D02*
X129540000Y-76718771D01*
X129540000Y-76718771D02*
X129540000Y-76433057D01*
X129540000Y-76433057D02*
X129587619Y-76337819D01*
X129587619Y-76337819D02*
X129635238Y-76290200D01*
X129635238Y-76290200D02*
X129730476Y-76242580D01*
X129730476Y-76242580D02*
X129920952Y-76242580D01*
X129920952Y-76242580D02*
X130016190Y-76290200D01*
X128682857Y-76909247D02*
X128682857Y-76242580D01*
X129111428Y-76909247D02*
X129111428Y-76385438D01*
X129111428Y-76385438D02*
X129063809Y-76290200D01*
X129063809Y-76290200D02*
X128968571Y-76242580D01*
X128968571Y-76242580D02*
X128825714Y-76242580D01*
X128825714Y-76242580D02*
X128730476Y-76290200D01*
X128730476Y-76290200D02*
X128682857Y-76337819D01*
X127682857Y-76242580D02*
X128254285Y-76242580D01*
X127968571Y-76242580D02*
X127968571Y-77242580D01*
X127968571Y-77242580D02*
X128063809Y-77099723D01*
X128063809Y-77099723D02*
X128159047Y-77004485D01*
X128159047Y-77004485D02*
X128254285Y-76956866D01*
D11*
X164933333Y-80634819D02*
X164600000Y-80158628D01*
X164361905Y-80634819D02*
X164361905Y-79634819D01*
X164361905Y-79634819D02*
X164742857Y-79634819D01*
X164742857Y-79634819D02*
X164838095Y-79682438D01*
X164838095Y-79682438D02*
X164885714Y-79730057D01*
X164885714Y-79730057D02*
X164933333Y-79825295D01*
X164933333Y-79825295D02*
X164933333Y-79968152D01*
X164933333Y-79968152D02*
X164885714Y-80063390D01*
X164885714Y-80063390D02*
X164838095Y-80111009D01*
X164838095Y-80111009D02*
X164742857Y-80158628D01*
X164742857Y-80158628D02*
X164361905Y-80158628D01*
X165314286Y-79730057D02*
X165361905Y-79682438D01*
X165361905Y-79682438D02*
X165457143Y-79634819D01*
X165457143Y-79634819D02*
X165695238Y-79634819D01*
X165695238Y-79634819D02*
X165790476Y-79682438D01*
X165790476Y-79682438D02*
X165838095Y-79730057D01*
X165838095Y-79730057D02*
X165885714Y-79825295D01*
X165885714Y-79825295D02*
X165885714Y-79920533D01*
X165885714Y-79920533D02*
X165838095Y-80063390D01*
X165838095Y-80063390D02*
X165266667Y-80634819D01*
X165266667Y-80634819D02*
X165885714Y-80634819D01*
D14*
%TO.C,R3*%
X167410000Y-73660000D02*
X168180000Y-73660000D01*
X168180000Y-72290000D02*
X168180000Y-75030000D01*
X168180000Y-75030000D02*
X174720000Y-75030000D01*
X174720000Y-72290000D02*
X168180000Y-72290000D01*
X174720000Y-75030000D02*
X174720000Y-72290000D01*
X175490000Y-73660000D02*
X174720000Y-73660000D01*
%TO.C,R4*%
X162460000Y-65310000D02*
X162460000Y-71850000D01*
X162460000Y-71850000D02*
X165200000Y-71850000D01*
X163830000Y-64540000D02*
X163830000Y-65310000D01*
X163830000Y-72620000D02*
X163830000Y-71850000D01*
X165200000Y-65310000D02*
X162460000Y-65310000D01*
X165200000Y-71850000D02*
X165200000Y-65310000D01*
%TO.C,J2*%
X45580000Y-72455000D02*
X45580000Y-69855000D01*
X45580000Y-75055000D02*
X45580000Y-73725000D01*
X46910000Y-75055000D02*
X45580000Y-75055000D01*
X48240000Y-69855000D02*
X45580000Y-69855000D01*
X48240000Y-72455000D02*
X45580000Y-72455000D01*
X48240000Y-72455000D02*
X48240000Y-69855000D01*
D11*
%TO.C,U3*%
X139244826Y-24637283D02*
X157024826Y-24637283D01*
X139244826Y-85597283D02*
X139244826Y-24637283D01*
X141784826Y-47497283D02*
X141784826Y-60197283D01*
X141784826Y-60197283D02*
X154484826Y-60197283D01*
X141784826Y-72897283D02*
X141784826Y-85597283D01*
X142295626Y-30936483D02*
X144835626Y-30936483D01*
X142295626Y-43636483D02*
X142295626Y-30936483D01*
X143054826Y-84327283D02*
X143054826Y-85597283D01*
X144324826Y-23367283D02*
X151944826Y-23367283D01*
X144324826Y-24637283D02*
X144324826Y-23367283D01*
X144324826Y-29717283D02*
X144324826Y-24637283D01*
X144324826Y-29717283D02*
X151944826Y-29717283D01*
X144835626Y-30936483D02*
X144835626Y-33476483D01*
X144835626Y-30936483D02*
X144835626Y-43636483D01*
X144835626Y-33476483D02*
X142295626Y-33476483D01*
X144835626Y-43636483D02*
X142295626Y-43636483D01*
X146864826Y-65277283D02*
X149404826Y-65277283D01*
X146864826Y-69087283D02*
X146864826Y-65277283D01*
X148236426Y-37867283D02*
X148236426Y-41867283D01*
X148236426Y-41867283D02*
X154486426Y-41867283D01*
X149404826Y-65277283D02*
X149404826Y-69087283D01*
X149404826Y-69087283D02*
X146864826Y-69087283D01*
X151944826Y-23367283D02*
X151944826Y-24637283D01*
X151944826Y-29717283D02*
X151944826Y-24637283D01*
X153214826Y-84327283D02*
X143054826Y-84327283D01*
X153214826Y-85597283D02*
X153214826Y-84327283D01*
X154236426Y-37867283D02*
X148236426Y-37867283D01*
X154484826Y-47497283D02*
X141784826Y-47497283D01*
X154484826Y-60197283D02*
X154484826Y-47497283D01*
X154484826Y-72897283D02*
X141784826Y-72897283D01*
X154484826Y-85597283D02*
X154484826Y-72897283D01*
X154486426Y-37867283D02*
X154236426Y-37867283D01*
X154486426Y-41867283D02*
X154486426Y-37867283D01*
X157024826Y-24637283D02*
X157024826Y-85597283D01*
X157024826Y-85597283D02*
X139244826Y-85597283D01*
X149032852Y-67182283D02*
G75*
G02*
X147236800Y-67182283I-898026J0D01*
G01*
X147236800Y-67182283D02*
G75*
G02*
X149032852Y-67182283I898026J0D01*
G01*
D10*
X148060826Y-57298283D02*
X147679826Y-57552283D01*
X147425826Y-57298283D01*
X147806826Y-57044283D01*
X148060826Y-57298283D01*
G36*
X148060826Y-57298283D02*
G01*
X147679826Y-57552283D01*
X147425826Y-57298283D01*
X147806826Y-57044283D01*
X148060826Y-57298283D01*
G37*
X148187826Y-56536283D02*
X147806826Y-56790283D01*
X147552826Y-56536283D01*
X147933826Y-56282283D01*
X148187826Y-56536283D01*
G36*
X148187826Y-56536283D02*
G01*
X147806826Y-56790283D01*
X147552826Y-56536283D01*
X147933826Y-56282283D01*
X148187826Y-56536283D01*
G37*
X148441826Y-57679283D02*
X148060826Y-57933283D01*
X147806826Y-57679283D01*
X148187826Y-57425283D01*
X148441826Y-57679283D01*
G36*
X148441826Y-57679283D02*
G01*
X148060826Y-57933283D01*
X147806826Y-57679283D01*
X148187826Y-57425283D01*
X148441826Y-57679283D01*
G37*
X148568826Y-56917283D02*
X148187826Y-57171283D01*
X147933826Y-56917283D01*
X148314826Y-56663283D01*
X148568826Y-56917283D01*
G36*
X148568826Y-56917283D02*
G01*
X148187826Y-57171283D01*
X147933826Y-56917283D01*
X148314826Y-56663283D01*
X148568826Y-56917283D01*
G37*
X148695826Y-56155283D02*
X148314826Y-56409283D01*
X148060826Y-56155283D01*
X148441826Y-55901283D01*
X148695826Y-56155283D01*
G36*
X148695826Y-56155283D02*
G01*
X148314826Y-56409283D01*
X148060826Y-56155283D01*
X148441826Y-55901283D01*
X148695826Y-56155283D01*
G37*
X148822826Y-58060283D02*
X148441826Y-58314283D01*
X148187826Y-58060283D01*
X148568826Y-57806283D01*
X148822826Y-58060283D01*
G36*
X148822826Y-58060283D02*
G01*
X148441826Y-58314283D01*
X148187826Y-58060283D01*
X148568826Y-57806283D01*
X148822826Y-58060283D01*
G37*
X149076826Y-56536283D02*
X148695826Y-56790283D01*
X148441826Y-56536283D01*
X148822826Y-56282283D01*
X149076826Y-56536283D01*
G36*
X149076826Y-56536283D02*
G01*
X148695826Y-56790283D01*
X148441826Y-56536283D01*
X148822826Y-56282283D01*
X149076826Y-56536283D01*
G37*
X149203826Y-55774283D02*
X148822826Y-56028283D01*
X148568826Y-55774283D01*
X148949826Y-55520283D01*
X149203826Y-55774283D01*
G36*
X149203826Y-55774283D02*
G01*
X148822826Y-56028283D01*
X148568826Y-55774283D01*
X148949826Y-55520283D01*
X149203826Y-55774283D01*
G37*
D14*
%TO.C,J1*%
X158631694Y-45165573D02*
X158631694Y-43835573D01*
X159961694Y-45165573D02*
X158631694Y-45165573D01*
X161231694Y-42505573D02*
X166371694Y-42505573D01*
X161231694Y-45165573D02*
X161231694Y-42505573D01*
X161231694Y-45165573D02*
X166371694Y-45165573D01*
X166371694Y-45165573D02*
X166371694Y-42505573D01*
%TO.C,U5*%
X159066788Y-48996574D02*
X159066788Y-66776574D01*
X159066788Y-66776574D02*
X172401788Y-66776574D01*
X172401788Y-48996574D02*
X159066788Y-48996574D01*
X172401788Y-66776574D02*
X172401788Y-48996574D01*
%TO.C,BZ1*%
X186006949Y-53329999D02*
G75*
G02*
X173806949Y-53329999I-6100000J0D01*
G01*
X173806949Y-53329999D02*
G75*
G02*
X186006949Y-53329999I6100000J0D01*
G01*
%TO.C,U1*%
X161424739Y-29236384D02*
X162694739Y-29236384D01*
X161424739Y-30506384D02*
X161424739Y-29236384D01*
X163737668Y-32666384D02*
X164134739Y-32666384D01*
X163737668Y-33426384D02*
X164134739Y-33426384D01*
X163737668Y-35206384D02*
X164134739Y-35206384D01*
X163737668Y-35966384D02*
X164134739Y-35966384D01*
X163737668Y-37746384D02*
X164134739Y-37746384D01*
X163737668Y-38506384D02*
X164134739Y-38506384D01*
X163804739Y-30126384D02*
X164134739Y-30126384D01*
X163804739Y-30886384D02*
X164134739Y-30886384D01*
X164134739Y-29176384D02*
X164134739Y-39456384D01*
X164134739Y-31776384D02*
X166794739Y-31776384D01*
X164134739Y-34316384D02*
X166794739Y-34316384D01*
X164134739Y-36856384D02*
X166794739Y-36856384D01*
X164134739Y-39456384D02*
X166794739Y-39456384D01*
X166794739Y-29176384D02*
X164134739Y-29176384D01*
X166794739Y-30126384D02*
X172794739Y-30126384D01*
X166794739Y-30186384D02*
X172794739Y-30186384D01*
X166794739Y-30306384D02*
X172794739Y-30306384D01*
X166794739Y-30426384D02*
X172794739Y-30426384D01*
X166794739Y-30546384D02*
X172794739Y-30546384D01*
X166794739Y-30666384D02*
X172794739Y-30666384D01*
X166794739Y-30786384D02*
X172794739Y-30786384D01*
X166794739Y-32666384D02*
X172794739Y-32666384D01*
X166794739Y-35206384D02*
X172794739Y-35206384D01*
X166794739Y-37746384D02*
X172794739Y-37746384D01*
X166794739Y-39456384D02*
X166794739Y-29176384D01*
X172794739Y-30126384D02*
X172794739Y-30886384D01*
X172794739Y-30886384D02*
X166794739Y-30886384D01*
X172794739Y-32666384D02*
X172794739Y-33426384D01*
X172794739Y-33426384D02*
X166794739Y-33426384D01*
X172794739Y-35206384D02*
X172794739Y-35966384D01*
X172794739Y-35966384D02*
X166794739Y-35966384D01*
X172794739Y-37746384D02*
X172794739Y-38506384D01*
X172794739Y-38506384D02*
X166794739Y-38506384D01*
X180184848Y-22517374D02*
X157324848Y-22517374D01*
X157324848Y-45377374D01*
X180184848Y-45377374D01*
X180184848Y-22517374D01*
D15*
%TO.C,U6*%
G36*
X182499792Y-88377436D02*
G01*
X182457459Y-88419770D01*
X182415126Y-88377436D01*
X182457459Y-88335103D01*
X182499792Y-88377436D01*
G37*
G36*
X182894903Y-88447992D02*
G01*
X182883281Y-88498326D01*
X182838459Y-88504436D01*
X182768769Y-88473458D01*
X182782014Y-88447992D01*
X182882494Y-88437859D01*
X182894903Y-88447992D01*
G37*
G36*
X183238862Y-88537950D02*
G01*
X183213611Y-88576432D01*
X183127737Y-88582419D01*
X183037394Y-88561741D01*
X183076584Y-88531266D01*
X183208908Y-88521172D01*
X183238862Y-88537950D01*
G37*
G36*
X141314642Y-86065732D02*
G01*
X141324956Y-86263877D01*
X141333417Y-86630637D01*
X141339804Y-87166299D01*
X141341971Y-87467270D01*
X141341483Y-87971646D01*
X141334316Y-88412568D01*
X141321447Y-88764203D01*
X141303854Y-89000721D01*
X141282516Y-89096292D01*
X141280257Y-89097103D01*
X141259091Y-89016964D01*
X141244247Y-88794468D01*
X141236390Y-88456499D01*
X141236185Y-88029938D01*
X141243055Y-87594270D01*
X141259301Y-86953611D01*
X141274804Y-86480143D01*
X141289344Y-86174150D01*
X141302697Y-86035918D01*
X141314642Y-86065732D01*
G37*
G36*
X183666679Y-88647475D02*
G01*
X184015394Y-88748537D01*
X184209922Y-88808454D01*
X184659738Y-88957923D01*
X185078561Y-89113617D01*
X185437704Y-89263154D01*
X185708480Y-89394154D01*
X185862199Y-89494236D01*
X185886459Y-89531999D01*
X185851308Y-89594835D01*
X185728421Y-89570258D01*
X185505459Y-89460885D01*
X185326642Y-89377335D01*
X185030677Y-89253094D01*
X184659562Y-89105315D01*
X184277792Y-88959544D01*
X183843874Y-88793185D01*
X183565125Y-88677287D01*
X183442223Y-88613361D01*
X183475848Y-88602920D01*
X183666679Y-88647475D01*
G37*
G36*
X144865459Y-90453773D02*
G01*
X144571085Y-90517555D01*
X144235818Y-90562898D01*
X143825718Y-90592445D01*
X143306846Y-90608840D01*
X142806084Y-90614194D01*
X142275017Y-90615527D01*
X141890570Y-90612273D01*
X141630048Y-90602204D01*
X141470753Y-90583091D01*
X141389990Y-90552705D01*
X141365062Y-90508815D01*
X141367866Y-90472936D01*
X141388638Y-90426156D01*
X141444035Y-90390086D01*
X141554054Y-90363170D01*
X141738692Y-90343850D01*
X142017946Y-90330567D01*
X142411811Y-90321765D01*
X142940286Y-90315886D01*
X143427241Y-90312516D01*
X145458126Y-90300262D01*
X144865459Y-90453773D01*
G37*
G36*
X154729126Y-89054770D02*
G01*
X154713334Y-89185385D01*
X154635712Y-89247269D01*
X154450889Y-89265628D01*
X154348126Y-89266436D01*
X153967126Y-89266436D01*
X153967126Y-90028436D01*
X153965440Y-90389153D01*
X153954350Y-90613123D01*
X153924802Y-90732930D01*
X153867747Y-90781160D01*
X153774132Y-90790399D01*
X153755459Y-90790436D01*
X153655260Y-90784369D01*
X153593046Y-90744443D01*
X153559766Y-90638073D01*
X153546369Y-90432674D01*
X153543802Y-90095660D01*
X153543792Y-90028436D01*
X153543792Y-89266436D01*
X153162792Y-89266436D01*
X152927685Y-89257663D01*
X152816294Y-89214540D01*
X152783247Y-89111861D01*
X152781792Y-89054770D01*
X152781792Y-88843103D01*
X154729126Y-88843103D01*
X154729126Y-89054770D01*
G37*
G36*
X142327373Y-85631020D02*
G01*
X142508470Y-85658312D01*
X142686220Y-85724952D01*
X142900719Y-85848248D01*
X143192060Y-86045508D01*
X143376922Y-86175759D01*
X143788393Y-86472397D01*
X144199545Y-86778331D01*
X144585311Y-87073893D01*
X144920622Y-87339420D01*
X145180410Y-87555244D01*
X145339608Y-87701700D01*
X145372995Y-87741685D01*
X145387523Y-87821644D01*
X145284197Y-87808840D01*
X145081572Y-87710840D01*
X144798205Y-87535212D01*
X144696126Y-87465672D01*
X143930283Y-86952634D01*
X143241680Y-86529906D01*
X142645882Y-86206579D01*
X142195572Y-86005667D01*
X141911715Y-85887598D01*
X141702668Y-85782350D01*
X141607758Y-85710101D01*
X141605792Y-85703034D01*
X141682618Y-85661896D01*
X141881935Y-85633870D01*
X142102834Y-85625770D01*
X142327373Y-85631020D01*
G37*
G36*
X180909846Y-89459214D02*
G01*
X180657210Y-89719050D01*
X180501808Y-89903849D01*
X180420053Y-90057216D01*
X180388356Y-90222755D01*
X180383126Y-90432881D01*
X180376927Y-90691100D01*
X180344787Y-90822525D01*
X180266388Y-90869604D01*
X180171459Y-90875103D01*
X180052230Y-90863683D01*
X179988909Y-90802373D01*
X179963810Y-90650598D01*
X179959265Y-90388270D01*
X179953973Y-90140114D01*
X179921919Y-89964426D01*
X179837856Y-89811171D01*
X179676538Y-89630314D01*
X179478644Y-89435770D01*
X179241529Y-89203495D01*
X179113411Y-89063415D01*
X179081692Y-88989876D01*
X179133777Y-88957220D01*
X179236308Y-88942238D01*
X179414404Y-88956572D01*
X179601943Y-89060399D01*
X179826365Y-89260128D01*
X180178664Y-89605884D01*
X180509744Y-89266827D01*
X180743570Y-89054599D01*
X180941778Y-88952094D01*
X181138696Y-88927770D01*
X181436567Y-88927770D01*
X180909846Y-89459214D01*
G37*
G36*
X174409138Y-88929565D02*
G01*
X174686809Y-88938274D01*
X174852455Y-88958879D01*
X174934722Y-88996362D01*
X174962259Y-89055704D01*
X174964459Y-89097103D01*
X174937576Y-89238247D01*
X174900959Y-89273546D01*
X174782270Y-89281596D01*
X174566043Y-89292783D01*
X174498792Y-89295890D01*
X174273234Y-89324130D01*
X174187821Y-89389696D01*
X174188255Y-89436669D01*
X174194582Y-89577600D01*
X174185629Y-89835628D01*
X174163365Y-90159398D01*
X174158276Y-90218659D01*
X174123237Y-90553576D01*
X174084150Y-90752484D01*
X174030124Y-90848564D01*
X173950267Y-90875002D01*
X173942824Y-90875103D01*
X173867980Y-90858139D01*
X173819166Y-90786386D01*
X173789124Y-90628553D01*
X173770594Y-90353351D01*
X173761136Y-90091936D01*
X173736792Y-89308770D01*
X173376959Y-89282735D01*
X173143701Y-89250710D01*
X173037889Y-89184973D01*
X173017126Y-89092235D01*
X173028532Y-89021510D01*
X173081800Y-88974558D01*
X173205500Y-88946555D01*
X173428206Y-88932673D01*
X173778488Y-88928087D01*
X173990792Y-88927770D01*
X174409138Y-88929565D01*
G37*
G36*
X167089768Y-88857099D02*
G01*
X167152347Y-88928148D01*
X167173314Y-89099844D01*
X167175126Y-89260271D01*
X167175126Y-89677439D01*
X167445390Y-89643235D01*
X167725756Y-89533263D01*
X168058474Y-89270509D01*
X168104465Y-89226067D01*
X168379643Y-88984683D01*
X168600303Y-88865390D01*
X168741475Y-88843103D01*
X168989674Y-88843103D01*
X168548067Y-89290265D01*
X168334085Y-89516941D01*
X168177201Y-89702197D01*
X168107539Y-89810119D01*
X168106459Y-89816770D01*
X168162131Y-89911587D01*
X168309064Y-90088555D01*
X168517137Y-90311761D01*
X168548067Y-90343274D01*
X168989674Y-90790436D01*
X168692695Y-90790436D01*
X168492693Y-90764464D01*
X168305999Y-90667097D01*
X168081241Y-90469163D01*
X168021792Y-90409436D01*
X167746414Y-90162506D01*
X167524138Y-90044802D01*
X167411497Y-90028436D01*
X167266012Y-90041150D01*
X167197095Y-90109824D01*
X167176331Y-90280257D01*
X167175126Y-90409436D01*
X167166352Y-90644543D01*
X167123229Y-90755935D01*
X167020550Y-90788981D01*
X166963459Y-90790436D01*
X166751792Y-90790436D01*
X166751792Y-88843103D01*
X166963459Y-88843103D01*
X167089768Y-88857099D01*
G37*
G36*
X146968898Y-88929135D02*
G01*
X147195276Y-89140223D01*
X147236507Y-89182160D01*
X147567587Y-89521217D01*
X147913061Y-89182160D01*
X148153469Y-88959450D01*
X148324726Y-88846258D01*
X148438333Y-88854073D01*
X148505794Y-88994383D01*
X148538611Y-89278677D01*
X148548287Y-89718442D01*
X148548459Y-89816770D01*
X148548459Y-90790436D01*
X148336792Y-90790436D01*
X148226208Y-90781721D01*
X148162918Y-90730976D01*
X148133745Y-90601304D01*
X148125511Y-90355805D01*
X148125126Y-90197770D01*
X148117427Y-89905646D01*
X148097167Y-89693970D01*
X148068600Y-89605569D01*
X148066258Y-89605103D01*
X147972815Y-89658463D01*
X147814502Y-89790875D01*
X147769526Y-89832992D01*
X147531661Y-90060881D01*
X147235727Y-89774050D01*
X146939792Y-89487219D01*
X146939792Y-90138827D01*
X146935986Y-90468565D01*
X146918559Y-90663710D01*
X146878500Y-90758940D01*
X146806797Y-90788931D01*
X146770459Y-90790436D01*
X146697703Y-90780110D01*
X146649412Y-90730033D01*
X146620605Y-90611556D01*
X146606297Y-90396032D01*
X146601508Y-90054813D01*
X146601126Y-89816770D01*
X146608663Y-89344343D01*
X146638449Y-89030114D01*
X146701244Y-88863333D01*
X146807807Y-88833256D01*
X146968898Y-88929135D01*
G37*
G36*
X164979943Y-88868610D02*
G01*
X165318456Y-88981382D01*
X165524193Y-89198854D01*
X165556559Y-89274432D01*
X165603393Y-89445552D01*
X165560896Y-89510852D01*
X165444113Y-89520436D01*
X165270329Y-89472154D01*
X165197174Y-89393436D01*
X165105585Y-89312217D01*
X164892533Y-89272837D01*
X164683095Y-89266436D01*
X164352695Y-89293841D01*
X164155684Y-89394356D01*
X164062387Y-89595433D01*
X164042459Y-89859103D01*
X164076208Y-90174588D01*
X164196086Y-90359080D01*
X164430038Y-90440610D01*
X164633303Y-90451770D01*
X164915345Y-90433478D01*
X165085852Y-90366569D01*
X165172862Y-90274727D01*
X165319302Y-90150676D01*
X165470186Y-90132856D01*
X165570196Y-90214048D01*
X165579984Y-90327839D01*
X165508857Y-90544501D01*
X165366123Y-90684225D01*
X165122691Y-90761131D01*
X164749468Y-90789337D01*
X164626804Y-90790436D01*
X164285825Y-90785152D01*
X164071422Y-90762546D01*
X163940994Y-90712484D01*
X163851937Y-90624835D01*
X163835593Y-90602264D01*
X163747433Y-90371850D01*
X163707032Y-89994516D01*
X163703792Y-89811053D01*
X163725257Y-89408013D01*
X163806719Y-89140560D01*
X163973779Y-88978479D01*
X164252038Y-88891553D01*
X164509010Y-88860678D01*
X164979943Y-88868610D01*
G37*
G36*
X161957487Y-88900369D02*
G01*
X162224606Y-88964275D01*
X162380935Y-89105814D01*
X162455132Y-89353645D01*
X162475857Y-89736427D01*
X162476126Y-89810646D01*
X162459401Y-90232055D01*
X162391634Y-90513313D01*
X162246433Y-90681799D01*
X161997407Y-90764892D01*
X161618164Y-90789970D01*
X161531670Y-90790436D01*
X161184702Y-90781691D01*
X160960303Y-90748869D01*
X160812301Y-90682088D01*
X160740459Y-90621103D01*
X160648363Y-90496891D01*
X160596198Y-90324185D01*
X160574082Y-90056815D01*
X160572924Y-89967894D01*
X160918722Y-89967894D01*
X160978546Y-90218896D01*
X161042840Y-90318722D01*
X161219341Y-90406459D01*
X161479174Y-90447447D01*
X161748726Y-90439250D01*
X161954390Y-90379435D01*
X161993526Y-90350170D01*
X162060580Y-90193892D01*
X162090556Y-89943966D01*
X162083452Y-89671965D01*
X162039268Y-89449464D01*
X161993525Y-89368036D01*
X161852819Y-89307448D01*
X161613762Y-89271101D01*
X161488504Y-89266436D01*
X161215771Y-89284465D01*
X161061001Y-89349350D01*
X160997438Y-89430203D01*
X160923719Y-89679543D01*
X160918722Y-89967894D01*
X160572924Y-89967894D01*
X160571126Y-89829892D01*
X160588475Y-89423680D01*
X160658778Y-89152565D01*
X160809411Y-88990155D01*
X161067754Y-88910059D01*
X161461186Y-88885885D01*
X161550916Y-88885436D01*
X161957487Y-88900369D01*
G37*
G36*
X151596459Y-89054770D02*
G01*
X151590391Y-89154969D01*
X151550465Y-89217182D01*
X151444095Y-89250462D01*
X151238696Y-89263860D01*
X150901682Y-89266426D01*
X150834459Y-89266436D01*
X150473629Y-89268412D01*
X150249572Y-89280018D01*
X150129731Y-89309768D01*
X150081550Y-89366178D01*
X150072471Y-89457764D01*
X150072459Y-89465743D01*
X150082303Y-89566181D01*
X150135169Y-89626943D01*
X150266057Y-89659570D01*
X150509967Y-89675606D01*
X150728626Y-89682158D01*
X151050107Y-89699128D01*
X151305351Y-89728510D01*
X151447376Y-89764529D01*
X151457848Y-89771808D01*
X151507362Y-89886645D01*
X151392402Y-89968035D01*
X151114611Y-90015387D01*
X150744795Y-90028436D01*
X150410373Y-90030733D01*
X150210606Y-90044901D01*
X150110817Y-90081857D01*
X150076332Y-90152518D01*
X150072459Y-90240103D01*
X150078526Y-90340302D01*
X150118452Y-90402516D01*
X150224822Y-90435796D01*
X150430221Y-90449193D01*
X150767235Y-90451759D01*
X150834459Y-90451770D01*
X151196494Y-90454599D01*
X151421456Y-90467862D01*
X151541575Y-90498721D01*
X151589080Y-90554337D01*
X151596459Y-90621103D01*
X151586133Y-90693859D01*
X151536055Y-90742149D01*
X151417579Y-90770957D01*
X151202055Y-90785264D01*
X150860835Y-90790054D01*
X150622792Y-90790436D01*
X149649126Y-90790436D01*
X149649126Y-88843103D01*
X151596459Y-88843103D01*
X151596459Y-89054770D01*
G37*
G36*
X158179292Y-88844351D02*
G01*
X158652015Y-88857937D01*
X158981861Y-88904736D01*
X159193937Y-88996603D01*
X159313345Y-89145395D01*
X159365192Y-89362968D01*
X159368985Y-89406176D01*
X159339109Y-89732245D01*
X159201041Y-89944572D01*
X158965400Y-90027802D01*
X158938783Y-90028436D01*
X158855388Y-90043435D01*
X158860756Y-90104933D01*
X158967426Y-90237681D01*
X159131792Y-90409436D01*
X159505715Y-90790436D01*
X159209382Y-90790436D01*
X159009509Y-90764310D01*
X158822559Y-90666500D01*
X158597261Y-90467861D01*
X158539126Y-90409436D01*
X158319478Y-90208926D01*
X158124575Y-90070907D01*
X158013497Y-90028436D01*
X157917462Y-90060264D01*
X157872282Y-90182704D01*
X157861792Y-90409436D01*
X157853019Y-90644543D01*
X157809896Y-90755935D01*
X157707217Y-90788981D01*
X157650126Y-90790436D01*
X157438459Y-90790436D01*
X157438459Y-89456936D01*
X157861795Y-89456936D01*
X157877160Y-89564021D01*
X157949639Y-89623722D01*
X158118817Y-89652445D01*
X158362772Y-89664574D01*
X158713377Y-89656242D01*
X158917528Y-89599966D01*
X158962725Y-89562449D01*
X159027408Y-89422502D01*
X158944580Y-89328909D01*
X158707881Y-89278281D01*
X158407129Y-89266436D01*
X158112346Y-89270925D01*
X157948658Y-89293283D01*
X157877887Y-89346847D01*
X157861858Y-89444953D01*
X157861795Y-89456936D01*
X157438459Y-89456936D01*
X157438459Y-88843103D01*
X158179292Y-88844351D01*
G37*
G36*
X171831792Y-89054770D02*
G01*
X171825725Y-89154969D01*
X171785799Y-89217182D01*
X171679429Y-89250462D01*
X171474030Y-89263860D01*
X171137016Y-89266426D01*
X171069792Y-89266436D01*
X170708962Y-89268412D01*
X170484905Y-89280018D01*
X170365065Y-89309768D01*
X170316883Y-89366178D01*
X170307805Y-89457764D01*
X170307792Y-89465743D01*
X170317740Y-89566504D01*
X170371008Y-89627327D01*
X170502729Y-89659900D01*
X170748039Y-89675909D01*
X170958756Y-89682279D01*
X171329617Y-89696187D01*
X171562480Y-89720014D01*
X171688681Y-89762669D01*
X171739552Y-89833061D01*
X171747126Y-89906433D01*
X171712389Y-89967943D01*
X171589382Y-90005579D01*
X171349909Y-90024119D01*
X171027459Y-90028436D01*
X170678963Y-90030380D01*
X170466273Y-90042783D01*
X170355866Y-90075508D01*
X170314214Y-90138414D01*
X170307792Y-90240103D01*
X170313860Y-90340302D01*
X170353786Y-90402516D01*
X170460156Y-90435796D01*
X170665555Y-90449193D01*
X171002569Y-90451759D01*
X171069792Y-90451770D01*
X171431827Y-90454599D01*
X171656790Y-90467862D01*
X171776908Y-90498721D01*
X171824413Y-90554337D01*
X171831792Y-90621103D01*
X171821466Y-90693859D01*
X171771389Y-90742149D01*
X171652912Y-90770957D01*
X171437388Y-90785264D01*
X171096169Y-90790054D01*
X170858126Y-90790436D01*
X169884459Y-90790436D01*
X169884459Y-88843103D01*
X171831792Y-88843103D01*
X171831792Y-89054770D01*
G37*
G36*
X177381452Y-88930111D02*
G01*
X177635407Y-88942342D01*
X177792702Y-88972268D01*
X177889667Y-89027699D01*
X177962634Y-89116443D01*
X177977666Y-89139063D01*
X178080581Y-89417714D01*
X178058337Y-89699471D01*
X177924445Y-89931388D01*
X177746392Y-90045330D01*
X177490303Y-90134603D01*
X178217049Y-90875103D01*
X177920715Y-90875103D01*
X177720842Y-90848976D01*
X177533893Y-90751166D01*
X177308594Y-90552528D01*
X177250459Y-90494103D01*
X176989937Y-90262576D01*
X176770691Y-90132558D01*
X176682497Y-90113103D01*
X176562350Y-90131890D01*
X176505434Y-90218108D01*
X176488941Y-90416542D01*
X176488459Y-90494103D01*
X176477379Y-90732198D01*
X176431374Y-90844786D01*
X176331290Y-90874957D01*
X176319126Y-90875103D01*
X176246370Y-90864777D01*
X176198079Y-90814699D01*
X176169271Y-90696223D01*
X176154964Y-90480699D01*
X176150175Y-90139479D01*
X176149792Y-89901436D01*
X176149792Y-89598407D01*
X176499806Y-89598407D01*
X176546506Y-89655398D01*
X176678706Y-89681865D01*
X176931276Y-89689431D01*
X177075237Y-89689770D01*
X177388714Y-89685217D01*
X177568942Y-89664836D01*
X177651907Y-89618544D01*
X177673596Y-89536257D01*
X177673792Y-89522049D01*
X177604898Y-89372431D01*
X177393855Y-89290723D01*
X177034121Y-89274882D01*
X176905001Y-89282032D01*
X176664965Y-89313221D01*
X176546763Y-89378591D01*
X176503737Y-89499270D01*
X176499806Y-89598407D01*
X176149792Y-89598407D01*
X176149792Y-88927770D01*
X176994507Y-88927770D01*
X177381452Y-88930111D01*
G37*
G36*
X139298689Y-89826609D02*
G01*
X139382793Y-89978679D01*
X139486318Y-90262615D01*
X139566635Y-90516334D01*
X139658421Y-90800097D01*
X139750029Y-91004659D01*
X139872242Y-91156720D01*
X140055845Y-91282983D01*
X140331621Y-91410146D01*
X140730352Y-91564912D01*
X140810238Y-91595007D01*
X141389912Y-91813196D01*
X154092019Y-91727745D01*
X155591990Y-91717446D01*
X157074510Y-91706866D01*
X158527832Y-91696106D01*
X159940208Y-91685269D01*
X161299888Y-91674458D01*
X162595125Y-91663776D01*
X163814171Y-91653325D01*
X164945277Y-91643208D01*
X165976695Y-91633527D01*
X166896678Y-91624386D01*
X167693477Y-91615886D01*
X168355343Y-91608131D01*
X168870529Y-91601223D01*
X169207126Y-91595661D01*
X169903290Y-91584067D01*
X170725068Y-91573454D01*
X171628741Y-91564197D01*
X172570589Y-91556673D01*
X173506895Y-91551258D01*
X174393938Y-91548329D01*
X174752792Y-91547926D01*
X176138564Y-91543314D01*
X177369934Y-91529772D01*
X178461652Y-91506186D01*
X179428469Y-91471445D01*
X180285134Y-91424436D01*
X181046400Y-91364048D01*
X181727016Y-91289168D01*
X182341732Y-91198684D01*
X182905300Y-91091484D01*
X183432469Y-90966456D01*
X183792327Y-90866379D01*
X184257560Y-90722261D01*
X184723220Y-90565735D01*
X185159414Y-90408199D01*
X185536245Y-90261052D01*
X185823819Y-90135689D01*
X185992239Y-90043509D01*
X186020618Y-90016852D01*
X186133041Y-89946525D01*
X186258759Y-89972215D01*
X186309792Y-90064223D01*
X186243202Y-90189561D01*
X186064569Y-90378077D01*
X185805596Y-90603447D01*
X185497988Y-90839350D01*
X185173448Y-91059460D01*
X184955126Y-91188970D01*
X184186097Y-91551738D01*
X183299895Y-91864185D01*
X182345088Y-92110696D01*
X181735117Y-92224335D01*
X181609099Y-92239750D01*
X181427822Y-92254312D01*
X181185548Y-92268081D01*
X180876537Y-92281116D01*
X180495050Y-92293477D01*
X180035347Y-92305221D01*
X179491691Y-92316409D01*
X178858340Y-92327099D01*
X178129556Y-92337351D01*
X177299600Y-92347223D01*
X176362732Y-92356774D01*
X175313213Y-92366064D01*
X174145304Y-92375151D01*
X172853266Y-92384095D01*
X171431359Y-92392955D01*
X169873844Y-92401789D01*
X168174981Y-92410657D01*
X166329033Y-92419618D01*
X164330258Y-92428730D01*
X162172919Y-92438054D01*
X160147792Y-92446443D01*
X158382342Y-92453754D01*
X156778448Y-92460707D01*
X155328333Y-92467409D01*
X154024221Y-92473971D01*
X152858335Y-92480500D01*
X151822898Y-92487105D01*
X150910134Y-92493894D01*
X150112265Y-92500976D01*
X149421516Y-92508460D01*
X148830109Y-92516454D01*
X148330268Y-92525066D01*
X147914216Y-92534406D01*
X147574177Y-92544582D01*
X147302373Y-92555701D01*
X147091029Y-92567874D01*
X146932367Y-92581208D01*
X146818611Y-92595813D01*
X146741983Y-92611795D01*
X146694708Y-92629265D01*
X146685792Y-92634362D01*
X146605389Y-92688879D01*
X146495795Y-92770865D01*
X146343731Y-92891333D01*
X146135921Y-93061299D01*
X145859087Y-93291776D01*
X145499953Y-93593779D01*
X145045242Y-93978323D01*
X144481676Y-94456423D01*
X144157841Y-94731519D01*
X143712681Y-95109895D01*
X143373058Y-95393751D01*
X143114143Y-95596635D01*
X142911108Y-95732094D01*
X142739123Y-95813676D01*
X142573360Y-95854926D01*
X142388989Y-95869394D01*
X142161182Y-95870625D01*
X142070487Y-95870436D01*
X141743463Y-95863944D01*
X141484785Y-95846689D01*
X141338578Y-95822008D01*
X141323570Y-95813992D01*
X141305817Y-95715315D01*
X141290354Y-95474742D01*
X141285965Y-95347318D01*
X141624943Y-95347318D01*
X141666741Y-95404729D01*
X141848944Y-95436388D01*
X142170237Y-95444888D01*
X142748792Y-95442674D01*
X143976459Y-94463668D01*
X144366427Y-94149868D01*
X144708386Y-93869335D01*
X144980966Y-93640038D01*
X145162799Y-93479947D01*
X145232348Y-93407549D01*
X145222949Y-93335233D01*
X145105074Y-93353002D01*
X144871894Y-93464031D01*
X144516584Y-93671494D01*
X144103459Y-93932478D01*
X143680937Y-94195807D01*
X143237874Y-94455921D01*
X142829628Y-94681164D01*
X142537126Y-94828182D01*
X142160343Y-95003255D01*
X141909802Y-95122949D01*
X141758023Y-95202905D01*
X141677528Y-95258760D01*
X141640835Y-95306155D01*
X141624943Y-95347318D01*
X141285965Y-95347318D01*
X141278124Y-95119703D01*
X141270067Y-94677629D01*
X141267126Y-94175952D01*
X141267126Y-92582441D01*
X140907292Y-92447731D01*
X140653581Y-92359386D01*
X140303362Y-92245875D01*
X139938277Y-92133286D01*
X146825197Y-92133286D01*
X146928647Y-92152016D01*
X147162495Y-92167532D01*
X147518955Y-92179274D01*
X147990241Y-92186688D01*
X148568565Y-92189216D01*
X149246141Y-92186301D01*
X149860792Y-92179590D01*
X150289773Y-92174524D01*
X150872854Y-92168849D01*
X151594807Y-92162666D01*
X152440399Y-92156077D01*
X153394401Y-92149183D01*
X154441581Y-92142085D01*
X155566710Y-92134885D01*
X156754556Y-92127682D01*
X157989888Y-92120580D01*
X159257477Y-92113678D01*
X160542092Y-92107078D01*
X161417792Y-92102813D01*
X163570510Y-92091855D01*
X165565369Y-92080224D01*
X167401485Y-92067932D01*
X169077976Y-92054991D01*
X170593960Y-92041412D01*
X171948554Y-92027208D01*
X173140875Y-92012391D01*
X174170039Y-91996972D01*
X175035166Y-91980965D01*
X175735371Y-91964380D01*
X176269772Y-91947230D01*
X176637487Y-91929526D01*
X176837632Y-91911282D01*
X176869459Y-91892557D01*
X176766625Y-91885963D01*
X176505127Y-91880640D01*
X176095627Y-91876533D01*
X175548789Y-91873589D01*
X174875277Y-91871754D01*
X174085752Y-91870977D01*
X173190880Y-91871202D01*
X172201323Y-91872378D01*
X171127744Y-91874450D01*
X169980808Y-91877367D01*
X168771176Y-91881073D01*
X167509513Y-91885517D01*
X166206482Y-91890645D01*
X164872747Y-91896403D01*
X163518970Y-91902739D01*
X162155814Y-91909599D01*
X160793945Y-91916929D01*
X159444023Y-91924678D01*
X158116714Y-91932791D01*
X156822680Y-91941215D01*
X155572584Y-91949897D01*
X154377091Y-91958784D01*
X153246863Y-91967823D01*
X152192563Y-91976960D01*
X151224856Y-91986141D01*
X150354403Y-91995315D01*
X149591870Y-92004427D01*
X148947918Y-92013424D01*
X148433212Y-92022254D01*
X148058415Y-92030862D01*
X147871126Y-92037340D01*
X147375111Y-92063366D01*
X147040643Y-92088404D01*
X146859934Y-92111896D01*
X146825197Y-92133286D01*
X139938277Y-92133286D01*
X139922943Y-92128557D01*
X139835193Y-92102407D01*
X139513167Y-92004993D01*
X139259720Y-91924189D01*
X139113689Y-91872559D01*
X139093692Y-91862558D01*
X139067867Y-91753604D01*
X139052948Y-91518286D01*
X139048002Y-91199159D01*
X139052098Y-90838779D01*
X139064307Y-90479700D01*
X139083696Y-90164478D01*
X139109335Y-89935667D01*
X139137987Y-89837708D01*
X139221317Y-89786316D01*
X139298689Y-89826609D01*
G37*
D14*
%TO.C,R1*%
X161060000Y-77470000D02*
X161830000Y-77470000D01*
X161830000Y-76100000D02*
X161830000Y-78840000D01*
X161830000Y-78840000D02*
X168370000Y-78840000D01*
X168370000Y-76100000D02*
X161830000Y-76100000D01*
X168370000Y-78840000D02*
X168370000Y-76100000D01*
X169140000Y-77470000D02*
X168370000Y-77470000D01*
%TO.C,U4*%
X58603648Y-54155674D02*
X118603648Y-54155674D01*
X118603648Y-91155674D01*
X58603648Y-91155674D01*
X58603648Y-54155674D01*
D16*
%TO.C,U2*%
X106758834Y-31593237D02*
X106758834Y-48916037D01*
X109375034Y-51887837D02*
X127129634Y-51887837D01*
D17*
X113044208Y-43364785D02*
X123204208Y-43364785D01*
X113044208Y-51864785D02*
X113044208Y-43364785D01*
X123204208Y-43364785D02*
X123204208Y-51864785D01*
X123204208Y-51864785D02*
X113044208Y-51864785D01*
D16*
X127078834Y-29027837D02*
X109400434Y-29027837D01*
X129618834Y-49170037D02*
X129618834Y-31821837D01*
X106758834Y-31593237D02*
G75*
G02*
X109400434Y-29027823I2603533J-38120D01*
G01*
X109375034Y-51887837D02*
G75*
G02*
X106758829Y-48916037I177783J2793990D01*
G01*
X127078834Y-29027837D02*
G75*
G02*
X129618834Y-31821837I-127001J-2667001D01*
G01*
X129618834Y-49170037D02*
G75*
G02*
X127129634Y-51887837I-2603500J-114300D01*
G01*
D14*
%TO.C,RF1*%
X43942661Y-47219407D02*
X43942661Y-45889407D01*
X45052661Y-47219407D02*
X43942661Y-47219407D01*
X46542661Y-27749407D02*
X46102661Y-27749407D01*
X46542661Y-28469407D02*
X46102661Y-28469407D01*
X46542661Y-30289407D02*
X46102661Y-30289407D01*
X46542661Y-31009407D02*
X46102661Y-31009407D01*
X46542661Y-32829407D02*
X46102661Y-32829407D01*
X46542661Y-33549407D02*
X46102661Y-33549407D01*
X46542661Y-35369407D02*
X46102661Y-35369407D01*
X46542661Y-36089407D02*
X46102661Y-36089407D01*
X46542661Y-37909407D02*
X46102661Y-37909407D01*
X46542661Y-38629407D02*
X46102661Y-38629407D01*
X46542661Y-40449407D02*
X46102661Y-40449407D01*
X46542661Y-41169407D02*
X46102661Y-41169407D01*
X46542661Y-42989407D02*
X46102661Y-42989407D01*
X46542661Y-43709407D02*
X46102661Y-43709407D01*
X46542661Y-45529407D02*
X46162661Y-45529407D01*
X46542661Y-46249407D02*
X46162661Y-46249407D01*
X49052661Y-27749407D02*
X48642661Y-27749407D01*
X49052661Y-28469407D02*
X48642661Y-28469407D01*
X49052661Y-30289407D02*
X48642661Y-30289407D01*
X49052661Y-31009407D02*
X48642661Y-31009407D01*
X49052661Y-32829407D02*
X48642661Y-32829407D01*
X49052661Y-33549407D02*
X48642661Y-33549407D01*
X49052661Y-35369407D02*
X48642661Y-35369407D01*
X49052661Y-36089407D02*
X48642661Y-36089407D01*
X49052661Y-37909407D02*
X48642661Y-37909407D01*
X49052661Y-38629407D02*
X48642661Y-38629407D01*
X49052661Y-40449407D02*
X48642661Y-40449407D01*
X49052661Y-41169407D02*
X48642661Y-41169407D01*
X49052661Y-42989407D02*
X48642661Y-42989407D01*
X49052661Y-43709407D02*
X48642661Y-43709407D01*
X49052661Y-45529407D02*
X48642661Y-45529407D01*
X49052661Y-46249407D02*
X48642661Y-46249407D01*
X49052661Y-47219407D02*
X49052661Y-26779407D01*
X49184541Y-27047147D02*
X49184541Y-47047147D01*
X49184541Y-47047147D02*
X57684541Y-47047147D01*
X57682661Y-26779407D02*
X49052661Y-26779407D01*
X57682661Y-29379407D02*
X49052661Y-29379407D01*
X57682661Y-31919407D02*
X49052661Y-31919407D01*
X57682661Y-34459407D02*
X49052661Y-34459407D01*
X57682661Y-36999407D02*
X49052661Y-36999407D01*
X57682661Y-39539407D02*
X49052661Y-39539407D01*
X57682661Y-42079407D02*
X49052661Y-42079407D01*
X57682661Y-44619407D02*
X49052661Y-44619407D01*
X57682661Y-44737507D02*
X49052661Y-44737507D01*
X57682661Y-44855602D02*
X49052661Y-44855602D01*
X57682661Y-44973697D02*
X49052661Y-44973697D01*
X57682661Y-45091792D02*
X49052661Y-45091792D01*
X57682661Y-45209887D02*
X49052661Y-45209887D01*
X57682661Y-45327982D02*
X49052661Y-45327982D01*
X57682661Y-45446077D02*
X49052661Y-45446077D01*
X57682661Y-45564172D02*
X49052661Y-45564172D01*
X57682661Y-45682267D02*
X49052661Y-45682267D01*
X57682661Y-45800362D02*
X49052661Y-45800362D01*
X57682661Y-45918457D02*
X49052661Y-45918457D01*
X57682661Y-46036552D02*
X49052661Y-46036552D01*
X57682661Y-46154647D02*
X49052661Y-46154647D01*
X57682661Y-46272742D02*
X49052661Y-46272742D01*
X57682661Y-46390837D02*
X49052661Y-46390837D01*
X57682661Y-46508932D02*
X49052661Y-46508932D01*
X57682661Y-46627027D02*
X49052661Y-46627027D01*
X57682661Y-46745122D02*
X49052661Y-46745122D01*
X57682661Y-46863217D02*
X49052661Y-46863217D01*
X57682661Y-46981312D02*
X49052661Y-46981312D01*
X57682661Y-47099407D02*
X49052661Y-47099407D01*
X57682661Y-47219407D02*
X49052661Y-47219407D01*
X57682661Y-47219407D02*
X57682661Y-26779407D01*
X57684541Y-22047147D02*
X57684541Y-52047147D01*
X57684541Y-22047147D02*
X88164541Y-22047147D01*
X57684541Y-27047147D02*
X49184541Y-27047147D01*
X57684541Y-47547147D02*
X57684541Y-27047147D01*
X57684541Y-52047147D02*
X100684541Y-52047147D01*
X88164541Y-22047147D02*
X99594541Y-22047147D01*
X99594541Y-22047147D02*
X100684541Y-22047147D01*
X100684541Y-52047147D02*
X100684541Y-22047147D01*
%TO.C,mpu1*%
X133863271Y-83567533D02*
X133863271Y-65727533D01*
X133863271Y-86167533D02*
X133863271Y-84837533D01*
X135193271Y-86167533D02*
X133863271Y-86167533D01*
X136523271Y-65727533D02*
X133863271Y-65727533D01*
X136523271Y-83567533D02*
X133863271Y-83567533D01*
X136523271Y-83567533D02*
X136523271Y-65727533D01*
D10*
X137160000Y-86769593D02*
X121960000Y-86769593D01*
X121960000Y-65269593D01*
X137160000Y-65269593D01*
X137160000Y-86769593D01*
D14*
%TO.C,R2*%
X161060000Y-82550000D02*
X161830000Y-82550000D01*
X161830000Y-81180000D02*
X161830000Y-83920000D01*
X161830000Y-83920000D02*
X168370000Y-83920000D01*
X168370000Y-81180000D02*
X161830000Y-81180000D01*
X168370000Y-83920000D02*
X168370000Y-81180000D01*
X169140000Y-82550000D02*
X168370000Y-82550000D01*
%TD*%
D18*
X41910000Y-20656715D02*
X187960000Y-20656715D01*
X187960000Y-92710000D01*
X41910000Y-92710000D01*
X41910000Y-20656715D01*
D19*
%TO.C,U5*%
X163356788Y-51536574D02*
G75*
G02*
X159856788Y-51536574I-1750000J0D01*
G01*
X159856788Y-51536574D02*
G75*
G02*
X163356788Y-51536574I1750000J0D01*
G01*
%TO.C,U4*%
X64653648Y-58155674D02*
G75*
G02*
X60553648Y-58155674I-2050000J0D01*
G01*
X60553648Y-58155674D02*
G75*
G02*
X64653648Y-58155674I2050000J0D01*
G01*
X64653648Y-87155674D02*
G75*
G02*
X60553648Y-87155674I-2050000J0D01*
G01*
X60553648Y-87155674D02*
G75*
G02*
X64653648Y-87155674I2050000J0D01*
G01*
X116653648Y-58155674D02*
G75*
G02*
X112553648Y-58155674I-2050000J0D01*
G01*
X112553648Y-58155674D02*
G75*
G02*
X116653648Y-58155674I2050000J0D01*
G01*
X116653648Y-87155674D02*
G75*
G02*
X112553648Y-87155674I-2050000J0D01*
G01*
X112553648Y-87155674D02*
G75*
G02*
X116653648Y-87155674I2050000J0D01*
G01*
%TO.C,U2*%
X110548834Y-49347837D02*
G75*
G02*
X108048834Y-49347837I-1250000J0D01*
G01*
X108048834Y-49347837D02*
G75*
G02*
X110548834Y-49347837I1250000J0D01*
G01*
X128328834Y-49347837D02*
G75*
G02*
X125828834Y-49347837I-1250000J0D01*
G01*
X125828834Y-49347837D02*
G75*
G02*
X128328834Y-49347837I1250000J0D01*
G01*
%TO.C,RF1*%
X62184541Y-24797147D02*
G75*
G02*
X58684541Y-24797147I-1750000J0D01*
G01*
X58684541Y-24797147D02*
G75*
G02*
X62184541Y-24797147I1750000J0D01*
G01*
X62184541Y-49297147D02*
G75*
G02*
X58684541Y-49297147I-1750000J0D01*
G01*
X58684541Y-49297147D02*
G75*
G02*
X62184541Y-49297147I1750000J0D01*
G01*
X99684541Y-37047147D02*
G75*
G02*
X96184541Y-37047147I-1750000J0D01*
G01*
X96184541Y-37047147D02*
G75*
G02*
X99684541Y-37047147I1750000J0D01*
G01*
%TO.C,mpu1*%
X125960000Y-67540000D02*
G75*
G02*
X122960000Y-67540000I-1500000J0D01*
G01*
X122960000Y-67540000D02*
G75*
G02*
X125960000Y-67540000I1500000J0D01*
G01*
X125960000Y-84480000D02*
G75*
G02*
X122960000Y-84480000I-1500000J0D01*
G01*
X122960000Y-84480000D02*
G75*
G02*
X125960000Y-84480000I1500000J0D01*
G01*
%TD*%
M02*
