M48
; DRILL file {KiCad 7.0.6} date Thu Aug 10 15:58:52 2023
; FORMAT={-:-/ absolute / inch / decimal}
; #@! TF.CreationDate,2023-08-10T15:58:52-04:00
; #@! TF.GenerationSoftware,Kicad,Pcbnew,7.0.6
; #@! TF.FileFunction,Plated,1,2,PTH
FMAT,2
INCH
; #@! TA.AperFunction,Plated,PTH,ViaDrill
T1C0.0157
; #@! TA.AperFunction,Plated,PTH,ComponentDrill
T2C0.0315
; #@! TA.AperFunction,Plated,PTH,ComponentDrill
T3C0.0394
; #@! TA.AperFunction,Plated,PTH,ComponentDrill
T4C0.0402
; #@! TA.AperFunction,Plated,PTH,ComponentDrill
T5C0.0433
; #@! TA.AperFunction,Plated,PTH,ComponentDrill
T6C0.0787
; #@! TA.AperFunction,Plated,PTH,ComponentDrill
T7C0.1063
; #@! TA.AperFunction,Plated,PTH,ComponentDrill
T8C0.1260
%
G90
G05
T1
X2.3Y-1.2
X2.7Y-1.2
X3.1Y-1.9
X3.1614Y-1.0499
X3.2Y-1.0
X3.2Y-1.2
X3.4Y-1.3
X3.4Y-2.2
X3.7Y-1.3
X4.2Y-1.6
X4.5Y-1.2
X4.6Y-2.0
X4.8Y-1.9
X4.9Y-2.3
X5.0Y-2.0
X5.2Y-1.8
X5.2Y-2.1
X5.4Y-1.7
X5.4Y-2.1
T2
X2.5287Y-1.15
X2.5287Y-1.25
X3.0106Y-0.996
X3.0106Y-1.0747
X3.0106Y-1.1535
X3.0894Y-0.996
X3.0894Y-1.0747
X3.0894Y-1.1535
X3.8Y-1.7
X4.2Y-1.7
X4.3549Y-1.6975
X4.7549Y-1.6975
X6.645Y-3.2564
X6.645Y-3.4136
X7.045Y-3.2564
X7.045Y-3.4136
T3
X1.9082Y-0.9519
X1.9082Y-1.2511
X2.8Y-1.7
X2.9Y-1.7
X3.0Y-1.7
X3.0247Y-2.2092
X3.0247Y-2.3092
X3.0247Y-2.4092
X3.0247Y-2.5092
X3.0247Y-2.6092
X3.0247Y-2.7092
X3.0247Y-2.8092
X3.0247Y-2.9092
X3.0247Y-3.0092
X3.0247Y-3.1092
X3.0247Y-3.2092
X3.0247Y-3.3092
X3.1247Y-2.2092
X3.1247Y-2.3092
X3.1247Y-2.4092
X3.1247Y-2.5092
X3.1247Y-2.6092
X3.1247Y-2.7092
X3.1247Y-2.8092
X3.1247Y-2.9092
X3.1247Y-3.0092
X3.1247Y-3.1092
X3.1247Y-3.2092
X3.1247Y-3.3092
X3.3Y-1.7
X3.4Y-1.7
X3.5Y-1.7
X5.6254Y-1.2239
X5.6254Y-1.3239
X5.6254Y-1.4239
X5.6254Y-1.5239
X6.1512Y-0.986
X6.1512Y-1.086
X6.2512Y-0.986
X6.2512Y-1.086
X6.3512Y-0.986
X6.3512Y-1.086
X6.4512Y-0.986
X6.4512Y-1.086
X6.5512Y-0.986
X6.5512Y-1.086
X6.6512Y-0.986
X6.6512Y-1.086
X6.7512Y-0.986
X6.7512Y-1.086
X6.8512Y-0.986
X6.8512Y-1.086
T4
X1.7671Y-1.4537
X1.8671Y-1.4537
X1.9671Y-1.4537
X2.0671Y-1.4537
X2.1671Y-1.4537
X2.2671Y-1.4537
X2.3671Y-1.4537
T5
X2.5Y-0.9
X2.5Y-1.5
X2.6Y-0.9
X2.6Y-1.0
X2.6Y-1.5
X2.7Y-0.9
X2.7Y-1.5
X2.748Y-1.3799
X2.8Y-0.9
X2.8Y-1.5
X2.848Y-1.3799
X2.9Y-0.9
X2.9Y-1.5
X2.948Y-1.3799
X3.0Y-0.9
X3.0Y-1.5
X3.048Y-1.3799
X3.1Y-0.9
X3.1Y-1.5
X3.148Y-1.3799
X3.2Y-0.9
X3.2Y-1.5
X3.3Y-0.9
X3.3Y-1.5
X3.4Y-0.9
X3.4Y-1.5
X3.5Y-0.9
X3.5Y-1.5
X3.6Y-0.9
X3.6Y-1.5
X3.7Y-0.9
X3.7Y-1.5
X3.8Y-0.9
X3.8Y-1.5
X3.9Y-0.9
X3.9Y-1.5
X4.0Y-0.9
X4.0Y-1.5
X4.1Y-0.9
X4.1Y-1.5
X4.2Y-0.9
X4.2Y-1.5
X4.3Y-0.9
X4.3Y-1.0
X4.3Y-1.1
X4.3Y-1.2
X4.3Y-1.3
X4.3Y-1.4
X4.3Y-1.5
X4.4Y-0.9
X4.4Y-1.5
X4.5Y-0.9
X4.5Y-1.5
X4.6Y-0.9
X4.6Y-1.5
X4.7Y-0.9
X4.7Y-1.5
X4.8Y-0.9
X4.8Y-1.5
T6
X3.5Y-2.1
X3.5Y-2.7
X5.5472Y-2.1
X5.5472Y-2.7
T7
X5.8955Y-3.3676
X6.0924Y-3.3676
T8
X1.8171Y-1.828
X6.017Y-1.5916
X6.4993Y-3.0679
X6.9816Y-1.5916
T0
M30
