%TF.GenerationSoftware,KiCad,Pcbnew,7.0.6*%
%TF.CreationDate,2023-08-10T16:59:27-04:00*%
%TF.ProjectId,rrc_pcb3,7272635f-7063-4623-932e-6b696361645f,rev?*%
%TF.SameCoordinates,Original*%
%TF.FileFunction,Legend,Top*%
%TF.FilePolarity,Positive*%
%FSLAX46Y46*%
G04 Gerber Fmt 4.6, Leading zero omitted, Abs format (unit mm)*
G04 Created by KiCad (PCBNEW 7.0.6) date 2023-08-10 16:59:27*
%MOMM*%
%LPD*%
G01*
G04 APERTURE LIST*
%ADD10C,0.100000*%
%ADD11C,0.150000*%
%ADD12C,0.300000*%
%ADD13C,0.400000*%
%ADD14C,0.120000*%
%TA.AperFunction,Profile*%
%ADD15C,0.050000*%
%TD*%
G04 APERTURE END LIST*
D10*
D11*
X177002200Y-166007200D02*
X285002200Y-166007200D01*
X285002200Y-198007200D01*
X177002200Y-198007200D01*
X177002200Y-166007200D01*
D10*
D11*
X10000000Y-10000000D02*
X287002200Y-10000000D01*
X287002200Y-200007200D01*
X10000000Y-200007200D01*
X10000000Y-10000000D01*
D10*
D11*
X12000000Y-12000000D02*
X285002200Y-12000000D01*
X285002200Y-198007200D01*
X12000000Y-198007200D01*
X12000000Y-12000000D01*
D10*
D11*
X60000000Y-12000000D02*
X60000000Y-10000000D01*
D10*
D11*
X110000000Y-12000000D02*
X110000000Y-10000000D01*
D10*
D11*
X160000000Y-12000000D02*
X160000000Y-10000000D01*
D10*
D11*
X210000000Y-12000000D02*
X210000000Y-10000000D01*
D10*
D11*
X260000000Y-12000000D02*
X260000000Y-10000000D01*
D10*
D11*
X36089160Y-11593604D02*
X35346303Y-11593604D01*
X35717731Y-11593604D02*
X35717731Y-10293604D01*
X35717731Y-10293604D02*
X35593922Y-10479319D01*
X35593922Y-10479319D02*
X35470112Y-10603128D01*
X35470112Y-10603128D02*
X35346303Y-10665033D01*
D10*
D11*
X85346303Y-10417414D02*
X85408207Y-10355509D01*
X85408207Y-10355509D02*
X85532017Y-10293604D01*
X85532017Y-10293604D02*
X85841541Y-10293604D01*
X85841541Y-10293604D02*
X85965350Y-10355509D01*
X85965350Y-10355509D02*
X86027255Y-10417414D01*
X86027255Y-10417414D02*
X86089160Y-10541223D01*
X86089160Y-10541223D02*
X86089160Y-10665033D01*
X86089160Y-10665033D02*
X86027255Y-10850747D01*
X86027255Y-10850747D02*
X85284398Y-11593604D01*
X85284398Y-11593604D02*
X86089160Y-11593604D01*
D10*
D11*
X135284398Y-10293604D02*
X136089160Y-10293604D01*
X136089160Y-10293604D02*
X135655826Y-10788842D01*
X135655826Y-10788842D02*
X135841541Y-10788842D01*
X135841541Y-10788842D02*
X135965350Y-10850747D01*
X135965350Y-10850747D02*
X136027255Y-10912652D01*
X136027255Y-10912652D02*
X136089160Y-11036461D01*
X136089160Y-11036461D02*
X136089160Y-11345985D01*
X136089160Y-11345985D02*
X136027255Y-11469795D01*
X136027255Y-11469795D02*
X135965350Y-11531700D01*
X135965350Y-11531700D02*
X135841541Y-11593604D01*
X135841541Y-11593604D02*
X135470112Y-11593604D01*
X135470112Y-11593604D02*
X135346303Y-11531700D01*
X135346303Y-11531700D02*
X135284398Y-11469795D01*
D10*
D11*
X185965350Y-10726938D02*
X185965350Y-11593604D01*
X185655826Y-10231700D02*
X185346303Y-11160271D01*
X185346303Y-11160271D02*
X186151064Y-11160271D01*
D10*
D11*
X236027255Y-10293604D02*
X235408207Y-10293604D01*
X235408207Y-10293604D02*
X235346303Y-10912652D01*
X235346303Y-10912652D02*
X235408207Y-10850747D01*
X235408207Y-10850747D02*
X235532017Y-10788842D01*
X235532017Y-10788842D02*
X235841541Y-10788842D01*
X235841541Y-10788842D02*
X235965350Y-10850747D01*
X235965350Y-10850747D02*
X236027255Y-10912652D01*
X236027255Y-10912652D02*
X236089160Y-11036461D01*
X236089160Y-11036461D02*
X236089160Y-11345985D01*
X236089160Y-11345985D02*
X236027255Y-11469795D01*
X236027255Y-11469795D02*
X235965350Y-11531700D01*
X235965350Y-11531700D02*
X235841541Y-11593604D01*
X235841541Y-11593604D02*
X235532017Y-11593604D01*
X235532017Y-11593604D02*
X235408207Y-11531700D01*
X235408207Y-11531700D02*
X235346303Y-11469795D01*
D10*
D11*
X285965350Y-10293604D02*
X285717731Y-10293604D01*
X285717731Y-10293604D02*
X285593922Y-10355509D01*
X285593922Y-10355509D02*
X285532017Y-10417414D01*
X285532017Y-10417414D02*
X285408207Y-10603128D01*
X285408207Y-10603128D02*
X285346303Y-10850747D01*
X285346303Y-10850747D02*
X285346303Y-11345985D01*
X285346303Y-11345985D02*
X285408207Y-11469795D01*
X285408207Y-11469795D02*
X285470112Y-11531700D01*
X285470112Y-11531700D02*
X285593922Y-11593604D01*
X285593922Y-11593604D02*
X285841541Y-11593604D01*
X285841541Y-11593604D02*
X285965350Y-11531700D01*
X285965350Y-11531700D02*
X286027255Y-11469795D01*
X286027255Y-11469795D02*
X286089160Y-11345985D01*
X286089160Y-11345985D02*
X286089160Y-11036461D01*
X286089160Y-11036461D02*
X286027255Y-10912652D01*
X286027255Y-10912652D02*
X285965350Y-10850747D01*
X285965350Y-10850747D02*
X285841541Y-10788842D01*
X285841541Y-10788842D02*
X285593922Y-10788842D01*
X285593922Y-10788842D02*
X285470112Y-10850747D01*
X285470112Y-10850747D02*
X285408207Y-10912652D01*
X285408207Y-10912652D02*
X285346303Y-11036461D01*
D10*
D11*
X60000000Y-198007200D02*
X60000000Y-200007200D01*
D10*
D11*
X110000000Y-198007200D02*
X110000000Y-200007200D01*
D10*
D11*
X160000000Y-198007200D02*
X160000000Y-200007200D01*
D10*
D11*
X210000000Y-198007200D02*
X210000000Y-200007200D01*
D10*
D11*
X260000000Y-198007200D02*
X260000000Y-200007200D01*
D10*
D11*
X36089160Y-199600804D02*
X35346303Y-199600804D01*
X35717731Y-199600804D02*
X35717731Y-198300804D01*
X35717731Y-198300804D02*
X35593922Y-198486519D01*
X35593922Y-198486519D02*
X35470112Y-198610328D01*
X35470112Y-198610328D02*
X35346303Y-198672233D01*
D10*
D11*
X85346303Y-198424614D02*
X85408207Y-198362709D01*
X85408207Y-198362709D02*
X85532017Y-198300804D01*
X85532017Y-198300804D02*
X85841541Y-198300804D01*
X85841541Y-198300804D02*
X85965350Y-198362709D01*
X85965350Y-198362709D02*
X86027255Y-198424614D01*
X86027255Y-198424614D02*
X86089160Y-198548423D01*
X86089160Y-198548423D02*
X86089160Y-198672233D01*
X86089160Y-198672233D02*
X86027255Y-198857947D01*
X86027255Y-198857947D02*
X85284398Y-199600804D01*
X85284398Y-199600804D02*
X86089160Y-199600804D01*
D10*
D11*
X135284398Y-198300804D02*
X136089160Y-198300804D01*
X136089160Y-198300804D02*
X135655826Y-198796042D01*
X135655826Y-198796042D02*
X135841541Y-198796042D01*
X135841541Y-198796042D02*
X135965350Y-198857947D01*
X135965350Y-198857947D02*
X136027255Y-198919852D01*
X136027255Y-198919852D02*
X136089160Y-199043661D01*
X136089160Y-199043661D02*
X136089160Y-199353185D01*
X136089160Y-199353185D02*
X136027255Y-199476995D01*
X136027255Y-199476995D02*
X135965350Y-199538900D01*
X135965350Y-199538900D02*
X135841541Y-199600804D01*
X135841541Y-199600804D02*
X135470112Y-199600804D01*
X135470112Y-199600804D02*
X135346303Y-199538900D01*
X135346303Y-199538900D02*
X135284398Y-199476995D01*
D10*
D11*
X185965350Y-198734138D02*
X185965350Y-199600804D01*
X185655826Y-198238900D02*
X185346303Y-199167471D01*
X185346303Y-199167471D02*
X186151064Y-199167471D01*
D10*
D11*
X236027255Y-198300804D02*
X235408207Y-198300804D01*
X235408207Y-198300804D02*
X235346303Y-198919852D01*
X235346303Y-198919852D02*
X235408207Y-198857947D01*
X235408207Y-198857947D02*
X235532017Y-198796042D01*
X235532017Y-198796042D02*
X235841541Y-198796042D01*
X235841541Y-198796042D02*
X235965350Y-198857947D01*
X235965350Y-198857947D02*
X236027255Y-198919852D01*
X236027255Y-198919852D02*
X236089160Y-199043661D01*
X236089160Y-199043661D02*
X236089160Y-199353185D01*
X236089160Y-199353185D02*
X236027255Y-199476995D01*
X236027255Y-199476995D02*
X235965350Y-199538900D01*
X235965350Y-199538900D02*
X235841541Y-199600804D01*
X235841541Y-199600804D02*
X235532017Y-199600804D01*
X235532017Y-199600804D02*
X235408207Y-199538900D01*
X235408207Y-199538900D02*
X235346303Y-199476995D01*
D10*
D11*
X285965350Y-198300804D02*
X285717731Y-198300804D01*
X285717731Y-198300804D02*
X285593922Y-198362709D01*
X285593922Y-198362709D02*
X285532017Y-198424614D01*
X285532017Y-198424614D02*
X285408207Y-198610328D01*
X285408207Y-198610328D02*
X285346303Y-198857947D01*
X285346303Y-198857947D02*
X285346303Y-199353185D01*
X285346303Y-199353185D02*
X285408207Y-199476995D01*
X285408207Y-199476995D02*
X285470112Y-199538900D01*
X285470112Y-199538900D02*
X285593922Y-199600804D01*
X285593922Y-199600804D02*
X285841541Y-199600804D01*
X285841541Y-199600804D02*
X285965350Y-199538900D01*
X285965350Y-199538900D02*
X286027255Y-199476995D01*
X286027255Y-199476995D02*
X286089160Y-199353185D01*
X286089160Y-199353185D02*
X286089160Y-199043661D01*
X286089160Y-199043661D02*
X286027255Y-198919852D01*
X286027255Y-198919852D02*
X285965350Y-198857947D01*
X285965350Y-198857947D02*
X285841541Y-198796042D01*
X285841541Y-198796042D02*
X285593922Y-198796042D01*
X285593922Y-198796042D02*
X285470112Y-198857947D01*
X285470112Y-198857947D02*
X285408207Y-198919852D01*
X285408207Y-198919852D02*
X285346303Y-199043661D01*
D10*
D11*
X10000000Y-60000000D02*
X12000000Y-60000000D01*
D10*
D11*
X10000000Y-110000000D02*
X12000000Y-110000000D01*
D10*
D11*
X10000000Y-160000000D02*
X12000000Y-160000000D01*
D10*
D11*
X10690476Y-35222176D02*
X11309523Y-35222176D01*
X10566666Y-35593604D02*
X10999999Y-34293604D01*
X10999999Y-34293604D02*
X11433333Y-35593604D01*
D10*
D11*
X11092857Y-84912652D02*
X11278571Y-84974557D01*
X11278571Y-84974557D02*
X11340476Y-85036461D01*
X11340476Y-85036461D02*
X11402380Y-85160271D01*
X11402380Y-85160271D02*
X11402380Y-85345985D01*
X11402380Y-85345985D02*
X11340476Y-85469795D01*
X11340476Y-85469795D02*
X11278571Y-85531700D01*
X11278571Y-85531700D02*
X11154761Y-85593604D01*
X11154761Y-85593604D02*
X10659523Y-85593604D01*
X10659523Y-85593604D02*
X10659523Y-84293604D01*
X10659523Y-84293604D02*
X11092857Y-84293604D01*
X11092857Y-84293604D02*
X11216666Y-84355509D01*
X11216666Y-84355509D02*
X11278571Y-84417414D01*
X11278571Y-84417414D02*
X11340476Y-84541223D01*
X11340476Y-84541223D02*
X11340476Y-84665033D01*
X11340476Y-84665033D02*
X11278571Y-84788842D01*
X11278571Y-84788842D02*
X11216666Y-84850747D01*
X11216666Y-84850747D02*
X11092857Y-84912652D01*
X11092857Y-84912652D02*
X10659523Y-84912652D01*
D10*
D11*
X11402380Y-135469795D02*
X11340476Y-135531700D01*
X11340476Y-135531700D02*
X11154761Y-135593604D01*
X11154761Y-135593604D02*
X11030952Y-135593604D01*
X11030952Y-135593604D02*
X10845238Y-135531700D01*
X10845238Y-135531700D02*
X10721428Y-135407890D01*
X10721428Y-135407890D02*
X10659523Y-135284080D01*
X10659523Y-135284080D02*
X10597619Y-135036461D01*
X10597619Y-135036461D02*
X10597619Y-134850747D01*
X10597619Y-134850747D02*
X10659523Y-134603128D01*
X10659523Y-134603128D02*
X10721428Y-134479319D01*
X10721428Y-134479319D02*
X10845238Y-134355509D01*
X10845238Y-134355509D02*
X11030952Y-134293604D01*
X11030952Y-134293604D02*
X11154761Y-134293604D01*
X11154761Y-134293604D02*
X11340476Y-134355509D01*
X11340476Y-134355509D02*
X11402380Y-134417414D01*
D10*
D11*
X10659523Y-185593604D02*
X10659523Y-184293604D01*
X10659523Y-184293604D02*
X10969047Y-184293604D01*
X10969047Y-184293604D02*
X11154761Y-184355509D01*
X11154761Y-184355509D02*
X11278571Y-184479319D01*
X11278571Y-184479319D02*
X11340476Y-184603128D01*
X11340476Y-184603128D02*
X11402380Y-184850747D01*
X11402380Y-184850747D02*
X11402380Y-185036461D01*
X11402380Y-185036461D02*
X11340476Y-185284080D01*
X11340476Y-185284080D02*
X11278571Y-185407890D01*
X11278571Y-185407890D02*
X11154761Y-185531700D01*
X11154761Y-185531700D02*
X10969047Y-185593604D01*
X10969047Y-185593604D02*
X10659523Y-185593604D01*
D10*
D11*
X287002200Y-60000000D02*
X285002200Y-60000000D01*
D10*
D11*
X287002200Y-110000000D02*
X285002200Y-110000000D01*
D10*
D11*
X287002200Y-160000000D02*
X285002200Y-160000000D01*
D10*
D11*
X285692676Y-35222176D02*
X286311723Y-35222176D01*
X285568866Y-35593604D02*
X286002199Y-34293604D01*
X286002199Y-34293604D02*
X286435533Y-35593604D01*
D10*
D11*
X286095057Y-84912652D02*
X286280771Y-84974557D01*
X286280771Y-84974557D02*
X286342676Y-85036461D01*
X286342676Y-85036461D02*
X286404580Y-85160271D01*
X286404580Y-85160271D02*
X286404580Y-85345985D01*
X286404580Y-85345985D02*
X286342676Y-85469795D01*
X286342676Y-85469795D02*
X286280771Y-85531700D01*
X286280771Y-85531700D02*
X286156961Y-85593604D01*
X286156961Y-85593604D02*
X285661723Y-85593604D01*
X285661723Y-85593604D02*
X285661723Y-84293604D01*
X285661723Y-84293604D02*
X286095057Y-84293604D01*
X286095057Y-84293604D02*
X286218866Y-84355509D01*
X286218866Y-84355509D02*
X286280771Y-84417414D01*
X286280771Y-84417414D02*
X286342676Y-84541223D01*
X286342676Y-84541223D02*
X286342676Y-84665033D01*
X286342676Y-84665033D02*
X286280771Y-84788842D01*
X286280771Y-84788842D02*
X286218866Y-84850747D01*
X286218866Y-84850747D02*
X286095057Y-84912652D01*
X286095057Y-84912652D02*
X285661723Y-84912652D01*
D10*
D11*
X286404580Y-135469795D02*
X286342676Y-135531700D01*
X286342676Y-135531700D02*
X286156961Y-135593604D01*
X286156961Y-135593604D02*
X286033152Y-135593604D01*
X286033152Y-135593604D02*
X285847438Y-135531700D01*
X285847438Y-135531700D02*
X285723628Y-135407890D01*
X285723628Y-135407890D02*
X285661723Y-135284080D01*
X285661723Y-135284080D02*
X285599819Y-135036461D01*
X285599819Y-135036461D02*
X285599819Y-134850747D01*
X285599819Y-134850747D02*
X285661723Y-134603128D01*
X285661723Y-134603128D02*
X285723628Y-134479319D01*
X285723628Y-134479319D02*
X285847438Y-134355509D01*
X285847438Y-134355509D02*
X286033152Y-134293604D01*
X286033152Y-134293604D02*
X286156961Y-134293604D01*
X286156961Y-134293604D02*
X286342676Y-134355509D01*
X286342676Y-134355509D02*
X286404580Y-134417414D01*
D10*
D11*
X285661723Y-185593604D02*
X285661723Y-184293604D01*
X285661723Y-184293604D02*
X285971247Y-184293604D01*
X285971247Y-184293604D02*
X286156961Y-184355509D01*
X286156961Y-184355509D02*
X286280771Y-184479319D01*
X286280771Y-184479319D02*
X286342676Y-184603128D01*
X286342676Y-184603128D02*
X286404580Y-184850747D01*
X286404580Y-184850747D02*
X286404580Y-185036461D01*
X286404580Y-185036461D02*
X286342676Y-185284080D01*
X286342676Y-185284080D02*
X286280771Y-185407890D01*
X286280771Y-185407890D02*
X286156961Y-185531700D01*
X286156961Y-185531700D02*
X285971247Y-185593604D01*
X285971247Y-185593604D02*
X285661723Y-185593604D01*
D10*
D11*
X200458026Y-193793328D02*
X200458026Y-192293328D01*
X200458026Y-192293328D02*
X200815169Y-192293328D01*
X200815169Y-192293328D02*
X201029455Y-192364757D01*
X201029455Y-192364757D02*
X201172312Y-192507614D01*
X201172312Y-192507614D02*
X201243741Y-192650471D01*
X201243741Y-192650471D02*
X201315169Y-192936185D01*
X201315169Y-192936185D02*
X201315169Y-193150471D01*
X201315169Y-193150471D02*
X201243741Y-193436185D01*
X201243741Y-193436185D02*
X201172312Y-193579042D01*
X201172312Y-193579042D02*
X201029455Y-193721900D01*
X201029455Y-193721900D02*
X200815169Y-193793328D01*
X200815169Y-193793328D02*
X200458026Y-193793328D01*
X202600884Y-193793328D02*
X202600884Y-193007614D01*
X202600884Y-193007614D02*
X202529455Y-192864757D01*
X202529455Y-192864757D02*
X202386598Y-192793328D01*
X202386598Y-192793328D02*
X202100884Y-192793328D01*
X202100884Y-192793328D02*
X201958026Y-192864757D01*
X202600884Y-193721900D02*
X202458026Y-193793328D01*
X202458026Y-193793328D02*
X202100884Y-193793328D01*
X202100884Y-193793328D02*
X201958026Y-193721900D01*
X201958026Y-193721900D02*
X201886598Y-193579042D01*
X201886598Y-193579042D02*
X201886598Y-193436185D01*
X201886598Y-193436185D02*
X201958026Y-193293328D01*
X201958026Y-193293328D02*
X202100884Y-193221900D01*
X202100884Y-193221900D02*
X202458026Y-193221900D01*
X202458026Y-193221900D02*
X202600884Y-193150471D01*
X203100884Y-192793328D02*
X203672312Y-192793328D01*
X203315169Y-192293328D02*
X203315169Y-193579042D01*
X203315169Y-193579042D02*
X203386598Y-193721900D01*
X203386598Y-193721900D02*
X203529455Y-193793328D01*
X203529455Y-193793328D02*
X203672312Y-193793328D01*
X204743741Y-193721900D02*
X204600884Y-193793328D01*
X204600884Y-193793328D02*
X204315170Y-193793328D01*
X204315170Y-193793328D02*
X204172312Y-193721900D01*
X204172312Y-193721900D02*
X204100884Y-193579042D01*
X204100884Y-193579042D02*
X204100884Y-193007614D01*
X204100884Y-193007614D02*
X204172312Y-192864757D01*
X204172312Y-192864757D02*
X204315170Y-192793328D01*
X204315170Y-192793328D02*
X204600884Y-192793328D01*
X204600884Y-192793328D02*
X204743741Y-192864757D01*
X204743741Y-192864757D02*
X204815170Y-193007614D01*
X204815170Y-193007614D02*
X204815170Y-193150471D01*
X204815170Y-193150471D02*
X204100884Y-193293328D01*
X205458026Y-193650471D02*
X205529455Y-193721900D01*
X205529455Y-193721900D02*
X205458026Y-193793328D01*
X205458026Y-193793328D02*
X205386598Y-193721900D01*
X205386598Y-193721900D02*
X205458026Y-193650471D01*
X205458026Y-193650471D02*
X205458026Y-193793328D01*
X205458026Y-192864757D02*
X205529455Y-192936185D01*
X205529455Y-192936185D02*
X205458026Y-193007614D01*
X205458026Y-193007614D02*
X205386598Y-192936185D01*
X205386598Y-192936185D02*
X205458026Y-192864757D01*
X205458026Y-192864757D02*
X205458026Y-193007614D01*
D10*
D11*
X177002200Y-194507200D02*
X285002200Y-194507200D01*
D10*
D11*
X178458026Y-196593328D02*
X178458026Y-195093328D01*
X179315169Y-196593328D02*
X178672312Y-195736185D01*
X179315169Y-195093328D02*
X178458026Y-195950471D01*
X179958026Y-196593328D02*
X179958026Y-195593328D01*
X179958026Y-195093328D02*
X179886598Y-195164757D01*
X179886598Y-195164757D02*
X179958026Y-195236185D01*
X179958026Y-195236185D02*
X180029455Y-195164757D01*
X180029455Y-195164757D02*
X179958026Y-195093328D01*
X179958026Y-195093328D02*
X179958026Y-195236185D01*
X181529455Y-196450471D02*
X181458027Y-196521900D01*
X181458027Y-196521900D02*
X181243741Y-196593328D01*
X181243741Y-196593328D02*
X181100884Y-196593328D01*
X181100884Y-196593328D02*
X180886598Y-196521900D01*
X180886598Y-196521900D02*
X180743741Y-196379042D01*
X180743741Y-196379042D02*
X180672312Y-196236185D01*
X180672312Y-196236185D02*
X180600884Y-195950471D01*
X180600884Y-195950471D02*
X180600884Y-195736185D01*
X180600884Y-195736185D02*
X180672312Y-195450471D01*
X180672312Y-195450471D02*
X180743741Y-195307614D01*
X180743741Y-195307614D02*
X180886598Y-195164757D01*
X180886598Y-195164757D02*
X181100884Y-195093328D01*
X181100884Y-195093328D02*
X181243741Y-195093328D01*
X181243741Y-195093328D02*
X181458027Y-195164757D01*
X181458027Y-195164757D02*
X181529455Y-195236185D01*
X182815170Y-196593328D02*
X182815170Y-195807614D01*
X182815170Y-195807614D02*
X182743741Y-195664757D01*
X182743741Y-195664757D02*
X182600884Y-195593328D01*
X182600884Y-195593328D02*
X182315170Y-195593328D01*
X182315170Y-195593328D02*
X182172312Y-195664757D01*
X182815170Y-196521900D02*
X182672312Y-196593328D01*
X182672312Y-196593328D02*
X182315170Y-196593328D01*
X182315170Y-196593328D02*
X182172312Y-196521900D01*
X182172312Y-196521900D02*
X182100884Y-196379042D01*
X182100884Y-196379042D02*
X182100884Y-196236185D01*
X182100884Y-196236185D02*
X182172312Y-196093328D01*
X182172312Y-196093328D02*
X182315170Y-196021900D01*
X182315170Y-196021900D02*
X182672312Y-196021900D01*
X182672312Y-196021900D02*
X182815170Y-195950471D01*
X184172313Y-196593328D02*
X184172313Y-195093328D01*
X184172313Y-196521900D02*
X184029455Y-196593328D01*
X184029455Y-196593328D02*
X183743741Y-196593328D01*
X183743741Y-196593328D02*
X183600884Y-196521900D01*
X183600884Y-196521900D02*
X183529455Y-196450471D01*
X183529455Y-196450471D02*
X183458027Y-196307614D01*
X183458027Y-196307614D02*
X183458027Y-195879042D01*
X183458027Y-195879042D02*
X183529455Y-195736185D01*
X183529455Y-195736185D02*
X183600884Y-195664757D01*
X183600884Y-195664757D02*
X183743741Y-195593328D01*
X183743741Y-195593328D02*
X184029455Y-195593328D01*
X184029455Y-195593328D02*
X184172313Y-195664757D01*
X186029455Y-195807614D02*
X186529455Y-195807614D01*
X186743741Y-196593328D02*
X186029455Y-196593328D01*
X186029455Y-196593328D02*
X186029455Y-195093328D01*
X186029455Y-195093328D02*
X186743741Y-195093328D01*
X187386598Y-196450471D02*
X187458027Y-196521900D01*
X187458027Y-196521900D02*
X187386598Y-196593328D01*
X187386598Y-196593328D02*
X187315170Y-196521900D01*
X187315170Y-196521900D02*
X187386598Y-196450471D01*
X187386598Y-196450471D02*
X187386598Y-196593328D01*
X188100884Y-196593328D02*
X188100884Y-195093328D01*
X188100884Y-195093328D02*
X188458027Y-195093328D01*
X188458027Y-195093328D02*
X188672313Y-195164757D01*
X188672313Y-195164757D02*
X188815170Y-195307614D01*
X188815170Y-195307614D02*
X188886599Y-195450471D01*
X188886599Y-195450471D02*
X188958027Y-195736185D01*
X188958027Y-195736185D02*
X188958027Y-195950471D01*
X188958027Y-195950471D02*
X188886599Y-196236185D01*
X188886599Y-196236185D02*
X188815170Y-196379042D01*
X188815170Y-196379042D02*
X188672313Y-196521900D01*
X188672313Y-196521900D02*
X188458027Y-196593328D01*
X188458027Y-196593328D02*
X188100884Y-196593328D01*
X189600884Y-196450471D02*
X189672313Y-196521900D01*
X189672313Y-196521900D02*
X189600884Y-196593328D01*
X189600884Y-196593328D02*
X189529456Y-196521900D01*
X189529456Y-196521900D02*
X189600884Y-196450471D01*
X189600884Y-196450471D02*
X189600884Y-196593328D01*
X190243742Y-196164757D02*
X190958028Y-196164757D01*
X190100885Y-196593328D02*
X190600885Y-195093328D01*
X190600885Y-195093328D02*
X191100885Y-196593328D01*
X191600884Y-196450471D02*
X191672313Y-196521900D01*
X191672313Y-196521900D02*
X191600884Y-196593328D01*
X191600884Y-196593328D02*
X191529456Y-196521900D01*
X191529456Y-196521900D02*
X191600884Y-196450471D01*
X191600884Y-196450471D02*
X191600884Y-196593328D01*
X194600884Y-195593328D02*
X194600884Y-197093328D01*
X194600884Y-195664757D02*
X194743742Y-195593328D01*
X194743742Y-195593328D02*
X195029456Y-195593328D01*
X195029456Y-195593328D02*
X195172313Y-195664757D01*
X195172313Y-195664757D02*
X195243742Y-195736185D01*
X195243742Y-195736185D02*
X195315170Y-195879042D01*
X195315170Y-195879042D02*
X195315170Y-196307614D01*
X195315170Y-196307614D02*
X195243742Y-196450471D01*
X195243742Y-196450471D02*
X195172313Y-196521900D01*
X195172313Y-196521900D02*
X195029456Y-196593328D01*
X195029456Y-196593328D02*
X194743742Y-196593328D01*
X194743742Y-196593328D02*
X194600884Y-196521900D01*
X196600885Y-196521900D02*
X196458027Y-196593328D01*
X196458027Y-196593328D02*
X196172313Y-196593328D01*
X196172313Y-196593328D02*
X196029456Y-196521900D01*
X196029456Y-196521900D02*
X195958027Y-196450471D01*
X195958027Y-196450471D02*
X195886599Y-196307614D01*
X195886599Y-196307614D02*
X195886599Y-195879042D01*
X195886599Y-195879042D02*
X195958027Y-195736185D01*
X195958027Y-195736185D02*
X196029456Y-195664757D01*
X196029456Y-195664757D02*
X196172313Y-195593328D01*
X196172313Y-195593328D02*
X196458027Y-195593328D01*
X196458027Y-195593328D02*
X196600885Y-195664757D01*
X197243741Y-196593328D02*
X197243741Y-195093328D01*
X197243741Y-195664757D02*
X197386599Y-195593328D01*
X197386599Y-195593328D02*
X197672313Y-195593328D01*
X197672313Y-195593328D02*
X197815170Y-195664757D01*
X197815170Y-195664757D02*
X197886599Y-195736185D01*
X197886599Y-195736185D02*
X197958027Y-195879042D01*
X197958027Y-195879042D02*
X197958027Y-196307614D01*
X197958027Y-196307614D02*
X197886599Y-196450471D01*
X197886599Y-196450471D02*
X197815170Y-196521900D01*
X197815170Y-196521900D02*
X197672313Y-196593328D01*
X197672313Y-196593328D02*
X197386599Y-196593328D01*
X197386599Y-196593328D02*
X197243741Y-196521900D01*
X198600884Y-195593328D02*
X198600884Y-196593328D01*
X198600884Y-195736185D02*
X198672313Y-195664757D01*
X198672313Y-195664757D02*
X198815170Y-195593328D01*
X198815170Y-195593328D02*
X199029456Y-195593328D01*
X199029456Y-195593328D02*
X199172313Y-195664757D01*
X199172313Y-195664757D02*
X199243742Y-195807614D01*
X199243742Y-195807614D02*
X199243742Y-196593328D01*
X200529456Y-196521900D02*
X200386599Y-196593328D01*
X200386599Y-196593328D02*
X200100885Y-196593328D01*
X200100885Y-196593328D02*
X199958027Y-196521900D01*
X199958027Y-196521900D02*
X199886599Y-196379042D01*
X199886599Y-196379042D02*
X199886599Y-195807614D01*
X199886599Y-195807614D02*
X199958027Y-195664757D01*
X199958027Y-195664757D02*
X200100885Y-195593328D01*
X200100885Y-195593328D02*
X200386599Y-195593328D01*
X200386599Y-195593328D02*
X200529456Y-195664757D01*
X200529456Y-195664757D02*
X200600885Y-195807614D01*
X200600885Y-195807614D02*
X200600885Y-195950471D01*
X200600885Y-195950471D02*
X199886599Y-196093328D01*
X201100884Y-195593328D02*
X201386599Y-196593328D01*
X201386599Y-196593328D02*
X201672313Y-195879042D01*
X201672313Y-195879042D02*
X201958027Y-196593328D01*
X201958027Y-196593328D02*
X202243741Y-195593328D01*
X203815170Y-195093328D02*
X204815170Y-195093328D01*
X204815170Y-195093328D02*
X204172313Y-196593328D01*
X205386598Y-196450471D02*
X205458027Y-196521900D01*
X205458027Y-196521900D02*
X205386598Y-196593328D01*
X205386598Y-196593328D02*
X205315170Y-196521900D01*
X205315170Y-196521900D02*
X205386598Y-196450471D01*
X205386598Y-196450471D02*
X205386598Y-196593328D01*
X206386599Y-195093328D02*
X206529456Y-195093328D01*
X206529456Y-195093328D02*
X206672313Y-195164757D01*
X206672313Y-195164757D02*
X206743742Y-195236185D01*
X206743742Y-195236185D02*
X206815170Y-195379042D01*
X206815170Y-195379042D02*
X206886599Y-195664757D01*
X206886599Y-195664757D02*
X206886599Y-196021900D01*
X206886599Y-196021900D02*
X206815170Y-196307614D01*
X206815170Y-196307614D02*
X206743742Y-196450471D01*
X206743742Y-196450471D02*
X206672313Y-196521900D01*
X206672313Y-196521900D02*
X206529456Y-196593328D01*
X206529456Y-196593328D02*
X206386599Y-196593328D01*
X206386599Y-196593328D02*
X206243742Y-196521900D01*
X206243742Y-196521900D02*
X206172313Y-196450471D01*
X206172313Y-196450471D02*
X206100884Y-196307614D01*
X206100884Y-196307614D02*
X206029456Y-196021900D01*
X206029456Y-196021900D02*
X206029456Y-195664757D01*
X206029456Y-195664757D02*
X206100884Y-195379042D01*
X206100884Y-195379042D02*
X206172313Y-195236185D01*
X206172313Y-195236185D02*
X206243742Y-195164757D01*
X206243742Y-195164757D02*
X206386599Y-195093328D01*
X207529455Y-196450471D02*
X207600884Y-196521900D01*
X207600884Y-196521900D02*
X207529455Y-196593328D01*
X207529455Y-196593328D02*
X207458027Y-196521900D01*
X207458027Y-196521900D02*
X207529455Y-196450471D01*
X207529455Y-196450471D02*
X207529455Y-196593328D01*
X208886599Y-195093328D02*
X208600884Y-195093328D01*
X208600884Y-195093328D02*
X208458027Y-195164757D01*
X208458027Y-195164757D02*
X208386599Y-195236185D01*
X208386599Y-195236185D02*
X208243741Y-195450471D01*
X208243741Y-195450471D02*
X208172313Y-195736185D01*
X208172313Y-195736185D02*
X208172313Y-196307614D01*
X208172313Y-196307614D02*
X208243741Y-196450471D01*
X208243741Y-196450471D02*
X208315170Y-196521900D01*
X208315170Y-196521900D02*
X208458027Y-196593328D01*
X208458027Y-196593328D02*
X208743741Y-196593328D01*
X208743741Y-196593328D02*
X208886599Y-196521900D01*
X208886599Y-196521900D02*
X208958027Y-196450471D01*
X208958027Y-196450471D02*
X209029456Y-196307614D01*
X209029456Y-196307614D02*
X209029456Y-195950471D01*
X209029456Y-195950471D02*
X208958027Y-195807614D01*
X208958027Y-195807614D02*
X208886599Y-195736185D01*
X208886599Y-195736185D02*
X208743741Y-195664757D01*
X208743741Y-195664757D02*
X208458027Y-195664757D01*
X208458027Y-195664757D02*
X208315170Y-195736185D01*
X208315170Y-195736185D02*
X208243741Y-195807614D01*
X208243741Y-195807614D02*
X208172313Y-195950471D01*
D10*
D11*
X177002200Y-191507200D02*
X285002200Y-191507200D01*
D10*
D12*
X264413853Y-193785528D02*
X263913853Y-193071242D01*
X263556710Y-193785528D02*
X263556710Y-192285528D01*
X263556710Y-192285528D02*
X264128139Y-192285528D01*
X264128139Y-192285528D02*
X264270996Y-192356957D01*
X264270996Y-192356957D02*
X264342425Y-192428385D01*
X264342425Y-192428385D02*
X264413853Y-192571242D01*
X264413853Y-192571242D02*
X264413853Y-192785528D01*
X264413853Y-192785528D02*
X264342425Y-192928385D01*
X264342425Y-192928385D02*
X264270996Y-192999814D01*
X264270996Y-192999814D02*
X264128139Y-193071242D01*
X264128139Y-193071242D02*
X263556710Y-193071242D01*
X265628139Y-193714100D02*
X265485282Y-193785528D01*
X265485282Y-193785528D02*
X265199568Y-193785528D01*
X265199568Y-193785528D02*
X265056710Y-193714100D01*
X265056710Y-193714100D02*
X264985282Y-193571242D01*
X264985282Y-193571242D02*
X264985282Y-192999814D01*
X264985282Y-192999814D02*
X265056710Y-192856957D01*
X265056710Y-192856957D02*
X265199568Y-192785528D01*
X265199568Y-192785528D02*
X265485282Y-192785528D01*
X265485282Y-192785528D02*
X265628139Y-192856957D01*
X265628139Y-192856957D02*
X265699568Y-192999814D01*
X265699568Y-192999814D02*
X265699568Y-193142671D01*
X265699568Y-193142671D02*
X264985282Y-193285528D01*
X266199567Y-192785528D02*
X266556710Y-193785528D01*
X266556710Y-193785528D02*
X266913853Y-192785528D01*
X267485281Y-193642671D02*
X267556710Y-193714100D01*
X267556710Y-193714100D02*
X267485281Y-193785528D01*
X267485281Y-193785528D02*
X267413853Y-193714100D01*
X267413853Y-193714100D02*
X267485281Y-193642671D01*
X267485281Y-193642671D02*
X267485281Y-193785528D01*
X267485281Y-192856957D02*
X267556710Y-192928385D01*
X267556710Y-192928385D02*
X267485281Y-192999814D01*
X267485281Y-192999814D02*
X267413853Y-192928385D01*
X267413853Y-192928385D02*
X267485281Y-192856957D01*
X267485281Y-192856957D02*
X267485281Y-192999814D01*
D10*
D11*
X178386598Y-193721900D02*
X178600884Y-193793328D01*
X178600884Y-193793328D02*
X178958026Y-193793328D01*
X178958026Y-193793328D02*
X179100884Y-193721900D01*
X179100884Y-193721900D02*
X179172312Y-193650471D01*
X179172312Y-193650471D02*
X179243741Y-193507614D01*
X179243741Y-193507614D02*
X179243741Y-193364757D01*
X179243741Y-193364757D02*
X179172312Y-193221900D01*
X179172312Y-193221900D02*
X179100884Y-193150471D01*
X179100884Y-193150471D02*
X178958026Y-193079042D01*
X178958026Y-193079042D02*
X178672312Y-193007614D01*
X178672312Y-193007614D02*
X178529455Y-192936185D01*
X178529455Y-192936185D02*
X178458026Y-192864757D01*
X178458026Y-192864757D02*
X178386598Y-192721900D01*
X178386598Y-192721900D02*
X178386598Y-192579042D01*
X178386598Y-192579042D02*
X178458026Y-192436185D01*
X178458026Y-192436185D02*
X178529455Y-192364757D01*
X178529455Y-192364757D02*
X178672312Y-192293328D01*
X178672312Y-192293328D02*
X179029455Y-192293328D01*
X179029455Y-192293328D02*
X179243741Y-192364757D01*
X179886597Y-193793328D02*
X179886597Y-192793328D01*
X179886597Y-192293328D02*
X179815169Y-192364757D01*
X179815169Y-192364757D02*
X179886597Y-192436185D01*
X179886597Y-192436185D02*
X179958026Y-192364757D01*
X179958026Y-192364757D02*
X179886597Y-192293328D01*
X179886597Y-192293328D02*
X179886597Y-192436185D01*
X180458026Y-192793328D02*
X181243741Y-192793328D01*
X181243741Y-192793328D02*
X180458026Y-193793328D01*
X180458026Y-193793328D02*
X181243741Y-193793328D01*
X182386598Y-193721900D02*
X182243741Y-193793328D01*
X182243741Y-193793328D02*
X181958027Y-193793328D01*
X181958027Y-193793328D02*
X181815169Y-193721900D01*
X181815169Y-193721900D02*
X181743741Y-193579042D01*
X181743741Y-193579042D02*
X181743741Y-193007614D01*
X181743741Y-193007614D02*
X181815169Y-192864757D01*
X181815169Y-192864757D02*
X181958027Y-192793328D01*
X181958027Y-192793328D02*
X182243741Y-192793328D01*
X182243741Y-192793328D02*
X182386598Y-192864757D01*
X182386598Y-192864757D02*
X182458027Y-193007614D01*
X182458027Y-193007614D02*
X182458027Y-193150471D01*
X182458027Y-193150471D02*
X181743741Y-193293328D01*
X183100883Y-193650471D02*
X183172312Y-193721900D01*
X183172312Y-193721900D02*
X183100883Y-193793328D01*
X183100883Y-193793328D02*
X183029455Y-193721900D01*
X183029455Y-193721900D02*
X183100883Y-193650471D01*
X183100883Y-193650471D02*
X183100883Y-193793328D01*
X183100883Y-192864757D02*
X183172312Y-192936185D01*
X183172312Y-192936185D02*
X183100883Y-193007614D01*
X183100883Y-193007614D02*
X183029455Y-192936185D01*
X183029455Y-192936185D02*
X183100883Y-192864757D01*
X183100883Y-192864757D02*
X183100883Y-193007614D01*
X184886598Y-193364757D02*
X185600884Y-193364757D01*
X184743741Y-193793328D02*
X185243741Y-192293328D01*
X185243741Y-192293328D02*
X185743741Y-193793328D01*
X186886598Y-192793328D02*
X186886598Y-193793328D01*
X186529455Y-192221900D02*
X186172312Y-193293328D01*
X186172312Y-193293328D02*
X187100883Y-193293328D01*
D10*
D11*
X263458026Y-196593328D02*
X263458026Y-195093328D01*
X264815170Y-196593328D02*
X264815170Y-195093328D01*
X264815170Y-196521900D02*
X264672312Y-196593328D01*
X264672312Y-196593328D02*
X264386598Y-196593328D01*
X264386598Y-196593328D02*
X264243741Y-196521900D01*
X264243741Y-196521900D02*
X264172312Y-196450471D01*
X264172312Y-196450471D02*
X264100884Y-196307614D01*
X264100884Y-196307614D02*
X264100884Y-195879042D01*
X264100884Y-195879042D02*
X264172312Y-195736185D01*
X264172312Y-195736185D02*
X264243741Y-195664757D01*
X264243741Y-195664757D02*
X264386598Y-195593328D01*
X264386598Y-195593328D02*
X264672312Y-195593328D01*
X264672312Y-195593328D02*
X264815170Y-195664757D01*
X265529455Y-196450471D02*
X265600884Y-196521900D01*
X265600884Y-196521900D02*
X265529455Y-196593328D01*
X265529455Y-196593328D02*
X265458027Y-196521900D01*
X265458027Y-196521900D02*
X265529455Y-196450471D01*
X265529455Y-196450471D02*
X265529455Y-196593328D01*
X265529455Y-195664757D02*
X265600884Y-195736185D01*
X265600884Y-195736185D02*
X265529455Y-195807614D01*
X265529455Y-195807614D02*
X265458027Y-195736185D01*
X265458027Y-195736185D02*
X265529455Y-195664757D01*
X265529455Y-195664757D02*
X265529455Y-195807614D01*
X268172313Y-196593328D02*
X267315170Y-196593328D01*
X267743741Y-196593328D02*
X267743741Y-195093328D01*
X267743741Y-195093328D02*
X267600884Y-195307614D01*
X267600884Y-195307614D02*
X267458027Y-195450471D01*
X267458027Y-195450471D02*
X267315170Y-195521900D01*
X269886598Y-195021900D02*
X268600884Y-196950471D01*
X271172313Y-196593328D02*
X270315170Y-196593328D01*
X270743741Y-196593328D02*
X270743741Y-195093328D01*
X270743741Y-195093328D02*
X270600884Y-195307614D01*
X270600884Y-195307614D02*
X270458027Y-195450471D01*
X270458027Y-195450471D02*
X270315170Y-195521900D01*
D10*
D11*
X177002200Y-187507200D02*
X285002200Y-187507200D01*
D10*
D13*
X178693928Y-188211638D02*
X179836785Y-188211638D01*
X179015357Y-190211638D02*
X179265357Y-188211638D01*
X180253452Y-190211638D02*
X180420119Y-188878304D01*
X180503452Y-188211638D02*
X180396309Y-188306876D01*
X180396309Y-188306876D02*
X180479643Y-188402114D01*
X180479643Y-188402114D02*
X180586786Y-188306876D01*
X180586786Y-188306876D02*
X180503452Y-188211638D01*
X180503452Y-188211638D02*
X180479643Y-188402114D01*
X181086786Y-188878304D02*
X181848690Y-188878304D01*
X181455833Y-188211638D02*
X181241548Y-189925923D01*
X181241548Y-189925923D02*
X181312976Y-190116400D01*
X181312976Y-190116400D02*
X181491548Y-190211638D01*
X181491548Y-190211638D02*
X181682024Y-190211638D01*
X182634405Y-190211638D02*
X182455833Y-190116400D01*
X182455833Y-190116400D02*
X182384405Y-189925923D01*
X182384405Y-189925923D02*
X182598690Y-188211638D01*
X184170119Y-190116400D02*
X183967738Y-190211638D01*
X183967738Y-190211638D02*
X183586785Y-190211638D01*
X183586785Y-190211638D02*
X183408214Y-190116400D01*
X183408214Y-190116400D02*
X183336785Y-189925923D01*
X183336785Y-189925923D02*
X183432024Y-189164019D01*
X183432024Y-189164019D02*
X183551071Y-188973542D01*
X183551071Y-188973542D02*
X183753452Y-188878304D01*
X183753452Y-188878304D02*
X184134404Y-188878304D01*
X184134404Y-188878304D02*
X184312976Y-188973542D01*
X184312976Y-188973542D02*
X184384404Y-189164019D01*
X184384404Y-189164019D02*
X184360595Y-189354495D01*
X184360595Y-189354495D02*
X183384404Y-189544971D01*
X185134405Y-190021161D02*
X185217738Y-190116400D01*
X185217738Y-190116400D02*
X185110595Y-190211638D01*
X185110595Y-190211638D02*
X185027262Y-190116400D01*
X185027262Y-190116400D02*
X185134405Y-190021161D01*
X185134405Y-190021161D02*
X185110595Y-190211638D01*
X185265357Y-188973542D02*
X185348690Y-189068780D01*
X185348690Y-189068780D02*
X185241548Y-189164019D01*
X185241548Y-189164019D02*
X185158214Y-189068780D01*
X185158214Y-189068780D02*
X185265357Y-188973542D01*
X185265357Y-188973542D02*
X185241548Y-189164019D01*
D10*
D11*
X178958026Y-185607614D02*
X178458026Y-185607614D01*
X178458026Y-186393328D02*
X178458026Y-184893328D01*
X178458026Y-184893328D02*
X179172312Y-184893328D01*
X179743740Y-186393328D02*
X179743740Y-185393328D01*
X179743740Y-184893328D02*
X179672312Y-184964757D01*
X179672312Y-184964757D02*
X179743740Y-185036185D01*
X179743740Y-185036185D02*
X179815169Y-184964757D01*
X179815169Y-184964757D02*
X179743740Y-184893328D01*
X179743740Y-184893328D02*
X179743740Y-185036185D01*
X180672312Y-186393328D02*
X180529455Y-186321900D01*
X180529455Y-186321900D02*
X180458026Y-186179042D01*
X180458026Y-186179042D02*
X180458026Y-184893328D01*
X181815169Y-186321900D02*
X181672312Y-186393328D01*
X181672312Y-186393328D02*
X181386598Y-186393328D01*
X181386598Y-186393328D02*
X181243740Y-186321900D01*
X181243740Y-186321900D02*
X181172312Y-186179042D01*
X181172312Y-186179042D02*
X181172312Y-185607614D01*
X181172312Y-185607614D02*
X181243740Y-185464757D01*
X181243740Y-185464757D02*
X181386598Y-185393328D01*
X181386598Y-185393328D02*
X181672312Y-185393328D01*
X181672312Y-185393328D02*
X181815169Y-185464757D01*
X181815169Y-185464757D02*
X181886598Y-185607614D01*
X181886598Y-185607614D02*
X181886598Y-185750471D01*
X181886598Y-185750471D02*
X181172312Y-185893328D01*
X182529454Y-186250471D02*
X182600883Y-186321900D01*
X182600883Y-186321900D02*
X182529454Y-186393328D01*
X182529454Y-186393328D02*
X182458026Y-186321900D01*
X182458026Y-186321900D02*
X182529454Y-186250471D01*
X182529454Y-186250471D02*
X182529454Y-186393328D01*
X182529454Y-185464757D02*
X182600883Y-185536185D01*
X182600883Y-185536185D02*
X182529454Y-185607614D01*
X182529454Y-185607614D02*
X182458026Y-185536185D01*
X182458026Y-185536185D02*
X182529454Y-185464757D01*
X182529454Y-185464757D02*
X182529454Y-185607614D01*
X184386597Y-186393328D02*
X184386597Y-185393328D01*
X184386597Y-185679042D02*
X184458026Y-185536185D01*
X184458026Y-185536185D02*
X184529455Y-185464757D01*
X184529455Y-185464757D02*
X184672312Y-185393328D01*
X184672312Y-185393328D02*
X184815169Y-185393328D01*
X185315168Y-186393328D02*
X185315168Y-185393328D01*
X185315168Y-185679042D02*
X185386597Y-185536185D01*
X185386597Y-185536185D02*
X185458026Y-185464757D01*
X185458026Y-185464757D02*
X185600883Y-185393328D01*
X185600883Y-185393328D02*
X185743740Y-185393328D01*
X186886597Y-186321900D02*
X186743739Y-186393328D01*
X186743739Y-186393328D02*
X186458025Y-186393328D01*
X186458025Y-186393328D02*
X186315168Y-186321900D01*
X186315168Y-186321900D02*
X186243739Y-186250471D01*
X186243739Y-186250471D02*
X186172311Y-186107614D01*
X186172311Y-186107614D02*
X186172311Y-185679042D01*
X186172311Y-185679042D02*
X186243739Y-185536185D01*
X186243739Y-185536185D02*
X186315168Y-185464757D01*
X186315168Y-185464757D02*
X186458025Y-185393328D01*
X186458025Y-185393328D02*
X186743739Y-185393328D01*
X186743739Y-185393328D02*
X186886597Y-185464757D01*
X187172311Y-186536185D02*
X188315168Y-186536185D01*
X188672310Y-185393328D02*
X188672310Y-186893328D01*
X188672310Y-185464757D02*
X188815168Y-185393328D01*
X188815168Y-185393328D02*
X189100882Y-185393328D01*
X189100882Y-185393328D02*
X189243739Y-185464757D01*
X189243739Y-185464757D02*
X189315168Y-185536185D01*
X189315168Y-185536185D02*
X189386596Y-185679042D01*
X189386596Y-185679042D02*
X189386596Y-186107614D01*
X189386596Y-186107614D02*
X189315168Y-186250471D01*
X189315168Y-186250471D02*
X189243739Y-186321900D01*
X189243739Y-186321900D02*
X189100882Y-186393328D01*
X189100882Y-186393328D02*
X188815168Y-186393328D01*
X188815168Y-186393328D02*
X188672310Y-186321900D01*
X190672311Y-186321900D02*
X190529453Y-186393328D01*
X190529453Y-186393328D02*
X190243739Y-186393328D01*
X190243739Y-186393328D02*
X190100882Y-186321900D01*
X190100882Y-186321900D02*
X190029453Y-186250471D01*
X190029453Y-186250471D02*
X189958025Y-186107614D01*
X189958025Y-186107614D02*
X189958025Y-185679042D01*
X189958025Y-185679042D02*
X190029453Y-185536185D01*
X190029453Y-185536185D02*
X190100882Y-185464757D01*
X190100882Y-185464757D02*
X190243739Y-185393328D01*
X190243739Y-185393328D02*
X190529453Y-185393328D01*
X190529453Y-185393328D02*
X190672311Y-185464757D01*
X191315167Y-186393328D02*
X191315167Y-184893328D01*
X191315167Y-185464757D02*
X191458025Y-185393328D01*
X191458025Y-185393328D02*
X191743739Y-185393328D01*
X191743739Y-185393328D02*
X191886596Y-185464757D01*
X191886596Y-185464757D02*
X191958025Y-185536185D01*
X191958025Y-185536185D02*
X192029453Y-185679042D01*
X192029453Y-185679042D02*
X192029453Y-186107614D01*
X192029453Y-186107614D02*
X191958025Y-186250471D01*
X191958025Y-186250471D02*
X191886596Y-186321900D01*
X191886596Y-186321900D02*
X191743739Y-186393328D01*
X191743739Y-186393328D02*
X191458025Y-186393328D01*
X191458025Y-186393328D02*
X191315167Y-186321900D01*
X192529453Y-184893328D02*
X193458025Y-184893328D01*
X193458025Y-184893328D02*
X192958025Y-185464757D01*
X192958025Y-185464757D02*
X193172310Y-185464757D01*
X193172310Y-185464757D02*
X193315168Y-185536185D01*
X193315168Y-185536185D02*
X193386596Y-185607614D01*
X193386596Y-185607614D02*
X193458025Y-185750471D01*
X193458025Y-185750471D02*
X193458025Y-186107614D01*
X193458025Y-186107614D02*
X193386596Y-186250471D01*
X193386596Y-186250471D02*
X193315168Y-186321900D01*
X193315168Y-186321900D02*
X193172310Y-186393328D01*
X193172310Y-186393328D02*
X192743739Y-186393328D01*
X192743739Y-186393328D02*
X192600882Y-186321900D01*
X192600882Y-186321900D02*
X192529453Y-186250471D01*
X194100881Y-186250471D02*
X194172310Y-186321900D01*
X194172310Y-186321900D02*
X194100881Y-186393328D01*
X194100881Y-186393328D02*
X194029453Y-186321900D01*
X194029453Y-186321900D02*
X194100881Y-186250471D01*
X194100881Y-186250471D02*
X194100881Y-186393328D01*
X194815167Y-186393328D02*
X194815167Y-184893328D01*
X194958025Y-185821900D02*
X195386596Y-186393328D01*
X195386596Y-185393328D02*
X194815167Y-185964757D01*
X196029453Y-186393328D02*
X196029453Y-185393328D01*
X196029453Y-184893328D02*
X195958025Y-184964757D01*
X195958025Y-184964757D02*
X196029453Y-185036185D01*
X196029453Y-185036185D02*
X196100882Y-184964757D01*
X196100882Y-184964757D02*
X196029453Y-184893328D01*
X196029453Y-184893328D02*
X196029453Y-185036185D01*
X197386597Y-186321900D02*
X197243739Y-186393328D01*
X197243739Y-186393328D02*
X196958025Y-186393328D01*
X196958025Y-186393328D02*
X196815168Y-186321900D01*
X196815168Y-186321900D02*
X196743739Y-186250471D01*
X196743739Y-186250471D02*
X196672311Y-186107614D01*
X196672311Y-186107614D02*
X196672311Y-185679042D01*
X196672311Y-185679042D02*
X196743739Y-185536185D01*
X196743739Y-185536185D02*
X196815168Y-185464757D01*
X196815168Y-185464757D02*
X196958025Y-185393328D01*
X196958025Y-185393328D02*
X197243739Y-185393328D01*
X197243739Y-185393328D02*
X197386597Y-185464757D01*
X198672311Y-186393328D02*
X198672311Y-185607614D01*
X198672311Y-185607614D02*
X198600882Y-185464757D01*
X198600882Y-185464757D02*
X198458025Y-185393328D01*
X198458025Y-185393328D02*
X198172311Y-185393328D01*
X198172311Y-185393328D02*
X198029453Y-185464757D01*
X198672311Y-186321900D02*
X198529453Y-186393328D01*
X198529453Y-186393328D02*
X198172311Y-186393328D01*
X198172311Y-186393328D02*
X198029453Y-186321900D01*
X198029453Y-186321900D02*
X197958025Y-186179042D01*
X197958025Y-186179042D02*
X197958025Y-186036185D01*
X197958025Y-186036185D02*
X198029453Y-185893328D01*
X198029453Y-185893328D02*
X198172311Y-185821900D01*
X198172311Y-185821900D02*
X198529453Y-185821900D01*
X198529453Y-185821900D02*
X198672311Y-185750471D01*
X200029454Y-186393328D02*
X200029454Y-184893328D01*
X200029454Y-186321900D02*
X199886596Y-186393328D01*
X199886596Y-186393328D02*
X199600882Y-186393328D01*
X199600882Y-186393328D02*
X199458025Y-186321900D01*
X199458025Y-186321900D02*
X199386596Y-186250471D01*
X199386596Y-186250471D02*
X199315168Y-186107614D01*
X199315168Y-186107614D02*
X199315168Y-185679042D01*
X199315168Y-185679042D02*
X199386596Y-185536185D01*
X199386596Y-185536185D02*
X199458025Y-185464757D01*
X199458025Y-185464757D02*
X199600882Y-185393328D01*
X199600882Y-185393328D02*
X199886596Y-185393328D01*
X199886596Y-185393328D02*
X200029454Y-185464757D01*
X200386597Y-186536185D02*
X201529454Y-186536185D01*
X201886596Y-185393328D02*
X201886596Y-186893328D01*
X201886596Y-185464757D02*
X202029454Y-185393328D01*
X202029454Y-185393328D02*
X202315168Y-185393328D01*
X202315168Y-185393328D02*
X202458025Y-185464757D01*
X202458025Y-185464757D02*
X202529454Y-185536185D01*
X202529454Y-185536185D02*
X202600882Y-185679042D01*
X202600882Y-185679042D02*
X202600882Y-186107614D01*
X202600882Y-186107614D02*
X202529454Y-186250471D01*
X202529454Y-186250471D02*
X202458025Y-186321900D01*
X202458025Y-186321900D02*
X202315168Y-186393328D01*
X202315168Y-186393328D02*
X202029454Y-186393328D01*
X202029454Y-186393328D02*
X201886596Y-186321900D01*
X203886597Y-186321900D02*
X203743739Y-186393328D01*
X203743739Y-186393328D02*
X203458025Y-186393328D01*
X203458025Y-186393328D02*
X203315168Y-186321900D01*
X203315168Y-186321900D02*
X203243739Y-186250471D01*
X203243739Y-186250471D02*
X203172311Y-186107614D01*
X203172311Y-186107614D02*
X203172311Y-185679042D01*
X203172311Y-185679042D02*
X203243739Y-185536185D01*
X203243739Y-185536185D02*
X203315168Y-185464757D01*
X203315168Y-185464757D02*
X203458025Y-185393328D01*
X203458025Y-185393328D02*
X203743739Y-185393328D01*
X203743739Y-185393328D02*
X203886597Y-185464757D01*
X204529453Y-186393328D02*
X204529453Y-184893328D01*
X204529453Y-185464757D02*
X204672311Y-185393328D01*
X204672311Y-185393328D02*
X204958025Y-185393328D01*
X204958025Y-185393328D02*
X205100882Y-185464757D01*
X205100882Y-185464757D02*
X205172311Y-185536185D01*
X205172311Y-185536185D02*
X205243739Y-185679042D01*
X205243739Y-185679042D02*
X205243739Y-186107614D01*
X205243739Y-186107614D02*
X205172311Y-186250471D01*
X205172311Y-186250471D02*
X205100882Y-186321900D01*
X205100882Y-186321900D02*
X204958025Y-186393328D01*
X204958025Y-186393328D02*
X204672311Y-186393328D01*
X204672311Y-186393328D02*
X204529453Y-186321900D01*
D10*
D11*
X177002200Y-181507200D02*
X285002200Y-181507200D01*
D10*
D11*
X178386598Y-183621900D02*
X178600884Y-183693328D01*
X178600884Y-183693328D02*
X178958026Y-183693328D01*
X178958026Y-183693328D02*
X179100884Y-183621900D01*
X179100884Y-183621900D02*
X179172312Y-183550471D01*
X179172312Y-183550471D02*
X179243741Y-183407614D01*
X179243741Y-183407614D02*
X179243741Y-183264757D01*
X179243741Y-183264757D02*
X179172312Y-183121900D01*
X179172312Y-183121900D02*
X179100884Y-183050471D01*
X179100884Y-183050471D02*
X178958026Y-182979042D01*
X178958026Y-182979042D02*
X178672312Y-182907614D01*
X178672312Y-182907614D02*
X178529455Y-182836185D01*
X178529455Y-182836185D02*
X178458026Y-182764757D01*
X178458026Y-182764757D02*
X178386598Y-182621900D01*
X178386598Y-182621900D02*
X178386598Y-182479042D01*
X178386598Y-182479042D02*
X178458026Y-182336185D01*
X178458026Y-182336185D02*
X178529455Y-182264757D01*
X178529455Y-182264757D02*
X178672312Y-182193328D01*
X178672312Y-182193328D02*
X179029455Y-182193328D01*
X179029455Y-182193328D02*
X179243741Y-182264757D01*
X179886597Y-183693328D02*
X179886597Y-182193328D01*
X180529455Y-183693328D02*
X180529455Y-182907614D01*
X180529455Y-182907614D02*
X180458026Y-182764757D01*
X180458026Y-182764757D02*
X180315169Y-182693328D01*
X180315169Y-182693328D02*
X180100883Y-182693328D01*
X180100883Y-182693328D02*
X179958026Y-182764757D01*
X179958026Y-182764757D02*
X179886597Y-182836185D01*
X181815169Y-183621900D02*
X181672312Y-183693328D01*
X181672312Y-183693328D02*
X181386598Y-183693328D01*
X181386598Y-183693328D02*
X181243740Y-183621900D01*
X181243740Y-183621900D02*
X181172312Y-183479042D01*
X181172312Y-183479042D02*
X181172312Y-182907614D01*
X181172312Y-182907614D02*
X181243740Y-182764757D01*
X181243740Y-182764757D02*
X181386598Y-182693328D01*
X181386598Y-182693328D02*
X181672312Y-182693328D01*
X181672312Y-182693328D02*
X181815169Y-182764757D01*
X181815169Y-182764757D02*
X181886598Y-182907614D01*
X181886598Y-182907614D02*
X181886598Y-183050471D01*
X181886598Y-183050471D02*
X181172312Y-183193328D01*
X183100883Y-183621900D02*
X182958026Y-183693328D01*
X182958026Y-183693328D02*
X182672312Y-183693328D01*
X182672312Y-183693328D02*
X182529454Y-183621900D01*
X182529454Y-183621900D02*
X182458026Y-183479042D01*
X182458026Y-183479042D02*
X182458026Y-182907614D01*
X182458026Y-182907614D02*
X182529454Y-182764757D01*
X182529454Y-182764757D02*
X182672312Y-182693328D01*
X182672312Y-182693328D02*
X182958026Y-182693328D01*
X182958026Y-182693328D02*
X183100883Y-182764757D01*
X183100883Y-182764757D02*
X183172312Y-182907614D01*
X183172312Y-182907614D02*
X183172312Y-183050471D01*
X183172312Y-183050471D02*
X182458026Y-183193328D01*
X183600883Y-182693328D02*
X184172311Y-182693328D01*
X183815168Y-182193328D02*
X183815168Y-183479042D01*
X183815168Y-183479042D02*
X183886597Y-183621900D01*
X183886597Y-183621900D02*
X184029454Y-183693328D01*
X184029454Y-183693328D02*
X184172311Y-183693328D01*
X184672311Y-183550471D02*
X184743740Y-183621900D01*
X184743740Y-183621900D02*
X184672311Y-183693328D01*
X184672311Y-183693328D02*
X184600883Y-183621900D01*
X184600883Y-183621900D02*
X184672311Y-183550471D01*
X184672311Y-183550471D02*
X184672311Y-183693328D01*
X184672311Y-182764757D02*
X184743740Y-182836185D01*
X184743740Y-182836185D02*
X184672311Y-182907614D01*
X184672311Y-182907614D02*
X184600883Y-182836185D01*
X184600883Y-182836185D02*
X184672311Y-182764757D01*
X184672311Y-182764757D02*
X184672311Y-182907614D01*
D10*
D12*
D10*
D11*
D10*
D11*
D10*
D11*
D10*
D11*
D10*
D11*
X197002200Y-191507200D02*
X197002200Y-194507200D01*
D10*
D11*
X261002200Y-191507200D02*
X261002200Y-198007200D01*
X150032344Y-38530754D02*
X150032344Y-39340277D01*
X150032344Y-39340277D02*
X150079963Y-39435515D01*
X150079963Y-39435515D02*
X150127582Y-39483135D01*
X150127582Y-39483135D02*
X150222820Y-39530754D01*
X150222820Y-39530754D02*
X150413296Y-39530754D01*
X150413296Y-39530754D02*
X150508534Y-39483135D01*
X150508534Y-39483135D02*
X150556153Y-39435515D01*
X150556153Y-39435515D02*
X150603772Y-39340277D01*
X150603772Y-39340277D02*
X150603772Y-38530754D01*
X150984725Y-38530754D02*
X151603772Y-38530754D01*
X151603772Y-38530754D02*
X151270439Y-38911706D01*
X151270439Y-38911706D02*
X151413296Y-38911706D01*
X151413296Y-38911706D02*
X151508534Y-38959325D01*
X151508534Y-38959325D02*
X151556153Y-39006944D01*
X151556153Y-39006944D02*
X151603772Y-39102182D01*
X151603772Y-39102182D02*
X151603772Y-39340277D01*
X151603772Y-39340277D02*
X151556153Y-39435515D01*
X151556153Y-39435515D02*
X151508534Y-39483135D01*
X151508534Y-39483135D02*
X151413296Y-39530754D01*
X151413296Y-39530754D02*
X151127582Y-39530754D01*
X151127582Y-39530754D02*
X151032344Y-39483135D01*
X151032344Y-39483135D02*
X150984725Y-39435515D01*
X137468794Y-76784540D02*
X138278317Y-76784540D01*
X138278317Y-76784540D02*
X138373555Y-76736921D01*
X138373555Y-76736921D02*
X138421175Y-76689302D01*
X138421175Y-76689302D02*
X138468794Y-76594064D01*
X138468794Y-76594064D02*
X138468794Y-76403588D01*
X138468794Y-76403588D02*
X138421175Y-76308350D01*
X138421175Y-76308350D02*
X138373555Y-76260731D01*
X138373555Y-76260731D02*
X138278317Y-76213112D01*
X138278317Y-76213112D02*
X137468794Y-76213112D01*
X137468794Y-75832159D02*
X137468794Y-75165493D01*
X137468794Y-75165493D02*
X138468794Y-75594064D01*
X64520503Y-75669411D02*
X64520503Y-74859888D01*
X64520503Y-74859888D02*
X64472884Y-74764650D01*
X64472884Y-74764650D02*
X64425265Y-74717031D01*
X64425265Y-74717031D02*
X64330027Y-74669411D01*
X64330027Y-74669411D02*
X64139551Y-74669411D01*
X64139551Y-74669411D02*
X64044313Y-74717031D01*
X64044313Y-74717031D02*
X63996694Y-74764650D01*
X63996694Y-74764650D02*
X63949075Y-74859888D01*
X63949075Y-74859888D02*
X63949075Y-75669411D01*
X63044313Y-75336078D02*
X63044313Y-74669411D01*
X63282408Y-75717031D02*
X63520503Y-75002745D01*
X63520503Y-75002745D02*
X62901456Y-75002745D01*
X101433333Y-41264819D02*
X101100000Y-40788628D01*
X100861905Y-41264819D02*
X100861905Y-40264819D01*
X100861905Y-40264819D02*
X101242857Y-40264819D01*
X101242857Y-40264819D02*
X101338095Y-40312438D01*
X101338095Y-40312438D02*
X101385714Y-40360057D01*
X101385714Y-40360057D02*
X101433333Y-40455295D01*
X101433333Y-40455295D02*
X101433333Y-40598152D01*
X101433333Y-40598152D02*
X101385714Y-40693390D01*
X101385714Y-40693390D02*
X101338095Y-40741009D01*
X101338095Y-40741009D02*
X101242857Y-40788628D01*
X101242857Y-40788628D02*
X100861905Y-40788628D01*
X101814286Y-40360057D02*
X101861905Y-40312438D01*
X101861905Y-40312438D02*
X101957143Y-40264819D01*
X101957143Y-40264819D02*
X102195238Y-40264819D01*
X102195238Y-40264819D02*
X102290476Y-40312438D01*
X102290476Y-40312438D02*
X102338095Y-40360057D01*
X102338095Y-40360057D02*
X102385714Y-40455295D01*
X102385714Y-40455295D02*
X102385714Y-40550533D01*
X102385714Y-40550533D02*
X102338095Y-40693390D01*
X102338095Y-40693390D02*
X101766667Y-41264819D01*
X101766667Y-41264819D02*
X102385714Y-41264819D01*
X163810407Y-66100375D02*
X163810407Y-66909898D01*
X163810407Y-66909898D02*
X163858026Y-67005136D01*
X163858026Y-67005136D02*
X163905645Y-67052756D01*
X163905645Y-67052756D02*
X164000883Y-67100375D01*
X164000883Y-67100375D02*
X164191359Y-67100375D01*
X164191359Y-67100375D02*
X164286597Y-67052756D01*
X164286597Y-67052756D02*
X164334216Y-67005136D01*
X164334216Y-67005136D02*
X164381835Y-66909898D01*
X164381835Y-66909898D02*
X164381835Y-66100375D01*
X165381835Y-67100375D02*
X164810407Y-67100375D01*
X165096121Y-67100375D02*
X165096121Y-66100375D01*
X165096121Y-66100375D02*
X165000883Y-66243232D01*
X165000883Y-66243232D02*
X164905645Y-66338470D01*
X164905645Y-66338470D02*
X164810407Y-66386089D01*
X173659689Y-83131716D02*
X173326356Y-82655525D01*
X173088261Y-83131716D02*
X173088261Y-82131716D01*
X173088261Y-82131716D02*
X173469213Y-82131716D01*
X173469213Y-82131716D02*
X173564451Y-82179335D01*
X173564451Y-82179335D02*
X173612070Y-82226954D01*
X173612070Y-82226954D02*
X173659689Y-82322192D01*
X173659689Y-82322192D02*
X173659689Y-82465049D01*
X173659689Y-82465049D02*
X173612070Y-82560287D01*
X173612070Y-82560287D02*
X173564451Y-82607906D01*
X173564451Y-82607906D02*
X173469213Y-82655525D01*
X173469213Y-82655525D02*
X173088261Y-82655525D01*
X173993023Y-82131716D02*
X174612070Y-82131716D01*
X174612070Y-82131716D02*
X174278737Y-82512668D01*
X174278737Y-82512668D02*
X174421594Y-82512668D01*
X174421594Y-82512668D02*
X174516832Y-82560287D01*
X174516832Y-82560287D02*
X174564451Y-82607906D01*
X174564451Y-82607906D02*
X174612070Y-82703144D01*
X174612070Y-82703144D02*
X174612070Y-82941239D01*
X174612070Y-82941239D02*
X174564451Y-83036477D01*
X174564451Y-83036477D02*
X174516832Y-83084097D01*
X174516832Y-83084097D02*
X174421594Y-83131716D01*
X174421594Y-83131716D02*
X174135880Y-83131716D01*
X174135880Y-83131716D02*
X174040642Y-83084097D01*
X174040642Y-83084097D02*
X173993023Y-83036477D01*
X174150505Y-87129323D02*
X173817172Y-86653132D01*
X173579077Y-87129323D02*
X173579077Y-86129323D01*
X173579077Y-86129323D02*
X173960029Y-86129323D01*
X173960029Y-86129323D02*
X174055267Y-86176942D01*
X174055267Y-86176942D02*
X174102886Y-86224561D01*
X174102886Y-86224561D02*
X174150505Y-86319799D01*
X174150505Y-86319799D02*
X174150505Y-86462656D01*
X174150505Y-86462656D02*
X174102886Y-86557894D01*
X174102886Y-86557894D02*
X174055267Y-86605513D01*
X174055267Y-86605513D02*
X173960029Y-86653132D01*
X173960029Y-86653132D02*
X173579077Y-86653132D01*
X175007648Y-86462656D02*
X175007648Y-87129323D01*
X174769553Y-86081704D02*
X174531458Y-86795989D01*
X174531458Y-86795989D02*
X175150505Y-86795989D01*
X115528171Y-41200855D02*
X115194838Y-40724664D01*
X114956743Y-41200855D02*
X114956743Y-40200855D01*
X114956743Y-40200855D02*
X115337695Y-40200855D01*
X115337695Y-40200855D02*
X115432933Y-40248474D01*
X115432933Y-40248474D02*
X115480552Y-40296093D01*
X115480552Y-40296093D02*
X115528171Y-40391331D01*
X115528171Y-40391331D02*
X115528171Y-40534188D01*
X115528171Y-40534188D02*
X115480552Y-40629426D01*
X115480552Y-40629426D02*
X115432933Y-40677045D01*
X115432933Y-40677045D02*
X115337695Y-40724664D01*
X115337695Y-40724664D02*
X114956743Y-40724664D01*
X116480552Y-41200855D02*
X115909124Y-41200855D01*
X116194838Y-41200855D02*
X116194838Y-40200855D01*
X116194838Y-40200855D02*
X116099600Y-40343712D01*
X116099600Y-40343712D02*
X116004362Y-40438950D01*
X116004362Y-40438950D02*
X115909124Y-40486569D01*
X147908571Y-85652378D02*
X149051429Y-85652378D01*
X148480000Y-86223806D02*
X148480000Y-85080949D01*
X160908571Y-85652378D02*
X162051429Y-85652378D01*
X91948095Y-19774819D02*
X91948095Y-20584342D01*
X91948095Y-20584342D02*
X91995714Y-20679580D01*
X91995714Y-20679580D02*
X92043333Y-20727200D01*
X92043333Y-20727200D02*
X92138571Y-20774819D01*
X92138571Y-20774819D02*
X92329047Y-20774819D01*
X92329047Y-20774819D02*
X92424285Y-20727200D01*
X92424285Y-20727200D02*
X92471904Y-20679580D01*
X92471904Y-20679580D02*
X92519523Y-20584342D01*
X92519523Y-20584342D02*
X92519523Y-19774819D01*
X92948095Y-19870057D02*
X92995714Y-19822438D01*
X92995714Y-19822438D02*
X93090952Y-19774819D01*
X93090952Y-19774819D02*
X93329047Y-19774819D01*
X93329047Y-19774819D02*
X93424285Y-19822438D01*
X93424285Y-19822438D02*
X93471904Y-19870057D01*
X93471904Y-19870057D02*
X93519523Y-19965295D01*
X93519523Y-19965295D02*
X93519523Y-20060533D01*
X93519523Y-20060533D02*
X93471904Y-20203390D01*
X93471904Y-20203390D02*
X92900476Y-20774819D01*
X92900476Y-20774819D02*
X93519523Y-20774819D01*
X70934676Y-32424019D02*
X70934676Y-33233542D01*
X70934676Y-33233542D02*
X70982295Y-33328780D01*
X70982295Y-33328780D02*
X71029914Y-33376400D01*
X71029914Y-33376400D02*
X71125152Y-33424019D01*
X71125152Y-33424019D02*
X71315628Y-33424019D01*
X71315628Y-33424019D02*
X71410866Y-33376400D01*
X71410866Y-33376400D02*
X71458485Y-33328780D01*
X71458485Y-33328780D02*
X71506104Y-33233542D01*
X71506104Y-33233542D02*
X71506104Y-32424019D01*
X71934676Y-33376400D02*
X72077533Y-33424019D01*
X72077533Y-33424019D02*
X72315628Y-33424019D01*
X72315628Y-33424019D02*
X72410866Y-33376400D01*
X72410866Y-33376400D02*
X72458485Y-33328780D01*
X72458485Y-33328780D02*
X72506104Y-33233542D01*
X72506104Y-33233542D02*
X72506104Y-33138304D01*
X72506104Y-33138304D02*
X72458485Y-33043066D01*
X72458485Y-33043066D02*
X72410866Y-32995447D01*
X72410866Y-32995447D02*
X72315628Y-32947828D01*
X72315628Y-32947828D02*
X72125152Y-32900209D01*
X72125152Y-32900209D02*
X72029914Y-32852590D01*
X72029914Y-32852590D02*
X71982295Y-32804971D01*
X71982295Y-32804971D02*
X71934676Y-32709733D01*
X71934676Y-32709733D02*
X71934676Y-32614495D01*
X71934676Y-32614495D02*
X71982295Y-32519257D01*
X71982295Y-32519257D02*
X72029914Y-32471638D01*
X72029914Y-32471638D02*
X72125152Y-32424019D01*
X72125152Y-32424019D02*
X72363247Y-32424019D01*
X72363247Y-32424019D02*
X72506104Y-32471638D01*
X73268009Y-32900209D02*
X73410866Y-32947828D01*
X73410866Y-32947828D02*
X73458485Y-32995447D01*
X73458485Y-32995447D02*
X73506104Y-33090685D01*
X73506104Y-33090685D02*
X73506104Y-33233542D01*
X73506104Y-33233542D02*
X73458485Y-33328780D01*
X73458485Y-33328780D02*
X73410866Y-33376400D01*
X73410866Y-33376400D02*
X73315628Y-33424019D01*
X73315628Y-33424019D02*
X72934676Y-33424019D01*
X72934676Y-33424019D02*
X72934676Y-32424019D01*
X72934676Y-32424019D02*
X73268009Y-32424019D01*
X73268009Y-32424019D02*
X73363247Y-32471638D01*
X73363247Y-32471638D02*
X73410866Y-32519257D01*
X73410866Y-32519257D02*
X73458485Y-32614495D01*
X73458485Y-32614495D02*
X73458485Y-32709733D01*
X73458485Y-32709733D02*
X73410866Y-32804971D01*
X73410866Y-32804971D02*
X73363247Y-32852590D01*
X73363247Y-32852590D02*
X73268009Y-32900209D01*
X73268009Y-32900209D02*
X72934676Y-32900209D01*
X74696581Y-33424019D02*
X74696581Y-32424019D01*
X74696581Y-32900209D02*
X75268009Y-32900209D01*
X75268009Y-33424019D02*
X75268009Y-32424019D01*
X75887057Y-33424019D02*
X75791819Y-33376400D01*
X75791819Y-33376400D02*
X75744200Y-33328780D01*
X75744200Y-33328780D02*
X75696581Y-33233542D01*
X75696581Y-33233542D02*
X75696581Y-32947828D01*
X75696581Y-32947828D02*
X75744200Y-32852590D01*
X75744200Y-32852590D02*
X75791819Y-32804971D01*
X75791819Y-32804971D02*
X75887057Y-32757352D01*
X75887057Y-32757352D02*
X76029914Y-32757352D01*
X76029914Y-32757352D02*
X76125152Y-32804971D01*
X76125152Y-32804971D02*
X76172771Y-32852590D01*
X76172771Y-32852590D02*
X76220390Y-32947828D01*
X76220390Y-32947828D02*
X76220390Y-33233542D01*
X76220390Y-33233542D02*
X76172771Y-33328780D01*
X76172771Y-33328780D02*
X76125152Y-33376400D01*
X76125152Y-33376400D02*
X76029914Y-33424019D01*
X76029914Y-33424019D02*
X75887057Y-33424019D01*
X76601343Y-33376400D02*
X76696581Y-33424019D01*
X76696581Y-33424019D02*
X76887057Y-33424019D01*
X76887057Y-33424019D02*
X76982295Y-33376400D01*
X76982295Y-33376400D02*
X77029914Y-33281161D01*
X77029914Y-33281161D02*
X77029914Y-33233542D01*
X77029914Y-33233542D02*
X76982295Y-33138304D01*
X76982295Y-33138304D02*
X76887057Y-33090685D01*
X76887057Y-33090685D02*
X76744200Y-33090685D01*
X76744200Y-33090685D02*
X76648962Y-33043066D01*
X76648962Y-33043066D02*
X76601343Y-32947828D01*
X76601343Y-32947828D02*
X76601343Y-32900209D01*
X76601343Y-32900209D02*
X76648962Y-32804971D01*
X76648962Y-32804971D02*
X76744200Y-32757352D01*
X76744200Y-32757352D02*
X76887057Y-32757352D01*
X76887057Y-32757352D02*
X76982295Y-32804971D01*
X77315629Y-32757352D02*
X77696581Y-32757352D01*
X77458486Y-32424019D02*
X77458486Y-33281161D01*
X77458486Y-33281161D02*
X77506105Y-33376400D01*
X77506105Y-33376400D02*
X77601343Y-33424019D01*
X77601343Y-33424019D02*
X77696581Y-33424019D01*
X113720952Y-30934819D02*
X113720952Y-29934819D01*
X113720952Y-29934819D02*
X114054285Y-30649104D01*
X114054285Y-30649104D02*
X114387618Y-29934819D01*
X114387618Y-29934819D02*
X114387618Y-30934819D01*
X114863809Y-30934819D02*
X114863809Y-30268152D01*
X114863809Y-29934819D02*
X114816190Y-29982438D01*
X114816190Y-29982438D02*
X114863809Y-30030057D01*
X114863809Y-30030057D02*
X114911428Y-29982438D01*
X114911428Y-29982438D02*
X114863809Y-29934819D01*
X114863809Y-29934819D02*
X114863809Y-30030057D01*
X115768570Y-30887200D02*
X115673332Y-30934819D01*
X115673332Y-30934819D02*
X115482856Y-30934819D01*
X115482856Y-30934819D02*
X115387618Y-30887200D01*
X115387618Y-30887200D02*
X115339999Y-30839580D01*
X115339999Y-30839580D02*
X115292380Y-30744342D01*
X115292380Y-30744342D02*
X115292380Y-30458628D01*
X115292380Y-30458628D02*
X115339999Y-30363390D01*
X115339999Y-30363390D02*
X115387618Y-30315771D01*
X115387618Y-30315771D02*
X115482856Y-30268152D01*
X115482856Y-30268152D02*
X115673332Y-30268152D01*
X115673332Y-30268152D02*
X115768570Y-30315771D01*
X116197142Y-30934819D02*
X116197142Y-30268152D01*
X116197142Y-30458628D02*
X116244761Y-30363390D01*
X116244761Y-30363390D02*
X116292380Y-30315771D01*
X116292380Y-30315771D02*
X116387618Y-30268152D01*
X116387618Y-30268152D02*
X116482856Y-30268152D01*
X116959047Y-30934819D02*
X116863809Y-30887200D01*
X116863809Y-30887200D02*
X116816190Y-30839580D01*
X116816190Y-30839580D02*
X116768571Y-30744342D01*
X116768571Y-30744342D02*
X116768571Y-30458628D01*
X116768571Y-30458628D02*
X116816190Y-30363390D01*
X116816190Y-30363390D02*
X116863809Y-30315771D01*
X116863809Y-30315771D02*
X116959047Y-30268152D01*
X116959047Y-30268152D02*
X117101904Y-30268152D01*
X117101904Y-30268152D02*
X117197142Y-30315771D01*
X117197142Y-30315771D02*
X117244761Y-30363390D01*
X117244761Y-30363390D02*
X117292380Y-30458628D01*
X117292380Y-30458628D02*
X117292380Y-30744342D01*
X117292380Y-30744342D02*
X117244761Y-30839580D01*
X117244761Y-30839580D02*
X117197142Y-30887200D01*
X117197142Y-30887200D02*
X117101904Y-30934819D01*
X117101904Y-30934819D02*
X116959047Y-30934819D01*
X118435238Y-30887200D02*
X118578095Y-30934819D01*
X118578095Y-30934819D02*
X118816190Y-30934819D01*
X118816190Y-30934819D02*
X118911428Y-30887200D01*
X118911428Y-30887200D02*
X118959047Y-30839580D01*
X118959047Y-30839580D02*
X119006666Y-30744342D01*
X119006666Y-30744342D02*
X119006666Y-30649104D01*
X119006666Y-30649104D02*
X118959047Y-30553866D01*
X118959047Y-30553866D02*
X118911428Y-30506247D01*
X118911428Y-30506247D02*
X118816190Y-30458628D01*
X118816190Y-30458628D02*
X118625714Y-30411009D01*
X118625714Y-30411009D02*
X118530476Y-30363390D01*
X118530476Y-30363390D02*
X118482857Y-30315771D01*
X118482857Y-30315771D02*
X118435238Y-30220533D01*
X118435238Y-30220533D02*
X118435238Y-30125295D01*
X118435238Y-30125295D02*
X118482857Y-30030057D01*
X118482857Y-30030057D02*
X118530476Y-29982438D01*
X118530476Y-29982438D02*
X118625714Y-29934819D01*
X118625714Y-29934819D02*
X118863809Y-29934819D01*
X118863809Y-29934819D02*
X119006666Y-29982438D01*
X119435238Y-30934819D02*
X119435238Y-29934819D01*
X119435238Y-29934819D02*
X119673333Y-29934819D01*
X119673333Y-29934819D02*
X119816190Y-29982438D01*
X119816190Y-29982438D02*
X119911428Y-30077676D01*
X119911428Y-30077676D02*
X119959047Y-30172914D01*
X119959047Y-30172914D02*
X120006666Y-30363390D01*
X120006666Y-30363390D02*
X120006666Y-30506247D01*
X120006666Y-30506247D02*
X119959047Y-30696723D01*
X119959047Y-30696723D02*
X119911428Y-30791961D01*
X119911428Y-30791961D02*
X119816190Y-30887200D01*
X119816190Y-30887200D02*
X119673333Y-30934819D01*
X119673333Y-30934819D02*
X119435238Y-30934819D01*
X90486033Y-31683333D02*
X89786033Y-31683333D01*
X89786033Y-31683333D02*
X89786033Y-31516666D01*
X89786033Y-31516666D02*
X89819366Y-31416666D01*
X89819366Y-31416666D02*
X89886033Y-31350000D01*
X89886033Y-31350000D02*
X89952700Y-31316666D01*
X89952700Y-31316666D02*
X90086033Y-31283333D01*
X90086033Y-31283333D02*
X90186033Y-31283333D01*
X90186033Y-31283333D02*
X90319366Y-31316666D01*
X90319366Y-31316666D02*
X90386033Y-31350000D01*
X90386033Y-31350000D02*
X90452700Y-31416666D01*
X90452700Y-31416666D02*
X90486033Y-31516666D01*
X90486033Y-31516666D02*
X90486033Y-31683333D01*
X89786033Y-31083333D02*
X90486033Y-30850000D01*
X90486033Y-30850000D02*
X89786033Y-30616666D01*
X89786033Y-30183333D02*
X90286033Y-30183333D01*
X90286033Y-30183333D02*
X90386033Y-30216666D01*
X90386033Y-30216666D02*
X90452700Y-30283333D01*
X90452700Y-30283333D02*
X90486033Y-30383333D01*
X90486033Y-30383333D02*
X90486033Y-30450000D01*
X89786033Y-29550000D02*
X89786033Y-29683333D01*
X89786033Y-29683333D02*
X89819366Y-29750000D01*
X89819366Y-29750000D02*
X89852700Y-29783333D01*
X89852700Y-29783333D02*
X89952700Y-29850000D01*
X89952700Y-29850000D02*
X90086033Y-29883333D01*
X90086033Y-29883333D02*
X90352700Y-29883333D01*
X90352700Y-29883333D02*
X90419366Y-29850000D01*
X90419366Y-29850000D02*
X90452700Y-29816667D01*
X90452700Y-29816667D02*
X90486033Y-29750000D01*
X90486033Y-29750000D02*
X90486033Y-29616667D01*
X90486033Y-29616667D02*
X90452700Y-29550000D01*
X90452700Y-29550000D02*
X90419366Y-29516667D01*
X90419366Y-29516667D02*
X90352700Y-29483333D01*
X90352700Y-29483333D02*
X90186033Y-29483333D01*
X90186033Y-29483333D02*
X90119366Y-29516667D01*
X90119366Y-29516667D02*
X90086033Y-29550000D01*
X90086033Y-29550000D02*
X90052700Y-29616667D01*
X90052700Y-29616667D02*
X90052700Y-29750000D01*
X90052700Y-29750000D02*
X90086033Y-29816667D01*
X90086033Y-29816667D02*
X90119366Y-29850000D01*
X90119366Y-29850000D02*
X90186033Y-29883333D01*
X90286033Y-29216666D02*
X90286033Y-28883333D01*
X90486033Y-29283333D02*
X89786033Y-29050000D01*
X89786033Y-29050000D02*
X90486033Y-28816666D01*
X65494819Y-31741904D02*
X66304342Y-31741904D01*
X66304342Y-31741904D02*
X66399580Y-31694285D01*
X66399580Y-31694285D02*
X66447200Y-31646666D01*
X66447200Y-31646666D02*
X66494819Y-31551428D01*
X66494819Y-31551428D02*
X66494819Y-31360952D01*
X66494819Y-31360952D02*
X66447200Y-31265714D01*
X66447200Y-31265714D02*
X66399580Y-31218095D01*
X66399580Y-31218095D02*
X66304342Y-31170476D01*
X66304342Y-31170476D02*
X65494819Y-31170476D01*
X66447200Y-30741904D02*
X66494819Y-30599047D01*
X66494819Y-30599047D02*
X66494819Y-30360952D01*
X66494819Y-30360952D02*
X66447200Y-30265714D01*
X66447200Y-30265714D02*
X66399580Y-30218095D01*
X66399580Y-30218095D02*
X66304342Y-30170476D01*
X66304342Y-30170476D02*
X66209104Y-30170476D01*
X66209104Y-30170476D02*
X66113866Y-30218095D01*
X66113866Y-30218095D02*
X66066247Y-30265714D01*
X66066247Y-30265714D02*
X66018628Y-30360952D01*
X66018628Y-30360952D02*
X65971009Y-30551428D01*
X65971009Y-30551428D02*
X65923390Y-30646666D01*
X65923390Y-30646666D02*
X65875771Y-30694285D01*
X65875771Y-30694285D02*
X65780533Y-30741904D01*
X65780533Y-30741904D02*
X65685295Y-30741904D01*
X65685295Y-30741904D02*
X65590057Y-30694285D01*
X65590057Y-30694285D02*
X65542438Y-30646666D01*
X65542438Y-30646666D02*
X65494819Y-30551428D01*
X65494819Y-30551428D02*
X65494819Y-30313333D01*
X65494819Y-30313333D02*
X65542438Y-30170476D01*
X65971009Y-29408571D02*
X66018628Y-29265714D01*
X66018628Y-29265714D02*
X66066247Y-29218095D01*
X66066247Y-29218095D02*
X66161485Y-29170476D01*
X66161485Y-29170476D02*
X66304342Y-29170476D01*
X66304342Y-29170476D02*
X66399580Y-29218095D01*
X66399580Y-29218095D02*
X66447200Y-29265714D01*
X66447200Y-29265714D02*
X66494819Y-29360952D01*
X66494819Y-29360952D02*
X66494819Y-29741904D01*
X66494819Y-29741904D02*
X65494819Y-29741904D01*
X65494819Y-29741904D02*
X65494819Y-29408571D01*
X65494819Y-29408571D02*
X65542438Y-29313333D01*
X65542438Y-29313333D02*
X65590057Y-29265714D01*
X65590057Y-29265714D02*
X65685295Y-29218095D01*
X65685295Y-29218095D02*
X65780533Y-29218095D01*
X65780533Y-29218095D02*
X65875771Y-29265714D01*
X65875771Y-29265714D02*
X65923390Y-29313333D01*
X65923390Y-29313333D02*
X65971009Y-29408571D01*
X65971009Y-29408571D02*
X65971009Y-29741904D01*
X91756033Y-33563333D02*
X91056033Y-33563333D01*
X91056033Y-33563333D02*
X91556033Y-33330000D01*
X91556033Y-33330000D02*
X91056033Y-33096666D01*
X91056033Y-33096666D02*
X91756033Y-33096666D01*
X91756033Y-32763333D02*
X91056033Y-32763333D01*
X91756033Y-32430000D02*
X91056033Y-32430000D01*
X91056033Y-32430000D02*
X91556033Y-32196667D01*
X91556033Y-32196667D02*
X91056033Y-31963333D01*
X91056033Y-31963333D02*
X91756033Y-31963333D01*
X91056033Y-31696667D02*
X91756033Y-31230000D01*
X91056033Y-31230000D02*
X91756033Y-31696667D01*
X91756033Y-30563333D02*
X91422700Y-30796666D01*
X91756033Y-30963333D02*
X91056033Y-30963333D01*
X91056033Y-30963333D02*
X91056033Y-30696666D01*
X91056033Y-30696666D02*
X91089366Y-30630000D01*
X91089366Y-30630000D02*
X91122700Y-30596666D01*
X91122700Y-30596666D02*
X91189366Y-30563333D01*
X91189366Y-30563333D02*
X91289366Y-30563333D01*
X91289366Y-30563333D02*
X91356033Y-30596666D01*
X91356033Y-30596666D02*
X91389366Y-30630000D01*
X91389366Y-30630000D02*
X91422700Y-30696666D01*
X91422700Y-30696666D02*
X91422700Y-30963333D01*
X91056033Y-30363333D02*
X91056033Y-29963333D01*
X91756033Y-30163333D02*
X91056033Y-30163333D01*
X91756033Y-29363333D02*
X91756033Y-29763333D01*
X91756033Y-29563333D02*
X91056033Y-29563333D01*
X91056033Y-29563333D02*
X91156033Y-29630000D01*
X91156033Y-29630000D02*
X91222700Y-29696667D01*
X91222700Y-29696667D02*
X91256033Y-29763333D01*
X91056033Y-28930000D02*
X91056033Y-28863333D01*
X91056033Y-28863333D02*
X91089366Y-28796666D01*
X91089366Y-28796666D02*
X91122700Y-28763333D01*
X91122700Y-28763333D02*
X91189366Y-28730000D01*
X91189366Y-28730000D02*
X91322700Y-28696666D01*
X91322700Y-28696666D02*
X91489366Y-28696666D01*
X91489366Y-28696666D02*
X91622700Y-28730000D01*
X91622700Y-28730000D02*
X91689366Y-28763333D01*
X91689366Y-28763333D02*
X91722700Y-28796666D01*
X91722700Y-28796666D02*
X91756033Y-28863333D01*
X91756033Y-28863333D02*
X91756033Y-28930000D01*
X91756033Y-28930000D02*
X91722700Y-28996666D01*
X91722700Y-28996666D02*
X91689366Y-29030000D01*
X91689366Y-29030000D02*
X91622700Y-29063333D01*
X91622700Y-29063333D02*
X91489366Y-29096666D01*
X91489366Y-29096666D02*
X91322700Y-29096666D01*
X91322700Y-29096666D02*
X91189366Y-29063333D01*
X91189366Y-29063333D02*
X91122700Y-29030000D01*
X91122700Y-29030000D02*
X91089366Y-28996666D01*
X91089366Y-28996666D02*
X91056033Y-28930000D01*
X91056033Y-28096666D02*
X91056033Y-28229999D01*
X91056033Y-28229999D02*
X91089366Y-28296666D01*
X91089366Y-28296666D02*
X91122700Y-28329999D01*
X91122700Y-28329999D02*
X91222700Y-28396666D01*
X91222700Y-28396666D02*
X91356033Y-28429999D01*
X91356033Y-28429999D02*
X91622700Y-28429999D01*
X91622700Y-28429999D02*
X91689366Y-28396666D01*
X91689366Y-28396666D02*
X91722700Y-28363333D01*
X91722700Y-28363333D02*
X91756033Y-28296666D01*
X91756033Y-28296666D02*
X91756033Y-28163333D01*
X91756033Y-28163333D02*
X91722700Y-28096666D01*
X91722700Y-28096666D02*
X91689366Y-28063333D01*
X91689366Y-28063333D02*
X91622700Y-28029999D01*
X91622700Y-28029999D02*
X91456033Y-28029999D01*
X91456033Y-28029999D02*
X91389366Y-28063333D01*
X91389366Y-28063333D02*
X91356033Y-28096666D01*
X91356033Y-28096666D02*
X91322700Y-28163333D01*
X91322700Y-28163333D02*
X91322700Y-28296666D01*
X91322700Y-28296666D02*
X91356033Y-28363333D01*
X91356033Y-28363333D02*
X91389366Y-28396666D01*
X91389366Y-28396666D02*
X91456033Y-28429999D01*
X91122700Y-27763332D02*
X91089366Y-27729999D01*
X91089366Y-27729999D02*
X91056033Y-27663332D01*
X91056033Y-27663332D02*
X91056033Y-27496666D01*
X91056033Y-27496666D02*
X91089366Y-27429999D01*
X91089366Y-27429999D02*
X91122700Y-27396666D01*
X91122700Y-27396666D02*
X91189366Y-27363332D01*
X91189366Y-27363332D02*
X91256033Y-27363332D01*
X91256033Y-27363332D02*
X91356033Y-27396666D01*
X91356033Y-27396666D02*
X91756033Y-27796666D01*
X91756033Y-27796666D02*
X91756033Y-27363332D01*
X82481009Y-33337143D02*
X82481009Y-33003810D01*
X83004819Y-32860953D02*
X83004819Y-33337143D01*
X83004819Y-33337143D02*
X82004819Y-33337143D01*
X82004819Y-33337143D02*
X82004819Y-32860953D01*
X82338152Y-32575238D02*
X82338152Y-32194286D01*
X82004819Y-32432381D02*
X82861961Y-32432381D01*
X82861961Y-32432381D02*
X82957200Y-32384762D01*
X82957200Y-32384762D02*
X83004819Y-32289524D01*
X83004819Y-32289524D02*
X83004819Y-32194286D01*
X83004819Y-31860952D02*
X82004819Y-31860952D01*
X83004819Y-31432381D02*
X82481009Y-31432381D01*
X82481009Y-31432381D02*
X82385771Y-31480000D01*
X82385771Y-31480000D02*
X82338152Y-31575238D01*
X82338152Y-31575238D02*
X82338152Y-31718095D01*
X82338152Y-31718095D02*
X82385771Y-31813333D01*
X82385771Y-31813333D02*
X82433390Y-31860952D01*
X82957200Y-30575238D02*
X83004819Y-30670476D01*
X83004819Y-30670476D02*
X83004819Y-30860952D01*
X83004819Y-30860952D02*
X82957200Y-30956190D01*
X82957200Y-30956190D02*
X82861961Y-31003809D01*
X82861961Y-31003809D02*
X82481009Y-31003809D01*
X82481009Y-31003809D02*
X82385771Y-30956190D01*
X82385771Y-30956190D02*
X82338152Y-30860952D01*
X82338152Y-30860952D02*
X82338152Y-30670476D01*
X82338152Y-30670476D02*
X82385771Y-30575238D01*
X82385771Y-30575238D02*
X82481009Y-30527619D01*
X82481009Y-30527619D02*
X82576247Y-30527619D01*
X82576247Y-30527619D02*
X82671485Y-31003809D01*
X83004819Y-30099047D02*
X82338152Y-30099047D01*
X82528628Y-30099047D02*
X82433390Y-30051428D01*
X82433390Y-30051428D02*
X82385771Y-30003809D01*
X82385771Y-30003809D02*
X82338152Y-29908571D01*
X82338152Y-29908571D02*
X82338152Y-29813333D01*
X82338152Y-29479999D02*
X83004819Y-29479999D01*
X82433390Y-29479999D02*
X82385771Y-29432380D01*
X82385771Y-29432380D02*
X82338152Y-29337142D01*
X82338152Y-29337142D02*
X82338152Y-29194285D01*
X82338152Y-29194285D02*
X82385771Y-29099047D01*
X82385771Y-29099047D02*
X82481009Y-29051428D01*
X82481009Y-29051428D02*
X83004819Y-29051428D01*
X82957200Y-28194285D02*
X83004819Y-28289523D01*
X83004819Y-28289523D02*
X83004819Y-28479999D01*
X83004819Y-28479999D02*
X82957200Y-28575237D01*
X82957200Y-28575237D02*
X82861961Y-28622856D01*
X82861961Y-28622856D02*
X82481009Y-28622856D01*
X82481009Y-28622856D02*
X82385771Y-28575237D01*
X82385771Y-28575237D02*
X82338152Y-28479999D01*
X82338152Y-28479999D02*
X82338152Y-28289523D01*
X82338152Y-28289523D02*
X82385771Y-28194285D01*
X82385771Y-28194285D02*
X82481009Y-28146666D01*
X82481009Y-28146666D02*
X82576247Y-28146666D01*
X82576247Y-28146666D02*
X82671485Y-28622856D01*
X82338152Y-27860951D02*
X82338152Y-27479999D01*
X82004819Y-27718094D02*
X82861961Y-27718094D01*
X82861961Y-27718094D02*
X82957200Y-27670475D01*
X82957200Y-27670475D02*
X83004819Y-27575237D01*
X83004819Y-27575237D02*
X83004819Y-27479999D01*
X90684819Y-43513333D02*
X91399104Y-43513333D01*
X91399104Y-43513333D02*
X91541961Y-43560952D01*
X91541961Y-43560952D02*
X91637200Y-43656190D01*
X91637200Y-43656190D02*
X91684819Y-43799047D01*
X91684819Y-43799047D02*
X91684819Y-43894285D01*
X90780057Y-43084761D02*
X90732438Y-43037142D01*
X90732438Y-43037142D02*
X90684819Y-42941904D01*
X90684819Y-42941904D02*
X90684819Y-42703809D01*
X90684819Y-42703809D02*
X90732438Y-42608571D01*
X90732438Y-42608571D02*
X90780057Y-42560952D01*
X90780057Y-42560952D02*
X90875295Y-42513333D01*
X90875295Y-42513333D02*
X90970533Y-42513333D01*
X90970533Y-42513333D02*
X91113390Y-42560952D01*
X91113390Y-42560952D02*
X91684819Y-43132380D01*
X91684819Y-43132380D02*
X91684819Y-42513333D01*
X51266382Y-40507397D02*
X51266382Y-41316920D01*
X51266382Y-41316920D02*
X51314001Y-41412158D01*
X51314001Y-41412158D02*
X51361620Y-41459778D01*
X51361620Y-41459778D02*
X51456858Y-41507397D01*
X51456858Y-41507397D02*
X51647334Y-41507397D01*
X51647334Y-41507397D02*
X51742572Y-41459778D01*
X51742572Y-41459778D02*
X51790191Y-41412158D01*
X51790191Y-41412158D02*
X51837810Y-41316920D01*
X51837810Y-41316920D02*
X51837810Y-40507397D01*
X52790191Y-40507397D02*
X52314001Y-40507397D01*
X52314001Y-40507397D02*
X52266382Y-40983587D01*
X52266382Y-40983587D02*
X52314001Y-40935968D01*
X52314001Y-40935968D02*
X52409239Y-40888349D01*
X52409239Y-40888349D02*
X52647334Y-40888349D01*
X52647334Y-40888349D02*
X52742572Y-40935968D01*
X52742572Y-40935968D02*
X52790191Y-40983587D01*
X52790191Y-40983587D02*
X52837810Y-41078825D01*
X52837810Y-41078825D02*
X52837810Y-41316920D01*
X52837810Y-41316920D02*
X52790191Y-41412158D01*
X52790191Y-41412158D02*
X52742572Y-41459778D01*
X52742572Y-41459778D02*
X52647334Y-41507397D01*
X52647334Y-41507397D02*
X52409239Y-41507397D01*
X52409239Y-41507397D02*
X52314001Y-41459778D01*
X52314001Y-41459778D02*
X52266382Y-41412158D01*
X144364068Y-24655886D02*
X144411687Y-24513029D01*
X144411687Y-24513029D02*
X144459306Y-24465410D01*
X144459306Y-24465410D02*
X144554544Y-24417791D01*
X144554544Y-24417791D02*
X144697401Y-24417791D01*
X144697401Y-24417791D02*
X144792639Y-24465410D01*
X144792639Y-24465410D02*
X144840259Y-24513029D01*
X144840259Y-24513029D02*
X144887878Y-24608267D01*
X144887878Y-24608267D02*
X144887878Y-24989219D01*
X144887878Y-24989219D02*
X143887878Y-24989219D01*
X143887878Y-24989219D02*
X143887878Y-24655886D01*
X143887878Y-24655886D02*
X143935497Y-24560648D01*
X143935497Y-24560648D02*
X143983116Y-24513029D01*
X143983116Y-24513029D02*
X144078354Y-24465410D01*
X144078354Y-24465410D02*
X144173592Y-24465410D01*
X144173592Y-24465410D02*
X144268830Y-24513029D01*
X144268830Y-24513029D02*
X144316449Y-24560648D01*
X144316449Y-24560648D02*
X144364068Y-24655886D01*
X144364068Y-24655886D02*
X144364068Y-24989219D01*
X143887878Y-24084457D02*
X143887878Y-23417791D01*
X143887878Y-23417791D02*
X144887878Y-24084457D01*
X144887878Y-24084457D02*
X144887878Y-23417791D01*
X144887878Y-22513029D02*
X144887878Y-23084457D01*
X144887878Y-22798743D02*
X143887878Y-22798743D01*
X143887878Y-22798743D02*
X144030735Y-22893981D01*
X144030735Y-22893981D02*
X144125973Y-22989219D01*
X144125973Y-22989219D02*
X144173592Y-23084457D01*
X46001711Y-32169187D02*
X46001711Y-31407283D01*
X46382664Y-31788235D02*
X45620759Y-31788235D01*
D12*
X175612845Y-56368952D02*
X176846559Y-56368952D01*
X176846559Y-56368952D02*
X176991702Y-56296381D01*
X176991702Y-56296381D02*
X177064274Y-56223810D01*
X177064274Y-56223810D02*
X177136845Y-56078667D01*
X177136845Y-56078667D02*
X177136845Y-55788381D01*
X177136845Y-55788381D02*
X177064274Y-55643238D01*
X177064274Y-55643238D02*
X176991702Y-55570667D01*
X176991702Y-55570667D02*
X176846559Y-55498095D01*
X176846559Y-55498095D02*
X175612845Y-55498095D01*
X175612845Y-54119239D02*
X175612845Y-54409524D01*
X175612845Y-54409524D02*
X175685416Y-54554667D01*
X175685416Y-54554667D02*
X175757988Y-54627239D01*
X175757988Y-54627239D02*
X175975702Y-54772381D01*
X175975702Y-54772381D02*
X176265988Y-54844953D01*
X176265988Y-54844953D02*
X176846559Y-54844953D01*
X176846559Y-54844953D02*
X176991702Y-54772381D01*
X176991702Y-54772381D02*
X177064274Y-54699810D01*
X177064274Y-54699810D02*
X177136845Y-54554667D01*
X177136845Y-54554667D02*
X177136845Y-54264381D01*
X177136845Y-54264381D02*
X177064274Y-54119239D01*
X177064274Y-54119239D02*
X176991702Y-54046667D01*
X176991702Y-54046667D02*
X176846559Y-53974096D01*
X176846559Y-53974096D02*
X176483702Y-53974096D01*
X176483702Y-53974096D02*
X176338559Y-54046667D01*
X176338559Y-54046667D02*
X176265988Y-54119239D01*
X176265988Y-54119239D02*
X176193416Y-54264381D01*
X176193416Y-54264381D02*
X176193416Y-54554667D01*
X176193416Y-54554667D02*
X176265988Y-54699810D01*
X176265988Y-54699810D02*
X176338559Y-54772381D01*
X176338559Y-54772381D02*
X176483702Y-54844953D01*
D11*
X68244819Y-43513333D02*
X68959104Y-43513333D01*
X68959104Y-43513333D02*
X69101961Y-43560952D01*
X69101961Y-43560952D02*
X69197200Y-43656190D01*
X69197200Y-43656190D02*
X69244819Y-43799047D01*
X69244819Y-43799047D02*
X69244819Y-43894285D01*
X68244819Y-43132380D02*
X68244819Y-42513333D01*
X68244819Y-42513333D02*
X68625771Y-42846666D01*
X68625771Y-42846666D02*
X68625771Y-42703809D01*
X68625771Y-42703809D02*
X68673390Y-42608571D01*
X68673390Y-42608571D02*
X68721009Y-42560952D01*
X68721009Y-42560952D02*
X68816247Y-42513333D01*
X68816247Y-42513333D02*
X69054342Y-42513333D01*
X69054342Y-42513333D02*
X69149580Y-42560952D01*
X69149580Y-42560952D02*
X69197200Y-42608571D01*
X69197200Y-42608571D02*
X69244819Y-42703809D01*
X69244819Y-42703809D02*
X69244819Y-42989523D01*
X69244819Y-42989523D02*
X69197200Y-43084761D01*
X69197200Y-43084761D02*
X69149580Y-43132380D01*
D14*
%TO.C,U3*%
X132784358Y-30706925D02*
X138784358Y-30706925D01*
X132784358Y-31466925D02*
X132784358Y-30706925D01*
X132784358Y-33246925D02*
X138784358Y-33246925D01*
X132784358Y-34006925D02*
X132784358Y-33246925D01*
X132784358Y-35786925D02*
X138784358Y-35786925D01*
X132784358Y-36546925D02*
X132784358Y-35786925D01*
X132784358Y-38326925D02*
X138784358Y-38326925D01*
X132784358Y-39086925D02*
X132784358Y-38326925D01*
X138784358Y-29756925D02*
X138784358Y-40036925D01*
X138784358Y-31466925D02*
X132784358Y-31466925D01*
X138784358Y-34006925D02*
X132784358Y-34006925D01*
X138784358Y-36546925D02*
X132784358Y-36546925D01*
X138784358Y-38426925D02*
X132784358Y-38426925D01*
X138784358Y-38546925D02*
X132784358Y-38546925D01*
X138784358Y-38666925D02*
X132784358Y-38666925D01*
X138784358Y-38786925D02*
X132784358Y-38786925D01*
X138784358Y-38906925D02*
X132784358Y-38906925D01*
X138784358Y-39026925D02*
X132784358Y-39026925D01*
X138784358Y-39086925D02*
X132784358Y-39086925D01*
X138784358Y-40036925D02*
X141444358Y-40036925D01*
X141444358Y-29756925D02*
X138784358Y-29756925D01*
X141444358Y-32356925D02*
X138784358Y-32356925D01*
X141444358Y-34896925D02*
X138784358Y-34896925D01*
X141444358Y-37436925D02*
X138784358Y-37436925D01*
X141444358Y-40036925D02*
X141444358Y-29756925D01*
X141774358Y-38326925D02*
X141444358Y-38326925D01*
X141774358Y-39086925D02*
X141444358Y-39086925D01*
X141841429Y-30706925D02*
X141444358Y-30706925D01*
X141841429Y-31466925D02*
X141444358Y-31466925D01*
X141841429Y-33246925D02*
X141444358Y-33246925D01*
X141841429Y-34006925D02*
X141444358Y-34006925D01*
X141841429Y-35786925D02*
X141444358Y-35786925D01*
X141841429Y-36546925D02*
X141444358Y-36546925D01*
X144154358Y-38706925D02*
X144154358Y-39976925D01*
X144154358Y-39976925D02*
X142884358Y-39976925D01*
X125394249Y-46695935D02*
X148254249Y-46695935D01*
X148254249Y-46695935D02*
X148254249Y-23835935D01*
X148254249Y-23835935D02*
X125394249Y-23835935D01*
X125394249Y-23835935D02*
X125394249Y-46695935D01*
%TO.C,U7*%
X146241777Y-87883679D02*
X82741777Y-87883679D01*
X82741777Y-87883679D02*
X82741777Y-47243679D01*
X82741777Y-47243679D02*
X146241777Y-47243679D01*
X146241777Y-47243679D02*
X146241777Y-87883679D01*
%TO.C,U4*%
X80698599Y-85384231D02*
X79368599Y-85384231D01*
X80698599Y-84054231D02*
X80698599Y-85384231D01*
X80698599Y-82784231D02*
X80698599Y-54784231D01*
X80698599Y-82784231D02*
X78098599Y-82784231D01*
X80698599Y-54784231D02*
X75498599Y-54784231D01*
X78098599Y-85384231D02*
X75498599Y-85384231D01*
X78098599Y-82784231D02*
X78098599Y-85384231D01*
X75498599Y-85384231D02*
X75498599Y-54784231D01*
X42263599Y-88499231D02*
X81463599Y-88499231D01*
X81463599Y-88499231D02*
X81463599Y-50399231D01*
X81463599Y-50399231D02*
X42263599Y-50399231D01*
X42263599Y-50399231D02*
X42263599Y-88499231D01*
%TO.C,R2*%
X105640000Y-43180000D02*
X104870000Y-43180000D01*
X104870000Y-44550000D02*
X104870000Y-41810000D01*
X104870000Y-41810000D02*
X98330000Y-41810000D01*
X98330000Y-44550000D02*
X104870000Y-44550000D01*
X98330000Y-41810000D02*
X98330000Y-44550000D01*
X97560000Y-43180000D02*
X98330000Y-43180000D01*
%TO.C,U1*%
X150082312Y-37675556D02*
X150082312Y-80675556D01*
X150082312Y-80675556D02*
X180082312Y-80675556D01*
X154582312Y-37675556D02*
X175082312Y-37675556D01*
X154910052Y-23933676D02*
X156240052Y-23933676D01*
X154910052Y-25043676D02*
X154910052Y-23933676D01*
X154910052Y-29043676D02*
X175350052Y-29043676D01*
X154910052Y-37673676D02*
X154910052Y-29043676D01*
X154910052Y-37673676D02*
X175350052Y-37673676D01*
X155030052Y-37673676D02*
X155030052Y-29043676D01*
X155082312Y-29175556D02*
X155082312Y-37675556D01*
X155148147Y-37673676D02*
X155148147Y-29043676D01*
X155266242Y-37673676D02*
X155266242Y-29043676D01*
X155384337Y-37673676D02*
X155384337Y-29043676D01*
X155502432Y-37673676D02*
X155502432Y-29043676D01*
X155620527Y-37673676D02*
X155620527Y-29043676D01*
X155738622Y-37673676D02*
X155738622Y-29043676D01*
X155856717Y-37673676D02*
X155856717Y-29043676D01*
X155880052Y-26533676D02*
X155880052Y-26153676D01*
X155880052Y-29043676D02*
X155880052Y-28633676D01*
X155974812Y-37673676D02*
X155974812Y-29043676D01*
X156092907Y-37673676D02*
X156092907Y-29043676D01*
X156211002Y-37673676D02*
X156211002Y-29043676D01*
X156329097Y-37673676D02*
X156329097Y-29043676D01*
X156447192Y-37673676D02*
X156447192Y-29043676D01*
X156565287Y-37673676D02*
X156565287Y-29043676D01*
X156600052Y-26533676D02*
X156600052Y-26153676D01*
X156600052Y-29043676D02*
X156600052Y-28633676D01*
X156683382Y-37673676D02*
X156683382Y-29043676D01*
X156801477Y-37673676D02*
X156801477Y-29043676D01*
X156919572Y-37673676D02*
X156919572Y-29043676D01*
X157037667Y-37673676D02*
X157037667Y-29043676D01*
X157155762Y-37673676D02*
X157155762Y-29043676D01*
X157273857Y-37673676D02*
X157273857Y-29043676D01*
X157391952Y-37673676D02*
X157391952Y-29043676D01*
X157510052Y-37673676D02*
X157510052Y-29043676D01*
X158420052Y-26533676D02*
X158420052Y-26093676D01*
X158420052Y-29043676D02*
X158420052Y-28633676D01*
X159140052Y-26533676D02*
X159140052Y-26093676D01*
X159140052Y-29043676D02*
X159140052Y-28633676D01*
X160050052Y-37673676D02*
X160050052Y-29043676D01*
X160960052Y-26533676D02*
X160960052Y-26093676D01*
X160960052Y-29043676D02*
X160960052Y-28633676D01*
X161680052Y-26533676D02*
X161680052Y-26093676D01*
X161680052Y-29043676D02*
X161680052Y-28633676D01*
X162590052Y-37673676D02*
X162590052Y-29043676D01*
X163500052Y-26533676D02*
X163500052Y-26093676D01*
X163500052Y-29043676D02*
X163500052Y-28633676D01*
X164220052Y-26533676D02*
X164220052Y-26093676D01*
X164220052Y-29043676D02*
X164220052Y-28633676D01*
X165130052Y-37673676D02*
X165130052Y-29043676D01*
X166040052Y-26533676D02*
X166040052Y-26093676D01*
X166040052Y-29043676D02*
X166040052Y-28633676D01*
X166760052Y-26533676D02*
X166760052Y-26093676D01*
X166760052Y-29043676D02*
X166760052Y-28633676D01*
X167670052Y-37673676D02*
X167670052Y-29043676D01*
X168580052Y-26533676D02*
X168580052Y-26093676D01*
X168580052Y-29043676D02*
X168580052Y-28633676D01*
X169300052Y-26533676D02*
X169300052Y-26093676D01*
X169300052Y-29043676D02*
X169300052Y-28633676D01*
X170210052Y-37673676D02*
X170210052Y-29043676D01*
X171120052Y-26533676D02*
X171120052Y-26093676D01*
X171120052Y-29043676D02*
X171120052Y-28633676D01*
X171840052Y-26533676D02*
X171840052Y-26093676D01*
X171840052Y-29043676D02*
X171840052Y-28633676D01*
X172750052Y-37673676D02*
X172750052Y-29043676D01*
X173660052Y-26533676D02*
X173660052Y-26093676D01*
X173660052Y-29043676D02*
X173660052Y-28633676D01*
X174380052Y-26533676D02*
X174380052Y-26093676D01*
X174380052Y-29043676D02*
X174380052Y-28633676D01*
X175082312Y-29175556D02*
X155082312Y-29175556D01*
X175082312Y-37675556D02*
X175082312Y-29175556D01*
X175350052Y-37673676D02*
X175350052Y-29043676D01*
X180082312Y-37675556D02*
X150082312Y-37675556D01*
X180082312Y-37675556D02*
X180082312Y-68155556D01*
X180082312Y-68155556D02*
X180082312Y-79585556D01*
X180082312Y-79585556D02*
X180082312Y-80675556D01*
%TO.C,R3*%
X177903102Y-82712958D02*
X177133102Y-82712958D01*
X177133102Y-84082958D02*
X177133102Y-81342958D01*
X177133102Y-81342958D02*
X170593102Y-81342958D01*
X170593102Y-84082958D02*
X177133102Y-84082958D01*
X170593102Y-81342958D02*
X170593102Y-84082958D01*
X169823102Y-82712958D02*
X170593102Y-82712958D01*
%TO.C,R4*%
X177903102Y-86704287D02*
X177133102Y-86704287D01*
X177133102Y-88074287D02*
X177133102Y-85334287D01*
X177133102Y-85334287D02*
X170593102Y-85334287D01*
X170593102Y-88074287D02*
X177133102Y-88074287D01*
X170593102Y-85334287D02*
X170593102Y-88074287D01*
X169823102Y-86704287D02*
X170593102Y-86704287D01*
%TO.C,R1*%
X119734838Y-43116036D02*
X118964838Y-43116036D01*
X118964838Y-44486036D02*
X118964838Y-41746036D01*
X118964838Y-41746036D02*
X112424838Y-41746036D01*
X112424838Y-44486036D02*
X118964838Y-44486036D01*
X112424838Y-41746036D02*
X112424838Y-44486036D01*
X111654838Y-43116036D02*
X112424838Y-43116036D01*
%TO.C,J1*%
X149770000Y-88247678D02*
X149770000Y-82827678D01*
X158490000Y-82827678D02*
X149770000Y-82827678D01*
X158490000Y-88247678D02*
X149770000Y-88247678D01*
X160190000Y-84127678D02*
X158490000Y-82827678D01*
X160190000Y-86947678D02*
X158490000Y-88247678D01*
X160190000Y-86947678D02*
X160190000Y-84127678D01*
%TO.C,U2*%
D10*
X95907000Y-30173000D02*
X95653000Y-30427000D01*
X95399000Y-30046000D01*
X95653000Y-29792000D01*
X95907000Y-30173000D01*
G36*
X95907000Y-30173000D02*
G01*
X95653000Y-30427000D01*
X95399000Y-30046000D01*
X95653000Y-29792000D01*
X95907000Y-30173000D01*
G37*
X95526000Y-30554000D02*
X95272000Y-30808000D01*
X95018000Y-30427000D01*
X95272000Y-30173000D01*
X95526000Y-30554000D01*
G36*
X95526000Y-30554000D02*
G01*
X95272000Y-30808000D01*
X95018000Y-30427000D01*
X95272000Y-30173000D01*
X95526000Y-30554000D01*
G37*
X95145000Y-30935000D02*
X94891000Y-31189000D01*
X94637000Y-30808000D01*
X94891000Y-30554000D01*
X95145000Y-30935000D01*
G36*
X95145000Y-30935000D02*
G01*
X94891000Y-31189000D01*
X94637000Y-30808000D01*
X94891000Y-30554000D01*
X95145000Y-30935000D01*
G37*
X94764000Y-30427000D02*
X94510000Y-30681000D01*
X94256000Y-30300000D01*
X94510000Y-30046000D01*
X94764000Y-30427000D01*
G36*
X94764000Y-30427000D02*
G01*
X94510000Y-30681000D01*
X94256000Y-30300000D01*
X94510000Y-30046000D01*
X94764000Y-30427000D01*
G37*
X94383000Y-30808000D02*
X94129000Y-31062000D01*
X93875000Y-30681000D01*
X94129000Y-30427000D01*
X94383000Y-30808000D01*
G36*
X94383000Y-30808000D02*
G01*
X94129000Y-31062000D01*
X93875000Y-30681000D01*
X94129000Y-30427000D01*
X94383000Y-30808000D01*
G37*
X94383000Y-29919000D02*
X94129000Y-30173000D01*
X93875000Y-29792000D01*
X94129000Y-29538000D01*
X94383000Y-29919000D01*
G36*
X94383000Y-29919000D02*
G01*
X94129000Y-30173000D01*
X93875000Y-29792000D01*
X94129000Y-29538000D01*
X94383000Y-29919000D01*
G37*
X94002000Y-30300000D02*
X93748000Y-30554000D01*
X93494000Y-30173000D01*
X93748000Y-29919000D01*
X94002000Y-30300000D01*
G36*
X94002000Y-30300000D02*
G01*
X93748000Y-30554000D01*
X93494000Y-30173000D01*
X93748000Y-29919000D01*
X94002000Y-30300000D01*
G37*
X93621000Y-29792000D02*
X93367000Y-30046000D01*
X93113000Y-29665000D01*
X93367000Y-29411000D01*
X93621000Y-29792000D01*
G36*
X93621000Y-29792000D02*
G01*
X93367000Y-30046000D01*
X93113000Y-29665000D01*
X93367000Y-29411000D01*
X93621000Y-29792000D01*
G37*
D11*
X105673026Y-30480000D02*
G75*
G03*
X105673026Y-30480000I-898026J0D01*
G01*
X123190000Y-39370000D02*
X62230000Y-39370000D01*
X123190000Y-25400000D02*
X121920000Y-25400000D01*
X123190000Y-24130000D02*
X110490000Y-24130000D01*
X123190000Y-21590000D02*
X123190000Y-39370000D01*
X121920000Y-35560000D02*
X123190000Y-35560000D01*
X121920000Y-25400000D02*
X121920000Y-35560000D01*
X110490000Y-36830000D02*
X123190000Y-36830000D01*
X110490000Y-24130000D02*
X110490000Y-36830000D01*
X106680000Y-31750000D02*
X102870000Y-31750000D01*
X106680000Y-29210000D02*
X106680000Y-31750000D01*
X102870000Y-31750000D02*
X102870000Y-29210000D01*
X102870000Y-29210000D02*
X106680000Y-29210000D01*
X97790000Y-36830000D02*
X97790000Y-24130000D01*
X97790000Y-24130000D02*
X85090000Y-24130000D01*
X85090000Y-36830000D02*
X97790000Y-36830000D01*
X85090000Y-24130000D02*
X85090000Y-36830000D01*
X81229200Y-36319200D02*
X68529200Y-36319200D01*
X81229200Y-33779200D02*
X81229200Y-36319200D01*
X79460000Y-30378400D02*
X79460000Y-24128400D01*
X79460000Y-24128400D02*
X75460000Y-24128400D01*
X75460000Y-30378400D02*
X79460000Y-30378400D01*
X75460000Y-24378400D02*
X75460000Y-30378400D01*
X75460000Y-24128400D02*
X75460000Y-24378400D01*
X71069200Y-33779200D02*
X71069200Y-36319200D01*
X68529200Y-36319200D02*
X68529200Y-33779200D01*
X68529200Y-33779200D02*
X81229200Y-33779200D01*
X68529200Y-33779200D02*
X71069200Y-33779200D01*
X67310000Y-34290000D02*
X67310000Y-26670000D01*
X67310000Y-34290000D02*
X62230000Y-34290000D01*
X67310000Y-26670000D02*
X62230000Y-26670000D01*
X62230000Y-39370000D02*
X62230000Y-21590000D01*
X62230000Y-34290000D02*
X60960000Y-34290000D01*
X62230000Y-21590000D02*
X123190000Y-21590000D01*
X60960000Y-34290000D02*
X60960000Y-26670000D01*
X60960000Y-26670000D02*
X62230000Y-26670000D01*
D14*
%TO.C,J2*%
X87630000Y-44510000D02*
X82490000Y-44510000D01*
X82490000Y-41850000D02*
X82490000Y-44510000D01*
X87630000Y-41850000D02*
X87630000Y-44510000D01*
X87630000Y-41850000D02*
X82490000Y-41850000D01*
X88900000Y-41850000D02*
X90230000Y-41850000D01*
X90230000Y-41850000D02*
X90230000Y-43180000D01*
%TO.C,U5*%
X61393617Y-48969940D02*
X61393617Y-35634940D01*
X61393617Y-35634940D02*
X43613617Y-35634940D01*
X43613617Y-48969940D02*
X61393617Y-48969940D01*
X43613617Y-35634940D02*
X43613617Y-48969940D01*
%TO.C,BZ1*%
X54567845Y-27978236D02*
G75*
G03*
X54567845Y-27978236I-6100000J0D01*
G01*
%TO.C,U6*%
G36*
X170066198Y-36494658D02*
G01*
X170023864Y-36536991D01*
X169981531Y-36494658D01*
X170023864Y-36452325D01*
X170066198Y-36494658D01*
G37*
G36*
X170144754Y-36068836D02*
G01*
X170150864Y-36113658D01*
X170119886Y-36183348D01*
X170094420Y-36170103D01*
X170084287Y-36069623D01*
X170094420Y-36057214D01*
X170144754Y-36068836D01*
G37*
G36*
X170222860Y-35738506D02*
G01*
X170228847Y-35824380D01*
X170208169Y-35914723D01*
X170177694Y-35875533D01*
X170167600Y-35743209D01*
X170184378Y-35713255D01*
X170222860Y-35738506D01*
G37*
G36*
X169618074Y-77610634D02*
G01*
X170058996Y-77617801D01*
X170410631Y-77630670D01*
X170647149Y-77648263D01*
X170742720Y-77669601D01*
X170743531Y-77671860D01*
X170663392Y-77693026D01*
X170440896Y-77707870D01*
X170102927Y-77715727D01*
X169676366Y-77715932D01*
X169240698Y-77709062D01*
X168600039Y-77692816D01*
X168126571Y-77677313D01*
X167820578Y-77662773D01*
X167682346Y-77649420D01*
X167712160Y-77637475D01*
X167910305Y-77627161D01*
X168277065Y-77618700D01*
X168812727Y-77612313D01*
X169113698Y-77610146D01*
X169618074Y-77610634D01*
G37*
G36*
X171241263Y-33100809D02*
G01*
X171216686Y-33223696D01*
X171107313Y-33446658D01*
X171023763Y-33625475D01*
X170899522Y-33921440D01*
X170751743Y-34292555D01*
X170605972Y-34674325D01*
X170439613Y-35108243D01*
X170323715Y-35386992D01*
X170259789Y-35509894D01*
X170249348Y-35476269D01*
X170293903Y-35285438D01*
X170394965Y-34936723D01*
X170454882Y-34742195D01*
X170604351Y-34292379D01*
X170760045Y-33873556D01*
X170909582Y-33514413D01*
X171040582Y-33243637D01*
X171140664Y-33089918D01*
X171178427Y-33065658D01*
X171241263Y-33100809D01*
G37*
G36*
X172100201Y-74086658D02*
G01*
X172163983Y-74381032D01*
X172209326Y-74716299D01*
X172238873Y-75126399D01*
X172255268Y-75645271D01*
X172260622Y-76146033D01*
X172261955Y-76677100D01*
X172258701Y-77061547D01*
X172248632Y-77322069D01*
X172229519Y-77481364D01*
X172199133Y-77562127D01*
X172155243Y-77587055D01*
X172119364Y-77584251D01*
X172072584Y-77563479D01*
X172036514Y-77508082D01*
X172009598Y-77398063D01*
X171990278Y-77213425D01*
X171976995Y-76934171D01*
X171968193Y-76540306D01*
X171962314Y-76011831D01*
X171958944Y-75524876D01*
X171946690Y-73493991D01*
X172100201Y-74086658D01*
G37*
G36*
X170831813Y-64238783D02*
G01*
X170893697Y-64316405D01*
X170912056Y-64501228D01*
X170912864Y-64603991D01*
X170912864Y-64984991D01*
X171674864Y-64984991D01*
X172035581Y-64986677D01*
X172259551Y-64997767D01*
X172379358Y-65027315D01*
X172427588Y-65084370D01*
X172436827Y-65177985D01*
X172436864Y-65196658D01*
X172430797Y-65296857D01*
X172390871Y-65359071D01*
X172284501Y-65392351D01*
X172079102Y-65405748D01*
X171742088Y-65408315D01*
X171674864Y-65408325D01*
X170912864Y-65408325D01*
X170912864Y-65789325D01*
X170904091Y-66024432D01*
X170860968Y-66135823D01*
X170758289Y-66168870D01*
X170701198Y-66170325D01*
X170489531Y-66170325D01*
X170489531Y-64222991D01*
X170701198Y-64222991D01*
X170831813Y-64238783D01*
G37*
G36*
X169455268Y-73667920D02*
G01*
X169357268Y-73870545D01*
X169181640Y-74153912D01*
X169112100Y-74255991D01*
X168599062Y-75021834D01*
X168176334Y-75710437D01*
X167853007Y-76306235D01*
X167652095Y-76756545D01*
X167534026Y-77040402D01*
X167428778Y-77249449D01*
X167356529Y-77344359D01*
X167349462Y-77346325D01*
X167308324Y-77269499D01*
X167280298Y-77070182D01*
X167272198Y-76849283D01*
X167277448Y-76624744D01*
X167304740Y-76443647D01*
X167371380Y-76265897D01*
X167494676Y-76051398D01*
X167691936Y-75760057D01*
X167822187Y-75575195D01*
X168118825Y-75163724D01*
X168424759Y-74752572D01*
X168720321Y-74366806D01*
X168985848Y-74031495D01*
X169201672Y-73771707D01*
X169348128Y-73612509D01*
X169388113Y-73579122D01*
X169468072Y-73564594D01*
X169455268Y-73667920D01*
G37*
G36*
X171105642Y-38042271D02*
G01*
X171365478Y-38294907D01*
X171550277Y-38450309D01*
X171703644Y-38532064D01*
X171869183Y-38563761D01*
X172079309Y-38568991D01*
X172337528Y-38575190D01*
X172468953Y-38607330D01*
X172516032Y-38685729D01*
X172521531Y-38780658D01*
X172510111Y-38899887D01*
X172448801Y-38963208D01*
X172297026Y-38988307D01*
X172034698Y-38992852D01*
X171786542Y-38998144D01*
X171610854Y-39030198D01*
X171457599Y-39114261D01*
X171276742Y-39275579D01*
X171082198Y-39473473D01*
X170849923Y-39710588D01*
X170709843Y-39838706D01*
X170636304Y-39870425D01*
X170603648Y-39818340D01*
X170588666Y-39715809D01*
X170603000Y-39537713D01*
X170706827Y-39350174D01*
X170906556Y-39125752D01*
X171252312Y-38773453D01*
X170913255Y-38442373D01*
X170701027Y-38208547D01*
X170598522Y-38010339D01*
X170574198Y-37813421D01*
X170574198Y-37515550D01*
X171105642Y-38042271D01*
G37*
G36*
X170884675Y-44014541D02*
G01*
X170919974Y-44051158D01*
X170928024Y-44169847D01*
X170939211Y-44386074D01*
X170942318Y-44453325D01*
X170970558Y-44678883D01*
X171036124Y-44764296D01*
X171083097Y-44763862D01*
X171224028Y-44757535D01*
X171482056Y-44766488D01*
X171805826Y-44788752D01*
X171865087Y-44793841D01*
X172200004Y-44828880D01*
X172398912Y-44867967D01*
X172494992Y-44921993D01*
X172521430Y-45001850D01*
X172521531Y-45009293D01*
X172504567Y-45084137D01*
X172432814Y-45132951D01*
X172274981Y-45162993D01*
X171999779Y-45181523D01*
X171738364Y-45190981D01*
X170955198Y-45215325D01*
X170929163Y-45575158D01*
X170897138Y-45808416D01*
X170831401Y-45914228D01*
X170738663Y-45934991D01*
X170667938Y-45923585D01*
X170620986Y-45870317D01*
X170592983Y-45746617D01*
X170579101Y-45523911D01*
X170574515Y-45173629D01*
X170574198Y-44961325D01*
X170575993Y-44542979D01*
X170584702Y-44265308D01*
X170605307Y-44099662D01*
X170642790Y-44017395D01*
X170702132Y-43989858D01*
X170743531Y-43987658D01*
X170884675Y-44014541D01*
G37*
G36*
X172436864Y-50259422D02*
G01*
X172410892Y-50459424D01*
X172313525Y-50646118D01*
X172115591Y-50870876D01*
X172055864Y-50930325D01*
X171808934Y-51205703D01*
X171691230Y-51427979D01*
X171674864Y-51540620D01*
X171687578Y-51686105D01*
X171756252Y-51755022D01*
X171926685Y-51775786D01*
X172055864Y-51776991D01*
X172290971Y-51785765D01*
X172402363Y-51828888D01*
X172435409Y-51931567D01*
X172436864Y-51988658D01*
X172436864Y-52200325D01*
X170489531Y-52200325D01*
X170489531Y-51988658D01*
X170503527Y-51862349D01*
X170574576Y-51799770D01*
X170746272Y-51778803D01*
X170906699Y-51776991D01*
X171323867Y-51776991D01*
X171289663Y-51506727D01*
X171179691Y-51226361D01*
X170916937Y-50893643D01*
X170872495Y-50847652D01*
X170631111Y-50572474D01*
X170511818Y-50351814D01*
X170489531Y-50210642D01*
X170489531Y-49962443D01*
X170936693Y-50404050D01*
X171163369Y-50618032D01*
X171348625Y-50774916D01*
X171456547Y-50844578D01*
X171463198Y-50845658D01*
X171558015Y-50789986D01*
X171734983Y-50643053D01*
X171958189Y-50434980D01*
X171989702Y-50404050D01*
X172436864Y-49962443D01*
X172436864Y-50259422D01*
G37*
G36*
X172436864Y-70615325D02*
G01*
X172428149Y-70725909D01*
X172377404Y-70789199D01*
X172247732Y-70818372D01*
X172002233Y-70826606D01*
X171844198Y-70826991D01*
X171552074Y-70834690D01*
X171340398Y-70854950D01*
X171251997Y-70883517D01*
X171251531Y-70885859D01*
X171304891Y-70979302D01*
X171437303Y-71137615D01*
X171479420Y-71182591D01*
X171707309Y-71420456D01*
X171420478Y-71716390D01*
X171133647Y-72012325D01*
X171785255Y-72012325D01*
X172114993Y-72016131D01*
X172310138Y-72033558D01*
X172405368Y-72073617D01*
X172435359Y-72145320D01*
X172436864Y-72181658D01*
X172426538Y-72254414D01*
X172376461Y-72302705D01*
X172257984Y-72331512D01*
X172042460Y-72345820D01*
X171701241Y-72350609D01*
X171463198Y-72350991D01*
X170990771Y-72343454D01*
X170676542Y-72313668D01*
X170509761Y-72250873D01*
X170479684Y-72144310D01*
X170575563Y-71983219D01*
X170786651Y-71756841D01*
X170828588Y-71715610D01*
X171167645Y-71384530D01*
X170828588Y-71039056D01*
X170605878Y-70798648D01*
X170492686Y-70627391D01*
X170500501Y-70513784D01*
X170640811Y-70446323D01*
X170925105Y-70413506D01*
X171364870Y-70403830D01*
X171463198Y-70403658D01*
X172436864Y-70403658D01*
X172436864Y-70615325D01*
G37*
G36*
X171157280Y-53391221D02*
G01*
X171166864Y-53508004D01*
X171118582Y-53681788D01*
X171039864Y-53754943D01*
X170958645Y-53846532D01*
X170919265Y-54059584D01*
X170912864Y-54269022D01*
X170940269Y-54599422D01*
X171040784Y-54796433D01*
X171241861Y-54889730D01*
X171505531Y-54909658D01*
X171821016Y-54875909D01*
X172005508Y-54756031D01*
X172087038Y-54522079D01*
X172098198Y-54318814D01*
X172079906Y-54036772D01*
X172012997Y-53866265D01*
X171921155Y-53779255D01*
X171797104Y-53632815D01*
X171779284Y-53481931D01*
X171860476Y-53381921D01*
X171974267Y-53372133D01*
X172190929Y-53443260D01*
X172330653Y-53585994D01*
X172407559Y-53829426D01*
X172435765Y-54202649D01*
X172436864Y-54325313D01*
X172431580Y-54666292D01*
X172408974Y-54880695D01*
X172358912Y-55011123D01*
X172271263Y-55100180D01*
X172248692Y-55116524D01*
X172018278Y-55204684D01*
X171640944Y-55245085D01*
X171457481Y-55248325D01*
X171054441Y-55226860D01*
X170786988Y-55145398D01*
X170624907Y-54978338D01*
X170537981Y-54700079D01*
X170507106Y-54443107D01*
X170515038Y-53972174D01*
X170627810Y-53633661D01*
X170845282Y-53427924D01*
X170920860Y-53395558D01*
X171091980Y-53348724D01*
X171157280Y-53391221D01*
G37*
G36*
X171878483Y-56492716D02*
G01*
X172159741Y-56560483D01*
X172328227Y-56705684D01*
X172411320Y-56954710D01*
X172436398Y-57333953D01*
X172436864Y-57420447D01*
X172428119Y-57767415D01*
X172395297Y-57991814D01*
X172328516Y-58139816D01*
X172267531Y-58211658D01*
X172143319Y-58303754D01*
X171970613Y-58355919D01*
X171703243Y-58378035D01*
X171614322Y-58379193D01*
X171476320Y-58380991D01*
X171070108Y-58363642D01*
X170798993Y-58293339D01*
X170636583Y-58142706D01*
X170556487Y-57884363D01*
X170532313Y-57490931D01*
X170532176Y-57463613D01*
X170912864Y-57463613D01*
X170930893Y-57736346D01*
X170995778Y-57891116D01*
X171076631Y-57954679D01*
X171325971Y-58028398D01*
X171614322Y-58033395D01*
X171865324Y-57973571D01*
X171965150Y-57909277D01*
X172052887Y-57732776D01*
X172093875Y-57472943D01*
X172085678Y-57203391D01*
X172025863Y-56997727D01*
X171996598Y-56958591D01*
X171840320Y-56891537D01*
X171590394Y-56861561D01*
X171318393Y-56868665D01*
X171095892Y-56912849D01*
X171014464Y-56958592D01*
X170953876Y-57099298D01*
X170917529Y-57338355D01*
X170912864Y-57463613D01*
X170532176Y-57463613D01*
X170531864Y-57401201D01*
X170546797Y-56994630D01*
X170610703Y-56727511D01*
X170752242Y-56571182D01*
X171000073Y-56496985D01*
X171382855Y-56476260D01*
X171457074Y-56475991D01*
X171878483Y-56492716D01*
G37*
G36*
X170801397Y-67361726D02*
G01*
X170863610Y-67401652D01*
X170896890Y-67508022D01*
X170910288Y-67713421D01*
X170912854Y-68050435D01*
X170912864Y-68117658D01*
X170914840Y-68478488D01*
X170926446Y-68702545D01*
X170956196Y-68822386D01*
X171012606Y-68870567D01*
X171104192Y-68879646D01*
X171112171Y-68879658D01*
X171212609Y-68869814D01*
X171273371Y-68816948D01*
X171305998Y-68686060D01*
X171322034Y-68442150D01*
X171328586Y-68223491D01*
X171345556Y-67902010D01*
X171374938Y-67646766D01*
X171410957Y-67504741D01*
X171418236Y-67494269D01*
X171533073Y-67444755D01*
X171614463Y-67559715D01*
X171661815Y-67837506D01*
X171674864Y-68207322D01*
X171677161Y-68541744D01*
X171691329Y-68741511D01*
X171728285Y-68841300D01*
X171798946Y-68875785D01*
X171886531Y-68879658D01*
X171986730Y-68873591D01*
X172048944Y-68833665D01*
X172082224Y-68727295D01*
X172095621Y-68521896D01*
X172098187Y-68184882D01*
X172098198Y-68117658D01*
X172101027Y-67755623D01*
X172114290Y-67530661D01*
X172145149Y-67410542D01*
X172200765Y-67363037D01*
X172267531Y-67355658D01*
X172340287Y-67365984D01*
X172388577Y-67416062D01*
X172417385Y-67534538D01*
X172431692Y-67750062D01*
X172436482Y-68091282D01*
X172436864Y-68329325D01*
X172436864Y-69302991D01*
X170489531Y-69302991D01*
X170489531Y-67355658D01*
X170701198Y-67355658D01*
X170801397Y-67361726D01*
G37*
G36*
X172436864Y-59742735D02*
G01*
X172410738Y-59942608D01*
X172312928Y-60129558D01*
X172114289Y-60354856D01*
X172055864Y-60412991D01*
X171855354Y-60632639D01*
X171717335Y-60827542D01*
X171674864Y-60938620D01*
X171706692Y-61034655D01*
X171829132Y-61079835D01*
X172055864Y-61090325D01*
X172290971Y-61099098D01*
X172402363Y-61142221D01*
X172435409Y-61244900D01*
X172436864Y-61301991D01*
X172436864Y-61513658D01*
X171103364Y-61513658D01*
X170489531Y-61513658D01*
X170490779Y-60772825D01*
X170497327Y-60544988D01*
X170912864Y-60544988D01*
X170917353Y-60839771D01*
X170939711Y-61003459D01*
X170993275Y-61074230D01*
X171091381Y-61090259D01*
X171103364Y-61090322D01*
X171210449Y-61074957D01*
X171270150Y-61002478D01*
X171298873Y-60833300D01*
X171311002Y-60589345D01*
X171302670Y-60238740D01*
X171246394Y-60034589D01*
X171208877Y-59989392D01*
X171068930Y-59924709D01*
X170975337Y-60007537D01*
X170924709Y-60244236D01*
X170912864Y-60544988D01*
X170497327Y-60544988D01*
X170504365Y-60300102D01*
X170551164Y-59970256D01*
X170643031Y-59758180D01*
X170791823Y-59638772D01*
X171009396Y-59586925D01*
X171052604Y-59583132D01*
X171378673Y-59613008D01*
X171591000Y-59751076D01*
X171674230Y-59986717D01*
X171674864Y-60013334D01*
X171689863Y-60096729D01*
X171751361Y-60091361D01*
X171884109Y-59984691D01*
X172055864Y-59820325D01*
X172436864Y-59446402D01*
X172436864Y-59742735D01*
G37*
G36*
X170801397Y-47126392D02*
G01*
X170863610Y-47166318D01*
X170896890Y-47272688D01*
X170910288Y-47478087D01*
X170912854Y-47815101D01*
X170912864Y-47882325D01*
X170914840Y-48243155D01*
X170926446Y-48467212D01*
X170956196Y-48587052D01*
X171012606Y-48635234D01*
X171104192Y-48644312D01*
X171112171Y-48644325D01*
X171212932Y-48634377D01*
X171273755Y-48581109D01*
X171306328Y-48449388D01*
X171322337Y-48204078D01*
X171328707Y-47993361D01*
X171342615Y-47622500D01*
X171366442Y-47389637D01*
X171409097Y-47263436D01*
X171479489Y-47212565D01*
X171552861Y-47204991D01*
X171614371Y-47239728D01*
X171652007Y-47362735D01*
X171670547Y-47602208D01*
X171674864Y-47924658D01*
X171676808Y-48273154D01*
X171689211Y-48485844D01*
X171721936Y-48596251D01*
X171784842Y-48637903D01*
X171886531Y-48644325D01*
X171986730Y-48638257D01*
X172048944Y-48598331D01*
X172082224Y-48491961D01*
X172095621Y-48286562D01*
X172098187Y-47949548D01*
X172098198Y-47882325D01*
X172101027Y-47520290D01*
X172114290Y-47295327D01*
X172145149Y-47175209D01*
X172200765Y-47127704D01*
X172267531Y-47120325D01*
X172340287Y-47130651D01*
X172388577Y-47180728D01*
X172417385Y-47299205D01*
X172431692Y-47514729D01*
X172436482Y-47855948D01*
X172436864Y-48093991D01*
X172436864Y-49067658D01*
X170489531Y-49067658D01*
X170489531Y-47120325D01*
X170701198Y-47120325D01*
X170801397Y-47126392D01*
G37*
G36*
X172521531Y-41031402D02*
G01*
X172495404Y-41231275D01*
X172397594Y-41418224D01*
X172198956Y-41643523D01*
X172140531Y-41701658D01*
X171909004Y-41962180D01*
X171778986Y-42181426D01*
X171759531Y-42269620D01*
X171778318Y-42389767D01*
X171864536Y-42446683D01*
X172062970Y-42463176D01*
X172140531Y-42463658D01*
X172378626Y-42474738D01*
X172491214Y-42520743D01*
X172521385Y-42620827D01*
X172521531Y-42632991D01*
X172511205Y-42705747D01*
X172461127Y-42754038D01*
X172342651Y-42782846D01*
X172127127Y-42797153D01*
X171785907Y-42801942D01*
X171547864Y-42802325D01*
X171244835Y-42802325D01*
X170574198Y-42802325D01*
X170574198Y-41957610D01*
X170574438Y-41917996D01*
X170921310Y-41917996D01*
X170928460Y-42047116D01*
X170959649Y-42287152D01*
X171025019Y-42405354D01*
X171145698Y-42448380D01*
X171244835Y-42452311D01*
X171301826Y-42405611D01*
X171328293Y-42273411D01*
X171335859Y-42020841D01*
X171336198Y-41876880D01*
X171331645Y-41563403D01*
X171311264Y-41383175D01*
X171264972Y-41300210D01*
X171182685Y-41278521D01*
X171168477Y-41278325D01*
X171018859Y-41347219D01*
X170937151Y-41558262D01*
X170921310Y-41917996D01*
X170574438Y-41917996D01*
X170576539Y-41570665D01*
X170588770Y-41316710D01*
X170618696Y-41159415D01*
X170674127Y-41062450D01*
X170762871Y-40989483D01*
X170785491Y-40974451D01*
X171064142Y-40871536D01*
X171345899Y-40893780D01*
X171577816Y-41027672D01*
X171691758Y-41205725D01*
X171781031Y-41461814D01*
X172521531Y-40735068D01*
X172521531Y-41031402D01*
G37*
G36*
X171835989Y-32708915D02*
G01*
X172024505Y-32887548D01*
X172249875Y-33146521D01*
X172485778Y-33454129D01*
X172705888Y-33778669D01*
X172835398Y-33996991D01*
X173198166Y-34766020D01*
X173510613Y-35652222D01*
X173757124Y-36607029D01*
X173870763Y-37217000D01*
X173886178Y-37343018D01*
X173900740Y-37524295D01*
X173914509Y-37766569D01*
X173927544Y-38075580D01*
X173939905Y-38457067D01*
X173951649Y-38916770D01*
X173962837Y-39460426D01*
X173973527Y-40093777D01*
X173983779Y-40822561D01*
X173993651Y-41652517D01*
X174003202Y-42589385D01*
X174012492Y-43638904D01*
X174021579Y-44806813D01*
X174030523Y-46098851D01*
X174039383Y-47520758D01*
X174048217Y-49078273D01*
X174057085Y-50777136D01*
X174066046Y-52623084D01*
X174075158Y-54621859D01*
X174084482Y-56779198D01*
X174092871Y-58804325D01*
X174100182Y-60569775D01*
X174107135Y-62173669D01*
X174113837Y-63623784D01*
X174120399Y-64927896D01*
X174126928Y-66093782D01*
X174133533Y-67129219D01*
X174140322Y-68041983D01*
X174147404Y-68839852D01*
X174154888Y-69530601D01*
X174162882Y-70122008D01*
X174171494Y-70621849D01*
X174180834Y-71037901D01*
X174191010Y-71377940D01*
X174202129Y-71649744D01*
X174214302Y-71861088D01*
X174227636Y-72019750D01*
X174242241Y-72133506D01*
X174258223Y-72210134D01*
X174275693Y-72257409D01*
X174280790Y-72266325D01*
X174335307Y-72346728D01*
X174417293Y-72456322D01*
X174537761Y-72608386D01*
X174707727Y-72816196D01*
X174938204Y-73093030D01*
X175240207Y-73452164D01*
X175624751Y-73906875D01*
X176102851Y-74470441D01*
X176377947Y-74794276D01*
X176756323Y-75239436D01*
X177040179Y-75579059D01*
X177243063Y-75837974D01*
X177378522Y-76041009D01*
X177460104Y-76212994D01*
X177501354Y-76378757D01*
X177515822Y-76563128D01*
X177517053Y-76790935D01*
X177516864Y-76881630D01*
X177510372Y-77208654D01*
X177493117Y-77467332D01*
X177468436Y-77613539D01*
X177460420Y-77628547D01*
X177361743Y-77646300D01*
X177121170Y-77661763D01*
X176993746Y-77666152D01*
X176766131Y-77673993D01*
X176324057Y-77682050D01*
X175822380Y-77684991D01*
X174228869Y-77684991D01*
X174094159Y-78044825D01*
X174005814Y-78298536D01*
X173892303Y-78648755D01*
X173779714Y-79013840D01*
X173774985Y-79029174D01*
X173748835Y-79116924D01*
X173651421Y-79438950D01*
X173570617Y-79692397D01*
X173518987Y-79838428D01*
X173508986Y-79858425D01*
X173400032Y-79884250D01*
X173164714Y-79899169D01*
X172845587Y-79904115D01*
X172485207Y-79900019D01*
X172126128Y-79887810D01*
X171810906Y-79868421D01*
X171582095Y-79842782D01*
X171484136Y-79814130D01*
X171432744Y-79730800D01*
X171473037Y-79653428D01*
X171625107Y-79569324D01*
X171909043Y-79465799D01*
X172162762Y-79385482D01*
X172446525Y-79293696D01*
X172651087Y-79202088D01*
X172803148Y-79079875D01*
X172929411Y-78896272D01*
X173056574Y-78620496D01*
X173211340Y-78221765D01*
X173241435Y-78141879D01*
X173459624Y-77562205D01*
X173433838Y-73729168D01*
X174981661Y-73729168D01*
X174999430Y-73847043D01*
X175110459Y-74080223D01*
X175317922Y-74435533D01*
X175578906Y-74848658D01*
X175842235Y-75271180D01*
X176102349Y-75714243D01*
X176327592Y-76122489D01*
X176474610Y-76414991D01*
X176649683Y-76791774D01*
X176769377Y-77042315D01*
X176849333Y-77194094D01*
X176905188Y-77274589D01*
X176952583Y-77311282D01*
X176993746Y-77327174D01*
X177051157Y-77285376D01*
X177082816Y-77103173D01*
X177091316Y-76781880D01*
X177089102Y-76203325D01*
X176110096Y-74975658D01*
X175796296Y-74585690D01*
X175515763Y-74243731D01*
X175286466Y-73971151D01*
X175126375Y-73789318D01*
X175053977Y-73719769D01*
X174981661Y-73729168D01*
X173433838Y-73729168D01*
X173374173Y-64860098D01*
X173363874Y-63360127D01*
X173353294Y-61877607D01*
X173342534Y-60424285D01*
X173331697Y-59011909D01*
X173320886Y-57652229D01*
X173310204Y-56356992D01*
X173299753Y-55137946D01*
X173289636Y-54006840D01*
X173279955Y-52975422D01*
X173270814Y-52055439D01*
X173262314Y-51258640D01*
X173254559Y-50596774D01*
X173247651Y-50081588D01*
X173242089Y-49744991D01*
X173230495Y-49048827D01*
X173219882Y-48227049D01*
X173210625Y-47323376D01*
X173203101Y-46381528D01*
X173197686Y-45445222D01*
X173195775Y-44866365D01*
X173517405Y-44866365D01*
X173517630Y-45761237D01*
X173518806Y-46750794D01*
X173520878Y-47824373D01*
X173523795Y-48971309D01*
X173527501Y-50180941D01*
X173531945Y-51442604D01*
X173537073Y-52745635D01*
X173542831Y-54079370D01*
X173549167Y-55433147D01*
X173556027Y-56796303D01*
X173563357Y-58158172D01*
X173571106Y-59508094D01*
X173579219Y-60835403D01*
X173587643Y-62129437D01*
X173596325Y-63379533D01*
X173605212Y-64575026D01*
X173614251Y-65705254D01*
X173623388Y-66759554D01*
X173632569Y-67727261D01*
X173641743Y-68597714D01*
X173650855Y-69360247D01*
X173659852Y-70004199D01*
X173668682Y-70518905D01*
X173677290Y-70893702D01*
X173683768Y-71080991D01*
X173709794Y-71577006D01*
X173734832Y-71911474D01*
X173758324Y-72092183D01*
X173779714Y-72126920D01*
X173798444Y-72023470D01*
X173813960Y-71789622D01*
X173825702Y-71433162D01*
X173833116Y-70961876D01*
X173835644Y-70383552D01*
X173832729Y-69705976D01*
X173826018Y-69091325D01*
X173820952Y-68662344D01*
X173815277Y-68079263D01*
X173809094Y-67357310D01*
X173802505Y-66511718D01*
X173795611Y-65557716D01*
X173788513Y-64510536D01*
X173781313Y-63385407D01*
X173774110Y-62197561D01*
X173767008Y-60962229D01*
X173760106Y-59694640D01*
X173753506Y-58410025D01*
X173749241Y-57534325D01*
X173738283Y-55381607D01*
X173726652Y-53386748D01*
X173714360Y-51550632D01*
X173701419Y-49874141D01*
X173687840Y-48358157D01*
X173673636Y-47003563D01*
X173658819Y-45811242D01*
X173643400Y-44782078D01*
X173627393Y-43916951D01*
X173610808Y-43216746D01*
X173593658Y-42682345D01*
X173575954Y-42314630D01*
X173557710Y-42114485D01*
X173538985Y-42082658D01*
X173532391Y-42185492D01*
X173527068Y-42446990D01*
X173522961Y-42856490D01*
X173520017Y-43403328D01*
X173518182Y-44076840D01*
X173517405Y-44866365D01*
X173195775Y-44866365D01*
X173194757Y-44558179D01*
X173194354Y-44199325D01*
X173189742Y-42813553D01*
X173176200Y-41582183D01*
X173152614Y-40490465D01*
X173117873Y-39523648D01*
X173070864Y-38666983D01*
X173010476Y-37905717D01*
X172935596Y-37225101D01*
X172845112Y-36610385D01*
X172737912Y-36046817D01*
X172612884Y-35519648D01*
X172512807Y-35159790D01*
X172368689Y-34694557D01*
X172212163Y-34228897D01*
X172054627Y-33792703D01*
X171907480Y-33415872D01*
X171782117Y-33128298D01*
X171689937Y-32959878D01*
X171663280Y-32931499D01*
X171592953Y-32819076D01*
X171618643Y-32693358D01*
X171710651Y-32642325D01*
X171835989Y-32708915D01*
G37*
%TO.C,J3*%
X69790000Y-44510000D02*
X69790000Y-43180000D01*
X71120000Y-44510000D02*
X69790000Y-44510000D01*
X72390000Y-44510000D02*
X77530000Y-44510000D01*
X72390000Y-44510000D02*
X72390000Y-41850000D01*
X77530000Y-44510000D02*
X77530000Y-41850000D01*
X72390000Y-41850000D02*
X77530000Y-41850000D01*
%TD*%
D15*
X41910000Y-20656715D02*
X180340000Y-20656715D01*
X180340000Y-88900000D01*
X41910000Y-88900000D01*
X41910000Y-20656715D01*
M02*
