%TF.GenerationSoftware,KiCad,Pcbnew,7.0.6*%
%TF.CreationDate,2023-08-10T16:49:52-04:00*%
%TF.ProjectId,rrc_pcb2,7272635f-7063-4623-922e-6b696361645f,rev?*%
%TF.SameCoordinates,Original*%
%TF.FileFunction,Legend,Top*%
%TF.FilePolarity,Positive*%
%FSLAX46Y46*%
G04 Gerber Fmt 4.6, Leading zero omitted, Abs format (unit mm)*
G04 Created by KiCad (PCBNEW 7.0.6) date 2023-08-10 16:49:52*
%MOMM*%
%LPD*%
G01*
G04 APERTURE LIST*
%ADD10C,0.100000*%
%ADD11C,0.150000*%
%ADD12C,0.300000*%
%ADD13C,0.400000*%
%ADD14C,0.120000*%
G04 APERTURE END LIST*
D10*
D11*
X177002200Y-166007200D02*
X285002200Y-166007200D01*
X285002200Y-198007200D01*
X177002200Y-198007200D01*
X177002200Y-166007200D01*
D10*
D11*
X10000000Y-10000000D02*
X287002200Y-10000000D01*
X287002200Y-200007200D01*
X10000000Y-200007200D01*
X10000000Y-10000000D01*
D10*
D11*
X12000000Y-12000000D02*
X285002200Y-12000000D01*
X285002200Y-198007200D01*
X12000000Y-198007200D01*
X12000000Y-12000000D01*
D10*
D11*
X60000000Y-12000000D02*
X60000000Y-10000000D01*
D10*
D11*
X110000000Y-12000000D02*
X110000000Y-10000000D01*
D10*
D11*
X160000000Y-12000000D02*
X160000000Y-10000000D01*
D10*
D11*
X210000000Y-12000000D02*
X210000000Y-10000000D01*
D10*
D11*
X260000000Y-12000000D02*
X260000000Y-10000000D01*
D10*
D11*
X36089160Y-11593604D02*
X35346303Y-11593604D01*
X35717731Y-11593604D02*
X35717731Y-10293604D01*
X35717731Y-10293604D02*
X35593922Y-10479319D01*
X35593922Y-10479319D02*
X35470112Y-10603128D01*
X35470112Y-10603128D02*
X35346303Y-10665033D01*
D10*
D11*
X85346303Y-10417414D02*
X85408207Y-10355509D01*
X85408207Y-10355509D02*
X85532017Y-10293604D01*
X85532017Y-10293604D02*
X85841541Y-10293604D01*
X85841541Y-10293604D02*
X85965350Y-10355509D01*
X85965350Y-10355509D02*
X86027255Y-10417414D01*
X86027255Y-10417414D02*
X86089160Y-10541223D01*
X86089160Y-10541223D02*
X86089160Y-10665033D01*
X86089160Y-10665033D02*
X86027255Y-10850747D01*
X86027255Y-10850747D02*
X85284398Y-11593604D01*
X85284398Y-11593604D02*
X86089160Y-11593604D01*
D10*
D11*
X135284398Y-10293604D02*
X136089160Y-10293604D01*
X136089160Y-10293604D02*
X135655826Y-10788842D01*
X135655826Y-10788842D02*
X135841541Y-10788842D01*
X135841541Y-10788842D02*
X135965350Y-10850747D01*
X135965350Y-10850747D02*
X136027255Y-10912652D01*
X136027255Y-10912652D02*
X136089160Y-11036461D01*
X136089160Y-11036461D02*
X136089160Y-11345985D01*
X136089160Y-11345985D02*
X136027255Y-11469795D01*
X136027255Y-11469795D02*
X135965350Y-11531700D01*
X135965350Y-11531700D02*
X135841541Y-11593604D01*
X135841541Y-11593604D02*
X135470112Y-11593604D01*
X135470112Y-11593604D02*
X135346303Y-11531700D01*
X135346303Y-11531700D02*
X135284398Y-11469795D01*
D10*
D11*
X185965350Y-10726938D02*
X185965350Y-11593604D01*
X185655826Y-10231700D02*
X185346303Y-11160271D01*
X185346303Y-11160271D02*
X186151064Y-11160271D01*
D10*
D11*
X236027255Y-10293604D02*
X235408207Y-10293604D01*
X235408207Y-10293604D02*
X235346303Y-10912652D01*
X235346303Y-10912652D02*
X235408207Y-10850747D01*
X235408207Y-10850747D02*
X235532017Y-10788842D01*
X235532017Y-10788842D02*
X235841541Y-10788842D01*
X235841541Y-10788842D02*
X235965350Y-10850747D01*
X235965350Y-10850747D02*
X236027255Y-10912652D01*
X236027255Y-10912652D02*
X236089160Y-11036461D01*
X236089160Y-11036461D02*
X236089160Y-11345985D01*
X236089160Y-11345985D02*
X236027255Y-11469795D01*
X236027255Y-11469795D02*
X235965350Y-11531700D01*
X235965350Y-11531700D02*
X235841541Y-11593604D01*
X235841541Y-11593604D02*
X235532017Y-11593604D01*
X235532017Y-11593604D02*
X235408207Y-11531700D01*
X235408207Y-11531700D02*
X235346303Y-11469795D01*
D10*
D11*
X285965350Y-10293604D02*
X285717731Y-10293604D01*
X285717731Y-10293604D02*
X285593922Y-10355509D01*
X285593922Y-10355509D02*
X285532017Y-10417414D01*
X285532017Y-10417414D02*
X285408207Y-10603128D01*
X285408207Y-10603128D02*
X285346303Y-10850747D01*
X285346303Y-10850747D02*
X285346303Y-11345985D01*
X285346303Y-11345985D02*
X285408207Y-11469795D01*
X285408207Y-11469795D02*
X285470112Y-11531700D01*
X285470112Y-11531700D02*
X285593922Y-11593604D01*
X285593922Y-11593604D02*
X285841541Y-11593604D01*
X285841541Y-11593604D02*
X285965350Y-11531700D01*
X285965350Y-11531700D02*
X286027255Y-11469795D01*
X286027255Y-11469795D02*
X286089160Y-11345985D01*
X286089160Y-11345985D02*
X286089160Y-11036461D01*
X286089160Y-11036461D02*
X286027255Y-10912652D01*
X286027255Y-10912652D02*
X285965350Y-10850747D01*
X285965350Y-10850747D02*
X285841541Y-10788842D01*
X285841541Y-10788842D02*
X285593922Y-10788842D01*
X285593922Y-10788842D02*
X285470112Y-10850747D01*
X285470112Y-10850747D02*
X285408207Y-10912652D01*
X285408207Y-10912652D02*
X285346303Y-11036461D01*
D10*
D11*
X60000000Y-198007200D02*
X60000000Y-200007200D01*
D10*
D11*
X110000000Y-198007200D02*
X110000000Y-200007200D01*
D10*
D11*
X160000000Y-198007200D02*
X160000000Y-200007200D01*
D10*
D11*
X210000000Y-198007200D02*
X210000000Y-200007200D01*
D10*
D11*
X260000000Y-198007200D02*
X260000000Y-200007200D01*
D10*
D11*
X36089160Y-199600804D02*
X35346303Y-199600804D01*
X35717731Y-199600804D02*
X35717731Y-198300804D01*
X35717731Y-198300804D02*
X35593922Y-198486519D01*
X35593922Y-198486519D02*
X35470112Y-198610328D01*
X35470112Y-198610328D02*
X35346303Y-198672233D01*
D10*
D11*
X85346303Y-198424614D02*
X85408207Y-198362709D01*
X85408207Y-198362709D02*
X85532017Y-198300804D01*
X85532017Y-198300804D02*
X85841541Y-198300804D01*
X85841541Y-198300804D02*
X85965350Y-198362709D01*
X85965350Y-198362709D02*
X86027255Y-198424614D01*
X86027255Y-198424614D02*
X86089160Y-198548423D01*
X86089160Y-198548423D02*
X86089160Y-198672233D01*
X86089160Y-198672233D02*
X86027255Y-198857947D01*
X86027255Y-198857947D02*
X85284398Y-199600804D01*
X85284398Y-199600804D02*
X86089160Y-199600804D01*
D10*
D11*
X135284398Y-198300804D02*
X136089160Y-198300804D01*
X136089160Y-198300804D02*
X135655826Y-198796042D01*
X135655826Y-198796042D02*
X135841541Y-198796042D01*
X135841541Y-198796042D02*
X135965350Y-198857947D01*
X135965350Y-198857947D02*
X136027255Y-198919852D01*
X136027255Y-198919852D02*
X136089160Y-199043661D01*
X136089160Y-199043661D02*
X136089160Y-199353185D01*
X136089160Y-199353185D02*
X136027255Y-199476995D01*
X136027255Y-199476995D02*
X135965350Y-199538900D01*
X135965350Y-199538900D02*
X135841541Y-199600804D01*
X135841541Y-199600804D02*
X135470112Y-199600804D01*
X135470112Y-199600804D02*
X135346303Y-199538900D01*
X135346303Y-199538900D02*
X135284398Y-199476995D01*
D10*
D11*
X185965350Y-198734138D02*
X185965350Y-199600804D01*
X185655826Y-198238900D02*
X185346303Y-199167471D01*
X185346303Y-199167471D02*
X186151064Y-199167471D01*
D10*
D11*
X236027255Y-198300804D02*
X235408207Y-198300804D01*
X235408207Y-198300804D02*
X235346303Y-198919852D01*
X235346303Y-198919852D02*
X235408207Y-198857947D01*
X235408207Y-198857947D02*
X235532017Y-198796042D01*
X235532017Y-198796042D02*
X235841541Y-198796042D01*
X235841541Y-198796042D02*
X235965350Y-198857947D01*
X235965350Y-198857947D02*
X236027255Y-198919852D01*
X236027255Y-198919852D02*
X236089160Y-199043661D01*
X236089160Y-199043661D02*
X236089160Y-199353185D01*
X236089160Y-199353185D02*
X236027255Y-199476995D01*
X236027255Y-199476995D02*
X235965350Y-199538900D01*
X235965350Y-199538900D02*
X235841541Y-199600804D01*
X235841541Y-199600804D02*
X235532017Y-199600804D01*
X235532017Y-199600804D02*
X235408207Y-199538900D01*
X235408207Y-199538900D02*
X235346303Y-199476995D01*
D10*
D11*
X285965350Y-198300804D02*
X285717731Y-198300804D01*
X285717731Y-198300804D02*
X285593922Y-198362709D01*
X285593922Y-198362709D02*
X285532017Y-198424614D01*
X285532017Y-198424614D02*
X285408207Y-198610328D01*
X285408207Y-198610328D02*
X285346303Y-198857947D01*
X285346303Y-198857947D02*
X285346303Y-199353185D01*
X285346303Y-199353185D02*
X285408207Y-199476995D01*
X285408207Y-199476995D02*
X285470112Y-199538900D01*
X285470112Y-199538900D02*
X285593922Y-199600804D01*
X285593922Y-199600804D02*
X285841541Y-199600804D01*
X285841541Y-199600804D02*
X285965350Y-199538900D01*
X285965350Y-199538900D02*
X286027255Y-199476995D01*
X286027255Y-199476995D02*
X286089160Y-199353185D01*
X286089160Y-199353185D02*
X286089160Y-199043661D01*
X286089160Y-199043661D02*
X286027255Y-198919852D01*
X286027255Y-198919852D02*
X285965350Y-198857947D01*
X285965350Y-198857947D02*
X285841541Y-198796042D01*
X285841541Y-198796042D02*
X285593922Y-198796042D01*
X285593922Y-198796042D02*
X285470112Y-198857947D01*
X285470112Y-198857947D02*
X285408207Y-198919852D01*
X285408207Y-198919852D02*
X285346303Y-199043661D01*
D10*
D11*
X10000000Y-60000000D02*
X12000000Y-60000000D01*
D10*
D11*
X10000000Y-110000000D02*
X12000000Y-110000000D01*
D10*
D11*
X10000000Y-160000000D02*
X12000000Y-160000000D01*
D10*
D11*
X10690476Y-35222176D02*
X11309523Y-35222176D01*
X10566666Y-35593604D02*
X10999999Y-34293604D01*
X10999999Y-34293604D02*
X11433333Y-35593604D01*
D10*
D11*
X11092857Y-84912652D02*
X11278571Y-84974557D01*
X11278571Y-84974557D02*
X11340476Y-85036461D01*
X11340476Y-85036461D02*
X11402380Y-85160271D01*
X11402380Y-85160271D02*
X11402380Y-85345985D01*
X11402380Y-85345985D02*
X11340476Y-85469795D01*
X11340476Y-85469795D02*
X11278571Y-85531700D01*
X11278571Y-85531700D02*
X11154761Y-85593604D01*
X11154761Y-85593604D02*
X10659523Y-85593604D01*
X10659523Y-85593604D02*
X10659523Y-84293604D01*
X10659523Y-84293604D02*
X11092857Y-84293604D01*
X11092857Y-84293604D02*
X11216666Y-84355509D01*
X11216666Y-84355509D02*
X11278571Y-84417414D01*
X11278571Y-84417414D02*
X11340476Y-84541223D01*
X11340476Y-84541223D02*
X11340476Y-84665033D01*
X11340476Y-84665033D02*
X11278571Y-84788842D01*
X11278571Y-84788842D02*
X11216666Y-84850747D01*
X11216666Y-84850747D02*
X11092857Y-84912652D01*
X11092857Y-84912652D02*
X10659523Y-84912652D01*
D10*
D11*
X11402380Y-135469795D02*
X11340476Y-135531700D01*
X11340476Y-135531700D02*
X11154761Y-135593604D01*
X11154761Y-135593604D02*
X11030952Y-135593604D01*
X11030952Y-135593604D02*
X10845238Y-135531700D01*
X10845238Y-135531700D02*
X10721428Y-135407890D01*
X10721428Y-135407890D02*
X10659523Y-135284080D01*
X10659523Y-135284080D02*
X10597619Y-135036461D01*
X10597619Y-135036461D02*
X10597619Y-134850747D01*
X10597619Y-134850747D02*
X10659523Y-134603128D01*
X10659523Y-134603128D02*
X10721428Y-134479319D01*
X10721428Y-134479319D02*
X10845238Y-134355509D01*
X10845238Y-134355509D02*
X11030952Y-134293604D01*
X11030952Y-134293604D02*
X11154761Y-134293604D01*
X11154761Y-134293604D02*
X11340476Y-134355509D01*
X11340476Y-134355509D02*
X11402380Y-134417414D01*
D10*
D11*
X10659523Y-185593604D02*
X10659523Y-184293604D01*
X10659523Y-184293604D02*
X10969047Y-184293604D01*
X10969047Y-184293604D02*
X11154761Y-184355509D01*
X11154761Y-184355509D02*
X11278571Y-184479319D01*
X11278571Y-184479319D02*
X11340476Y-184603128D01*
X11340476Y-184603128D02*
X11402380Y-184850747D01*
X11402380Y-184850747D02*
X11402380Y-185036461D01*
X11402380Y-185036461D02*
X11340476Y-185284080D01*
X11340476Y-185284080D02*
X11278571Y-185407890D01*
X11278571Y-185407890D02*
X11154761Y-185531700D01*
X11154761Y-185531700D02*
X10969047Y-185593604D01*
X10969047Y-185593604D02*
X10659523Y-185593604D01*
D10*
D11*
X287002200Y-60000000D02*
X285002200Y-60000000D01*
D10*
D11*
X287002200Y-110000000D02*
X285002200Y-110000000D01*
D10*
D11*
X287002200Y-160000000D02*
X285002200Y-160000000D01*
D10*
D11*
X285692676Y-35222176D02*
X286311723Y-35222176D01*
X285568866Y-35593604D02*
X286002199Y-34293604D01*
X286002199Y-34293604D02*
X286435533Y-35593604D01*
D10*
D11*
X286095057Y-84912652D02*
X286280771Y-84974557D01*
X286280771Y-84974557D02*
X286342676Y-85036461D01*
X286342676Y-85036461D02*
X286404580Y-85160271D01*
X286404580Y-85160271D02*
X286404580Y-85345985D01*
X286404580Y-85345985D02*
X286342676Y-85469795D01*
X286342676Y-85469795D02*
X286280771Y-85531700D01*
X286280771Y-85531700D02*
X286156961Y-85593604D01*
X286156961Y-85593604D02*
X285661723Y-85593604D01*
X285661723Y-85593604D02*
X285661723Y-84293604D01*
X285661723Y-84293604D02*
X286095057Y-84293604D01*
X286095057Y-84293604D02*
X286218866Y-84355509D01*
X286218866Y-84355509D02*
X286280771Y-84417414D01*
X286280771Y-84417414D02*
X286342676Y-84541223D01*
X286342676Y-84541223D02*
X286342676Y-84665033D01*
X286342676Y-84665033D02*
X286280771Y-84788842D01*
X286280771Y-84788842D02*
X286218866Y-84850747D01*
X286218866Y-84850747D02*
X286095057Y-84912652D01*
X286095057Y-84912652D02*
X285661723Y-84912652D01*
D10*
D11*
X286404580Y-135469795D02*
X286342676Y-135531700D01*
X286342676Y-135531700D02*
X286156961Y-135593604D01*
X286156961Y-135593604D02*
X286033152Y-135593604D01*
X286033152Y-135593604D02*
X285847438Y-135531700D01*
X285847438Y-135531700D02*
X285723628Y-135407890D01*
X285723628Y-135407890D02*
X285661723Y-135284080D01*
X285661723Y-135284080D02*
X285599819Y-135036461D01*
X285599819Y-135036461D02*
X285599819Y-134850747D01*
X285599819Y-134850747D02*
X285661723Y-134603128D01*
X285661723Y-134603128D02*
X285723628Y-134479319D01*
X285723628Y-134479319D02*
X285847438Y-134355509D01*
X285847438Y-134355509D02*
X286033152Y-134293604D01*
X286033152Y-134293604D02*
X286156961Y-134293604D01*
X286156961Y-134293604D02*
X286342676Y-134355509D01*
X286342676Y-134355509D02*
X286404580Y-134417414D01*
D10*
D11*
X285661723Y-185593604D02*
X285661723Y-184293604D01*
X285661723Y-184293604D02*
X285971247Y-184293604D01*
X285971247Y-184293604D02*
X286156961Y-184355509D01*
X286156961Y-184355509D02*
X286280771Y-184479319D01*
X286280771Y-184479319D02*
X286342676Y-184603128D01*
X286342676Y-184603128D02*
X286404580Y-184850747D01*
X286404580Y-184850747D02*
X286404580Y-185036461D01*
X286404580Y-185036461D02*
X286342676Y-185284080D01*
X286342676Y-185284080D02*
X286280771Y-185407890D01*
X286280771Y-185407890D02*
X286156961Y-185531700D01*
X286156961Y-185531700D02*
X285971247Y-185593604D01*
X285971247Y-185593604D02*
X285661723Y-185593604D01*
D10*
D11*
X200458026Y-193793328D02*
X200458026Y-192293328D01*
X200458026Y-192293328D02*
X200815169Y-192293328D01*
X200815169Y-192293328D02*
X201029455Y-192364757D01*
X201029455Y-192364757D02*
X201172312Y-192507614D01*
X201172312Y-192507614D02*
X201243741Y-192650471D01*
X201243741Y-192650471D02*
X201315169Y-192936185D01*
X201315169Y-192936185D02*
X201315169Y-193150471D01*
X201315169Y-193150471D02*
X201243741Y-193436185D01*
X201243741Y-193436185D02*
X201172312Y-193579042D01*
X201172312Y-193579042D02*
X201029455Y-193721900D01*
X201029455Y-193721900D02*
X200815169Y-193793328D01*
X200815169Y-193793328D02*
X200458026Y-193793328D01*
X202600884Y-193793328D02*
X202600884Y-193007614D01*
X202600884Y-193007614D02*
X202529455Y-192864757D01*
X202529455Y-192864757D02*
X202386598Y-192793328D01*
X202386598Y-192793328D02*
X202100884Y-192793328D01*
X202100884Y-192793328D02*
X201958026Y-192864757D01*
X202600884Y-193721900D02*
X202458026Y-193793328D01*
X202458026Y-193793328D02*
X202100884Y-193793328D01*
X202100884Y-193793328D02*
X201958026Y-193721900D01*
X201958026Y-193721900D02*
X201886598Y-193579042D01*
X201886598Y-193579042D02*
X201886598Y-193436185D01*
X201886598Y-193436185D02*
X201958026Y-193293328D01*
X201958026Y-193293328D02*
X202100884Y-193221900D01*
X202100884Y-193221900D02*
X202458026Y-193221900D01*
X202458026Y-193221900D02*
X202600884Y-193150471D01*
X203100884Y-192793328D02*
X203672312Y-192793328D01*
X203315169Y-192293328D02*
X203315169Y-193579042D01*
X203315169Y-193579042D02*
X203386598Y-193721900D01*
X203386598Y-193721900D02*
X203529455Y-193793328D01*
X203529455Y-193793328D02*
X203672312Y-193793328D01*
X204743741Y-193721900D02*
X204600884Y-193793328D01*
X204600884Y-193793328D02*
X204315170Y-193793328D01*
X204315170Y-193793328D02*
X204172312Y-193721900D01*
X204172312Y-193721900D02*
X204100884Y-193579042D01*
X204100884Y-193579042D02*
X204100884Y-193007614D01*
X204100884Y-193007614D02*
X204172312Y-192864757D01*
X204172312Y-192864757D02*
X204315170Y-192793328D01*
X204315170Y-192793328D02*
X204600884Y-192793328D01*
X204600884Y-192793328D02*
X204743741Y-192864757D01*
X204743741Y-192864757D02*
X204815170Y-193007614D01*
X204815170Y-193007614D02*
X204815170Y-193150471D01*
X204815170Y-193150471D02*
X204100884Y-193293328D01*
X205458026Y-193650471D02*
X205529455Y-193721900D01*
X205529455Y-193721900D02*
X205458026Y-193793328D01*
X205458026Y-193793328D02*
X205386598Y-193721900D01*
X205386598Y-193721900D02*
X205458026Y-193650471D01*
X205458026Y-193650471D02*
X205458026Y-193793328D01*
X205458026Y-192864757D02*
X205529455Y-192936185D01*
X205529455Y-192936185D02*
X205458026Y-193007614D01*
X205458026Y-193007614D02*
X205386598Y-192936185D01*
X205386598Y-192936185D02*
X205458026Y-192864757D01*
X205458026Y-192864757D02*
X205458026Y-193007614D01*
D10*
D11*
X177002200Y-194507200D02*
X285002200Y-194507200D01*
D10*
D11*
X178458026Y-196593328D02*
X178458026Y-195093328D01*
X179315169Y-196593328D02*
X178672312Y-195736185D01*
X179315169Y-195093328D02*
X178458026Y-195950471D01*
X179958026Y-196593328D02*
X179958026Y-195593328D01*
X179958026Y-195093328D02*
X179886598Y-195164757D01*
X179886598Y-195164757D02*
X179958026Y-195236185D01*
X179958026Y-195236185D02*
X180029455Y-195164757D01*
X180029455Y-195164757D02*
X179958026Y-195093328D01*
X179958026Y-195093328D02*
X179958026Y-195236185D01*
X181529455Y-196450471D02*
X181458027Y-196521900D01*
X181458027Y-196521900D02*
X181243741Y-196593328D01*
X181243741Y-196593328D02*
X181100884Y-196593328D01*
X181100884Y-196593328D02*
X180886598Y-196521900D01*
X180886598Y-196521900D02*
X180743741Y-196379042D01*
X180743741Y-196379042D02*
X180672312Y-196236185D01*
X180672312Y-196236185D02*
X180600884Y-195950471D01*
X180600884Y-195950471D02*
X180600884Y-195736185D01*
X180600884Y-195736185D02*
X180672312Y-195450471D01*
X180672312Y-195450471D02*
X180743741Y-195307614D01*
X180743741Y-195307614D02*
X180886598Y-195164757D01*
X180886598Y-195164757D02*
X181100884Y-195093328D01*
X181100884Y-195093328D02*
X181243741Y-195093328D01*
X181243741Y-195093328D02*
X181458027Y-195164757D01*
X181458027Y-195164757D02*
X181529455Y-195236185D01*
X182815170Y-196593328D02*
X182815170Y-195807614D01*
X182815170Y-195807614D02*
X182743741Y-195664757D01*
X182743741Y-195664757D02*
X182600884Y-195593328D01*
X182600884Y-195593328D02*
X182315170Y-195593328D01*
X182315170Y-195593328D02*
X182172312Y-195664757D01*
X182815170Y-196521900D02*
X182672312Y-196593328D01*
X182672312Y-196593328D02*
X182315170Y-196593328D01*
X182315170Y-196593328D02*
X182172312Y-196521900D01*
X182172312Y-196521900D02*
X182100884Y-196379042D01*
X182100884Y-196379042D02*
X182100884Y-196236185D01*
X182100884Y-196236185D02*
X182172312Y-196093328D01*
X182172312Y-196093328D02*
X182315170Y-196021900D01*
X182315170Y-196021900D02*
X182672312Y-196021900D01*
X182672312Y-196021900D02*
X182815170Y-195950471D01*
X184172313Y-196593328D02*
X184172313Y-195093328D01*
X184172313Y-196521900D02*
X184029455Y-196593328D01*
X184029455Y-196593328D02*
X183743741Y-196593328D01*
X183743741Y-196593328D02*
X183600884Y-196521900D01*
X183600884Y-196521900D02*
X183529455Y-196450471D01*
X183529455Y-196450471D02*
X183458027Y-196307614D01*
X183458027Y-196307614D02*
X183458027Y-195879042D01*
X183458027Y-195879042D02*
X183529455Y-195736185D01*
X183529455Y-195736185D02*
X183600884Y-195664757D01*
X183600884Y-195664757D02*
X183743741Y-195593328D01*
X183743741Y-195593328D02*
X184029455Y-195593328D01*
X184029455Y-195593328D02*
X184172313Y-195664757D01*
X186029455Y-195807614D02*
X186529455Y-195807614D01*
X186743741Y-196593328D02*
X186029455Y-196593328D01*
X186029455Y-196593328D02*
X186029455Y-195093328D01*
X186029455Y-195093328D02*
X186743741Y-195093328D01*
X187386598Y-196450471D02*
X187458027Y-196521900D01*
X187458027Y-196521900D02*
X187386598Y-196593328D01*
X187386598Y-196593328D02*
X187315170Y-196521900D01*
X187315170Y-196521900D02*
X187386598Y-196450471D01*
X187386598Y-196450471D02*
X187386598Y-196593328D01*
X188100884Y-196593328D02*
X188100884Y-195093328D01*
X188100884Y-195093328D02*
X188458027Y-195093328D01*
X188458027Y-195093328D02*
X188672313Y-195164757D01*
X188672313Y-195164757D02*
X188815170Y-195307614D01*
X188815170Y-195307614D02*
X188886599Y-195450471D01*
X188886599Y-195450471D02*
X188958027Y-195736185D01*
X188958027Y-195736185D02*
X188958027Y-195950471D01*
X188958027Y-195950471D02*
X188886599Y-196236185D01*
X188886599Y-196236185D02*
X188815170Y-196379042D01*
X188815170Y-196379042D02*
X188672313Y-196521900D01*
X188672313Y-196521900D02*
X188458027Y-196593328D01*
X188458027Y-196593328D02*
X188100884Y-196593328D01*
X189600884Y-196450471D02*
X189672313Y-196521900D01*
X189672313Y-196521900D02*
X189600884Y-196593328D01*
X189600884Y-196593328D02*
X189529456Y-196521900D01*
X189529456Y-196521900D02*
X189600884Y-196450471D01*
X189600884Y-196450471D02*
X189600884Y-196593328D01*
X190243742Y-196164757D02*
X190958028Y-196164757D01*
X190100885Y-196593328D02*
X190600885Y-195093328D01*
X190600885Y-195093328D02*
X191100885Y-196593328D01*
X191600884Y-196450471D02*
X191672313Y-196521900D01*
X191672313Y-196521900D02*
X191600884Y-196593328D01*
X191600884Y-196593328D02*
X191529456Y-196521900D01*
X191529456Y-196521900D02*
X191600884Y-196450471D01*
X191600884Y-196450471D02*
X191600884Y-196593328D01*
X194600884Y-196593328D02*
X194600884Y-195093328D01*
X194743742Y-196021900D02*
X195172313Y-196593328D01*
X195172313Y-195593328D02*
X194600884Y-196164757D01*
X195815170Y-196593328D02*
X195815170Y-195593328D01*
X195815170Y-195093328D02*
X195743742Y-195164757D01*
X195743742Y-195164757D02*
X195815170Y-195236185D01*
X195815170Y-195236185D02*
X195886599Y-195164757D01*
X195886599Y-195164757D02*
X195815170Y-195093328D01*
X195815170Y-195093328D02*
X195815170Y-195236185D01*
X197172314Y-196521900D02*
X197029456Y-196593328D01*
X197029456Y-196593328D02*
X196743742Y-196593328D01*
X196743742Y-196593328D02*
X196600885Y-196521900D01*
X196600885Y-196521900D02*
X196529456Y-196450471D01*
X196529456Y-196450471D02*
X196458028Y-196307614D01*
X196458028Y-196307614D02*
X196458028Y-195879042D01*
X196458028Y-195879042D02*
X196529456Y-195736185D01*
X196529456Y-195736185D02*
X196600885Y-195664757D01*
X196600885Y-195664757D02*
X196743742Y-195593328D01*
X196743742Y-195593328D02*
X197029456Y-195593328D01*
X197029456Y-195593328D02*
X197172314Y-195664757D01*
X198458028Y-196593328D02*
X198458028Y-195807614D01*
X198458028Y-195807614D02*
X198386599Y-195664757D01*
X198386599Y-195664757D02*
X198243742Y-195593328D01*
X198243742Y-195593328D02*
X197958028Y-195593328D01*
X197958028Y-195593328D02*
X197815170Y-195664757D01*
X198458028Y-196521900D02*
X198315170Y-196593328D01*
X198315170Y-196593328D02*
X197958028Y-196593328D01*
X197958028Y-196593328D02*
X197815170Y-196521900D01*
X197815170Y-196521900D02*
X197743742Y-196379042D01*
X197743742Y-196379042D02*
X197743742Y-196236185D01*
X197743742Y-196236185D02*
X197815170Y-196093328D01*
X197815170Y-196093328D02*
X197958028Y-196021900D01*
X197958028Y-196021900D02*
X198315170Y-196021900D01*
X198315170Y-196021900D02*
X198458028Y-195950471D01*
X199815171Y-196593328D02*
X199815171Y-195093328D01*
X199815171Y-196521900D02*
X199672313Y-196593328D01*
X199672313Y-196593328D02*
X199386599Y-196593328D01*
X199386599Y-196593328D02*
X199243742Y-196521900D01*
X199243742Y-196521900D02*
X199172313Y-196450471D01*
X199172313Y-196450471D02*
X199100885Y-196307614D01*
X199100885Y-196307614D02*
X199100885Y-195879042D01*
X199100885Y-195879042D02*
X199172313Y-195736185D01*
X199172313Y-195736185D02*
X199243742Y-195664757D01*
X199243742Y-195664757D02*
X199386599Y-195593328D01*
X199386599Y-195593328D02*
X199672313Y-195593328D01*
X199672313Y-195593328D02*
X199815171Y-195664757D01*
X201529456Y-195093328D02*
X202529456Y-195093328D01*
X202529456Y-195093328D02*
X201886599Y-196593328D01*
X203100884Y-196450471D02*
X203172313Y-196521900D01*
X203172313Y-196521900D02*
X203100884Y-196593328D01*
X203100884Y-196593328D02*
X203029456Y-196521900D01*
X203029456Y-196521900D02*
X203100884Y-196450471D01*
X203100884Y-196450471D02*
X203100884Y-196593328D01*
X204100885Y-195093328D02*
X204243742Y-195093328D01*
X204243742Y-195093328D02*
X204386599Y-195164757D01*
X204386599Y-195164757D02*
X204458028Y-195236185D01*
X204458028Y-195236185D02*
X204529456Y-195379042D01*
X204529456Y-195379042D02*
X204600885Y-195664757D01*
X204600885Y-195664757D02*
X204600885Y-196021900D01*
X204600885Y-196021900D02*
X204529456Y-196307614D01*
X204529456Y-196307614D02*
X204458028Y-196450471D01*
X204458028Y-196450471D02*
X204386599Y-196521900D01*
X204386599Y-196521900D02*
X204243742Y-196593328D01*
X204243742Y-196593328D02*
X204100885Y-196593328D01*
X204100885Y-196593328D02*
X203958028Y-196521900D01*
X203958028Y-196521900D02*
X203886599Y-196450471D01*
X203886599Y-196450471D02*
X203815170Y-196307614D01*
X203815170Y-196307614D02*
X203743742Y-196021900D01*
X203743742Y-196021900D02*
X203743742Y-195664757D01*
X203743742Y-195664757D02*
X203815170Y-195379042D01*
X203815170Y-195379042D02*
X203886599Y-195236185D01*
X203886599Y-195236185D02*
X203958028Y-195164757D01*
X203958028Y-195164757D02*
X204100885Y-195093328D01*
X205243741Y-196450471D02*
X205315170Y-196521900D01*
X205315170Y-196521900D02*
X205243741Y-196593328D01*
X205243741Y-196593328D02*
X205172313Y-196521900D01*
X205172313Y-196521900D02*
X205243741Y-196450471D01*
X205243741Y-196450471D02*
X205243741Y-196593328D01*
X206600885Y-195093328D02*
X206315170Y-195093328D01*
X206315170Y-195093328D02*
X206172313Y-195164757D01*
X206172313Y-195164757D02*
X206100885Y-195236185D01*
X206100885Y-195236185D02*
X205958027Y-195450471D01*
X205958027Y-195450471D02*
X205886599Y-195736185D01*
X205886599Y-195736185D02*
X205886599Y-196307614D01*
X205886599Y-196307614D02*
X205958027Y-196450471D01*
X205958027Y-196450471D02*
X206029456Y-196521900D01*
X206029456Y-196521900D02*
X206172313Y-196593328D01*
X206172313Y-196593328D02*
X206458027Y-196593328D01*
X206458027Y-196593328D02*
X206600885Y-196521900D01*
X206600885Y-196521900D02*
X206672313Y-196450471D01*
X206672313Y-196450471D02*
X206743742Y-196307614D01*
X206743742Y-196307614D02*
X206743742Y-195950471D01*
X206743742Y-195950471D02*
X206672313Y-195807614D01*
X206672313Y-195807614D02*
X206600885Y-195736185D01*
X206600885Y-195736185D02*
X206458027Y-195664757D01*
X206458027Y-195664757D02*
X206172313Y-195664757D01*
X206172313Y-195664757D02*
X206029456Y-195736185D01*
X206029456Y-195736185D02*
X205958027Y-195807614D01*
X205958027Y-195807614D02*
X205886599Y-195950471D01*
D10*
D11*
X177002200Y-191507200D02*
X285002200Y-191507200D01*
D10*
D12*
X264413853Y-193785528D02*
X263913853Y-193071242D01*
X263556710Y-193785528D02*
X263556710Y-192285528D01*
X263556710Y-192285528D02*
X264128139Y-192285528D01*
X264128139Y-192285528D02*
X264270996Y-192356957D01*
X264270996Y-192356957D02*
X264342425Y-192428385D01*
X264342425Y-192428385D02*
X264413853Y-192571242D01*
X264413853Y-192571242D02*
X264413853Y-192785528D01*
X264413853Y-192785528D02*
X264342425Y-192928385D01*
X264342425Y-192928385D02*
X264270996Y-192999814D01*
X264270996Y-192999814D02*
X264128139Y-193071242D01*
X264128139Y-193071242D02*
X263556710Y-193071242D01*
X265628139Y-193714100D02*
X265485282Y-193785528D01*
X265485282Y-193785528D02*
X265199568Y-193785528D01*
X265199568Y-193785528D02*
X265056710Y-193714100D01*
X265056710Y-193714100D02*
X264985282Y-193571242D01*
X264985282Y-193571242D02*
X264985282Y-192999814D01*
X264985282Y-192999814D02*
X265056710Y-192856957D01*
X265056710Y-192856957D02*
X265199568Y-192785528D01*
X265199568Y-192785528D02*
X265485282Y-192785528D01*
X265485282Y-192785528D02*
X265628139Y-192856957D01*
X265628139Y-192856957D02*
X265699568Y-192999814D01*
X265699568Y-192999814D02*
X265699568Y-193142671D01*
X265699568Y-193142671D02*
X264985282Y-193285528D01*
X266199567Y-192785528D02*
X266556710Y-193785528D01*
X266556710Y-193785528D02*
X266913853Y-192785528D01*
X267485281Y-193642671D02*
X267556710Y-193714100D01*
X267556710Y-193714100D02*
X267485281Y-193785528D01*
X267485281Y-193785528D02*
X267413853Y-193714100D01*
X267413853Y-193714100D02*
X267485281Y-193642671D01*
X267485281Y-193642671D02*
X267485281Y-193785528D01*
X267485281Y-192856957D02*
X267556710Y-192928385D01*
X267556710Y-192928385D02*
X267485281Y-192999814D01*
X267485281Y-192999814D02*
X267413853Y-192928385D01*
X267413853Y-192928385D02*
X267485281Y-192856957D01*
X267485281Y-192856957D02*
X267485281Y-192999814D01*
D10*
D11*
X178386598Y-193721900D02*
X178600884Y-193793328D01*
X178600884Y-193793328D02*
X178958026Y-193793328D01*
X178958026Y-193793328D02*
X179100884Y-193721900D01*
X179100884Y-193721900D02*
X179172312Y-193650471D01*
X179172312Y-193650471D02*
X179243741Y-193507614D01*
X179243741Y-193507614D02*
X179243741Y-193364757D01*
X179243741Y-193364757D02*
X179172312Y-193221900D01*
X179172312Y-193221900D02*
X179100884Y-193150471D01*
X179100884Y-193150471D02*
X178958026Y-193079042D01*
X178958026Y-193079042D02*
X178672312Y-193007614D01*
X178672312Y-193007614D02*
X178529455Y-192936185D01*
X178529455Y-192936185D02*
X178458026Y-192864757D01*
X178458026Y-192864757D02*
X178386598Y-192721900D01*
X178386598Y-192721900D02*
X178386598Y-192579042D01*
X178386598Y-192579042D02*
X178458026Y-192436185D01*
X178458026Y-192436185D02*
X178529455Y-192364757D01*
X178529455Y-192364757D02*
X178672312Y-192293328D01*
X178672312Y-192293328D02*
X179029455Y-192293328D01*
X179029455Y-192293328D02*
X179243741Y-192364757D01*
X179886597Y-193793328D02*
X179886597Y-192793328D01*
X179886597Y-192293328D02*
X179815169Y-192364757D01*
X179815169Y-192364757D02*
X179886597Y-192436185D01*
X179886597Y-192436185D02*
X179958026Y-192364757D01*
X179958026Y-192364757D02*
X179886597Y-192293328D01*
X179886597Y-192293328D02*
X179886597Y-192436185D01*
X180458026Y-192793328D02*
X181243741Y-192793328D01*
X181243741Y-192793328D02*
X180458026Y-193793328D01*
X180458026Y-193793328D02*
X181243741Y-193793328D01*
X182386598Y-193721900D02*
X182243741Y-193793328D01*
X182243741Y-193793328D02*
X181958027Y-193793328D01*
X181958027Y-193793328D02*
X181815169Y-193721900D01*
X181815169Y-193721900D02*
X181743741Y-193579042D01*
X181743741Y-193579042D02*
X181743741Y-193007614D01*
X181743741Y-193007614D02*
X181815169Y-192864757D01*
X181815169Y-192864757D02*
X181958027Y-192793328D01*
X181958027Y-192793328D02*
X182243741Y-192793328D01*
X182243741Y-192793328D02*
X182386598Y-192864757D01*
X182386598Y-192864757D02*
X182458027Y-193007614D01*
X182458027Y-193007614D02*
X182458027Y-193150471D01*
X182458027Y-193150471D02*
X181743741Y-193293328D01*
X183100883Y-193650471D02*
X183172312Y-193721900D01*
X183172312Y-193721900D02*
X183100883Y-193793328D01*
X183100883Y-193793328D02*
X183029455Y-193721900D01*
X183029455Y-193721900D02*
X183100883Y-193650471D01*
X183100883Y-193650471D02*
X183100883Y-193793328D01*
X183100883Y-192864757D02*
X183172312Y-192936185D01*
X183172312Y-192936185D02*
X183100883Y-193007614D01*
X183100883Y-193007614D02*
X183029455Y-192936185D01*
X183029455Y-192936185D02*
X183100883Y-192864757D01*
X183100883Y-192864757D02*
X183100883Y-193007614D01*
X184886598Y-193364757D02*
X185600884Y-193364757D01*
X184743741Y-193793328D02*
X185243741Y-192293328D01*
X185243741Y-192293328D02*
X185743741Y-193793328D01*
X186886598Y-192793328D02*
X186886598Y-193793328D01*
X186529455Y-192221900D02*
X186172312Y-193293328D01*
X186172312Y-193293328D02*
X187100883Y-193293328D01*
D10*
D11*
X263458026Y-196593328D02*
X263458026Y-195093328D01*
X264815170Y-196593328D02*
X264815170Y-195093328D01*
X264815170Y-196521900D02*
X264672312Y-196593328D01*
X264672312Y-196593328D02*
X264386598Y-196593328D01*
X264386598Y-196593328D02*
X264243741Y-196521900D01*
X264243741Y-196521900D02*
X264172312Y-196450471D01*
X264172312Y-196450471D02*
X264100884Y-196307614D01*
X264100884Y-196307614D02*
X264100884Y-195879042D01*
X264100884Y-195879042D02*
X264172312Y-195736185D01*
X264172312Y-195736185D02*
X264243741Y-195664757D01*
X264243741Y-195664757D02*
X264386598Y-195593328D01*
X264386598Y-195593328D02*
X264672312Y-195593328D01*
X264672312Y-195593328D02*
X264815170Y-195664757D01*
X265529455Y-196450471D02*
X265600884Y-196521900D01*
X265600884Y-196521900D02*
X265529455Y-196593328D01*
X265529455Y-196593328D02*
X265458027Y-196521900D01*
X265458027Y-196521900D02*
X265529455Y-196450471D01*
X265529455Y-196450471D02*
X265529455Y-196593328D01*
X265529455Y-195664757D02*
X265600884Y-195736185D01*
X265600884Y-195736185D02*
X265529455Y-195807614D01*
X265529455Y-195807614D02*
X265458027Y-195736185D01*
X265458027Y-195736185D02*
X265529455Y-195664757D01*
X265529455Y-195664757D02*
X265529455Y-195807614D01*
X268172313Y-196593328D02*
X267315170Y-196593328D01*
X267743741Y-196593328D02*
X267743741Y-195093328D01*
X267743741Y-195093328D02*
X267600884Y-195307614D01*
X267600884Y-195307614D02*
X267458027Y-195450471D01*
X267458027Y-195450471D02*
X267315170Y-195521900D01*
X269886598Y-195021900D02*
X268600884Y-196950471D01*
X271172313Y-196593328D02*
X270315170Y-196593328D01*
X270743741Y-196593328D02*
X270743741Y-195093328D01*
X270743741Y-195093328D02*
X270600884Y-195307614D01*
X270600884Y-195307614D02*
X270458027Y-195450471D01*
X270458027Y-195450471D02*
X270315170Y-195521900D01*
D10*
D11*
X177002200Y-187507200D02*
X285002200Y-187507200D01*
D10*
D13*
X178693928Y-188211638D02*
X179836785Y-188211638D01*
X179015357Y-190211638D02*
X179265357Y-188211638D01*
X180253452Y-190211638D02*
X180420119Y-188878304D01*
X180503452Y-188211638D02*
X180396309Y-188306876D01*
X180396309Y-188306876D02*
X180479643Y-188402114D01*
X180479643Y-188402114D02*
X180586786Y-188306876D01*
X180586786Y-188306876D02*
X180503452Y-188211638D01*
X180503452Y-188211638D02*
X180479643Y-188402114D01*
X181086786Y-188878304D02*
X181848690Y-188878304D01*
X181455833Y-188211638D02*
X181241548Y-189925923D01*
X181241548Y-189925923D02*
X181312976Y-190116400D01*
X181312976Y-190116400D02*
X181491548Y-190211638D01*
X181491548Y-190211638D02*
X181682024Y-190211638D01*
X182634405Y-190211638D02*
X182455833Y-190116400D01*
X182455833Y-190116400D02*
X182384405Y-189925923D01*
X182384405Y-189925923D02*
X182598690Y-188211638D01*
X184170119Y-190116400D02*
X183967738Y-190211638D01*
X183967738Y-190211638D02*
X183586785Y-190211638D01*
X183586785Y-190211638D02*
X183408214Y-190116400D01*
X183408214Y-190116400D02*
X183336785Y-189925923D01*
X183336785Y-189925923D02*
X183432024Y-189164019D01*
X183432024Y-189164019D02*
X183551071Y-188973542D01*
X183551071Y-188973542D02*
X183753452Y-188878304D01*
X183753452Y-188878304D02*
X184134404Y-188878304D01*
X184134404Y-188878304D02*
X184312976Y-188973542D01*
X184312976Y-188973542D02*
X184384404Y-189164019D01*
X184384404Y-189164019D02*
X184360595Y-189354495D01*
X184360595Y-189354495D02*
X183384404Y-189544971D01*
X185134405Y-190021161D02*
X185217738Y-190116400D01*
X185217738Y-190116400D02*
X185110595Y-190211638D01*
X185110595Y-190211638D02*
X185027262Y-190116400D01*
X185027262Y-190116400D02*
X185134405Y-190021161D01*
X185134405Y-190021161D02*
X185110595Y-190211638D01*
X185265357Y-188973542D02*
X185348690Y-189068780D01*
X185348690Y-189068780D02*
X185241548Y-189164019D01*
X185241548Y-189164019D02*
X185158214Y-189068780D01*
X185158214Y-189068780D02*
X185265357Y-188973542D01*
X185265357Y-188973542D02*
X185241548Y-189164019D01*
D10*
D11*
X178958026Y-185607614D02*
X178458026Y-185607614D01*
X178458026Y-186393328D02*
X178458026Y-184893328D01*
X178458026Y-184893328D02*
X179172312Y-184893328D01*
X179743740Y-186393328D02*
X179743740Y-185393328D01*
X179743740Y-184893328D02*
X179672312Y-184964757D01*
X179672312Y-184964757D02*
X179743740Y-185036185D01*
X179743740Y-185036185D02*
X179815169Y-184964757D01*
X179815169Y-184964757D02*
X179743740Y-184893328D01*
X179743740Y-184893328D02*
X179743740Y-185036185D01*
X180672312Y-186393328D02*
X180529455Y-186321900D01*
X180529455Y-186321900D02*
X180458026Y-186179042D01*
X180458026Y-186179042D02*
X180458026Y-184893328D01*
X181815169Y-186321900D02*
X181672312Y-186393328D01*
X181672312Y-186393328D02*
X181386598Y-186393328D01*
X181386598Y-186393328D02*
X181243740Y-186321900D01*
X181243740Y-186321900D02*
X181172312Y-186179042D01*
X181172312Y-186179042D02*
X181172312Y-185607614D01*
X181172312Y-185607614D02*
X181243740Y-185464757D01*
X181243740Y-185464757D02*
X181386598Y-185393328D01*
X181386598Y-185393328D02*
X181672312Y-185393328D01*
X181672312Y-185393328D02*
X181815169Y-185464757D01*
X181815169Y-185464757D02*
X181886598Y-185607614D01*
X181886598Y-185607614D02*
X181886598Y-185750471D01*
X181886598Y-185750471D02*
X181172312Y-185893328D01*
X182529454Y-186250471D02*
X182600883Y-186321900D01*
X182600883Y-186321900D02*
X182529454Y-186393328D01*
X182529454Y-186393328D02*
X182458026Y-186321900D01*
X182458026Y-186321900D02*
X182529454Y-186250471D01*
X182529454Y-186250471D02*
X182529454Y-186393328D01*
X182529454Y-185464757D02*
X182600883Y-185536185D01*
X182600883Y-185536185D02*
X182529454Y-185607614D01*
X182529454Y-185607614D02*
X182458026Y-185536185D01*
X182458026Y-185536185D02*
X182529454Y-185464757D01*
X182529454Y-185464757D02*
X182529454Y-185607614D01*
X184386597Y-186393328D02*
X184386597Y-185393328D01*
X184386597Y-185679042D02*
X184458026Y-185536185D01*
X184458026Y-185536185D02*
X184529455Y-185464757D01*
X184529455Y-185464757D02*
X184672312Y-185393328D01*
X184672312Y-185393328D02*
X184815169Y-185393328D01*
X185315168Y-186393328D02*
X185315168Y-185393328D01*
X185315168Y-185679042D02*
X185386597Y-185536185D01*
X185386597Y-185536185D02*
X185458026Y-185464757D01*
X185458026Y-185464757D02*
X185600883Y-185393328D01*
X185600883Y-185393328D02*
X185743740Y-185393328D01*
X186886597Y-186321900D02*
X186743739Y-186393328D01*
X186743739Y-186393328D02*
X186458025Y-186393328D01*
X186458025Y-186393328D02*
X186315168Y-186321900D01*
X186315168Y-186321900D02*
X186243739Y-186250471D01*
X186243739Y-186250471D02*
X186172311Y-186107614D01*
X186172311Y-186107614D02*
X186172311Y-185679042D01*
X186172311Y-185679042D02*
X186243739Y-185536185D01*
X186243739Y-185536185D02*
X186315168Y-185464757D01*
X186315168Y-185464757D02*
X186458025Y-185393328D01*
X186458025Y-185393328D02*
X186743739Y-185393328D01*
X186743739Y-185393328D02*
X186886597Y-185464757D01*
X187172311Y-186536185D02*
X188315168Y-186536185D01*
X188672310Y-185393328D02*
X188672310Y-186893328D01*
X188672310Y-185464757D02*
X188815168Y-185393328D01*
X188815168Y-185393328D02*
X189100882Y-185393328D01*
X189100882Y-185393328D02*
X189243739Y-185464757D01*
X189243739Y-185464757D02*
X189315168Y-185536185D01*
X189315168Y-185536185D02*
X189386596Y-185679042D01*
X189386596Y-185679042D02*
X189386596Y-186107614D01*
X189386596Y-186107614D02*
X189315168Y-186250471D01*
X189315168Y-186250471D02*
X189243739Y-186321900D01*
X189243739Y-186321900D02*
X189100882Y-186393328D01*
X189100882Y-186393328D02*
X188815168Y-186393328D01*
X188815168Y-186393328D02*
X188672310Y-186321900D01*
X190672311Y-186321900D02*
X190529453Y-186393328D01*
X190529453Y-186393328D02*
X190243739Y-186393328D01*
X190243739Y-186393328D02*
X190100882Y-186321900D01*
X190100882Y-186321900D02*
X190029453Y-186250471D01*
X190029453Y-186250471D02*
X189958025Y-186107614D01*
X189958025Y-186107614D02*
X189958025Y-185679042D01*
X189958025Y-185679042D02*
X190029453Y-185536185D01*
X190029453Y-185536185D02*
X190100882Y-185464757D01*
X190100882Y-185464757D02*
X190243739Y-185393328D01*
X190243739Y-185393328D02*
X190529453Y-185393328D01*
X190529453Y-185393328D02*
X190672311Y-185464757D01*
X191315167Y-186393328D02*
X191315167Y-184893328D01*
X191315167Y-185464757D02*
X191458025Y-185393328D01*
X191458025Y-185393328D02*
X191743739Y-185393328D01*
X191743739Y-185393328D02*
X191886596Y-185464757D01*
X191886596Y-185464757D02*
X191958025Y-185536185D01*
X191958025Y-185536185D02*
X192029453Y-185679042D01*
X192029453Y-185679042D02*
X192029453Y-186107614D01*
X192029453Y-186107614D02*
X191958025Y-186250471D01*
X191958025Y-186250471D02*
X191886596Y-186321900D01*
X191886596Y-186321900D02*
X191743739Y-186393328D01*
X191743739Y-186393328D02*
X191458025Y-186393328D01*
X191458025Y-186393328D02*
X191315167Y-186321900D01*
X192600882Y-185036185D02*
X192672310Y-184964757D01*
X192672310Y-184964757D02*
X192815168Y-184893328D01*
X192815168Y-184893328D02*
X193172310Y-184893328D01*
X193172310Y-184893328D02*
X193315168Y-184964757D01*
X193315168Y-184964757D02*
X193386596Y-185036185D01*
X193386596Y-185036185D02*
X193458025Y-185179042D01*
X193458025Y-185179042D02*
X193458025Y-185321900D01*
X193458025Y-185321900D02*
X193386596Y-185536185D01*
X193386596Y-185536185D02*
X192529453Y-186393328D01*
X192529453Y-186393328D02*
X193458025Y-186393328D01*
X194100881Y-186250471D02*
X194172310Y-186321900D01*
X194172310Y-186321900D02*
X194100881Y-186393328D01*
X194100881Y-186393328D02*
X194029453Y-186321900D01*
X194029453Y-186321900D02*
X194100881Y-186250471D01*
X194100881Y-186250471D02*
X194100881Y-186393328D01*
X194815167Y-186393328D02*
X194815167Y-184893328D01*
X194958025Y-185821900D02*
X195386596Y-186393328D01*
X195386596Y-185393328D02*
X194815167Y-185964757D01*
X196029453Y-186393328D02*
X196029453Y-185393328D01*
X196029453Y-184893328D02*
X195958025Y-184964757D01*
X195958025Y-184964757D02*
X196029453Y-185036185D01*
X196029453Y-185036185D02*
X196100882Y-184964757D01*
X196100882Y-184964757D02*
X196029453Y-184893328D01*
X196029453Y-184893328D02*
X196029453Y-185036185D01*
X197386597Y-186321900D02*
X197243739Y-186393328D01*
X197243739Y-186393328D02*
X196958025Y-186393328D01*
X196958025Y-186393328D02*
X196815168Y-186321900D01*
X196815168Y-186321900D02*
X196743739Y-186250471D01*
X196743739Y-186250471D02*
X196672311Y-186107614D01*
X196672311Y-186107614D02*
X196672311Y-185679042D01*
X196672311Y-185679042D02*
X196743739Y-185536185D01*
X196743739Y-185536185D02*
X196815168Y-185464757D01*
X196815168Y-185464757D02*
X196958025Y-185393328D01*
X196958025Y-185393328D02*
X197243739Y-185393328D01*
X197243739Y-185393328D02*
X197386597Y-185464757D01*
X198672311Y-186393328D02*
X198672311Y-185607614D01*
X198672311Y-185607614D02*
X198600882Y-185464757D01*
X198600882Y-185464757D02*
X198458025Y-185393328D01*
X198458025Y-185393328D02*
X198172311Y-185393328D01*
X198172311Y-185393328D02*
X198029453Y-185464757D01*
X198672311Y-186321900D02*
X198529453Y-186393328D01*
X198529453Y-186393328D02*
X198172311Y-186393328D01*
X198172311Y-186393328D02*
X198029453Y-186321900D01*
X198029453Y-186321900D02*
X197958025Y-186179042D01*
X197958025Y-186179042D02*
X197958025Y-186036185D01*
X197958025Y-186036185D02*
X198029453Y-185893328D01*
X198029453Y-185893328D02*
X198172311Y-185821900D01*
X198172311Y-185821900D02*
X198529453Y-185821900D01*
X198529453Y-185821900D02*
X198672311Y-185750471D01*
X200029454Y-186393328D02*
X200029454Y-184893328D01*
X200029454Y-186321900D02*
X199886596Y-186393328D01*
X199886596Y-186393328D02*
X199600882Y-186393328D01*
X199600882Y-186393328D02*
X199458025Y-186321900D01*
X199458025Y-186321900D02*
X199386596Y-186250471D01*
X199386596Y-186250471D02*
X199315168Y-186107614D01*
X199315168Y-186107614D02*
X199315168Y-185679042D01*
X199315168Y-185679042D02*
X199386596Y-185536185D01*
X199386596Y-185536185D02*
X199458025Y-185464757D01*
X199458025Y-185464757D02*
X199600882Y-185393328D01*
X199600882Y-185393328D02*
X199886596Y-185393328D01*
X199886596Y-185393328D02*
X200029454Y-185464757D01*
X200386597Y-186536185D02*
X201529454Y-186536185D01*
X201886596Y-185393328D02*
X201886596Y-186893328D01*
X201886596Y-185464757D02*
X202029454Y-185393328D01*
X202029454Y-185393328D02*
X202315168Y-185393328D01*
X202315168Y-185393328D02*
X202458025Y-185464757D01*
X202458025Y-185464757D02*
X202529454Y-185536185D01*
X202529454Y-185536185D02*
X202600882Y-185679042D01*
X202600882Y-185679042D02*
X202600882Y-186107614D01*
X202600882Y-186107614D02*
X202529454Y-186250471D01*
X202529454Y-186250471D02*
X202458025Y-186321900D01*
X202458025Y-186321900D02*
X202315168Y-186393328D01*
X202315168Y-186393328D02*
X202029454Y-186393328D01*
X202029454Y-186393328D02*
X201886596Y-186321900D01*
X203886597Y-186321900D02*
X203743739Y-186393328D01*
X203743739Y-186393328D02*
X203458025Y-186393328D01*
X203458025Y-186393328D02*
X203315168Y-186321900D01*
X203315168Y-186321900D02*
X203243739Y-186250471D01*
X203243739Y-186250471D02*
X203172311Y-186107614D01*
X203172311Y-186107614D02*
X203172311Y-185679042D01*
X203172311Y-185679042D02*
X203243739Y-185536185D01*
X203243739Y-185536185D02*
X203315168Y-185464757D01*
X203315168Y-185464757D02*
X203458025Y-185393328D01*
X203458025Y-185393328D02*
X203743739Y-185393328D01*
X203743739Y-185393328D02*
X203886597Y-185464757D01*
X204529453Y-186393328D02*
X204529453Y-184893328D01*
X204529453Y-185464757D02*
X204672311Y-185393328D01*
X204672311Y-185393328D02*
X204958025Y-185393328D01*
X204958025Y-185393328D02*
X205100882Y-185464757D01*
X205100882Y-185464757D02*
X205172311Y-185536185D01*
X205172311Y-185536185D02*
X205243739Y-185679042D01*
X205243739Y-185679042D02*
X205243739Y-186107614D01*
X205243739Y-186107614D02*
X205172311Y-186250471D01*
X205172311Y-186250471D02*
X205100882Y-186321900D01*
X205100882Y-186321900D02*
X204958025Y-186393328D01*
X204958025Y-186393328D02*
X204672311Y-186393328D01*
X204672311Y-186393328D02*
X204529453Y-186321900D01*
D10*
D11*
X177002200Y-181507200D02*
X285002200Y-181507200D01*
D10*
D11*
X178386598Y-183621900D02*
X178600884Y-183693328D01*
X178600884Y-183693328D02*
X178958026Y-183693328D01*
X178958026Y-183693328D02*
X179100884Y-183621900D01*
X179100884Y-183621900D02*
X179172312Y-183550471D01*
X179172312Y-183550471D02*
X179243741Y-183407614D01*
X179243741Y-183407614D02*
X179243741Y-183264757D01*
X179243741Y-183264757D02*
X179172312Y-183121900D01*
X179172312Y-183121900D02*
X179100884Y-183050471D01*
X179100884Y-183050471D02*
X178958026Y-182979042D01*
X178958026Y-182979042D02*
X178672312Y-182907614D01*
X178672312Y-182907614D02*
X178529455Y-182836185D01*
X178529455Y-182836185D02*
X178458026Y-182764757D01*
X178458026Y-182764757D02*
X178386598Y-182621900D01*
X178386598Y-182621900D02*
X178386598Y-182479042D01*
X178386598Y-182479042D02*
X178458026Y-182336185D01*
X178458026Y-182336185D02*
X178529455Y-182264757D01*
X178529455Y-182264757D02*
X178672312Y-182193328D01*
X178672312Y-182193328D02*
X179029455Y-182193328D01*
X179029455Y-182193328D02*
X179243741Y-182264757D01*
X179886597Y-183693328D02*
X179886597Y-182193328D01*
X180529455Y-183693328D02*
X180529455Y-182907614D01*
X180529455Y-182907614D02*
X180458026Y-182764757D01*
X180458026Y-182764757D02*
X180315169Y-182693328D01*
X180315169Y-182693328D02*
X180100883Y-182693328D01*
X180100883Y-182693328D02*
X179958026Y-182764757D01*
X179958026Y-182764757D02*
X179886597Y-182836185D01*
X181815169Y-183621900D02*
X181672312Y-183693328D01*
X181672312Y-183693328D02*
X181386598Y-183693328D01*
X181386598Y-183693328D02*
X181243740Y-183621900D01*
X181243740Y-183621900D02*
X181172312Y-183479042D01*
X181172312Y-183479042D02*
X181172312Y-182907614D01*
X181172312Y-182907614D02*
X181243740Y-182764757D01*
X181243740Y-182764757D02*
X181386598Y-182693328D01*
X181386598Y-182693328D02*
X181672312Y-182693328D01*
X181672312Y-182693328D02*
X181815169Y-182764757D01*
X181815169Y-182764757D02*
X181886598Y-182907614D01*
X181886598Y-182907614D02*
X181886598Y-183050471D01*
X181886598Y-183050471D02*
X181172312Y-183193328D01*
X183100883Y-183621900D02*
X182958026Y-183693328D01*
X182958026Y-183693328D02*
X182672312Y-183693328D01*
X182672312Y-183693328D02*
X182529454Y-183621900D01*
X182529454Y-183621900D02*
X182458026Y-183479042D01*
X182458026Y-183479042D02*
X182458026Y-182907614D01*
X182458026Y-182907614D02*
X182529454Y-182764757D01*
X182529454Y-182764757D02*
X182672312Y-182693328D01*
X182672312Y-182693328D02*
X182958026Y-182693328D01*
X182958026Y-182693328D02*
X183100883Y-182764757D01*
X183100883Y-182764757D02*
X183172312Y-182907614D01*
X183172312Y-182907614D02*
X183172312Y-183050471D01*
X183172312Y-183050471D02*
X182458026Y-183193328D01*
X183600883Y-182693328D02*
X184172311Y-182693328D01*
X183815168Y-182193328D02*
X183815168Y-183479042D01*
X183815168Y-183479042D02*
X183886597Y-183621900D01*
X183886597Y-183621900D02*
X184029454Y-183693328D01*
X184029454Y-183693328D02*
X184172311Y-183693328D01*
X184672311Y-183550471D02*
X184743740Y-183621900D01*
X184743740Y-183621900D02*
X184672311Y-183693328D01*
X184672311Y-183693328D02*
X184600883Y-183621900D01*
X184600883Y-183621900D02*
X184672311Y-183550471D01*
X184672311Y-183550471D02*
X184672311Y-183693328D01*
X184672311Y-182764757D02*
X184743740Y-182836185D01*
X184743740Y-182836185D02*
X184672311Y-182907614D01*
X184672311Y-182907614D02*
X184600883Y-182836185D01*
X184600883Y-182836185D02*
X184672311Y-182764757D01*
X184672311Y-182764757D02*
X184672311Y-182907614D01*
D10*
D12*
D10*
D11*
D10*
D11*
D10*
D11*
D10*
D11*
D10*
D11*
X197002200Y-191507200D02*
X197002200Y-194507200D01*
D10*
D11*
X261002200Y-191507200D02*
X261002200Y-198007200D01*
X151638095Y-40094819D02*
X151638095Y-40904342D01*
X151638095Y-40904342D02*
X151685714Y-40999580D01*
X151685714Y-40999580D02*
X151733333Y-41047200D01*
X151733333Y-41047200D02*
X151828571Y-41094819D01*
X151828571Y-41094819D02*
X152019047Y-41094819D01*
X152019047Y-41094819D02*
X152114285Y-41047200D01*
X152114285Y-41047200D02*
X152161904Y-40999580D01*
X152161904Y-40999580D02*
X152209523Y-40904342D01*
X152209523Y-40904342D02*
X152209523Y-40094819D01*
X152590476Y-40094819D02*
X153209523Y-40094819D01*
X153209523Y-40094819D02*
X152876190Y-40475771D01*
X152876190Y-40475771D02*
X153019047Y-40475771D01*
X153019047Y-40475771D02*
X153114285Y-40523390D01*
X153114285Y-40523390D02*
X153161904Y-40571009D01*
X153161904Y-40571009D02*
X153209523Y-40666247D01*
X153209523Y-40666247D02*
X153209523Y-40904342D01*
X153209523Y-40904342D02*
X153161904Y-40999580D01*
X153161904Y-40999580D02*
X153114285Y-41047200D01*
X153114285Y-41047200D02*
X153019047Y-41094819D01*
X153019047Y-41094819D02*
X152733333Y-41094819D01*
X152733333Y-41094819D02*
X152638095Y-41047200D01*
X152638095Y-41047200D02*
X152590476Y-40999580D01*
X133587017Y-77498428D02*
X134396540Y-77498428D01*
X134396540Y-77498428D02*
X134491778Y-77450809D01*
X134491778Y-77450809D02*
X134539398Y-77403190D01*
X134539398Y-77403190D02*
X134587017Y-77307952D01*
X134587017Y-77307952D02*
X134587017Y-77117476D01*
X134587017Y-77117476D02*
X134539398Y-77022238D01*
X134539398Y-77022238D02*
X134491778Y-76974619D01*
X134491778Y-76974619D02*
X134396540Y-76927000D01*
X134396540Y-76927000D02*
X133587017Y-76927000D01*
X133587017Y-76546047D02*
X133587017Y-75879381D01*
X133587017Y-75879381D02*
X134587017Y-76307952D01*
X64520503Y-75669411D02*
X64520503Y-74859888D01*
X64520503Y-74859888D02*
X64472884Y-74764650D01*
X64472884Y-74764650D02*
X64425265Y-74717031D01*
X64425265Y-74717031D02*
X64330027Y-74669411D01*
X64330027Y-74669411D02*
X64139551Y-74669411D01*
X64139551Y-74669411D02*
X64044313Y-74717031D01*
X64044313Y-74717031D02*
X63996694Y-74764650D01*
X63996694Y-74764650D02*
X63949075Y-74859888D01*
X63949075Y-74859888D02*
X63949075Y-75669411D01*
X63044313Y-75336078D02*
X63044313Y-74669411D01*
X63282408Y-75717031D02*
X63520503Y-75002745D01*
X63520503Y-75002745D02*
X62901456Y-75002745D01*
X149693333Y-56504819D02*
X149360000Y-56028628D01*
X149121905Y-56504819D02*
X149121905Y-55504819D01*
X149121905Y-55504819D02*
X149502857Y-55504819D01*
X149502857Y-55504819D02*
X149598095Y-55552438D01*
X149598095Y-55552438D02*
X149645714Y-55600057D01*
X149645714Y-55600057D02*
X149693333Y-55695295D01*
X149693333Y-55695295D02*
X149693333Y-55838152D01*
X149693333Y-55838152D02*
X149645714Y-55933390D01*
X149645714Y-55933390D02*
X149598095Y-55981009D01*
X149598095Y-55981009D02*
X149502857Y-56028628D01*
X149502857Y-56028628D02*
X149121905Y-56028628D01*
X150074286Y-55600057D02*
X150121905Y-55552438D01*
X150121905Y-55552438D02*
X150217143Y-55504819D01*
X150217143Y-55504819D02*
X150455238Y-55504819D01*
X150455238Y-55504819D02*
X150550476Y-55552438D01*
X150550476Y-55552438D02*
X150598095Y-55600057D01*
X150598095Y-55600057D02*
X150645714Y-55695295D01*
X150645714Y-55695295D02*
X150645714Y-55790533D01*
X150645714Y-55790533D02*
X150598095Y-55933390D01*
X150598095Y-55933390D02*
X150026667Y-56504819D01*
X150026667Y-56504819D02*
X150645714Y-56504819D01*
X110160335Y-37535279D02*
X110969858Y-37535279D01*
X110969858Y-37535279D02*
X111065096Y-37487660D01*
X111065096Y-37487660D02*
X111112716Y-37440041D01*
X111112716Y-37440041D02*
X111160335Y-37344803D01*
X111160335Y-37344803D02*
X111160335Y-37154327D01*
X111160335Y-37154327D02*
X111112716Y-37059089D01*
X111112716Y-37059089D02*
X111065096Y-37011470D01*
X111065096Y-37011470D02*
X110969858Y-36963851D01*
X110969858Y-36963851D02*
X110160335Y-36963851D01*
X111160335Y-35963851D02*
X111160335Y-36535279D01*
X111160335Y-36249565D02*
X110160335Y-36249565D01*
X110160335Y-36249565D02*
X110303192Y-36344803D01*
X110303192Y-36344803D02*
X110398430Y-36440041D01*
X110398430Y-36440041D02*
X110446049Y-36535279D01*
X149693333Y-76824819D02*
X149360000Y-76348628D01*
X149121905Y-76824819D02*
X149121905Y-75824819D01*
X149121905Y-75824819D02*
X149502857Y-75824819D01*
X149502857Y-75824819D02*
X149598095Y-75872438D01*
X149598095Y-75872438D02*
X149645714Y-75920057D01*
X149645714Y-75920057D02*
X149693333Y-76015295D01*
X149693333Y-76015295D02*
X149693333Y-76158152D01*
X149693333Y-76158152D02*
X149645714Y-76253390D01*
X149645714Y-76253390D02*
X149598095Y-76301009D01*
X149598095Y-76301009D02*
X149502857Y-76348628D01*
X149502857Y-76348628D02*
X149121905Y-76348628D01*
X150026667Y-75824819D02*
X150645714Y-75824819D01*
X150645714Y-75824819D02*
X150312381Y-76205771D01*
X150312381Y-76205771D02*
X150455238Y-76205771D01*
X150455238Y-76205771D02*
X150550476Y-76253390D01*
X150550476Y-76253390D02*
X150598095Y-76301009D01*
X150598095Y-76301009D02*
X150645714Y-76396247D01*
X150645714Y-76396247D02*
X150645714Y-76634342D01*
X150645714Y-76634342D02*
X150598095Y-76729580D01*
X150598095Y-76729580D02*
X150550476Y-76777200D01*
X150550476Y-76777200D02*
X150455238Y-76824819D01*
X150455238Y-76824819D02*
X150169524Y-76824819D01*
X150169524Y-76824819D02*
X150074286Y-76777200D01*
X150074286Y-76777200D02*
X150026667Y-76729580D01*
X149693333Y-81734819D02*
X149360000Y-81258628D01*
X149121905Y-81734819D02*
X149121905Y-80734819D01*
X149121905Y-80734819D02*
X149502857Y-80734819D01*
X149502857Y-80734819D02*
X149598095Y-80782438D01*
X149598095Y-80782438D02*
X149645714Y-80830057D01*
X149645714Y-80830057D02*
X149693333Y-80925295D01*
X149693333Y-80925295D02*
X149693333Y-81068152D01*
X149693333Y-81068152D02*
X149645714Y-81163390D01*
X149645714Y-81163390D02*
X149598095Y-81211009D01*
X149598095Y-81211009D02*
X149502857Y-81258628D01*
X149502857Y-81258628D02*
X149121905Y-81258628D01*
X150550476Y-81068152D02*
X150550476Y-81734819D01*
X150312381Y-80687200D02*
X150074286Y-81401485D01*
X150074286Y-81401485D02*
X150693333Y-81401485D01*
X149693333Y-51424819D02*
X149360000Y-50948628D01*
X149121905Y-51424819D02*
X149121905Y-50424819D01*
X149121905Y-50424819D02*
X149502857Y-50424819D01*
X149502857Y-50424819D02*
X149598095Y-50472438D01*
X149598095Y-50472438D02*
X149645714Y-50520057D01*
X149645714Y-50520057D02*
X149693333Y-50615295D01*
X149693333Y-50615295D02*
X149693333Y-50758152D01*
X149693333Y-50758152D02*
X149645714Y-50853390D01*
X149645714Y-50853390D02*
X149598095Y-50901009D01*
X149598095Y-50901009D02*
X149502857Y-50948628D01*
X149502857Y-50948628D02*
X149121905Y-50948628D01*
X150645714Y-51424819D02*
X150074286Y-51424819D01*
X150360000Y-51424819D02*
X150360000Y-50424819D01*
X150360000Y-50424819D02*
X150264762Y-50567676D01*
X150264762Y-50567676D02*
X150169524Y-50662914D01*
X150169524Y-50662914D02*
X150074286Y-50710533D01*
X145314819Y-68953333D02*
X146029104Y-68953333D01*
X146029104Y-68953333D02*
X146171961Y-69000952D01*
X146171961Y-69000952D02*
X146267200Y-69096190D01*
X146267200Y-69096190D02*
X146314819Y-69239047D01*
X146314819Y-69239047D02*
X146314819Y-69334285D01*
X146314819Y-67953333D02*
X146314819Y-68524761D01*
X146314819Y-68239047D02*
X145314819Y-68239047D01*
X145314819Y-68239047D02*
X145457676Y-68334285D01*
X145457676Y-68334285D02*
X145552914Y-68429523D01*
X145552914Y-68429523D02*
X145600533Y-68524761D01*
X149974700Y-75691428D02*
X149974700Y-74548571D01*
X149974700Y-62691428D02*
X149974700Y-61548571D01*
X150546128Y-62119999D02*
X149403271Y-62119999D01*
X177254819Y-55371904D02*
X178064342Y-55371904D01*
X178064342Y-55371904D02*
X178159580Y-55324285D01*
X178159580Y-55324285D02*
X178207200Y-55276666D01*
X178207200Y-55276666D02*
X178254819Y-55181428D01*
X178254819Y-55181428D02*
X178254819Y-54990952D01*
X178254819Y-54990952D02*
X178207200Y-54895714D01*
X178207200Y-54895714D02*
X178159580Y-54848095D01*
X178159580Y-54848095D02*
X178064342Y-54800476D01*
X178064342Y-54800476D02*
X177254819Y-54800476D01*
X177350057Y-54371904D02*
X177302438Y-54324285D01*
X177302438Y-54324285D02*
X177254819Y-54229047D01*
X177254819Y-54229047D02*
X177254819Y-53990952D01*
X177254819Y-53990952D02*
X177302438Y-53895714D01*
X177302438Y-53895714D02*
X177350057Y-53848095D01*
X177350057Y-53848095D02*
X177445295Y-53800476D01*
X177445295Y-53800476D02*
X177540533Y-53800476D01*
X177540533Y-53800476D02*
X177683390Y-53848095D01*
X177683390Y-53848095D02*
X178254819Y-54419523D01*
X178254819Y-54419523D02*
X178254819Y-53800476D01*
X164782856Y-44381009D02*
X165116189Y-44381009D01*
X165259046Y-44904819D02*
X164782856Y-44904819D01*
X164782856Y-44904819D02*
X164782856Y-43904819D01*
X164782856Y-43904819D02*
X165259046Y-43904819D01*
X165544761Y-44238152D02*
X165925713Y-44238152D01*
X165687618Y-43904819D02*
X165687618Y-44761961D01*
X165687618Y-44761961D02*
X165735237Y-44857200D01*
X165735237Y-44857200D02*
X165830475Y-44904819D01*
X165830475Y-44904819D02*
X165925713Y-44904819D01*
X166259047Y-44904819D02*
X166259047Y-43904819D01*
X166687618Y-44904819D02*
X166687618Y-44381009D01*
X166687618Y-44381009D02*
X166639999Y-44285771D01*
X166639999Y-44285771D02*
X166544761Y-44238152D01*
X166544761Y-44238152D02*
X166401904Y-44238152D01*
X166401904Y-44238152D02*
X166306666Y-44285771D01*
X166306666Y-44285771D02*
X166259047Y-44333390D01*
X167544761Y-44857200D02*
X167449523Y-44904819D01*
X167449523Y-44904819D02*
X167259047Y-44904819D01*
X167259047Y-44904819D02*
X167163809Y-44857200D01*
X167163809Y-44857200D02*
X167116190Y-44761961D01*
X167116190Y-44761961D02*
X167116190Y-44381009D01*
X167116190Y-44381009D02*
X167163809Y-44285771D01*
X167163809Y-44285771D02*
X167259047Y-44238152D01*
X167259047Y-44238152D02*
X167449523Y-44238152D01*
X167449523Y-44238152D02*
X167544761Y-44285771D01*
X167544761Y-44285771D02*
X167592380Y-44381009D01*
X167592380Y-44381009D02*
X167592380Y-44476247D01*
X167592380Y-44476247D02*
X167116190Y-44571485D01*
X168020952Y-44904819D02*
X168020952Y-44238152D01*
X168020952Y-44428628D02*
X168068571Y-44333390D01*
X168068571Y-44333390D02*
X168116190Y-44285771D01*
X168116190Y-44285771D02*
X168211428Y-44238152D01*
X168211428Y-44238152D02*
X168306666Y-44238152D01*
X168640000Y-44238152D02*
X168640000Y-44904819D01*
X168640000Y-44333390D02*
X168687619Y-44285771D01*
X168687619Y-44285771D02*
X168782857Y-44238152D01*
X168782857Y-44238152D02*
X168925714Y-44238152D01*
X168925714Y-44238152D02*
X169020952Y-44285771D01*
X169020952Y-44285771D02*
X169068571Y-44381009D01*
X169068571Y-44381009D02*
X169068571Y-44904819D01*
X169925714Y-44857200D02*
X169830476Y-44904819D01*
X169830476Y-44904819D02*
X169640000Y-44904819D01*
X169640000Y-44904819D02*
X169544762Y-44857200D01*
X169544762Y-44857200D02*
X169497143Y-44761961D01*
X169497143Y-44761961D02*
X169497143Y-44381009D01*
X169497143Y-44381009D02*
X169544762Y-44285771D01*
X169544762Y-44285771D02*
X169640000Y-44238152D01*
X169640000Y-44238152D02*
X169830476Y-44238152D01*
X169830476Y-44238152D02*
X169925714Y-44285771D01*
X169925714Y-44285771D02*
X169973333Y-44381009D01*
X169973333Y-44381009D02*
X169973333Y-44476247D01*
X169973333Y-44476247D02*
X169497143Y-44571485D01*
X170259048Y-44238152D02*
X170640000Y-44238152D01*
X170401905Y-43904819D02*
X170401905Y-44761961D01*
X170401905Y-44761961D02*
X170449524Y-44857200D01*
X170449524Y-44857200D02*
X170544762Y-44904819D01*
X170544762Y-44904819D02*
X170640000Y-44904819D01*
X164556666Y-53656033D02*
X164556666Y-52956033D01*
X164556666Y-52956033D02*
X164790000Y-53456033D01*
X164790000Y-53456033D02*
X165023333Y-52956033D01*
X165023333Y-52956033D02*
X165023333Y-53656033D01*
X165356666Y-53656033D02*
X165356666Y-52956033D01*
X165689999Y-53656033D02*
X165689999Y-52956033D01*
X165689999Y-52956033D02*
X165923333Y-53456033D01*
X165923333Y-53456033D02*
X166156666Y-52956033D01*
X166156666Y-52956033D02*
X166156666Y-53656033D01*
X166423333Y-52956033D02*
X166889999Y-53656033D01*
X166889999Y-52956033D02*
X166423333Y-53656033D01*
X167556666Y-53656033D02*
X167323333Y-53322700D01*
X167156666Y-53656033D02*
X167156666Y-52956033D01*
X167156666Y-52956033D02*
X167423333Y-52956033D01*
X167423333Y-52956033D02*
X167490000Y-52989366D01*
X167490000Y-52989366D02*
X167523333Y-53022700D01*
X167523333Y-53022700D02*
X167556666Y-53089366D01*
X167556666Y-53089366D02*
X167556666Y-53189366D01*
X167556666Y-53189366D02*
X167523333Y-53256033D01*
X167523333Y-53256033D02*
X167490000Y-53289366D01*
X167490000Y-53289366D02*
X167423333Y-53322700D01*
X167423333Y-53322700D02*
X167156666Y-53322700D01*
X167756666Y-52956033D02*
X168156666Y-52956033D01*
X167956666Y-53656033D02*
X167956666Y-52956033D01*
X168756666Y-53656033D02*
X168356666Y-53656033D01*
X168556666Y-53656033D02*
X168556666Y-52956033D01*
X168556666Y-52956033D02*
X168489999Y-53056033D01*
X168489999Y-53056033D02*
X168423333Y-53122700D01*
X168423333Y-53122700D02*
X168356666Y-53156033D01*
X169190000Y-52956033D02*
X169256666Y-52956033D01*
X169256666Y-52956033D02*
X169323333Y-52989366D01*
X169323333Y-52989366D02*
X169356666Y-53022700D01*
X169356666Y-53022700D02*
X169390000Y-53089366D01*
X169390000Y-53089366D02*
X169423333Y-53222700D01*
X169423333Y-53222700D02*
X169423333Y-53389366D01*
X169423333Y-53389366D02*
X169390000Y-53522700D01*
X169390000Y-53522700D02*
X169356666Y-53589366D01*
X169356666Y-53589366D02*
X169323333Y-53622700D01*
X169323333Y-53622700D02*
X169256666Y-53656033D01*
X169256666Y-53656033D02*
X169190000Y-53656033D01*
X169190000Y-53656033D02*
X169123333Y-53622700D01*
X169123333Y-53622700D02*
X169090000Y-53589366D01*
X169090000Y-53589366D02*
X169056666Y-53522700D01*
X169056666Y-53522700D02*
X169023333Y-53389366D01*
X169023333Y-53389366D02*
X169023333Y-53222700D01*
X169023333Y-53222700D02*
X169056666Y-53089366D01*
X169056666Y-53089366D02*
X169090000Y-53022700D01*
X169090000Y-53022700D02*
X169123333Y-52989366D01*
X169123333Y-52989366D02*
X169190000Y-52956033D01*
X170023333Y-52956033D02*
X169890000Y-52956033D01*
X169890000Y-52956033D02*
X169823333Y-52989366D01*
X169823333Y-52989366D02*
X169790000Y-53022700D01*
X169790000Y-53022700D02*
X169723333Y-53122700D01*
X169723333Y-53122700D02*
X169690000Y-53256033D01*
X169690000Y-53256033D02*
X169690000Y-53522700D01*
X169690000Y-53522700D02*
X169723333Y-53589366D01*
X169723333Y-53589366D02*
X169756667Y-53622700D01*
X169756667Y-53622700D02*
X169823333Y-53656033D01*
X169823333Y-53656033D02*
X169956667Y-53656033D01*
X169956667Y-53656033D02*
X170023333Y-53622700D01*
X170023333Y-53622700D02*
X170056667Y-53589366D01*
X170056667Y-53589366D02*
X170090000Y-53522700D01*
X170090000Y-53522700D02*
X170090000Y-53356033D01*
X170090000Y-53356033D02*
X170056667Y-53289366D01*
X170056667Y-53289366D02*
X170023333Y-53256033D01*
X170023333Y-53256033D02*
X169956667Y-53222700D01*
X169956667Y-53222700D02*
X169823333Y-53222700D01*
X169823333Y-53222700D02*
X169756667Y-53256033D01*
X169756667Y-53256033D02*
X169723333Y-53289366D01*
X169723333Y-53289366D02*
X169690000Y-53356033D01*
X170356667Y-53022700D02*
X170390000Y-52989366D01*
X170390000Y-52989366D02*
X170456667Y-52956033D01*
X170456667Y-52956033D02*
X170623334Y-52956033D01*
X170623334Y-52956033D02*
X170690000Y-52989366D01*
X170690000Y-52989366D02*
X170723334Y-53022700D01*
X170723334Y-53022700D02*
X170756667Y-53089366D01*
X170756667Y-53089366D02*
X170756667Y-53156033D01*
X170756667Y-53156033D02*
X170723334Y-53256033D01*
X170723334Y-53256033D02*
X170323334Y-53656033D01*
X170323334Y-53656033D02*
X170756667Y-53656033D01*
X166378095Y-27394819D02*
X166378095Y-28204342D01*
X166378095Y-28204342D02*
X166425714Y-28299580D01*
X166425714Y-28299580D02*
X166473333Y-28347200D01*
X166473333Y-28347200D02*
X166568571Y-28394819D01*
X166568571Y-28394819D02*
X166759047Y-28394819D01*
X166759047Y-28394819D02*
X166854285Y-28347200D01*
X166854285Y-28347200D02*
X166901904Y-28299580D01*
X166901904Y-28299580D02*
X166949523Y-28204342D01*
X166949523Y-28204342D02*
X166949523Y-27394819D01*
X167378095Y-28347200D02*
X167520952Y-28394819D01*
X167520952Y-28394819D02*
X167759047Y-28394819D01*
X167759047Y-28394819D02*
X167854285Y-28347200D01*
X167854285Y-28347200D02*
X167901904Y-28299580D01*
X167901904Y-28299580D02*
X167949523Y-28204342D01*
X167949523Y-28204342D02*
X167949523Y-28109104D01*
X167949523Y-28109104D02*
X167901904Y-28013866D01*
X167901904Y-28013866D02*
X167854285Y-27966247D01*
X167854285Y-27966247D02*
X167759047Y-27918628D01*
X167759047Y-27918628D02*
X167568571Y-27871009D01*
X167568571Y-27871009D02*
X167473333Y-27823390D01*
X167473333Y-27823390D02*
X167425714Y-27775771D01*
X167425714Y-27775771D02*
X167378095Y-27680533D01*
X167378095Y-27680533D02*
X167378095Y-27585295D01*
X167378095Y-27585295D02*
X167425714Y-27490057D01*
X167425714Y-27490057D02*
X167473333Y-27442438D01*
X167473333Y-27442438D02*
X167568571Y-27394819D01*
X167568571Y-27394819D02*
X167806666Y-27394819D01*
X167806666Y-27394819D02*
X167949523Y-27442438D01*
X168711428Y-27871009D02*
X168854285Y-27918628D01*
X168854285Y-27918628D02*
X168901904Y-27966247D01*
X168901904Y-27966247D02*
X168949523Y-28061485D01*
X168949523Y-28061485D02*
X168949523Y-28204342D01*
X168949523Y-28204342D02*
X168901904Y-28299580D01*
X168901904Y-28299580D02*
X168854285Y-28347200D01*
X168854285Y-28347200D02*
X168759047Y-28394819D01*
X168759047Y-28394819D02*
X168378095Y-28394819D01*
X168378095Y-28394819D02*
X168378095Y-27394819D01*
X168378095Y-27394819D02*
X168711428Y-27394819D01*
X168711428Y-27394819D02*
X168806666Y-27442438D01*
X168806666Y-27442438D02*
X168854285Y-27490057D01*
X168854285Y-27490057D02*
X168901904Y-27585295D01*
X168901904Y-27585295D02*
X168901904Y-27680533D01*
X168901904Y-27680533D02*
X168854285Y-27775771D01*
X168854285Y-27775771D02*
X168806666Y-27823390D01*
X168806666Y-27823390D02*
X168711428Y-27871009D01*
X168711428Y-27871009D02*
X168378095Y-27871009D01*
X166436666Y-52386033D02*
X166436666Y-51686033D01*
X166436666Y-51686033D02*
X166603333Y-51686033D01*
X166603333Y-51686033D02*
X166703333Y-51719366D01*
X166703333Y-51719366D02*
X166770000Y-51786033D01*
X166770000Y-51786033D02*
X166803333Y-51852700D01*
X166803333Y-51852700D02*
X166836666Y-51986033D01*
X166836666Y-51986033D02*
X166836666Y-52086033D01*
X166836666Y-52086033D02*
X166803333Y-52219366D01*
X166803333Y-52219366D02*
X166770000Y-52286033D01*
X166770000Y-52286033D02*
X166703333Y-52352700D01*
X166703333Y-52352700D02*
X166603333Y-52386033D01*
X166603333Y-52386033D02*
X166436666Y-52386033D01*
X167036666Y-51686033D02*
X167270000Y-52386033D01*
X167270000Y-52386033D02*
X167503333Y-51686033D01*
X167936666Y-51686033D02*
X167936666Y-52186033D01*
X167936666Y-52186033D02*
X167903333Y-52286033D01*
X167903333Y-52286033D02*
X167836666Y-52352700D01*
X167836666Y-52352700D02*
X167736666Y-52386033D01*
X167736666Y-52386033D02*
X167670000Y-52386033D01*
X168569999Y-51686033D02*
X168436666Y-51686033D01*
X168436666Y-51686033D02*
X168369999Y-51719366D01*
X168369999Y-51719366D02*
X168336666Y-51752700D01*
X168336666Y-51752700D02*
X168269999Y-51852700D01*
X168269999Y-51852700D02*
X168236666Y-51986033D01*
X168236666Y-51986033D02*
X168236666Y-52252700D01*
X168236666Y-52252700D02*
X168269999Y-52319366D01*
X168269999Y-52319366D02*
X168303333Y-52352700D01*
X168303333Y-52352700D02*
X168369999Y-52386033D01*
X168369999Y-52386033D02*
X168503333Y-52386033D01*
X168503333Y-52386033D02*
X168569999Y-52352700D01*
X168569999Y-52352700D02*
X168603333Y-52319366D01*
X168603333Y-52319366D02*
X168636666Y-52252700D01*
X168636666Y-52252700D02*
X168636666Y-52086033D01*
X168636666Y-52086033D02*
X168603333Y-52019366D01*
X168603333Y-52019366D02*
X168569999Y-51986033D01*
X168569999Y-51986033D02*
X168503333Y-51952700D01*
X168503333Y-51952700D02*
X168369999Y-51952700D01*
X168369999Y-51952700D02*
X168303333Y-51986033D01*
X168303333Y-51986033D02*
X168269999Y-52019366D01*
X168269999Y-52019366D02*
X168236666Y-52086033D01*
X168903333Y-52186033D02*
X169236666Y-52186033D01*
X168836666Y-52386033D02*
X169070000Y-51686033D01*
X169070000Y-51686033D02*
X169303333Y-52386033D01*
X168094819Y-81859047D02*
X167094819Y-81859047D01*
X167094819Y-81859047D02*
X167809104Y-81525714D01*
X167809104Y-81525714D02*
X167094819Y-81192381D01*
X167094819Y-81192381D02*
X168094819Y-81192381D01*
X168094819Y-80716190D02*
X167428152Y-80716190D01*
X167094819Y-80716190D02*
X167142438Y-80763809D01*
X167142438Y-80763809D02*
X167190057Y-80716190D01*
X167190057Y-80716190D02*
X167142438Y-80668571D01*
X167142438Y-80668571D02*
X167094819Y-80716190D01*
X167094819Y-80716190D02*
X167190057Y-80716190D01*
X168047200Y-79811429D02*
X168094819Y-79906667D01*
X168094819Y-79906667D02*
X168094819Y-80097143D01*
X168094819Y-80097143D02*
X168047200Y-80192381D01*
X168047200Y-80192381D02*
X167999580Y-80240000D01*
X167999580Y-80240000D02*
X167904342Y-80287619D01*
X167904342Y-80287619D02*
X167618628Y-80287619D01*
X167618628Y-80287619D02*
X167523390Y-80240000D01*
X167523390Y-80240000D02*
X167475771Y-80192381D01*
X167475771Y-80192381D02*
X167428152Y-80097143D01*
X167428152Y-80097143D02*
X167428152Y-79906667D01*
X167428152Y-79906667D02*
X167475771Y-79811429D01*
X168094819Y-79382857D02*
X167428152Y-79382857D01*
X167618628Y-79382857D02*
X167523390Y-79335238D01*
X167523390Y-79335238D02*
X167475771Y-79287619D01*
X167475771Y-79287619D02*
X167428152Y-79192381D01*
X167428152Y-79192381D02*
X167428152Y-79097143D01*
X168094819Y-78620952D02*
X168047200Y-78716190D01*
X168047200Y-78716190D02*
X167999580Y-78763809D01*
X167999580Y-78763809D02*
X167904342Y-78811428D01*
X167904342Y-78811428D02*
X167618628Y-78811428D01*
X167618628Y-78811428D02*
X167523390Y-78763809D01*
X167523390Y-78763809D02*
X167475771Y-78716190D01*
X167475771Y-78716190D02*
X167428152Y-78620952D01*
X167428152Y-78620952D02*
X167428152Y-78478095D01*
X167428152Y-78478095D02*
X167475771Y-78382857D01*
X167475771Y-78382857D02*
X167523390Y-78335238D01*
X167523390Y-78335238D02*
X167618628Y-78287619D01*
X167618628Y-78287619D02*
X167904342Y-78287619D01*
X167904342Y-78287619D02*
X167999580Y-78335238D01*
X167999580Y-78335238D02*
X168047200Y-78382857D01*
X168047200Y-78382857D02*
X168094819Y-78478095D01*
X168094819Y-78478095D02*
X168094819Y-78620952D01*
X168047200Y-77144761D02*
X168094819Y-77001904D01*
X168094819Y-77001904D02*
X168094819Y-76763809D01*
X168094819Y-76763809D02*
X168047200Y-76668571D01*
X168047200Y-76668571D02*
X167999580Y-76620952D01*
X167999580Y-76620952D02*
X167904342Y-76573333D01*
X167904342Y-76573333D02*
X167809104Y-76573333D01*
X167809104Y-76573333D02*
X167713866Y-76620952D01*
X167713866Y-76620952D02*
X167666247Y-76668571D01*
X167666247Y-76668571D02*
X167618628Y-76763809D01*
X167618628Y-76763809D02*
X167571009Y-76954285D01*
X167571009Y-76954285D02*
X167523390Y-77049523D01*
X167523390Y-77049523D02*
X167475771Y-77097142D01*
X167475771Y-77097142D02*
X167380533Y-77144761D01*
X167380533Y-77144761D02*
X167285295Y-77144761D01*
X167285295Y-77144761D02*
X167190057Y-77097142D01*
X167190057Y-77097142D02*
X167142438Y-77049523D01*
X167142438Y-77049523D02*
X167094819Y-76954285D01*
X167094819Y-76954285D02*
X167094819Y-76716190D01*
X167094819Y-76716190D02*
X167142438Y-76573333D01*
X168094819Y-76144761D02*
X167094819Y-76144761D01*
X167094819Y-76144761D02*
X167094819Y-75906666D01*
X167094819Y-75906666D02*
X167142438Y-75763809D01*
X167142438Y-75763809D02*
X167237676Y-75668571D01*
X167237676Y-75668571D02*
X167332914Y-75620952D01*
X167332914Y-75620952D02*
X167523390Y-75573333D01*
X167523390Y-75573333D02*
X167666247Y-75573333D01*
X167666247Y-75573333D02*
X167856723Y-75620952D01*
X167856723Y-75620952D02*
X167951961Y-75668571D01*
X167951961Y-75668571D02*
X168047200Y-75763809D01*
X168047200Y-75763809D02*
X168094819Y-75906666D01*
X168094819Y-75906666D02*
X168094819Y-76144761D01*
X164605619Y-39453723D02*
X165415142Y-39453723D01*
X165415142Y-39453723D02*
X165510380Y-39406104D01*
X165510380Y-39406104D02*
X165558000Y-39358485D01*
X165558000Y-39358485D02*
X165605619Y-39263247D01*
X165605619Y-39263247D02*
X165605619Y-39072771D01*
X165605619Y-39072771D02*
X165558000Y-38977533D01*
X165558000Y-38977533D02*
X165510380Y-38929914D01*
X165510380Y-38929914D02*
X165415142Y-38882295D01*
X165415142Y-38882295D02*
X164605619Y-38882295D01*
X165558000Y-38453723D02*
X165605619Y-38310866D01*
X165605619Y-38310866D02*
X165605619Y-38072771D01*
X165605619Y-38072771D02*
X165558000Y-37977533D01*
X165558000Y-37977533D02*
X165510380Y-37929914D01*
X165510380Y-37929914D02*
X165415142Y-37882295D01*
X165415142Y-37882295D02*
X165319904Y-37882295D01*
X165319904Y-37882295D02*
X165224666Y-37929914D01*
X165224666Y-37929914D02*
X165177047Y-37977533D01*
X165177047Y-37977533D02*
X165129428Y-38072771D01*
X165129428Y-38072771D02*
X165081809Y-38263247D01*
X165081809Y-38263247D02*
X165034190Y-38358485D01*
X165034190Y-38358485D02*
X164986571Y-38406104D01*
X164986571Y-38406104D02*
X164891333Y-38453723D01*
X164891333Y-38453723D02*
X164796095Y-38453723D01*
X164796095Y-38453723D02*
X164700857Y-38406104D01*
X164700857Y-38406104D02*
X164653238Y-38358485D01*
X164653238Y-38358485D02*
X164605619Y-38263247D01*
X164605619Y-38263247D02*
X164605619Y-38025152D01*
X164605619Y-38025152D02*
X164653238Y-37882295D01*
X165081809Y-37120390D02*
X165129428Y-36977533D01*
X165129428Y-36977533D02*
X165177047Y-36929914D01*
X165177047Y-36929914D02*
X165272285Y-36882295D01*
X165272285Y-36882295D02*
X165415142Y-36882295D01*
X165415142Y-36882295D02*
X165510380Y-36929914D01*
X165510380Y-36929914D02*
X165558000Y-36977533D01*
X165558000Y-36977533D02*
X165605619Y-37072771D01*
X165605619Y-37072771D02*
X165605619Y-37453723D01*
X165605619Y-37453723D02*
X164605619Y-37453723D01*
X164605619Y-37453723D02*
X164605619Y-37120390D01*
X164605619Y-37120390D02*
X164653238Y-37025152D01*
X164653238Y-37025152D02*
X164700857Y-36977533D01*
X164700857Y-36977533D02*
X164796095Y-36929914D01*
X164796095Y-36929914D02*
X164891333Y-36929914D01*
X164891333Y-36929914D02*
X164986571Y-36977533D01*
X164986571Y-36977533D02*
X165034190Y-37025152D01*
X165034190Y-37025152D02*
X165081809Y-37120390D01*
X165081809Y-37120390D02*
X165081809Y-37453723D01*
X165605619Y-35691818D02*
X164605619Y-35691818D01*
X165081809Y-35691818D02*
X165081809Y-35120390D01*
X165605619Y-35120390D02*
X164605619Y-35120390D01*
X165605619Y-34501342D02*
X165558000Y-34596580D01*
X165558000Y-34596580D02*
X165510380Y-34644199D01*
X165510380Y-34644199D02*
X165415142Y-34691818D01*
X165415142Y-34691818D02*
X165129428Y-34691818D01*
X165129428Y-34691818D02*
X165034190Y-34644199D01*
X165034190Y-34644199D02*
X164986571Y-34596580D01*
X164986571Y-34596580D02*
X164938952Y-34501342D01*
X164938952Y-34501342D02*
X164938952Y-34358485D01*
X164938952Y-34358485D02*
X164986571Y-34263247D01*
X164986571Y-34263247D02*
X165034190Y-34215628D01*
X165034190Y-34215628D02*
X165129428Y-34168009D01*
X165129428Y-34168009D02*
X165415142Y-34168009D01*
X165415142Y-34168009D02*
X165510380Y-34215628D01*
X165510380Y-34215628D02*
X165558000Y-34263247D01*
X165558000Y-34263247D02*
X165605619Y-34358485D01*
X165605619Y-34358485D02*
X165605619Y-34501342D01*
X165558000Y-33787056D02*
X165605619Y-33691818D01*
X165605619Y-33691818D02*
X165605619Y-33501342D01*
X165605619Y-33501342D02*
X165558000Y-33406104D01*
X165558000Y-33406104D02*
X165462761Y-33358485D01*
X165462761Y-33358485D02*
X165415142Y-33358485D01*
X165415142Y-33358485D02*
X165319904Y-33406104D01*
X165319904Y-33406104D02*
X165272285Y-33501342D01*
X165272285Y-33501342D02*
X165272285Y-33644199D01*
X165272285Y-33644199D02*
X165224666Y-33739437D01*
X165224666Y-33739437D02*
X165129428Y-33787056D01*
X165129428Y-33787056D02*
X165081809Y-33787056D01*
X165081809Y-33787056D02*
X164986571Y-33739437D01*
X164986571Y-33739437D02*
X164938952Y-33644199D01*
X164938952Y-33644199D02*
X164938952Y-33501342D01*
X164938952Y-33501342D02*
X164986571Y-33406104D01*
X164938952Y-33072770D02*
X164938952Y-32691818D01*
X164605619Y-32929913D02*
X165462761Y-32929913D01*
X165462761Y-32929913D02*
X165558000Y-32882294D01*
X165558000Y-32882294D02*
X165605619Y-32787056D01*
X165605619Y-32787056D02*
X165605619Y-32691818D01*
X65284819Y-30813333D02*
X65999104Y-30813333D01*
X65999104Y-30813333D02*
X66141961Y-30860952D01*
X66141961Y-30860952D02*
X66237200Y-30956190D01*
X66237200Y-30956190D02*
X66284819Y-31099047D01*
X66284819Y-31099047D02*
X66284819Y-31194285D01*
X65380057Y-30384761D02*
X65332438Y-30337142D01*
X65332438Y-30337142D02*
X65284819Y-30241904D01*
X65284819Y-30241904D02*
X65284819Y-30003809D01*
X65284819Y-30003809D02*
X65332438Y-29908571D01*
X65332438Y-29908571D02*
X65380057Y-29860952D01*
X65380057Y-29860952D02*
X65475295Y-29813333D01*
X65475295Y-29813333D02*
X65570533Y-29813333D01*
X65570533Y-29813333D02*
X65713390Y-29860952D01*
X65713390Y-29860952D02*
X66284819Y-30432380D01*
X66284819Y-30432380D02*
X66284819Y-29813333D01*
X51266382Y-40507397D02*
X51266382Y-41316920D01*
X51266382Y-41316920D02*
X51314001Y-41412158D01*
X51314001Y-41412158D02*
X51361620Y-41459778D01*
X51361620Y-41459778D02*
X51456858Y-41507397D01*
X51456858Y-41507397D02*
X51647334Y-41507397D01*
X51647334Y-41507397D02*
X51742572Y-41459778D01*
X51742572Y-41459778D02*
X51790191Y-41412158D01*
X51790191Y-41412158D02*
X51837810Y-41316920D01*
X51837810Y-41316920D02*
X51837810Y-40507397D01*
X52790191Y-40507397D02*
X52314001Y-40507397D01*
X52314001Y-40507397D02*
X52266382Y-40983587D01*
X52266382Y-40983587D02*
X52314001Y-40935968D01*
X52314001Y-40935968D02*
X52409239Y-40888349D01*
X52409239Y-40888349D02*
X52647334Y-40888349D01*
X52647334Y-40888349D02*
X52742572Y-40935968D01*
X52742572Y-40935968D02*
X52790191Y-40983587D01*
X52790191Y-40983587D02*
X52837810Y-41078825D01*
X52837810Y-41078825D02*
X52837810Y-41316920D01*
X52837810Y-41316920D02*
X52790191Y-41412158D01*
X52790191Y-41412158D02*
X52742572Y-41459778D01*
X52742572Y-41459778D02*
X52647334Y-41507397D01*
X52647334Y-41507397D02*
X52409239Y-41507397D01*
X52409239Y-41507397D02*
X52314001Y-41459778D01*
X52314001Y-41459778D02*
X52266382Y-41412158D01*
X144364068Y-24655886D02*
X144411687Y-24513029D01*
X144411687Y-24513029D02*
X144459306Y-24465410D01*
X144459306Y-24465410D02*
X144554544Y-24417791D01*
X144554544Y-24417791D02*
X144697401Y-24417791D01*
X144697401Y-24417791D02*
X144792639Y-24465410D01*
X144792639Y-24465410D02*
X144840259Y-24513029D01*
X144840259Y-24513029D02*
X144887878Y-24608267D01*
X144887878Y-24608267D02*
X144887878Y-24989219D01*
X144887878Y-24989219D02*
X143887878Y-24989219D01*
X143887878Y-24989219D02*
X143887878Y-24655886D01*
X143887878Y-24655886D02*
X143935497Y-24560648D01*
X143935497Y-24560648D02*
X143983116Y-24513029D01*
X143983116Y-24513029D02*
X144078354Y-24465410D01*
X144078354Y-24465410D02*
X144173592Y-24465410D01*
X144173592Y-24465410D02*
X144268830Y-24513029D01*
X144268830Y-24513029D02*
X144316449Y-24560648D01*
X144316449Y-24560648D02*
X144364068Y-24655886D01*
X144364068Y-24655886D02*
X144364068Y-24989219D01*
X143887878Y-24084457D02*
X143887878Y-23417791D01*
X143887878Y-23417791D02*
X144887878Y-24084457D01*
X144887878Y-24084457D02*
X144887878Y-23417791D01*
X144887878Y-22513029D02*
X144887878Y-23084457D01*
X144887878Y-22798743D02*
X143887878Y-22798743D01*
X143887878Y-22798743D02*
X144030735Y-22893981D01*
X144030735Y-22893981D02*
X144125973Y-22989219D01*
X144125973Y-22989219D02*
X144173592Y-23084457D01*
X46001711Y-32169187D02*
X46001711Y-31407283D01*
X46382664Y-31788235D02*
X45620759Y-31788235D01*
D12*
X171337493Y-65193562D02*
X172571207Y-65193562D01*
X172571207Y-65193562D02*
X172716350Y-65120991D01*
X172716350Y-65120991D02*
X172788922Y-65048420D01*
X172788922Y-65048420D02*
X172861493Y-64903277D01*
X172861493Y-64903277D02*
X172861493Y-64612991D01*
X172861493Y-64612991D02*
X172788922Y-64467848D01*
X172788922Y-64467848D02*
X172716350Y-64395277D01*
X172716350Y-64395277D02*
X172571207Y-64322705D01*
X172571207Y-64322705D02*
X171337493Y-64322705D01*
X171337493Y-62943849D02*
X171337493Y-63234134D01*
X171337493Y-63234134D02*
X171410064Y-63379277D01*
X171410064Y-63379277D02*
X171482636Y-63451849D01*
X171482636Y-63451849D02*
X171700350Y-63596991D01*
X171700350Y-63596991D02*
X171990636Y-63669563D01*
X171990636Y-63669563D02*
X172571207Y-63669563D01*
X172571207Y-63669563D02*
X172716350Y-63596991D01*
X172716350Y-63596991D02*
X172788922Y-63524420D01*
X172788922Y-63524420D02*
X172861493Y-63379277D01*
X172861493Y-63379277D02*
X172861493Y-63088991D01*
X172861493Y-63088991D02*
X172788922Y-62943849D01*
X172788922Y-62943849D02*
X172716350Y-62871277D01*
X172716350Y-62871277D02*
X172571207Y-62798706D01*
X172571207Y-62798706D02*
X172208350Y-62798706D01*
X172208350Y-62798706D02*
X172063207Y-62871277D01*
X172063207Y-62871277D02*
X171990636Y-62943849D01*
X171990636Y-62943849D02*
X171918064Y-63088991D01*
X171918064Y-63088991D02*
X171918064Y-63379277D01*
X171918064Y-63379277D02*
X171990636Y-63524420D01*
X171990636Y-63524420D02*
X172063207Y-63596991D01*
X172063207Y-63596991D02*
X172208350Y-63669563D01*
D11*
X55544819Y-25733333D02*
X56259104Y-25733333D01*
X56259104Y-25733333D02*
X56401961Y-25780952D01*
X56401961Y-25780952D02*
X56497200Y-25876190D01*
X56497200Y-25876190D02*
X56544819Y-26019047D01*
X56544819Y-26019047D02*
X56544819Y-26114285D01*
X55544819Y-25352380D02*
X55544819Y-24733333D01*
X55544819Y-24733333D02*
X55925771Y-25066666D01*
X55925771Y-25066666D02*
X55925771Y-24923809D01*
X55925771Y-24923809D02*
X55973390Y-24828571D01*
X55973390Y-24828571D02*
X56021009Y-24780952D01*
X56021009Y-24780952D02*
X56116247Y-24733333D01*
X56116247Y-24733333D02*
X56354342Y-24733333D01*
X56354342Y-24733333D02*
X56449580Y-24780952D01*
X56449580Y-24780952D02*
X56497200Y-24828571D01*
X56497200Y-24828571D02*
X56544819Y-24923809D01*
X56544819Y-24923809D02*
X56544819Y-25209523D01*
X56544819Y-25209523D02*
X56497200Y-25304761D01*
X56497200Y-25304761D02*
X56449580Y-25352380D01*
D14*
%TO.C,U3*%
X134390109Y-32270990D02*
X140390109Y-32270990D01*
X134390109Y-33030990D02*
X134390109Y-32270990D01*
X134390109Y-34810990D02*
X140390109Y-34810990D01*
X134390109Y-35570990D02*
X134390109Y-34810990D01*
X134390109Y-37350990D02*
X140390109Y-37350990D01*
X134390109Y-38110990D02*
X134390109Y-37350990D01*
X134390109Y-39890990D02*
X140390109Y-39890990D01*
X134390109Y-40650990D02*
X134390109Y-39890990D01*
X140390109Y-31320990D02*
X140390109Y-41600990D01*
X140390109Y-33030990D02*
X134390109Y-33030990D01*
X140390109Y-35570990D02*
X134390109Y-35570990D01*
X140390109Y-38110990D02*
X134390109Y-38110990D01*
X140390109Y-39990990D02*
X134390109Y-39990990D01*
X140390109Y-40110990D02*
X134390109Y-40110990D01*
X140390109Y-40230990D02*
X134390109Y-40230990D01*
X140390109Y-40350990D02*
X134390109Y-40350990D01*
X140390109Y-40470990D02*
X134390109Y-40470990D01*
X140390109Y-40590990D02*
X134390109Y-40590990D01*
X140390109Y-40650990D02*
X134390109Y-40650990D01*
X140390109Y-41600990D02*
X143050109Y-41600990D01*
X143050109Y-31320990D02*
X140390109Y-31320990D01*
X143050109Y-33920990D02*
X140390109Y-33920990D01*
X143050109Y-36460990D02*
X140390109Y-36460990D01*
X143050109Y-39000990D02*
X140390109Y-39000990D01*
X143050109Y-41600990D02*
X143050109Y-31320990D01*
X143380109Y-39890990D02*
X143050109Y-39890990D01*
X143380109Y-40650990D02*
X143050109Y-40650990D01*
X143447180Y-32270990D02*
X143050109Y-32270990D01*
X143447180Y-33030990D02*
X143050109Y-33030990D01*
X143447180Y-34810990D02*
X143050109Y-34810990D01*
X143447180Y-35570990D02*
X143050109Y-35570990D01*
X143447180Y-37350990D02*
X143050109Y-37350990D01*
X143447180Y-38110990D02*
X143050109Y-38110990D01*
X145760109Y-40270990D02*
X145760109Y-41540990D01*
X145760109Y-41540990D02*
X144490109Y-41540990D01*
X127000000Y-48260000D02*
X149860000Y-48260000D01*
X149860000Y-48260000D02*
X149860000Y-25400000D01*
X149860000Y-25400000D02*
X127000000Y-25400000D01*
X127000000Y-25400000D02*
X127000000Y-48260000D01*
%TO.C,U7*%
X142360000Y-88597567D02*
X82360000Y-88597567D01*
X82360000Y-88597567D02*
X82360000Y-51597567D01*
X82360000Y-51597567D02*
X142360000Y-51597567D01*
X142360000Y-51597567D02*
X142360000Y-88597567D01*
%TO.C,U4*%
X80698599Y-85384231D02*
X79368599Y-85384231D01*
X80698599Y-84054231D02*
X80698599Y-85384231D01*
X80698599Y-82784231D02*
X80698599Y-54784231D01*
X80698599Y-82784231D02*
X78098599Y-82784231D01*
X80698599Y-54784231D02*
X75498599Y-54784231D01*
X78098599Y-85384231D02*
X75498599Y-85384231D01*
X78098599Y-82784231D02*
X78098599Y-85384231D01*
X75498599Y-85384231D02*
X75498599Y-54784231D01*
X42263599Y-88499231D02*
X81463599Y-88499231D01*
X81463599Y-88499231D02*
X81463599Y-50399231D01*
X81463599Y-50399231D02*
X42263599Y-50399231D01*
X42263599Y-50399231D02*
X42263599Y-88499231D01*
%TO.C,R2*%
X145820000Y-58420000D02*
X146590000Y-58420000D01*
X146590000Y-57050000D02*
X146590000Y-59790000D01*
X146590000Y-59790000D02*
X153130000Y-59790000D01*
X153130000Y-57050000D02*
X146590000Y-57050000D01*
X153130000Y-59790000D02*
X153130000Y-57050000D01*
X153900000Y-58420000D02*
X153130000Y-58420000D01*
%TO.C,U1*%
X123645516Y-21263375D02*
X124735516Y-21263375D01*
X112215516Y-21263375D02*
X123645516Y-21263375D01*
X81735516Y-21263375D02*
X112215516Y-21263375D01*
X81735516Y-21263375D02*
X81735516Y-51263375D01*
X81733636Y-25995635D02*
X73103636Y-25995635D01*
X81735516Y-26263375D02*
X73235516Y-26263375D01*
X73235516Y-26263375D02*
X73235516Y-46263375D01*
X73103636Y-26965635D02*
X72693636Y-26965635D01*
X70593636Y-26965635D02*
X70153636Y-26965635D01*
X73103636Y-27685635D02*
X72693636Y-27685635D01*
X70593636Y-27685635D02*
X70153636Y-27685635D01*
X81733636Y-28595635D02*
X73103636Y-28595635D01*
X73103636Y-29505635D02*
X72693636Y-29505635D01*
X70593636Y-29505635D02*
X70153636Y-29505635D01*
X73103636Y-30225635D02*
X72693636Y-30225635D01*
X70593636Y-30225635D02*
X70153636Y-30225635D01*
X81733636Y-31135635D02*
X73103636Y-31135635D01*
X73103636Y-32045635D02*
X72693636Y-32045635D01*
X70593636Y-32045635D02*
X70153636Y-32045635D01*
X73103636Y-32765635D02*
X72693636Y-32765635D01*
X70593636Y-32765635D02*
X70153636Y-32765635D01*
X81733636Y-33675635D02*
X73103636Y-33675635D01*
X73103636Y-34585635D02*
X72693636Y-34585635D01*
X70593636Y-34585635D02*
X70153636Y-34585635D01*
X73103636Y-35305635D02*
X72693636Y-35305635D01*
X70593636Y-35305635D02*
X70153636Y-35305635D01*
X81733636Y-36215635D02*
X73103636Y-36215635D01*
X73103636Y-37125635D02*
X72693636Y-37125635D01*
X70593636Y-37125635D02*
X70153636Y-37125635D01*
X73103636Y-37845635D02*
X72693636Y-37845635D01*
X70593636Y-37845635D02*
X70153636Y-37845635D01*
X81733636Y-38755635D02*
X73103636Y-38755635D01*
X73103636Y-39665635D02*
X72693636Y-39665635D01*
X70593636Y-39665635D02*
X70153636Y-39665635D01*
X73103636Y-40385635D02*
X72693636Y-40385635D01*
X70593636Y-40385635D02*
X70153636Y-40385635D01*
X81733636Y-41295635D02*
X73103636Y-41295635D01*
X73103636Y-42205635D02*
X72693636Y-42205635D01*
X70593636Y-42205635D02*
X70153636Y-42205635D01*
X73103636Y-42925635D02*
X72693636Y-42925635D01*
X70593636Y-42925635D02*
X70153636Y-42925635D01*
X81733636Y-43835635D02*
X73103636Y-43835635D01*
X81733636Y-43953735D02*
X73103636Y-43953735D01*
X81733636Y-44071830D02*
X73103636Y-44071830D01*
X81733636Y-44189925D02*
X73103636Y-44189925D01*
X81733636Y-44308020D02*
X73103636Y-44308020D01*
X81733636Y-44426115D02*
X73103636Y-44426115D01*
X81733636Y-44544210D02*
X73103636Y-44544210D01*
X81733636Y-44662305D02*
X73103636Y-44662305D01*
X73103636Y-44745635D02*
X72693636Y-44745635D01*
X70593636Y-44745635D02*
X70213636Y-44745635D01*
X81733636Y-44780400D02*
X73103636Y-44780400D01*
X81733636Y-44898495D02*
X73103636Y-44898495D01*
X81733636Y-45016590D02*
X73103636Y-45016590D01*
X81733636Y-45134685D02*
X73103636Y-45134685D01*
X81733636Y-45252780D02*
X73103636Y-45252780D01*
X81733636Y-45370875D02*
X73103636Y-45370875D01*
X73103636Y-45465635D02*
X72693636Y-45465635D01*
X70593636Y-45465635D02*
X70213636Y-45465635D01*
X81733636Y-45488970D02*
X73103636Y-45488970D01*
X81733636Y-45607065D02*
X73103636Y-45607065D01*
X81733636Y-45725160D02*
X73103636Y-45725160D01*
X81733636Y-45843255D02*
X73103636Y-45843255D01*
X81733636Y-45961350D02*
X73103636Y-45961350D01*
X81733636Y-46079445D02*
X73103636Y-46079445D01*
X81733636Y-46197540D02*
X73103636Y-46197540D01*
X73235516Y-46263375D02*
X81735516Y-46263375D01*
X81733636Y-46315635D02*
X73103636Y-46315635D01*
X81733636Y-46435635D02*
X81733636Y-25995635D01*
X81733636Y-46435635D02*
X73103636Y-46435635D01*
X73103636Y-46435635D02*
X73103636Y-25995635D01*
X69103636Y-46435635D02*
X67993636Y-46435635D01*
X67993636Y-46435635D02*
X67993636Y-45105635D01*
X81735516Y-46763375D02*
X81735516Y-26263375D01*
X124735516Y-51263375D02*
X124735516Y-21263375D01*
X81735516Y-51263375D02*
X124735516Y-51263375D01*
%TO.C,R3*%
X145820000Y-78740000D02*
X146590000Y-78740000D01*
X146590000Y-77370000D02*
X146590000Y-80110000D01*
X146590000Y-80110000D02*
X153130000Y-80110000D01*
X153130000Y-77370000D02*
X146590000Y-77370000D01*
X153130000Y-80110000D02*
X153130000Y-77370000D01*
X153900000Y-78740000D02*
X153130000Y-78740000D01*
%TO.C,R4*%
X153900000Y-83820000D02*
X153130000Y-83820000D01*
X153130000Y-85190000D02*
X153130000Y-82450000D01*
X153130000Y-82450000D02*
X146590000Y-82450000D01*
X146590000Y-85190000D02*
X153130000Y-85190000D01*
X146590000Y-82450000D02*
X146590000Y-85190000D01*
X145820000Y-83820000D02*
X146590000Y-83820000D01*
%TO.C,R1*%
X145820000Y-53340000D02*
X146590000Y-53340000D01*
X146590000Y-51970000D02*
X146590000Y-54710000D01*
X146590000Y-54710000D02*
X153130000Y-54710000D01*
X153130000Y-51970000D02*
X146590000Y-51970000D01*
X153130000Y-54710000D02*
X153130000Y-51970000D01*
X153900000Y-53340000D02*
X153130000Y-53340000D01*
%TO.C,J1*%
X148450000Y-73830000D02*
X151270000Y-73830000D01*
X148450000Y-73830000D02*
X147150000Y-72130000D01*
X151270000Y-73830000D02*
X152570000Y-72130000D01*
X147150000Y-72130000D02*
X147150000Y-63410000D01*
X152570000Y-72130000D02*
X152570000Y-63410000D01*
X147150000Y-63410000D02*
X152570000Y-63410000D01*
D11*
%TO.C,U2*%
X171450000Y-22860000D02*
X171450000Y-24130000D01*
X163830000Y-22860000D02*
X171450000Y-22860000D01*
X176530000Y-24130000D02*
X176530000Y-85090000D01*
X163830000Y-24130000D02*
X163830000Y-22860000D01*
X158750000Y-24130000D02*
X176530000Y-24130000D01*
X171450000Y-29210000D02*
X171450000Y-24130000D01*
X163830000Y-29210000D02*
X163830000Y-24130000D01*
X163830000Y-29210000D02*
X171450000Y-29210000D01*
X164340800Y-30429200D02*
X164340800Y-32969200D01*
X164340800Y-30429200D02*
X164340800Y-43129200D01*
X161800800Y-30429200D02*
X164340800Y-30429200D01*
X164340800Y-32969200D02*
X161800800Y-32969200D01*
X173991600Y-37360000D02*
X173741600Y-37360000D01*
X173741600Y-37360000D02*
X167741600Y-37360000D01*
X167741600Y-37360000D02*
X167741600Y-41360000D01*
X173991600Y-41360000D02*
X173991600Y-37360000D01*
X167741600Y-41360000D02*
X173991600Y-41360000D01*
X164340800Y-43129200D02*
X161800800Y-43129200D01*
X161800800Y-43129200D02*
X161800800Y-30429200D01*
X173990000Y-46990000D02*
X161290000Y-46990000D01*
X161290000Y-46990000D02*
X161290000Y-59690000D01*
X173990000Y-59690000D02*
X173990000Y-46990000D01*
X161290000Y-59690000D02*
X173990000Y-59690000D01*
X168910000Y-64770000D02*
X168910000Y-68580000D01*
X166370000Y-64770000D02*
X168910000Y-64770000D01*
X168910000Y-68580000D02*
X166370000Y-68580000D01*
X166370000Y-68580000D02*
X166370000Y-64770000D01*
X173990000Y-72390000D02*
X161290000Y-72390000D01*
X161290000Y-72390000D02*
X161290000Y-85090000D01*
X172720000Y-83820000D02*
X162560000Y-83820000D01*
X162560000Y-83820000D02*
X162560000Y-85090000D01*
X176530000Y-85090000D02*
X158750000Y-85090000D01*
X173990000Y-85090000D02*
X173990000Y-72390000D01*
X172720000Y-85090000D02*
X172720000Y-83820000D01*
X158750000Y-85090000D02*
X158750000Y-24130000D01*
X168538026Y-66675000D02*
G75*
G03*
X168538026Y-66675000I-898026J0D01*
G01*
D10*
X168709000Y-55267000D02*
X168328000Y-55521000D01*
X168074000Y-55267000D01*
X168455000Y-55013000D01*
X168709000Y-55267000D01*
G36*
X168709000Y-55267000D02*
G01*
X168328000Y-55521000D01*
X168074000Y-55267000D01*
X168455000Y-55013000D01*
X168709000Y-55267000D01*
G37*
X168201000Y-55648000D02*
X167820000Y-55902000D01*
X167566000Y-55648000D01*
X167947000Y-55394000D01*
X168201000Y-55648000D01*
G36*
X168201000Y-55648000D02*
G01*
X167820000Y-55902000D01*
X167566000Y-55648000D01*
X167947000Y-55394000D01*
X168201000Y-55648000D01*
G37*
X168582000Y-56029000D02*
X168201000Y-56283000D01*
X167947000Y-56029000D01*
X168328000Y-55775000D01*
X168582000Y-56029000D01*
G36*
X168582000Y-56029000D02*
G01*
X168201000Y-56283000D01*
X167947000Y-56029000D01*
X168328000Y-55775000D01*
X168582000Y-56029000D01*
G37*
X167693000Y-56029000D02*
X167312000Y-56283000D01*
X167058000Y-56029000D01*
X167439000Y-55775000D01*
X167693000Y-56029000D01*
G36*
X167693000Y-56029000D02*
G01*
X167312000Y-56283000D01*
X167058000Y-56029000D01*
X167439000Y-55775000D01*
X167693000Y-56029000D01*
G37*
X168074000Y-56410000D02*
X167693000Y-56664000D01*
X167439000Y-56410000D01*
X167820000Y-56156000D01*
X168074000Y-56410000D01*
G36*
X168074000Y-56410000D02*
G01*
X167693000Y-56664000D01*
X167439000Y-56410000D01*
X167820000Y-56156000D01*
X168074000Y-56410000D01*
G37*
X167566000Y-56791000D02*
X167185000Y-57045000D01*
X166931000Y-56791000D01*
X167312000Y-56537000D01*
X167566000Y-56791000D01*
G36*
X167566000Y-56791000D02*
G01*
X167185000Y-57045000D01*
X166931000Y-56791000D01*
X167312000Y-56537000D01*
X167566000Y-56791000D01*
G37*
X167947000Y-57172000D02*
X167566000Y-57426000D01*
X167312000Y-57172000D01*
X167693000Y-56918000D01*
X167947000Y-57172000D01*
G36*
X167947000Y-57172000D02*
G01*
X167566000Y-57426000D01*
X167312000Y-57172000D01*
X167693000Y-56918000D01*
X167947000Y-57172000D01*
G37*
X168328000Y-57553000D02*
X167947000Y-57807000D01*
X167693000Y-57553000D01*
X168074000Y-57299000D01*
X168328000Y-57553000D01*
G36*
X168328000Y-57553000D02*
G01*
X167947000Y-57807000D01*
X167693000Y-57553000D01*
X168074000Y-57299000D01*
X168328000Y-57553000D01*
G37*
D14*
%TO.C,J2*%
X64830000Y-29150000D02*
X64830000Y-30480000D01*
X63500000Y-29150000D02*
X64830000Y-29150000D01*
X62230000Y-29150000D02*
X57090000Y-29150000D01*
X62230000Y-29150000D02*
X62230000Y-31810000D01*
X57090000Y-29150000D02*
X57090000Y-31810000D01*
X62230000Y-31810000D02*
X57090000Y-31810000D01*
%TO.C,U5*%
X61393617Y-48969940D02*
X61393617Y-35634940D01*
X61393617Y-35634940D02*
X43613617Y-35634940D01*
X43613617Y-48969940D02*
X61393617Y-48969940D01*
X43613617Y-35634940D02*
X43613617Y-48969940D01*
%TO.C,BZ1*%
X54567845Y-27978236D02*
G75*
G03*
X54567845Y-27978236I-6100000J0D01*
G01*
%TO.C,U6*%
G36*
X165790846Y-45319268D02*
G01*
X165748512Y-45361601D01*
X165706179Y-45319268D01*
X165748512Y-45276935D01*
X165790846Y-45319268D01*
G37*
G36*
X165869402Y-44893446D02*
G01*
X165875512Y-44938268D01*
X165844534Y-45007958D01*
X165819068Y-44994713D01*
X165808935Y-44894233D01*
X165819068Y-44881824D01*
X165869402Y-44893446D01*
G37*
G36*
X165947508Y-44563116D02*
G01*
X165953495Y-44648990D01*
X165932817Y-44739333D01*
X165902342Y-44700143D01*
X165892248Y-44567819D01*
X165909026Y-44537865D01*
X165947508Y-44563116D01*
G37*
G36*
X165342722Y-86435244D02*
G01*
X165783644Y-86442411D01*
X166135279Y-86455280D01*
X166371797Y-86472873D01*
X166467368Y-86494211D01*
X166468179Y-86496470D01*
X166388040Y-86517636D01*
X166165544Y-86532480D01*
X165827575Y-86540337D01*
X165401014Y-86540542D01*
X164965346Y-86533672D01*
X164324687Y-86517426D01*
X163851219Y-86501923D01*
X163545226Y-86487383D01*
X163406994Y-86474030D01*
X163436808Y-86462085D01*
X163634953Y-86451771D01*
X164001713Y-86443310D01*
X164537375Y-86436923D01*
X164838346Y-86434756D01*
X165342722Y-86435244D01*
G37*
G36*
X166965911Y-41925419D02*
G01*
X166941334Y-42048306D01*
X166831961Y-42271268D01*
X166748411Y-42450085D01*
X166624170Y-42746050D01*
X166476391Y-43117165D01*
X166330620Y-43498935D01*
X166164261Y-43932853D01*
X166048363Y-44211602D01*
X165984437Y-44334504D01*
X165973996Y-44300879D01*
X166018551Y-44110048D01*
X166119613Y-43761333D01*
X166179530Y-43566805D01*
X166328999Y-43116989D01*
X166484693Y-42698166D01*
X166634230Y-42339023D01*
X166765230Y-42068247D01*
X166865312Y-41914528D01*
X166903075Y-41890268D01*
X166965911Y-41925419D01*
G37*
G36*
X167824849Y-82911268D02*
G01*
X167888631Y-83205642D01*
X167933974Y-83540909D01*
X167963521Y-83951009D01*
X167979916Y-84469881D01*
X167985270Y-84970643D01*
X167986603Y-85501710D01*
X167983349Y-85886157D01*
X167973280Y-86146679D01*
X167954167Y-86305974D01*
X167923781Y-86386737D01*
X167879891Y-86411665D01*
X167844012Y-86408861D01*
X167797232Y-86388089D01*
X167761162Y-86332692D01*
X167734246Y-86222673D01*
X167714926Y-86038035D01*
X167701643Y-85758781D01*
X167692841Y-85364916D01*
X167686962Y-84836441D01*
X167683592Y-84349486D01*
X167671338Y-82318601D01*
X167824849Y-82911268D01*
G37*
G36*
X166556461Y-73063393D02*
G01*
X166618345Y-73141015D01*
X166636704Y-73325838D01*
X166637512Y-73428601D01*
X166637512Y-73809601D01*
X167399512Y-73809601D01*
X167760229Y-73811287D01*
X167984199Y-73822377D01*
X168104006Y-73851925D01*
X168152236Y-73908980D01*
X168161475Y-74002595D01*
X168161512Y-74021268D01*
X168155445Y-74121467D01*
X168115519Y-74183681D01*
X168009149Y-74216961D01*
X167803750Y-74230358D01*
X167466736Y-74232925D01*
X167399512Y-74232935D01*
X166637512Y-74232935D01*
X166637512Y-74613935D01*
X166628739Y-74849042D01*
X166585616Y-74960433D01*
X166482937Y-74993480D01*
X166425846Y-74994935D01*
X166214179Y-74994935D01*
X166214179Y-73047601D01*
X166425846Y-73047601D01*
X166556461Y-73063393D01*
G37*
G36*
X165179916Y-82492530D02*
G01*
X165081916Y-82695155D01*
X164906288Y-82978522D01*
X164836748Y-83080601D01*
X164323710Y-83846444D01*
X163900982Y-84535047D01*
X163577655Y-85130845D01*
X163376743Y-85581155D01*
X163258674Y-85865012D01*
X163153426Y-86074059D01*
X163081177Y-86168969D01*
X163074110Y-86170935D01*
X163032972Y-86094109D01*
X163004946Y-85894792D01*
X162996846Y-85673893D01*
X163002096Y-85449354D01*
X163029388Y-85268257D01*
X163096028Y-85090507D01*
X163219324Y-84876008D01*
X163416584Y-84584667D01*
X163546835Y-84399805D01*
X163843473Y-83988334D01*
X164149407Y-83577182D01*
X164444969Y-83191416D01*
X164710496Y-82856105D01*
X164926320Y-82596317D01*
X165072776Y-82437119D01*
X165112761Y-82403732D01*
X165192720Y-82389204D01*
X165179916Y-82492530D01*
G37*
G36*
X166830290Y-46866881D02*
G01*
X167090126Y-47119517D01*
X167274925Y-47274919D01*
X167428292Y-47356674D01*
X167593831Y-47388371D01*
X167803957Y-47393601D01*
X168062176Y-47399800D01*
X168193601Y-47431940D01*
X168240680Y-47510339D01*
X168246179Y-47605268D01*
X168234759Y-47724497D01*
X168173449Y-47787818D01*
X168021674Y-47812917D01*
X167759346Y-47817462D01*
X167511190Y-47822754D01*
X167335502Y-47854808D01*
X167182247Y-47938871D01*
X167001390Y-48100189D01*
X166806846Y-48298083D01*
X166574571Y-48535198D01*
X166434491Y-48663316D01*
X166360952Y-48695035D01*
X166328296Y-48642950D01*
X166313314Y-48540419D01*
X166327648Y-48362323D01*
X166431475Y-48174784D01*
X166631204Y-47950362D01*
X166976960Y-47598063D01*
X166637903Y-47266983D01*
X166425675Y-47033157D01*
X166323170Y-46834949D01*
X166298846Y-46638031D01*
X166298846Y-46340160D01*
X166830290Y-46866881D01*
G37*
G36*
X166609323Y-52839151D02*
G01*
X166644622Y-52875768D01*
X166652672Y-52994457D01*
X166663859Y-53210684D01*
X166666966Y-53277935D01*
X166695206Y-53503493D01*
X166760772Y-53588906D01*
X166807745Y-53588472D01*
X166948676Y-53582145D01*
X167206704Y-53591098D01*
X167530474Y-53613362D01*
X167589735Y-53618451D01*
X167924652Y-53653490D01*
X168123560Y-53692577D01*
X168219640Y-53746603D01*
X168246078Y-53826460D01*
X168246179Y-53833903D01*
X168229215Y-53908747D01*
X168157462Y-53957561D01*
X167999629Y-53987603D01*
X167724427Y-54006133D01*
X167463012Y-54015591D01*
X166679846Y-54039935D01*
X166653811Y-54399768D01*
X166621786Y-54633026D01*
X166556049Y-54738838D01*
X166463311Y-54759601D01*
X166392586Y-54748195D01*
X166345634Y-54694927D01*
X166317631Y-54571227D01*
X166303749Y-54348521D01*
X166299163Y-53998239D01*
X166298846Y-53785935D01*
X166300641Y-53367589D01*
X166309350Y-53089918D01*
X166329955Y-52924272D01*
X166367438Y-52842005D01*
X166426780Y-52814468D01*
X166468179Y-52812268D01*
X166609323Y-52839151D01*
G37*
G36*
X168161512Y-59084032D02*
G01*
X168135540Y-59284034D01*
X168038173Y-59470728D01*
X167840239Y-59695486D01*
X167780512Y-59754935D01*
X167533582Y-60030313D01*
X167415878Y-60252589D01*
X167399512Y-60365230D01*
X167412226Y-60510715D01*
X167480900Y-60579632D01*
X167651333Y-60600396D01*
X167780512Y-60601601D01*
X168015619Y-60610375D01*
X168127011Y-60653498D01*
X168160057Y-60756177D01*
X168161512Y-60813268D01*
X168161512Y-61024935D01*
X166214179Y-61024935D01*
X166214179Y-60813268D01*
X166228175Y-60686959D01*
X166299224Y-60624380D01*
X166470920Y-60603413D01*
X166631347Y-60601601D01*
X167048515Y-60601601D01*
X167014311Y-60331337D01*
X166904339Y-60050971D01*
X166641585Y-59718253D01*
X166597143Y-59672262D01*
X166355759Y-59397084D01*
X166236466Y-59176424D01*
X166214179Y-59035252D01*
X166214179Y-58787053D01*
X166661341Y-59228660D01*
X166888017Y-59442642D01*
X167073273Y-59599526D01*
X167181195Y-59669188D01*
X167187846Y-59670268D01*
X167282663Y-59614596D01*
X167459631Y-59467663D01*
X167682837Y-59259590D01*
X167714350Y-59228660D01*
X168161512Y-58787053D01*
X168161512Y-59084032D01*
G37*
G36*
X168161512Y-79439935D02*
G01*
X168152797Y-79550519D01*
X168102052Y-79613809D01*
X167972380Y-79642982D01*
X167726881Y-79651216D01*
X167568846Y-79651601D01*
X167276722Y-79659300D01*
X167065046Y-79679560D01*
X166976645Y-79708127D01*
X166976179Y-79710469D01*
X167029539Y-79803912D01*
X167161951Y-79962225D01*
X167204068Y-80007201D01*
X167431957Y-80245066D01*
X167145126Y-80541000D01*
X166858295Y-80836935D01*
X167509903Y-80836935D01*
X167839641Y-80840741D01*
X168034786Y-80858168D01*
X168130016Y-80898227D01*
X168160007Y-80969930D01*
X168161512Y-81006268D01*
X168151186Y-81079024D01*
X168101109Y-81127315D01*
X167982632Y-81156122D01*
X167767108Y-81170430D01*
X167425889Y-81175219D01*
X167187846Y-81175601D01*
X166715419Y-81168064D01*
X166401190Y-81138278D01*
X166234409Y-81075483D01*
X166204332Y-80968920D01*
X166300211Y-80807829D01*
X166511299Y-80581451D01*
X166553236Y-80540220D01*
X166892293Y-80209140D01*
X166553236Y-79863666D01*
X166330526Y-79623258D01*
X166217334Y-79452001D01*
X166225149Y-79338394D01*
X166365459Y-79270933D01*
X166649753Y-79238116D01*
X167089518Y-79228440D01*
X167187846Y-79228268D01*
X168161512Y-79228268D01*
X168161512Y-79439935D01*
G37*
G36*
X166881928Y-62215831D02*
G01*
X166891512Y-62332614D01*
X166843230Y-62506398D01*
X166764512Y-62579553D01*
X166683293Y-62671142D01*
X166643913Y-62884194D01*
X166637512Y-63093632D01*
X166664917Y-63424032D01*
X166765432Y-63621043D01*
X166966509Y-63714340D01*
X167230179Y-63734268D01*
X167545664Y-63700519D01*
X167730156Y-63580641D01*
X167811686Y-63346689D01*
X167822846Y-63143424D01*
X167804554Y-62861382D01*
X167737645Y-62690875D01*
X167645803Y-62603865D01*
X167521752Y-62457425D01*
X167503932Y-62306541D01*
X167585124Y-62206531D01*
X167698915Y-62196743D01*
X167915577Y-62267870D01*
X168055301Y-62410604D01*
X168132207Y-62654036D01*
X168160413Y-63027259D01*
X168161512Y-63149923D01*
X168156228Y-63490902D01*
X168133622Y-63705305D01*
X168083560Y-63835733D01*
X167995911Y-63924790D01*
X167973340Y-63941134D01*
X167742926Y-64029294D01*
X167365592Y-64069695D01*
X167182129Y-64072935D01*
X166779089Y-64051470D01*
X166511636Y-63970008D01*
X166349555Y-63802948D01*
X166262629Y-63524689D01*
X166231754Y-63267717D01*
X166239686Y-62796784D01*
X166352458Y-62458271D01*
X166569930Y-62252534D01*
X166645508Y-62220168D01*
X166816628Y-62173334D01*
X166881928Y-62215831D01*
G37*
G36*
X167603131Y-65317326D02*
G01*
X167884389Y-65385093D01*
X168052875Y-65530294D01*
X168135968Y-65779320D01*
X168161046Y-66158563D01*
X168161512Y-66245057D01*
X168152767Y-66592025D01*
X168119945Y-66816424D01*
X168053164Y-66964426D01*
X167992179Y-67036268D01*
X167867967Y-67128364D01*
X167695261Y-67180529D01*
X167427891Y-67202645D01*
X167338970Y-67203803D01*
X167200968Y-67205601D01*
X166794756Y-67188252D01*
X166523641Y-67117949D01*
X166361231Y-66967316D01*
X166281135Y-66708973D01*
X166256961Y-66315541D01*
X166256824Y-66288223D01*
X166637512Y-66288223D01*
X166655541Y-66560956D01*
X166720426Y-66715726D01*
X166801279Y-66779289D01*
X167050619Y-66853008D01*
X167338970Y-66858005D01*
X167589972Y-66798181D01*
X167689798Y-66733887D01*
X167777535Y-66557386D01*
X167818523Y-66297553D01*
X167810326Y-66028001D01*
X167750511Y-65822337D01*
X167721246Y-65783201D01*
X167564968Y-65716147D01*
X167315042Y-65686171D01*
X167043041Y-65693275D01*
X166820540Y-65737459D01*
X166739112Y-65783202D01*
X166678524Y-65923908D01*
X166642177Y-66162965D01*
X166637512Y-66288223D01*
X166256824Y-66288223D01*
X166256512Y-66225811D01*
X166271445Y-65819240D01*
X166335351Y-65552121D01*
X166476890Y-65395792D01*
X166724721Y-65321595D01*
X167107503Y-65300870D01*
X167181722Y-65300601D01*
X167603131Y-65317326D01*
G37*
G36*
X166526045Y-76186336D02*
G01*
X166588258Y-76226262D01*
X166621538Y-76332632D01*
X166634936Y-76538031D01*
X166637502Y-76875045D01*
X166637512Y-76942268D01*
X166639488Y-77303098D01*
X166651094Y-77527155D01*
X166680844Y-77646996D01*
X166737254Y-77695177D01*
X166828840Y-77704256D01*
X166836819Y-77704268D01*
X166937257Y-77694424D01*
X166998019Y-77641558D01*
X167030646Y-77510670D01*
X167046682Y-77266760D01*
X167053234Y-77048101D01*
X167070204Y-76726620D01*
X167099586Y-76471376D01*
X167135605Y-76329351D01*
X167142884Y-76318879D01*
X167257721Y-76269365D01*
X167339111Y-76384325D01*
X167386463Y-76662116D01*
X167399512Y-77031932D01*
X167401809Y-77366354D01*
X167415977Y-77566121D01*
X167452933Y-77665910D01*
X167523594Y-77700395D01*
X167611179Y-77704268D01*
X167711378Y-77698201D01*
X167773592Y-77658275D01*
X167806872Y-77551905D01*
X167820269Y-77346506D01*
X167822835Y-77009492D01*
X167822846Y-76942268D01*
X167825675Y-76580233D01*
X167838938Y-76355271D01*
X167869797Y-76235152D01*
X167925413Y-76187647D01*
X167992179Y-76180268D01*
X168064935Y-76190594D01*
X168113225Y-76240672D01*
X168142033Y-76359148D01*
X168156340Y-76574672D01*
X168161130Y-76915892D01*
X168161512Y-77153935D01*
X168161512Y-78127601D01*
X166214179Y-78127601D01*
X166214179Y-76180268D01*
X166425846Y-76180268D01*
X166526045Y-76186336D01*
G37*
G36*
X168161512Y-68567345D02*
G01*
X168135386Y-68767218D01*
X168037576Y-68954168D01*
X167838937Y-69179466D01*
X167780512Y-69237601D01*
X167580002Y-69457249D01*
X167441983Y-69652152D01*
X167399512Y-69763230D01*
X167431340Y-69859265D01*
X167553780Y-69904445D01*
X167780512Y-69914935D01*
X168015619Y-69923708D01*
X168127011Y-69966831D01*
X168160057Y-70069510D01*
X168161512Y-70126601D01*
X168161512Y-70338268D01*
X166828012Y-70338268D01*
X166214179Y-70338268D01*
X166215427Y-69597435D01*
X166221975Y-69369598D01*
X166637512Y-69369598D01*
X166642001Y-69664381D01*
X166664359Y-69828069D01*
X166717923Y-69898840D01*
X166816029Y-69914869D01*
X166828012Y-69914932D01*
X166935097Y-69899567D01*
X166994798Y-69827088D01*
X167023521Y-69657910D01*
X167035650Y-69413955D01*
X167027318Y-69063350D01*
X166971042Y-68859199D01*
X166933525Y-68814002D01*
X166793578Y-68749319D01*
X166699985Y-68832147D01*
X166649357Y-69068846D01*
X166637512Y-69369598D01*
X166221975Y-69369598D01*
X166229013Y-69124712D01*
X166275812Y-68794866D01*
X166367679Y-68582790D01*
X166516471Y-68463382D01*
X166734044Y-68411535D01*
X166777252Y-68407742D01*
X167103321Y-68437618D01*
X167315648Y-68575686D01*
X167398878Y-68811327D01*
X167399512Y-68837944D01*
X167414511Y-68921339D01*
X167476009Y-68915971D01*
X167608757Y-68809301D01*
X167780512Y-68644935D01*
X168161512Y-68271012D01*
X168161512Y-68567345D01*
G37*
G36*
X166526045Y-55951002D02*
G01*
X166588258Y-55990928D01*
X166621538Y-56097298D01*
X166634936Y-56302697D01*
X166637502Y-56639711D01*
X166637512Y-56706935D01*
X166639488Y-57067765D01*
X166651094Y-57291822D01*
X166680844Y-57411662D01*
X166737254Y-57459844D01*
X166828840Y-57468922D01*
X166836819Y-57468935D01*
X166937580Y-57458987D01*
X166998403Y-57405719D01*
X167030976Y-57273998D01*
X167046985Y-57028688D01*
X167053355Y-56817971D01*
X167067263Y-56447110D01*
X167091090Y-56214247D01*
X167133745Y-56088046D01*
X167204137Y-56037175D01*
X167277509Y-56029601D01*
X167339019Y-56064338D01*
X167376655Y-56187345D01*
X167395195Y-56426818D01*
X167399512Y-56749268D01*
X167401456Y-57097764D01*
X167413859Y-57310454D01*
X167446584Y-57420861D01*
X167509490Y-57462513D01*
X167611179Y-57468935D01*
X167711378Y-57462867D01*
X167773592Y-57422941D01*
X167806872Y-57316571D01*
X167820269Y-57111172D01*
X167822835Y-56774158D01*
X167822846Y-56706935D01*
X167825675Y-56344900D01*
X167838938Y-56119937D01*
X167869797Y-55999819D01*
X167925413Y-55952314D01*
X167992179Y-55944935D01*
X168064935Y-55955261D01*
X168113225Y-56005338D01*
X168142033Y-56123815D01*
X168156340Y-56339339D01*
X168161130Y-56680558D01*
X168161512Y-56918601D01*
X168161512Y-57892268D01*
X166214179Y-57892268D01*
X166214179Y-55944935D01*
X166425846Y-55944935D01*
X166526045Y-55951002D01*
G37*
G36*
X168246179Y-49856012D02*
G01*
X168220052Y-50055885D01*
X168122242Y-50242834D01*
X167923604Y-50468133D01*
X167865179Y-50526268D01*
X167633652Y-50786790D01*
X167503634Y-51006036D01*
X167484179Y-51094230D01*
X167502966Y-51214377D01*
X167589184Y-51271293D01*
X167787618Y-51287786D01*
X167865179Y-51288268D01*
X168103274Y-51299348D01*
X168215862Y-51345353D01*
X168246033Y-51445437D01*
X168246179Y-51457601D01*
X168235853Y-51530357D01*
X168185775Y-51578648D01*
X168067299Y-51607456D01*
X167851775Y-51621763D01*
X167510555Y-51626552D01*
X167272512Y-51626935D01*
X166969483Y-51626935D01*
X166298846Y-51626935D01*
X166298846Y-50782220D01*
X166299086Y-50742606D01*
X166645958Y-50742606D01*
X166653108Y-50871726D01*
X166684297Y-51111762D01*
X166749667Y-51229964D01*
X166870346Y-51272990D01*
X166969483Y-51276921D01*
X167026474Y-51230221D01*
X167052941Y-51098021D01*
X167060507Y-50845451D01*
X167060846Y-50701490D01*
X167056293Y-50388013D01*
X167035912Y-50207785D01*
X166989620Y-50124820D01*
X166907333Y-50103131D01*
X166893125Y-50102935D01*
X166743507Y-50171829D01*
X166661799Y-50382872D01*
X166645958Y-50742606D01*
X166299086Y-50742606D01*
X166301187Y-50395275D01*
X166313418Y-50141320D01*
X166343344Y-49984025D01*
X166398775Y-49887060D01*
X166487519Y-49814093D01*
X166510139Y-49799061D01*
X166788790Y-49696146D01*
X167070547Y-49718390D01*
X167302464Y-49852282D01*
X167416406Y-50030335D01*
X167505679Y-50286424D01*
X168246179Y-49559678D01*
X168246179Y-49856012D01*
G37*
G36*
X167560637Y-41533525D02*
G01*
X167749153Y-41712158D01*
X167974523Y-41971131D01*
X168210426Y-42278739D01*
X168430536Y-42603279D01*
X168560046Y-42821601D01*
X168922814Y-43590630D01*
X169235261Y-44476832D01*
X169481772Y-45431639D01*
X169595411Y-46041610D01*
X169610826Y-46167628D01*
X169625388Y-46348905D01*
X169639157Y-46591179D01*
X169652192Y-46900190D01*
X169664553Y-47281677D01*
X169676297Y-47741380D01*
X169687485Y-48285036D01*
X169698175Y-48918387D01*
X169708427Y-49647171D01*
X169718299Y-50477127D01*
X169727850Y-51413995D01*
X169737140Y-52463514D01*
X169746227Y-53631423D01*
X169755171Y-54923461D01*
X169764031Y-56345368D01*
X169772865Y-57902883D01*
X169781733Y-59601746D01*
X169790694Y-61447694D01*
X169799806Y-63446469D01*
X169809130Y-65603808D01*
X169817519Y-67628935D01*
X169824830Y-69394385D01*
X169831783Y-70998279D01*
X169838485Y-72448394D01*
X169845047Y-73752506D01*
X169851576Y-74918392D01*
X169858181Y-75953829D01*
X169864970Y-76866593D01*
X169872052Y-77664462D01*
X169879536Y-78355211D01*
X169887530Y-78946618D01*
X169896142Y-79446459D01*
X169905482Y-79862511D01*
X169915658Y-80202550D01*
X169926777Y-80474354D01*
X169938950Y-80685698D01*
X169952284Y-80844360D01*
X169966889Y-80958116D01*
X169982871Y-81034744D01*
X170000341Y-81082019D01*
X170005438Y-81090935D01*
X170059955Y-81171338D01*
X170141941Y-81280932D01*
X170262409Y-81432996D01*
X170432375Y-81640806D01*
X170662852Y-81917640D01*
X170964855Y-82276774D01*
X171349399Y-82731485D01*
X171827499Y-83295051D01*
X172102595Y-83618886D01*
X172480971Y-84064046D01*
X172764827Y-84403669D01*
X172967711Y-84662584D01*
X173103170Y-84865619D01*
X173184752Y-85037604D01*
X173226002Y-85203367D01*
X173240470Y-85387738D01*
X173241701Y-85615545D01*
X173241512Y-85706240D01*
X173235020Y-86033264D01*
X173217765Y-86291942D01*
X173193084Y-86438149D01*
X173185068Y-86453157D01*
X173086391Y-86470910D01*
X172845818Y-86486373D01*
X172718394Y-86490762D01*
X172490779Y-86498603D01*
X172048705Y-86506660D01*
X171547028Y-86509601D01*
X169953517Y-86509601D01*
X169818807Y-86869435D01*
X169730462Y-87123146D01*
X169616951Y-87473365D01*
X169504362Y-87838450D01*
X169499633Y-87853784D01*
X169473483Y-87941534D01*
X169376069Y-88263560D01*
X169295265Y-88517007D01*
X169243635Y-88663038D01*
X169233634Y-88683035D01*
X169124680Y-88708860D01*
X168889362Y-88723779D01*
X168570235Y-88728725D01*
X168209855Y-88724629D01*
X167850776Y-88712420D01*
X167535554Y-88693031D01*
X167306743Y-88667392D01*
X167208784Y-88638740D01*
X167157392Y-88555410D01*
X167197685Y-88478038D01*
X167349755Y-88393934D01*
X167633691Y-88290409D01*
X167887410Y-88210092D01*
X168171173Y-88118306D01*
X168375735Y-88026698D01*
X168527796Y-87904485D01*
X168654059Y-87720882D01*
X168781222Y-87445106D01*
X168935988Y-87046375D01*
X168966083Y-86966489D01*
X169184272Y-86386815D01*
X169158486Y-82553778D01*
X170706309Y-82553778D01*
X170724078Y-82671653D01*
X170835107Y-82904833D01*
X171042570Y-83260143D01*
X171303554Y-83673268D01*
X171566883Y-84095790D01*
X171826997Y-84538853D01*
X172052240Y-84947099D01*
X172199258Y-85239601D01*
X172374331Y-85616384D01*
X172494025Y-85866925D01*
X172573981Y-86018704D01*
X172629836Y-86099199D01*
X172677231Y-86135892D01*
X172718394Y-86151784D01*
X172775805Y-86109986D01*
X172807464Y-85927783D01*
X172815964Y-85606490D01*
X172813750Y-85027935D01*
X171834744Y-83800268D01*
X171520944Y-83410300D01*
X171240411Y-83068341D01*
X171011114Y-82795761D01*
X170851023Y-82613928D01*
X170778625Y-82544379D01*
X170706309Y-82553778D01*
X169158486Y-82553778D01*
X169098821Y-73684708D01*
X169088522Y-72184737D01*
X169077942Y-70702217D01*
X169067182Y-69248895D01*
X169056345Y-67836519D01*
X169045534Y-66476839D01*
X169034852Y-65181602D01*
X169024401Y-63962556D01*
X169014284Y-62831450D01*
X169004603Y-61800032D01*
X168995462Y-60880049D01*
X168986962Y-60083250D01*
X168979207Y-59421384D01*
X168972299Y-58906198D01*
X168966737Y-58569601D01*
X168955143Y-57873437D01*
X168944530Y-57051659D01*
X168935273Y-56147986D01*
X168927749Y-55206138D01*
X168922334Y-54269832D01*
X168920423Y-53690975D01*
X169242053Y-53690975D01*
X169242278Y-54585847D01*
X169243454Y-55575404D01*
X169245526Y-56648983D01*
X169248443Y-57795919D01*
X169252149Y-59005551D01*
X169256593Y-60267214D01*
X169261721Y-61570245D01*
X169267479Y-62903980D01*
X169273815Y-64257757D01*
X169280675Y-65620913D01*
X169288005Y-66982782D01*
X169295754Y-68332704D01*
X169303867Y-69660013D01*
X169312291Y-70954047D01*
X169320973Y-72204143D01*
X169329860Y-73399636D01*
X169338899Y-74529864D01*
X169348036Y-75584164D01*
X169357217Y-76551871D01*
X169366391Y-77422324D01*
X169375503Y-78184857D01*
X169384500Y-78828809D01*
X169393330Y-79343515D01*
X169401938Y-79718312D01*
X169408416Y-79905601D01*
X169434442Y-80401616D01*
X169459480Y-80736084D01*
X169482972Y-80916793D01*
X169504362Y-80951530D01*
X169523092Y-80848080D01*
X169538608Y-80614232D01*
X169550350Y-80257772D01*
X169557764Y-79786486D01*
X169560292Y-79208162D01*
X169557377Y-78530586D01*
X169550666Y-77915935D01*
X169545600Y-77486954D01*
X169539925Y-76903873D01*
X169533742Y-76181920D01*
X169527153Y-75336328D01*
X169520259Y-74382326D01*
X169513161Y-73335146D01*
X169505961Y-72210017D01*
X169498758Y-71022171D01*
X169491656Y-69786839D01*
X169484754Y-68519250D01*
X169478154Y-67234635D01*
X169473889Y-66358935D01*
X169462931Y-64206217D01*
X169451300Y-62211358D01*
X169439008Y-60375242D01*
X169426067Y-58698751D01*
X169412488Y-57182767D01*
X169398284Y-55828173D01*
X169383467Y-54635852D01*
X169368048Y-53606688D01*
X169352041Y-52741561D01*
X169335456Y-52041356D01*
X169318306Y-51506955D01*
X169300602Y-51139240D01*
X169282358Y-50939095D01*
X169263633Y-50907268D01*
X169257039Y-51010102D01*
X169251716Y-51271600D01*
X169247609Y-51681100D01*
X169244665Y-52227938D01*
X169242830Y-52901450D01*
X169242053Y-53690975D01*
X168920423Y-53690975D01*
X168919405Y-53382789D01*
X168919002Y-53023935D01*
X168914390Y-51638163D01*
X168900848Y-50406793D01*
X168877262Y-49315075D01*
X168842521Y-48348258D01*
X168795512Y-47491593D01*
X168735124Y-46730327D01*
X168660244Y-46049711D01*
X168569760Y-45434995D01*
X168462560Y-44871427D01*
X168337532Y-44344258D01*
X168237455Y-43984400D01*
X168093337Y-43519167D01*
X167936811Y-43053507D01*
X167779275Y-42617313D01*
X167632128Y-42240482D01*
X167506765Y-41952908D01*
X167414585Y-41784488D01*
X167387928Y-41756109D01*
X167317601Y-41643686D01*
X167343291Y-41517968D01*
X167435299Y-41466935D01*
X167560637Y-41533525D01*
G37*
%TO.C,J3*%
X57090000Y-26730000D02*
X57090000Y-25400000D01*
X58420000Y-26730000D02*
X57090000Y-26730000D01*
X59690000Y-26730000D02*
X64830000Y-26730000D01*
X59690000Y-26730000D02*
X59690000Y-24070000D01*
X64830000Y-26730000D02*
X64830000Y-24070000D01*
X59690000Y-24070000D02*
X64830000Y-24070000D01*
%TD*%
M02*
