%TF.GenerationSoftware,KiCad,Pcbnew,7.0.6*%
%TF.CreationDate,2023-08-10T16:59:27-04:00*%
%TF.ProjectId,rrc_pcb3,7272635f-7063-4623-932e-6b696361645f,rev?*%
%TF.SameCoordinates,Original*%
%TF.FileFunction,AssemblyDrawing,Top*%
%FSLAX46Y46*%
G04 Gerber Fmt 4.6, Leading zero omitted, Abs format (unit mm)*
G04 Created by KiCad (PCBNEW 7.0.6) date 2023-08-10 16:59:27*
%MOMM*%
%LPD*%
G01*
G04 APERTURE LIST*
%ADD10C,0.100000*%
%ADD11C,0.150000*%
%ADD12C,0.300000*%
%ADD13C,0.400000*%
%TA.AperFunction,Profile*%
%ADD14C,0.050000*%
%TD*%
G04 APERTURE END LIST*
D10*
D11*
X177002200Y-166007200D02*
X285002200Y-166007200D01*
X285002200Y-198007200D01*
X177002200Y-198007200D01*
X177002200Y-166007200D01*
D10*
D11*
X10000000Y-10000000D02*
X287002200Y-10000000D01*
X287002200Y-200007200D01*
X10000000Y-200007200D01*
X10000000Y-10000000D01*
D10*
D11*
X12000000Y-12000000D02*
X285002200Y-12000000D01*
X285002200Y-198007200D01*
X12000000Y-198007200D01*
X12000000Y-12000000D01*
D10*
D11*
X60000000Y-12000000D02*
X60000000Y-10000000D01*
D10*
D11*
X110000000Y-12000000D02*
X110000000Y-10000000D01*
D10*
D11*
X160000000Y-12000000D02*
X160000000Y-10000000D01*
D10*
D11*
X210000000Y-12000000D02*
X210000000Y-10000000D01*
D10*
D11*
X260000000Y-12000000D02*
X260000000Y-10000000D01*
D10*
D11*
X36089160Y-11593604D02*
X35346303Y-11593604D01*
X35717731Y-11593604D02*
X35717731Y-10293604D01*
X35717731Y-10293604D02*
X35593922Y-10479319D01*
X35593922Y-10479319D02*
X35470112Y-10603128D01*
X35470112Y-10603128D02*
X35346303Y-10665033D01*
D10*
D11*
X85346303Y-10417414D02*
X85408207Y-10355509D01*
X85408207Y-10355509D02*
X85532017Y-10293604D01*
X85532017Y-10293604D02*
X85841541Y-10293604D01*
X85841541Y-10293604D02*
X85965350Y-10355509D01*
X85965350Y-10355509D02*
X86027255Y-10417414D01*
X86027255Y-10417414D02*
X86089160Y-10541223D01*
X86089160Y-10541223D02*
X86089160Y-10665033D01*
X86089160Y-10665033D02*
X86027255Y-10850747D01*
X86027255Y-10850747D02*
X85284398Y-11593604D01*
X85284398Y-11593604D02*
X86089160Y-11593604D01*
D10*
D11*
X135284398Y-10293604D02*
X136089160Y-10293604D01*
X136089160Y-10293604D02*
X135655826Y-10788842D01*
X135655826Y-10788842D02*
X135841541Y-10788842D01*
X135841541Y-10788842D02*
X135965350Y-10850747D01*
X135965350Y-10850747D02*
X136027255Y-10912652D01*
X136027255Y-10912652D02*
X136089160Y-11036461D01*
X136089160Y-11036461D02*
X136089160Y-11345985D01*
X136089160Y-11345985D02*
X136027255Y-11469795D01*
X136027255Y-11469795D02*
X135965350Y-11531700D01*
X135965350Y-11531700D02*
X135841541Y-11593604D01*
X135841541Y-11593604D02*
X135470112Y-11593604D01*
X135470112Y-11593604D02*
X135346303Y-11531700D01*
X135346303Y-11531700D02*
X135284398Y-11469795D01*
D10*
D11*
X185965350Y-10726938D02*
X185965350Y-11593604D01*
X185655826Y-10231700D02*
X185346303Y-11160271D01*
X185346303Y-11160271D02*
X186151064Y-11160271D01*
D10*
D11*
X236027255Y-10293604D02*
X235408207Y-10293604D01*
X235408207Y-10293604D02*
X235346303Y-10912652D01*
X235346303Y-10912652D02*
X235408207Y-10850747D01*
X235408207Y-10850747D02*
X235532017Y-10788842D01*
X235532017Y-10788842D02*
X235841541Y-10788842D01*
X235841541Y-10788842D02*
X235965350Y-10850747D01*
X235965350Y-10850747D02*
X236027255Y-10912652D01*
X236027255Y-10912652D02*
X236089160Y-11036461D01*
X236089160Y-11036461D02*
X236089160Y-11345985D01*
X236089160Y-11345985D02*
X236027255Y-11469795D01*
X236027255Y-11469795D02*
X235965350Y-11531700D01*
X235965350Y-11531700D02*
X235841541Y-11593604D01*
X235841541Y-11593604D02*
X235532017Y-11593604D01*
X235532017Y-11593604D02*
X235408207Y-11531700D01*
X235408207Y-11531700D02*
X235346303Y-11469795D01*
D10*
D11*
X285965350Y-10293604D02*
X285717731Y-10293604D01*
X285717731Y-10293604D02*
X285593922Y-10355509D01*
X285593922Y-10355509D02*
X285532017Y-10417414D01*
X285532017Y-10417414D02*
X285408207Y-10603128D01*
X285408207Y-10603128D02*
X285346303Y-10850747D01*
X285346303Y-10850747D02*
X285346303Y-11345985D01*
X285346303Y-11345985D02*
X285408207Y-11469795D01*
X285408207Y-11469795D02*
X285470112Y-11531700D01*
X285470112Y-11531700D02*
X285593922Y-11593604D01*
X285593922Y-11593604D02*
X285841541Y-11593604D01*
X285841541Y-11593604D02*
X285965350Y-11531700D01*
X285965350Y-11531700D02*
X286027255Y-11469795D01*
X286027255Y-11469795D02*
X286089160Y-11345985D01*
X286089160Y-11345985D02*
X286089160Y-11036461D01*
X286089160Y-11036461D02*
X286027255Y-10912652D01*
X286027255Y-10912652D02*
X285965350Y-10850747D01*
X285965350Y-10850747D02*
X285841541Y-10788842D01*
X285841541Y-10788842D02*
X285593922Y-10788842D01*
X285593922Y-10788842D02*
X285470112Y-10850747D01*
X285470112Y-10850747D02*
X285408207Y-10912652D01*
X285408207Y-10912652D02*
X285346303Y-11036461D01*
D10*
D11*
X60000000Y-198007200D02*
X60000000Y-200007200D01*
D10*
D11*
X110000000Y-198007200D02*
X110000000Y-200007200D01*
D10*
D11*
X160000000Y-198007200D02*
X160000000Y-200007200D01*
D10*
D11*
X210000000Y-198007200D02*
X210000000Y-200007200D01*
D10*
D11*
X260000000Y-198007200D02*
X260000000Y-200007200D01*
D10*
D11*
X36089160Y-199600804D02*
X35346303Y-199600804D01*
X35717731Y-199600804D02*
X35717731Y-198300804D01*
X35717731Y-198300804D02*
X35593922Y-198486519D01*
X35593922Y-198486519D02*
X35470112Y-198610328D01*
X35470112Y-198610328D02*
X35346303Y-198672233D01*
D10*
D11*
X85346303Y-198424614D02*
X85408207Y-198362709D01*
X85408207Y-198362709D02*
X85532017Y-198300804D01*
X85532017Y-198300804D02*
X85841541Y-198300804D01*
X85841541Y-198300804D02*
X85965350Y-198362709D01*
X85965350Y-198362709D02*
X86027255Y-198424614D01*
X86027255Y-198424614D02*
X86089160Y-198548423D01*
X86089160Y-198548423D02*
X86089160Y-198672233D01*
X86089160Y-198672233D02*
X86027255Y-198857947D01*
X86027255Y-198857947D02*
X85284398Y-199600804D01*
X85284398Y-199600804D02*
X86089160Y-199600804D01*
D10*
D11*
X135284398Y-198300804D02*
X136089160Y-198300804D01*
X136089160Y-198300804D02*
X135655826Y-198796042D01*
X135655826Y-198796042D02*
X135841541Y-198796042D01*
X135841541Y-198796042D02*
X135965350Y-198857947D01*
X135965350Y-198857947D02*
X136027255Y-198919852D01*
X136027255Y-198919852D02*
X136089160Y-199043661D01*
X136089160Y-199043661D02*
X136089160Y-199353185D01*
X136089160Y-199353185D02*
X136027255Y-199476995D01*
X136027255Y-199476995D02*
X135965350Y-199538900D01*
X135965350Y-199538900D02*
X135841541Y-199600804D01*
X135841541Y-199600804D02*
X135470112Y-199600804D01*
X135470112Y-199600804D02*
X135346303Y-199538900D01*
X135346303Y-199538900D02*
X135284398Y-199476995D01*
D10*
D11*
X185965350Y-198734138D02*
X185965350Y-199600804D01*
X185655826Y-198238900D02*
X185346303Y-199167471D01*
X185346303Y-199167471D02*
X186151064Y-199167471D01*
D10*
D11*
X236027255Y-198300804D02*
X235408207Y-198300804D01*
X235408207Y-198300804D02*
X235346303Y-198919852D01*
X235346303Y-198919852D02*
X235408207Y-198857947D01*
X235408207Y-198857947D02*
X235532017Y-198796042D01*
X235532017Y-198796042D02*
X235841541Y-198796042D01*
X235841541Y-198796042D02*
X235965350Y-198857947D01*
X235965350Y-198857947D02*
X236027255Y-198919852D01*
X236027255Y-198919852D02*
X236089160Y-199043661D01*
X236089160Y-199043661D02*
X236089160Y-199353185D01*
X236089160Y-199353185D02*
X236027255Y-199476995D01*
X236027255Y-199476995D02*
X235965350Y-199538900D01*
X235965350Y-199538900D02*
X235841541Y-199600804D01*
X235841541Y-199600804D02*
X235532017Y-199600804D01*
X235532017Y-199600804D02*
X235408207Y-199538900D01*
X235408207Y-199538900D02*
X235346303Y-199476995D01*
D10*
D11*
X285965350Y-198300804D02*
X285717731Y-198300804D01*
X285717731Y-198300804D02*
X285593922Y-198362709D01*
X285593922Y-198362709D02*
X285532017Y-198424614D01*
X285532017Y-198424614D02*
X285408207Y-198610328D01*
X285408207Y-198610328D02*
X285346303Y-198857947D01*
X285346303Y-198857947D02*
X285346303Y-199353185D01*
X285346303Y-199353185D02*
X285408207Y-199476995D01*
X285408207Y-199476995D02*
X285470112Y-199538900D01*
X285470112Y-199538900D02*
X285593922Y-199600804D01*
X285593922Y-199600804D02*
X285841541Y-199600804D01*
X285841541Y-199600804D02*
X285965350Y-199538900D01*
X285965350Y-199538900D02*
X286027255Y-199476995D01*
X286027255Y-199476995D02*
X286089160Y-199353185D01*
X286089160Y-199353185D02*
X286089160Y-199043661D01*
X286089160Y-199043661D02*
X286027255Y-198919852D01*
X286027255Y-198919852D02*
X285965350Y-198857947D01*
X285965350Y-198857947D02*
X285841541Y-198796042D01*
X285841541Y-198796042D02*
X285593922Y-198796042D01*
X285593922Y-198796042D02*
X285470112Y-198857947D01*
X285470112Y-198857947D02*
X285408207Y-198919852D01*
X285408207Y-198919852D02*
X285346303Y-199043661D01*
D10*
D11*
X10000000Y-60000000D02*
X12000000Y-60000000D01*
D10*
D11*
X10000000Y-110000000D02*
X12000000Y-110000000D01*
D10*
D11*
X10000000Y-160000000D02*
X12000000Y-160000000D01*
D10*
D11*
X10690476Y-35222176D02*
X11309523Y-35222176D01*
X10566666Y-35593604D02*
X10999999Y-34293604D01*
X10999999Y-34293604D02*
X11433333Y-35593604D01*
D10*
D11*
X11092857Y-84912652D02*
X11278571Y-84974557D01*
X11278571Y-84974557D02*
X11340476Y-85036461D01*
X11340476Y-85036461D02*
X11402380Y-85160271D01*
X11402380Y-85160271D02*
X11402380Y-85345985D01*
X11402380Y-85345985D02*
X11340476Y-85469795D01*
X11340476Y-85469795D02*
X11278571Y-85531700D01*
X11278571Y-85531700D02*
X11154761Y-85593604D01*
X11154761Y-85593604D02*
X10659523Y-85593604D01*
X10659523Y-85593604D02*
X10659523Y-84293604D01*
X10659523Y-84293604D02*
X11092857Y-84293604D01*
X11092857Y-84293604D02*
X11216666Y-84355509D01*
X11216666Y-84355509D02*
X11278571Y-84417414D01*
X11278571Y-84417414D02*
X11340476Y-84541223D01*
X11340476Y-84541223D02*
X11340476Y-84665033D01*
X11340476Y-84665033D02*
X11278571Y-84788842D01*
X11278571Y-84788842D02*
X11216666Y-84850747D01*
X11216666Y-84850747D02*
X11092857Y-84912652D01*
X11092857Y-84912652D02*
X10659523Y-84912652D01*
D10*
D11*
X11402380Y-135469795D02*
X11340476Y-135531700D01*
X11340476Y-135531700D02*
X11154761Y-135593604D01*
X11154761Y-135593604D02*
X11030952Y-135593604D01*
X11030952Y-135593604D02*
X10845238Y-135531700D01*
X10845238Y-135531700D02*
X10721428Y-135407890D01*
X10721428Y-135407890D02*
X10659523Y-135284080D01*
X10659523Y-135284080D02*
X10597619Y-135036461D01*
X10597619Y-135036461D02*
X10597619Y-134850747D01*
X10597619Y-134850747D02*
X10659523Y-134603128D01*
X10659523Y-134603128D02*
X10721428Y-134479319D01*
X10721428Y-134479319D02*
X10845238Y-134355509D01*
X10845238Y-134355509D02*
X11030952Y-134293604D01*
X11030952Y-134293604D02*
X11154761Y-134293604D01*
X11154761Y-134293604D02*
X11340476Y-134355509D01*
X11340476Y-134355509D02*
X11402380Y-134417414D01*
D10*
D11*
X10659523Y-185593604D02*
X10659523Y-184293604D01*
X10659523Y-184293604D02*
X10969047Y-184293604D01*
X10969047Y-184293604D02*
X11154761Y-184355509D01*
X11154761Y-184355509D02*
X11278571Y-184479319D01*
X11278571Y-184479319D02*
X11340476Y-184603128D01*
X11340476Y-184603128D02*
X11402380Y-184850747D01*
X11402380Y-184850747D02*
X11402380Y-185036461D01*
X11402380Y-185036461D02*
X11340476Y-185284080D01*
X11340476Y-185284080D02*
X11278571Y-185407890D01*
X11278571Y-185407890D02*
X11154761Y-185531700D01*
X11154761Y-185531700D02*
X10969047Y-185593604D01*
X10969047Y-185593604D02*
X10659523Y-185593604D01*
D10*
D11*
X287002200Y-60000000D02*
X285002200Y-60000000D01*
D10*
D11*
X287002200Y-110000000D02*
X285002200Y-110000000D01*
D10*
D11*
X287002200Y-160000000D02*
X285002200Y-160000000D01*
D10*
D11*
X285692676Y-35222176D02*
X286311723Y-35222176D01*
X285568866Y-35593604D02*
X286002199Y-34293604D01*
X286002199Y-34293604D02*
X286435533Y-35593604D01*
D10*
D11*
X286095057Y-84912652D02*
X286280771Y-84974557D01*
X286280771Y-84974557D02*
X286342676Y-85036461D01*
X286342676Y-85036461D02*
X286404580Y-85160271D01*
X286404580Y-85160271D02*
X286404580Y-85345985D01*
X286404580Y-85345985D02*
X286342676Y-85469795D01*
X286342676Y-85469795D02*
X286280771Y-85531700D01*
X286280771Y-85531700D02*
X286156961Y-85593604D01*
X286156961Y-85593604D02*
X285661723Y-85593604D01*
X285661723Y-85593604D02*
X285661723Y-84293604D01*
X285661723Y-84293604D02*
X286095057Y-84293604D01*
X286095057Y-84293604D02*
X286218866Y-84355509D01*
X286218866Y-84355509D02*
X286280771Y-84417414D01*
X286280771Y-84417414D02*
X286342676Y-84541223D01*
X286342676Y-84541223D02*
X286342676Y-84665033D01*
X286342676Y-84665033D02*
X286280771Y-84788842D01*
X286280771Y-84788842D02*
X286218866Y-84850747D01*
X286218866Y-84850747D02*
X286095057Y-84912652D01*
X286095057Y-84912652D02*
X285661723Y-84912652D01*
D10*
D11*
X286404580Y-135469795D02*
X286342676Y-135531700D01*
X286342676Y-135531700D02*
X286156961Y-135593604D01*
X286156961Y-135593604D02*
X286033152Y-135593604D01*
X286033152Y-135593604D02*
X285847438Y-135531700D01*
X285847438Y-135531700D02*
X285723628Y-135407890D01*
X285723628Y-135407890D02*
X285661723Y-135284080D01*
X285661723Y-135284080D02*
X285599819Y-135036461D01*
X285599819Y-135036461D02*
X285599819Y-134850747D01*
X285599819Y-134850747D02*
X285661723Y-134603128D01*
X285661723Y-134603128D02*
X285723628Y-134479319D01*
X285723628Y-134479319D02*
X285847438Y-134355509D01*
X285847438Y-134355509D02*
X286033152Y-134293604D01*
X286033152Y-134293604D02*
X286156961Y-134293604D01*
X286156961Y-134293604D02*
X286342676Y-134355509D01*
X286342676Y-134355509D02*
X286404580Y-134417414D01*
D10*
D11*
X285661723Y-185593604D02*
X285661723Y-184293604D01*
X285661723Y-184293604D02*
X285971247Y-184293604D01*
X285971247Y-184293604D02*
X286156961Y-184355509D01*
X286156961Y-184355509D02*
X286280771Y-184479319D01*
X286280771Y-184479319D02*
X286342676Y-184603128D01*
X286342676Y-184603128D02*
X286404580Y-184850747D01*
X286404580Y-184850747D02*
X286404580Y-185036461D01*
X286404580Y-185036461D02*
X286342676Y-185284080D01*
X286342676Y-185284080D02*
X286280771Y-185407890D01*
X286280771Y-185407890D02*
X286156961Y-185531700D01*
X286156961Y-185531700D02*
X285971247Y-185593604D01*
X285971247Y-185593604D02*
X285661723Y-185593604D01*
D10*
D11*
X200458026Y-193793328D02*
X200458026Y-192293328D01*
X200458026Y-192293328D02*
X200815169Y-192293328D01*
X200815169Y-192293328D02*
X201029455Y-192364757D01*
X201029455Y-192364757D02*
X201172312Y-192507614D01*
X201172312Y-192507614D02*
X201243741Y-192650471D01*
X201243741Y-192650471D02*
X201315169Y-192936185D01*
X201315169Y-192936185D02*
X201315169Y-193150471D01*
X201315169Y-193150471D02*
X201243741Y-193436185D01*
X201243741Y-193436185D02*
X201172312Y-193579042D01*
X201172312Y-193579042D02*
X201029455Y-193721900D01*
X201029455Y-193721900D02*
X200815169Y-193793328D01*
X200815169Y-193793328D02*
X200458026Y-193793328D01*
X202600884Y-193793328D02*
X202600884Y-193007614D01*
X202600884Y-193007614D02*
X202529455Y-192864757D01*
X202529455Y-192864757D02*
X202386598Y-192793328D01*
X202386598Y-192793328D02*
X202100884Y-192793328D01*
X202100884Y-192793328D02*
X201958026Y-192864757D01*
X202600884Y-193721900D02*
X202458026Y-193793328D01*
X202458026Y-193793328D02*
X202100884Y-193793328D01*
X202100884Y-193793328D02*
X201958026Y-193721900D01*
X201958026Y-193721900D02*
X201886598Y-193579042D01*
X201886598Y-193579042D02*
X201886598Y-193436185D01*
X201886598Y-193436185D02*
X201958026Y-193293328D01*
X201958026Y-193293328D02*
X202100884Y-193221900D01*
X202100884Y-193221900D02*
X202458026Y-193221900D01*
X202458026Y-193221900D02*
X202600884Y-193150471D01*
X203100884Y-192793328D02*
X203672312Y-192793328D01*
X203315169Y-192293328D02*
X203315169Y-193579042D01*
X203315169Y-193579042D02*
X203386598Y-193721900D01*
X203386598Y-193721900D02*
X203529455Y-193793328D01*
X203529455Y-193793328D02*
X203672312Y-193793328D01*
X204743741Y-193721900D02*
X204600884Y-193793328D01*
X204600884Y-193793328D02*
X204315170Y-193793328D01*
X204315170Y-193793328D02*
X204172312Y-193721900D01*
X204172312Y-193721900D02*
X204100884Y-193579042D01*
X204100884Y-193579042D02*
X204100884Y-193007614D01*
X204100884Y-193007614D02*
X204172312Y-192864757D01*
X204172312Y-192864757D02*
X204315170Y-192793328D01*
X204315170Y-192793328D02*
X204600884Y-192793328D01*
X204600884Y-192793328D02*
X204743741Y-192864757D01*
X204743741Y-192864757D02*
X204815170Y-193007614D01*
X204815170Y-193007614D02*
X204815170Y-193150471D01*
X204815170Y-193150471D02*
X204100884Y-193293328D01*
X205458026Y-193650471D02*
X205529455Y-193721900D01*
X205529455Y-193721900D02*
X205458026Y-193793328D01*
X205458026Y-193793328D02*
X205386598Y-193721900D01*
X205386598Y-193721900D02*
X205458026Y-193650471D01*
X205458026Y-193650471D02*
X205458026Y-193793328D01*
X205458026Y-192864757D02*
X205529455Y-192936185D01*
X205529455Y-192936185D02*
X205458026Y-193007614D01*
X205458026Y-193007614D02*
X205386598Y-192936185D01*
X205386598Y-192936185D02*
X205458026Y-192864757D01*
X205458026Y-192864757D02*
X205458026Y-193007614D01*
D10*
D11*
X177002200Y-194507200D02*
X285002200Y-194507200D01*
D10*
D11*
X178458026Y-196593328D02*
X178458026Y-195093328D01*
X179315169Y-196593328D02*
X178672312Y-195736185D01*
X179315169Y-195093328D02*
X178458026Y-195950471D01*
X179958026Y-196593328D02*
X179958026Y-195593328D01*
X179958026Y-195093328D02*
X179886598Y-195164757D01*
X179886598Y-195164757D02*
X179958026Y-195236185D01*
X179958026Y-195236185D02*
X180029455Y-195164757D01*
X180029455Y-195164757D02*
X179958026Y-195093328D01*
X179958026Y-195093328D02*
X179958026Y-195236185D01*
X181529455Y-196450471D02*
X181458027Y-196521900D01*
X181458027Y-196521900D02*
X181243741Y-196593328D01*
X181243741Y-196593328D02*
X181100884Y-196593328D01*
X181100884Y-196593328D02*
X180886598Y-196521900D01*
X180886598Y-196521900D02*
X180743741Y-196379042D01*
X180743741Y-196379042D02*
X180672312Y-196236185D01*
X180672312Y-196236185D02*
X180600884Y-195950471D01*
X180600884Y-195950471D02*
X180600884Y-195736185D01*
X180600884Y-195736185D02*
X180672312Y-195450471D01*
X180672312Y-195450471D02*
X180743741Y-195307614D01*
X180743741Y-195307614D02*
X180886598Y-195164757D01*
X180886598Y-195164757D02*
X181100884Y-195093328D01*
X181100884Y-195093328D02*
X181243741Y-195093328D01*
X181243741Y-195093328D02*
X181458027Y-195164757D01*
X181458027Y-195164757D02*
X181529455Y-195236185D01*
X182815170Y-196593328D02*
X182815170Y-195807614D01*
X182815170Y-195807614D02*
X182743741Y-195664757D01*
X182743741Y-195664757D02*
X182600884Y-195593328D01*
X182600884Y-195593328D02*
X182315170Y-195593328D01*
X182315170Y-195593328D02*
X182172312Y-195664757D01*
X182815170Y-196521900D02*
X182672312Y-196593328D01*
X182672312Y-196593328D02*
X182315170Y-196593328D01*
X182315170Y-196593328D02*
X182172312Y-196521900D01*
X182172312Y-196521900D02*
X182100884Y-196379042D01*
X182100884Y-196379042D02*
X182100884Y-196236185D01*
X182100884Y-196236185D02*
X182172312Y-196093328D01*
X182172312Y-196093328D02*
X182315170Y-196021900D01*
X182315170Y-196021900D02*
X182672312Y-196021900D01*
X182672312Y-196021900D02*
X182815170Y-195950471D01*
X184172313Y-196593328D02*
X184172313Y-195093328D01*
X184172313Y-196521900D02*
X184029455Y-196593328D01*
X184029455Y-196593328D02*
X183743741Y-196593328D01*
X183743741Y-196593328D02*
X183600884Y-196521900D01*
X183600884Y-196521900D02*
X183529455Y-196450471D01*
X183529455Y-196450471D02*
X183458027Y-196307614D01*
X183458027Y-196307614D02*
X183458027Y-195879042D01*
X183458027Y-195879042D02*
X183529455Y-195736185D01*
X183529455Y-195736185D02*
X183600884Y-195664757D01*
X183600884Y-195664757D02*
X183743741Y-195593328D01*
X183743741Y-195593328D02*
X184029455Y-195593328D01*
X184029455Y-195593328D02*
X184172313Y-195664757D01*
X186029455Y-195807614D02*
X186529455Y-195807614D01*
X186743741Y-196593328D02*
X186029455Y-196593328D01*
X186029455Y-196593328D02*
X186029455Y-195093328D01*
X186029455Y-195093328D02*
X186743741Y-195093328D01*
X187386598Y-196450471D02*
X187458027Y-196521900D01*
X187458027Y-196521900D02*
X187386598Y-196593328D01*
X187386598Y-196593328D02*
X187315170Y-196521900D01*
X187315170Y-196521900D02*
X187386598Y-196450471D01*
X187386598Y-196450471D02*
X187386598Y-196593328D01*
X188100884Y-196593328D02*
X188100884Y-195093328D01*
X188100884Y-195093328D02*
X188458027Y-195093328D01*
X188458027Y-195093328D02*
X188672313Y-195164757D01*
X188672313Y-195164757D02*
X188815170Y-195307614D01*
X188815170Y-195307614D02*
X188886599Y-195450471D01*
X188886599Y-195450471D02*
X188958027Y-195736185D01*
X188958027Y-195736185D02*
X188958027Y-195950471D01*
X188958027Y-195950471D02*
X188886599Y-196236185D01*
X188886599Y-196236185D02*
X188815170Y-196379042D01*
X188815170Y-196379042D02*
X188672313Y-196521900D01*
X188672313Y-196521900D02*
X188458027Y-196593328D01*
X188458027Y-196593328D02*
X188100884Y-196593328D01*
X189600884Y-196450471D02*
X189672313Y-196521900D01*
X189672313Y-196521900D02*
X189600884Y-196593328D01*
X189600884Y-196593328D02*
X189529456Y-196521900D01*
X189529456Y-196521900D02*
X189600884Y-196450471D01*
X189600884Y-196450471D02*
X189600884Y-196593328D01*
X190243742Y-196164757D02*
X190958028Y-196164757D01*
X190100885Y-196593328D02*
X190600885Y-195093328D01*
X190600885Y-195093328D02*
X191100885Y-196593328D01*
X191600884Y-196450471D02*
X191672313Y-196521900D01*
X191672313Y-196521900D02*
X191600884Y-196593328D01*
X191600884Y-196593328D02*
X191529456Y-196521900D01*
X191529456Y-196521900D02*
X191600884Y-196450471D01*
X191600884Y-196450471D02*
X191600884Y-196593328D01*
X194600884Y-195593328D02*
X194600884Y-197093328D01*
X194600884Y-195664757D02*
X194743742Y-195593328D01*
X194743742Y-195593328D02*
X195029456Y-195593328D01*
X195029456Y-195593328D02*
X195172313Y-195664757D01*
X195172313Y-195664757D02*
X195243742Y-195736185D01*
X195243742Y-195736185D02*
X195315170Y-195879042D01*
X195315170Y-195879042D02*
X195315170Y-196307614D01*
X195315170Y-196307614D02*
X195243742Y-196450471D01*
X195243742Y-196450471D02*
X195172313Y-196521900D01*
X195172313Y-196521900D02*
X195029456Y-196593328D01*
X195029456Y-196593328D02*
X194743742Y-196593328D01*
X194743742Y-196593328D02*
X194600884Y-196521900D01*
X196600885Y-196521900D02*
X196458027Y-196593328D01*
X196458027Y-196593328D02*
X196172313Y-196593328D01*
X196172313Y-196593328D02*
X196029456Y-196521900D01*
X196029456Y-196521900D02*
X195958027Y-196450471D01*
X195958027Y-196450471D02*
X195886599Y-196307614D01*
X195886599Y-196307614D02*
X195886599Y-195879042D01*
X195886599Y-195879042D02*
X195958027Y-195736185D01*
X195958027Y-195736185D02*
X196029456Y-195664757D01*
X196029456Y-195664757D02*
X196172313Y-195593328D01*
X196172313Y-195593328D02*
X196458027Y-195593328D01*
X196458027Y-195593328D02*
X196600885Y-195664757D01*
X197243741Y-196593328D02*
X197243741Y-195093328D01*
X197243741Y-195664757D02*
X197386599Y-195593328D01*
X197386599Y-195593328D02*
X197672313Y-195593328D01*
X197672313Y-195593328D02*
X197815170Y-195664757D01*
X197815170Y-195664757D02*
X197886599Y-195736185D01*
X197886599Y-195736185D02*
X197958027Y-195879042D01*
X197958027Y-195879042D02*
X197958027Y-196307614D01*
X197958027Y-196307614D02*
X197886599Y-196450471D01*
X197886599Y-196450471D02*
X197815170Y-196521900D01*
X197815170Y-196521900D02*
X197672313Y-196593328D01*
X197672313Y-196593328D02*
X197386599Y-196593328D01*
X197386599Y-196593328D02*
X197243741Y-196521900D01*
X198600884Y-195593328D02*
X198600884Y-196593328D01*
X198600884Y-195736185D02*
X198672313Y-195664757D01*
X198672313Y-195664757D02*
X198815170Y-195593328D01*
X198815170Y-195593328D02*
X199029456Y-195593328D01*
X199029456Y-195593328D02*
X199172313Y-195664757D01*
X199172313Y-195664757D02*
X199243742Y-195807614D01*
X199243742Y-195807614D02*
X199243742Y-196593328D01*
X200529456Y-196521900D02*
X200386599Y-196593328D01*
X200386599Y-196593328D02*
X200100885Y-196593328D01*
X200100885Y-196593328D02*
X199958027Y-196521900D01*
X199958027Y-196521900D02*
X199886599Y-196379042D01*
X199886599Y-196379042D02*
X199886599Y-195807614D01*
X199886599Y-195807614D02*
X199958027Y-195664757D01*
X199958027Y-195664757D02*
X200100885Y-195593328D01*
X200100885Y-195593328D02*
X200386599Y-195593328D01*
X200386599Y-195593328D02*
X200529456Y-195664757D01*
X200529456Y-195664757D02*
X200600885Y-195807614D01*
X200600885Y-195807614D02*
X200600885Y-195950471D01*
X200600885Y-195950471D02*
X199886599Y-196093328D01*
X201100884Y-195593328D02*
X201386599Y-196593328D01*
X201386599Y-196593328D02*
X201672313Y-195879042D01*
X201672313Y-195879042D02*
X201958027Y-196593328D01*
X201958027Y-196593328D02*
X202243741Y-195593328D01*
X203815170Y-195093328D02*
X204815170Y-195093328D01*
X204815170Y-195093328D02*
X204172313Y-196593328D01*
X205386598Y-196450471D02*
X205458027Y-196521900D01*
X205458027Y-196521900D02*
X205386598Y-196593328D01*
X205386598Y-196593328D02*
X205315170Y-196521900D01*
X205315170Y-196521900D02*
X205386598Y-196450471D01*
X205386598Y-196450471D02*
X205386598Y-196593328D01*
X206386599Y-195093328D02*
X206529456Y-195093328D01*
X206529456Y-195093328D02*
X206672313Y-195164757D01*
X206672313Y-195164757D02*
X206743742Y-195236185D01*
X206743742Y-195236185D02*
X206815170Y-195379042D01*
X206815170Y-195379042D02*
X206886599Y-195664757D01*
X206886599Y-195664757D02*
X206886599Y-196021900D01*
X206886599Y-196021900D02*
X206815170Y-196307614D01*
X206815170Y-196307614D02*
X206743742Y-196450471D01*
X206743742Y-196450471D02*
X206672313Y-196521900D01*
X206672313Y-196521900D02*
X206529456Y-196593328D01*
X206529456Y-196593328D02*
X206386599Y-196593328D01*
X206386599Y-196593328D02*
X206243742Y-196521900D01*
X206243742Y-196521900D02*
X206172313Y-196450471D01*
X206172313Y-196450471D02*
X206100884Y-196307614D01*
X206100884Y-196307614D02*
X206029456Y-196021900D01*
X206029456Y-196021900D02*
X206029456Y-195664757D01*
X206029456Y-195664757D02*
X206100884Y-195379042D01*
X206100884Y-195379042D02*
X206172313Y-195236185D01*
X206172313Y-195236185D02*
X206243742Y-195164757D01*
X206243742Y-195164757D02*
X206386599Y-195093328D01*
X207529455Y-196450471D02*
X207600884Y-196521900D01*
X207600884Y-196521900D02*
X207529455Y-196593328D01*
X207529455Y-196593328D02*
X207458027Y-196521900D01*
X207458027Y-196521900D02*
X207529455Y-196450471D01*
X207529455Y-196450471D02*
X207529455Y-196593328D01*
X208886599Y-195093328D02*
X208600884Y-195093328D01*
X208600884Y-195093328D02*
X208458027Y-195164757D01*
X208458027Y-195164757D02*
X208386599Y-195236185D01*
X208386599Y-195236185D02*
X208243741Y-195450471D01*
X208243741Y-195450471D02*
X208172313Y-195736185D01*
X208172313Y-195736185D02*
X208172313Y-196307614D01*
X208172313Y-196307614D02*
X208243741Y-196450471D01*
X208243741Y-196450471D02*
X208315170Y-196521900D01*
X208315170Y-196521900D02*
X208458027Y-196593328D01*
X208458027Y-196593328D02*
X208743741Y-196593328D01*
X208743741Y-196593328D02*
X208886599Y-196521900D01*
X208886599Y-196521900D02*
X208958027Y-196450471D01*
X208958027Y-196450471D02*
X209029456Y-196307614D01*
X209029456Y-196307614D02*
X209029456Y-195950471D01*
X209029456Y-195950471D02*
X208958027Y-195807614D01*
X208958027Y-195807614D02*
X208886599Y-195736185D01*
X208886599Y-195736185D02*
X208743741Y-195664757D01*
X208743741Y-195664757D02*
X208458027Y-195664757D01*
X208458027Y-195664757D02*
X208315170Y-195736185D01*
X208315170Y-195736185D02*
X208243741Y-195807614D01*
X208243741Y-195807614D02*
X208172313Y-195950471D01*
D10*
D11*
X177002200Y-191507200D02*
X285002200Y-191507200D01*
D10*
D12*
X264413853Y-193785528D02*
X263913853Y-193071242D01*
X263556710Y-193785528D02*
X263556710Y-192285528D01*
X263556710Y-192285528D02*
X264128139Y-192285528D01*
X264128139Y-192285528D02*
X264270996Y-192356957D01*
X264270996Y-192356957D02*
X264342425Y-192428385D01*
X264342425Y-192428385D02*
X264413853Y-192571242D01*
X264413853Y-192571242D02*
X264413853Y-192785528D01*
X264413853Y-192785528D02*
X264342425Y-192928385D01*
X264342425Y-192928385D02*
X264270996Y-192999814D01*
X264270996Y-192999814D02*
X264128139Y-193071242D01*
X264128139Y-193071242D02*
X263556710Y-193071242D01*
X265628139Y-193714100D02*
X265485282Y-193785528D01*
X265485282Y-193785528D02*
X265199568Y-193785528D01*
X265199568Y-193785528D02*
X265056710Y-193714100D01*
X265056710Y-193714100D02*
X264985282Y-193571242D01*
X264985282Y-193571242D02*
X264985282Y-192999814D01*
X264985282Y-192999814D02*
X265056710Y-192856957D01*
X265056710Y-192856957D02*
X265199568Y-192785528D01*
X265199568Y-192785528D02*
X265485282Y-192785528D01*
X265485282Y-192785528D02*
X265628139Y-192856957D01*
X265628139Y-192856957D02*
X265699568Y-192999814D01*
X265699568Y-192999814D02*
X265699568Y-193142671D01*
X265699568Y-193142671D02*
X264985282Y-193285528D01*
X266199567Y-192785528D02*
X266556710Y-193785528D01*
X266556710Y-193785528D02*
X266913853Y-192785528D01*
X267485281Y-193642671D02*
X267556710Y-193714100D01*
X267556710Y-193714100D02*
X267485281Y-193785528D01*
X267485281Y-193785528D02*
X267413853Y-193714100D01*
X267413853Y-193714100D02*
X267485281Y-193642671D01*
X267485281Y-193642671D02*
X267485281Y-193785528D01*
X267485281Y-192856957D02*
X267556710Y-192928385D01*
X267556710Y-192928385D02*
X267485281Y-192999814D01*
X267485281Y-192999814D02*
X267413853Y-192928385D01*
X267413853Y-192928385D02*
X267485281Y-192856957D01*
X267485281Y-192856957D02*
X267485281Y-192999814D01*
D10*
D11*
X178386598Y-193721900D02*
X178600884Y-193793328D01*
X178600884Y-193793328D02*
X178958026Y-193793328D01*
X178958026Y-193793328D02*
X179100884Y-193721900D01*
X179100884Y-193721900D02*
X179172312Y-193650471D01*
X179172312Y-193650471D02*
X179243741Y-193507614D01*
X179243741Y-193507614D02*
X179243741Y-193364757D01*
X179243741Y-193364757D02*
X179172312Y-193221900D01*
X179172312Y-193221900D02*
X179100884Y-193150471D01*
X179100884Y-193150471D02*
X178958026Y-193079042D01*
X178958026Y-193079042D02*
X178672312Y-193007614D01*
X178672312Y-193007614D02*
X178529455Y-192936185D01*
X178529455Y-192936185D02*
X178458026Y-192864757D01*
X178458026Y-192864757D02*
X178386598Y-192721900D01*
X178386598Y-192721900D02*
X178386598Y-192579042D01*
X178386598Y-192579042D02*
X178458026Y-192436185D01*
X178458026Y-192436185D02*
X178529455Y-192364757D01*
X178529455Y-192364757D02*
X178672312Y-192293328D01*
X178672312Y-192293328D02*
X179029455Y-192293328D01*
X179029455Y-192293328D02*
X179243741Y-192364757D01*
X179886597Y-193793328D02*
X179886597Y-192793328D01*
X179886597Y-192293328D02*
X179815169Y-192364757D01*
X179815169Y-192364757D02*
X179886597Y-192436185D01*
X179886597Y-192436185D02*
X179958026Y-192364757D01*
X179958026Y-192364757D02*
X179886597Y-192293328D01*
X179886597Y-192293328D02*
X179886597Y-192436185D01*
X180458026Y-192793328D02*
X181243741Y-192793328D01*
X181243741Y-192793328D02*
X180458026Y-193793328D01*
X180458026Y-193793328D02*
X181243741Y-193793328D01*
X182386598Y-193721900D02*
X182243741Y-193793328D01*
X182243741Y-193793328D02*
X181958027Y-193793328D01*
X181958027Y-193793328D02*
X181815169Y-193721900D01*
X181815169Y-193721900D02*
X181743741Y-193579042D01*
X181743741Y-193579042D02*
X181743741Y-193007614D01*
X181743741Y-193007614D02*
X181815169Y-192864757D01*
X181815169Y-192864757D02*
X181958027Y-192793328D01*
X181958027Y-192793328D02*
X182243741Y-192793328D01*
X182243741Y-192793328D02*
X182386598Y-192864757D01*
X182386598Y-192864757D02*
X182458027Y-193007614D01*
X182458027Y-193007614D02*
X182458027Y-193150471D01*
X182458027Y-193150471D02*
X181743741Y-193293328D01*
X183100883Y-193650471D02*
X183172312Y-193721900D01*
X183172312Y-193721900D02*
X183100883Y-193793328D01*
X183100883Y-193793328D02*
X183029455Y-193721900D01*
X183029455Y-193721900D02*
X183100883Y-193650471D01*
X183100883Y-193650471D02*
X183100883Y-193793328D01*
X183100883Y-192864757D02*
X183172312Y-192936185D01*
X183172312Y-192936185D02*
X183100883Y-193007614D01*
X183100883Y-193007614D02*
X183029455Y-192936185D01*
X183029455Y-192936185D02*
X183100883Y-192864757D01*
X183100883Y-192864757D02*
X183100883Y-193007614D01*
X184886598Y-193364757D02*
X185600884Y-193364757D01*
X184743741Y-193793328D02*
X185243741Y-192293328D01*
X185243741Y-192293328D02*
X185743741Y-193793328D01*
X186886598Y-192793328D02*
X186886598Y-193793328D01*
X186529455Y-192221900D02*
X186172312Y-193293328D01*
X186172312Y-193293328D02*
X187100883Y-193293328D01*
D10*
D11*
X263458026Y-196593328D02*
X263458026Y-195093328D01*
X264815170Y-196593328D02*
X264815170Y-195093328D01*
X264815170Y-196521900D02*
X264672312Y-196593328D01*
X264672312Y-196593328D02*
X264386598Y-196593328D01*
X264386598Y-196593328D02*
X264243741Y-196521900D01*
X264243741Y-196521900D02*
X264172312Y-196450471D01*
X264172312Y-196450471D02*
X264100884Y-196307614D01*
X264100884Y-196307614D02*
X264100884Y-195879042D01*
X264100884Y-195879042D02*
X264172312Y-195736185D01*
X264172312Y-195736185D02*
X264243741Y-195664757D01*
X264243741Y-195664757D02*
X264386598Y-195593328D01*
X264386598Y-195593328D02*
X264672312Y-195593328D01*
X264672312Y-195593328D02*
X264815170Y-195664757D01*
X265529455Y-196450471D02*
X265600884Y-196521900D01*
X265600884Y-196521900D02*
X265529455Y-196593328D01*
X265529455Y-196593328D02*
X265458027Y-196521900D01*
X265458027Y-196521900D02*
X265529455Y-196450471D01*
X265529455Y-196450471D02*
X265529455Y-196593328D01*
X265529455Y-195664757D02*
X265600884Y-195736185D01*
X265600884Y-195736185D02*
X265529455Y-195807614D01*
X265529455Y-195807614D02*
X265458027Y-195736185D01*
X265458027Y-195736185D02*
X265529455Y-195664757D01*
X265529455Y-195664757D02*
X265529455Y-195807614D01*
X268172313Y-196593328D02*
X267315170Y-196593328D01*
X267743741Y-196593328D02*
X267743741Y-195093328D01*
X267743741Y-195093328D02*
X267600884Y-195307614D01*
X267600884Y-195307614D02*
X267458027Y-195450471D01*
X267458027Y-195450471D02*
X267315170Y-195521900D01*
X269886598Y-195021900D02*
X268600884Y-196950471D01*
X271172313Y-196593328D02*
X270315170Y-196593328D01*
X270743741Y-196593328D02*
X270743741Y-195093328D01*
X270743741Y-195093328D02*
X270600884Y-195307614D01*
X270600884Y-195307614D02*
X270458027Y-195450471D01*
X270458027Y-195450471D02*
X270315170Y-195521900D01*
D10*
D11*
X177002200Y-187507200D02*
X285002200Y-187507200D01*
D10*
D13*
X178693928Y-188211638D02*
X179836785Y-188211638D01*
X179015357Y-190211638D02*
X179265357Y-188211638D01*
X180253452Y-190211638D02*
X180420119Y-188878304D01*
X180503452Y-188211638D02*
X180396309Y-188306876D01*
X180396309Y-188306876D02*
X180479643Y-188402114D01*
X180479643Y-188402114D02*
X180586786Y-188306876D01*
X180586786Y-188306876D02*
X180503452Y-188211638D01*
X180503452Y-188211638D02*
X180479643Y-188402114D01*
X181086786Y-188878304D02*
X181848690Y-188878304D01*
X181455833Y-188211638D02*
X181241548Y-189925923D01*
X181241548Y-189925923D02*
X181312976Y-190116400D01*
X181312976Y-190116400D02*
X181491548Y-190211638D01*
X181491548Y-190211638D02*
X181682024Y-190211638D01*
X182634405Y-190211638D02*
X182455833Y-190116400D01*
X182455833Y-190116400D02*
X182384405Y-189925923D01*
X182384405Y-189925923D02*
X182598690Y-188211638D01*
X184170119Y-190116400D02*
X183967738Y-190211638D01*
X183967738Y-190211638D02*
X183586785Y-190211638D01*
X183586785Y-190211638D02*
X183408214Y-190116400D01*
X183408214Y-190116400D02*
X183336785Y-189925923D01*
X183336785Y-189925923D02*
X183432024Y-189164019D01*
X183432024Y-189164019D02*
X183551071Y-188973542D01*
X183551071Y-188973542D02*
X183753452Y-188878304D01*
X183753452Y-188878304D02*
X184134404Y-188878304D01*
X184134404Y-188878304D02*
X184312976Y-188973542D01*
X184312976Y-188973542D02*
X184384404Y-189164019D01*
X184384404Y-189164019D02*
X184360595Y-189354495D01*
X184360595Y-189354495D02*
X183384404Y-189544971D01*
X185134405Y-190021161D02*
X185217738Y-190116400D01*
X185217738Y-190116400D02*
X185110595Y-190211638D01*
X185110595Y-190211638D02*
X185027262Y-190116400D01*
X185027262Y-190116400D02*
X185134405Y-190021161D01*
X185134405Y-190021161D02*
X185110595Y-190211638D01*
X185265357Y-188973542D02*
X185348690Y-189068780D01*
X185348690Y-189068780D02*
X185241548Y-189164019D01*
X185241548Y-189164019D02*
X185158214Y-189068780D01*
X185158214Y-189068780D02*
X185265357Y-188973542D01*
X185265357Y-188973542D02*
X185241548Y-189164019D01*
D10*
D11*
X178958026Y-185607614D02*
X178458026Y-185607614D01*
X178458026Y-186393328D02*
X178458026Y-184893328D01*
X178458026Y-184893328D02*
X179172312Y-184893328D01*
X179743740Y-186393328D02*
X179743740Y-185393328D01*
X179743740Y-184893328D02*
X179672312Y-184964757D01*
X179672312Y-184964757D02*
X179743740Y-185036185D01*
X179743740Y-185036185D02*
X179815169Y-184964757D01*
X179815169Y-184964757D02*
X179743740Y-184893328D01*
X179743740Y-184893328D02*
X179743740Y-185036185D01*
X180672312Y-186393328D02*
X180529455Y-186321900D01*
X180529455Y-186321900D02*
X180458026Y-186179042D01*
X180458026Y-186179042D02*
X180458026Y-184893328D01*
X181815169Y-186321900D02*
X181672312Y-186393328D01*
X181672312Y-186393328D02*
X181386598Y-186393328D01*
X181386598Y-186393328D02*
X181243740Y-186321900D01*
X181243740Y-186321900D02*
X181172312Y-186179042D01*
X181172312Y-186179042D02*
X181172312Y-185607614D01*
X181172312Y-185607614D02*
X181243740Y-185464757D01*
X181243740Y-185464757D02*
X181386598Y-185393328D01*
X181386598Y-185393328D02*
X181672312Y-185393328D01*
X181672312Y-185393328D02*
X181815169Y-185464757D01*
X181815169Y-185464757D02*
X181886598Y-185607614D01*
X181886598Y-185607614D02*
X181886598Y-185750471D01*
X181886598Y-185750471D02*
X181172312Y-185893328D01*
X182529454Y-186250471D02*
X182600883Y-186321900D01*
X182600883Y-186321900D02*
X182529454Y-186393328D01*
X182529454Y-186393328D02*
X182458026Y-186321900D01*
X182458026Y-186321900D02*
X182529454Y-186250471D01*
X182529454Y-186250471D02*
X182529454Y-186393328D01*
X182529454Y-185464757D02*
X182600883Y-185536185D01*
X182600883Y-185536185D02*
X182529454Y-185607614D01*
X182529454Y-185607614D02*
X182458026Y-185536185D01*
X182458026Y-185536185D02*
X182529454Y-185464757D01*
X182529454Y-185464757D02*
X182529454Y-185607614D01*
X184386597Y-186393328D02*
X184386597Y-185393328D01*
X184386597Y-185679042D02*
X184458026Y-185536185D01*
X184458026Y-185536185D02*
X184529455Y-185464757D01*
X184529455Y-185464757D02*
X184672312Y-185393328D01*
X184672312Y-185393328D02*
X184815169Y-185393328D01*
X185315168Y-186393328D02*
X185315168Y-185393328D01*
X185315168Y-185679042D02*
X185386597Y-185536185D01*
X185386597Y-185536185D02*
X185458026Y-185464757D01*
X185458026Y-185464757D02*
X185600883Y-185393328D01*
X185600883Y-185393328D02*
X185743740Y-185393328D01*
X186886597Y-186321900D02*
X186743739Y-186393328D01*
X186743739Y-186393328D02*
X186458025Y-186393328D01*
X186458025Y-186393328D02*
X186315168Y-186321900D01*
X186315168Y-186321900D02*
X186243739Y-186250471D01*
X186243739Y-186250471D02*
X186172311Y-186107614D01*
X186172311Y-186107614D02*
X186172311Y-185679042D01*
X186172311Y-185679042D02*
X186243739Y-185536185D01*
X186243739Y-185536185D02*
X186315168Y-185464757D01*
X186315168Y-185464757D02*
X186458025Y-185393328D01*
X186458025Y-185393328D02*
X186743739Y-185393328D01*
X186743739Y-185393328D02*
X186886597Y-185464757D01*
X187172311Y-186536185D02*
X188315168Y-186536185D01*
X188672310Y-185393328D02*
X188672310Y-186893328D01*
X188672310Y-185464757D02*
X188815168Y-185393328D01*
X188815168Y-185393328D02*
X189100882Y-185393328D01*
X189100882Y-185393328D02*
X189243739Y-185464757D01*
X189243739Y-185464757D02*
X189315168Y-185536185D01*
X189315168Y-185536185D02*
X189386596Y-185679042D01*
X189386596Y-185679042D02*
X189386596Y-186107614D01*
X189386596Y-186107614D02*
X189315168Y-186250471D01*
X189315168Y-186250471D02*
X189243739Y-186321900D01*
X189243739Y-186321900D02*
X189100882Y-186393328D01*
X189100882Y-186393328D02*
X188815168Y-186393328D01*
X188815168Y-186393328D02*
X188672310Y-186321900D01*
X190672311Y-186321900D02*
X190529453Y-186393328D01*
X190529453Y-186393328D02*
X190243739Y-186393328D01*
X190243739Y-186393328D02*
X190100882Y-186321900D01*
X190100882Y-186321900D02*
X190029453Y-186250471D01*
X190029453Y-186250471D02*
X189958025Y-186107614D01*
X189958025Y-186107614D02*
X189958025Y-185679042D01*
X189958025Y-185679042D02*
X190029453Y-185536185D01*
X190029453Y-185536185D02*
X190100882Y-185464757D01*
X190100882Y-185464757D02*
X190243739Y-185393328D01*
X190243739Y-185393328D02*
X190529453Y-185393328D01*
X190529453Y-185393328D02*
X190672311Y-185464757D01*
X191315167Y-186393328D02*
X191315167Y-184893328D01*
X191315167Y-185464757D02*
X191458025Y-185393328D01*
X191458025Y-185393328D02*
X191743739Y-185393328D01*
X191743739Y-185393328D02*
X191886596Y-185464757D01*
X191886596Y-185464757D02*
X191958025Y-185536185D01*
X191958025Y-185536185D02*
X192029453Y-185679042D01*
X192029453Y-185679042D02*
X192029453Y-186107614D01*
X192029453Y-186107614D02*
X191958025Y-186250471D01*
X191958025Y-186250471D02*
X191886596Y-186321900D01*
X191886596Y-186321900D02*
X191743739Y-186393328D01*
X191743739Y-186393328D02*
X191458025Y-186393328D01*
X191458025Y-186393328D02*
X191315167Y-186321900D01*
X192529453Y-184893328D02*
X193458025Y-184893328D01*
X193458025Y-184893328D02*
X192958025Y-185464757D01*
X192958025Y-185464757D02*
X193172310Y-185464757D01*
X193172310Y-185464757D02*
X193315168Y-185536185D01*
X193315168Y-185536185D02*
X193386596Y-185607614D01*
X193386596Y-185607614D02*
X193458025Y-185750471D01*
X193458025Y-185750471D02*
X193458025Y-186107614D01*
X193458025Y-186107614D02*
X193386596Y-186250471D01*
X193386596Y-186250471D02*
X193315168Y-186321900D01*
X193315168Y-186321900D02*
X193172310Y-186393328D01*
X193172310Y-186393328D02*
X192743739Y-186393328D01*
X192743739Y-186393328D02*
X192600882Y-186321900D01*
X192600882Y-186321900D02*
X192529453Y-186250471D01*
X194100881Y-186250471D02*
X194172310Y-186321900D01*
X194172310Y-186321900D02*
X194100881Y-186393328D01*
X194100881Y-186393328D02*
X194029453Y-186321900D01*
X194029453Y-186321900D02*
X194100881Y-186250471D01*
X194100881Y-186250471D02*
X194100881Y-186393328D01*
X194815167Y-186393328D02*
X194815167Y-184893328D01*
X194958025Y-185821900D02*
X195386596Y-186393328D01*
X195386596Y-185393328D02*
X194815167Y-185964757D01*
X196029453Y-186393328D02*
X196029453Y-185393328D01*
X196029453Y-184893328D02*
X195958025Y-184964757D01*
X195958025Y-184964757D02*
X196029453Y-185036185D01*
X196029453Y-185036185D02*
X196100882Y-184964757D01*
X196100882Y-184964757D02*
X196029453Y-184893328D01*
X196029453Y-184893328D02*
X196029453Y-185036185D01*
X197386597Y-186321900D02*
X197243739Y-186393328D01*
X197243739Y-186393328D02*
X196958025Y-186393328D01*
X196958025Y-186393328D02*
X196815168Y-186321900D01*
X196815168Y-186321900D02*
X196743739Y-186250471D01*
X196743739Y-186250471D02*
X196672311Y-186107614D01*
X196672311Y-186107614D02*
X196672311Y-185679042D01*
X196672311Y-185679042D02*
X196743739Y-185536185D01*
X196743739Y-185536185D02*
X196815168Y-185464757D01*
X196815168Y-185464757D02*
X196958025Y-185393328D01*
X196958025Y-185393328D02*
X197243739Y-185393328D01*
X197243739Y-185393328D02*
X197386597Y-185464757D01*
X198672311Y-186393328D02*
X198672311Y-185607614D01*
X198672311Y-185607614D02*
X198600882Y-185464757D01*
X198600882Y-185464757D02*
X198458025Y-185393328D01*
X198458025Y-185393328D02*
X198172311Y-185393328D01*
X198172311Y-185393328D02*
X198029453Y-185464757D01*
X198672311Y-186321900D02*
X198529453Y-186393328D01*
X198529453Y-186393328D02*
X198172311Y-186393328D01*
X198172311Y-186393328D02*
X198029453Y-186321900D01*
X198029453Y-186321900D02*
X197958025Y-186179042D01*
X197958025Y-186179042D02*
X197958025Y-186036185D01*
X197958025Y-186036185D02*
X198029453Y-185893328D01*
X198029453Y-185893328D02*
X198172311Y-185821900D01*
X198172311Y-185821900D02*
X198529453Y-185821900D01*
X198529453Y-185821900D02*
X198672311Y-185750471D01*
X200029454Y-186393328D02*
X200029454Y-184893328D01*
X200029454Y-186321900D02*
X199886596Y-186393328D01*
X199886596Y-186393328D02*
X199600882Y-186393328D01*
X199600882Y-186393328D02*
X199458025Y-186321900D01*
X199458025Y-186321900D02*
X199386596Y-186250471D01*
X199386596Y-186250471D02*
X199315168Y-186107614D01*
X199315168Y-186107614D02*
X199315168Y-185679042D01*
X199315168Y-185679042D02*
X199386596Y-185536185D01*
X199386596Y-185536185D02*
X199458025Y-185464757D01*
X199458025Y-185464757D02*
X199600882Y-185393328D01*
X199600882Y-185393328D02*
X199886596Y-185393328D01*
X199886596Y-185393328D02*
X200029454Y-185464757D01*
X200386597Y-186536185D02*
X201529454Y-186536185D01*
X201886596Y-185393328D02*
X201886596Y-186893328D01*
X201886596Y-185464757D02*
X202029454Y-185393328D01*
X202029454Y-185393328D02*
X202315168Y-185393328D01*
X202315168Y-185393328D02*
X202458025Y-185464757D01*
X202458025Y-185464757D02*
X202529454Y-185536185D01*
X202529454Y-185536185D02*
X202600882Y-185679042D01*
X202600882Y-185679042D02*
X202600882Y-186107614D01*
X202600882Y-186107614D02*
X202529454Y-186250471D01*
X202529454Y-186250471D02*
X202458025Y-186321900D01*
X202458025Y-186321900D02*
X202315168Y-186393328D01*
X202315168Y-186393328D02*
X202029454Y-186393328D01*
X202029454Y-186393328D02*
X201886596Y-186321900D01*
X203886597Y-186321900D02*
X203743739Y-186393328D01*
X203743739Y-186393328D02*
X203458025Y-186393328D01*
X203458025Y-186393328D02*
X203315168Y-186321900D01*
X203315168Y-186321900D02*
X203243739Y-186250471D01*
X203243739Y-186250471D02*
X203172311Y-186107614D01*
X203172311Y-186107614D02*
X203172311Y-185679042D01*
X203172311Y-185679042D02*
X203243739Y-185536185D01*
X203243739Y-185536185D02*
X203315168Y-185464757D01*
X203315168Y-185464757D02*
X203458025Y-185393328D01*
X203458025Y-185393328D02*
X203743739Y-185393328D01*
X203743739Y-185393328D02*
X203886597Y-185464757D01*
X204529453Y-186393328D02*
X204529453Y-184893328D01*
X204529453Y-185464757D02*
X204672311Y-185393328D01*
X204672311Y-185393328D02*
X204958025Y-185393328D01*
X204958025Y-185393328D02*
X205100882Y-185464757D01*
X205100882Y-185464757D02*
X205172311Y-185536185D01*
X205172311Y-185536185D02*
X205243739Y-185679042D01*
X205243739Y-185679042D02*
X205243739Y-186107614D01*
X205243739Y-186107614D02*
X205172311Y-186250471D01*
X205172311Y-186250471D02*
X205100882Y-186321900D01*
X205100882Y-186321900D02*
X204958025Y-186393328D01*
X204958025Y-186393328D02*
X204672311Y-186393328D01*
X204672311Y-186393328D02*
X204529453Y-186321900D01*
D10*
D11*
X177002200Y-181507200D02*
X285002200Y-181507200D01*
D10*
D11*
X178386598Y-183621900D02*
X178600884Y-183693328D01*
X178600884Y-183693328D02*
X178958026Y-183693328D01*
X178958026Y-183693328D02*
X179100884Y-183621900D01*
X179100884Y-183621900D02*
X179172312Y-183550471D01*
X179172312Y-183550471D02*
X179243741Y-183407614D01*
X179243741Y-183407614D02*
X179243741Y-183264757D01*
X179243741Y-183264757D02*
X179172312Y-183121900D01*
X179172312Y-183121900D02*
X179100884Y-183050471D01*
X179100884Y-183050471D02*
X178958026Y-182979042D01*
X178958026Y-182979042D02*
X178672312Y-182907614D01*
X178672312Y-182907614D02*
X178529455Y-182836185D01*
X178529455Y-182836185D02*
X178458026Y-182764757D01*
X178458026Y-182764757D02*
X178386598Y-182621900D01*
X178386598Y-182621900D02*
X178386598Y-182479042D01*
X178386598Y-182479042D02*
X178458026Y-182336185D01*
X178458026Y-182336185D02*
X178529455Y-182264757D01*
X178529455Y-182264757D02*
X178672312Y-182193328D01*
X178672312Y-182193328D02*
X179029455Y-182193328D01*
X179029455Y-182193328D02*
X179243741Y-182264757D01*
X179886597Y-183693328D02*
X179886597Y-182193328D01*
X180529455Y-183693328D02*
X180529455Y-182907614D01*
X180529455Y-182907614D02*
X180458026Y-182764757D01*
X180458026Y-182764757D02*
X180315169Y-182693328D01*
X180315169Y-182693328D02*
X180100883Y-182693328D01*
X180100883Y-182693328D02*
X179958026Y-182764757D01*
X179958026Y-182764757D02*
X179886597Y-182836185D01*
X181815169Y-183621900D02*
X181672312Y-183693328D01*
X181672312Y-183693328D02*
X181386598Y-183693328D01*
X181386598Y-183693328D02*
X181243740Y-183621900D01*
X181243740Y-183621900D02*
X181172312Y-183479042D01*
X181172312Y-183479042D02*
X181172312Y-182907614D01*
X181172312Y-182907614D02*
X181243740Y-182764757D01*
X181243740Y-182764757D02*
X181386598Y-182693328D01*
X181386598Y-182693328D02*
X181672312Y-182693328D01*
X181672312Y-182693328D02*
X181815169Y-182764757D01*
X181815169Y-182764757D02*
X181886598Y-182907614D01*
X181886598Y-182907614D02*
X181886598Y-183050471D01*
X181886598Y-183050471D02*
X181172312Y-183193328D01*
X183100883Y-183621900D02*
X182958026Y-183693328D01*
X182958026Y-183693328D02*
X182672312Y-183693328D01*
X182672312Y-183693328D02*
X182529454Y-183621900D01*
X182529454Y-183621900D02*
X182458026Y-183479042D01*
X182458026Y-183479042D02*
X182458026Y-182907614D01*
X182458026Y-182907614D02*
X182529454Y-182764757D01*
X182529454Y-182764757D02*
X182672312Y-182693328D01*
X182672312Y-182693328D02*
X182958026Y-182693328D01*
X182958026Y-182693328D02*
X183100883Y-182764757D01*
X183100883Y-182764757D02*
X183172312Y-182907614D01*
X183172312Y-182907614D02*
X183172312Y-183050471D01*
X183172312Y-183050471D02*
X182458026Y-183193328D01*
X183600883Y-182693328D02*
X184172311Y-182693328D01*
X183815168Y-182193328D02*
X183815168Y-183479042D01*
X183815168Y-183479042D02*
X183886597Y-183621900D01*
X183886597Y-183621900D02*
X184029454Y-183693328D01*
X184029454Y-183693328D02*
X184172311Y-183693328D01*
X184672311Y-183550471D02*
X184743740Y-183621900D01*
X184743740Y-183621900D02*
X184672311Y-183693328D01*
X184672311Y-183693328D02*
X184600883Y-183621900D01*
X184600883Y-183621900D02*
X184672311Y-183550471D01*
X184672311Y-183550471D02*
X184672311Y-183693328D01*
X184672311Y-182764757D02*
X184743740Y-182836185D01*
X184743740Y-182836185D02*
X184672311Y-182907614D01*
X184672311Y-182907614D02*
X184600883Y-182836185D01*
X184600883Y-182836185D02*
X184672311Y-182764757D01*
X184672311Y-182764757D02*
X184672311Y-182907614D01*
D10*
D12*
D10*
D11*
D10*
D11*
D10*
D11*
D10*
D11*
D10*
D11*
X197002200Y-191507200D02*
X197002200Y-194507200D01*
D10*
D11*
X261002200Y-191507200D02*
X261002200Y-198007200D01*
X130213058Y-44086944D02*
X130355915Y-44134563D01*
X130355915Y-44134563D02*
X130403534Y-44182182D01*
X130403534Y-44182182D02*
X130451153Y-44277420D01*
X130451153Y-44277420D02*
X130451153Y-44420277D01*
X130451153Y-44420277D02*
X130403534Y-44515515D01*
X130403534Y-44515515D02*
X130355915Y-44563135D01*
X130355915Y-44563135D02*
X130260677Y-44610754D01*
X130260677Y-44610754D02*
X129879725Y-44610754D01*
X129879725Y-44610754D02*
X129879725Y-43610754D01*
X129879725Y-43610754D02*
X130213058Y-43610754D01*
X130213058Y-43610754D02*
X130308296Y-43658373D01*
X130308296Y-43658373D02*
X130355915Y-43705992D01*
X130355915Y-43705992D02*
X130403534Y-43801230D01*
X130403534Y-43801230D02*
X130403534Y-43896468D01*
X130403534Y-43896468D02*
X130355915Y-43991706D01*
X130355915Y-43991706D02*
X130308296Y-44039325D01*
X130308296Y-44039325D02*
X130213058Y-44086944D01*
X130213058Y-44086944D02*
X129879725Y-44086944D01*
X130879725Y-44610754D02*
X130879725Y-43610754D01*
X130879725Y-43610754D02*
X131451153Y-44610754D01*
X131451153Y-44610754D02*
X131451153Y-43610754D01*
X131879725Y-43705992D02*
X131927344Y-43658373D01*
X131927344Y-43658373D02*
X132022582Y-43610754D01*
X132022582Y-43610754D02*
X132260677Y-43610754D01*
X132260677Y-43610754D02*
X132355915Y-43658373D01*
X132355915Y-43658373D02*
X132403534Y-43705992D01*
X132403534Y-43705992D02*
X132451153Y-43801230D01*
X132451153Y-43801230D02*
X132451153Y-43896468D01*
X132451153Y-43896468D02*
X132403534Y-44039325D01*
X132403534Y-44039325D02*
X131832106Y-44610754D01*
X131832106Y-44610754D02*
X132451153Y-44610754D01*
X132832106Y-43705992D02*
X132879725Y-43658373D01*
X132879725Y-43658373D02*
X132974963Y-43610754D01*
X132974963Y-43610754D02*
X133213058Y-43610754D01*
X133213058Y-43610754D02*
X133308296Y-43658373D01*
X133308296Y-43658373D02*
X133355915Y-43705992D01*
X133355915Y-43705992D02*
X133403534Y-43801230D01*
X133403534Y-43801230D02*
X133403534Y-43896468D01*
X133403534Y-43896468D02*
X133355915Y-44039325D01*
X133355915Y-44039325D02*
X132784487Y-44610754D01*
X132784487Y-44610754D02*
X133403534Y-44610754D01*
X134022582Y-43610754D02*
X134117820Y-43610754D01*
X134117820Y-43610754D02*
X134213058Y-43658373D01*
X134213058Y-43658373D02*
X134260677Y-43705992D01*
X134260677Y-43705992D02*
X134308296Y-43801230D01*
X134308296Y-43801230D02*
X134355915Y-43991706D01*
X134355915Y-43991706D02*
X134355915Y-44229801D01*
X134355915Y-44229801D02*
X134308296Y-44420277D01*
X134308296Y-44420277D02*
X134260677Y-44515515D01*
X134260677Y-44515515D02*
X134213058Y-44563135D01*
X134213058Y-44563135D02*
X134117820Y-44610754D01*
X134117820Y-44610754D02*
X134022582Y-44610754D01*
X134022582Y-44610754D02*
X133927344Y-44563135D01*
X133927344Y-44563135D02*
X133879725Y-44515515D01*
X133879725Y-44515515D02*
X133832106Y-44420277D01*
X133832106Y-44420277D02*
X133784487Y-44229801D01*
X133784487Y-44229801D02*
X133784487Y-43991706D01*
X133784487Y-43991706D02*
X133832106Y-43801230D01*
X133832106Y-43801230D02*
X133879725Y-43705992D01*
X133879725Y-43705992D02*
X133927344Y-43658373D01*
X133927344Y-43658373D02*
X134022582Y-43610754D01*
X134784487Y-44229801D02*
X135546392Y-44229801D01*
X136546391Y-43658373D02*
X136451153Y-43610754D01*
X136451153Y-43610754D02*
X136308296Y-43610754D01*
X136308296Y-43610754D02*
X136165439Y-43658373D01*
X136165439Y-43658373D02*
X136070201Y-43753611D01*
X136070201Y-43753611D02*
X136022582Y-43848849D01*
X136022582Y-43848849D02*
X135974963Y-44039325D01*
X135974963Y-44039325D02*
X135974963Y-44182182D01*
X135974963Y-44182182D02*
X136022582Y-44372658D01*
X136022582Y-44372658D02*
X136070201Y-44467896D01*
X136070201Y-44467896D02*
X136165439Y-44563135D01*
X136165439Y-44563135D02*
X136308296Y-44610754D01*
X136308296Y-44610754D02*
X136403534Y-44610754D01*
X136403534Y-44610754D02*
X136546391Y-44563135D01*
X136546391Y-44563135D02*
X136594010Y-44515515D01*
X136594010Y-44515515D02*
X136594010Y-44182182D01*
X136594010Y-44182182D02*
X136403534Y-44182182D01*
X137022582Y-44610754D02*
X137022582Y-43610754D01*
X137022582Y-43610754D02*
X137403534Y-43610754D01*
X137403534Y-43610754D02*
X137498772Y-43658373D01*
X137498772Y-43658373D02*
X137546391Y-43705992D01*
X137546391Y-43705992D02*
X137594010Y-43801230D01*
X137594010Y-43801230D02*
X137594010Y-43944087D01*
X137594010Y-43944087D02*
X137546391Y-44039325D01*
X137546391Y-44039325D02*
X137498772Y-44086944D01*
X137498772Y-44086944D02*
X137403534Y-44134563D01*
X137403534Y-44134563D02*
X137022582Y-44134563D01*
X137974963Y-44563135D02*
X138117820Y-44610754D01*
X138117820Y-44610754D02*
X138355915Y-44610754D01*
X138355915Y-44610754D02*
X138451153Y-44563135D01*
X138451153Y-44563135D02*
X138498772Y-44515515D01*
X138498772Y-44515515D02*
X138546391Y-44420277D01*
X138546391Y-44420277D02*
X138546391Y-44325039D01*
X138546391Y-44325039D02*
X138498772Y-44229801D01*
X138498772Y-44229801D02*
X138451153Y-44182182D01*
X138451153Y-44182182D02*
X138355915Y-44134563D01*
X138355915Y-44134563D02*
X138165439Y-44086944D01*
X138165439Y-44086944D02*
X138070201Y-44039325D01*
X138070201Y-44039325D02*
X138022582Y-43991706D01*
X138022582Y-43991706D02*
X137974963Y-43896468D01*
X137974963Y-43896468D02*
X137974963Y-43801230D01*
X137974963Y-43801230D02*
X138022582Y-43705992D01*
X138022582Y-43705992D02*
X138070201Y-43658373D01*
X138070201Y-43658373D02*
X138165439Y-43610754D01*
X138165439Y-43610754D02*
X138403534Y-43610754D01*
X138403534Y-43610754D02*
X138546391Y-43658373D01*
X139569177Y-35658829D02*
X140378700Y-35658829D01*
X140378700Y-35658829D02*
X140473938Y-35611210D01*
X140473938Y-35611210D02*
X140521558Y-35563591D01*
X140521558Y-35563591D02*
X140569177Y-35468353D01*
X140569177Y-35468353D02*
X140569177Y-35277877D01*
X140569177Y-35277877D02*
X140521558Y-35182639D01*
X140521558Y-35182639D02*
X140473938Y-35135020D01*
X140473938Y-35135020D02*
X140378700Y-35087401D01*
X140378700Y-35087401D02*
X139569177Y-35087401D01*
X139569177Y-34706448D02*
X139569177Y-34087401D01*
X139569177Y-34087401D02*
X139950129Y-34420734D01*
X139950129Y-34420734D02*
X139950129Y-34277877D01*
X139950129Y-34277877D02*
X139997748Y-34182639D01*
X139997748Y-34182639D02*
X140045367Y-34135020D01*
X140045367Y-34135020D02*
X140140605Y-34087401D01*
X140140605Y-34087401D02*
X140378700Y-34087401D01*
X140378700Y-34087401D02*
X140473938Y-34135020D01*
X140473938Y-34135020D02*
X140521558Y-34182639D01*
X140521558Y-34182639D02*
X140569177Y-34277877D01*
X140569177Y-34277877D02*
X140569177Y-34563591D01*
X140569177Y-34563591D02*
X140521558Y-34658829D01*
X140521558Y-34658829D02*
X140473938Y-34706448D01*
X85543352Y-47174585D02*
X85495733Y-47222205D01*
X85495733Y-47222205D02*
X85352876Y-47269824D01*
X85352876Y-47269824D02*
X85257638Y-47269824D01*
X85257638Y-47269824D02*
X85114781Y-47222205D01*
X85114781Y-47222205D02*
X85019543Y-47126966D01*
X85019543Y-47126966D02*
X84971924Y-47031728D01*
X84971924Y-47031728D02*
X84924305Y-46841252D01*
X84924305Y-46841252D02*
X84924305Y-46698395D01*
X84924305Y-46698395D02*
X84971924Y-46507919D01*
X84971924Y-46507919D02*
X85019543Y-46412681D01*
X85019543Y-46412681D02*
X85114781Y-46317443D01*
X85114781Y-46317443D02*
X85257638Y-46269824D01*
X85257638Y-46269824D02*
X85352876Y-46269824D01*
X85352876Y-46269824D02*
X85495733Y-46317443D01*
X85495733Y-46317443D02*
X85543352Y-46365062D01*
X86114781Y-47269824D02*
X86019543Y-47222205D01*
X86019543Y-47222205D02*
X85971924Y-47174585D01*
X85971924Y-47174585D02*
X85924305Y-47079347D01*
X85924305Y-47079347D02*
X85924305Y-46793633D01*
X85924305Y-46793633D02*
X85971924Y-46698395D01*
X85971924Y-46698395D02*
X86019543Y-46650776D01*
X86019543Y-46650776D02*
X86114781Y-46603157D01*
X86114781Y-46603157D02*
X86257638Y-46603157D01*
X86257638Y-46603157D02*
X86352876Y-46650776D01*
X86352876Y-46650776D02*
X86400495Y-46698395D01*
X86400495Y-46698395D02*
X86448114Y-46793633D01*
X86448114Y-46793633D02*
X86448114Y-47079347D01*
X86448114Y-47079347D02*
X86400495Y-47174585D01*
X86400495Y-47174585D02*
X86352876Y-47222205D01*
X86352876Y-47222205D02*
X86257638Y-47269824D01*
X86257638Y-47269824D02*
X86114781Y-47269824D01*
X86876686Y-46603157D02*
X86876686Y-47269824D01*
X86876686Y-46698395D02*
X86924305Y-46650776D01*
X86924305Y-46650776D02*
X87019543Y-46603157D01*
X87019543Y-46603157D02*
X87162400Y-46603157D01*
X87162400Y-46603157D02*
X87257638Y-46650776D01*
X87257638Y-46650776D02*
X87305257Y-46746014D01*
X87305257Y-46746014D02*
X87305257Y-47269824D01*
X87781448Y-46603157D02*
X87781448Y-47269824D01*
X87781448Y-46698395D02*
X87829067Y-46650776D01*
X87829067Y-46650776D02*
X87924305Y-46603157D01*
X87924305Y-46603157D02*
X88067162Y-46603157D01*
X88067162Y-46603157D02*
X88162400Y-46650776D01*
X88162400Y-46650776D02*
X88210019Y-46746014D01*
X88210019Y-46746014D02*
X88210019Y-47269824D01*
X88448115Y-47365062D02*
X89210019Y-47365062D01*
X89638591Y-46269824D02*
X89733829Y-46269824D01*
X89733829Y-46269824D02*
X89829067Y-46317443D01*
X89829067Y-46317443D02*
X89876686Y-46365062D01*
X89876686Y-46365062D02*
X89924305Y-46460300D01*
X89924305Y-46460300D02*
X89971924Y-46650776D01*
X89971924Y-46650776D02*
X89971924Y-46888871D01*
X89971924Y-46888871D02*
X89924305Y-47079347D01*
X89924305Y-47079347D02*
X89876686Y-47174585D01*
X89876686Y-47174585D02*
X89829067Y-47222205D01*
X89829067Y-47222205D02*
X89733829Y-47269824D01*
X89733829Y-47269824D02*
X89638591Y-47269824D01*
X89638591Y-47269824D02*
X89543353Y-47222205D01*
X89543353Y-47222205D02*
X89495734Y-47174585D01*
X89495734Y-47174585D02*
X89448115Y-47079347D01*
X89448115Y-47079347D02*
X89400496Y-46888871D01*
X89400496Y-46888871D02*
X89400496Y-46650776D01*
X89400496Y-46650776D02*
X89448115Y-46460300D01*
X89448115Y-46460300D02*
X89495734Y-46365062D01*
X89495734Y-46365062D02*
X89543353Y-46317443D01*
X89543353Y-46317443D02*
X89638591Y-46269824D01*
X90924305Y-47269824D02*
X90352877Y-47269824D01*
X90638591Y-47269824D02*
X90638591Y-46269824D01*
X90638591Y-46269824D02*
X90543353Y-46412681D01*
X90543353Y-46412681D02*
X90448115Y-46507919D01*
X90448115Y-46507919D02*
X90352877Y-46555538D01*
X91257639Y-47269824D02*
X91781448Y-46603157D01*
X91257639Y-46603157D02*
X91781448Y-47269824D01*
X92352877Y-46269824D02*
X92448115Y-46269824D01*
X92448115Y-46269824D02*
X92543353Y-46317443D01*
X92543353Y-46317443D02*
X92590972Y-46365062D01*
X92590972Y-46365062D02*
X92638591Y-46460300D01*
X92638591Y-46460300D02*
X92686210Y-46650776D01*
X92686210Y-46650776D02*
X92686210Y-46888871D01*
X92686210Y-46888871D02*
X92638591Y-47079347D01*
X92638591Y-47079347D02*
X92590972Y-47174585D01*
X92590972Y-47174585D02*
X92543353Y-47222205D01*
X92543353Y-47222205D02*
X92448115Y-47269824D01*
X92448115Y-47269824D02*
X92352877Y-47269824D01*
X92352877Y-47269824D02*
X92257639Y-47222205D01*
X92257639Y-47222205D02*
X92210020Y-47174585D01*
X92210020Y-47174585D02*
X92162401Y-47079347D01*
X92162401Y-47079347D02*
X92114782Y-46888871D01*
X92114782Y-46888871D02*
X92114782Y-46650776D01*
X92114782Y-46650776D02*
X92162401Y-46460300D01*
X92162401Y-46460300D02*
X92210020Y-46365062D01*
X92210020Y-46365062D02*
X92257639Y-46317443D01*
X92257639Y-46317443D02*
X92352877Y-46269824D01*
X93067163Y-46365062D02*
X93114782Y-46317443D01*
X93114782Y-46317443D02*
X93210020Y-46269824D01*
X93210020Y-46269824D02*
X93448115Y-46269824D01*
X93448115Y-46269824D02*
X93543353Y-46317443D01*
X93543353Y-46317443D02*
X93590972Y-46365062D01*
X93590972Y-46365062D02*
X93638591Y-46460300D01*
X93638591Y-46460300D02*
X93638591Y-46555538D01*
X93638591Y-46555538D02*
X93590972Y-46698395D01*
X93590972Y-46698395D02*
X93019544Y-47269824D01*
X93019544Y-47269824D02*
X93638591Y-47269824D01*
X93829068Y-47365062D02*
X94590972Y-47365062D01*
X94829068Y-47269824D02*
X94829068Y-46269824D01*
X94829068Y-46269824D02*
X95162401Y-46984109D01*
X95162401Y-46984109D02*
X95495734Y-46269824D01*
X95495734Y-46269824D02*
X95495734Y-47269824D01*
X96400496Y-47269824D02*
X96400496Y-46746014D01*
X96400496Y-46746014D02*
X96352877Y-46650776D01*
X96352877Y-46650776D02*
X96257639Y-46603157D01*
X96257639Y-46603157D02*
X96067163Y-46603157D01*
X96067163Y-46603157D02*
X95971925Y-46650776D01*
X96400496Y-47222205D02*
X96305258Y-47269824D01*
X96305258Y-47269824D02*
X96067163Y-47269824D01*
X96067163Y-47269824D02*
X95971925Y-47222205D01*
X95971925Y-47222205D02*
X95924306Y-47126966D01*
X95924306Y-47126966D02*
X95924306Y-47031728D01*
X95924306Y-47031728D02*
X95971925Y-46936490D01*
X95971925Y-46936490D02*
X96067163Y-46888871D01*
X96067163Y-46888871D02*
X96305258Y-46888871D01*
X96305258Y-46888871D02*
X96400496Y-46841252D01*
X97019544Y-47269824D02*
X96924306Y-47222205D01*
X96924306Y-47222205D02*
X96876687Y-47126966D01*
X96876687Y-47126966D02*
X96876687Y-46269824D01*
X97781449Y-47222205D02*
X97686211Y-47269824D01*
X97686211Y-47269824D02*
X97495735Y-47269824D01*
X97495735Y-47269824D02*
X97400497Y-47222205D01*
X97400497Y-47222205D02*
X97352878Y-47126966D01*
X97352878Y-47126966D02*
X97352878Y-46746014D01*
X97352878Y-46746014D02*
X97400497Y-46650776D01*
X97400497Y-46650776D02*
X97495735Y-46603157D01*
X97495735Y-46603157D02*
X97686211Y-46603157D01*
X97686211Y-46603157D02*
X97781449Y-46650776D01*
X97781449Y-46650776D02*
X97829068Y-46746014D01*
X97829068Y-46746014D02*
X97829068Y-46841252D01*
X97829068Y-46841252D02*
X97352878Y-46936490D01*
X98257640Y-46888871D02*
X99019545Y-46888871D01*
X100067163Y-47174585D02*
X100019544Y-47222205D01*
X100019544Y-47222205D02*
X99876687Y-47269824D01*
X99876687Y-47269824D02*
X99781449Y-47269824D01*
X99781449Y-47269824D02*
X99638592Y-47222205D01*
X99638592Y-47222205D02*
X99543354Y-47126966D01*
X99543354Y-47126966D02*
X99495735Y-47031728D01*
X99495735Y-47031728D02*
X99448116Y-46841252D01*
X99448116Y-46841252D02*
X99448116Y-46698395D01*
X99448116Y-46698395D02*
X99495735Y-46507919D01*
X99495735Y-46507919D02*
X99543354Y-46412681D01*
X99543354Y-46412681D02*
X99638592Y-46317443D01*
X99638592Y-46317443D02*
X99781449Y-46269824D01*
X99781449Y-46269824D02*
X99876687Y-46269824D01*
X99876687Y-46269824D02*
X100019544Y-46317443D01*
X100019544Y-46317443D02*
X100067163Y-46365062D01*
X100638592Y-47269824D02*
X100543354Y-47222205D01*
X100543354Y-47222205D02*
X100495735Y-47174585D01*
X100495735Y-47174585D02*
X100448116Y-47079347D01*
X100448116Y-47079347D02*
X100448116Y-46793633D01*
X100448116Y-46793633D02*
X100495735Y-46698395D01*
X100495735Y-46698395D02*
X100543354Y-46650776D01*
X100543354Y-46650776D02*
X100638592Y-46603157D01*
X100638592Y-46603157D02*
X100781449Y-46603157D01*
X100781449Y-46603157D02*
X100876687Y-46650776D01*
X100876687Y-46650776D02*
X100924306Y-46698395D01*
X100924306Y-46698395D02*
X100971925Y-46793633D01*
X100971925Y-46793633D02*
X100971925Y-47079347D01*
X100971925Y-47079347D02*
X100924306Y-47174585D01*
X100924306Y-47174585D02*
X100876687Y-47222205D01*
X100876687Y-47222205D02*
X100781449Y-47269824D01*
X100781449Y-47269824D02*
X100638592Y-47269824D01*
X101400497Y-46603157D02*
X101400497Y-47269824D01*
X101400497Y-46698395D02*
X101448116Y-46650776D01*
X101448116Y-46650776D02*
X101543354Y-46603157D01*
X101543354Y-46603157D02*
X101686211Y-46603157D01*
X101686211Y-46603157D02*
X101781449Y-46650776D01*
X101781449Y-46650776D02*
X101829068Y-46746014D01*
X101829068Y-46746014D02*
X101829068Y-47269824D01*
X102305259Y-46603157D02*
X102305259Y-47269824D01*
X102305259Y-46698395D02*
X102352878Y-46650776D01*
X102352878Y-46650776D02*
X102448116Y-46603157D01*
X102448116Y-46603157D02*
X102590973Y-46603157D01*
X102590973Y-46603157D02*
X102686211Y-46650776D01*
X102686211Y-46650776D02*
X102733830Y-46746014D01*
X102733830Y-46746014D02*
X102733830Y-47269824D01*
X103590973Y-47222205D02*
X103495735Y-47269824D01*
X103495735Y-47269824D02*
X103305259Y-47269824D01*
X103305259Y-47269824D02*
X103210021Y-47222205D01*
X103210021Y-47222205D02*
X103162402Y-47126966D01*
X103162402Y-47126966D02*
X103162402Y-46746014D01*
X103162402Y-46746014D02*
X103210021Y-46650776D01*
X103210021Y-46650776D02*
X103305259Y-46603157D01*
X103305259Y-46603157D02*
X103495735Y-46603157D01*
X103495735Y-46603157D02*
X103590973Y-46650776D01*
X103590973Y-46650776D02*
X103638592Y-46746014D01*
X103638592Y-46746014D02*
X103638592Y-46841252D01*
X103638592Y-46841252D02*
X103162402Y-46936490D01*
X104495735Y-47222205D02*
X104400497Y-47269824D01*
X104400497Y-47269824D02*
X104210021Y-47269824D01*
X104210021Y-47269824D02*
X104114783Y-47222205D01*
X104114783Y-47222205D02*
X104067164Y-47174585D01*
X104067164Y-47174585D02*
X104019545Y-47079347D01*
X104019545Y-47079347D02*
X104019545Y-46793633D01*
X104019545Y-46793633D02*
X104067164Y-46698395D01*
X104067164Y-46698395D02*
X104114783Y-46650776D01*
X104114783Y-46650776D02*
X104210021Y-46603157D01*
X104210021Y-46603157D02*
X104400497Y-46603157D01*
X104400497Y-46603157D02*
X104495735Y-46650776D01*
X104781450Y-46603157D02*
X105162402Y-46603157D01*
X104924307Y-46269824D02*
X104924307Y-47126966D01*
X104924307Y-47126966D02*
X104971926Y-47222205D01*
X104971926Y-47222205D02*
X105067164Y-47269824D01*
X105067164Y-47269824D02*
X105162402Y-47269824D01*
X105638593Y-47269824D02*
X105543355Y-47222205D01*
X105543355Y-47222205D02*
X105495736Y-47174585D01*
X105495736Y-47174585D02*
X105448117Y-47079347D01*
X105448117Y-47079347D02*
X105448117Y-46793633D01*
X105448117Y-46793633D02*
X105495736Y-46698395D01*
X105495736Y-46698395D02*
X105543355Y-46650776D01*
X105543355Y-46650776D02*
X105638593Y-46603157D01*
X105638593Y-46603157D02*
X105781450Y-46603157D01*
X105781450Y-46603157D02*
X105876688Y-46650776D01*
X105876688Y-46650776D02*
X105924307Y-46698395D01*
X105924307Y-46698395D02*
X105971926Y-46793633D01*
X105971926Y-46793633D02*
X105971926Y-47079347D01*
X105971926Y-47079347D02*
X105924307Y-47174585D01*
X105924307Y-47174585D02*
X105876688Y-47222205D01*
X105876688Y-47222205D02*
X105781450Y-47269824D01*
X105781450Y-47269824D02*
X105638593Y-47269824D01*
X106400498Y-47269824D02*
X106400498Y-46603157D01*
X106400498Y-46793633D02*
X106448117Y-46698395D01*
X106448117Y-46698395D02*
X106495736Y-46650776D01*
X106495736Y-46650776D02*
X106590974Y-46603157D01*
X106590974Y-46603157D02*
X106686212Y-46603157D01*
X68210979Y-73169411D02*
X68210979Y-74169411D01*
X67163361Y-73264650D02*
X67210980Y-73217031D01*
X67210980Y-73217031D02*
X67353837Y-73169411D01*
X67353837Y-73169411D02*
X67449075Y-73169411D01*
X67449075Y-73169411D02*
X67591932Y-73217031D01*
X67591932Y-73217031D02*
X67687170Y-73312269D01*
X67687170Y-73312269D02*
X67734789Y-73407507D01*
X67734789Y-73407507D02*
X67782408Y-73597983D01*
X67782408Y-73597983D02*
X67782408Y-73740840D01*
X67782408Y-73740840D02*
X67734789Y-73931316D01*
X67734789Y-73931316D02*
X67687170Y-74026554D01*
X67687170Y-74026554D02*
X67591932Y-74121792D01*
X67591932Y-74121792D02*
X67449075Y-74169411D01*
X67449075Y-74169411D02*
X67353837Y-74169411D01*
X67353837Y-74169411D02*
X67210980Y-74121792D01*
X67210980Y-74121792D02*
X67163361Y-74074173D01*
X66734789Y-73169411D02*
X66734789Y-74169411D01*
X66734789Y-74169411D02*
X66401456Y-73455126D01*
X66401456Y-73455126D02*
X66068123Y-74169411D01*
X66068123Y-74169411D02*
X66068123Y-73169411D01*
X65591932Y-73550364D02*
X64830028Y-73550364D01*
X64401456Y-74074173D02*
X64353837Y-74121792D01*
X64353837Y-74121792D02*
X64258599Y-74169411D01*
X64258599Y-74169411D02*
X64020504Y-74169411D01*
X64020504Y-74169411D02*
X63925266Y-74121792D01*
X63925266Y-74121792D02*
X63877647Y-74074173D01*
X63877647Y-74074173D02*
X63830028Y-73978935D01*
X63830028Y-73978935D02*
X63830028Y-73883697D01*
X63830028Y-73883697D02*
X63877647Y-73740840D01*
X63877647Y-73740840D02*
X64449075Y-73169411D01*
X64449075Y-73169411D02*
X63830028Y-73169411D01*
X63210980Y-74169411D02*
X63115742Y-74169411D01*
X63115742Y-74169411D02*
X63020504Y-74121792D01*
X63020504Y-74121792D02*
X62972885Y-74074173D01*
X62972885Y-74074173D02*
X62925266Y-73978935D01*
X62925266Y-73978935D02*
X62877647Y-73788459D01*
X62877647Y-73788459D02*
X62877647Y-73550364D01*
X62877647Y-73550364D02*
X62925266Y-73359888D01*
X62925266Y-73359888D02*
X62972885Y-73264650D01*
X62972885Y-73264650D02*
X63020504Y-73217031D01*
X63020504Y-73217031D02*
X63115742Y-73169411D01*
X63115742Y-73169411D02*
X63210980Y-73169411D01*
X63210980Y-73169411D02*
X63306218Y-73217031D01*
X63306218Y-73217031D02*
X63353837Y-73264650D01*
X63353837Y-73264650D02*
X63401456Y-73359888D01*
X63401456Y-73359888D02*
X63449075Y-73550364D01*
X63449075Y-73550364D02*
X63449075Y-73788459D01*
X63449075Y-73788459D02*
X63401456Y-73978935D01*
X63401456Y-73978935D02*
X63353837Y-74074173D01*
X63353837Y-74074173D02*
X63306218Y-74121792D01*
X63306218Y-74121792D02*
X63210980Y-74169411D01*
X62401456Y-73169411D02*
X62210980Y-73169411D01*
X62210980Y-73169411D02*
X62115742Y-73217031D01*
X62115742Y-73217031D02*
X62068123Y-73264650D01*
X62068123Y-73264650D02*
X61972885Y-73407507D01*
X61972885Y-73407507D02*
X61925266Y-73597983D01*
X61925266Y-73597983D02*
X61925266Y-73978935D01*
X61925266Y-73978935D02*
X61972885Y-74074173D01*
X61972885Y-74074173D02*
X62020504Y-74121792D01*
X62020504Y-74121792D02*
X62115742Y-74169411D01*
X62115742Y-74169411D02*
X62306218Y-74169411D01*
X62306218Y-74169411D02*
X62401456Y-74121792D01*
X62401456Y-74121792D02*
X62449075Y-74074173D01*
X62449075Y-74074173D02*
X62496694Y-73978935D01*
X62496694Y-73978935D02*
X62496694Y-73740840D01*
X62496694Y-73740840D02*
X62449075Y-73645602D01*
X62449075Y-73645602D02*
X62401456Y-73597983D01*
X62401456Y-73597983D02*
X62306218Y-73550364D01*
X62306218Y-73550364D02*
X62115742Y-73550364D01*
X62115742Y-73550364D02*
X62020504Y-73597983D01*
X62020504Y-73597983D02*
X61972885Y-73645602D01*
X61972885Y-73645602D02*
X61925266Y-73740840D01*
X61068123Y-73836078D02*
X61068123Y-73169411D01*
X61306218Y-74217031D02*
X61544313Y-73502745D01*
X61544313Y-73502745D02*
X60925266Y-73502745D01*
X60401456Y-73740840D02*
X60496694Y-73788459D01*
X60496694Y-73788459D02*
X60544313Y-73836078D01*
X60544313Y-73836078D02*
X60591932Y-73931316D01*
X60591932Y-73931316D02*
X60591932Y-73978935D01*
X60591932Y-73978935D02*
X60544313Y-74074173D01*
X60544313Y-74074173D02*
X60496694Y-74121792D01*
X60496694Y-74121792D02*
X60401456Y-74169411D01*
X60401456Y-74169411D02*
X60210980Y-74169411D01*
X60210980Y-74169411D02*
X60115742Y-74121792D01*
X60115742Y-74121792D02*
X60068123Y-74074173D01*
X60068123Y-74074173D02*
X60020504Y-73978935D01*
X60020504Y-73978935D02*
X60020504Y-73931316D01*
X60020504Y-73931316D02*
X60068123Y-73836078D01*
X60068123Y-73836078D02*
X60115742Y-73788459D01*
X60115742Y-73788459D02*
X60210980Y-73740840D01*
X60210980Y-73740840D02*
X60401456Y-73740840D01*
X60401456Y-73740840D02*
X60496694Y-73693221D01*
X60496694Y-73693221D02*
X60544313Y-73645602D01*
X60544313Y-73645602D02*
X60591932Y-73550364D01*
X60591932Y-73550364D02*
X60591932Y-73359888D01*
X60591932Y-73359888D02*
X60544313Y-73264650D01*
X60544313Y-73264650D02*
X60496694Y-73217031D01*
X60496694Y-73217031D02*
X60401456Y-73169411D01*
X60401456Y-73169411D02*
X60210980Y-73169411D01*
X60210980Y-73169411D02*
X60115742Y-73217031D01*
X60115742Y-73217031D02*
X60068123Y-73264650D01*
X60068123Y-73264650D02*
X60020504Y-73359888D01*
X60020504Y-73359888D02*
X60020504Y-73550364D01*
X60020504Y-73550364D02*
X60068123Y-73645602D01*
X60068123Y-73645602D02*
X60115742Y-73693221D01*
X60115742Y-73693221D02*
X60210980Y-73740840D01*
X76453418Y-70846135D02*
X77262941Y-70846135D01*
X77262941Y-70846135D02*
X77358179Y-70798516D01*
X77358179Y-70798516D02*
X77405799Y-70750897D01*
X77405799Y-70750897D02*
X77453418Y-70655659D01*
X77453418Y-70655659D02*
X77453418Y-70465183D01*
X77453418Y-70465183D02*
X77405799Y-70369945D01*
X77405799Y-70369945D02*
X77358179Y-70322326D01*
X77358179Y-70322326D02*
X77262941Y-70274707D01*
X77262941Y-70274707D02*
X76453418Y-70274707D01*
X76786751Y-69369945D02*
X77453418Y-69369945D01*
X76405799Y-69608040D02*
X77120084Y-69846135D01*
X77120084Y-69846135D02*
X77120084Y-69227088D01*
X68293418Y-69156846D02*
X69102941Y-69156846D01*
X69102941Y-69156846D02*
X69198179Y-69109227D01*
X69198179Y-69109227D02*
X69245799Y-69061608D01*
X69245799Y-69061608D02*
X69293418Y-68966370D01*
X69293418Y-68966370D02*
X69293418Y-68775894D01*
X69293418Y-68775894D02*
X69245799Y-68680656D01*
X69245799Y-68680656D02*
X69198179Y-68633037D01*
X69198179Y-68633037D02*
X69102941Y-68585418D01*
X69102941Y-68585418D02*
X68293418Y-68585418D01*
X68626751Y-67680656D02*
X69293418Y-67680656D01*
X68245799Y-67918751D02*
X68960084Y-68156846D01*
X68960084Y-68156846D02*
X68960084Y-67537799D01*
X77553418Y-70846135D02*
X78362941Y-70846135D01*
X78362941Y-70846135D02*
X78458179Y-70798516D01*
X78458179Y-70798516D02*
X78505799Y-70750897D01*
X78505799Y-70750897D02*
X78553418Y-70655659D01*
X78553418Y-70655659D02*
X78553418Y-70465183D01*
X78553418Y-70465183D02*
X78505799Y-70369945D01*
X78505799Y-70369945D02*
X78458179Y-70322326D01*
X78458179Y-70322326D02*
X78362941Y-70274707D01*
X78362941Y-70274707D02*
X77553418Y-70274707D01*
X77886751Y-69369945D02*
X78553418Y-69369945D01*
X77505799Y-69608040D02*
X78220084Y-69846135D01*
X78220084Y-69846135D02*
X78220084Y-69227088D01*
X98885714Y-46004819D02*
X98552381Y-45528628D01*
X98314286Y-46004819D02*
X98314286Y-45004819D01*
X98314286Y-45004819D02*
X98695238Y-45004819D01*
X98695238Y-45004819D02*
X98790476Y-45052438D01*
X98790476Y-45052438D02*
X98838095Y-45100057D01*
X98838095Y-45100057D02*
X98885714Y-45195295D01*
X98885714Y-45195295D02*
X98885714Y-45338152D01*
X98885714Y-45338152D02*
X98838095Y-45433390D01*
X98838095Y-45433390D02*
X98790476Y-45481009D01*
X98790476Y-45481009D02*
X98695238Y-45528628D01*
X98695238Y-45528628D02*
X98314286Y-45528628D01*
X99314286Y-45623866D02*
X100076191Y-45623866D01*
X100552381Y-46004819D02*
X100552381Y-45004819D01*
X100552381Y-45004819D02*
X100790476Y-45004819D01*
X100790476Y-45004819D02*
X100933333Y-45052438D01*
X100933333Y-45052438D02*
X101028571Y-45147676D01*
X101028571Y-45147676D02*
X101076190Y-45242914D01*
X101076190Y-45242914D02*
X101123809Y-45433390D01*
X101123809Y-45433390D02*
X101123809Y-45576247D01*
X101123809Y-45576247D02*
X101076190Y-45766723D01*
X101076190Y-45766723D02*
X101028571Y-45861961D01*
X101028571Y-45861961D02*
X100933333Y-45957200D01*
X100933333Y-45957200D02*
X100790476Y-46004819D01*
X100790476Y-46004819D02*
X100552381Y-46004819D01*
X101933333Y-45957200D02*
X101838095Y-46004819D01*
X101838095Y-46004819D02*
X101647619Y-46004819D01*
X101647619Y-46004819D02*
X101552381Y-45957200D01*
X101552381Y-45957200D02*
X101504762Y-45861961D01*
X101504762Y-45861961D02*
X101504762Y-45481009D01*
X101504762Y-45481009D02*
X101552381Y-45385771D01*
X101552381Y-45385771D02*
X101647619Y-45338152D01*
X101647619Y-45338152D02*
X101838095Y-45338152D01*
X101838095Y-45338152D02*
X101933333Y-45385771D01*
X101933333Y-45385771D02*
X101980952Y-45481009D01*
X101980952Y-45481009D02*
X101980952Y-45576247D01*
X101980952Y-45576247D02*
X101504762Y-45671485D01*
X102314286Y-45338152D02*
X102552381Y-46004819D01*
X102552381Y-46004819D02*
X102790476Y-45338152D01*
X103171429Y-46004819D02*
X103171429Y-45338152D01*
X103171429Y-45004819D02*
X103123810Y-45052438D01*
X103123810Y-45052438D02*
X103171429Y-45100057D01*
X103171429Y-45100057D02*
X103219048Y-45052438D01*
X103219048Y-45052438D02*
X103171429Y-45004819D01*
X103171429Y-45004819D02*
X103171429Y-45100057D01*
X104076190Y-45957200D02*
X103980952Y-46004819D01*
X103980952Y-46004819D02*
X103790476Y-46004819D01*
X103790476Y-46004819D02*
X103695238Y-45957200D01*
X103695238Y-45957200D02*
X103647619Y-45909580D01*
X103647619Y-45909580D02*
X103600000Y-45814342D01*
X103600000Y-45814342D02*
X103600000Y-45528628D01*
X103600000Y-45528628D02*
X103647619Y-45433390D01*
X103647619Y-45433390D02*
X103695238Y-45385771D01*
X103695238Y-45385771D02*
X103790476Y-45338152D01*
X103790476Y-45338152D02*
X103980952Y-45338152D01*
X103980952Y-45338152D02*
X104076190Y-45385771D01*
X104885714Y-45957200D02*
X104790476Y-46004819D01*
X104790476Y-46004819D02*
X104600000Y-46004819D01*
X104600000Y-46004819D02*
X104504762Y-45957200D01*
X104504762Y-45957200D02*
X104457143Y-45861961D01*
X104457143Y-45861961D02*
X104457143Y-45481009D01*
X104457143Y-45481009D02*
X104504762Y-45385771D01*
X104504762Y-45385771D02*
X104600000Y-45338152D01*
X104600000Y-45338152D02*
X104790476Y-45338152D01*
X104790476Y-45338152D02*
X104885714Y-45385771D01*
X104885714Y-45385771D02*
X104933333Y-45481009D01*
X104933333Y-45481009D02*
X104933333Y-45576247D01*
X104933333Y-45576247D02*
X104457143Y-45671485D01*
X101433333Y-43634819D02*
X101100000Y-43158628D01*
X100861905Y-43634819D02*
X100861905Y-42634819D01*
X100861905Y-42634819D02*
X101242857Y-42634819D01*
X101242857Y-42634819D02*
X101338095Y-42682438D01*
X101338095Y-42682438D02*
X101385714Y-42730057D01*
X101385714Y-42730057D02*
X101433333Y-42825295D01*
X101433333Y-42825295D02*
X101433333Y-42968152D01*
X101433333Y-42968152D02*
X101385714Y-43063390D01*
X101385714Y-43063390D02*
X101338095Y-43111009D01*
X101338095Y-43111009D02*
X101242857Y-43158628D01*
X101242857Y-43158628D02*
X100861905Y-43158628D01*
X101814286Y-42730057D02*
X101861905Y-42682438D01*
X101861905Y-42682438D02*
X101957143Y-42634819D01*
X101957143Y-42634819D02*
X102195238Y-42634819D01*
X102195238Y-42634819D02*
X102290476Y-42682438D01*
X102290476Y-42682438D02*
X102338095Y-42730057D01*
X102338095Y-42730057D02*
X102385714Y-42825295D01*
X102385714Y-42825295D02*
X102385714Y-42920533D01*
X102385714Y-42920533D02*
X102338095Y-43063390D01*
X102338095Y-43063390D02*
X101766667Y-43634819D01*
X101766667Y-43634819D02*
X102385714Y-43634819D01*
X161905645Y-68370375D02*
X161572312Y-67894184D01*
X161334217Y-68370375D02*
X161334217Y-67370375D01*
X161334217Y-67370375D02*
X161715169Y-67370375D01*
X161715169Y-67370375D02*
X161810407Y-67417994D01*
X161810407Y-67417994D02*
X161858026Y-67465613D01*
X161858026Y-67465613D02*
X161905645Y-67560851D01*
X161905645Y-67560851D02*
X161905645Y-67703708D01*
X161905645Y-67703708D02*
X161858026Y-67798946D01*
X161858026Y-67798946D02*
X161810407Y-67846565D01*
X161810407Y-67846565D02*
X161715169Y-67894184D01*
X161715169Y-67894184D02*
X161334217Y-67894184D01*
X162667550Y-67846565D02*
X162334217Y-67846565D01*
X162334217Y-68370375D02*
X162334217Y-67370375D01*
X162334217Y-67370375D02*
X162810407Y-67370375D01*
X163191360Y-68370375D02*
X163191360Y-67370375D01*
X163191360Y-67370375D02*
X163429455Y-67370375D01*
X163429455Y-67370375D02*
X163572312Y-67417994D01*
X163572312Y-67417994D02*
X163667550Y-67513232D01*
X163667550Y-67513232D02*
X163715169Y-67608470D01*
X163715169Y-67608470D02*
X163762788Y-67798946D01*
X163762788Y-67798946D02*
X163762788Y-67941803D01*
X163762788Y-67941803D02*
X163715169Y-68132279D01*
X163715169Y-68132279D02*
X163667550Y-68227517D01*
X163667550Y-68227517D02*
X163572312Y-68322756D01*
X163572312Y-68322756D02*
X163429455Y-68370375D01*
X163429455Y-68370375D02*
X163191360Y-68370375D01*
X164238979Y-68370375D02*
X164429455Y-68370375D01*
X164429455Y-68370375D02*
X164524693Y-68322756D01*
X164524693Y-68322756D02*
X164572312Y-68275136D01*
X164572312Y-68275136D02*
X164667550Y-68132279D01*
X164667550Y-68132279D02*
X164715169Y-67941803D01*
X164715169Y-67941803D02*
X164715169Y-67560851D01*
X164715169Y-67560851D02*
X164667550Y-67465613D01*
X164667550Y-67465613D02*
X164619931Y-67417994D01*
X164619931Y-67417994D02*
X164524693Y-67370375D01*
X164524693Y-67370375D02*
X164334217Y-67370375D01*
X164334217Y-67370375D02*
X164238979Y-67417994D01*
X164238979Y-67417994D02*
X164191360Y-67465613D01*
X164191360Y-67465613D02*
X164143741Y-67560851D01*
X164143741Y-67560851D02*
X164143741Y-67798946D01*
X164143741Y-67798946D02*
X164191360Y-67894184D01*
X164191360Y-67894184D02*
X164238979Y-67941803D01*
X164238979Y-67941803D02*
X164334217Y-67989422D01*
X164334217Y-67989422D02*
X164524693Y-67989422D01*
X164524693Y-67989422D02*
X164619931Y-67941803D01*
X164619931Y-67941803D02*
X164667550Y-67894184D01*
X164667550Y-67894184D02*
X164715169Y-67798946D01*
X165334217Y-67370375D02*
X165429455Y-67370375D01*
X165429455Y-67370375D02*
X165524693Y-67417994D01*
X165524693Y-67417994D02*
X165572312Y-67465613D01*
X165572312Y-67465613D02*
X165619931Y-67560851D01*
X165619931Y-67560851D02*
X165667550Y-67751327D01*
X165667550Y-67751327D02*
X165667550Y-67989422D01*
X165667550Y-67989422D02*
X165619931Y-68179898D01*
X165619931Y-68179898D02*
X165572312Y-68275136D01*
X165572312Y-68275136D02*
X165524693Y-68322756D01*
X165524693Y-68322756D02*
X165429455Y-68370375D01*
X165429455Y-68370375D02*
X165334217Y-68370375D01*
X165334217Y-68370375D02*
X165238979Y-68322756D01*
X165238979Y-68322756D02*
X165191360Y-68275136D01*
X165191360Y-68275136D02*
X165143741Y-68179898D01*
X165143741Y-68179898D02*
X165096122Y-67989422D01*
X165096122Y-67989422D02*
X165096122Y-67751327D01*
X165096122Y-67751327D02*
X165143741Y-67560851D01*
X165143741Y-67560851D02*
X165191360Y-67465613D01*
X165191360Y-67465613D02*
X165238979Y-67417994D01*
X165238979Y-67417994D02*
X165334217Y-67370375D01*
X166286598Y-67370375D02*
X166381836Y-67370375D01*
X166381836Y-67370375D02*
X166477074Y-67417994D01*
X166477074Y-67417994D02*
X166524693Y-67465613D01*
X166524693Y-67465613D02*
X166572312Y-67560851D01*
X166572312Y-67560851D02*
X166619931Y-67751327D01*
X166619931Y-67751327D02*
X166619931Y-67989422D01*
X166619931Y-67989422D02*
X166572312Y-68179898D01*
X166572312Y-68179898D02*
X166524693Y-68275136D01*
X166524693Y-68275136D02*
X166477074Y-68322756D01*
X166477074Y-68322756D02*
X166381836Y-68370375D01*
X166381836Y-68370375D02*
X166286598Y-68370375D01*
X166286598Y-68370375D02*
X166191360Y-68322756D01*
X166191360Y-68322756D02*
X166143741Y-68275136D01*
X166143741Y-68275136D02*
X166096122Y-68179898D01*
X166096122Y-68179898D02*
X166048503Y-67989422D01*
X166048503Y-67989422D02*
X166048503Y-67751327D01*
X166048503Y-67751327D02*
X166096122Y-67560851D01*
X166096122Y-67560851D02*
X166143741Y-67465613D01*
X166143741Y-67465613D02*
X166191360Y-67417994D01*
X166191360Y-67417994D02*
X166286598Y-67370375D01*
X167048503Y-67989422D02*
X167810408Y-67989422D01*
X167429455Y-68370375D02*
X167429455Y-67608470D01*
X172192131Y-25642460D02*
X173001654Y-25642460D01*
X173001654Y-25642460D02*
X173096892Y-25594841D01*
X173096892Y-25594841D02*
X173144512Y-25547222D01*
X173144512Y-25547222D02*
X173192131Y-25451984D01*
X173192131Y-25451984D02*
X173192131Y-25261508D01*
X173192131Y-25261508D02*
X173144512Y-25166270D01*
X173144512Y-25166270D02*
X173096892Y-25118651D01*
X173096892Y-25118651D02*
X173001654Y-25071032D01*
X173001654Y-25071032D02*
X172192131Y-25071032D01*
X173192131Y-24071032D02*
X173192131Y-24642460D01*
X173192131Y-24356746D02*
X172192131Y-24356746D01*
X172192131Y-24356746D02*
X172334988Y-24451984D01*
X172334988Y-24451984D02*
X172430226Y-24547222D01*
X172430226Y-24547222D02*
X172477845Y-24642460D01*
X171148816Y-85537777D02*
X170815483Y-85061586D01*
X170577388Y-85537777D02*
X170577388Y-84537777D01*
X170577388Y-84537777D02*
X170958340Y-84537777D01*
X170958340Y-84537777D02*
X171053578Y-84585396D01*
X171053578Y-84585396D02*
X171101197Y-84633015D01*
X171101197Y-84633015D02*
X171148816Y-84728253D01*
X171148816Y-84728253D02*
X171148816Y-84871110D01*
X171148816Y-84871110D02*
X171101197Y-84966348D01*
X171101197Y-84966348D02*
X171053578Y-85013967D01*
X171053578Y-85013967D02*
X170958340Y-85061586D01*
X170958340Y-85061586D02*
X170577388Y-85061586D01*
X171577388Y-85156824D02*
X172339293Y-85156824D01*
X172815483Y-85537777D02*
X172815483Y-84537777D01*
X172815483Y-84537777D02*
X173053578Y-84537777D01*
X173053578Y-84537777D02*
X173196435Y-84585396D01*
X173196435Y-84585396D02*
X173291673Y-84680634D01*
X173291673Y-84680634D02*
X173339292Y-84775872D01*
X173339292Y-84775872D02*
X173386911Y-84966348D01*
X173386911Y-84966348D02*
X173386911Y-85109205D01*
X173386911Y-85109205D02*
X173339292Y-85299681D01*
X173339292Y-85299681D02*
X173291673Y-85394919D01*
X173291673Y-85394919D02*
X173196435Y-85490158D01*
X173196435Y-85490158D02*
X173053578Y-85537777D01*
X173053578Y-85537777D02*
X172815483Y-85537777D01*
X174196435Y-85490158D02*
X174101197Y-85537777D01*
X174101197Y-85537777D02*
X173910721Y-85537777D01*
X173910721Y-85537777D02*
X173815483Y-85490158D01*
X173815483Y-85490158D02*
X173767864Y-85394919D01*
X173767864Y-85394919D02*
X173767864Y-85013967D01*
X173767864Y-85013967D02*
X173815483Y-84918729D01*
X173815483Y-84918729D02*
X173910721Y-84871110D01*
X173910721Y-84871110D02*
X174101197Y-84871110D01*
X174101197Y-84871110D02*
X174196435Y-84918729D01*
X174196435Y-84918729D02*
X174244054Y-85013967D01*
X174244054Y-85013967D02*
X174244054Y-85109205D01*
X174244054Y-85109205D02*
X173767864Y-85204443D01*
X174577388Y-84871110D02*
X174815483Y-85537777D01*
X174815483Y-85537777D02*
X175053578Y-84871110D01*
X175434531Y-85537777D02*
X175434531Y-84871110D01*
X175434531Y-84537777D02*
X175386912Y-84585396D01*
X175386912Y-84585396D02*
X175434531Y-84633015D01*
X175434531Y-84633015D02*
X175482150Y-84585396D01*
X175482150Y-84585396D02*
X175434531Y-84537777D01*
X175434531Y-84537777D02*
X175434531Y-84633015D01*
X176339292Y-85490158D02*
X176244054Y-85537777D01*
X176244054Y-85537777D02*
X176053578Y-85537777D01*
X176053578Y-85537777D02*
X175958340Y-85490158D01*
X175958340Y-85490158D02*
X175910721Y-85442538D01*
X175910721Y-85442538D02*
X175863102Y-85347300D01*
X175863102Y-85347300D02*
X175863102Y-85061586D01*
X175863102Y-85061586D02*
X175910721Y-84966348D01*
X175910721Y-84966348D02*
X175958340Y-84918729D01*
X175958340Y-84918729D02*
X176053578Y-84871110D01*
X176053578Y-84871110D02*
X176244054Y-84871110D01*
X176244054Y-84871110D02*
X176339292Y-84918729D01*
X177148816Y-85490158D02*
X177053578Y-85537777D01*
X177053578Y-85537777D02*
X176863102Y-85537777D01*
X176863102Y-85537777D02*
X176767864Y-85490158D01*
X176767864Y-85490158D02*
X176720245Y-85394919D01*
X176720245Y-85394919D02*
X176720245Y-85013967D01*
X176720245Y-85013967D02*
X176767864Y-84918729D01*
X176767864Y-84918729D02*
X176863102Y-84871110D01*
X176863102Y-84871110D02*
X177053578Y-84871110D01*
X177053578Y-84871110D02*
X177148816Y-84918729D01*
X177148816Y-84918729D02*
X177196435Y-85013967D01*
X177196435Y-85013967D02*
X177196435Y-85109205D01*
X177196435Y-85109205D02*
X176720245Y-85204443D01*
X173696435Y-83167777D02*
X173363102Y-82691586D01*
X173125007Y-83167777D02*
X173125007Y-82167777D01*
X173125007Y-82167777D02*
X173505959Y-82167777D01*
X173505959Y-82167777D02*
X173601197Y-82215396D01*
X173601197Y-82215396D02*
X173648816Y-82263015D01*
X173648816Y-82263015D02*
X173696435Y-82358253D01*
X173696435Y-82358253D02*
X173696435Y-82501110D01*
X173696435Y-82501110D02*
X173648816Y-82596348D01*
X173648816Y-82596348D02*
X173601197Y-82643967D01*
X173601197Y-82643967D02*
X173505959Y-82691586D01*
X173505959Y-82691586D02*
X173125007Y-82691586D01*
X174029769Y-82167777D02*
X174648816Y-82167777D01*
X174648816Y-82167777D02*
X174315483Y-82548729D01*
X174315483Y-82548729D02*
X174458340Y-82548729D01*
X174458340Y-82548729D02*
X174553578Y-82596348D01*
X174553578Y-82596348D02*
X174601197Y-82643967D01*
X174601197Y-82643967D02*
X174648816Y-82739205D01*
X174648816Y-82739205D02*
X174648816Y-82977300D01*
X174648816Y-82977300D02*
X174601197Y-83072538D01*
X174601197Y-83072538D02*
X174553578Y-83120158D01*
X174553578Y-83120158D02*
X174458340Y-83167777D01*
X174458340Y-83167777D02*
X174172626Y-83167777D01*
X174172626Y-83167777D02*
X174077388Y-83120158D01*
X174077388Y-83120158D02*
X174029769Y-83072538D01*
X171148816Y-89699106D02*
X170815483Y-89222915D01*
X170577388Y-89699106D02*
X170577388Y-88699106D01*
X170577388Y-88699106D02*
X170958340Y-88699106D01*
X170958340Y-88699106D02*
X171053578Y-88746725D01*
X171053578Y-88746725D02*
X171101197Y-88794344D01*
X171101197Y-88794344D02*
X171148816Y-88889582D01*
X171148816Y-88889582D02*
X171148816Y-89032439D01*
X171148816Y-89032439D02*
X171101197Y-89127677D01*
X171101197Y-89127677D02*
X171053578Y-89175296D01*
X171053578Y-89175296D02*
X170958340Y-89222915D01*
X170958340Y-89222915D02*
X170577388Y-89222915D01*
X171577388Y-89318153D02*
X172339293Y-89318153D01*
X172815483Y-89699106D02*
X172815483Y-88699106D01*
X172815483Y-88699106D02*
X173053578Y-88699106D01*
X173053578Y-88699106D02*
X173196435Y-88746725D01*
X173196435Y-88746725D02*
X173291673Y-88841963D01*
X173291673Y-88841963D02*
X173339292Y-88937201D01*
X173339292Y-88937201D02*
X173386911Y-89127677D01*
X173386911Y-89127677D02*
X173386911Y-89270534D01*
X173386911Y-89270534D02*
X173339292Y-89461010D01*
X173339292Y-89461010D02*
X173291673Y-89556248D01*
X173291673Y-89556248D02*
X173196435Y-89651487D01*
X173196435Y-89651487D02*
X173053578Y-89699106D01*
X173053578Y-89699106D02*
X172815483Y-89699106D01*
X174196435Y-89651487D02*
X174101197Y-89699106D01*
X174101197Y-89699106D02*
X173910721Y-89699106D01*
X173910721Y-89699106D02*
X173815483Y-89651487D01*
X173815483Y-89651487D02*
X173767864Y-89556248D01*
X173767864Y-89556248D02*
X173767864Y-89175296D01*
X173767864Y-89175296D02*
X173815483Y-89080058D01*
X173815483Y-89080058D02*
X173910721Y-89032439D01*
X173910721Y-89032439D02*
X174101197Y-89032439D01*
X174101197Y-89032439D02*
X174196435Y-89080058D01*
X174196435Y-89080058D02*
X174244054Y-89175296D01*
X174244054Y-89175296D02*
X174244054Y-89270534D01*
X174244054Y-89270534D02*
X173767864Y-89365772D01*
X174577388Y-89032439D02*
X174815483Y-89699106D01*
X174815483Y-89699106D02*
X175053578Y-89032439D01*
X175434531Y-89699106D02*
X175434531Y-89032439D01*
X175434531Y-88699106D02*
X175386912Y-88746725D01*
X175386912Y-88746725D02*
X175434531Y-88794344D01*
X175434531Y-88794344D02*
X175482150Y-88746725D01*
X175482150Y-88746725D02*
X175434531Y-88699106D01*
X175434531Y-88699106D02*
X175434531Y-88794344D01*
X176339292Y-89651487D02*
X176244054Y-89699106D01*
X176244054Y-89699106D02*
X176053578Y-89699106D01*
X176053578Y-89699106D02*
X175958340Y-89651487D01*
X175958340Y-89651487D02*
X175910721Y-89603867D01*
X175910721Y-89603867D02*
X175863102Y-89508629D01*
X175863102Y-89508629D02*
X175863102Y-89222915D01*
X175863102Y-89222915D02*
X175910721Y-89127677D01*
X175910721Y-89127677D02*
X175958340Y-89080058D01*
X175958340Y-89080058D02*
X176053578Y-89032439D01*
X176053578Y-89032439D02*
X176244054Y-89032439D01*
X176244054Y-89032439D02*
X176339292Y-89080058D01*
X177148816Y-89651487D02*
X177053578Y-89699106D01*
X177053578Y-89699106D02*
X176863102Y-89699106D01*
X176863102Y-89699106D02*
X176767864Y-89651487D01*
X176767864Y-89651487D02*
X176720245Y-89556248D01*
X176720245Y-89556248D02*
X176720245Y-89175296D01*
X176720245Y-89175296D02*
X176767864Y-89080058D01*
X176767864Y-89080058D02*
X176863102Y-89032439D01*
X176863102Y-89032439D02*
X177053578Y-89032439D01*
X177053578Y-89032439D02*
X177148816Y-89080058D01*
X177148816Y-89080058D02*
X177196435Y-89175296D01*
X177196435Y-89175296D02*
X177196435Y-89270534D01*
X177196435Y-89270534D02*
X176720245Y-89365772D01*
X173696435Y-88409106D02*
X173363102Y-87932915D01*
X173125007Y-88409106D02*
X173125007Y-87409106D01*
X173125007Y-87409106D02*
X173505959Y-87409106D01*
X173505959Y-87409106D02*
X173601197Y-87456725D01*
X173601197Y-87456725D02*
X173648816Y-87504344D01*
X173648816Y-87504344D02*
X173696435Y-87599582D01*
X173696435Y-87599582D02*
X173696435Y-87742439D01*
X173696435Y-87742439D02*
X173648816Y-87837677D01*
X173648816Y-87837677D02*
X173601197Y-87885296D01*
X173601197Y-87885296D02*
X173505959Y-87932915D01*
X173505959Y-87932915D02*
X173125007Y-87932915D01*
X174553578Y-87742439D02*
X174553578Y-88409106D01*
X174315483Y-87361487D02*
X174077388Y-88075772D01*
X174077388Y-88075772D02*
X174696435Y-88075772D01*
X113240853Y-45940855D02*
X112907520Y-45464664D01*
X112669425Y-45940855D02*
X112669425Y-44940855D01*
X112669425Y-44940855D02*
X113050377Y-44940855D01*
X113050377Y-44940855D02*
X113145615Y-44988474D01*
X113145615Y-44988474D02*
X113193234Y-45036093D01*
X113193234Y-45036093D02*
X113240853Y-45131331D01*
X113240853Y-45131331D02*
X113240853Y-45274188D01*
X113240853Y-45274188D02*
X113193234Y-45369426D01*
X113193234Y-45369426D02*
X113145615Y-45417045D01*
X113145615Y-45417045D02*
X113050377Y-45464664D01*
X113050377Y-45464664D02*
X112669425Y-45464664D01*
X113669425Y-45559902D02*
X114431330Y-45559902D01*
X114907520Y-45940855D02*
X114907520Y-44940855D01*
X114907520Y-44940855D02*
X115145615Y-44940855D01*
X115145615Y-44940855D02*
X115288472Y-44988474D01*
X115288472Y-44988474D02*
X115383710Y-45083712D01*
X115383710Y-45083712D02*
X115431329Y-45178950D01*
X115431329Y-45178950D02*
X115478948Y-45369426D01*
X115478948Y-45369426D02*
X115478948Y-45512283D01*
X115478948Y-45512283D02*
X115431329Y-45702759D01*
X115431329Y-45702759D02*
X115383710Y-45797997D01*
X115383710Y-45797997D02*
X115288472Y-45893236D01*
X115288472Y-45893236D02*
X115145615Y-45940855D01*
X115145615Y-45940855D02*
X114907520Y-45940855D01*
X116288472Y-45893236D02*
X116193234Y-45940855D01*
X116193234Y-45940855D02*
X116002758Y-45940855D01*
X116002758Y-45940855D02*
X115907520Y-45893236D01*
X115907520Y-45893236D02*
X115859901Y-45797997D01*
X115859901Y-45797997D02*
X115859901Y-45417045D01*
X115859901Y-45417045D02*
X115907520Y-45321807D01*
X115907520Y-45321807D02*
X116002758Y-45274188D01*
X116002758Y-45274188D02*
X116193234Y-45274188D01*
X116193234Y-45274188D02*
X116288472Y-45321807D01*
X116288472Y-45321807D02*
X116336091Y-45417045D01*
X116336091Y-45417045D02*
X116336091Y-45512283D01*
X116336091Y-45512283D02*
X115859901Y-45607521D01*
X116669425Y-45274188D02*
X116907520Y-45940855D01*
X116907520Y-45940855D02*
X117145615Y-45274188D01*
X117526568Y-45940855D02*
X117526568Y-45274188D01*
X117526568Y-44940855D02*
X117478949Y-44988474D01*
X117478949Y-44988474D02*
X117526568Y-45036093D01*
X117526568Y-45036093D02*
X117574187Y-44988474D01*
X117574187Y-44988474D02*
X117526568Y-44940855D01*
X117526568Y-44940855D02*
X117526568Y-45036093D01*
X118431329Y-45893236D02*
X118336091Y-45940855D01*
X118336091Y-45940855D02*
X118145615Y-45940855D01*
X118145615Y-45940855D02*
X118050377Y-45893236D01*
X118050377Y-45893236D02*
X118002758Y-45845616D01*
X118002758Y-45845616D02*
X117955139Y-45750378D01*
X117955139Y-45750378D02*
X117955139Y-45464664D01*
X117955139Y-45464664D02*
X118002758Y-45369426D01*
X118002758Y-45369426D02*
X118050377Y-45321807D01*
X118050377Y-45321807D02*
X118145615Y-45274188D01*
X118145615Y-45274188D02*
X118336091Y-45274188D01*
X118336091Y-45274188D02*
X118431329Y-45321807D01*
X119240853Y-45893236D02*
X119145615Y-45940855D01*
X119145615Y-45940855D02*
X118955139Y-45940855D01*
X118955139Y-45940855D02*
X118859901Y-45893236D01*
X118859901Y-45893236D02*
X118812282Y-45797997D01*
X118812282Y-45797997D02*
X118812282Y-45417045D01*
X118812282Y-45417045D02*
X118859901Y-45321807D01*
X118859901Y-45321807D02*
X118955139Y-45274188D01*
X118955139Y-45274188D02*
X119145615Y-45274188D01*
X119145615Y-45274188D02*
X119240853Y-45321807D01*
X119240853Y-45321807D02*
X119288472Y-45417045D01*
X119288472Y-45417045D02*
X119288472Y-45512283D01*
X119288472Y-45512283D02*
X118812282Y-45607521D01*
X115788472Y-43570855D02*
X115455139Y-43094664D01*
X115217044Y-43570855D02*
X115217044Y-42570855D01*
X115217044Y-42570855D02*
X115597996Y-42570855D01*
X115597996Y-42570855D02*
X115693234Y-42618474D01*
X115693234Y-42618474D02*
X115740853Y-42666093D01*
X115740853Y-42666093D02*
X115788472Y-42761331D01*
X115788472Y-42761331D02*
X115788472Y-42904188D01*
X115788472Y-42904188D02*
X115740853Y-42999426D01*
X115740853Y-42999426D02*
X115693234Y-43047045D01*
X115693234Y-43047045D02*
X115597996Y-43094664D01*
X115597996Y-43094664D02*
X115217044Y-43094664D01*
X116740853Y-43570855D02*
X116169425Y-43570855D01*
X116455139Y-43570855D02*
X116455139Y-42570855D01*
X116455139Y-42570855D02*
X116359901Y-42713712D01*
X116359901Y-42713712D02*
X116264663Y-42808950D01*
X116264663Y-42808950D02*
X116169425Y-42856569D01*
X148802403Y-81530026D02*
X148754784Y-81577646D01*
X148754784Y-81577646D02*
X148611927Y-81625265D01*
X148611927Y-81625265D02*
X148516689Y-81625265D01*
X148516689Y-81625265D02*
X148373832Y-81577646D01*
X148373832Y-81577646D02*
X148278594Y-81482407D01*
X148278594Y-81482407D02*
X148230975Y-81387169D01*
X148230975Y-81387169D02*
X148183356Y-81196693D01*
X148183356Y-81196693D02*
X148183356Y-81053836D01*
X148183356Y-81053836D02*
X148230975Y-80863360D01*
X148230975Y-80863360D02*
X148278594Y-80768122D01*
X148278594Y-80768122D02*
X148373832Y-80672884D01*
X148373832Y-80672884D02*
X148516689Y-80625265D01*
X148516689Y-80625265D02*
X148611927Y-80625265D01*
X148611927Y-80625265D02*
X148754784Y-80672884D01*
X148754784Y-80672884D02*
X148802403Y-80720503D01*
X149373832Y-81625265D02*
X149278594Y-81577646D01*
X149278594Y-81577646D02*
X149230975Y-81530026D01*
X149230975Y-81530026D02*
X149183356Y-81434788D01*
X149183356Y-81434788D02*
X149183356Y-81149074D01*
X149183356Y-81149074D02*
X149230975Y-81053836D01*
X149230975Y-81053836D02*
X149278594Y-81006217D01*
X149278594Y-81006217D02*
X149373832Y-80958598D01*
X149373832Y-80958598D02*
X149516689Y-80958598D01*
X149516689Y-80958598D02*
X149611927Y-81006217D01*
X149611927Y-81006217D02*
X149659546Y-81053836D01*
X149659546Y-81053836D02*
X149707165Y-81149074D01*
X149707165Y-81149074D02*
X149707165Y-81434788D01*
X149707165Y-81434788D02*
X149659546Y-81530026D01*
X149659546Y-81530026D02*
X149611927Y-81577646D01*
X149611927Y-81577646D02*
X149516689Y-81625265D01*
X149516689Y-81625265D02*
X149373832Y-81625265D01*
X150135737Y-80958598D02*
X150135737Y-81625265D01*
X150135737Y-81053836D02*
X150183356Y-81006217D01*
X150183356Y-81006217D02*
X150278594Y-80958598D01*
X150278594Y-80958598D02*
X150421451Y-80958598D01*
X150421451Y-80958598D02*
X150516689Y-81006217D01*
X150516689Y-81006217D02*
X150564308Y-81101455D01*
X150564308Y-81101455D02*
X150564308Y-81625265D01*
X151040499Y-80958598D02*
X151040499Y-81625265D01*
X151040499Y-81053836D02*
X151088118Y-81006217D01*
X151088118Y-81006217D02*
X151183356Y-80958598D01*
X151183356Y-80958598D02*
X151326213Y-80958598D01*
X151326213Y-80958598D02*
X151421451Y-81006217D01*
X151421451Y-81006217D02*
X151469070Y-81101455D01*
X151469070Y-81101455D02*
X151469070Y-81625265D01*
X151707166Y-81720503D02*
X152469070Y-81720503D01*
X152897642Y-80625265D02*
X152992880Y-80625265D01*
X152992880Y-80625265D02*
X153088118Y-80672884D01*
X153088118Y-80672884D02*
X153135737Y-80720503D01*
X153135737Y-80720503D02*
X153183356Y-80815741D01*
X153183356Y-80815741D02*
X153230975Y-81006217D01*
X153230975Y-81006217D02*
X153230975Y-81244312D01*
X153230975Y-81244312D02*
X153183356Y-81434788D01*
X153183356Y-81434788D02*
X153135737Y-81530026D01*
X153135737Y-81530026D02*
X153088118Y-81577646D01*
X153088118Y-81577646D02*
X152992880Y-81625265D01*
X152992880Y-81625265D02*
X152897642Y-81625265D01*
X152897642Y-81625265D02*
X152802404Y-81577646D01*
X152802404Y-81577646D02*
X152754785Y-81530026D01*
X152754785Y-81530026D02*
X152707166Y-81434788D01*
X152707166Y-81434788D02*
X152659547Y-81244312D01*
X152659547Y-81244312D02*
X152659547Y-81006217D01*
X152659547Y-81006217D02*
X152707166Y-80815741D01*
X152707166Y-80815741D02*
X152754785Y-80720503D01*
X152754785Y-80720503D02*
X152802404Y-80672884D01*
X152802404Y-80672884D02*
X152897642Y-80625265D01*
X154183356Y-81625265D02*
X153611928Y-81625265D01*
X153897642Y-81625265D02*
X153897642Y-80625265D01*
X153897642Y-80625265D02*
X153802404Y-80768122D01*
X153802404Y-80768122D02*
X153707166Y-80863360D01*
X153707166Y-80863360D02*
X153611928Y-80910979D01*
X154516690Y-81625265D02*
X155040499Y-80958598D01*
X154516690Y-80958598D02*
X155040499Y-81625265D01*
X155611928Y-80625265D02*
X155707166Y-80625265D01*
X155707166Y-80625265D02*
X155802404Y-80672884D01*
X155802404Y-80672884D02*
X155850023Y-80720503D01*
X155850023Y-80720503D02*
X155897642Y-80815741D01*
X155897642Y-80815741D02*
X155945261Y-81006217D01*
X155945261Y-81006217D02*
X155945261Y-81244312D01*
X155945261Y-81244312D02*
X155897642Y-81434788D01*
X155897642Y-81434788D02*
X155850023Y-81530026D01*
X155850023Y-81530026D02*
X155802404Y-81577646D01*
X155802404Y-81577646D02*
X155707166Y-81625265D01*
X155707166Y-81625265D02*
X155611928Y-81625265D01*
X155611928Y-81625265D02*
X155516690Y-81577646D01*
X155516690Y-81577646D02*
X155469071Y-81530026D01*
X155469071Y-81530026D02*
X155421452Y-81434788D01*
X155421452Y-81434788D02*
X155373833Y-81244312D01*
X155373833Y-81244312D02*
X155373833Y-81006217D01*
X155373833Y-81006217D02*
X155421452Y-80815741D01*
X155421452Y-80815741D02*
X155469071Y-80720503D01*
X155469071Y-80720503D02*
X155516690Y-80672884D01*
X155516690Y-80672884D02*
X155611928Y-80625265D01*
X156326214Y-80720503D02*
X156373833Y-80672884D01*
X156373833Y-80672884D02*
X156469071Y-80625265D01*
X156469071Y-80625265D02*
X156707166Y-80625265D01*
X156707166Y-80625265D02*
X156802404Y-80672884D01*
X156802404Y-80672884D02*
X156850023Y-80720503D01*
X156850023Y-80720503D02*
X156897642Y-80815741D01*
X156897642Y-80815741D02*
X156897642Y-80910979D01*
X156897642Y-80910979D02*
X156850023Y-81053836D01*
X156850023Y-81053836D02*
X156278595Y-81625265D01*
X156278595Y-81625265D02*
X156897642Y-81625265D01*
X157088119Y-81720503D02*
X157850023Y-81720503D01*
X158088119Y-81625265D02*
X158088119Y-80625265D01*
X158088119Y-80625265D02*
X158421452Y-81339550D01*
X158421452Y-81339550D02*
X158754785Y-80625265D01*
X158754785Y-80625265D02*
X158754785Y-81625265D01*
X159659547Y-81625265D02*
X159659547Y-81101455D01*
X159659547Y-81101455D02*
X159611928Y-81006217D01*
X159611928Y-81006217D02*
X159516690Y-80958598D01*
X159516690Y-80958598D02*
X159326214Y-80958598D01*
X159326214Y-80958598D02*
X159230976Y-81006217D01*
X159659547Y-81577646D02*
X159564309Y-81625265D01*
X159564309Y-81625265D02*
X159326214Y-81625265D01*
X159326214Y-81625265D02*
X159230976Y-81577646D01*
X159230976Y-81577646D02*
X159183357Y-81482407D01*
X159183357Y-81482407D02*
X159183357Y-81387169D01*
X159183357Y-81387169D02*
X159230976Y-81291931D01*
X159230976Y-81291931D02*
X159326214Y-81244312D01*
X159326214Y-81244312D02*
X159564309Y-81244312D01*
X159564309Y-81244312D02*
X159659547Y-81196693D01*
X160278595Y-81625265D02*
X160183357Y-81577646D01*
X160183357Y-81577646D02*
X160135738Y-81482407D01*
X160135738Y-81482407D02*
X160135738Y-80625265D01*
X161040500Y-81577646D02*
X160945262Y-81625265D01*
X160945262Y-81625265D02*
X160754786Y-81625265D01*
X160754786Y-81625265D02*
X160659548Y-81577646D01*
X160659548Y-81577646D02*
X160611929Y-81482407D01*
X160611929Y-81482407D02*
X160611929Y-81101455D01*
X160611929Y-81101455D02*
X160659548Y-81006217D01*
X160659548Y-81006217D02*
X160754786Y-80958598D01*
X160754786Y-80958598D02*
X160945262Y-80958598D01*
X160945262Y-80958598D02*
X161040500Y-81006217D01*
X161040500Y-81006217D02*
X161088119Y-81101455D01*
X161088119Y-81101455D02*
X161088119Y-81196693D01*
X161088119Y-81196693D02*
X160611929Y-81291931D01*
X161516691Y-81244312D02*
X162278596Y-81244312D01*
X163326214Y-81530026D02*
X163278595Y-81577646D01*
X163278595Y-81577646D02*
X163135738Y-81625265D01*
X163135738Y-81625265D02*
X163040500Y-81625265D01*
X163040500Y-81625265D02*
X162897643Y-81577646D01*
X162897643Y-81577646D02*
X162802405Y-81482407D01*
X162802405Y-81482407D02*
X162754786Y-81387169D01*
X162754786Y-81387169D02*
X162707167Y-81196693D01*
X162707167Y-81196693D02*
X162707167Y-81053836D01*
X162707167Y-81053836D02*
X162754786Y-80863360D01*
X162754786Y-80863360D02*
X162802405Y-80768122D01*
X162802405Y-80768122D02*
X162897643Y-80672884D01*
X162897643Y-80672884D02*
X163040500Y-80625265D01*
X163040500Y-80625265D02*
X163135738Y-80625265D01*
X163135738Y-80625265D02*
X163278595Y-80672884D01*
X163278595Y-80672884D02*
X163326214Y-80720503D01*
X163897643Y-81625265D02*
X163802405Y-81577646D01*
X163802405Y-81577646D02*
X163754786Y-81530026D01*
X163754786Y-81530026D02*
X163707167Y-81434788D01*
X163707167Y-81434788D02*
X163707167Y-81149074D01*
X163707167Y-81149074D02*
X163754786Y-81053836D01*
X163754786Y-81053836D02*
X163802405Y-81006217D01*
X163802405Y-81006217D02*
X163897643Y-80958598D01*
X163897643Y-80958598D02*
X164040500Y-80958598D01*
X164040500Y-80958598D02*
X164135738Y-81006217D01*
X164135738Y-81006217D02*
X164183357Y-81053836D01*
X164183357Y-81053836D02*
X164230976Y-81149074D01*
X164230976Y-81149074D02*
X164230976Y-81434788D01*
X164230976Y-81434788D02*
X164183357Y-81530026D01*
X164183357Y-81530026D02*
X164135738Y-81577646D01*
X164135738Y-81577646D02*
X164040500Y-81625265D01*
X164040500Y-81625265D02*
X163897643Y-81625265D01*
X164659548Y-80958598D02*
X164659548Y-81625265D01*
X164659548Y-81053836D02*
X164707167Y-81006217D01*
X164707167Y-81006217D02*
X164802405Y-80958598D01*
X164802405Y-80958598D02*
X164945262Y-80958598D01*
X164945262Y-80958598D02*
X165040500Y-81006217D01*
X165040500Y-81006217D02*
X165088119Y-81101455D01*
X165088119Y-81101455D02*
X165088119Y-81625265D01*
X165564310Y-80958598D02*
X165564310Y-81625265D01*
X165564310Y-81053836D02*
X165611929Y-81006217D01*
X165611929Y-81006217D02*
X165707167Y-80958598D01*
X165707167Y-80958598D02*
X165850024Y-80958598D01*
X165850024Y-80958598D02*
X165945262Y-81006217D01*
X165945262Y-81006217D02*
X165992881Y-81101455D01*
X165992881Y-81101455D02*
X165992881Y-81625265D01*
X166850024Y-81577646D02*
X166754786Y-81625265D01*
X166754786Y-81625265D02*
X166564310Y-81625265D01*
X166564310Y-81625265D02*
X166469072Y-81577646D01*
X166469072Y-81577646D02*
X166421453Y-81482407D01*
X166421453Y-81482407D02*
X166421453Y-81101455D01*
X166421453Y-81101455D02*
X166469072Y-81006217D01*
X166469072Y-81006217D02*
X166564310Y-80958598D01*
X166564310Y-80958598D02*
X166754786Y-80958598D01*
X166754786Y-80958598D02*
X166850024Y-81006217D01*
X166850024Y-81006217D02*
X166897643Y-81101455D01*
X166897643Y-81101455D02*
X166897643Y-81196693D01*
X166897643Y-81196693D02*
X166421453Y-81291931D01*
X167754786Y-81577646D02*
X167659548Y-81625265D01*
X167659548Y-81625265D02*
X167469072Y-81625265D01*
X167469072Y-81625265D02*
X167373834Y-81577646D01*
X167373834Y-81577646D02*
X167326215Y-81530026D01*
X167326215Y-81530026D02*
X167278596Y-81434788D01*
X167278596Y-81434788D02*
X167278596Y-81149074D01*
X167278596Y-81149074D02*
X167326215Y-81053836D01*
X167326215Y-81053836D02*
X167373834Y-81006217D01*
X167373834Y-81006217D02*
X167469072Y-80958598D01*
X167469072Y-80958598D02*
X167659548Y-80958598D01*
X167659548Y-80958598D02*
X167754786Y-81006217D01*
X168040501Y-80958598D02*
X168421453Y-80958598D01*
X168183358Y-80625265D02*
X168183358Y-81482407D01*
X168183358Y-81482407D02*
X168230977Y-81577646D01*
X168230977Y-81577646D02*
X168326215Y-81625265D01*
X168326215Y-81625265D02*
X168421453Y-81625265D01*
X168897644Y-81625265D02*
X168802406Y-81577646D01*
X168802406Y-81577646D02*
X168754787Y-81530026D01*
X168754787Y-81530026D02*
X168707168Y-81434788D01*
X168707168Y-81434788D02*
X168707168Y-81149074D01*
X168707168Y-81149074D02*
X168754787Y-81053836D01*
X168754787Y-81053836D02*
X168802406Y-81006217D01*
X168802406Y-81006217D02*
X168897644Y-80958598D01*
X168897644Y-80958598D02*
X169040501Y-80958598D01*
X169040501Y-80958598D02*
X169135739Y-81006217D01*
X169135739Y-81006217D02*
X169183358Y-81053836D01*
X169183358Y-81053836D02*
X169230977Y-81149074D01*
X169230977Y-81149074D02*
X169230977Y-81434788D01*
X169230977Y-81434788D02*
X169183358Y-81530026D01*
X169183358Y-81530026D02*
X169135739Y-81577646D01*
X169135739Y-81577646D02*
X169040501Y-81625265D01*
X169040501Y-81625265D02*
X168897644Y-81625265D01*
X169659549Y-81625265D02*
X169659549Y-80958598D01*
X169659549Y-81149074D02*
X169707168Y-81053836D01*
X169707168Y-81053836D02*
X169754787Y-81006217D01*
X169754787Y-81006217D02*
X169850025Y-80958598D01*
X169850025Y-80958598D02*
X169945263Y-80958598D01*
X154646666Y-84992497D02*
X154646666Y-85706782D01*
X154646666Y-85706782D02*
X154599047Y-85849639D01*
X154599047Y-85849639D02*
X154503809Y-85944878D01*
X154503809Y-85944878D02*
X154360952Y-85992497D01*
X154360952Y-85992497D02*
X154265714Y-85992497D01*
X155646666Y-85992497D02*
X155075238Y-85992497D01*
X155360952Y-85992497D02*
X155360952Y-84992497D01*
X155360952Y-84992497D02*
X155265714Y-85135354D01*
X155265714Y-85135354D02*
X155170476Y-85230592D01*
X155170476Y-85230592D02*
X155075238Y-85278211D01*
X53379897Y-94958956D02*
X53951325Y-94958956D01*
X53665611Y-95958956D02*
X53665611Y-94958956D01*
X54665611Y-95911337D02*
X54570373Y-95958956D01*
X54570373Y-95958956D02*
X54379897Y-95958956D01*
X54379897Y-95958956D02*
X54284659Y-95911337D01*
X54284659Y-95911337D02*
X54237040Y-95816098D01*
X54237040Y-95816098D02*
X54237040Y-95435146D01*
X54237040Y-95435146D02*
X54284659Y-95339908D01*
X54284659Y-95339908D02*
X54379897Y-95292289D01*
X54379897Y-95292289D02*
X54570373Y-95292289D01*
X54570373Y-95292289D02*
X54665611Y-95339908D01*
X54665611Y-95339908D02*
X54713230Y-95435146D01*
X54713230Y-95435146D02*
X54713230Y-95530384D01*
X54713230Y-95530384D02*
X54237040Y-95625622D01*
X55522754Y-95911337D02*
X55427516Y-95958956D01*
X55427516Y-95958956D02*
X55237040Y-95958956D01*
X55237040Y-95958956D02*
X55141802Y-95911337D01*
X55141802Y-95911337D02*
X55094183Y-95816098D01*
X55094183Y-95816098D02*
X55094183Y-95435146D01*
X55094183Y-95435146D02*
X55141802Y-95339908D01*
X55141802Y-95339908D02*
X55237040Y-95292289D01*
X55237040Y-95292289D02*
X55427516Y-95292289D01*
X55427516Y-95292289D02*
X55522754Y-95339908D01*
X55522754Y-95339908D02*
X55570373Y-95435146D01*
X55570373Y-95435146D02*
X55570373Y-95530384D01*
X55570373Y-95530384D02*
X55094183Y-95625622D01*
X55998945Y-95292289D02*
X55998945Y-95958956D01*
X55998945Y-95387527D02*
X56046564Y-95339908D01*
X56046564Y-95339908D02*
X56141802Y-95292289D01*
X56141802Y-95292289D02*
X56284659Y-95292289D01*
X56284659Y-95292289D02*
X56379897Y-95339908D01*
X56379897Y-95339908D02*
X56427516Y-95435146D01*
X56427516Y-95435146D02*
X56427516Y-95958956D01*
X56856088Y-95911337D02*
X56951326Y-95958956D01*
X56951326Y-95958956D02*
X57141802Y-95958956D01*
X57141802Y-95958956D02*
X57237040Y-95911337D01*
X57237040Y-95911337D02*
X57284659Y-95816098D01*
X57284659Y-95816098D02*
X57284659Y-95768479D01*
X57284659Y-95768479D02*
X57237040Y-95673241D01*
X57237040Y-95673241D02*
X57141802Y-95625622D01*
X57141802Y-95625622D02*
X56998945Y-95625622D01*
X56998945Y-95625622D02*
X56903707Y-95578003D01*
X56903707Y-95578003D02*
X56856088Y-95482765D01*
X56856088Y-95482765D02*
X56856088Y-95435146D01*
X56856088Y-95435146D02*
X56903707Y-95339908D01*
X56903707Y-95339908D02*
X56998945Y-95292289D01*
X56998945Y-95292289D02*
X57141802Y-95292289D01*
X57141802Y-95292289D02*
X57237040Y-95339908D01*
X57617993Y-95292289D02*
X57856088Y-95958956D01*
X58094183Y-95292289D02*
X57856088Y-95958956D01*
X57856088Y-95958956D02*
X57760850Y-96197051D01*
X57760850Y-96197051D02*
X57713231Y-96244670D01*
X57713231Y-96244670D02*
X57617993Y-96292289D01*
X58903707Y-95292289D02*
X58903707Y-95958956D01*
X58665612Y-94911337D02*
X58427517Y-95625622D01*
X58427517Y-95625622D02*
X59046564Y-95625622D01*
X59427517Y-95863717D02*
X59475136Y-95911337D01*
X59475136Y-95911337D02*
X59427517Y-95958956D01*
X59427517Y-95958956D02*
X59379898Y-95911337D01*
X59379898Y-95911337D02*
X59427517Y-95863717D01*
X59427517Y-95863717D02*
X59427517Y-95958956D01*
X60427516Y-95958956D02*
X59856088Y-95958956D01*
X60141802Y-95958956D02*
X60141802Y-94958956D01*
X60141802Y-94958956D02*
X60046564Y-95101813D01*
X60046564Y-95101813D02*
X59951326Y-95197051D01*
X59951326Y-95197051D02*
X59856088Y-95244670D01*
X75828212Y-46079580D02*
X75780593Y-46127200D01*
X75780593Y-46127200D02*
X75637736Y-46174819D01*
X75637736Y-46174819D02*
X75542498Y-46174819D01*
X75542498Y-46174819D02*
X75399641Y-46127200D01*
X75399641Y-46127200D02*
X75304403Y-46031961D01*
X75304403Y-46031961D02*
X75256784Y-45936723D01*
X75256784Y-45936723D02*
X75209165Y-45746247D01*
X75209165Y-45746247D02*
X75209165Y-45603390D01*
X75209165Y-45603390D02*
X75256784Y-45412914D01*
X75256784Y-45412914D02*
X75304403Y-45317676D01*
X75304403Y-45317676D02*
X75399641Y-45222438D01*
X75399641Y-45222438D02*
X75542498Y-45174819D01*
X75542498Y-45174819D02*
X75637736Y-45174819D01*
X75637736Y-45174819D02*
X75780593Y-45222438D01*
X75780593Y-45222438D02*
X75828212Y-45270057D01*
X76399641Y-46174819D02*
X76304403Y-46127200D01*
X76304403Y-46127200D02*
X76256784Y-46079580D01*
X76256784Y-46079580D02*
X76209165Y-45984342D01*
X76209165Y-45984342D02*
X76209165Y-45698628D01*
X76209165Y-45698628D02*
X76256784Y-45603390D01*
X76256784Y-45603390D02*
X76304403Y-45555771D01*
X76304403Y-45555771D02*
X76399641Y-45508152D01*
X76399641Y-45508152D02*
X76542498Y-45508152D01*
X76542498Y-45508152D02*
X76637736Y-45555771D01*
X76637736Y-45555771D02*
X76685355Y-45603390D01*
X76685355Y-45603390D02*
X76732974Y-45698628D01*
X76732974Y-45698628D02*
X76732974Y-45984342D01*
X76732974Y-45984342D02*
X76685355Y-46079580D01*
X76685355Y-46079580D02*
X76637736Y-46127200D01*
X76637736Y-46127200D02*
X76542498Y-46174819D01*
X76542498Y-46174819D02*
X76399641Y-46174819D01*
X77161546Y-45508152D02*
X77161546Y-46174819D01*
X77161546Y-45603390D02*
X77209165Y-45555771D01*
X77209165Y-45555771D02*
X77304403Y-45508152D01*
X77304403Y-45508152D02*
X77447260Y-45508152D01*
X77447260Y-45508152D02*
X77542498Y-45555771D01*
X77542498Y-45555771D02*
X77590117Y-45651009D01*
X77590117Y-45651009D02*
X77590117Y-46174819D01*
X78066308Y-45508152D02*
X78066308Y-46174819D01*
X78066308Y-45603390D02*
X78113927Y-45555771D01*
X78113927Y-45555771D02*
X78209165Y-45508152D01*
X78209165Y-45508152D02*
X78352022Y-45508152D01*
X78352022Y-45508152D02*
X78447260Y-45555771D01*
X78447260Y-45555771D02*
X78494879Y-45651009D01*
X78494879Y-45651009D02*
X78494879Y-46174819D01*
X78732975Y-46270057D02*
X79494879Y-46270057D01*
X79923451Y-45174819D02*
X80018689Y-45174819D01*
X80018689Y-45174819D02*
X80113927Y-45222438D01*
X80113927Y-45222438D02*
X80161546Y-45270057D01*
X80161546Y-45270057D02*
X80209165Y-45365295D01*
X80209165Y-45365295D02*
X80256784Y-45555771D01*
X80256784Y-45555771D02*
X80256784Y-45793866D01*
X80256784Y-45793866D02*
X80209165Y-45984342D01*
X80209165Y-45984342D02*
X80161546Y-46079580D01*
X80161546Y-46079580D02*
X80113927Y-46127200D01*
X80113927Y-46127200D02*
X80018689Y-46174819D01*
X80018689Y-46174819D02*
X79923451Y-46174819D01*
X79923451Y-46174819D02*
X79828213Y-46127200D01*
X79828213Y-46127200D02*
X79780594Y-46079580D01*
X79780594Y-46079580D02*
X79732975Y-45984342D01*
X79732975Y-45984342D02*
X79685356Y-45793866D01*
X79685356Y-45793866D02*
X79685356Y-45555771D01*
X79685356Y-45555771D02*
X79732975Y-45365295D01*
X79732975Y-45365295D02*
X79780594Y-45270057D01*
X79780594Y-45270057D02*
X79828213Y-45222438D01*
X79828213Y-45222438D02*
X79923451Y-45174819D01*
X81209165Y-46174819D02*
X80637737Y-46174819D01*
X80923451Y-46174819D02*
X80923451Y-45174819D01*
X80923451Y-45174819D02*
X80828213Y-45317676D01*
X80828213Y-45317676D02*
X80732975Y-45412914D01*
X80732975Y-45412914D02*
X80637737Y-45460533D01*
X81542499Y-46174819D02*
X82066308Y-45508152D01*
X81542499Y-45508152D02*
X82066308Y-46174819D01*
X82637737Y-45174819D02*
X82732975Y-45174819D01*
X82732975Y-45174819D02*
X82828213Y-45222438D01*
X82828213Y-45222438D02*
X82875832Y-45270057D01*
X82875832Y-45270057D02*
X82923451Y-45365295D01*
X82923451Y-45365295D02*
X82971070Y-45555771D01*
X82971070Y-45555771D02*
X82971070Y-45793866D01*
X82971070Y-45793866D02*
X82923451Y-45984342D01*
X82923451Y-45984342D02*
X82875832Y-46079580D01*
X82875832Y-46079580D02*
X82828213Y-46127200D01*
X82828213Y-46127200D02*
X82732975Y-46174819D01*
X82732975Y-46174819D02*
X82637737Y-46174819D01*
X82637737Y-46174819D02*
X82542499Y-46127200D01*
X82542499Y-46127200D02*
X82494880Y-46079580D01*
X82494880Y-46079580D02*
X82447261Y-45984342D01*
X82447261Y-45984342D02*
X82399642Y-45793866D01*
X82399642Y-45793866D02*
X82399642Y-45555771D01*
X82399642Y-45555771D02*
X82447261Y-45365295D01*
X82447261Y-45365295D02*
X82494880Y-45270057D01*
X82494880Y-45270057D02*
X82542499Y-45222438D01*
X82542499Y-45222438D02*
X82637737Y-45174819D01*
X83304404Y-45174819D02*
X83923451Y-45174819D01*
X83923451Y-45174819D02*
X83590118Y-45555771D01*
X83590118Y-45555771D02*
X83732975Y-45555771D01*
X83732975Y-45555771D02*
X83828213Y-45603390D01*
X83828213Y-45603390D02*
X83875832Y-45651009D01*
X83875832Y-45651009D02*
X83923451Y-45746247D01*
X83923451Y-45746247D02*
X83923451Y-45984342D01*
X83923451Y-45984342D02*
X83875832Y-46079580D01*
X83875832Y-46079580D02*
X83828213Y-46127200D01*
X83828213Y-46127200D02*
X83732975Y-46174819D01*
X83732975Y-46174819D02*
X83447261Y-46174819D01*
X83447261Y-46174819D02*
X83352023Y-46127200D01*
X83352023Y-46127200D02*
X83304404Y-46079580D01*
X84113928Y-46270057D02*
X84875832Y-46270057D01*
X85113928Y-46174819D02*
X85113928Y-45174819D01*
X85113928Y-45174819D02*
X85447261Y-45889104D01*
X85447261Y-45889104D02*
X85780594Y-45174819D01*
X85780594Y-45174819D02*
X85780594Y-46174819D01*
X86685356Y-46174819D02*
X86685356Y-45651009D01*
X86685356Y-45651009D02*
X86637737Y-45555771D01*
X86637737Y-45555771D02*
X86542499Y-45508152D01*
X86542499Y-45508152D02*
X86352023Y-45508152D01*
X86352023Y-45508152D02*
X86256785Y-45555771D01*
X86685356Y-46127200D02*
X86590118Y-46174819D01*
X86590118Y-46174819D02*
X86352023Y-46174819D01*
X86352023Y-46174819D02*
X86256785Y-46127200D01*
X86256785Y-46127200D02*
X86209166Y-46031961D01*
X86209166Y-46031961D02*
X86209166Y-45936723D01*
X86209166Y-45936723D02*
X86256785Y-45841485D01*
X86256785Y-45841485D02*
X86352023Y-45793866D01*
X86352023Y-45793866D02*
X86590118Y-45793866D01*
X86590118Y-45793866D02*
X86685356Y-45746247D01*
X87304404Y-46174819D02*
X87209166Y-46127200D01*
X87209166Y-46127200D02*
X87161547Y-46031961D01*
X87161547Y-46031961D02*
X87161547Y-45174819D01*
X88066309Y-46127200D02*
X87971071Y-46174819D01*
X87971071Y-46174819D02*
X87780595Y-46174819D01*
X87780595Y-46174819D02*
X87685357Y-46127200D01*
X87685357Y-46127200D02*
X87637738Y-46031961D01*
X87637738Y-46031961D02*
X87637738Y-45651009D01*
X87637738Y-45651009D02*
X87685357Y-45555771D01*
X87685357Y-45555771D02*
X87780595Y-45508152D01*
X87780595Y-45508152D02*
X87971071Y-45508152D01*
X87971071Y-45508152D02*
X88066309Y-45555771D01*
X88066309Y-45555771D02*
X88113928Y-45651009D01*
X88113928Y-45651009D02*
X88113928Y-45746247D01*
X88113928Y-45746247D02*
X87637738Y-45841485D01*
X88542500Y-45793866D02*
X89304405Y-45793866D01*
X90352023Y-46079580D02*
X90304404Y-46127200D01*
X90304404Y-46127200D02*
X90161547Y-46174819D01*
X90161547Y-46174819D02*
X90066309Y-46174819D01*
X90066309Y-46174819D02*
X89923452Y-46127200D01*
X89923452Y-46127200D02*
X89828214Y-46031961D01*
X89828214Y-46031961D02*
X89780595Y-45936723D01*
X89780595Y-45936723D02*
X89732976Y-45746247D01*
X89732976Y-45746247D02*
X89732976Y-45603390D01*
X89732976Y-45603390D02*
X89780595Y-45412914D01*
X89780595Y-45412914D02*
X89828214Y-45317676D01*
X89828214Y-45317676D02*
X89923452Y-45222438D01*
X89923452Y-45222438D02*
X90066309Y-45174819D01*
X90066309Y-45174819D02*
X90161547Y-45174819D01*
X90161547Y-45174819D02*
X90304404Y-45222438D01*
X90304404Y-45222438D02*
X90352023Y-45270057D01*
X90923452Y-46174819D02*
X90828214Y-46127200D01*
X90828214Y-46127200D02*
X90780595Y-46079580D01*
X90780595Y-46079580D02*
X90732976Y-45984342D01*
X90732976Y-45984342D02*
X90732976Y-45698628D01*
X90732976Y-45698628D02*
X90780595Y-45603390D01*
X90780595Y-45603390D02*
X90828214Y-45555771D01*
X90828214Y-45555771D02*
X90923452Y-45508152D01*
X90923452Y-45508152D02*
X91066309Y-45508152D01*
X91066309Y-45508152D02*
X91161547Y-45555771D01*
X91161547Y-45555771D02*
X91209166Y-45603390D01*
X91209166Y-45603390D02*
X91256785Y-45698628D01*
X91256785Y-45698628D02*
X91256785Y-45984342D01*
X91256785Y-45984342D02*
X91209166Y-46079580D01*
X91209166Y-46079580D02*
X91161547Y-46127200D01*
X91161547Y-46127200D02*
X91066309Y-46174819D01*
X91066309Y-46174819D02*
X90923452Y-46174819D01*
X91685357Y-45508152D02*
X91685357Y-46174819D01*
X91685357Y-45603390D02*
X91732976Y-45555771D01*
X91732976Y-45555771D02*
X91828214Y-45508152D01*
X91828214Y-45508152D02*
X91971071Y-45508152D01*
X91971071Y-45508152D02*
X92066309Y-45555771D01*
X92066309Y-45555771D02*
X92113928Y-45651009D01*
X92113928Y-45651009D02*
X92113928Y-46174819D01*
X92590119Y-45508152D02*
X92590119Y-46174819D01*
X92590119Y-45603390D02*
X92637738Y-45555771D01*
X92637738Y-45555771D02*
X92732976Y-45508152D01*
X92732976Y-45508152D02*
X92875833Y-45508152D01*
X92875833Y-45508152D02*
X92971071Y-45555771D01*
X92971071Y-45555771D02*
X93018690Y-45651009D01*
X93018690Y-45651009D02*
X93018690Y-46174819D01*
X93875833Y-46127200D02*
X93780595Y-46174819D01*
X93780595Y-46174819D02*
X93590119Y-46174819D01*
X93590119Y-46174819D02*
X93494881Y-46127200D01*
X93494881Y-46127200D02*
X93447262Y-46031961D01*
X93447262Y-46031961D02*
X93447262Y-45651009D01*
X93447262Y-45651009D02*
X93494881Y-45555771D01*
X93494881Y-45555771D02*
X93590119Y-45508152D01*
X93590119Y-45508152D02*
X93780595Y-45508152D01*
X93780595Y-45508152D02*
X93875833Y-45555771D01*
X93875833Y-45555771D02*
X93923452Y-45651009D01*
X93923452Y-45651009D02*
X93923452Y-45746247D01*
X93923452Y-45746247D02*
X93447262Y-45841485D01*
X94780595Y-46127200D02*
X94685357Y-46174819D01*
X94685357Y-46174819D02*
X94494881Y-46174819D01*
X94494881Y-46174819D02*
X94399643Y-46127200D01*
X94399643Y-46127200D02*
X94352024Y-46079580D01*
X94352024Y-46079580D02*
X94304405Y-45984342D01*
X94304405Y-45984342D02*
X94304405Y-45698628D01*
X94304405Y-45698628D02*
X94352024Y-45603390D01*
X94352024Y-45603390D02*
X94399643Y-45555771D01*
X94399643Y-45555771D02*
X94494881Y-45508152D01*
X94494881Y-45508152D02*
X94685357Y-45508152D01*
X94685357Y-45508152D02*
X94780595Y-45555771D01*
X95066310Y-45508152D02*
X95447262Y-45508152D01*
X95209167Y-45174819D02*
X95209167Y-46031961D01*
X95209167Y-46031961D02*
X95256786Y-46127200D01*
X95256786Y-46127200D02*
X95352024Y-46174819D01*
X95352024Y-46174819D02*
X95447262Y-46174819D01*
X95923453Y-46174819D02*
X95828215Y-46127200D01*
X95828215Y-46127200D02*
X95780596Y-46079580D01*
X95780596Y-46079580D02*
X95732977Y-45984342D01*
X95732977Y-45984342D02*
X95732977Y-45698628D01*
X95732977Y-45698628D02*
X95780596Y-45603390D01*
X95780596Y-45603390D02*
X95828215Y-45555771D01*
X95828215Y-45555771D02*
X95923453Y-45508152D01*
X95923453Y-45508152D02*
X96066310Y-45508152D01*
X96066310Y-45508152D02*
X96161548Y-45555771D01*
X96161548Y-45555771D02*
X96209167Y-45603390D01*
X96209167Y-45603390D02*
X96256786Y-45698628D01*
X96256786Y-45698628D02*
X96256786Y-45984342D01*
X96256786Y-45984342D02*
X96209167Y-46079580D01*
X96209167Y-46079580D02*
X96161548Y-46127200D01*
X96161548Y-46127200D02*
X96066310Y-46174819D01*
X96066310Y-46174819D02*
X95923453Y-46174819D01*
X96685358Y-46174819D02*
X96685358Y-45508152D01*
X96685358Y-45698628D02*
X96732977Y-45603390D01*
X96732977Y-45603390D02*
X96780596Y-45555771D01*
X96780596Y-45555771D02*
X96875834Y-45508152D01*
X96875834Y-45508152D02*
X96971072Y-45508152D01*
X86026666Y-42634819D02*
X86026666Y-43349104D01*
X86026666Y-43349104D02*
X85979047Y-43491961D01*
X85979047Y-43491961D02*
X85883809Y-43587200D01*
X85883809Y-43587200D02*
X85740952Y-43634819D01*
X85740952Y-43634819D02*
X85645714Y-43634819D01*
X86455238Y-42730057D02*
X86502857Y-42682438D01*
X86502857Y-42682438D02*
X86598095Y-42634819D01*
X86598095Y-42634819D02*
X86836190Y-42634819D01*
X86836190Y-42634819D02*
X86931428Y-42682438D01*
X86931428Y-42682438D02*
X86979047Y-42730057D01*
X86979047Y-42730057D02*
X87026666Y-42825295D01*
X87026666Y-42825295D02*
X87026666Y-42920533D01*
X87026666Y-42920533D02*
X86979047Y-43063390D01*
X86979047Y-43063390D02*
X86407619Y-43634819D01*
X86407619Y-43634819D02*
X87026666Y-43634819D01*
X50924300Y-31861089D02*
X50971919Y-31718232D01*
X50971919Y-31718232D02*
X51019538Y-31670613D01*
X51019538Y-31670613D02*
X51114776Y-31622994D01*
X51114776Y-31622994D02*
X51257633Y-31622994D01*
X51257633Y-31622994D02*
X51352871Y-31670613D01*
X51352871Y-31670613D02*
X51400491Y-31718232D01*
X51400491Y-31718232D02*
X51448110Y-31813470D01*
X51448110Y-31813470D02*
X51448110Y-32194422D01*
X51448110Y-32194422D02*
X50448110Y-32194422D01*
X50448110Y-32194422D02*
X50448110Y-31861089D01*
X50448110Y-31861089D02*
X50495729Y-31765851D01*
X50495729Y-31765851D02*
X50543348Y-31718232D01*
X50543348Y-31718232D02*
X50638586Y-31670613D01*
X50638586Y-31670613D02*
X50733824Y-31670613D01*
X50733824Y-31670613D02*
X50829062Y-31718232D01*
X50829062Y-31718232D02*
X50876681Y-31765851D01*
X50876681Y-31765851D02*
X50924300Y-31861089D01*
X50924300Y-31861089D02*
X50924300Y-32194422D01*
X50781443Y-30765851D02*
X51448110Y-30765851D01*
X50781443Y-31194422D02*
X51305252Y-31194422D01*
X51305252Y-31194422D02*
X51400491Y-31146803D01*
X51400491Y-31146803D02*
X51448110Y-31051565D01*
X51448110Y-31051565D02*
X51448110Y-30908708D01*
X51448110Y-30908708D02*
X51400491Y-30813470D01*
X51400491Y-30813470D02*
X51352871Y-30765851D01*
X50781443Y-30384898D02*
X50781443Y-29861089D01*
X50781443Y-29861089D02*
X51448110Y-30384898D01*
X51448110Y-30384898D02*
X51448110Y-29861089D01*
X50781443Y-29575374D02*
X50781443Y-29051565D01*
X50781443Y-29051565D02*
X51448110Y-29575374D01*
X51448110Y-29575374D02*
X51448110Y-29051565D01*
X51400491Y-28289660D02*
X51448110Y-28384898D01*
X51448110Y-28384898D02*
X51448110Y-28575374D01*
X51448110Y-28575374D02*
X51400491Y-28670612D01*
X51400491Y-28670612D02*
X51305252Y-28718231D01*
X51305252Y-28718231D02*
X50924300Y-28718231D01*
X50924300Y-28718231D02*
X50829062Y-28670612D01*
X50829062Y-28670612D02*
X50781443Y-28575374D01*
X50781443Y-28575374D02*
X50781443Y-28384898D01*
X50781443Y-28384898D02*
X50829062Y-28289660D01*
X50829062Y-28289660D02*
X50924300Y-28242041D01*
X50924300Y-28242041D02*
X51019538Y-28242041D01*
X51019538Y-28242041D02*
X51114776Y-28718231D01*
X51448110Y-27813469D02*
X50781443Y-27813469D01*
X50971919Y-27813469D02*
X50876681Y-27765850D01*
X50876681Y-27765850D02*
X50829062Y-27718231D01*
X50829062Y-27718231D02*
X50781443Y-27622993D01*
X50781443Y-27622993D02*
X50781443Y-27527755D01*
X51067157Y-27194421D02*
X51067157Y-26432517D01*
X51448110Y-25956326D02*
X50448110Y-25956326D01*
X50448110Y-25956326D02*
X50448110Y-25718231D01*
X50448110Y-25718231D02*
X50495729Y-25575374D01*
X50495729Y-25575374D02*
X50590967Y-25480136D01*
X50590967Y-25480136D02*
X50686205Y-25432517D01*
X50686205Y-25432517D02*
X50876681Y-25384898D01*
X50876681Y-25384898D02*
X51019538Y-25384898D01*
X51019538Y-25384898D02*
X51210014Y-25432517D01*
X51210014Y-25432517D02*
X51305252Y-25480136D01*
X51305252Y-25480136D02*
X51400491Y-25575374D01*
X51400491Y-25575374D02*
X51448110Y-25718231D01*
X51448110Y-25718231D02*
X51448110Y-25956326D01*
X51400491Y-24575374D02*
X51448110Y-24670612D01*
X51448110Y-24670612D02*
X51448110Y-24861088D01*
X51448110Y-24861088D02*
X51400491Y-24956326D01*
X51400491Y-24956326D02*
X51305252Y-25003945D01*
X51305252Y-25003945D02*
X50924300Y-25003945D01*
X50924300Y-25003945D02*
X50829062Y-24956326D01*
X50829062Y-24956326D02*
X50781443Y-24861088D01*
X50781443Y-24861088D02*
X50781443Y-24670612D01*
X50781443Y-24670612D02*
X50829062Y-24575374D01*
X50829062Y-24575374D02*
X50924300Y-24527755D01*
X50924300Y-24527755D02*
X51019538Y-24527755D01*
X51019538Y-24527755D02*
X51114776Y-25003945D01*
X50781443Y-24194421D02*
X51448110Y-23956326D01*
X51448110Y-23956326D02*
X50781443Y-23718231D01*
X51448110Y-23337278D02*
X50781443Y-23337278D01*
X50448110Y-23337278D02*
X50495729Y-23384897D01*
X50495729Y-23384897D02*
X50543348Y-23337278D01*
X50543348Y-23337278D02*
X50495729Y-23289659D01*
X50495729Y-23289659D02*
X50448110Y-23337278D01*
X50448110Y-23337278D02*
X50543348Y-23337278D01*
X51400491Y-22432517D02*
X51448110Y-22527755D01*
X51448110Y-22527755D02*
X51448110Y-22718231D01*
X51448110Y-22718231D02*
X51400491Y-22813469D01*
X51400491Y-22813469D02*
X51352871Y-22861088D01*
X51352871Y-22861088D02*
X51257633Y-22908707D01*
X51257633Y-22908707D02*
X50971919Y-22908707D01*
X50971919Y-22908707D02*
X50876681Y-22861088D01*
X50876681Y-22861088D02*
X50829062Y-22813469D01*
X50829062Y-22813469D02*
X50781443Y-22718231D01*
X50781443Y-22718231D02*
X50781443Y-22527755D01*
X50781443Y-22527755D02*
X50829062Y-22432517D01*
X51400491Y-21622993D02*
X51448110Y-21718231D01*
X51448110Y-21718231D02*
X51448110Y-21908707D01*
X51448110Y-21908707D02*
X51400491Y-22003945D01*
X51400491Y-22003945D02*
X51305252Y-22051564D01*
X51305252Y-22051564D02*
X50924300Y-22051564D01*
X50924300Y-22051564D02*
X50829062Y-22003945D01*
X50829062Y-22003945D02*
X50781443Y-21908707D01*
X50781443Y-21908707D02*
X50781443Y-21718231D01*
X50781443Y-21718231D02*
X50829062Y-21622993D01*
X50829062Y-21622993D02*
X50924300Y-21575374D01*
X50924300Y-21575374D02*
X51019538Y-21575374D01*
X51019538Y-21575374D02*
X51114776Y-22051564D01*
X44398854Y-28859188D02*
X44446473Y-28716331D01*
X44446473Y-28716331D02*
X44494092Y-28668712D01*
X44494092Y-28668712D02*
X44589330Y-28621093D01*
X44589330Y-28621093D02*
X44732187Y-28621093D01*
X44732187Y-28621093D02*
X44827425Y-28668712D01*
X44827425Y-28668712D02*
X44875045Y-28716331D01*
X44875045Y-28716331D02*
X44922664Y-28811569D01*
X44922664Y-28811569D02*
X44922664Y-29192521D01*
X44922664Y-29192521D02*
X43922664Y-29192521D01*
X43922664Y-29192521D02*
X43922664Y-28859188D01*
X43922664Y-28859188D02*
X43970283Y-28763950D01*
X43970283Y-28763950D02*
X44017902Y-28716331D01*
X44017902Y-28716331D02*
X44113140Y-28668712D01*
X44113140Y-28668712D02*
X44208378Y-28668712D01*
X44208378Y-28668712D02*
X44303616Y-28716331D01*
X44303616Y-28716331D02*
X44351235Y-28763950D01*
X44351235Y-28763950D02*
X44398854Y-28859188D01*
X44398854Y-28859188D02*
X44398854Y-29192521D01*
X43922664Y-28287759D02*
X43922664Y-27621093D01*
X43922664Y-27621093D02*
X44922664Y-28287759D01*
X44922664Y-28287759D02*
X44922664Y-27621093D01*
X44922664Y-26716331D02*
X44922664Y-27287759D01*
X44922664Y-27002045D02*
X43922664Y-27002045D01*
X43922664Y-27002045D02*
X44065521Y-27097283D01*
X44065521Y-27097283D02*
X44160759Y-27192521D01*
X44160759Y-27192521D02*
X44208378Y-27287759D01*
X46001711Y-32169187D02*
X46001711Y-31407283D01*
X46382664Y-31788235D02*
X45620759Y-31788235D01*
X74114819Y-41400953D02*
X73114819Y-41400953D01*
X74067200Y-41400953D02*
X74114819Y-41496191D01*
X74114819Y-41496191D02*
X74114819Y-41686667D01*
X74114819Y-41686667D02*
X74067200Y-41781905D01*
X74067200Y-41781905D02*
X74019580Y-41829524D01*
X74019580Y-41829524D02*
X73924342Y-41877143D01*
X73924342Y-41877143D02*
X73638628Y-41877143D01*
X73638628Y-41877143D02*
X73543390Y-41829524D01*
X73543390Y-41829524D02*
X73495771Y-41781905D01*
X73495771Y-41781905D02*
X73448152Y-41686667D01*
X73448152Y-41686667D02*
X73448152Y-41496191D01*
X73448152Y-41496191D02*
X73495771Y-41400953D01*
X74114819Y-40924762D02*
X73448152Y-40924762D01*
X73114819Y-40924762D02*
X73162438Y-40972381D01*
X73162438Y-40972381D02*
X73210057Y-40924762D01*
X73210057Y-40924762D02*
X73162438Y-40877143D01*
X73162438Y-40877143D02*
X73114819Y-40924762D01*
X73114819Y-40924762D02*
X73210057Y-40924762D01*
X73448152Y-40020001D02*
X74257676Y-40020001D01*
X74257676Y-40020001D02*
X74352914Y-40067620D01*
X74352914Y-40067620D02*
X74400533Y-40115239D01*
X74400533Y-40115239D02*
X74448152Y-40210477D01*
X74448152Y-40210477D02*
X74448152Y-40353334D01*
X74448152Y-40353334D02*
X74400533Y-40448572D01*
X74067200Y-40020001D02*
X74114819Y-40115239D01*
X74114819Y-40115239D02*
X74114819Y-40305715D01*
X74114819Y-40305715D02*
X74067200Y-40400953D01*
X74067200Y-40400953D02*
X74019580Y-40448572D01*
X74019580Y-40448572D02*
X73924342Y-40496191D01*
X73924342Y-40496191D02*
X73638628Y-40496191D01*
X73638628Y-40496191D02*
X73543390Y-40448572D01*
X73543390Y-40448572D02*
X73495771Y-40400953D01*
X73495771Y-40400953D02*
X73448152Y-40305715D01*
X73448152Y-40305715D02*
X73448152Y-40115239D01*
X73448152Y-40115239D02*
X73495771Y-40020001D01*
X74114819Y-39543810D02*
X73448152Y-39543810D01*
X73114819Y-39543810D02*
X73162438Y-39591429D01*
X73162438Y-39591429D02*
X73210057Y-39543810D01*
X73210057Y-39543810D02*
X73162438Y-39496191D01*
X73162438Y-39496191D02*
X73114819Y-39543810D01*
X73114819Y-39543810D02*
X73210057Y-39543810D01*
X73448152Y-39210477D02*
X73448152Y-38829525D01*
X73114819Y-39067620D02*
X73971961Y-39067620D01*
X73971961Y-39067620D02*
X74067200Y-39020001D01*
X74067200Y-39020001D02*
X74114819Y-38924763D01*
X74114819Y-38924763D02*
X74114819Y-38829525D01*
X74114819Y-38067620D02*
X73591009Y-38067620D01*
X73591009Y-38067620D02*
X73495771Y-38115239D01*
X73495771Y-38115239D02*
X73448152Y-38210477D01*
X73448152Y-38210477D02*
X73448152Y-38400953D01*
X73448152Y-38400953D02*
X73495771Y-38496191D01*
X74067200Y-38067620D02*
X74114819Y-38162858D01*
X74114819Y-38162858D02*
X74114819Y-38400953D01*
X74114819Y-38400953D02*
X74067200Y-38496191D01*
X74067200Y-38496191D02*
X73971961Y-38543810D01*
X73971961Y-38543810D02*
X73876723Y-38543810D01*
X73876723Y-38543810D02*
X73781485Y-38496191D01*
X73781485Y-38496191D02*
X73733866Y-38400953D01*
X73733866Y-38400953D02*
X73733866Y-38162858D01*
X73733866Y-38162858D02*
X73686247Y-38067620D01*
X74114819Y-37448572D02*
X74067200Y-37543810D01*
X74067200Y-37543810D02*
X73971961Y-37591429D01*
X73971961Y-37591429D02*
X73114819Y-37591429D01*
X74114819Y-36162857D02*
X74067200Y-36258095D01*
X74067200Y-36258095D02*
X73971961Y-36305714D01*
X73971961Y-36305714D02*
X73114819Y-36305714D01*
X74114819Y-35639047D02*
X74067200Y-35734285D01*
X74067200Y-35734285D02*
X74019580Y-35781904D01*
X74019580Y-35781904D02*
X73924342Y-35829523D01*
X73924342Y-35829523D02*
X73638628Y-35829523D01*
X73638628Y-35829523D02*
X73543390Y-35781904D01*
X73543390Y-35781904D02*
X73495771Y-35734285D01*
X73495771Y-35734285D02*
X73448152Y-35639047D01*
X73448152Y-35639047D02*
X73448152Y-35496190D01*
X73448152Y-35496190D02*
X73495771Y-35400952D01*
X73495771Y-35400952D02*
X73543390Y-35353333D01*
X73543390Y-35353333D02*
X73638628Y-35305714D01*
X73638628Y-35305714D02*
X73924342Y-35305714D01*
X73924342Y-35305714D02*
X74019580Y-35353333D01*
X74019580Y-35353333D02*
X74067200Y-35400952D01*
X74067200Y-35400952D02*
X74114819Y-35496190D01*
X74114819Y-35496190D02*
X74114819Y-35639047D01*
X73448152Y-34448571D02*
X74257676Y-34448571D01*
X74257676Y-34448571D02*
X74352914Y-34496190D01*
X74352914Y-34496190D02*
X74400533Y-34543809D01*
X74400533Y-34543809D02*
X74448152Y-34639047D01*
X74448152Y-34639047D02*
X74448152Y-34781904D01*
X74448152Y-34781904D02*
X74400533Y-34877142D01*
X74067200Y-34448571D02*
X74114819Y-34543809D01*
X74114819Y-34543809D02*
X74114819Y-34734285D01*
X74114819Y-34734285D02*
X74067200Y-34829523D01*
X74067200Y-34829523D02*
X74019580Y-34877142D01*
X74019580Y-34877142D02*
X73924342Y-34924761D01*
X73924342Y-34924761D02*
X73638628Y-34924761D01*
X73638628Y-34924761D02*
X73543390Y-34877142D01*
X73543390Y-34877142D02*
X73495771Y-34829523D01*
X73495771Y-34829523D02*
X73448152Y-34734285D01*
X73448152Y-34734285D02*
X73448152Y-34543809D01*
X73448152Y-34543809D02*
X73495771Y-34448571D01*
X74114819Y-33972380D02*
X73448152Y-33972380D01*
X73114819Y-33972380D02*
X73162438Y-34019999D01*
X73162438Y-34019999D02*
X73210057Y-33972380D01*
X73210057Y-33972380D02*
X73162438Y-33924761D01*
X73162438Y-33924761D02*
X73114819Y-33972380D01*
X73114819Y-33972380D02*
X73210057Y-33972380D01*
X74067200Y-33067619D02*
X74114819Y-33162857D01*
X74114819Y-33162857D02*
X74114819Y-33353333D01*
X74114819Y-33353333D02*
X74067200Y-33448571D01*
X74067200Y-33448571D02*
X74019580Y-33496190D01*
X74019580Y-33496190D02*
X73924342Y-33543809D01*
X73924342Y-33543809D02*
X73638628Y-33543809D01*
X73638628Y-33543809D02*
X73543390Y-33496190D01*
X73543390Y-33496190D02*
X73495771Y-33448571D01*
X73495771Y-33448571D02*
X73448152Y-33353333D01*
X73448152Y-33353333D02*
X73448152Y-33162857D01*
X73448152Y-33162857D02*
X73495771Y-33067619D01*
X74067200Y-31448571D02*
X74114819Y-31543809D01*
X74114819Y-31543809D02*
X74114819Y-31734285D01*
X74114819Y-31734285D02*
X74067200Y-31829523D01*
X74067200Y-31829523D02*
X74019580Y-31877142D01*
X74019580Y-31877142D02*
X73924342Y-31924761D01*
X73924342Y-31924761D02*
X73638628Y-31924761D01*
X73638628Y-31924761D02*
X73543390Y-31877142D01*
X73543390Y-31877142D02*
X73495771Y-31829523D01*
X73495771Y-31829523D02*
X73448152Y-31734285D01*
X73448152Y-31734285D02*
X73448152Y-31543809D01*
X73448152Y-31543809D02*
X73495771Y-31448571D01*
X74114819Y-30877142D02*
X74067200Y-30972380D01*
X74067200Y-30972380D02*
X74019580Y-31019999D01*
X74019580Y-31019999D02*
X73924342Y-31067618D01*
X73924342Y-31067618D02*
X73638628Y-31067618D01*
X73638628Y-31067618D02*
X73543390Y-31019999D01*
X73543390Y-31019999D02*
X73495771Y-30972380D01*
X73495771Y-30972380D02*
X73448152Y-30877142D01*
X73448152Y-30877142D02*
X73448152Y-30734285D01*
X73448152Y-30734285D02*
X73495771Y-30639047D01*
X73495771Y-30639047D02*
X73543390Y-30591428D01*
X73543390Y-30591428D02*
X73638628Y-30543809D01*
X73638628Y-30543809D02*
X73924342Y-30543809D01*
X73924342Y-30543809D02*
X74019580Y-30591428D01*
X74019580Y-30591428D02*
X74067200Y-30639047D01*
X74067200Y-30639047D02*
X74114819Y-30734285D01*
X74114819Y-30734285D02*
X74114819Y-30877142D01*
X73448152Y-30115237D02*
X74114819Y-30115237D01*
X73543390Y-30115237D02*
X73495771Y-30067618D01*
X73495771Y-30067618D02*
X73448152Y-29972380D01*
X73448152Y-29972380D02*
X73448152Y-29829523D01*
X73448152Y-29829523D02*
X73495771Y-29734285D01*
X73495771Y-29734285D02*
X73591009Y-29686666D01*
X73591009Y-29686666D02*
X74114819Y-29686666D01*
X73448152Y-29210475D02*
X74114819Y-29210475D01*
X73543390Y-29210475D02*
X73495771Y-29162856D01*
X73495771Y-29162856D02*
X73448152Y-29067618D01*
X73448152Y-29067618D02*
X73448152Y-28924761D01*
X73448152Y-28924761D02*
X73495771Y-28829523D01*
X73495771Y-28829523D02*
X73591009Y-28781904D01*
X73591009Y-28781904D02*
X74114819Y-28781904D01*
X74067200Y-27924761D02*
X74114819Y-28019999D01*
X74114819Y-28019999D02*
X74114819Y-28210475D01*
X74114819Y-28210475D02*
X74067200Y-28305713D01*
X74067200Y-28305713D02*
X73971961Y-28353332D01*
X73971961Y-28353332D02*
X73591009Y-28353332D01*
X73591009Y-28353332D02*
X73495771Y-28305713D01*
X73495771Y-28305713D02*
X73448152Y-28210475D01*
X73448152Y-28210475D02*
X73448152Y-28019999D01*
X73448152Y-28019999D02*
X73495771Y-27924761D01*
X73495771Y-27924761D02*
X73591009Y-27877142D01*
X73591009Y-27877142D02*
X73686247Y-27877142D01*
X73686247Y-27877142D02*
X73781485Y-28353332D01*
X74067200Y-27019999D02*
X74114819Y-27115237D01*
X74114819Y-27115237D02*
X74114819Y-27305713D01*
X74114819Y-27305713D02*
X74067200Y-27400951D01*
X74067200Y-27400951D02*
X74019580Y-27448570D01*
X74019580Y-27448570D02*
X73924342Y-27496189D01*
X73924342Y-27496189D02*
X73638628Y-27496189D01*
X73638628Y-27496189D02*
X73543390Y-27448570D01*
X73543390Y-27448570D02*
X73495771Y-27400951D01*
X73495771Y-27400951D02*
X73448152Y-27305713D01*
X73448152Y-27305713D02*
X73448152Y-27115237D01*
X73448152Y-27115237D02*
X73495771Y-27019999D01*
X73448152Y-26734284D02*
X73448152Y-26353332D01*
X73114819Y-26591427D02*
X73971961Y-26591427D01*
X73971961Y-26591427D02*
X74067200Y-26543808D01*
X74067200Y-26543808D02*
X74114819Y-26448570D01*
X74114819Y-26448570D02*
X74114819Y-26353332D01*
X74114819Y-26019998D02*
X73448152Y-26019998D01*
X73114819Y-26019998D02*
X73162438Y-26067617D01*
X73162438Y-26067617D02*
X73210057Y-26019998D01*
X73210057Y-26019998D02*
X73162438Y-25972379D01*
X73162438Y-25972379D02*
X73114819Y-26019998D01*
X73114819Y-26019998D02*
X73210057Y-26019998D01*
X74114819Y-25400951D02*
X74067200Y-25496189D01*
X74067200Y-25496189D02*
X74019580Y-25543808D01*
X74019580Y-25543808D02*
X73924342Y-25591427D01*
X73924342Y-25591427D02*
X73638628Y-25591427D01*
X73638628Y-25591427D02*
X73543390Y-25543808D01*
X73543390Y-25543808D02*
X73495771Y-25496189D01*
X73495771Y-25496189D02*
X73448152Y-25400951D01*
X73448152Y-25400951D02*
X73448152Y-25258094D01*
X73448152Y-25258094D02*
X73495771Y-25162856D01*
X73495771Y-25162856D02*
X73543390Y-25115237D01*
X73543390Y-25115237D02*
X73638628Y-25067618D01*
X73638628Y-25067618D02*
X73924342Y-25067618D01*
X73924342Y-25067618D02*
X74019580Y-25115237D01*
X74019580Y-25115237D02*
X74067200Y-25162856D01*
X74067200Y-25162856D02*
X74114819Y-25258094D01*
X74114819Y-25258094D02*
X74114819Y-25400951D01*
X73448152Y-24639046D02*
X74114819Y-24639046D01*
X73543390Y-24639046D02*
X73495771Y-24591427D01*
X73495771Y-24591427D02*
X73448152Y-24496189D01*
X73448152Y-24496189D02*
X73448152Y-24353332D01*
X73448152Y-24353332D02*
X73495771Y-24258094D01*
X73495771Y-24258094D02*
X73591009Y-24210475D01*
X73591009Y-24210475D02*
X74114819Y-24210475D01*
X73326666Y-42634819D02*
X73326666Y-43349104D01*
X73326666Y-43349104D02*
X73279047Y-43491961D01*
X73279047Y-43491961D02*
X73183809Y-43587200D01*
X73183809Y-43587200D02*
X73040952Y-43634819D01*
X73040952Y-43634819D02*
X72945714Y-43634819D01*
X73707619Y-42634819D02*
X74326666Y-42634819D01*
X74326666Y-42634819D02*
X73993333Y-43015771D01*
X73993333Y-43015771D02*
X74136190Y-43015771D01*
X74136190Y-43015771D02*
X74231428Y-43063390D01*
X74231428Y-43063390D02*
X74279047Y-43111009D01*
X74279047Y-43111009D02*
X74326666Y-43206247D01*
X74326666Y-43206247D02*
X74326666Y-43444342D01*
X74326666Y-43444342D02*
X74279047Y-43539580D01*
X74279047Y-43539580D02*
X74231428Y-43587200D01*
X74231428Y-43587200D02*
X74136190Y-43634819D01*
X74136190Y-43634819D02*
X73850476Y-43634819D01*
X73850476Y-43634819D02*
X73755238Y-43587200D01*
X73755238Y-43587200D02*
X73707619Y-43539580D01*
D10*
%TO.C,U3*%
X132844358Y-31406925D02*
X132844358Y-30766925D01*
X132844358Y-33946925D02*
X132844358Y-33306925D01*
X132844358Y-36486925D02*
X132844358Y-35846925D01*
X132844358Y-39026925D02*
X132844358Y-38386925D01*
X138844358Y-29816925D02*
X141384358Y-29816925D01*
X138844358Y-30766925D02*
X132844358Y-30766925D01*
X138844358Y-31406925D02*
X132844358Y-31406925D01*
X138844358Y-33306925D02*
X132844358Y-33306925D01*
X138844358Y-33946925D02*
X132844358Y-33946925D01*
X138844358Y-35846925D02*
X132844358Y-35846925D01*
X138844358Y-36486925D02*
X132844358Y-36486925D01*
X138844358Y-38386925D02*
X132844358Y-38386925D01*
X138844358Y-39026925D02*
X132844358Y-39026925D01*
X138844358Y-39976925D02*
X138844358Y-29816925D01*
X140749358Y-39976925D02*
X138844358Y-39976925D01*
X141384358Y-29816925D02*
X141384358Y-39341925D01*
X141384358Y-39341925D02*
X140749358Y-39976925D01*
X143204358Y-30766925D02*
X141384358Y-30766925D01*
X143204358Y-31406925D02*
X141384358Y-31406925D01*
X143204358Y-31406925D02*
X143204358Y-30766925D01*
X143204358Y-33306925D02*
X141384358Y-33306925D01*
X143204358Y-33946925D02*
X141384358Y-33946925D01*
X143204358Y-33946925D02*
X143204358Y-33306925D01*
X143204358Y-35846925D02*
X141384358Y-35846925D01*
X143204358Y-36486925D02*
X141384358Y-36486925D01*
X143204358Y-36486925D02*
X143204358Y-35846925D01*
X143204358Y-38386925D02*
X141384358Y-38386925D01*
X143204358Y-39026925D02*
X141384358Y-39026925D01*
X143204358Y-39026925D02*
X143204358Y-38386925D01*
%TO.C,U4*%
X80638599Y-84054231D02*
X79368599Y-85324231D01*
X80638599Y-54844231D02*
X80638599Y-84054231D01*
X79368599Y-85324231D02*
X75558599Y-85324231D01*
X75558599Y-85324231D02*
X75558599Y-54844231D01*
X75558599Y-54844231D02*
X80638599Y-54844231D01*
%TO.C,R2*%
X106680000Y-43180000D02*
X104750000Y-43180000D01*
X104750000Y-44430000D02*
X104750000Y-41930000D01*
X104750000Y-41930000D02*
X98450000Y-41930000D01*
X98450000Y-44430000D02*
X104750000Y-44430000D01*
X98450000Y-41930000D02*
X98450000Y-44430000D01*
X96520000Y-43180000D02*
X98450000Y-43180000D01*
%TO.C,U1*%
X154970052Y-30073676D02*
X155940052Y-29103676D01*
X154970052Y-37613676D02*
X154970052Y-30073676D01*
X155940052Y-25043676D02*
X155940052Y-29103676D01*
X155940052Y-29103676D02*
X175290052Y-29103676D01*
X156540052Y-25043676D02*
X155940052Y-25043676D01*
X156540052Y-29103676D02*
X156540052Y-25043676D01*
X158480052Y-25043676D02*
X158480052Y-29103676D01*
X159080052Y-25043676D02*
X158480052Y-25043676D01*
X159080052Y-29103676D02*
X159080052Y-25043676D01*
X161020052Y-25043676D02*
X161020052Y-29103676D01*
X161620052Y-25043676D02*
X161020052Y-25043676D01*
X161620052Y-29103676D02*
X161620052Y-25043676D01*
X163560052Y-25043676D02*
X163560052Y-29103676D01*
X164160052Y-25043676D02*
X163560052Y-25043676D01*
X164160052Y-29103676D02*
X164160052Y-25043676D01*
X166100052Y-25043676D02*
X166100052Y-29103676D01*
X166700052Y-25043676D02*
X166100052Y-25043676D01*
X166700052Y-29103676D02*
X166700052Y-25043676D01*
X168640052Y-25043676D02*
X168640052Y-29103676D01*
X169240052Y-25043676D02*
X168640052Y-25043676D01*
X169240052Y-29103676D02*
X169240052Y-25043676D01*
X171180052Y-25043676D02*
X171180052Y-29103676D01*
X171780052Y-25043676D02*
X171180052Y-25043676D01*
X171780052Y-29103676D02*
X171780052Y-25043676D01*
X173720052Y-25043676D02*
X173720052Y-29103676D01*
X174320052Y-25043676D02*
X173720052Y-25043676D01*
X174320052Y-29103676D02*
X174320052Y-25043676D01*
X175290052Y-29103676D02*
X175290052Y-37613676D01*
X175290052Y-37613676D02*
X154970052Y-37613676D01*
%TO.C,R3*%
X178943102Y-82712958D02*
X177013102Y-82712958D01*
X177013102Y-83962958D02*
X177013102Y-81462958D01*
X177013102Y-81462958D02*
X170713102Y-81462958D01*
X170713102Y-83962958D02*
X177013102Y-83962958D01*
X170713102Y-81462958D02*
X170713102Y-83962958D01*
X168783102Y-82712958D02*
X170713102Y-82712958D01*
%TO.C,R4*%
X178943102Y-86704287D02*
X177013102Y-86704287D01*
X177013102Y-87954287D02*
X177013102Y-85454287D01*
X177013102Y-85454287D02*
X170713102Y-85454287D01*
X170713102Y-87954287D02*
X177013102Y-87954287D01*
X170713102Y-85454287D02*
X170713102Y-87954287D01*
X168783102Y-86704287D02*
X170713102Y-86704287D01*
%TO.C,R1*%
X120774838Y-43116036D02*
X118844838Y-43116036D01*
X118844838Y-44366036D02*
X118844838Y-41866036D01*
X118844838Y-41866036D02*
X112544838Y-41866036D01*
X112544838Y-44366036D02*
X118844838Y-44366036D01*
X112544838Y-41866036D02*
X112544838Y-44366036D01*
X110614838Y-43116036D02*
X112544838Y-43116036D01*
%TO.C,J1*%
X149880000Y-88137678D02*
X149880000Y-82937678D01*
X158380000Y-82937678D02*
X149880000Y-82937678D01*
X158380000Y-88137678D02*
X149880000Y-88137678D01*
X160080000Y-84237678D02*
X158380000Y-82937678D01*
X160080000Y-86837678D02*
X158380000Y-88137678D01*
X160080000Y-86837678D02*
X160080000Y-84237678D01*
%TO.C,J2*%
X82550000Y-44450000D02*
X82550000Y-41910000D01*
X90170000Y-44450000D02*
X82550000Y-44450000D01*
X90170000Y-42545000D02*
X90170000Y-44450000D01*
X82550000Y-41910000D02*
X89535000Y-41910000D01*
X89535000Y-41910000D02*
X90170000Y-42545000D01*
%TO.C,BZ1*%
X49467845Y-27978236D02*
G75*
G03*
X49467845Y-27978236I-1000000J0D01*
G01*
X54467845Y-27978236D02*
G75*
G03*
X54467845Y-27978236I-6000000J0D01*
G01*
%TO.C,J3*%
X70485000Y-44450000D02*
X69850000Y-43815000D01*
X77470000Y-44450000D02*
X70485000Y-44450000D01*
X69850000Y-43815000D02*
X69850000Y-41910000D01*
X69850000Y-41910000D02*
X77470000Y-41910000D01*
X77470000Y-41910000D02*
X77470000Y-44450000D01*
%TD*%
D14*
X41910000Y-20656715D02*
X180340000Y-20656715D01*
X180340000Y-88900000D01*
X41910000Y-88900000D01*
X41910000Y-20656715D01*
M02*
